<?xml version="1.0" encoding="utf-8"?>
<!-- Generator: Adobe Illustrator 19.0.0, SVG Export Plug-In . SVG Version: 6.00 Build 0)  -->
<svg version="1.2" baseProfile="tiny" xmlns="http://www.w3.org/2000/svg" xmlns:xlink="http://www.w3.org/1999/xlink" x="0px"
	 y="0px" width="77px" height="81px" viewBox="-259 380.9 77 81" xml:space="preserve">
<g id="Layer_1">
</g>
<g id="Layer_2">
	<g id="XMLID_737_">
		
			<path id="XMLID_748_" fill="none" stroke="#84B243" stroke-width="2" stroke-linecap="round" stroke-miterlimit="10" stroke-dasharray="2,4" d="
			M-243.8,441.9c5.3,5.6,12.8,9.1,21.2,9.1c2.1,0,4.1-0.2,6-0.6"/>
		<path id="XMLID_740_" fill="none" stroke="#89BB41" stroke-width="2" stroke-linecap="round" stroke-miterlimit="10" d="
			M-245.1,403.5c-4.2,5-6.6,11.5-6.6,18.5c0,7,2.5,13.4,6.6,18.4"/>
		<path id="XMLID_741_" fill="none" stroke="#89BB41" stroke-width="2" stroke-linecap="round" stroke-miterlimit="10" d="
			M-193.6,422c0-16.1-13-29.1-29.1-29.1c-8,0-15.3,3.3-20.6,8.5"/>
	</g>
	<polyline id="XMLID_749_" fill="none" stroke="#585857" stroke-width="2" stroke-linecap="round" stroke-miterlimit="10" points="
		-232.7,401.5 -206.5,401.5 -206.5,415.7 	"/>
	<polyline id="XMLID_736_" fill="none" stroke="#585857" stroke-width="2" stroke-linecap="round" stroke-miterlimit="10" points="
		-214.5,441.9 -245.1,441.9 -245.1,401.5 -239,401.5 	"/>
	
		<rect id="XMLID_735_" x="-223.9" y="411.3" fill="none" stroke="#585857" stroke-width="2" stroke-linecap="round" stroke-miterlimit="10" stroke-dasharray="1,3" width="10.4" height="4.4"/>
	
		<rect id="XMLID_734_" x="-223.9" y="419.4" fill="none" stroke="#585857" stroke-width="2" stroke-linecap="round" stroke-miterlimit="10" stroke-dasharray="1,3" width="10.4" height="4.4"/>
	
		<rect id="XMLID_733_" x="-223.9" y="427.4" fill="none" stroke="#585857" stroke-width="2" stroke-linecap="round" stroke-miterlimit="10" stroke-dasharray="1,3" width="10.4" height="4.4"/>
	
		<line id="XMLID_732_" fill="none" stroke="#585857" stroke-width="2" stroke-linecap="round" stroke-miterlimit="10" x1="-240.4" y1="420" x2="-228" y2="420"/>
	
		<line id="XMLID_731_" fill="none" stroke="#585857" stroke-width="2" stroke-linecap="round" stroke-miterlimit="10" x1="-240.4" y1="422.6" x2="-228" y2="422.6"/>
	
		<rect id="XMLID_730_" x="-237.7" y="422.7" fill="none" stroke="#585857" stroke-width="2" stroke-linecap="round" stroke-miterlimit="10" width="7" height="19.2"/>
	
		<line id="XMLID_729_" fill="none" stroke="#585857" stroke-width="2" stroke-linecap="round" stroke-miterlimit="10" x1="-245.1" y1="406.8" x2="-211.2" y2="406.8"/>
	
		<line id="XMLID_728_" fill="none" stroke="#585857" stroke-width="2" stroke-linecap="round" stroke-miterlimit="10" x1="-249.2" y1="441.9" x2="-214.3" y2="441.9"/>
	<g id="XMLID_722_">
		<path id="XMLID_743_" fill="none" stroke="#585857" stroke-width="2" stroke-linecap="round" stroke-miterlimit="10" d="
			M-195,422.4c0-1.3-0.8-1.4-1.9-1.8c0.5-0.5,0.8-1.2,0.8-2c0-1.6-1.3-3-3-3c-0.4,0-0.8,0.1-1.1,0.2c-0.9-1.1-1.9-1.8-3-1.8
			c-1,0-2,0.6-2.9,1.6c-0.2-0.1-0.4-0.1-0.7-0.1c-1.6,0-3,1.3-3,3c0,0.8,0.3,1.4,0.8,2c-1.1,0.4-1.9,1.5-1.9,2.8
			c0,1.2,0.7,2.3,1.8,2.7c-0.5,0.5-0.8,1.3-0.8,2c0,1.3,0.9,2.4,2.1,2.8c-0.2,0.4-0.4,0.9-0.4,1.5c0,0.6,0.2,1.2,0.5,1.7"/>
		
			<line id="XMLID_726_" fill="none" stroke="#585857" stroke-width="2" stroke-linecap="round" stroke-miterlimit="10" x1="-203.4" y1="429.8" x2="-203.4" y2="421.7"/>
		
			<line id="XMLID_725_" fill="none" stroke="#585857" stroke-width="2" stroke-linecap="round" stroke-miterlimit="10" x1="-203.9" y1="429.6" x2="-206.2" y2="427.3"/>
		
			<line id="XMLID_724_" fill="none" stroke="#585857" stroke-width="2" stroke-linecap="round" stroke-miterlimit="10" x1="-203" y1="427.9" x2="-200.8" y2="425.8"/>
	</g>
	<g id="XMLID_742_">
		
			<path id="XMLID_747_" fill="none" stroke="#1A96D4" stroke-width="2" stroke-linecap="round" stroke-linejoin="round" stroke-miterlimit="10" d="
			M-189.6,432.5l-15.7,15.7l-8.3-8.3l15.7-15.7c1.4-1.4,3.7-1.4,5.1,0l3.2,3.2C-188.2,428.8-188.2,431.1-189.6,432.5z"/>
		
			<line id="XMLID_746_" fill="none" stroke="#1A96D4" stroke-width="2" stroke-linecap="round" stroke-miterlimit="10" x1="-213.6" y1="439.9" x2="-216.5" y2="451.1"/>
		
			<line id="XMLID_745_" fill="none" stroke="#1A96D4" stroke-width="2" stroke-linecap="round" stroke-miterlimit="10" x1="-216.5" y1="451.1" x2="-205.3" y2="448.2"/>
		
			<line id="XMLID_744_" fill="none" stroke="#1A96D4" stroke-width="2" stroke-linecap="round" stroke-miterlimit="10" stroke-dasharray="2,3" x1="-199" y1="426.2" x2="-191.2" y2="434.1"/>
	</g>
	
		<line id="XMLID_739_" fill="none" stroke="#89BB41" stroke-width="2" stroke-linecap="round" stroke-miterlimit="10" x1="-193.6" y1="422" x2="-189.7" y2="418.1"/>
	
		<line id="XMLID_738_" fill="none" stroke="#89BB41" stroke-width="2" stroke-linecap="round" stroke-miterlimit="10" x1="-193.6" y1="422" x2="-198.1" y2="418.7"/>
</g>
</svg>
