<?xml version="1.0" encoding="utf-8"?>
<!-- Generator: Adobe Illustrator 19.0.0, SVG Export Plug-In . SVG Version: 6.00 Build 0)  -->
<svg version="1.2" baseProfile="tiny" xmlns="http://www.w3.org/2000/svg" xmlns:xlink="http://www.w3.org/1999/xlink" x="0px"
	 y="0px" width="77px" height="81px" viewBox="-259 380.9 77 81" xml:space="preserve">
<g id="Layer_1">
</g>
<g id="Layer_2">
	
		<line id="XMLID_810_" fill="none" stroke="#595857" stroke-width="2" stroke-linecap="round" stroke-miterlimit="10" x1="-195.7" y1="430.7" x2="-195.7" y2="445.6"/>
	<g id="XMLID_789_">
		
			<line id="XMLID_776_" fill="none" stroke="#89BB41" stroke-width="2" stroke-linecap="round" stroke-miterlimit="10" x1="-209.3" y1="417.4" x2="-242" y2="417.4"/>
		
			<line id="XMLID_780_" fill="none" stroke="#89BB41" stroke-width="2" stroke-linecap="round" stroke-miterlimit="10" x1="-242" y1="417.4" x2="-242" y2="422.2"/>
		
			<line id="XMLID_781_" fill="none" stroke="#89BB41" stroke-width="2" stroke-linecap="round" stroke-miterlimit="10" x1="-225.7" y1="417.4" x2="-225.7" y2="433.3"/>
		
			<line id="XMLID_782_" fill="none" stroke="#89BB41" stroke-width="2" stroke-linecap="round" stroke-miterlimit="10" x1="-225.7" y1="427.8" x2="-229.6" y2="427.8"/>
		
			<line id="XMLID_783_" fill="none" stroke="#89BB41" stroke-width="2" stroke-linecap="round" stroke-miterlimit="10" x1="-233.7" y1="427.7" x2="-242" y2="427.7"/>
		
			<line id="XMLID_787_" fill="none" stroke="#89BB41" stroke-width="2" stroke-linecap="round" stroke-miterlimit="10" x1="-225.7" y1="443" x2="-225.7" y2="437.2"/>
		
			<line id="XMLID_788_" fill="none" stroke="#89BB41" stroke-width="2" stroke-linecap="round" stroke-miterlimit="10" x1="-225.7" y1="440.1" x2="-219.1" y2="440.1"/>
		
			<line id="XMLID_790_" fill="none" stroke="#89BB41" stroke-width="2" stroke-linecap="round" stroke-miterlimit="10" x1="-213.9" y1="431.4" x2="-213.9" y2="429.4"/>
		
			<line id="XMLID_791_" fill="none" stroke="#89BB41" stroke-width="2" stroke-linecap="round" stroke-miterlimit="10" x1="-217.5" y1="428.4" x2="-210.7" y2="428.4"/>
		
			<line id="XMLID_792_" fill="none" stroke="#89BB41" stroke-width="2" stroke-linecap="round" stroke-miterlimit="10" x1="-217.5" y1="428.4" x2="-217.5" y2="423.6"/>
		
			<line id="XMLID_793_" fill="none" stroke="#89BB41" stroke-width="2" stroke-linecap="round" stroke-miterlimit="10" x1="-217.5" y1="419.6" x2="-217.5" y2="417.4"/>
		
			<line id="XMLID_794_" fill="none" stroke="#89BB41" stroke-width="2" stroke-linecap="round" stroke-miterlimit="10" x1="-236" y1="428.2" x2="-236" y2="435.2"/>
		
			<line id="XMLID_784_" fill="none" stroke="#89BB41" stroke-width="2" stroke-linecap="round" stroke-miterlimit="10" x1="-242" y1="424.8" x2="-242" y2="437.8"/>
		
			<line id="XMLID_785_" fill="none" stroke="#89BB41" stroke-width="2" stroke-linecap="round" stroke-miterlimit="10" x1="-242" y1="440.7" x2="-242" y2="443"/>
		
			<line id="XMLID_786_" fill="none" stroke="#89BB41" stroke-width="2" stroke-linecap="round" stroke-miterlimit="10" x1="-242" y1="443" x2="-225.7" y2="443"/>
		
			<line id="XMLID_803_" fill="none" stroke="#595857" stroke-width="2" stroke-linecap="round" stroke-miterlimit="10" x1="-204" y1="394.1" x2="-204" y2="398.7"/>
	</g>
	
		<line id="XMLID_777_" fill="none" stroke="#595857" stroke-width="2" stroke-linecap="round" stroke-miterlimit="10" x1="-195.7" y1="409.9" x2="-195.7" y2="419.3"/>
	
		<line id="XMLID_886_" fill="none" stroke="#595857" stroke-width="2" stroke-linecap="round" stroke-miterlimit="10" x1="-236" y1="409.9" x2="-208.7" y2="409.9"/>
	<path id="XMLID_885_" fill="none" stroke="#595857" stroke-width="2" stroke-linecap="round" stroke-miterlimit="10" d="
		M-202.2,450.5h-44.7c-0.8,0-1.4-0.6-1.4-1.4v-37.8c0-0.8,0.6-1.4,1.4-1.4h4.9"/>
	
		<ellipse id="XMLID_775_" fill="none" stroke="#595857" stroke-width="2" stroke-linecap="round" stroke-miterlimit="10" cx="-202.2" cy="445.6" rx="6.5" ry="4.9"/>
	<path id="XMLID_808_" fill="none" stroke="#595857" stroke-width="2" stroke-linecap="round" stroke-miterlimit="10" d="
		M-208.7,427v-17.4c0-2.7,2.9-4.9,6.5-4.9c3.6,0,6.5,2.2,6.5,4.9"/>
	
		<line id="XMLID_807_" fill="none" stroke="#595857" stroke-width="2" stroke-linecap="round" stroke-miterlimit="10" x1="-208.7" y1="445.6" x2="-208.7" y2="443"/>
	<path id="XMLID_811_" fill="none" stroke="#595857" stroke-width="2" stroke-linecap="round" stroke-miterlimit="10" d="
		M-208.7,443"/>
	<path id="XMLID_779_" fill="none" stroke="#595857" stroke-width="2" stroke-linecap="round" stroke-miterlimit="10" d="
		M-219.1,443"/>
	
		<rect id="XMLID_795_" x="-249.3" y="394.1" fill="none" stroke="#595857" stroke-width="2" stroke-linecap="round" stroke-miterlimit="10" width="53.7" height="7.7"/>
	
		<line id="XMLID_778_" fill="none" stroke="#595857" stroke-width="2" stroke-linecap="round" stroke-miterlimit="10" x1="-241" y1="394.1" x2="-241" y2="398.7"/>
	
		<line id="XMLID_796_" fill="none" stroke="#595857" stroke-width="2" stroke-linecap="round" stroke-miterlimit="10" x1="-235" y1="395.1" x2="-235" y2="396.4"/>
	
		<line id="XMLID_799_" fill="none" stroke="#595857" stroke-width="2" stroke-linecap="round" stroke-miterlimit="10" x1="-229" y1="394.1" x2="-229" y2="398.7"/>
	
		<line id="XMLID_798_" fill="none" stroke="#595857" stroke-width="2" stroke-linecap="round" stroke-miterlimit="10" x1="-223" y1="395.1" x2="-223" y2="396.4"/>
	
		<line id="XMLID_801_" fill="none" stroke="#595857" stroke-width="2" stroke-linecap="round" stroke-miterlimit="10" x1="-216" y1="394.1" x2="-216" y2="398.7"/>
	
		<line id="XMLID_800_" fill="none" stroke="#595857" stroke-width="2" stroke-linecap="round" stroke-miterlimit="10" x1="-210" y1="395.1" x2="-210" y2="396.4"/>
	<g id="XMLID_797_">
		
			<path id="XMLID_806_" fill="none" stroke="#1A96D4" stroke-width="2" stroke-linecap="round" stroke-linejoin="round" stroke-miterlimit="10" d="
			M-192.6,427.5l-15.7,15.7l-8.3-8.3l15.7-15.7c1.4-1.4,3.7-1.4,5.1,0l3.2,3.2C-191.2,423.8-191.2,426.1-192.6,427.5z"/>
		
			<line id="XMLID_805_" fill="none" stroke="#1A96D4" stroke-width="2" stroke-linecap="round" stroke-miterlimit="10" x1="-216.6" y1="434.9" x2="-219.5" y2="446.1"/>
		
			<line id="XMLID_804_" fill="none" stroke="#1A96D4" stroke-width="2" stroke-linecap="round" stroke-miterlimit="10" x1="-219.5" y1="446.1" x2="-208.3" y2="443.2"/>
		
			<line id="XMLID_802_" fill="none" stroke="#1A96D4" stroke-width="2" stroke-linecap="round" stroke-miterlimit="10" stroke-dasharray="2,3" x1="-202" y1="421.2" x2="-194.2" y2="429.1"/>
	</g>
</g>
</svg>
