<?xml version="1.0" encoding="utf-8"?>
<!-- Generator: Adobe Illustrator 19.0.0, SVG Export Plug-In . SVG Version: 6.00 Build 0)  -->
<svg version="1.2" baseProfile="tiny" xmlns="http://www.w3.org/2000/svg" xmlns:xlink="http://www.w3.org/1999/xlink" x="0px"
	 y="0px" width="77px" height="81px" viewBox="-259 380.9 77 81" xml:space="preserve">
<g id="Layer_1">
</g>
<g id="Layer_2">
	
		<polyline id="XMLID_1047_" fill="none" stroke="#595857" stroke-width="2" stroke-linecap="round" stroke-linejoin="round" stroke-miterlimit="10" points="
		-205.3,420.6 -205.3,407.4 -209.1,406.1 	"/>
	
		<polyline id="XMLID_1046_" fill="none" stroke="#595857" stroke-width="2" stroke-linecap="round" stroke-linejoin="round" stroke-miterlimit="10" points="
		-242.9,406.1 -246.8,407.4 -246.8,450.2 -205.3,450.2 -205.3,437.6 	"/>
	
		<line id="XMLID_1023_" fill="none" stroke="#595857" stroke-width="2" stroke-linecap="round" stroke-linejoin="round" stroke-miterlimit="10" x1="-246.8" y1="414.4" x2="-240.3" y2="414.4"/>
	
		<line id="XMLID_1025_" fill="none" stroke="#595857" stroke-width="2" stroke-linecap="round" stroke-linejoin="round" stroke-miterlimit="10" x1="-211.7" y1="414.4" x2="-205.2" y2="414.4"/>
	
		<line id="XMLID_1024_" fill="none" stroke="#595857" stroke-width="2" stroke-linecap="round" stroke-linejoin="round" stroke-miterlimit="10" x1="-240.3" y1="414.4" x2="-232.7" y2="421.9"/>
	
		<line id="XMLID_1026_" fill="none" stroke="#595857" stroke-width="2" stroke-linecap="round" stroke-linejoin="round" stroke-miterlimit="10" x1="-211.7" y1="414.4" x2="-219.2" y2="421.9"/>
	
		<line id="XMLID_1027_" fill="none" stroke="#595857" stroke-width="2" stroke-linecap="round" stroke-linejoin="round" stroke-miterlimit="10" x1="-232.7" y1="421.9" x2="-219.5" y2="421.9"/>
	
		<circle id="XMLID_1028_" fill="none" stroke="#595857" stroke-width="2" stroke-linecap="round" stroke-linejoin="round" stroke-miterlimit="10" cx="-226" cy="427.6" r="2.3"/>
	
		<line id="XMLID_1029_" fill="none" stroke="#595857" stroke-width="2" stroke-linecap="round" stroke-linejoin="round" stroke-miterlimit="10" x1="-226.1" y1="430.7" x2="-226.1" y2="433.7"/>
	
		<line id="XMLID_1031_" fill="none" stroke="#595857" stroke-width="2" stroke-linecap="round" stroke-linejoin="round" stroke-miterlimit="10" x1="-215.5" y1="393.1" x2="-215.5" y2="399.7"/>
	
		<line id="XMLID_1032_" fill="none" stroke="#595857" stroke-width="2" stroke-linecap="round" stroke-linejoin="round" stroke-miterlimit="10" x1="-215.5" y1="399.7" x2="-209.1" y2="399.7"/>
	
		<path id="XMLID_1050_" fill="none" stroke="#595857" stroke-width="2" stroke-linecap="round" stroke-linejoin="round" stroke-miterlimit="10" d="
		M-238.5,393.1h-3c-0.8,0-1.4,0.6-1.4,1.4v19.9"/>
	
		<polyline id="XMLID_1030_" fill="none" stroke="#595857" stroke-width="2" stroke-linecap="round" stroke-linejoin="round" stroke-miterlimit="10" points="
		-209.1,414.4 -209.1,399.7 -215.5,393.1 -232.5,393.1 	"/>
	
		<line id="XMLID_1036_" fill="none" stroke="#595857" stroke-width="2" stroke-linecap="round" stroke-miterlimit="10" x1="-222.3" y1="403.8" x2="-213.6" y2="403.8"/>
	
		<line id="XMLID_1038_" fill="none" stroke="#595857" stroke-width="2" stroke-linecap="round" stroke-miterlimit="10" x1="-222.3" y1="407.8" x2="-213.6" y2="407.8"/>
	
		<line id="XMLID_1039_" fill="none" stroke="#595857" stroke-width="2" stroke-linecap="round" stroke-miterlimit="10" x1="-222.3" y1="411.8" x2="-213.6" y2="411.8"/>
	<g id="XMLID_1040_">
		<path id="XMLID_1035_" fill="none" stroke="#89BB41" stroke-width="2" stroke-linecap="round" stroke-miterlimit="10" d="
			M-234.8,400.8l2.3-1.4c0.1,0,0.1,0,0.2,0c0.1,0,0.1,0,0.2,0l6.5,4c0.1,0.1,0.2,0.3,0.1,0.5l-0.2,0.4c-0.1,0.2-0.3,0.2-0.4,0.1
			l-6.1-3.8l-6.1,3.8c-0.1,0.1-0.3,0-0.4-0.1l-0.2-0.4c-0.1-0.2,0-0.4,0.1-0.5l3-1.9L-234.8,400.8z"/>
		<path id="XMLID_1034_" fill="none" stroke="#89BB41" stroke-width="2" stroke-linecap="round" stroke-miterlimit="10" d="
			M-227.2,404.7v7.6c0,0.2-0.1,0.3-0.3,0.3h-9.6c-0.2,0-0.3-0.1-0.3-0.3v-8.7"/>
		
			<line id="XMLID_988_" fill="none" stroke="#89BB41" stroke-width="2" stroke-linecap="round" stroke-miterlimit="10" x1="-227.2" y1="403.8" x2="-227.2" y2="405.1"/>
		
			<rect id="XMLID_1037_" x="-233.9" y="407.1" fill="none" stroke="#89BB41" stroke-width="2" stroke-linecap="round" stroke-miterlimit="10" width="3.4" height="5.5"/>
	</g>
	
		<line id="XMLID_1049_" fill="none" stroke="#585857" stroke-width="2" stroke-linecap="round" stroke-miterlimit="10" stroke-dasharray="2,3" x1="-208.5" y1="443.5" x2="-205.3" y2="443.5"/>
	
		<line id="XMLID_1048_" fill="none" stroke="#585857" stroke-width="2" stroke-linecap="round" stroke-miterlimit="10" stroke-dasharray="2,3" x1="-246.8" y1="443.5" x2="-222" y2="443.5"/>
	<g id="XMLID_1041_">
		
			<path id="XMLID_1045_" fill="none" stroke="#1A96D4" stroke-width="2" stroke-linecap="round" stroke-linejoin="round" stroke-miterlimit="10" d="
			M-195.6,427.5l-10,10l-5.6,5.6l-8.3-8.3l15.7-15.7c1.4-1.4,3.7-1.4,5.1,0l3.2,3.2C-194.2,423.8-194.2,426.1-195.6,427.5z"/>
		
			<line id="XMLID_1044_" fill="none" stroke="#1A96D4" stroke-width="2" stroke-linecap="round" stroke-miterlimit="10" x1="-219.6" y1="434.9" x2="-222.5" y2="446.1"/>
		
			<line id="XMLID_1043_" fill="none" stroke="#1A96D4" stroke-width="2" stroke-linecap="round" stroke-miterlimit="10" x1="-222.5" y1="446.1" x2="-211.3" y2="443.2"/>
		
			<line id="XMLID_1042_" fill="none" stroke="#1A96D4" stroke-width="2" stroke-linecap="round" stroke-miterlimit="10" stroke-dasharray="2,3" x1="-205" y1="421.2" x2="-197.2" y2="429.1"/>
	</g>
</g>
</svg>
