<?xml version="1.0" encoding="utf-8"?>
<!-- Generator: Adobe Illustrator 19.0.0, SVG Export Plug-In . SVG Version: 6.00 Build 0)  -->
<svg version="1.2" baseProfile="tiny" xmlns="http://www.w3.org/2000/svg" xmlns:xlink="http://www.w3.org/1999/xlink" x="0px"
	 y="0px" width="77px" height="81px" viewBox="-259 380.9 77 81" xml:space="preserve">
<g id="Layer_1">
</g>
<g id="Layer_2">
	<path id="XMLID_919_" fill="none" stroke="#595857" stroke-width="2" stroke-linecap="round" stroke-miterlimit="10" d="
		M-234.7,396.1h41.4c0.8,0,1.4,0.6,1.4,1.4V418c0,0.8-0.6,1.4-1.4,1.4h-7.5"/>
	<path id="XMLID_915_" fill="none" stroke="#595857" stroke-width="2" stroke-linecap="round" stroke-miterlimit="10" d="
		M-240.8,419.4h-6.7c-0.8,0-1.4-0.6-1.4-1.4v-20.5c0-0.8,0.6-1.4,1.4-1.4h4.7"/>
	
		<line id="XMLID_887_" fill="none" stroke="#595857" stroke-width="2" stroke-linecap="round" stroke-miterlimit="10" x1="-242.1" y1="401.5" x2="-197.7" y2="401.5"/>
	
		<line id="XMLID_910_" fill="none" stroke="#595857" stroke-width="2" stroke-linecap="round" stroke-miterlimit="10" x1="-242.1" y1="405.5" x2="-197.7" y2="405.5"/>
	
		<line id="XMLID_888_" fill="none" stroke="#595857" stroke-width="2" stroke-linecap="round" stroke-miterlimit="10" x1="-242.8" y1="415.1" x2="-198" y2="415.1"/>
	
		<line id="XMLID_906_" fill="none" stroke="#595857" stroke-width="2" stroke-linecap="round" stroke-miterlimit="10" x1="-204.1" y1="423.2" x2="-227.9" y2="423.2"/>
	<path id="XMLID_858_" fill="none" stroke="#595857" stroke-width="2" stroke-linecap="round" stroke-miterlimit="10" d="
		M-234.7,423.2h-4.7c-0.8,0-1.4-0.6-1.4-1.4v-5.2c0-0.8,0.6-1.4,1.4-1.4h37.2c0.8,0,1.4,0.6,1.4,1.4v3.5"/>
	<g id="XMLID_895_">
		<path id="XMLID_890_" fill="#89BB41" d="M-212.6,431.9c-1-0.6-1.7-1.7-1.7-2.9c0-1.8,1.5-3.3,3.3-3.3c1.3,0,2.3,0.7,2.9,1.7"/>
		<g id="XMLID_892_">
			
				<line id="XMLID_891_" fill="none" stroke="#89BB41" stroke-width="2" stroke-linecap="round" stroke-miterlimit="10" x1="-211" y1="417.6" x2="-211" y2="428.9"/>
			
				<polyline id="XMLID_893_" fill="none" stroke="#89BB41" stroke-width="2" stroke-linecap="round" stroke-miterlimit="10" points="
				-207.4,417.9 -211,421.5 -214.5,418 			"/>
			<path id="XMLID_899_" fill="none" stroke="#89BB41" stroke-width="2" stroke-linecap="round" stroke-miterlimit="10" d="
				M-214.5,440.5"/>
			<path id="XMLID_897_" fill="none" stroke="#89BB41" stroke-width="2" stroke-linecap="round" stroke-miterlimit="10" d="
				M-207.4,440.6"/>
		</g>
		<g id="XMLID_896_">
			
				<line id="XMLID_909_" fill="none" stroke="#89BB41" stroke-width="2" stroke-linecap="round" stroke-miterlimit="10" x1="-219.2" y1="421" x2="-211.3" y2="428.9"/>
			
				<polyline id="XMLID_898_" fill="none" stroke="#89BB41" stroke-width="2" stroke-linecap="round" stroke-miterlimit="10" points="
				-216.4,418.7 -216.4,423.8 -221.4,423.8 			"/>
		</g>
		<g id="XMLID_900_">
			
				<line id="XMLID_903_" fill="none" stroke="#89BB41" stroke-width="2" stroke-linecap="round" stroke-miterlimit="10" x1="-222.5" y1="429.3" x2="-210.2" y2="429.3"/>
			
				<polyline id="XMLID_902_" fill="none" stroke="#89BB41" stroke-width="2" stroke-linecap="round" stroke-miterlimit="10" points="
				-222.2,425.7 -218.6,429.3 -222.1,432.8 			"/>
		</g>
		<g id="XMLID_904_">
			
				<line id="XMLID_907_" fill="none" stroke="#89BB41" stroke-width="2" stroke-linecap="round" stroke-miterlimit="10" x1="-219.1" y1="437.6" x2="-202.6" y2="421.1"/>
			
				<line id="XMLID_894_" fill="none" stroke="#89BB41" stroke-width="2" stroke-linecap="round" stroke-miterlimit="10" x1="-221.4" y1="434.7" x2="-216.3" y2="434.7"/>
			
				<line id="XMLID_889_" fill="none" stroke="#89BB41" stroke-width="2" stroke-linecap="round" stroke-miterlimit="10" x1="-205.4" y1="418.7" x2="-205.4" y2="423.8"/>
		</g>
	</g>
	<g id="XMLID_868_">
		
			<path id="XMLID_884_" fill="none" stroke="#1A96D4" stroke-width="2" stroke-linecap="round" stroke-linejoin="round" stroke-miterlimit="10" d="
			M-192.6,428.5l-15.7,15.7l-8.3-8.3l15.7-15.7c1.4-1.4,3.7-1.4,5.1,0l3.2,3.2C-191.2,424.8-191.2,427.1-192.6,428.5z"/>
		
			<line id="XMLID_883_" fill="none" stroke="#1A96D4" stroke-width="2" stroke-linecap="round" stroke-miterlimit="10" x1="-216.6" y1="435.9" x2="-219.5" y2="447.1"/>
		
			<line id="XMLID_882_" fill="none" stroke="#1A96D4" stroke-width="2" stroke-linecap="round" stroke-miterlimit="10" x1="-219.5" y1="447.1" x2="-208.3" y2="444.2"/>
		
			<line id="XMLID_881_" fill="none" stroke="#1A96D4" stroke-width="2" stroke-linecap="round" stroke-miterlimit="10" stroke-dasharray="2,3" x1="-202" y1="422.2" x2="-194.2" y2="430.1"/>
	</g>
	<g id="XMLID_914_">
		<path id="XMLID_908_" fill="none" stroke="#89BB41" stroke-width="2" stroke-linecap="round" stroke-miterlimit="10" d="
			M-234.7,431.2v-12c0-1.9,1.5-3.4,3.4-3.4h0c1.9,0,3.4,1.5,3.4,3.4v11.9"/>
		<path id="XMLID_912_" fill="none" stroke="#89BB41" stroke-width="2" stroke-linecap="round" stroke-miterlimit="10" d="
			M-227.9,431.2c3.1,1.3,5.3,4.4,5.3,8.1c0,4.8-3.9,8.8-8.8,8.8c-4.8,0-8.8-3.9-8.8-8.8c0-3.6,2.2-6.7,5.3-8"/>
		
			<circle id="XMLID_913_" fill="none" stroke="#89BB41" stroke-width="2" stroke-linecap="round" stroke-miterlimit="10" cx="-231.3" cy="439.1" r="4.1"/>
		
			<line id="XMLID_911_" fill="none" stroke="#89BB41" stroke-width="2" stroke-linecap="round" stroke-miterlimit="10" x1="-231.3" y1="421.8" x2="-231.3" y2="434.6"/>
	</g>
	<circle id="XMLID_905_" fill="#595857" cx="-198.9" cy="410.5" r="1.1"/>
	<circle id="XMLID_916_" fill="#595857" cx="-202.9" cy="410.5" r="1.1"/>
</g>
</svg>
