<?xml version="1.0" encoding="utf-8"?>
<!-- Generator: Adobe Illustrator 19.0.0, SVG Export Plug-In . SVG Version: 6.00 Build 0)  -->
<svg version="1.2" baseProfile="tiny" xmlns="http://www.w3.org/2000/svg" xmlns:xlink="http://www.w3.org/1999/xlink" x="0px"
	 y="0px" width="77px" height="81px" viewBox="-259 380.9 77 81" xml:space="preserve">
<g id="Layer_1">
</g>
<g id="Layer_2">
	<g id="XMLID_946_">
		
			<polyline id="XMLID_1022_" fill="none" stroke="#595857" stroke-width="2" stroke-linecap="round" stroke-miterlimit="10" points="
			-242.6,429 -243.5,413.3 -239.9,413.3 		"/>
		<path id="XMLID_1018_" fill="none" stroke="#595857" stroke-width="2" stroke-linecap="round" stroke-miterlimit="10" d="
			M-220.4,450.2h-19.7c-0.8,0-1.4-0.6-1.4-1.4l-0.9-15.4"/>
		<polyline id="XMLID_957_" fill="none" stroke="#595857" stroke-width="2" stroke-linecap="round" stroke-miterlimit="10" points="
			-226.6,413.3 -217,413.3 -218.5,438.8 		"/>
		<path id="XMLID_950_" fill="none" stroke="#595857" stroke-width="2" stroke-linecap="round" stroke-miterlimit="10" d="
			M-213.8,411.4c0,11.8-7.5,21.4-16.7,21.4c-9.2,0-16.7-9.6-16.7-21.4"/>
		<path id="XMLID_949_" fill="none" stroke="#595857" stroke-width="2" stroke-linecap="round" stroke-miterlimit="10" d="
			M-228,426.2h-10.5c-0.8,0-1.4-0.6-1.4-1.4v-16h13.3v16C-226.6,425.5-227.2,426.2-228,426.2z"/>
		
			<line id="XMLID_951_" fill="none" stroke="#595857" stroke-width="2" stroke-linecap="round" stroke-miterlimit="10" x1="-239.9" y1="422" x2="-226.6" y2="422"/>
		<g id="XMLID_952_">
			<path id="XMLID_953_" fill="none" stroke="#89BB41" stroke-width="2" stroke-linecap="round" stroke-miterlimit="10" d="
				M-215.1,403.5c0-2.8-2.5-5.1-5.7-5.1c-0.9,0-1.7,0.2-2.4,0.5c-1.1-3-4.3-5.1-8.1-5.1c-3.5,0-6.4,1.8-7.8,4.4c-0.2,0-0.4,0-0.6,0
				c-3.3,0-5.9,2.3-5.9,5.2s2.7,5.3,5.9,5.3c0.5,0,20.2,0,20.2,0C-217.1,408-215.1,405.8-215.1,403.5z"/>
		</g>
		
			<circle id="XMLID_954_" fill="none" stroke="#89BB41" stroke-width="2" stroke-linecap="round" stroke-miterlimit="10" cx="-248" cy="396.1" r="2.4"/>
		
			<circle id="XMLID_955_" fill="none" stroke="#89BB41" stroke-width="2" stroke-linecap="round" stroke-miterlimit="10" cx="-216.2" cy="394.9" r="1.2"/>
		
			<circle id="XMLID_968_" fill="none" stroke="#89BB41" stroke-width="2" stroke-linecap="round" stroke-miterlimit="10" cx="-244.2" cy="438.9" r="1.2"/>
		
			<circle id="XMLID_969_" fill="none" stroke="#89BB41" stroke-width="2" stroke-linecap="round" stroke-miterlimit="10" cx="-229.2" cy="444.9" r="1.2"/>
		
			<circle id="XMLID_967_" fill="none" stroke="#89BB41" stroke-width="2" stroke-linecap="round" stroke-miterlimit="10" cx="-209.5" cy="410.6" r="2.1"/>
		<polyline id="XMLID_948_" fill="none" stroke="#595857" stroke-width="2" stroke-linecap="round" stroke-miterlimit="10" points="
			-239.9,413.3 -245.7,413.3 -245.7,408.7 -215,408.7 -215,413.3 -226.6,413.3 		"/>
	</g>
	<polyline id="XMLID_958_" fill="none" stroke="#595857" stroke-width="2" stroke-linecap="round" stroke-miterlimit="10" points="
		-201.9,438.8 -191.3,438.8 -191.3,450.2 -222,450.2 -222,438.8 -216.3,438.8 	"/>
	
		<line id="XMLID_966_" fill="none" stroke="#595857" stroke-width="2" stroke-linecap="round" stroke-miterlimit="10" x1="-208.4" y1="444.6" x2="-191.3" y2="444.6"/>
	
		<line id="XMLID_965_" fill="none" stroke="#595857" stroke-width="2" stroke-linecap="round" stroke-miterlimit="10" x1="-222" y1="444.6" x2="-217.8" y2="444.6"/>
	<path id="XMLID_959_" fill="none" stroke="#595857" stroke-width="2" stroke-linecap="round" stroke-miterlimit="10" d="
		M-201.5,421.8l4.7-26.4c0.1-0.8-0.4-1.5-1.1-1.6l-2-0.4c-0.8-0.1-1.5,0.4-1.6,1.1l-5.9,33.2"/>
	<g id="XMLID_960_">
		
			<path id="XMLID_964_" fill="none" stroke="#1A96D4" stroke-width="2" stroke-linecap="round" stroke-linejoin="round" stroke-miterlimit="10" d="
			M-191.6,428.5l-15.7,15.7l-8.3-8.3l15.7-15.7c1.4-1.4,3.7-1.4,5.1,0l3.2,3.2C-190.2,424.8-190.2,427.1-191.6,428.5z"/>
		
			<line id="XMLID_963_" fill="none" stroke="#1A96D4" stroke-width="2" stroke-linecap="round" stroke-miterlimit="10" x1="-215.6" y1="435.9" x2="-218.5" y2="447.1"/>
		
			<line id="XMLID_962_" fill="none" stroke="#1A96D4" stroke-width="2" stroke-linecap="round" stroke-miterlimit="10" x1="-218.5" y1="447.1" x2="-207.3" y2="444.2"/>
		
			<line id="XMLID_961_" fill="none" stroke="#1A96D4" stroke-width="2" stroke-linecap="round" stroke-miterlimit="10" stroke-dasharray="2,3" x1="-201" y1="422.2" x2="-193.2" y2="430.1"/>
	</g>
</g>
</svg>
