<?xml version="1.0" encoding="utf-8"?>
<!-- Generator: Adobe Illustrator 19.0.0, SVG Export Plug-In . SVG Version: 6.00 Build 0)  -->
<svg version="1.2" baseProfile="tiny" id="Layer_1" xmlns="http://www.w3.org/2000/svg" xmlns:xlink="http://www.w3.org/1999/xlink"
	 x="0px" y="0px" width="77px" height="81px" viewBox="-259 380.9 77 81" xml:space="preserve">
<path id="XMLID_654_" fill="none" stroke="#595857" stroke-width="2" stroke-linecap="round" stroke-miterlimit="10" d="M-202.1,441
	v10.5c0,0.8-0.6,1.4-1.4,1.4h-44.7c-0.8,0-1.4-0.6-1.4-1.4v-50.3c0-0.8,0.6-1.4,1.4-1.4h6.5"/>
<path id="XMLID_653_" fill="none" stroke="#595857" stroke-width="2" stroke-linecap="round" stroke-miterlimit="10" d="M-210,399.7
	h6.5c0.8,0,1.4,0.6,1.4,1.4v23.1"/>
<path id="XMLID_401_" fill="none" stroke="#595857" stroke-width="2" stroke-linecap="round" stroke-linejoin="round" stroke-miterlimit="10" d="
	M-230.7,406.6h19.3c0.8,0,1.4-0.6,1.4-1.4V397c0-0.8-0.6-1.4-1.4-1.4h-6l0,0c-1.4-3.4-4.7-5.7-8.4-5.7c-3.8,0-7.1,2.3-8.5,5.7l0,0
	h-6c-0.8,0-1.4,0.6-1.4,1.4v8.1c0,0.8,0.6,1.4,1.4,1.4h2.9"/>
<circle id="XMLID_397_" fill="none" stroke="#595857" stroke-width="2" stroke-miterlimit="10" cx="-225.8" cy="396.2" r="2"/>
<path id="XMLID_403_" fill="none" stroke="#89BB41" stroke-width="2" stroke-linecap="round" stroke-miterlimit="10" d="
	M-222.7,420.2c0,1.7-1.4,3.1-3.1,3.1c-1.7,0-3.1-1.4-3.1-3.1s1.4-3.1,3.1-3.1c0.8,0,1.5,0.3,2,0.7"/>
<path id="XMLID_402_" fill="none" stroke="#89BB41" stroke-width="2" stroke-linecap="round" stroke-miterlimit="10" d="M-234,429.3
	c1.7-3,4.9-5,8.6-5c3.7,0,6.1,2,7.8,5"/>
<circle id="XMLID_326_" fill="none" stroke="#595857" stroke-width="2" stroke-linecap="round" stroke-miterlimit="10" cx="-225.8" cy="422.2" r="11"/>
<line id="XMLID_406_" fill="none" stroke="#595857" stroke-width="2" stroke-linecap="round" stroke-miterlimit="10" x1="-237.4" y1="438" x2="-215.7" y2="438"/>
<line id="XMLID_408_" fill="none" stroke="#595857" stroke-width="2" stroke-linecap="round" stroke-miterlimit="10" x1="-237.4" y1="443" x2="-217.7" y2="443"/>
<line id="XMLID_409_" fill="none" stroke="#595857" stroke-width="2" stroke-linecap="round" stroke-miterlimit="10" x1="-237.4" y1="448" x2="-218.8" y2="448"/>
<g id="XMLID_407_">
	
		<path id="XMLID_412_" fill="none" stroke="#1A96D4" stroke-width="2" stroke-linecap="round" stroke-linejoin="round" stroke-miterlimit="10" d="
		M-191.6,430.5l-15.7,15.7l-8.3-8.3l15.7-15.7c1.4-1.4,3.7-1.4,5.1,0l3.2,3.2C-190.2,426.8-190.2,429.1-191.6,430.5z"/>
	
		<line id="XMLID_411_" fill="none" stroke="#1A96D4" stroke-width="2" stroke-linecap="round" stroke-miterlimit="10" x1="-215.6" y1="437.9" x2="-218.5" y2="449.1"/>
	
		<line id="XMLID_410_" fill="none" stroke="#1A96D4" stroke-width="2" stroke-linecap="round" stroke-miterlimit="10" x1="-218.5" y1="449.1" x2="-207.3" y2="446.2"/>
	
		<line id="XMLID_652_" fill="none" stroke="#1A96D4" stroke-width="2" stroke-linecap="round" stroke-miterlimit="10" stroke-dasharray="2,3" x1="-201" y1="424.2" x2="-193.2" y2="432.1"/>
</g>
</svg>
