<?xml version="1.0" encoding="utf-8"?>
<!-- Generator: Adobe Illustrator 19.0.0, SVG Export Plug-In . SVG Version: 6.00 Build 0)  -->
<svg version="1.2" baseProfile="tiny" xmlns="http://www.w3.org/2000/svg" xmlns:xlink="http://www.w3.org/1999/xlink" x="0px"
	 y="0px" width="77px" height="81px" viewBox="-259 380.9 77 81" xml:space="preserve">
<g id="Layer_1">
</g>
<g id="Layer_2">
	<path id="XMLID_945_" fill="none" stroke="#595857" stroke-width="2" stroke-linecap="round" stroke-miterlimit="10" d="
		M-191.3,428.9c0.3,1.7,0.5,3.5,0.5,5.3"/>
	<path id="XMLID_947_" fill="none" stroke="#595857" stroke-width="2" stroke-linecap="round" stroke-miterlimit="10" d="
		M-205.4,408.3c2.4,1.4,4.5,3.2,6.4,5.2c1.4,1.5,2.6,3.1,3.7,4.8"/>
	<path id="XMLID_924_" fill="none" stroke="#595857" stroke-width="2" stroke-linecap="round" stroke-miterlimit="10" d="
		M-229.9,405.2c2.8-0.8,5.7-1.3,8.7-1.3c2.2,0,4.4,0.2,6.5,0.7c1.2,0.3,2.3,0.6,3.4,1"/>
	<path id="XMLID_922_" fill="none" stroke="#595857" stroke-width="2" stroke-linecap="round" stroke-miterlimit="10" d="
		M-251.5,434.2c0-7.5,2.7-14.4,7.3-19.7"/>
	
		<line id="XMLID_934_" fill="none" stroke="#595857" stroke-width="2" stroke-linecap="round" stroke-miterlimit="10" x1="-196.3" y1="434.2" x2="-190.8" y2="434.2"/>
	
		<line id="XMLID_933_" fill="none" stroke="#595857" stroke-width="2" stroke-linecap="round" stroke-miterlimit="10" x1="-251.5" y1="434.2" x2="-213.9" y2="434.2"/>
	
		<line id="XMLID_921_" fill="none" stroke="#595857" stroke-width="2" stroke-linecap="round" stroke-miterlimit="10" x1="-250.6" y1="426.8" x2="-207.3" y2="426.8"/>
	<path id="XMLID_901_" fill="none" stroke="#595857" stroke-width="2" stroke-linecap="round" stroke-miterlimit="10" d="
		M-218.6,442.9c-0.8,0.2-1.7,0.4-2.5,0.4c-4.9,0-8.8-4-8.8-8.8"/>
	<path id="XMLID_925_" fill="none" stroke="#595857" stroke-width="2" stroke-linecap="round" stroke-miterlimit="10" d="
		M-216.6,403v-5c0-0.8-0.6-1.4-1.4-1.4h-6.3c-0.8,0-1.4,0.6-1.4,1.4v5"/>
	
		<line id="XMLID_923_" fill="none" stroke="#595857" stroke-width="2" stroke-linecap="round" stroke-miterlimit="10" x1="-221.2" y1="396.6" x2="-221.2" y2="392.1"/>
	
		<line id="XMLID_926_" fill="none" stroke="#595857" stroke-width="2" stroke-linecap="round" stroke-miterlimit="10" x1="-221.2" y1="447.1" x2="-221.2" y2="451.1"/>
	
		<line id="XMLID_929_" fill="none" stroke="#595857" stroke-width="2" stroke-linecap="round" stroke-miterlimit="10" x1="-236.6" y1="443.6" x2="-233.8" y2="440.7"/>
	<g id="XMLID_927_">
		
			<path id="XMLID_932_" fill="none" stroke="#1A96D4" stroke-width="2" stroke-linecap="round" stroke-linejoin="round" stroke-miterlimit="10" d="
			M-190.6,427.5l-15.7,15.7l-8.3-8.3l15.7-15.7c1.4-1.4,3.7-1.4,5.1,0l3.2,3.2C-189.2,423.8-189.2,426.1-190.6,427.5z"/>
		
			<line id="XMLID_931_" fill="none" stroke="#1A96D4" stroke-width="2" stroke-linecap="round" stroke-miterlimit="10" x1="-214.6" y1="434.9" x2="-217.5" y2="446.1"/>
		
			<line id="XMLID_930_" fill="none" stroke="#1A96D4" stroke-width="2" stroke-linecap="round" stroke-miterlimit="10" x1="-217.5" y1="446.1" x2="-206.3" y2="443.2"/>
		
			<line id="XMLID_928_" fill="none" stroke="#1A96D4" stroke-width="2" stroke-linecap="round" stroke-miterlimit="10" stroke-dasharray="2,3" x1="-200" y1="421.2" x2="-192.2" y2="429.1"/>
	</g>
	<g id="XMLID_920_">
		<path id="XMLID_944_" fill="none" stroke="#89BB41" stroke-width="2" stroke-linecap="round" stroke-miterlimit="10" d="
			M-231.3,414.5h-18c-0.8,0-1.4-0.6-1.4-1.4v-15.2c0-0.8,0.6-1.4,1.4-1.4h18c0.8,0,1.4,0.6,1.4,1.4v15.2
			C-229.9,413.9-230.5,414.5-231.3,414.5z"/>
		
			<line id="XMLID_943_" fill="none" stroke="#89BB41" stroke-width="2" stroke-linecap="round" stroke-miterlimit="10" x1="-250.7" y1="401.1" x2="-229.9" y2="401.1"/>
		
			<line id="XMLID_942_" fill="none" stroke="#89BB41" stroke-width="2" stroke-linecap="round" stroke-miterlimit="10" x1="-234.9" y1="404.8" x2="-233.4" y2="404.8"/>
		
			<line id="XMLID_941_" fill="none" stroke="#89BB41" stroke-width="2" stroke-linecap="round" stroke-miterlimit="10" x1="-234.9" y1="407.9" x2="-233.4" y2="407.9"/>
		
			<line id="XMLID_940_" fill="none" stroke="#89BB41" stroke-width="2" stroke-linecap="round" stroke-miterlimit="10" x1="-234.9" y1="411" x2="-233.4" y2="411"/>
		
			<line id="XMLID_939_" fill="none" stroke="#89BB41" stroke-width="2" stroke-linecap="round" stroke-miterlimit="10" x1="-245.9" y1="394.6" x2="-245.9" y2="399"/>
		
			<line id="XMLID_938_" fill="none" stroke="#89BB41" stroke-width="2" stroke-linecap="round" stroke-miterlimit="10" x1="-234.9" y1="394.6" x2="-234.9" y2="399"/>
		<path id="XMLID_937_" fill="none" stroke="#89BB41" stroke-width="2" stroke-linecap="round" stroke-miterlimit="10" d="
			M-239.2,408c0-2.2-1.8-4-4-4s-4,1.8-4,4s1.8,4,4,4c1.1,0,2.2-0.5,2.9-1.2"/>
		
			<line id="XMLID_936_" fill="none" stroke="#89BB41" stroke-width="2" stroke-linecap="round" stroke-miterlimit="10" x1="-239.2" y1="408" x2="-238.1" y2="406.9"/>
		
			<line id="XMLID_935_" fill="none" stroke="#89BB41" stroke-width="2" stroke-linecap="round" stroke-miterlimit="10" x1="-239.2" y1="408" x2="-240.5" y2="407.1"/>
	</g>
</g>
</svg>
