<?xml version="1.0" encoding="utf-8"?>
<!-- Generator: Adobe Illustrator 19.0.0, SVG Export Plug-In . SVG Version: 6.00 Build 0)  -->
<svg version="1.2" baseProfile="tiny" xmlns="http://www.w3.org/2000/svg" xmlns:xlink="http://www.w3.org/1999/xlink" x="0px"
	 y="0px" width="77px" height="81px" viewBox="-259 380.9 77 81" xml:space="preserve">
<g id="Layer_1">
</g>
<g id="Layer_2">
	<path id="XMLID_956_" fill="none" stroke="#595857" stroke-width="2" stroke-linecap="round" stroke-miterlimit="10" d="
		M-235.6,402.5l-12.9,8.1c-0.6,0.4-0.8,1.3-0.5,1.9l0.9,1.7c0.4,0.7,1.2,0.9,1.8,0.5l26-16.3l26,16.3c0.6,0.4,1.4,0.2,1.8-0.5
		l0.9-1.7c0.4-0.7,0.1-1.5-0.5-1.9l-27.5-17.1c-0.2-0.2-0.5-0.2-0.8-0.2c-0.3,0-0.5,0-0.8,0.2l-9.7,6.1"/>
	<path id="XMLID_987_" fill="none" stroke="#595857" stroke-width="2" stroke-linecap="round" stroke-miterlimit="10" d="
		M-198.1,433.3v15.5c0,0.8-0.6,1.4-1.4,1.4h-40.8c-0.8,0-1.4-0.6-1.4-1.4v-36.9"/>
	
		<line id="XMLID_981_" fill="none" stroke="#595857" stroke-width="2" stroke-linecap="round" stroke-miterlimit="10" x1="-198.1" y1="412.3" x2="-198.1" y2="418.2"/>
	<circle id="XMLID_976_" fill="#89BB41" cx="-227.3" cy="414.4" r="2.8"/>
	
		<line id="XMLID_977_" fill="none" stroke="#89BB41" stroke-width="2" stroke-linecap="round" stroke-miterlimit="10" x1="-230.1" y1="419" x2="-209.5" y2="419"/>
	<path id="XMLID_979_" fill="#89BB41" d="M-210.7,414.4l-11.3-2c-0.8,0-1.4,0.6-1.4,1.4v4.4h14.1v-2.4
		C-209.3,415-209.9,414.4-210.7,414.4z"/>
	<circle id="XMLID_983_" fill="#89BB41" cx="-227.3" cy="432.4" r="2.8"/>
	
		<line id="XMLID_982_" fill="none" stroke="#89BB41" stroke-width="2" stroke-linecap="round" stroke-miterlimit="10" x1="-230.1" y1="437" x2="-217.5" y2="437"/>
	<path id="XMLID_980_" fill="#89BB41" d="M-213.5,431.9l-8.4-1.5c-0.8,0-1.4,0.6-1.4,1.4v4.4h6.8"/>
	
		<path id="XMLID_984_" fill="none" stroke="#595857" stroke-width="2" stroke-linecap="round" stroke-linejoin="round" stroke-miterlimit="10" d="
		M-217.7,439.5c-7.3,0-15.7,0-15.8,0.1v-15.6h26.1v0.9"/>
	
		<path id="XMLID_986_" fill="none" stroke="#595857" stroke-width="2" stroke-linecap="round" stroke-linejoin="round" stroke-miterlimit="10" d="
		M-207.2,443c0,0.7,0.6,1.3,1.3,1.3c0.7,0,1.3-0.6,1.3-1.3v-3.5"/>
	
		<path id="XMLID_985_" fill="none" stroke="#595857" stroke-width="2" stroke-linecap="round" stroke-linejoin="round" stroke-miterlimit="10" d="
		M-204.5,422.8v-3.2c0-0.8-0.6-1.4-1.4-1.4s-1.4,0.6-1.4,1.4v1.8h-26.1v-3.7c0-0.8-0.6-1.4-1.4-1.4s-1.4,0.6-1.4,1.4v25.1
		c0,0.8,0.6,1.4,1.4,1.4s1.4-0.6,1.4-1.4v-0.8c0.1,0,7.3,0,14.5,0"/>
	<g id="XMLID_970_">
		
			<path id="XMLID_974_" fill="none" stroke="#1A96D4" stroke-width="2" stroke-linecap="round" stroke-linejoin="round" stroke-miterlimit="10" d="
			M-192.6,427.5l-15.7,15.7l-8.3-8.3l15.7-15.7c1.4-1.4,3.7-1.4,5.1,0l3.2,3.2C-191.2,423.8-191.2,426.1-192.6,427.5z"/>
		
			<line id="XMLID_973_" fill="none" stroke="#1A96D4" stroke-width="2" stroke-linecap="round" stroke-miterlimit="10" x1="-216.6" y1="434.9" x2="-219.5" y2="446.1"/>
		
			<line id="XMLID_972_" fill="none" stroke="#1A96D4" stroke-width="2" stroke-linecap="round" stroke-miterlimit="10" x1="-219.5" y1="446.1" x2="-208.3" y2="443.2"/>
		
			<line id="XMLID_971_" fill="none" stroke="#1A96D4" stroke-width="2" stroke-linecap="round" stroke-miterlimit="10" stroke-dasharray="2,3" x1="-202" y1="421.2" x2="-194.2" y2="429.1"/>
	</g>
</g>
</svg>
