<?xml version="1.0" encoding="utf-8"?>
<!-- Generator: Adobe Illustrator 19.0.0, SVG Export Plug-In . SVG Version: 6.00 Build 0)  -->
<svg version="1.2" baseProfile="tiny" xmlns="http://www.w3.org/2000/svg" xmlns:xlink="http://www.w3.org/1999/xlink" x="0px"
	 y="0px" width="77px" height="81px" viewBox="-259 380.9 77 81" xml:space="preserve">
<g id="Layer_1">
</g>
<g id="Layer_2">
	
		<line id="XMLID_1008_" fill="none" stroke="#595857" stroke-width="2" stroke-linecap="round" stroke-miterlimit="10" x1="-199.3" y1="434.2" x2="-199.3" y2="446.7"/>
	<polyline id="XMLID_1007_" fill="none" stroke="#595857" stroke-width="2" stroke-linecap="round" stroke-miterlimit="10" points="
		-241.4,446.7 -241.4,413 -199.3,413 -199.3,417.4 	"/>
	
		<polyline id="XMLID_978_" fill="none" stroke="#595857" stroke-width="2" stroke-linecap="round" stroke-linejoin="round" stroke-miterlimit="10" points="
		-230.5,400.8 -249,413 -191.7,413 -220.4,394.1 -224.7,397 	"/>
	
		<polyline id="XMLID_990_" fill="none" stroke="#595857" stroke-width="2" stroke-linecap="round" stroke-linejoin="round" stroke-miterlimit="10" points="
		-218.8,447 -246.8,447 -246.8,450.2 -193.9,450.2 -193.9,447 -219.3,447 	"/>
	
		<polyline id="XMLID_991_" fill="none" stroke="#595857" stroke-width="2" stroke-linecap="round" stroke-linejoin="round" stroke-miterlimit="10" points="
		-238,405.8 -238,397 -243,397 -243,409 	"/>
	<polyline id="XMLID_998_" fill="none" stroke="#595857" stroke-width="2" stroke-linecap="round" stroke-miterlimit="10" points="
		-217.5,438.5 -217.5,436.2 -223.4,436.2 -223.4,447 -218.9,447 	"/>
	
		<rect id="XMLID_992_" x="-236.4" y="417.1" fill="none" stroke="#89BB41" stroke-width="2" stroke-linecap="round" stroke-miterlimit="10" width="5.9" height="5.9"/>
	
		<rect id="XMLID_996_" x="-223.4" y="417.1" fill="none" stroke="#89BB41" stroke-width="2" stroke-linecap="round" stroke-miterlimit="10" width="5.9" height="5.9"/>
	<polyline id="XMLID_1016_" fill="none" stroke="#89BB41" stroke-width="2" stroke-linecap="round" stroke-miterlimit="10" points="
		-205.1,423 -210.4,423 -210.4,417.1 -204.5,417.1 -204.5,422.5 	"/>
	
		<rect id="XMLID_1000_" x="-236.4" y="427.1" fill="none" stroke="#89BB41" stroke-width="2" stroke-linecap="round" stroke-miterlimit="10" width="5.9" height="5.9"/>
	
		<rect id="XMLID_999_" x="-223.4" y="427.1" fill="none" stroke="#89BB41" stroke-width="2" stroke-linecap="round" stroke-miterlimit="10" width="5.9" height="5.9"/>
	<polyline id="XMLID_975_" fill="none" stroke="#89BB41" stroke-width="2" stroke-linecap="round" stroke-miterlimit="10" points="
		-210.4,428.7 -210.4,427.1 -209.3,427.1 	"/>
	<g id="XMLID_989_">
		<path id="XMLID_1012_" fill="none" stroke="#585857" stroke-width="2" stroke-linecap="round" stroke-miterlimit="10" d="
			M-242.5,408.7c-0.6-0.4-1.2-0.6-1.8-0.6c-1,0-2,0.6-2.9,1.6c-0.2-0.1-0.4-0.1-0.7-0.1c-1.6,0-3,1.3-3,3c0,0.8,0.3,1.4,0.8,2
			c-1.1,0.4-1.9,1.5-1.9,2.8c0,1.2,0.7,2.3,1.8,2.7c-0.5,0.5-0.8,1.3-0.8,2c0,1.3,0.9,2.4,2.1,2.8"/>
		
			<line id="XMLID_1011_" fill="none" stroke="#585857" stroke-width="2" stroke-linecap="round" stroke-miterlimit="10" x1="-244.4" y1="446.8" x2="-244.4" y2="415.7"/>
		
			<line id="XMLID_1010_" fill="none" stroke="#585857" stroke-width="2" stroke-linecap="round" stroke-miterlimit="10" x1="-244.9" y1="423.6" x2="-247.2" y2="421.3"/>
		
			<line id="XMLID_1009_" fill="none" stroke="#585857" stroke-width="2" stroke-linecap="round" stroke-miterlimit="10" x1="-244" y1="421.9" x2="-241.8" y2="419.8"/>
		<path id="XMLID_1014_" fill="none" stroke="#585857" stroke-width="2" stroke-linecap="round" stroke-miterlimit="10" d="
			M-241.4,429.2c-0.8,0.5-1.8,0.9-2.9,0.9c-2.8,0-5-2.1-5-4.6"/>
	</g>
	<g id="XMLID_1013_">
		<path id="XMLID_1019_" fill="none" stroke="#585857" stroke-width="2" stroke-linecap="round" stroke-miterlimit="10" d="
			M-197.9,408.7c0.6-0.4,1.2-0.6,1.8-0.6c1,0,2,0.6,2.9,1.6c0.2-0.1,0.4-0.1,0.7-0.1c1.6,0,3,1.3,3,3c0,0.8-0.3,1.4-0.8,2
			c1.1,0.4,1.9,1.5,1.9,2.8c0,1.2-0.7,2.3-1.8,2.7c0.5,0.5,0.8,1.3,0.8,2c0,1.3-0.9,2.4-2.1,2.8"/>
		
			<line id="XMLID_1021_" fill="none" stroke="#585857" stroke-width="2" stroke-linecap="round" stroke-miterlimit="10" x1="-196" y1="418.9" x2="-196" y2="415.7"/>
		
			<line id="XMLID_1020_" fill="none" stroke="#585857" stroke-width="2" stroke-linecap="round" stroke-miterlimit="10" x1="-196" y1="446.8" x2="-196" y2="431.3"/>
		
			<line id="XMLID_1017_" fill="none" stroke="#585857" stroke-width="2" stroke-linecap="round" stroke-miterlimit="10" x1="-193.5" y1="421.6" x2="-193.2" y2="421.3"/>
		<path id="XMLID_1051_" fill="none" stroke="#585857" stroke-width="2" stroke-linecap="round" stroke-miterlimit="10" d="
			M-198.6,419.8"/>
		<path id="XMLID_1033_" fill="none" stroke="#585857" stroke-width="2" stroke-linecap="round" stroke-miterlimit="10" d="
			M-196.4,420.9"/>
		<path id="XMLID_1015_" fill="none" stroke="#585857" stroke-width="2" stroke-linecap="round" stroke-miterlimit="10" d="
			M-191,425.4"/>
	</g>
	<g id="XMLID_995_">
		
			<path id="XMLID_1006_" fill="none" stroke="#1A96D4" stroke-width="2" stroke-linecap="round" stroke-linejoin="round" stroke-miterlimit="10" d="
			M-192.6,427.5l-15.7,15.7l-8.3-8.3l5.8-5.8l9.8-9.8c1.4-1.4,3.7-1.4,5.1,0l3.2,3.2C-191.2,423.8-191.2,426.1-192.6,427.5z"/>
		
			<line id="XMLID_1005_" fill="none" stroke="#1A96D4" stroke-width="2" stroke-linecap="round" stroke-miterlimit="10" x1="-216.6" y1="434.9" x2="-219.5" y2="446.1"/>
		
			<line id="XMLID_1003_" fill="none" stroke="#1A96D4" stroke-width="2" stroke-linecap="round" stroke-miterlimit="10" x1="-219.5" y1="446.1" x2="-208.3" y2="443.2"/>
		
			<line id="XMLID_1002_" fill="none" stroke="#1A96D4" stroke-width="2" stroke-linecap="round" stroke-miterlimit="10" stroke-dasharray="2,3" x1="-202" y1="421.2" x2="-194.2" y2="429.1"/>
	</g>
</g>
</svg>
