<?xml version="1.0" encoding="utf-8"?>
<!-- Generator: Adobe Illustrator 19.0.0, SVG Export Plug-In . SVG Version: 6.00 Build 0)  -->
<svg version="1.2" baseProfile="tiny" xmlns="http://www.w3.org/2000/svg" xmlns:xlink="http://www.w3.org/1999/xlink" x="0px"
	 y="0px" width="77px" height="81px" viewBox="-259 380.9 77 81" xml:space="preserve">
<g id="Layer_1">
</g>
<g id="Layer_2">
	
		<line id="XMLID_695_" fill="none" stroke="#595857" stroke-width="2" stroke-linecap="round" stroke-miterlimit="10" x1="-235" y1="404.6" x2="-226.1" y2="404.6"/>
	<path id="XMLID_693_" fill="none" stroke="#595857" stroke-width="2" stroke-linecap="round" stroke-miterlimit="10" d="
		M-216.5,442.4h-32.2c-0.7,0-1.4-0.6-1.4-1.4v-35c0-0.8,0.6-1.4,1.4-1.4h5.6"/>
	<path id="XMLID_679_" fill="none" stroke="#595857" stroke-width="2" stroke-linecap="round" stroke-miterlimit="10" d="
		M-194.5,434.7v6.2c0,0.8-0.6,1.4-1.4,1.4h-6.6"/>
	<path id="XMLID_692_" fill="none" stroke="#595857" stroke-width="2" stroke-linecap="round" stroke-miterlimit="10" d="
		M-217.4,404.6h21.6c0.7,0,1.4,0.6,1.4,1.4v17.5"/>
	<path id="XMLID_672_" fill="none" stroke="#595857" stroke-width="2" stroke-linecap="round" stroke-miterlimit="10" d="
		M-222,411.2L-222,411.2c-2.2,0-4-1.8-4-4v-9.3c0-2.2,1.8-4,4-4l0,0c2.2,0,4,1.8,4,4v9.3C-218,409.4-219.8,411.2-222,411.2z"/>
	<path id="XMLID_673_" fill="#595857" d="M-222,400.2L-222,400.2c-1.2,0-2.1-0.9-2.1-2l0,0c0-1.1,0.9-2,2-2h0c1.1,0,2,0.9,2,2l0,0
		C-219.9,399.3-220.9,400.2-222,400.2z"/>
	<path id="XMLID_658_" fill="none" stroke="#89BB41" stroke-width="2" stroke-linecap="round" stroke-miterlimit="10" d="
		M-235.4,435.3h10.4l-1.3-3.5c0,0-0.6-1.5-2.1-1.3c0,0-2.5,0.1-3.6-0.8c0,0-0.7-1-0.4-1.7c0,0,1.1-1.7,1.5-2.2c0,0,1.6-2,0.1-2.6
		c0,0,0.7-4.4-2.5-5.3c0,0-1.3-0.3-2.7-0.9c0.1,0.6-0.6,0.9-0.6,0.9c-3.2,0.9-2.5,5.3-2.5,5.3c-1.5,0.7,0.1,2.6,0.1,2.6
		c0.4,0.6,1.5,2.2,1.5,2.2c0.2,0.7-0.4,1.7-0.4,1.7c-1.1,0.9-3.6,0.8-3.6,0.8c-1.5-0.1-2.1,1.3-2.1,1.3l-1.3,3.5h9.9"/>
	
		<line id="XMLID_683_" fill="none" stroke="#585857" stroke-width="2" stroke-linecap="round" stroke-miterlimit="10" stroke-dasharray="2,3" x1="-219.7" y1="415.9" x2="-199.7" y2="415.9"/>
	
		<line id="XMLID_684_" fill="none" stroke="#585857" stroke-width="2" stroke-linecap="round" stroke-miterlimit="10" x1="-219.7" y1="422.4" x2="-210.3" y2="422.4"/>
	
		<line id="XMLID_686_" fill="none" stroke="#585857" stroke-width="2" stroke-linecap="round" stroke-miterlimit="10" x1="-219.7" y1="428.4" x2="-205.2" y2="428.4"/>
	
		<line id="XMLID_687_" fill="none" stroke="#585857" stroke-width="2" stroke-linecap="round" stroke-miterlimit="10" x1="-219.7" y1="434.4" x2="-211.3" y2="434.4"/>
	<g id="XMLID_685_">
		
			<path id="XMLID_691_" fill="none" stroke="#1A96D4" stroke-width="2" stroke-linecap="round" stroke-linejoin="round" stroke-miterlimit="10" d="
			M-191.6,431.5l-15.7,15.7l-8.3-8.3l15.7-15.7c1.4-1.4,3.7-1.4,5.1,0l3.2,3.2C-190.2,427.8-190.2,430.1-191.6,431.5z"/>
		
			<line id="XMLID_690_" fill="none" stroke="#1A96D4" stroke-width="2" stroke-linecap="round" stroke-miterlimit="10" x1="-215.6" y1="438.9" x2="-218.5" y2="450.1"/>
		
			<line id="XMLID_689_" fill="none" stroke="#1A96D4" stroke-width="2" stroke-linecap="round" stroke-miterlimit="10" x1="-218.5" y1="450.1" x2="-207.3" y2="447.2"/>
		
			<line id="XMLID_688_" fill="none" stroke="#1A96D4" stroke-width="2" stroke-linecap="round" stroke-miterlimit="10" stroke-dasharray="2,3" x1="-201" y1="425.2" x2="-193.2" y2="433.1"/>
	</g>
</g>
</svg>
