<?xml version="1.0" encoding="utf-8"?>
<!-- Generator: Adobe Illustrator 19.0.0, SVG Export Plug-In . SVG Version: 6.00 Build 0)  -->
<svg version="1.2" baseProfile="tiny" xmlns="http://www.w3.org/2000/svg" xmlns:xlink="http://www.w3.org/1999/xlink" x="0px"
	 y="0px" width="77px" height="81px" viewBox="-259 380.9 77 81" xml:space="preserve">
<g id="Layer_1">
</g>
<g id="Layer_2">
	
		<line id="XMLID_855_" fill="none" stroke="#595857" stroke-width="2" stroke-linecap="round" stroke-miterlimit="10" x1="-249.7" y1="452.1" x2="-190.7" y2="452.1"/>
	<polyline id="XMLID_816_" fill="none" stroke="#595857" stroke-width="2" stroke-linecap="round" stroke-miterlimit="10" points="
		-244.9,412.9 -244.9,452.1 -224.2,452.1 -224.2,402.9 -244.9,402.9 -244.9,407.9 	"/>
	
		<line id="XMLID_879_" fill="none" stroke="#595857" stroke-width="2" stroke-linecap="round" stroke-miterlimit="10" x1="-197.2" y1="420.2" x2="-197.2" y2="414"/>
	<polyline id="XMLID_875_" fill="none" stroke="#595857" stroke-width="2" stroke-linecap="round" stroke-miterlimit="10" points="
		-213.9,406 -217.9,406 -217.9,452.1 -197.2,452.1 -197.2,435.3 	"/>
	
		<rect id="XMLID_859_" x="-240.1" y="397.3" fill="none" stroke="#595857" stroke-width="2" stroke-linecap="round" stroke-miterlimit="10" width="11.2" height="5.6"/>
	
		<line id="XMLID_860_" fill="none" stroke="#595857" stroke-width="2" stroke-linecap="round" stroke-miterlimit="10" x1="-234.6" y1="397.3" x2="-234.6" y2="392.2"/>
	
		<line id="XMLID_861_" fill="none" stroke="#595857" stroke-width="2" stroke-linecap="round" stroke-miterlimit="10" x1="-238.7" y1="408.7" x2="-230.4" y2="408.7"/>
	
		<line id="XMLID_863_" fill="none" stroke="#595857" stroke-width="2" stroke-linecap="round" stroke-miterlimit="10" x1="-238.7" y1="417.2" x2="-230.4" y2="417.2"/>
	
		<line id="XMLID_864_" fill="none" stroke="#595857" stroke-width="2" stroke-linecap="round" stroke-miterlimit="10" x1="-238.7" y1="425.7" x2="-230.4" y2="425.7"/>
	
		<line id="XMLID_865_" fill="none" stroke="#595857" stroke-width="2" stroke-linecap="round" stroke-miterlimit="10" x1="-238.7" y1="434.2" x2="-230.4" y2="434.2"/>
	
		<line id="XMLID_866_" fill="none" stroke="#595857" stroke-width="2" stroke-linecap="round" stroke-miterlimit="10" x1="-238.7" y1="442.7" x2="-230.4" y2="442.7"/>
	<rect id="XMLID_862_" x="-213.9" y="417.2" fill="#595857" width="2.7" height="2.7"/>
	<rect id="XMLID_869_" x="-208.9" y="417.2" fill="#595857" width="2.7" height="2.7"/>
	<rect id="XMLID_870_" x="-203.9" y="417.2" fill="#595857" width="2.7" height="2.7"/>
	<rect id="XMLID_873_" x="-213.9" y="423.2" fill="#595857" width="2.7" height="2.7"/>
	<rect id="XMLID_872_" x="-208.9" y="423.2" fill="#595857" width="2.7" height="2.7"/>
	<polyline id="XMLID_867_" fill="#595857" points="-203.9,425.9 -203.9,423.2 -201.2,423.2 	"/>
	<rect id="XMLID_876_" x="-213.9" y="428.2" fill="#595857" width="2.7" height="2.7"/>
	<polyline id="XMLID_871_" fill="#595857" points="-208.9,430.9 -208.9,428.2 -206.2,428.2 	"/>
	<polyline id="XMLID_874_" fill="#595857" points="-211.2,445.2 -211.2,447.9 -213.9,447.9 	"/>
	<rect id="XMLID_878_" x="-208.9" y="445.2" fill="#595857" width="2.7" height="2.7"/>
	<rect id="XMLID_877_" x="-203.9" y="445.2" fill="#595857" width="2.7" height="2.7"/>
	<rect id="XMLID_880_" x="-203.9" y="440.2" fill="#595857" width="2.7" height="2.7"/>
	<g id="XMLID_839_">
		<path id="XMLID_857_" fill="none" stroke="#89BB41" stroke-width="2" stroke-linecap="round" stroke-miterlimit="10" d="
			M-194.5,413.9h-18c-0.8,0-1.4-0.6-1.4-1.4v-15.2c0-0.8,0.6-1.4,1.4-1.4h18c0.8,0,1.4,0.6,1.4,1.4v15.2
			C-193.1,413.2-193.7,413.9-194.5,413.9z"/>
		
			<line id="XMLID_856_" fill="none" stroke="#89BB41" stroke-width="2" stroke-linecap="round" stroke-miterlimit="10" x1="-213.9" y1="400.5" x2="-193.1" y2="400.5"/>
		
			<line id="XMLID_852_" fill="none" stroke="#89BB41" stroke-width="2" stroke-linecap="round" stroke-miterlimit="10" x1="-198.1" y1="404.1" x2="-196.6" y2="404.1"/>
		
			<line id="XMLID_848_" fill="none" stroke="#89BB41" stroke-width="2" stroke-linecap="round" stroke-miterlimit="10" x1="-198.1" y1="407.3" x2="-196.6" y2="407.3"/>
		
			<line id="XMLID_844_" fill="none" stroke="#89BB41" stroke-width="2" stroke-linecap="round" stroke-miterlimit="10" x1="-198.1" y1="410.4" x2="-196.6" y2="410.4"/>
		
			<line id="XMLID_843_" fill="none" stroke="#89BB41" stroke-width="2" stroke-linecap="round" stroke-miterlimit="10" x1="-209.1" y1="393.9" x2="-209.1" y2="398.4"/>
		
			<line id="XMLID_842_" fill="none" stroke="#89BB41" stroke-width="2" stroke-linecap="round" stroke-miterlimit="10" x1="-198.1" y1="393.9" x2="-198.1" y2="398.4"/>
		<path id="XMLID_847_" fill="none" stroke="#89BB41" stroke-width="2" stroke-linecap="round" stroke-miterlimit="10" d="
			M-202.4,407.4c0-2.2-1.8-4-4-4s-4,1.8-4,4s1.8,4,4,4c1.1,0,2.2-0.5,2.9-1.2"/>
		
			<line id="XMLID_846_" fill="none" stroke="#89BB41" stroke-width="2" stroke-linecap="round" stroke-miterlimit="10" x1="-202.4" y1="407.4" x2="-201.3" y2="406.3"/>
		
			<line id="XMLID_845_" fill="none" stroke="#89BB41" stroke-width="2" stroke-linecap="round" stroke-miterlimit="10" x1="-202.4" y1="407.4" x2="-203.7" y2="406.5"/>
	</g>
	<g id="XMLID_849_">
		
			<path id="XMLID_854_" fill="none" stroke="#1A96D4" stroke-width="2" stroke-linecap="round" stroke-linejoin="round" stroke-miterlimit="10" d="
			M-191.6,429.5l-15.7,15.7l-8.3-8.3l15.7-15.7c1.4-1.4,3.7-1.4,5.1,0l3.2,3.2C-190.2,425.8-190.2,428.1-191.6,429.5z"/>
		
			<line id="XMLID_853_" fill="none" stroke="#1A96D4" stroke-width="2" stroke-linecap="round" stroke-miterlimit="10" x1="-215.6" y1="436.9" x2="-218.5" y2="448.1"/>
		
			<line id="XMLID_851_" fill="none" stroke="#1A96D4" stroke-width="2" stroke-linecap="round" stroke-miterlimit="10" x1="-218.5" y1="448.1" x2="-207.3" y2="445.2"/>
		
			<line id="XMLID_850_" fill="none" stroke="#1A96D4" stroke-width="2" stroke-linecap="round" stroke-miterlimit="10" stroke-dasharray="2,3" x1="-201" y1="423.2" x2="-193.2" y2="431.1"/>
	</g>
</g>
</svg>
