<?xml version="1.0" encoding="utf-8"?>
<!-- Generator: Adobe Illustrator 19.0.0, SVG Export Plug-In . SVG Version: 6.00 Build 0)  -->
<svg version="1.2" baseProfile="tiny" xmlns="http://www.w3.org/2000/svg" xmlns:xlink="http://www.w3.org/1999/xlink" x="0px"
	 y="0px" width="77px" height="81px" viewBox="-259 380.9 77 81" xml:space="preserve">
<g id="Layer_1">
</g>
<g id="Layer_2">
	<path id="XMLID_763_" fill="none" stroke="#595857" stroke-width="2" stroke-linecap="round" stroke-miterlimit="10" d="
		M-202.1,439v10.5c0,0.8-0.6,1.4-1.4,1.4h-44.7c-0.8,0-1.4-0.6-1.4-1.4v-50.3c0-0.8,0.6-1.4,1.4-1.4h3.5"/>
	<path id="XMLID_762_" fill="none" stroke="#595857" stroke-width="2" stroke-linecap="round" stroke-miterlimit="10" d="
		M-212,397.7h8.5c0.8,0,1.4,0.6,1.4,1.4v23.1"/>
	
		<rect id="XMLID_760_" x="-239.3" y="393.4" fill="none" stroke="#595857" stroke-width="2" stroke-miterlimit="10" width="26.8" height="7.5"/>
	<polyline id="XMLID_772_" fill="none" stroke="#595857" stroke-width="2" stroke-linecap="round" stroke-miterlimit="10" points="
		-218.1,445.7 -243.2,445.7 -243.2,403.9 	"/>
	<polyline id="XMLID_755_" fill="none" stroke="#595857" stroke-width="2" stroke-linecap="round" stroke-miterlimit="10" points="
		-208.5,443 -208.5,445.7 -212,445.7 	"/>
	
		<line id="XMLID_769_" fill="none" stroke="#595857" stroke-width="2" stroke-linecap="round" stroke-miterlimit="10" x1="-208.5" y1="403.9" x2="-208.5" y2="428.8"/>
	
		<line id="XMLID_754_" fill="none" stroke="#595857" stroke-width="2" stroke-linecap="round" stroke-miterlimit="10" x1="-235.8" y1="400.9" x2="-235.8" y2="404.9"/>
	
		<line id="XMLID_757_" fill="none" stroke="#595857" stroke-width="2" stroke-linecap="round" stroke-miterlimit="10" x1="-225.7" y1="400.9" x2="-225.7" y2="404.9"/>
	
		<line id="XMLID_758_" fill="none" stroke="#595857" stroke-width="2" stroke-linecap="round" stroke-miterlimit="10" x1="-215.7" y1="400.9" x2="-215.7" y2="404.9"/>
	
		<line id="XMLID_756_" fill="none" stroke="#595857" stroke-width="2" stroke-linecap="round" stroke-miterlimit="10" x1="-237.3" y1="434" x2="-233.7" y2="434"/>
	
		<line id="XMLID_759_" fill="none" stroke="#595857" stroke-width="2" stroke-linecap="round" stroke-miterlimit="10" x1="-229.5" y1="434" x2="-214.6" y2="434"/>
	
		<line id="XMLID_765_" fill="none" stroke="#595857" stroke-width="2" stroke-linecap="round" stroke-miterlimit="10" x1="-237.3" y1="439" x2="-233.7" y2="439"/>
	
		<line id="XMLID_764_" fill="none" stroke="#595857" stroke-width="2" stroke-linecap="round" stroke-miterlimit="10" x1="-229.5" y1="439" x2="-216.6" y2="439"/>
	<g id="XMLID_727_">
		
			<path id="XMLID_753_" fill="none" stroke="#1A96D4" stroke-width="2" stroke-linecap="round" stroke-linejoin="round" stroke-miterlimit="10" d="
			M-191.6,428.5l-15.7,15.7l-8.3-8.3l15.7-15.7c1.4-1.4,3.7-1.4,5.1,0l3.2,3.2C-190.2,424.8-190.2,427.1-191.6,428.5z"/>
		
			<line id="XMLID_752_" fill="none" stroke="#1A96D4" stroke-width="2" stroke-linecap="round" stroke-miterlimit="10" x1="-215.6" y1="435.9" x2="-218.5" y2="447.1"/>
		
			<line id="XMLID_751_" fill="none" stroke="#1A96D4" stroke-width="2" stroke-linecap="round" stroke-miterlimit="10" x1="-218.5" y1="447.1" x2="-207.3" y2="444.2"/>
		
			<line id="XMLID_750_" fill="none" stroke="#1A96D4" stroke-width="2" stroke-linecap="round" stroke-miterlimit="10" stroke-dasharray="2,3" x1="-201" y1="422.2" x2="-193.2" y2="430.1"/>
	</g>
	<g id="XMLID_761_">
		<path id="XMLID_770_" fill="none" stroke="#89BB41" stroke-width="2" stroke-linecap="round" stroke-miterlimit="10" d="
			M-223.8,423.2l-0.2,0.1c-1.6,0.6-3.4-0.2-4-1.8l-1.6-4.2c-0.4-1.2,0.2-2.5,1.3-3l0.9-0.3c0.5-0.2,0.7-0.7,0.5-1.2l-1-2.8
			c-0.2-0.5-0.7-0.7-1.2-0.5l0,0c-3.8,1.4-5.8,5.8-4.4,9.6l1.6,4.3c1.4,3.8,5.6,5.7,9.4,4.3l0.1-0.1c0.5-0.2,0.7-0.7,0.5-1.2l-1-2.8
			C-222.9,423.2-223.4,423-223.8,423.2z"/>
		<g id="XMLID_766_">
			<path id="XMLID_768_" fill="none" stroke="#89BB41" stroke-width="2" stroke-linecap="round" stroke-miterlimit="10" d="
				M-222.5,411.6c2.4,0.1,4.7,1.6,5.5,4.1c0.8,2.4,0.1,5-1.8,6.6"/>
			<path id="XMLID_767_" fill="none" stroke="#89BB41" stroke-width="2" stroke-linecap="round" stroke-miterlimit="10" d="
				M-223.2,415.8c0.8,0,1.6,0.5,1.9,1.4c0.3,0.8,0,1.7-0.6,2.2"/>
		</g>
	</g>
</g>
</svg>
