<?xml version="1.0" encoding="utf-8"?>
<!-- Generator: Adobe Illustrator 19.0.0, SVG Export Plug-In . SVG Version: 6.00 Build 0)  -->
<svg version="1.2" baseProfile="tiny" xmlns="http://www.w3.org/2000/svg" xmlns:xlink="http://www.w3.org/1999/xlink" x="0px"
	 y="0px" width="77px" height="81px" viewBox="-259 380.9 77 81" xml:space="preserve">
<g id="Layer_1">
</g>
<g id="Layer_2">
	<path id="XMLID_664_" fill="none" stroke="#595857" stroke-width="2" stroke-linecap="round" stroke-miterlimit="10" d="
		M-242.2,442.5c-5.5,0-8.8-6.4-8.8-11.2h33c0,0-0.1,0.2,0.1,1.4"/>
	
		<line id="XMLID_666_" fill="none" stroke="#595857" stroke-width="2" stroke-linecap="round" stroke-miterlimit="10" x1="-220.1" y1="442.5" x2="-242.6" y2="442.5"/>
	<path id="XMLID_670_" fill="none" stroke="#595857" stroke-width="2" stroke-linecap="round" stroke-miterlimit="10" d="
		M-230.5,389.9h27.8c0.8,0,1.4,0.6,1.4,1.4v36.3"/>
	<path id="XMLID_669_" fill="none" stroke="#595857" stroke-width="2" stroke-linecap="round" stroke-miterlimit="10" d="
		M-243,431.3v-40c0-0.8,0.6-1.4,1.4-1.4h4.1"/>
	<path id="XMLID_668_" fill="none" stroke="#595857" stroke-width="2" stroke-linecap="round" stroke-miterlimit="10" d="
		M-218.4,446.9h-13.7c-0.8,0-1.4-0.6-1.4-1.4v-3"/>
	<path id="XMLID_667_" fill="none" stroke="#595857" stroke-width="2" stroke-linecap="round" stroke-miterlimit="10" d="
		M-200.3,395.1h3.6c0.8,0,1.4,0.6,1.4,1.4v36.2"/>
	
		<line id="XMLID_674_" fill="none" stroke="#595857" stroke-width="2" stroke-linecap="round" stroke-miterlimit="10" x1="-221.7" y1="410.8" x2="-206.3" y2="410.8"/>
	
		<line id="XMLID_681_" fill="none" stroke="#595857" stroke-width="2" stroke-linecap="round" stroke-miterlimit="10" x1="-221.7" y1="413.8" x2="-206.3" y2="413.8"/>
	
		<rect id="XMLID_677_" x="-237.5" y="408.4" fill="none" stroke="#595857" stroke-width="2" stroke-linecap="round" stroke-miterlimit="10" width="8.4" height="8.4"/>
	<polyline id="XMLID_676_" fill="none" stroke="#89BB41" stroke-width="2" stroke-linecap="round" stroke-miterlimit="10" points="
		-226.1,409.2 -231.2,414.4 -234.5,411.1 	"/>
	
		<line id="XMLID_1057_" fill="none" stroke="#595857" stroke-width="2" stroke-linecap="round" stroke-miterlimit="10" x1="-221.7" y1="422.8" x2="-206.3" y2="422.8"/>
	
		<line id="XMLID_1056_" fill="none" stroke="#595857" stroke-width="2" stroke-linecap="round" stroke-miterlimit="10" x1="-221.7" y1="425.8" x2="-206.3" y2="425.8"/>
	
		<rect id="XMLID_1055_" x="-237.5" y="420.4" fill="none" stroke="#595857" stroke-width="2" stroke-linecap="round" stroke-miterlimit="10" width="8.4" height="8.4"/>
	<polyline id="XMLID_1054_" fill="none" stroke="#89BB41" stroke-width="2" stroke-linecap="round" stroke-miterlimit="10" points="
		-226.1,421.2 -231.2,426.4 -234.5,423.1 	"/>
	
		<rect id="XMLID_665_" x="-237.5" y="395.7" fill="none" stroke="#595857" stroke-width="2" stroke-linecap="round" stroke-miterlimit="10" width="31.2" height="6.8"/>
	<g id="XMLID_1052_">
		<g id="XMLID_1058_">
			
				<path id="XMLID_1073_" fill="none" stroke="#1A96D4" stroke-width="2" stroke-linecap="round" stroke-linejoin="round" stroke-miterlimit="10" d="
				M-200.6,439l-7.4,7.4l-3.1-3.1l7.4-7.4c0.8-0.8,2-0.8,2.7,0l0.4,0.4C-199.8,437.1-199.8,438.3-200.6,439z"/>
			
				<line id="XMLID_1072_" fill="none" stroke="#1A96D4" stroke-width="2" stroke-linecap="round" stroke-miterlimit="10" x1="-211.1" y1="443.4" x2="-212.6" y2="448.1"/>
			
				<line id="XMLID_1071_" fill="none" stroke="#1A96D4" stroke-width="2" stroke-linecap="round" stroke-miterlimit="10" x1="-212.6" y1="448.1" x2="-207.9" y2="446.5"/>
			
				<line id="XMLID_1070_" fill="none" stroke="#1A96D4" stroke-width="2" stroke-linecap="round" stroke-miterlimit="10" stroke-dasharray="2,3" x1="-204.7" y1="437.3" x2="-201.9" y2="440.1"/>
			
				<path id="XMLID_1069_" fill="none" stroke="#1A96D4" stroke-width="2" stroke-linecap="round" stroke-linejoin="round" stroke-miterlimit="10" d="
				M-192.7,441.4c0-7.3-5.9-13.2-13.2-13.2s-13.2,5.9-13.2,13.2s5.9,13.2,13.2,13.2c3.8,0,7.2-1.6,9.6-4.1"/>
			
				<line id="XMLID_1060_" fill="none" stroke="#1A96D4" stroke-width="2" stroke-linecap="round" stroke-linejoin="round" stroke-miterlimit="10" x1="-192.7" y1="441.4" x2="-189.2" y2="437.8"/>
			
				<line id="XMLID_1059_" fill="none" stroke="#1A96D4" stroke-width="2" stroke-linecap="round" stroke-linejoin="round" stroke-miterlimit="10" x1="-192.7" y1="441.4" x2="-197.1" y2="438.5"/>
		</g>
	</g>
</g>
</svg>
