<?xml version="1.0" encoding="utf-8"?>
<!-- Generator: Adobe Illustrator 19.0.0, SVG Export Plug-In . SVG Version: 6.00 Build 0)  -->
<svg version="1.2" baseProfile="tiny" xmlns="http://www.w3.org/2000/svg" xmlns:xlink="http://www.w3.org/1999/xlink" x="0px"
	 y="0px" width="77px" height="81px" viewBox="-259 380.9 77 81" xml:space="preserve">
<g id="Layer_1">
</g>
<g id="Layer_2">
	<path id="XMLID_723_" fill="none" stroke="#585857" stroke-width="2" stroke-linecap="round" stroke-miterlimit="10" d="
		M-237.1,388.9h37.1c0.8,0,1.4,0.6,1.4,1.4v30.9"/>
	<path id="XMLID_694_" fill="none" stroke="#585857" stroke-width="2" stroke-linecap="round" stroke-miterlimit="10" d="
		M-198.5,437.4v15c0,0.8-0.6,1.4-1.4,1.4h-48.3c-0.8,0-1.4-0.6-1.4-1.4v-62.2c0-0.8,0.6-1.4,1.4-1.4h4.3"/>
	<g id="XMLID_696_">
		<path id="XMLID_703_" fill="none" stroke="#89BB41" stroke-width="2" stroke-linecap="round" stroke-miterlimit="10" d="
			M-216,405.9h-12.9c-0.4,0-0.8,0.3-0.9,0.7l-1.6,5.6h17.9l-1.6-5.6C-215.2,406.2-215.5,405.9-216,405.9z"/>
		<path id="XMLID_701_" fill="none" stroke="#89BB41" stroke-width="2" stroke-linecap="round" stroke-miterlimit="10" d="
			M-220.6,411.9c0-1.3,1-2.3,2.3-2.3c1.3,0,2.3,1,2.3,2.3"/>
		
			<circle id="XMLID_700_" fill="none" stroke="#89BB41" stroke-width="2" stroke-linecap="round" stroke-miterlimit="10" cx="-229.9" cy="418.6" r="2"/>
		
			<circle id="XMLID_699_" fill="none" stroke="#89BB41" stroke-width="2" stroke-linecap="round" stroke-miterlimit="10" cx="-215.1" cy="418.6" r="2"/>
		
			<line id="XMLID_698_" fill="none" stroke="#89BB41" stroke-width="2" stroke-linecap="round" stroke-miterlimit="10" x1="-225" y1="416.9" x2="-220" y2="416.9"/>
		
			<line id="XMLID_697_" fill="none" stroke="#89BB41" stroke-width="2" stroke-linecap="round" stroke-miterlimit="10" x1="-225" y1="419.9" x2="-220" y2="419.9"/>
		<path id="XMLID_702_" fill="none" stroke="#89BB41" stroke-width="2" stroke-linecap="round" stroke-miterlimit="10" d="
			M-211.2,425h-22.7c-0.8,0-1.5-0.7-1.5-1.5v-8.1c0-1.6,1.3-2.8,2.8-2.8h20c1.6,0,2.8,1.3,2.8,2.8v8.1
			C-209.7,424.4-210.4,425-211.2,425z"/>
		<path id="XMLID_704_" fill="none" stroke="#89BB41" stroke-width="2" stroke-linecap="round" stroke-miterlimit="10" d="
			M-230.9,425.5v1.4c0,0.7-0.6,1.3-1.3,1.3l0,0c-0.7,0-1.3-0.6-1.3-1.3v-1.4"/>
		<path id="XMLID_706_" fill="none" stroke="#89BB41" stroke-width="2" stroke-linecap="round" stroke-miterlimit="10" d="
			M-211.6,425.5v1.4c0,0.7-0.6,1.3-1.3,1.3l0,0c-0.7,0-1.3-0.6-1.3-1.3v-1.4"/>
	</g>
	
		<line id="XMLID_705_" fill="none" stroke="#585857" stroke-width="2" stroke-linecap="round" stroke-miterlimit="10" stroke-dasharray="2,4" x1="-249.7" y1="435.9" x2="-213.5" y2="435.9"/>
	<g id="XMLID_708_">
		
			<line id="XMLID_707_" fill="none" stroke="#585857" stroke-width="2" stroke-linecap="round" stroke-miterlimit="10" x1="-239.1" y1="441" x2="-239.1" y2="449.8"/>
		
			<line id="XMLID_709_" fill="none" stroke="#585857" stroke-width="2" stroke-linecap="round" stroke-miterlimit="10" x1="-231.1" y1="441" x2="-231.1" y2="449.8"/>
		
			<line id="XMLID_710_" fill="none" stroke="#585857" stroke-width="2" stroke-linecap="round" stroke-miterlimit="10" x1="-228.1" y1="441" x2="-228.1" y2="449.8"/>
		
			<line id="XMLID_711_" fill="none" stroke="#585857" stroke-width="2" stroke-linecap="round" stroke-miterlimit="10" x1="-225.1" y1="441" x2="-225.1" y2="449.8"/>
		
			<line id="XMLID_712_" fill="none" stroke="#585857" stroke-width="2" stroke-linecap="round" stroke-miterlimit="10" x1="-222.1" y1="441" x2="-222.1" y2="449.8"/>
		
			<line id="XMLID_713_" fill="none" stroke="#585857" stroke-width="2" stroke-linecap="round" stroke-miterlimit="10" x1="-216.1" y1="449" x2="-216.1" y2="449.8"/>
		
			<line id="XMLID_714_" fill="none" stroke="#585857" stroke-width="2" stroke-linecap="round" stroke-miterlimit="10" x1="-213.1" y1="448" x2="-213.1" y2="449.8"/>
		
			<line id="XMLID_715_" fill="none" stroke="#585857" stroke-width="2" stroke-linecap="round" stroke-miterlimit="10" x1="-209.1" y1="447" x2="-209.1" y2="449.8"/>
	</g>
	<path id="XMLID_717_" fill="none" stroke="#585857" stroke-width="2" stroke-linecap="round" stroke-miterlimit="10" d="
		M-244,406.6v-11.8h2.5c1.7,0,3.2,1.4,3.2,3.2l0,0c0,1.7-1.4,3.2-3.2,3.2h-2.5"/>
	<g id="XMLID_716_">
		
			<path id="XMLID_721_" fill="none" stroke="#1A96D4" stroke-width="2" stroke-linecap="round" stroke-linejoin="round" stroke-miterlimit="10" d="
			M-191.6,430.5l-15.7,15.7l-8.3-8.3l15.7-15.7c1.4-1.4,3.7-1.4,5.1,0l3.2,3.2C-190.2,426.8-190.2,429.1-191.6,430.5z"/>
		
			<line id="XMLID_720_" fill="none" stroke="#1A96D4" stroke-width="2" stroke-linecap="round" stroke-miterlimit="10" x1="-215.6" y1="437.9" x2="-218.5" y2="449.1"/>
		
			<line id="XMLID_719_" fill="none" stroke="#1A96D4" stroke-width="2" stroke-linecap="round" stroke-miterlimit="10" x1="-218.5" y1="449.1" x2="-207.3" y2="446.2"/>
		
			<line id="XMLID_718_" fill="none" stroke="#1A96D4" stroke-width="2" stroke-linecap="round" stroke-miterlimit="10" stroke-dasharray="2,3" x1="-201" y1="424.2" x2="-193.2" y2="432.1"/>
	</g>
</g>
</svg>
