<?xml version="1.0" encoding="utf-8"?>
<!-- Generator: Adobe Illustrator 19.0.0, SVG Export Plug-In . SVG Version: 6.00 Build 0)  -->
<svg version="1.2" baseProfile="tiny" xmlns="http://www.w3.org/2000/svg" xmlns:xlink="http://www.w3.org/1999/xlink" x="0px"
	 y="0px" width="77px" height="81px" viewBox="-259 380.9 77 81" xml:space="preserve">
<g id="Layer_1">
</g>
<g id="Layer_2">
	<path id="XMLID_1144_" fill="none" stroke="#595857" stroke-width="2" stroke-linecap="round" stroke-miterlimit="10" d="
		M-239.6,400.5l-12.9,8.1c-0.6,0.4-0.8,1.3-0.5,1.9l0.9,1.7c0.4,0.7,1.2,0.9,1.8,0.5l26-16.3l26,16.3c0.6,0.4,1.4,0.2,1.8-0.5
		l0.9-1.7c0.4-0.7,0.1-1.5-0.5-1.9l-27.5-17.1c-0.2-0.2-0.5-0.2-0.8-0.2c-0.3,0-0.5,0-0.8,0.2l-9.7,6.1"/>
	<path id="XMLID_1127_" fill="none" stroke="#595857" stroke-width="2" stroke-linecap="round" stroke-miterlimit="10" d="
		M-243,448.2h-1.3c-0.8,0-1.4-0.6-1.4-1.4v-36.9"/>
	
		<line id="XMLID_1125_" fill="none" stroke="#595857" stroke-width="2" stroke-linecap="round" stroke-miterlimit="10" x1="-211.5" y1="448.2" x2="-236.7" y2="448.2"/>
	
		<line id="XMLID_1142_" fill="none" stroke="#595857" stroke-width="2" stroke-linecap="round" stroke-miterlimit="10" x1="-202.1" y1="410.3" x2="-202.1" y2="424.2"/>
	<polyline id="XMLID_1132_" fill="none" stroke="#595857" stroke-width="2" stroke-linecap="round" stroke-miterlimit="10" points="
		-223.3,417.7 -223.3,411.1 -237.8,411.1 -237.8,420.5 	"/>
	<polyline id="XMLID_1134_" fill="none" stroke="#595857" stroke-width="2" stroke-linecap="round" stroke-miterlimit="10" points="
		-208.7,425.1 -208.7,411.1 -223.3,411.1 -223.3,417.7 	"/>
	<polyline id="XMLID_1133_" fill="none" stroke="#595857" stroke-width="2" stroke-linecap="round" stroke-miterlimit="10" points="
		-223.3,423.5 -223.3,443.3 -216,443.3 	"/>
	<path id="XMLID_1126_" fill="none" stroke="#595857" stroke-width="2" stroke-linecap="round" stroke-miterlimit="10" d="
		M-237.8,418.5v2.1c0,1.6,1,2.9,2.2,2.9l0,0c1.2,0,2.2-1.3,2.2-2.9v-2.1"/>
	<path id="XMLID_1128_" fill="none" stroke="#595857" stroke-width="2" stroke-linecap="round" stroke-miterlimit="10" d="
		M-222.6,423.5L-222.6,423.5c1.2,0,2.2-1.3,2.2-2.9v-2.1"/>
	
		<line id="XMLID_1129_" fill="none" stroke="#595857" stroke-width="2" stroke-linecap="round" stroke-miterlimit="10" x1="-233.4" y1="418.5" x2="-220.4" y2="418.5"/>
	
		<line id="XMLID_1130_" fill="none" stroke="#595857" stroke-width="2" stroke-linecap="round" stroke-miterlimit="10" x1="-222.6" y1="423.5" x2="-235.6" y2="423.5"/>
	<g id="XMLID_1099_">
		
			<path id="XMLID_1105_" fill="none" stroke="#89BB41" stroke-width="2" stroke-linecap="round" stroke-linejoin="round" stroke-miterlimit="10" d="
			M-239.4,430.4l9.6,3.5c0.7,0.3,1.5-0.1,1.8-0.8l0.9-2.6c0.3-0.7-0.1-1.5-0.8-1.8l-9.6-3.5c-0.7-0.3-1.5,0.1-1.8,0.8l-0.9,2.6
			C-240.5,429.3-240.1,430.1-239.4,430.4z"/>
		
			<line id="XMLID_1104_" fill="none" stroke="#89BB41" stroke-width="2" stroke-linecap="round" stroke-linejoin="round" stroke-miterlimit="10" x1="-227.5" y1="431.7" x2="-225.4" y2="432.5"/>
		
			<line id="XMLID_1103_" fill="none" stroke="#89BB41" stroke-width="2" stroke-linecap="round" stroke-linejoin="round" stroke-miterlimit="10" x1="-225.4" y1="432.5" x2="-226.8" y2="436.3"/>
		
			<line id="XMLID_1102_" fill="none" stroke="#89BB41" stroke-width="2" stroke-linecap="round" stroke-linejoin="round" stroke-miterlimit="10" x1="-226.8" y1="436.3" x2="-236.3" y2="436.8"/>
		
			<line id="XMLID_1101_" fill="none" stroke="#89BB41" stroke-width="2" stroke-linecap="round" stroke-linejoin="round" stroke-miterlimit="10" x1="-236.3" y1="436.8" x2="-237.1" y2="438.9"/>
		
			<path id="XMLID_1100_" fill="none" stroke="#89BB41" stroke-width="2" stroke-linecap="round" stroke-linejoin="round" stroke-miterlimit="10" d="
			M-241.3,451.4L-241.3,451.4c1.3,0.5,2.7-0.2,3.2-1.5l3.3-9l-4.7-1.7l-3.3,9C-243.3,449.5-242.6,451-241.3,451.4z"/>
	</g>
	<g id="XMLID_1112_">
		<g id="XMLID_1117_">
			
				<path id="XMLID_1124_" fill="none" stroke="#1A96D4" stroke-width="2" stroke-linecap="round" stroke-linejoin="round" stroke-miterlimit="10" d="
				M-198.6,435l-7.4,7.4l-3.1-3.1l7.4-7.4c0.8-0.8,2-0.8,2.7,0l0.4,0.4C-197.8,433.1-197.8,434.3-198.6,435z"/>
			
				<line id="XMLID_1123_" fill="none" stroke="#1A96D4" stroke-width="2" stroke-linecap="round" stroke-miterlimit="10" x1="-209.1" y1="439.4" x2="-210.6" y2="444.1"/>
			
				<line id="XMLID_1122_" fill="none" stroke="#1A96D4" stroke-width="2" stroke-linecap="round" stroke-miterlimit="10" x1="-210.6" y1="444.1" x2="-205.9" y2="442.5"/>
			
				<line id="XMLID_1121_" fill="none" stroke="#1A96D4" stroke-width="2" stroke-linecap="round" stroke-miterlimit="10" stroke-dasharray="2,3" x1="-202.7" y1="433.3" x2="-199.9" y2="436.1"/>
			
				<path id="XMLID_1120_" fill="none" stroke="#1A96D4" stroke-width="2" stroke-linecap="round" stroke-linejoin="round" stroke-miterlimit="10" d="
				M-190.7,437.4c0-7.3-5.9-13.2-13.2-13.2s-13.2,5.9-13.2,13.2s5.9,13.2,13.2,13.2c3.8,0,7.2-1.6,9.6-4.1"/>
			
				<line id="XMLID_1119_" fill="none" stroke="#1A96D4" stroke-width="2" stroke-linecap="round" stroke-linejoin="round" stroke-miterlimit="10" x1="-190.7" y1="437.4" x2="-187.2" y2="433.8"/>
			
				<line id="XMLID_1118_" fill="none" stroke="#1A96D4" stroke-width="2" stroke-linecap="round" stroke-linejoin="round" stroke-miterlimit="10" x1="-190.7" y1="437.4" x2="-195.1" y2="434.5"/>
		</g>
	</g>
</g>
</svg>
