<?xml version="1.0" encoding="utf-8"?>
<!-- Generator: Adobe Illustrator 19.0.0, SVG Export Plug-In . SVG Version: 6.00 Build 0)  -->
<svg version="1.2" baseProfile="tiny" xmlns="http://www.w3.org/2000/svg" xmlns:xlink="http://www.w3.org/1999/xlink" x="0px"
	 y="0px" width="77px" height="81px" viewBox="-259 380.9 77 81" xml:space="preserve">
<g id="Layer_1">
</g>
<g id="Layer_2">
	<path id="XMLID_1074_" fill="none" stroke="#595857" stroke-width="2" stroke-linecap="round" stroke-miterlimit="10" d="
		M-203.1,451.5c0,0.8-0.6,1.4-1.4,1.4h-44.7c-0.8,0-1.4-0.6-1.4-1.4v-50.3c0-0.8,0.6-1.4,1.4-1.4h6.5"/>
	<path id="XMLID_1064_" fill="none" stroke="#595857" stroke-width="2" stroke-linecap="round" stroke-miterlimit="10" d="
		M-211,399.7h6.5c0.8,0,1.4,0.6,1.4,1.4v24.1"/>
	
		<path id="XMLID_1063_" fill="none" stroke="#595857" stroke-width="2" stroke-linecap="round" stroke-linejoin="round" stroke-miterlimit="10" d="
		M-231.7,406.6h19.3c0.8,0,1.4-0.6,1.4-1.4V397c0-0.8-0.6-1.4-1.4-1.4h-6l0,0c-1.4-3.4-4.7-5.7-8.4-5.7c-3.8,0-7.1,2.3-8.5,5.7l0,0
		h-6c-0.8,0-1.4,0.6-1.4,1.4v8.1c0,0.8,0.6,1.4,1.4,1.4h2.9"/>
	<circle id="XMLID_1062_" fill="none" stroke="#595857" stroke-width="2" stroke-miterlimit="10" cx="-226.8" cy="396.2" r="2"/>
	<path id="XMLID_1061_" fill="none" stroke="#89BB41" stroke-width="2" stroke-linecap="round" stroke-miterlimit="10" d="
		M-223.7,420.2c0,1.7-1.4,3.1-3.1,3.1c-1.7,0-3.1-1.4-3.1-3.1s1.4-3.1,3.1-3.1c0.8,0,1.5,0.3,2,0.7"/>
	<path id="XMLID_997_" fill="none" stroke="#89BB41" stroke-width="2" stroke-linecap="round" stroke-miterlimit="10" d="
		M-235,429.3c1.7-3,4.9-5,8.6-5c3.5,0,5.9,1.8,7.5,4.5"/>
	<path id="XMLID_1053_" fill="none" stroke="#595857" stroke-width="2" stroke-linecap="round" stroke-miterlimit="10" d="
		M-220.1,430.9c-1.9,1.5-4.2,2.3-6.8,2.3c-6.1,0-11-4.9-11-11s4.9-11,11-11c6.1,0,11,4.9,11,11c0,0.6,0,1.2-0.1,1.7"/>
	
		<line id="XMLID_682_" fill="none" stroke="#595857" stroke-width="2" stroke-linecap="round" stroke-miterlimit="10" x1="-225.7" y1="438.8" x2="-220.3" y2="438.8"/>
	
		<line id="XMLID_675_" fill="none" stroke="#595857" stroke-width="2" stroke-linecap="round" stroke-miterlimit="10" x1="-225.7" y1="441.8" x2="-220.3" y2="441.8"/>
	
		<rect id="XMLID_680_" x="-241.5" y="436.4" fill="none" stroke="#595857" stroke-width="2" stroke-linecap="round" stroke-miterlimit="10" width="8.4" height="8.4"/>
	<polyline id="XMLID_678_" fill="none" stroke="#89BB41" stroke-width="2" stroke-linecap="round" stroke-miterlimit="10" points="
		-230.1,437.2 -235.2,442.4 -238.5,439.1 	"/>
	<g id="XMLID_1068_">
		<g id="XMLID_659_">
			
				<path id="XMLID_663_" fill="none" stroke="#1A96D4" stroke-width="2" stroke-linecap="round" stroke-linejoin="round" stroke-miterlimit="10" d="
				M-201.6,436l-7.4,7.4l-3.1-3.1l7.4-7.4c0.8-0.8,2-0.8,2.7,0l0.4,0.4C-200.8,434.1-200.8,435.3-201.6,436z"/>
			
				<line id="XMLID_662_" fill="none" stroke="#1A96D4" stroke-width="2" stroke-linecap="round" stroke-miterlimit="10" x1="-212.1" y1="440.4" x2="-213.6" y2="445.1"/>
			
				<line id="XMLID_661_" fill="none" stroke="#1A96D4" stroke-width="2" stroke-linecap="round" stroke-miterlimit="10" x1="-213.6" y1="445.1" x2="-208.9" y2="443.5"/>
			
				<line id="XMLID_660_" fill="none" stroke="#1A96D4" stroke-width="2" stroke-linecap="round" stroke-miterlimit="10" stroke-dasharray="2,3" x1="-205.7" y1="434.3" x2="-202.9" y2="437.1"/>
			
				<path id="XMLID_655_" fill="none" stroke="#1A96D4" stroke-width="2" stroke-linecap="round" stroke-linejoin="round" stroke-miterlimit="10" d="
				M-193.7,438.4c0-7.3-5.9-13.2-13.2-13.2s-13.2,5.9-13.2,13.2s5.9,13.2,13.2,13.2c3.8,0,7.2-1.6,9.6-4.1"/>
			
				<line id="XMLID_656_" fill="none" stroke="#1A96D4" stroke-width="2" stroke-linecap="round" stroke-linejoin="round" stroke-miterlimit="10" x1="-193.7" y1="438.4" x2="-190.2" y2="434.8"/>
			
				<line id="XMLID_657_" fill="none" stroke="#1A96D4" stroke-width="2" stroke-linecap="round" stroke-linejoin="round" stroke-miterlimit="10" x1="-193.7" y1="438.4" x2="-198.1" y2="435.5"/>
		</g>
	</g>
</g>
</svg>
