<svg width="40" height="27" viewBox="0 0 40 27" fill="none" xmlns="http://www.w3.org/2000/svg">
<path d="M21.4736 22.0625H21.0752V2.07812C21.0752 1.20654 20.3687 0.5 19.4971 0.5H4.40332C3.53174 0.5 2.8252 1.20654 2.8252 2.07812V22.0625H2.42676C1.85292 22.0625 1.3877 22.5277 1.3877 23.1016V24V24.5H1.8877H22.0127H22.5127V24V23.1016C22.5127 22.5277 22.0475 22.0625 21.4736 22.0625ZM8.1377 4.41406C8.1377 4.39251 8.1552 4.375 8.17676 4.375H9.97363C9.99519 4.375 10.0127 4.39251 10.0127 4.41406V6.21094C10.0127 6.23249 9.99519 6.25 9.97363 6.25H8.17676C8.1552 6.25 8.1377 6.23249 8.1377 6.21094V4.41406ZM8.1377 8.72656C8.1377 8.70501 8.1552 8.6875 8.17676 8.6875H9.97363C9.99519 8.6875 10.0127 8.70501 10.0127 8.72656V10.5234C10.0127 10.545 9.99519 10.5625 9.97363 10.5625H8.17676C8.1552 10.5625 8.1377 10.545 8.1377 10.5234V8.72656ZM9.97363 14.875H8.17676C8.1552 14.875 8.1377 14.8575 8.1377 14.8359V13.0391C8.1377 13.0175 8.1552 13 8.17676 13H9.97363C9.99519 13 10.0127 13.0175 10.0127 13.0391V14.8359C10.0127 14.8575 9.99519 14.875 9.97363 14.875ZM12.8877 22.0625H11.0127V18.7891C11.0127 18.7675 11.0302 18.75 11.0518 18.75H12.8486C12.8702 18.75 12.8877 18.7675 12.8877 18.7891V22.0625ZM15.7627 14.8359C15.7627 14.8575 15.7452 14.875 15.7236 14.875H13.9268C13.9052 14.875 13.8877 14.8575 13.8877 14.8359V13.0391C13.8877 13.0175 13.9052 13 13.9268 13H15.7236C15.7452 13 15.7627 13.0175 15.7627 13.0391V14.8359ZM15.7627 10.5234C15.7627 10.545 15.7452 10.5625 15.7236 10.5625H13.9268C13.9052 10.5625 13.8877 10.545 13.8877 10.5234V8.72656C13.8877 8.70501 13.9052 8.6875 13.9268 8.6875H15.7236C15.7452 8.6875 15.7627 8.70501 15.7627 8.72656V10.5234ZM15.7627 6.21094C15.7627 6.23249 15.7452 6.25 15.7236 6.25H13.9268C13.9052 6.25 13.8877 6.23249 13.8877 6.21094V4.41406C13.8877 4.39251 13.9052 4.375 13.9268 4.375H15.7236C15.7452 4.375 15.7627 4.39251 15.7627 4.41406V6.21094Z" stroke="#595857"/>
<rect x="17.9502" y="5.5" width="21" height="21" rx="10.5" fill="#8FC43E"/>
<path d="M25.0922 20.5L22.7059 11.7727H23.7797L25.6036 18.8807H25.6888L27.5468 11.7727H28.74L30.5979 18.8807H30.6832L32.507 11.7727H33.5809L31.1945 20.5H30.1036L28.1775 13.5455H28.1093L26.1832 20.5H25.0922Z" fill="white"/>
<rect x="17.9502" y="5.5" width="21" height="21" rx="10.5" stroke="white"/>
</svg>
