<svg width="62" height="68" viewBox="0 0 62 68" fill="none" xmlns="http://www.w3.org/2000/svg">
<g clip-path="url(#clip0_478_45)">
<path d="M50.15 42.8001C47.85 33.6001 42.65 24.2001 31.15 24.2001C8.45 24.2001 11.05 60.5001 11.05 60.5001H29.35" stroke="#2DABE3" stroke-width="1.5" stroke-linejoin="round"/>
<path d="M23.55 25.4001L15.95 10.0001L22.05 13.5001L25.15 9.20007L28.25 13.5001L31.45 9.20007L34.55 13.5001L37.65 9.20007L40.75 13.5001L46.65 10.9001L38.75 25.4001H23.55Z" stroke="#2DABE3" stroke-width="1.5" stroke-linejoin="round"/>
<path d="M22.35 23.8C21.25 23.8 20.35 24.7 20.35 25.8C20.35 26.9 21.25 27.8 22.35 27.8H39.75C40.85 27.8 41.75 26.9 41.75 25.8C41.75 24.7 40.85 23.8 39.75 23.8H22.35Z" fill="#2DABE3" stroke="#2DABE3" stroke-width="1.5" stroke-linejoin="round"/>
<path d="M33.95 8.29998L36.95 2.89998L31.05 5.39998L27.95 1.09998L24.75 5.39998L21.65 1.09998L18.55 5.39998L15.45 1.09998L12.35 5.39998L6.25 1.99998L13.05 15.8H12.65C11.55 15.8 10.65 16.7 10.65 17.8C10.65 18.4 10.95 18.9 11.35 19.3C-0.450004 28.1 1.15 52.4 1.15 52.4H8.25" stroke="#020203" stroke-width="1.5" stroke-linejoin="round"/>
<path d="M53.15 48.7C48.85 48.7 45.35 47.3 45.35 45.6V49C45.35 50.7 48.85 52.1 53.15 52.1C57.45 52.1 60.95 50.7 60.95 49V45.6C60.95 47.4 57.45 48.7 53.15 48.7Z" stroke="#90C141" stroke-width="1.5" stroke-linejoin="round"/>
<path d="M53.15 52.3001C48.85 52.3001 45.35 50.9001 45.35 49.2001V52.6001C45.35 54.3001 48.85 55.7001 53.15 55.7001C57.45 55.7001 60.95 54.3001 60.95 52.6001V49.2001C60.95 50.9001 57.45 52.3001 53.15 52.3001Z" stroke="#90C141" stroke-width="1.5" stroke-linejoin="round"/>
<path d="M53.15 55.8001C48.85 55.8001 45.35 54.4001 45.35 52.7001V56.1001C45.35 57.8001 48.85 59.2001 53.15 59.2001C57.45 59.2001 60.95 57.8001 60.95 56.1001V52.7001C60.95 54.4001 57.45 55.8001 53.15 55.8001Z" stroke="#90C141" stroke-width="1.5" stroke-linejoin="round"/>
<path d="M53.15 59.4C48.85 59.4 45.35 58 45.35 56.3V59.7C45.35 61.4 48.85 62.8 53.15 62.8C57.45 62.8 60.95 61.4 60.95 59.7V56.3C60.95 58 57.45 59.4 53.15 59.4Z" stroke="#90C141" stroke-width="1.5" stroke-linejoin="round"/>
<path d="M53.15 62.9C48.85 62.9 45.35 61.5 45.35 59.8V63.2C45.35 64.9 48.85 66.3 53.15 66.3C57.45 66.3 60.95 64.9 60.95 63.2V59.8C60.95 61.5 57.45 62.9 53.15 62.9Z" stroke="#90C141" stroke-width="1.5" stroke-linejoin="round"/>
<path d="M45.25 45.6C45.25 43.9 48.75 42.5 53.05 42.5C57.35 42.5 60.85 43.9 60.85 45.6" stroke="#90C141" stroke-width="1.5" stroke-linejoin="round"/>
<path d="M37.15 52.4C32.85 52.4 29.35 51 29.35 49.3V52.7C29.35 54.4 32.85 55.8 37.15 55.8C41.45 55.8 44.95 54.4 44.95 52.7V49.3C45.05 51 41.55 52.4 37.15 52.4Z" stroke="#90C141" stroke-width="1.5" stroke-linejoin="round"/>
<path d="M37.15 55.9C32.85 55.9 29.35 54.5 29.35 52.8V56.2C29.35 57.9 32.85 59.3 37.15 59.3C41.45 59.3 44.95 57.9 44.95 56.2V52.8C45.05 54.5 41.55 55.9 37.15 55.9Z" stroke="#90C141" stroke-width="1.5" stroke-linejoin="round"/>
<path d="M37.15 59.5C32.85 59.5 29.35 58.1 29.35 56.4V59.8C29.35 61.5 32.85 62.9 37.15 62.9C41.45 62.9 44.95 61.5 44.95 59.8V56.4C45.05 58.1 41.55 59.5 37.15 59.5Z" stroke="#90C141" stroke-width="1.5" stroke-linejoin="round"/>
<path d="M37.15 63C32.85 63 29.35 61.6 29.35 59.9V63.3C29.35 65 32.85 66.4 37.15 66.4C41.45 66.4 44.95 65 44.95 63.3V59.9C45.05 61.6 41.55 63 37.15 63Z" stroke="#90C141" stroke-width="1.5" stroke-linejoin="round"/>
<path d="M29.35 49.3001C29.35 47.6001 32.85 46.2001 37.15 46.2001C41.45 46.2001 44.95 47.6001 44.95 49.3001" stroke="#90C141" stroke-width="1.5" stroke-linejoin="round"/>
<path d="M57.35 24.7001C56.55 24.0001 55.15 23.4001 53.25 23.0001C51.75 22.7001 50.75 22.3001 50.25 21.8001C49.75 21.3001 49.45 20.7001 49.45 19.9001C49.45 19.1001 49.75 18.4001 50.45 18.0001C51.05 17.6001 51.95 17.4001 53.15 17.4001C54.15 17.4001 55.05 17.6001 55.55 18.0001C56.15 18.4001 56.45 19.1001 56.65 20.1001C56.65 20.3001 56.75 20.5001 56.95 20.6001C57.05 20.7001 57.25 20.8001 57.45 20.7001C57.65 20.7001 57.75 20.6001 57.85 20.4001C57.95 20.2001 58.05 20.0001 57.95 19.8001C57.75 18.8001 57.35 18.0001 56.75 17.4001C56.05 16.7001 55.05 16.4001 53.85 16.2001V13.7001H52.35V16.2001C51.15 16.3001 50.15 16.6001 49.45 17.1001C48.55 17.8001 48.15 18.7001 48.15 19.8001C48.15 21.0001 48.55 21.9001 49.45 22.6001C50.15 23.2001 51.35 23.6001 53.05 24.0001C54.75 24.4001 55.95 24.9001 56.45 25.4001C56.95 25.9001 57.15 26.6001 57.15 27.6001C57.15 28.5001 56.65 29.2001 55.75 29.8001C54.95 30.2001 54.15 30.5001 53.15 30.5001C51.85 30.5001 50.85 30.2001 50.25 29.7001C49.55 29.1001 49.05 28.3001 48.95 27.1001C48.95 26.9001 48.85 26.7001 48.75 26.6001C48.65 26.5001 48.45 26.4001 48.35 26.5001C48.15 26.5001 48.05 26.6001 47.95 26.7001C47.85 26.8001 47.75 27.0001 47.75 27.2001C47.85 28.8001 48.45 29.9001 49.45 30.6001C50.15 31.2001 51.15 31.5001 52.35 31.6001V34.2001H53.85V31.6001C55.05 31.5001 56.05 31.2001 56.85 30.6001C57.85 29.8001 58.45 28.8001 58.45 27.6001C58.55 26.4001 58.15 25.4001 57.35 24.7001Z" fill="#020203"/>
<path d="M13.05 15.8H16.75" stroke="#020203" stroke-width="1.5" stroke-linejoin="round"/>
<path d="M11.35 19.3H18.25" stroke="#020203" stroke-width="1.5" stroke-linejoin="round"/>
</g>
<defs>
<clipPath id="clip0_478_45">
<rect width="61.3" height="66.8" fill="white" transform="translate(0.350006 0.400024)"/>
</clipPath>
</defs>
</svg>
