<svg width="37" height="32" viewBox="0 0 37 32" fill="none" xmlns="http://www.w3.org/2000/svg">
<rect x="15.4502" y="1.75" width="21" height="21" rx="10.5" fill="#00A1E9"/>
<path d="M22.5922 16.75L20.2059 8.02273H21.2797L23.1036 15.1307H23.1888L25.0468 8.02273H26.24L28.0979 15.1307H28.1832L30.007 8.02273H31.0809L28.6945 16.75H27.6036L25.6775 9.79545H25.6093L23.6832 16.75H22.5922Z" fill="white"/>
<rect x="15.4502" y="1.75" width="21" height="21" rx="10.5" stroke="white"/>
<g clip-path="url(#clip0_362_19)">
<path d="M2.52295 17.7394C2.52295 16.163 3.80114 14.9274 5.33498 14.9274H25.147V27.6667C25.147 29.2432 23.8688 30.4787 22.335 30.4787H2.52295V17.7394Z" fill="white"/>
<path d="M22.335 30.8621H2.52298C2.30995 30.8621 2.18213 30.6917 2.18213 30.5213V17.7393C2.18213 15.9924 3.63075 14.5438 5.37762 14.5438H25.1896C25.4027 14.5438 25.5305 14.7142 25.5305 14.8847V27.624C25.5305 29.4135 24.1245 30.8621 22.335 30.8621ZM2.86383 30.1378H22.335C23.6984 30.1378 24.8062 29.03 24.8062 27.6666V15.2681H5.33501C3.9716 15.2681 2.86383 16.3759 2.86383 17.7393V30.1378Z" fill="#595857"/>
<path d="M15.2623 30.1379C15.0919 30.1379 14.9215 30.01 14.9215 29.797L14.6658 26.7293C14.325 25.8772 13.4302 25.4085 12.5355 25.6216L11.2573 25.9624C10.6182 26.1328 9.9365 26.1328 9.34 25.9624L8.06181 25.6642C7.16707 25.4511 6.27234 25.9198 5.93148 26.7719L5.71845 29.8396C5.71845 30.0526 5.54803 30.1805 5.33499 30.1805C5.12196 30.1805 4.99414 30.01 4.99414 29.797L5.20717 26.7293C5.20717 26.6441 5.24978 26.5589 5.29239 26.4737C5.76106 25.3233 7.03925 24.6842 8.23224 24.9825L9.51043 25.2807C10.0217 25.4085 10.5756 25.4085 11.0869 25.2807L12.3651 24.9399C13.6007 24.6416 14.8362 25.2807 15.3049 26.4737C15.3049 26.5163 15.3475 26.6015 15.3475 26.7293L15.6032 29.7544C15.6458 29.9674 15.4753 30.1379 15.2623 30.1379C15.3049 30.1379 15.2623 30.1379 15.2623 30.1379Z" fill="#595857"/>
<path d="M22.335 20.2105H17.3926C17.1796 20.2105 17.0518 20.0401 17.0518 19.8697C17.0518 19.6992 17.2222 19.5288 17.3926 19.5288H22.335C22.548 19.5288 22.6758 19.6992 22.6758 19.8697C22.6758 20.0401 22.548 20.2105 22.335 20.2105Z" fill="#595857"/>
<path d="M22.335 22.7243H17.3926C17.1796 22.7243 17.0518 22.5539 17.0518 22.3835C17.0518 22.213 17.2222 22.0426 17.3926 22.0426H22.335C22.548 22.0426 22.6758 22.213 22.6758 22.3835C22.6758 22.5539 22.548 22.7243 22.335 22.7243Z" fill="#595857"/>
<path d="M22.335 25.1955H17.3926C17.1796 25.1955 17.0518 25.0251 17.0518 24.8546C17.0518 24.6842 17.2222 24.5138 17.3926 24.5138H22.335C22.548 24.5138 22.6758 24.6842 22.6758 24.8546C22.6758 25.0251 22.548 25.1955 22.335 25.1955Z" fill="#595857"/>
<path d="M10.3201 24.7694C9.12708 24.7694 8.01931 24.1303 7.46543 23.0651C6.86894 22.9799 6.44287 22.4686 6.44287 21.9147C6.44287 21.4887 6.69851 21.1052 7.08197 20.8922V20.6791C7.08197 18.8897 8.53059 17.3984 10.3627 17.3984C12.1521 17.3984 13.6434 18.8471 13.6434 20.6791V20.8922C14.0268 21.1052 14.2825 21.4887 14.2825 21.9147C14.2825 22.5112 13.8138 22.9799 13.2599 23.0651C12.5782 24.1303 11.513 24.7694 10.3201 24.7694ZM10.3201 18.0801C8.91405 18.0801 7.76367 19.2305 7.76367 20.6365V21.3608L7.50803 21.4461C7.295 21.4887 7.12458 21.7017 7.12458 21.9147C7.12458 22.1704 7.38021 22.3834 7.63585 22.3834H7.84889L7.97671 22.5964C8.40277 23.4912 9.29751 24.0451 10.2775 24.0451C11.2574 24.0451 12.1521 23.4912 12.5782 22.5964L12.6634 22.3834H12.8765C13.1747 22.3834 13.4303 22.1704 13.4303 21.9147C13.4303 21.7017 13.3025 21.5313 13.0469 21.4461L12.7912 21.3608V20.6365C12.8765 19.2305 11.7261 18.0801 10.3201 18.0801Z" fill="#595857"/>
<path d="M5.54799 27.3259L5.33496 30.2231H14.751L14.4954 27.2406C14.4954 26.1755 13.5154 25.4086 12.4502 25.6642L11.1721 26.005C10.8312 26.0903 10.4903 26.0903 10.1921 26.0477L8.01917 25.7494C6.95401 25.6216 5.97406 26.2181 5.54799 27.198C5.5906 27.2406 5.54799 27.2832 5.54799 27.3259Z" fill="#595857"/>
<path d="M14.7936 30.6065H5.33499C5.24978 30.6065 5.12196 30.5639 5.07935 30.4787C4.99414 30.3935 4.99414 30.3083 4.99414 30.2231L5.20717 27.3258C5.20717 27.2406 5.24978 27.1554 5.24978 27.1128C5.71845 25.9624 6.86883 25.2807 8.10442 25.4511L10.2773 25.7494C10.5756 25.792 10.8738 25.792 11.1295 25.7068L12.4077 25.3659C13.0042 25.2381 13.6433 25.3659 14.1119 25.7494C14.5806 26.1328 14.8789 26.6867 14.8789 27.3258L15.1345 30.2657C15.1345 30.3509 15.0919 30.4787 15.0493 30.5213C14.9641 30.5639 14.8789 30.6065 14.7936 30.6065ZM5.71845 29.8822H14.3676L14.1545 27.2832C14.1545 26.8572 13.9841 26.4737 13.6433 26.2607C13.345 26.005 12.919 25.9198 12.5355 26.005L11.2573 26.3459C10.8738 26.4311 10.4904 26.4737 10.1069 26.3885L7.93399 26.0902C7.03925 25.9624 6.18712 26.4737 5.84627 27.2832V27.3258L5.71845 29.8822Z" fill="#595857"/>
</g>
<defs>
<clipPath id="clip0_362_19">
<rect width="24" height="17" fill="white" transform="translate(1.54883 14)"/>
</clipPath>
</defs>
</svg>
