<?xml version="1.0" encoding="utf-8"?>
<!-- Generator: Adobe Illustrator 19.0.0, SVG Export Plug-In . SVG Version: 6.00 Build 0)  -->
<svg version="1.2" baseProfile="tiny" id="Layer_1" xmlns="http://www.w3.org/2000/svg" xmlns:xlink="http://www.w3.org/1999/xlink"
	 x="0px" y="0px" width="77px" height="81px" viewBox="-259 380.9 77 81" xml:space="preserve">
<g id="XMLID_64_">
</g>
<g id="XMLID_65_">
</g>
<g id="XMLID_66_">
</g>
<g id="XMLID_67_">
</g>
<g id="XMLID_68_">
</g>
<g id="XMLID_69_">
</g>
<g id="신청현황조회_1_">
	<path id="XMLID_122_" fill="none" stroke="#595857" stroke-width="2" stroke-linecap="round" stroke-miterlimit="10" d="
		M-198.5,413.5v33.9c0,0.8-0.6,1.4-1.4,1.4h-42.8c-0.8,0-1.4-0.6-1.4-1.4v-52.2c0-0.8,0.6-1.4,1.4-1.4h3.4"/>
	<path id="XMLID_121_" fill="none" stroke="#595857" stroke-width="2" stroke-linecap="round" stroke-miterlimit="10" d="
		M-202.5,449.5v1.9c0,0.8-0.6,1.4-1.4,1.4h-42.8c-0.8,0-1.4-0.6-1.4-1.4v-52.2c0-0.8,0.6-1.4,1.4-1.4h2.4"/>
	
		<line id="XMLID_120_" fill="none" stroke="#595857" stroke-width="2" stroke-linecap="round" stroke-miterlimit="10" x1="-232.6" y1="393.9" x2="-213.7" y2="393.9"/>
	
		<line id="XMLID_23_" fill="none" stroke="#595857" stroke-width="2" stroke-linecap="round" stroke-miterlimit="10" x1="-234.7" y1="441.4" x2="-234.7" y2="418.7"/>
	
		<line id="XMLID_36_" fill="none" stroke="#595857" stroke-width="2" stroke-linecap="round" stroke-miterlimit="10" x1="-224.7" y1="441.4" x2="-224.7" y2="421.7"/>
	
		<line id="XMLID_37_" fill="none" stroke="#595857" stroke-width="2" stroke-linecap="round" stroke-miterlimit="10" x1="-214.7" y1="441.4" x2="-214.7" y2="418.7"/>
	
		<line id="XMLID_38_" fill="none" stroke="#595857" stroke-width="2" stroke-linecap="round" stroke-miterlimit="10" x1="-204.7" y1="441.4" x2="-204.7" y2="428.7"/>
	<circle id="XMLID_34_" fill="#89BB41" cx="-234.9" cy="408.3" r="2.3"/>
	<circle id="XMLID_43_" fill="#89BB41" cx="-224.9" cy="416.3" r="2.3"/>
	<circle id="XMLID_47_" fill="#89BB41" cx="-204.9" cy="422.3" r="2.3"/>
	
		<line id="XMLID_40_" fill="none" stroke="#89BB41" stroke-width="2" stroke-linecap="round" stroke-miterlimit="10" x1="-234.9" y1="408.3" x2="-225" y2="416.2"/>
	
		<line id="XMLID_41_" fill="none" stroke="#89BB41" stroke-width="2" stroke-linecap="round" stroke-miterlimit="10" x1="-211.5" y1="413.1" x2="-205" y2="422.2"/>
	
		<line id="XMLID_44_" fill="none" stroke="#89BB41" stroke-width="2" stroke-linecap="round" stroke-miterlimit="10" x1="-216" y1="409.3" x2="-224.9" y2="416.2"/>
	<g id="XMLID_97_">
		
			<circle id="XMLID_111_" fill="none" stroke="#1A96D4" stroke-width="2" stroke-linecap="round" stroke-miterlimit="10" cx="-204.2" cy="402.2" r="12.7"/>
		<path id="XMLID_105_" fill="none" stroke="#1A96D4" stroke-width="2" stroke-linecap="round" stroke-miterlimit="10" d="
			M-204.2,409.8c-4.2,0-7.6-3.4-7.6-7.6"/>
		
			<path id="XMLID_104_" fill="none" stroke="#1A96D4" stroke-width="2" stroke-linecap="round" stroke-linejoin="round" stroke-miterlimit="10" d="
			M-195.2,411.2l5.6,5.6L-195.2,411.2z"/>
		
			<circle id="XMLID_103_" fill="none" stroke="#1A96D4" stroke-width="2" stroke-linecap="round" stroke-miterlimit="10" cx="-211.6" cy="398.8" r="0.4"/>
	</g>
</g>
</svg>
