<?xml version="1.0" encoding="utf-8"?>
<!-- Generator: Adobe Illustrator 19.0.0, SVG Export Plug-In . SVG Version: 6.00 Build 0)  -->
<svg version="1.2" baseProfile="tiny" id="Layer_1" xmlns="http://www.w3.org/2000/svg" xmlns:xlink="http://www.w3.org/1999/xlink"
	 x="0px" y="0px" width="77px" height="81px" viewBox="-259 380.9 77 81" xml:space="preserve">
<line id="XMLID_224_" fill="none" stroke="#595857" stroke-width="2" stroke-linecap="round" stroke-miterlimit="10" x1="-201.5" y1="416.6" x2="-201.5" y2="433.7"/>
<path id="XMLID_223_" fill="none" stroke="#595857" stroke-width="2" stroke-linecap="round" stroke-miterlimit="10" d="
	M-200.9,453.9h-10.8h-16.6c-6,0-10.8-4.9-10.8-10.8v-42.7"/>
<path id="XMLID_222_" fill="none" stroke="#595857" stroke-width="2" stroke-linecap="round" stroke-miterlimit="10" d="
	M-226.8,433.7c5.5,3,6.3,7.9,6.3,9.6c0,5-3.5,10.9-9.3,10.6"/>
<path id="XMLID_221_" fill="none" stroke="#595857" stroke-width="2" stroke-linecap="round" stroke-miterlimit="10" d="
	M-199.8,433.7c6.4,0.7,7.3,8,7.3,9.6c0,4.8-3.3,10.6-8.8,10.6c-0.2,0-5.4,0-5.5,0"/>
<polyline id="XMLID_218_" fill="none" stroke="#595857" stroke-width="2" stroke-linecap="round" stroke-miterlimit="10" points="
	-227.8,433.7 -202.5,433.7 -199.7,433.7 "/>
<g id="XMLID_195_">
	<path id="XMLID_197_" fill="none" stroke="#89BB41" stroke-width="2" stroke-linecap="round" stroke-miterlimit="10" d="
		M-229.8,404.9c0.8-0.5,1.7-0.7,2.7-0.7c3,0,5.4,2.4,5.4,5.4c0,3-2.4,5.4-5.4,5.4s-5.4-2.4-5.4-5.4c0-1,0.3-2,0.8-2.8"/>
	<g id="XMLID_140_">
		<path id="XMLID_1612_" fill="#89BB41" d="M-230.4,409.4h0.8l-0.5-2.1h0.9l0.5,2.1h0.8l0.6-2.1h0.8l0.5,2.1h0.7l0.4-2.1h0.9
			l-0.5,2.1h0.7v0.5h-0.9l-0.6,2.6h-0.8l-0.6-2.6h-0.7l-0.6,2.6h-0.8l-0.6-2.6h-0.9V409.4z M-228.5,411.1l0.3-1.1h-0.5L-228.5,411.1
			z M-227.3,409.4h0.4l-0.2-1L-227.3,409.4z M-225.8,411.1l0.2-1.2h-0.5L-225.8,411.1z"/>
	</g>
</g>
<line id="XMLID_201_" fill="none" stroke="#595857" stroke-width="2" stroke-linecap="round" stroke-miterlimit="10" x1="-211.6" y1="421.3" x2="-207.1" y2="421.3"/>
<line id="XMLID_202_" fill="none" stroke="#595857" stroke-width="2" stroke-linecap="round" stroke-miterlimit="10" x1="-211.6" y1="426.2" x2="-207.1" y2="426.2"/>
<line id="XMLID_203_" fill="none" stroke="#595857" stroke-width="2" stroke-linecap="round" stroke-miterlimit="10" x1="-211.6" y1="431.1" x2="-207.1" y2="431.1"/>
<line id="XMLID_170_" fill="none" stroke="#595857" stroke-width="2" stroke-linecap="round" stroke-miterlimit="10" x1="-232.6" y1="421.3" x2="-226.1" y2="421.3"/>
<line id="XMLID_198_" fill="none" stroke="#595857" stroke-width="2" stroke-linecap="round" stroke-miterlimit="10" x1="-232.6" y1="426.2" x2="-226" y2="426.2"/>
<line id="XMLID_199_" fill="none" stroke="#595857" stroke-width="2" stroke-linecap="round" stroke-miterlimit="10" x1="-232.6" y1="431.1" x2="-218.5" y2="431.1"/>
<line id="XMLID_204_" fill="none" stroke="#595857" stroke-width="2" stroke-linecap="round" stroke-miterlimit="10" x1="-232.6" y1="436.1" x2="-223.5" y2="436.1"/>
<line id="XMLID_205_" fill="none" stroke="#595857" stroke-width="2" stroke-linecap="round" stroke-miterlimit="10" x1="-232.6" y1="441.1" x2="-221.5" y2="441.1"/>
<path id="XMLID_206_" fill="none" stroke="#595857" stroke-width="2" stroke-linecap="round" stroke-miterlimit="10" d="
	M-250.2,400.9c0-3,2.5-5.5,5.5-5.5s5.5,2.5,5.5,5.5"/>
<line id="XMLID_295_" fill="none" stroke="#595857" stroke-width="2" stroke-linecap="round" stroke-miterlimit="10" x1="-230.6" y1="395.4" x2="-215.3" y2="395.4"/>
<line id="XMLID_259_" fill="none" stroke="#595857" stroke-width="2" stroke-linecap="round" stroke-miterlimit="10" x1="-244.7" y1="395.4" x2="-236.3" y2="395.4"/>
<line id="XMLID_207_" fill="none" stroke="#595857" stroke-width="2" stroke-linecap="round" stroke-miterlimit="10" x1="-250.2" y1="400.9" x2="-239.2" y2="400.9"/>
<g id="XMLID_152_">
	
		<circle id="XMLID_169_" fill="none" stroke="#1A96D4" stroke-width="2" stroke-linecap="round" stroke-miterlimit="10" cx="-205.2" cy="403.2" r="12.7"/>
	<path id="XMLID_168_" fill="none" stroke="#1A96D4" stroke-width="2" stroke-linecap="round" stroke-miterlimit="10" d="
		M-205.2,410.8c-4.2,0-7.6-3.4-7.6-7.6"/>
	
		<path id="XMLID_155_" fill="none" stroke="#1A96D4" stroke-width="2" stroke-linecap="round" stroke-linejoin="round" stroke-miterlimit="10" d="
		M-196.2,412.2l5.6,5.6L-196.2,412.2z"/>
	
		<circle id="XMLID_154_" fill="none" stroke="#1A96D4" stroke-width="2" stroke-linecap="round" stroke-miterlimit="10" cx="-212.6" cy="399.8" r="0.4"/>
</g>
</svg>
