<?xml version="1.0" encoding="utf-8"?>
<!-- Generator: Adobe Illustrator 19.0.0, SVG Export Plug-In . SVG Version: 6.00 Build 0)  -->
<svg version="1.2" baseProfile="tiny" xmlns="http://www.w3.org/2000/svg" xmlns:xlink="http://www.w3.org/1999/xlink" x="0px"
	 y="0px" width="77px" height="81px" viewBox="-259 380.9 77 81" xml:space="preserve">
<g id="Layer_1">
	<path id="XMLID_65_" fill="none" stroke="#595857" stroke-width="2" stroke-linecap="round" stroke-miterlimit="10" d="
		M-195.3,415.1v36.4c0,0.8-0.6,1.4-1.4,1.4h-49.9c-0.8,0-1.4-0.6-1.4-1.4v-56.2c0-0.8,0.6-1.4,1.4-1.4h3.2"/>
	
		<line id="XMLID_70_" fill="none" stroke="#595857" stroke-width="2" stroke-linecap="round" stroke-miterlimit="10" x1="-236.6" y1="393.9" x2="-213.5" y2="393.9"/>
	<path id="XMLID_90_" fill="none" stroke="#89BB41" stroke-width="2" stroke-linecap="round" stroke-miterlimit="10" d="
		M-228.7,411.2c0,1.7-1.4,3.1-3.1,3.1c-1.7,0-3.1-1.4-3.1-3.1s1.4-3.1,3.1-3.1c0.8,0,1.5,0.3,2,0.7"/>
	<path id="XMLID_67_" fill="none" stroke="#89BB41" stroke-width="2" stroke-linecap="round" stroke-miterlimit="10" d="
		M-240.5,420.3c1.7-3,4.9-5,8.6-5c3.7,0,6.1,2,7.8,5"/>
	
		<circle id="XMLID_48_" fill="none" stroke="#595857" stroke-width="2" stroke-linecap="round" stroke-miterlimit="10" cx="-232" cy="413.2" r="11"/>
	<g id="XMLID_66_">
		<g id="XMLID_76_">
			<path fill="#1A96D4" d="M-201.5,390.7l0.3,3.1h-0.1c1,0.2,1.9,0.6,2.8,1.1l-0.1-0.1l2.4-2l3.1,3.1l-2,2.4l-0.1-0.1
				c0.5,0.8,0.9,1.8,1.1,2.8V401l3.1,0.3v4.3l-3.1,0.3v-0.1c-0.2,1-0.6,1.9-1.1,2.8l0.1-0.1l2,2.4l-3.1,3.1l-2.4-2l0.1-0.1
				c-0.8,0.5-1.8,0.9-2.8,1.1h0.1l-0.3,3.1h-4.3l-0.3-3.1h0.1c-1-0.2-1.9-0.6-2.8-1.1l0.1,0.1l-2.4,2l-3.1-3.1l2-2.4l0.1,0.1
				c-0.5-0.8-0.9-1.8-1.1-2.8v0.1l-3.1-0.3v-4.3l3.1-0.3v0.1c0.2-1,0.6-1.9,1.1-2.8l-0.1,0.1l-2-2.4l3.1-3.1l2.4,2l-0.1,0.1
				c0.8-0.5,1.8-0.9,2.8-1.1h-0.1l0.3-3.1H-201.5 M-201.5,388.7h-4.3c-1,0-1.9,0.8-2,1.8l-0.2,1.8c-0.2,0.1-0.3,0.1-0.5,0.2
				l-1.4-1.2c-0.4-0.3-0.8-0.5-1.3-0.5c-0.5,0-1,0.2-1.4,0.6l-3.1,3.1c-0.7,0.7-0.8,1.9-0.1,2.7l1.2,1.4c-0.1,0.2-0.1,0.3-0.2,0.5
				l-1.8,0.2c-1,0.1-1.8,1-1.8,2v4.3c0,1,0.8,1.9,1.8,2l1.8,0.2c0.1,0.2,0.1,0.3,0.2,0.5l-1.2,1.4c-0.7,0.8-0.6,2,0.1,2.7l3.1,3.1
				c0.4,0.4,0.9,0.6,1.4,0.6c0.5,0,0.9-0.2,1.3-0.5l1.4-1.2c0.2,0.1,0.3,0.1,0.5,0.2l0.2,1.8c0.1,1,1,1.8,2,1.8h4.3
				c1,0,1.9-0.8,2-1.8l0.2-1.8c0.2-0.1,0.3-0.1,0.5-0.2l1.4,1.2c0.4,0.3,0.8,0.5,1.3,0.5c0.5,0,1-0.2,1.4-0.6l3.1-3.1
				c0.7-0.7,0.8-1.9,0.1-2.7l-1.2-1.4c0.1-0.2,0.1-0.3,0.2-0.5l1.8-0.2c1-0.1,1.8-1,1.8-2v-4.3c0-1-0.8-1.9-1.8-2l-1.8-0.2
				c-0.1-0.2-0.1-0.3-0.2-0.5l1.2-1.4c0.7-0.8,0.6-2-0.1-2.7l-3.1-3.1c-0.4-0.4-0.9-0.6-1.4-0.6c-0.5,0-0.9,0.2-1.3,0.5l-1.4,1.2
				c-0.2-0.1-0.3-0.1-0.5-0.2l-0.2-1.8C-199.6,389.5-200.4,388.7-201.5,388.7L-201.5,388.7z"/>
		</g>
		
			<circle id="XMLID_68_" fill="none" stroke="#1A96D4" stroke-width="2" stroke-linecap="round" stroke-linejoin="round" stroke-miterlimit="10" cx="-203.6" cy="403.4" r="2.8"/>
		
			<circle id="XMLID_112_" fill="none" stroke="#1A96D4" stroke-width="2" stroke-linecap="round" stroke-linejoin="round" stroke-dasharray="2.8093,2.8093" cx="-463.6" cy="-57.7" r="6.3"/>
	</g>
	
		<line id="XMLID_113_" fill="none" stroke="#595857" stroke-width="2" stroke-linecap="round" stroke-miterlimit="10" x1="-240.5" y1="433.4" x2="-221" y2="433.4"/>
	
		<line id="XMLID_114_" fill="none" stroke="#595857" stroke-width="2" stroke-linecap="round" stroke-miterlimit="10" x1="-240.5" y1="439.8" x2="-208.7" y2="439.8"/>
	
		<line id="XMLID_117_" fill="none" stroke="#595857" stroke-width="2" stroke-linecap="round" stroke-miterlimit="10" x1="-208.7" y1="445.9" x2="-200.8" y2="445.9"/>
	
		<line id="XMLID_123_" fill="none" stroke="#595857" stroke-width="2" stroke-linecap="round" stroke-miterlimit="10" x1="-220" y1="445.9" x2="-213.5" y2="445.9"/>
	
		<line id="XMLID_116_" fill="none" stroke="#595857" stroke-width="2" stroke-linecap="round" stroke-miterlimit="10" x1="-240.5" y1="445.9" x2="-224.6" y2="445.9"/>
</g>
<g id="Layer_2">
</g>
</svg>
