<?xml version="1.0" encoding="utf-8"?>
<!-- Generator: Adobe Illustrator 19.0.0, SVG Export Plug-In . SVG Version: 6.00 Build 0)  -->
<svg version="1.2" baseProfile="tiny" id="Layer_1" xmlns="http://www.w3.org/2000/svg" xmlns:xlink="http://www.w3.org/1999/xlink"
	 x="0px" y="0px" width="77px" height="81px" viewBox="-259 380.9 77 81" xml:space="preserve">
<path id="XMLID_271_" fill="none" stroke="#595857" stroke-width="2" stroke-linecap="round" stroke-miterlimit="10" d="
	M-211.3,396.8l-5.5-5.2c-2.9-2.8-7.4-2.8-10.3,0l-5.4,5.1"/>
<path id="XMLID_276_" fill="none" stroke="#595857" stroke-width="2" stroke-linecap="round" stroke-miterlimit="10" d="
	M-193.2,436.4v-19.2c0-2.1-0.9-4.1-2.4-5.5l-6.2-5.9"/>
<path id="XMLID_248_" fill="none" stroke="#595857" stroke-width="2" stroke-linecap="round" stroke-miterlimit="10" d="
	M-241.6,405.3l-7.1,6.7c-1.3,1.2-2,2.9-2,4.7v28.8c0,1.5,1.2,2.8,2.8,2.8h26.2"/>
<polyline id="XMLID_275_" fill="none" stroke="#595857" stroke-width="2" stroke-linecap="round" stroke-linejoin="round" stroke-miterlimit="10" points="
	-213.9,427.9 -222.1,419.7 -245.2,442.7 "/>
<line id="XMLID_249_" fill="none" stroke="#595857" stroke-width="2" stroke-linecap="round" stroke-linejoin="round" stroke-miterlimit="10" x1="-246.3" y1="415.3" x2="-232" y2="429.5"/>
<line id="XMLID_256_" fill="none" stroke="#595857" stroke-width="2" stroke-linecap="round" stroke-linejoin="round" stroke-miterlimit="10" x1="-197.9" y1="415.3" x2="-210.6" y2="427.9"/>
<path id="XMLID_297_" fill="none" stroke="#595857" stroke-width="2" stroke-linecap="round" stroke-linejoin="round" stroke-miterlimit="10" d="
	M-238.2,396.8h-2c-0.8,0-1.4,0.6-1.4,1.4v21.5"/>
<path id="XMLID_219_" fill="none" stroke="#595857" stroke-width="2" stroke-linecap="round" stroke-linejoin="round" stroke-miterlimit="10" d="
	M-201.8,419.3v-21.2c0-0.8-0.6-1.4-1.4-1.4h-29.1"/>
<path id="XMLID_273_" fill="none" stroke="#89BB41" stroke-width="2" stroke-linecap="round" stroke-miterlimit="10" d="
	M-225.5,408.2h-2.3c-1.2,0-1.8,1.5-1,2.3l5.5,5.6c0.5,0.6,1.4,0.6,2,0l5.5-5.6c0.9-0.9,0.2-2.3-1-2.3h-2.4l0-0.1v-5.6
	c0-0.8-0.6-1.4-1.4-1.4h-3.5c-0.8,0-1.4,0.6-1.4,1.4v5.6"/>
<g id="XMLID_270_">
	<path id="XMLID_274_" fill="none" stroke="#1A96D4" stroke-width="2" stroke-linecap="round" stroke-miterlimit="10" d="
		M-194.7,436.4v-1.8c0-1.3-1.1-2.4-2.4-2.4h-6.6c-1,0-1.9-0.3-1.9-1.4l0,0c0-1.3-1.2-2.9-2.6-2.9h-11.6c-1.3,0-2.4,1.1-2.4,2.4v1.9
		v4.3v16.3c0,0.5,0.4,0.9,0.9,0.9h25.6c0.5,0,0.9-0.4,0.9-0.9"/>
	<path id="XMLID_272_" fill="none" stroke="#1A96D4" stroke-width="2" stroke-linecap="round" stroke-miterlimit="10" d="
		M-190.5,436.4h-25c-0.6,0-1.4,0.8-1.4,1.4l-5.2,14.6c0,0.6,0.5,1,1,1h25.4c0.6,0,1-0.5,1-1l5.2-14.9
		C-189.5,436.9-190,436.4-190.5,436.4z"/>
	
		<line id="XMLID_250_" fill="none" stroke="#1A96D4" stroke-width="2" stroke-linecap="round" stroke-miterlimit="10" stroke-dasharray="2,3" x1="-217.5" y1="442.2" x2="-190.9" y2="442.2"/>
</g>
</svg>
