<?xml version="1.0" encoding="utf-8"?>
<!-- Generator: Adobe Illustrator 19.0.0, SVG Export Plug-In . SVG Version: 6.00 Build 0)  -->
<svg version="1.2" baseProfile="tiny" xmlns="http://www.w3.org/2000/svg" xmlns:xlink="http://www.w3.org/1999/xlink" x="0px"
	 y="0px" width="77px" height="81px" viewBox="-259 380.9 77 81" xml:space="preserve">
<g id="Layer_1">
	
		<line id="XMLID_82_" fill="none" stroke="#595857" stroke-width="2" stroke-linecap="round" stroke-miterlimit="10" x1="-199.5" y1="415.6" x2="-199.5" y2="432.7"/>
	<path id="XMLID_75_" fill="none" stroke="#595857" stroke-width="2" stroke-linecap="round" stroke-miterlimit="10" d="
		M-198.9,452.9h-10.8h-20.6c-6,0-10.8-4.9-10.8-10.8v-42.7"/>
	<path id="XMLID_73_" fill="none" stroke="#595857" stroke-width="2" stroke-linecap="round" stroke-miterlimit="10" d="
		M-227.8,432.7c5.5,3,6.3,7.9,6.3,9.6c0,5-3.5,10.9-9.3,10.6"/>
	<path id="XMLID_74_" fill="none" stroke="#595857" stroke-width="2" stroke-linecap="round" stroke-miterlimit="10" d="
		M-196.8,432.7c5.5,3,6.3,7.9,6.3,9.6c0,4.8-3.3,10.6-8.8,10.6c-0.2,0-5.4,0-5.5,0"/>
	
		<line id="XMLID_127_" fill="none" stroke="#595857" stroke-width="2" stroke-linecap="round" stroke-miterlimit="10" x1="-235.6" y1="394.5" x2="-216.9" y2="394.5"/>
	<path id="XMLID_80_" fill="none" stroke="#595857" stroke-width="2" stroke-linecap="round" stroke-miterlimit="10" d="
		M-241.2,403.3h-4.7c-0.8,0-1.4-0.6-1.4-1.4v-5.9c0-0.8,0.6-1.4,1.4-1.4h3.5"/>
	<polyline id="XMLID_71_" fill="none" stroke="#595857" stroke-width="2" stroke-linecap="round" stroke-miterlimit="10" points="
		-227.8,432.7 -200.5,432.7 -197.7,432.7 	"/>
	
		<line id="XMLID_72_" fill="none" stroke="#595857" stroke-width="2" stroke-linecap="round" stroke-miterlimit="10" x1="-233.8" y1="419.1" x2="-229" y2="419.1"/>
	
		<line id="XMLID_77_" fill="none" stroke="#595857" stroke-width="2" stroke-linecap="round" stroke-miterlimit="10" x1="-224.7" y1="419.1" x2="-206.2" y2="419.1"/>
	
		<line id="XMLID_79_" fill="none" stroke="#595857" stroke-width="2" stroke-linecap="round" stroke-miterlimit="10" x1="-233.8" y1="426.1" x2="-229" y2="426.1"/>
	
		<line id="XMLID_78_" fill="none" stroke="#595857" stroke-width="2" stroke-linecap="round" stroke-miterlimit="10" x1="-224.7" y1="426.1" x2="-206.2" y2="426.1"/>
	
		<line id="XMLID_81_" fill="none" stroke="#595857" stroke-width="2" stroke-linecap="round" stroke-miterlimit="10" x1="-233.8" y1="434.1" x2="-229" y2="434.1"/>
	
		<line id="XMLID_89_" fill="none" stroke="#595857" stroke-width="2" stroke-linecap="round" stroke-miterlimit="10" x1="-243.5" y1="398.9" x2="-216.9" y2="398.9"/>
	
		<line id="XMLID_126_" fill="none" stroke="#595857" stroke-width="2" stroke-linecap="round" stroke-miterlimit="10" x1="-233.8" y1="441.1" x2="-229" y2="441.1"/>
	
		<line id="XMLID_125_" fill="none" stroke="#595857" stroke-width="2" stroke-linecap="round" stroke-miterlimit="10" x1="-224.7" y1="441.1" x2="-223.2" y2="441.1"/>
	<rect id="XMLID_69_" x="-234.6" y="405.8" fill="#89BB41" width="3.4" height="3.4"/>
	<rect id="XMLID_128_" x="-231.2" y="409.2" fill="#89BB41" width="3.4" height="3.4"/>
	<rect id="XMLID_130_" x="-227.8" y="405.8" fill="#89BB41" width="3.4" height="3.4"/>
	<rect id="XMLID_129_" x="-224.4" y="409.2" fill="#89BB41" width="3.4" height="3.4"/>
	<rect id="XMLID_132_" x="-221" y="405.8" fill="#89BB41" width="3.4" height="3.4"/>
	<g id="XMLID_88_">
		
			<path id="XMLID_39_" fill="none" stroke="#1A96D4" stroke-width="2" stroke-linecap="round" stroke-linejoin="round" stroke-miterlimit="10" d="
			M-191.7,415.6h-23.7c-0.8,0-1.4-0.6-1.4-1.4v-20.2c0-0.8,0.6-1.4,1.4-1.4h23.7c0.8,0,1.4,0.6,1.4,1.4v20.2
			C-190.3,414.9-191,415.6-191.7,415.6z"/>
		
			<line id="XMLID_42_" fill="none" stroke="#1A96D4" stroke-width="2" stroke-linecap="round" stroke-linejoin="round" stroke-miterlimit="10" x1="-216.9" y1="398.5" x2="-190.3" y2="398.5"/>
		
			<line id="XMLID_54_" fill="none" stroke="#1A96D4" stroke-width="2" stroke-linecap="round" stroke-linejoin="round" stroke-miterlimit="10" x1="-211.7" y1="403.1" x2="-209.8" y2="403.1"/>
		
			<line id="XMLID_84_" fill="none" stroke="#1A96D4" stroke-width="2" stroke-linecap="round" stroke-linejoin="round" stroke-miterlimit="10" x1="-206.7" y1="403.1" x2="-204.8" y2="403.1"/>
		
			<line id="XMLID_85_" fill="none" stroke="#1A96D4" stroke-width="2" stroke-linecap="round" stroke-linejoin="round" stroke-miterlimit="10" x1="-201.7" y1="403.1" x2="-199.8" y2="403.1"/>
		
			<line id="XMLID_86_" fill="none" stroke="#1A96D4" stroke-width="2" stroke-linecap="round" stroke-linejoin="round" stroke-miterlimit="10" x1="-196.7" y1="403.1" x2="-194.8" y2="403.1"/>
		
			<line id="XMLID_133_" fill="none" stroke="#1A96D4" stroke-width="2" stroke-linecap="round" stroke-linejoin="round" stroke-miterlimit="10" x1="-211.7" y1="407.1" x2="-209.8" y2="407.1"/>
		
			<line id="XMLID_131_" fill="none" stroke="#1A96D4" stroke-width="2" stroke-linecap="round" stroke-linejoin="round" stroke-miterlimit="10" x1="-206.7" y1="407.1" x2="-204.8" y2="407.1"/>
		
			<line id="XMLID_124_" fill="none" stroke="#1A96D4" stroke-width="2" stroke-linecap="round" stroke-linejoin="round" stroke-miterlimit="10" x1="-201.7" y1="407.1" x2="-199.8" y2="407.1"/>
		
			<line id="XMLID_87_" fill="none" stroke="#1A96D4" stroke-width="2" stroke-linecap="round" stroke-linejoin="round" stroke-miterlimit="10" x1="-196.7" y1="407.1" x2="-194.8" y2="407.1"/>
		
			<line id="XMLID_137_" fill="none" stroke="#1A96D4" stroke-width="2" stroke-linecap="round" stroke-linejoin="round" stroke-miterlimit="10" x1="-211.7" y1="411.1" x2="-209.8" y2="411.1"/>
		
			<line id="XMLID_136_" fill="none" stroke="#1A96D4" stroke-width="2" stroke-linecap="round" stroke-linejoin="round" stroke-miterlimit="10" x1="-206.7" y1="411.1" x2="-204.8" y2="411.1"/>
		
			<line id="XMLID_135_" fill="none" stroke="#1A96D4" stroke-width="2" stroke-linecap="round" stroke-linejoin="round" stroke-miterlimit="10" x1="-201.7" y1="411.1" x2="-199.8" y2="411.1"/>
		
			<line id="XMLID_134_" fill="none" stroke="#1A96D4" stroke-width="2" stroke-linecap="round" stroke-linejoin="round" stroke-miterlimit="10" x1="-196.7" y1="411.1" x2="-194.8" y2="411.1"/>
		
			<line id="XMLID_64_" fill="none" stroke="#1A96D4" stroke-width="2" stroke-linecap="round" stroke-linejoin="round" stroke-miterlimit="10" x1="-210.8" y1="390.1" x2="-210.8" y2="395.8"/>
		
			<line id="XMLID_94_" fill="none" stroke="#1A96D4" stroke-width="2" stroke-linecap="round" stroke-linejoin="round" stroke-miterlimit="10" x1="-196.8" y1="390.1" x2="-196.8" y2="395.8"/>
	</g>
</g>
<g id="Layer_2">
</g>
</svg>
