<?xml version="1.0" encoding="utf-8"?>
<!-- Generator: Adobe Illustrator 19.0.0, SVG Export Plug-In . SVG Version: 6.00 Build 0)  -->
<svg version="1.2" baseProfile="tiny" id="Layer_1" xmlns="http://www.w3.org/2000/svg" xmlns:xlink="http://www.w3.org/1999/xlink"
	 x="0px" y="0px" width="77px" height="81px" viewBox="-259 380.9 77 81" xml:space="preserve">
<g id="XMLID_1692_">
	<g id="XMLID_235_">
		<path id="XMLID_237_" fill="none" stroke="#89BB41" stroke-width="2" stroke-linecap="round" stroke-miterlimit="10" d="
			M-229.1,423c1-0.6,2.2-0.9,3.4-0.9c3.8,0,6.9,3.1,6.9,6.9s-3.1,6.9-6.9,6.9c-3.8,0-6.9-3.1-6.9-6.9c0-1.3,0.4-2.5,1-3.6"/>
		<g id="XMLID_196_">
			<path id="XMLID_1651_" fill="#89BB41" d="M-229.8,428.7h1l-0.7-2.7h1.2l0.6,2.7h1l0.7-2.7h1l0.6,2.7h0.9l0.6-2.7h1.2l-0.7,2.7h1
				v0.7h-1.1l-0.8,3.3h-1l-0.7-3.3h-0.9l-0.8,3.3h-1l-0.8-3.3h-1.1v-0.7H-229.8z M-227.3,430.9l0.4-1.5h-0.7L-227.3,430.9z
				 M-225.9,428.7h0.6l-0.3-1.2L-225.9,428.7z M-223.9,430.9l0.3-1.5h-0.6L-223.9,430.9z"/>
		</g>
	</g>
	
		<line id="XMLID_231_" fill="none" stroke="#595857" stroke-width="2" stroke-linecap="round" stroke-miterlimit="10" x1="-232.6" y1="406.2" x2="-226.1" y2="406.2"/>
	
		<line id="XMLID_230_" fill="none" stroke="#595857" stroke-width="2" stroke-linecap="round" stroke-miterlimit="10" x1="-232.6" y1="411.1" x2="-222" y2="411.1"/>
	
		<line id="XMLID_233_" fill="none" stroke="#595857" stroke-width="2" stroke-linecap="round" stroke-miterlimit="10" x1="-213" y1="433.2" x2="-206.5" y2="433.2"/>
	<g id="XMLID_232_">
		
			<line fill="none" stroke="#595857" stroke-width="2" stroke-linecap="round" stroke-miterlimit="10" x1="-239.2" y1="442.1" x2="-237.7" y2="442.1"/>
		
			<line fill="none" stroke="#595857" stroke-width="2" stroke-linecap="round" stroke-miterlimit="10" stroke-dasharray="2.858,4.7634" x1="-232.9" y1="442.1" x2="-204.8" y2="442.1"/>
		
			<line fill="none" stroke="#595857" stroke-width="2" stroke-linecap="round" stroke-miterlimit="10" x1="-202.4" y1="442.1" x2="-200.9" y2="442.1"/>
	</g>
	
		<line id="XMLID_229_" fill="none" stroke="#595857" stroke-width="2" stroke-linecap="round" stroke-miterlimit="10" x1="-232.6" y1="416" x2="-218.5" y2="416"/>
	
		<line id="XMLID_228_" fill="none" stroke="#595857" stroke-width="2" stroke-linecap="round" stroke-miterlimit="10" x1="-212.6" y1="423" x2="-206.5" y2="423"/>
	
		<line id="XMLID_227_" fill="none" stroke="#595857" stroke-width="2" stroke-linecap="round" stroke-miterlimit="10" x1="-212.6" y1="428" x2="-206.5" y2="428"/>
	<g id="XMLID_234_">
		
			<path id="XMLID_242_" display="none" fill="none" stroke="#595857" stroke-width="2" stroke-linecap="round" stroke-miterlimit="10" d="
			M-244.2,452.8h15.8h16.6c6,0,10.8-4.9,10.8-10.8v-20.7"/>
		<path id="XMLID_220_" fill="none" stroke="#595857" stroke-width="2" stroke-linecap="round" stroke-miterlimit="10" d="
			M-250.2,399.8c0-3,2.5-5.5,5.5-5.5s5.5,2.5,5.5,5.5"/>
		
			<line id="XMLID_296_" fill="none" stroke="#595857" stroke-width="2" stroke-linecap="round" stroke-miterlimit="10" x1="-229.3" y1="394.3" x2="-215.3" y2="394.3"/>
		
			<line id="XMLID_200_" fill="none" stroke="#595857" stroke-width="2" stroke-linecap="round" stroke-miterlimit="10" x1="-244.7" y1="394.3" x2="-235.5" y2="394.3"/>
		
			<line id="XMLID_217_" fill="none" stroke="#595857" stroke-width="2" stroke-linecap="round" stroke-miterlimit="10" x1="-250.2" y1="399.8" x2="-239.2" y2="399.8"/>
		
			<path id="XMLID_240_" display="none" fill="none" stroke="#595857" stroke-width="2" stroke-linecap="round" stroke-miterlimit="10" d="
			M-250.2,447.3c0,3,2.5,5.5,5.5,5.5s5.5-2.5,5.5-5.5"/>
		
			<line id="XMLID_239_" display="none" fill="none" stroke="#595857" stroke-width="2" stroke-linecap="round" stroke-miterlimit="10" x1="-250.2" y1="447.3" x2="-239.2" y2="447.3"/>
		
			<line id="XMLID_243_" fill="none" stroke="#595857" stroke-width="2" stroke-linecap="round" stroke-miterlimit="10" x1="-239.2" y1="399.5" x2="-239.2" y2="454.1"/>
		
			<line id="XMLID_241_" fill="none" stroke="#595857" stroke-width="2" stroke-linecap="round" stroke-miterlimit="10" x1="-200.9" y1="421.9" x2="-200.9" y2="454.1"/>
		
			<polyline id="XMLID_245_" fill="none" stroke="#595857" stroke-width="2" stroke-linecap="round" stroke-linejoin="round" stroke-miterlimit="10" points="
			-200.9,454 -205.6,448.5 -205.8,448.4 -210.5,454 -215.1,448.5 -215.4,448.4 -220.1,454 -224.7,448.5 -224.9,448.4 -229.6,454 
			-234.2,448.5 -234.5,448.4 -239.2,454 		"/>
	</g>
</g>
<g id="XMLID_212_">
	<path id="XMLID_216_" fill="none" stroke="#1A96D4" stroke-width="2" stroke-linecap="round" stroke-miterlimit="10" d="
		M-194.9,404c0,5.8-4.7,10.5-10.5,10.5c-1.8,0-3.6-0.5-5.1-1.3c-0.5-0.3-3.4,1.7-3.9,1.3c-1-0.8,0.5-4.1-0.1-5.2
		c-0.9-1.5-1.4-3.3-1.4-5.3c0-5.8,4.7-10.5,10.5-10.5C-199.6,393.5-194.9,398.2-194.9,404z"/>
	<g id="XMLID_214_">
		<path fill="none" stroke="#1A96D4" stroke-width="2" stroke-linecap="round" stroke-miterlimit="10" d="M-191.6,402.4
			c0.1,0.5,0.1,1,0.1,1.5"/>
		
			<path fill="none" stroke="#1A96D4" stroke-width="2" stroke-linecap="round" stroke-miterlimit="10" stroke-dasharray="2.5826,4.3044" d="
			M-192.1,408.1c-1.1,3.7-3.9,6.8-7.5,8.4"/>
		<path fill="none" stroke="#1A96D4" stroke-width="2" stroke-linecap="round" stroke-miterlimit="10" d="M-201.6,417.2
			c-0.5,0.1-1,0.2-1.5,0.3"/>
	</g>
	<path id="XMLID_213_" fill="none" stroke="#1A96D4" stroke-width="2" stroke-linecap="round" stroke-miterlimit="10" d="
		M-217.7,397.9c2.4-5.4,8.2-8.8,14.4-7.9c4.6,0.7,8.3,3.7,10.1,7.5"/>
	<g id="XMLID_236_">
		<path id="XMLID_1722_" fill="#1A96D4" d="M-203.8,409.9h-1.7c-0.2,0-0.4-0.1-0.6-0.2c-0.1-0.1-0.2-0.3-0.2-0.5v-5.9
			c0-0.7-0.4-1.1-1.2-1.1v-0.4h3c0.2,0,0.4,0.1,0.5,0.2s0.2,0.4,0.2,0.8V409.9z M-206,400.2c-0.2-0.3-0.4-0.6-0.4-0.9
			s0.1-0.6,0.4-0.9c0.2-0.2,0.5-0.4,0.9-0.4c0.3,0,0.6,0.1,0.9,0.4c0.2,0.2,0.4,0.5,0.4,0.9s-0.1,0.6-0.4,0.9
			c-0.2,0.2-0.5,0.4-0.9,0.4C-205.4,400.5-205.7,400.4-206,400.2z"/>
	</g>
</g>
<path id="XMLID_246_" fill="none" stroke="#595857" stroke-width="2" stroke-linecap="round" stroke-miterlimit="10" d="
	M-215.2,454.6"/>
</svg>
