<?xml version="1.0" encoding="utf-8"?>
<!-- Generator: Adobe Illustrator 19.0.0, SVG Export Plug-In . SVG Version: 6.00 Build 0)  -->
<svg version="1.2" baseProfile="tiny" xmlns="http://www.w3.org/2000/svg" xmlns:xlink="http://www.w3.org/1999/xlink" x="0px"
	 y="0px" width="77px" height="81px" viewBox="-259 380.9 77 81" xml:space="preserve">
<g id="Layer_1">
	<g id="나의상담내역">
		<path id="XMLID_99_" fill="none" stroke="#595857" stroke-width="2" stroke-linecap="round" stroke-miterlimit="10" d="
			M-202.5,449.5v1.9c0,0.8-0.6,1.4-1.4,1.4h-42.8c-0.8,0-1.4-0.6-1.4-1.4v-52.2c0-0.8,0.6-1.4,1.4-1.4h2.4"/>
		<path id="XMLID_56_" fill="none" stroke="#595857" stroke-width="2" stroke-linecap="round" stroke-miterlimit="10" d="
			M-198.5,413.5v33.9c0,0.8-0.6,1.4-1.4,1.4h-42.8c-0.8,0-1.4-0.6-1.4-1.4v-52.2c0-0.8,0.6-1.4,1.4-1.4h3.4"/>
		
			<line id="XMLID_55_" fill="none" stroke="#595857" stroke-width="2" stroke-linecap="round" stroke-miterlimit="10" x1="-232.6" y1="393.9" x2="-213.7" y2="393.9"/>
		
			<line id="XMLID_52_" fill="none" stroke="#595857" stroke-width="2" stroke-linecap="round" stroke-miterlimit="10" x1="-235.3" y1="425.6" x2="-224.1" y2="425.6"/>
		
			<line id="XMLID_50_" fill="none" stroke="#595857" stroke-width="2" stroke-linecap="round" stroke-miterlimit="10" x1="-235.3" y1="430.9" x2="-206.5" y2="430.9"/>
		
			<line id="XMLID_102_" fill="none" stroke="#595857" stroke-width="2" stroke-linecap="round" stroke-miterlimit="10" x1="-213.7" y1="436.2" x2="-206.5" y2="436.2"/>
		
			<line id="XMLID_100_" fill="none" stroke="#595857" stroke-width="2" stroke-linecap="round" stroke-miterlimit="10" x1="-235.3" y1="436.2" x2="-223.2" y2="436.2"/>
		
			<line id="XMLID_101_" fill="none" stroke="#595857" stroke-width="2" stroke-linecap="round" stroke-miterlimit="10" x1="-235.3" y1="441.6" x2="-206.5" y2="441.6"/>
		
			<rect id="XMLID_98_" x="-235.3" y="403.4" fill="none" stroke="#89BB41" stroke-width="2" stroke-linecap="round" stroke-miterlimit="10" width="15.1" height="15.1"/>
		<g id="XMLID_53_">
			
				<path id="XMLID_46_" fill="none" stroke="#1A96D4" stroke-width="2" stroke-linecap="round" stroke-linejoin="round" stroke-miterlimit="10" d="
				M-200.7,409.1h-10.7c-0.8,0-1.4-0.6-1.4-1.4v-16.3c0-0.8,0.6-1.4,1.4-1.4h19.7c0.8,0,1.4,0.6,1.4,1.4v16.3c0,0.8-0.6,1.4-1.4,1.4
				h-3.6"/>
			
				<line id="XMLID_49_" fill="none" stroke="#1A96D4" stroke-width="2" stroke-linecap="round" stroke-linejoin="round" stroke-miterlimit="10" x1="-200.7" y1="409.1" x2="-198" y2="413.2"/>
			
				<line id="XMLID_51_" fill="none" stroke="#1A96D4" stroke-width="2" stroke-linecap="round" stroke-linejoin="round" stroke-miterlimit="10" x1="-195.3" y1="409.1" x2="-198.1" y2="413.2"/>
			
				<line id="XMLID_45_" fill="none" stroke="#1A96D4" stroke-width="2" stroke-linecap="round" stroke-linejoin="round" stroke-miterlimit="10" x1="-205.3" y1="396.8" x2="-205.3" y2="401.6"/>
			
				<line id="XMLID_57_" fill="none" stroke="#1A96D4" stroke-width="2" stroke-linecap="round" stroke-linejoin="round" stroke-miterlimit="10" x1="-198.3" y1="396.8" x2="-198.3" y2="401.6"/>
			<g id="XMLID_59_">
				
					<path id="XMLID_61_" fill="none" stroke="#1A96D4" stroke-width="2" stroke-linecap="round" stroke-linejoin="round" stroke-miterlimit="10" d="
					M-212.8,396.9h-2.6c-0.8,0-1.4,0.6-1.4,1.4v12.3c0,0.8,0.6,1.4,1.4,1.4h2.6"/>
				
					<path id="XMLID_58_" fill="none" stroke="#1A96D4" stroke-width="2" stroke-linecap="round" stroke-linejoin="round" stroke-miterlimit="10" d="
					M-207.4,412.1h3.7c0.8,0,1.4-0.6,1.4-1.4v-1.6"/>
				
					<line id="XMLID_63_" fill="none" stroke="#1A96D4" stroke-width="2" stroke-linecap="round" stroke-linejoin="round" stroke-miterlimit="10" x1="-207.4" y1="412.1" x2="-210.2" y2="415.2"/>
				
					<line id="XMLID_62_" fill="none" stroke="#1A96D4" stroke-width="2" stroke-linecap="round" stroke-linejoin="round" stroke-miterlimit="10" x1="-212.9" y1="412.1" x2="-210.1" y2="415.2"/>
			</g>
		</g>
	</g>
</g>
<g id="Layer_2">
</g>
</svg>
