<?xml version="1.0" encoding="utf-8"?>
<!-- Generator: Adobe Illustrator 19.0.0, SVG Export Plug-In . SVG Version: 6.00 Build 0)  -->
<svg version="1.2" baseProfile="tiny" id="Layer_1" xmlns="http://www.w3.org/2000/svg" xmlns:xlink="http://www.w3.org/1999/xlink"
	 x="0px" y="0px" width="77px" height="81px" viewBox="-259 380.9 77 81" xml:space="preserve">
<g id="처리결과조회">
	<path id="XMLID_24_" fill="none" stroke="#585857" stroke-width="2" stroke-linecap="round" stroke-miterlimit="10" d="
		M-197.5,413.5v33.9c0,0.8-0.6,1.4-1.4,1.4h-42.9c-0.8,0-1.4-0.6-1.4-1.4v-52.1c0-0.8,0.6-1.4,1.4-1.4h3.4"/>
	<path id="XMLID_35_" fill="none" stroke="#585857" stroke-width="2" stroke-linecap="round" stroke-miterlimit="10" d="
		M-201.5,449.6v1.9c0,0.8-0.6,1.4-1.4,1.4h-42.9c-0.8,0-1.4-0.6-1.4-1.4v-52.2c0-0.8,0.6-1.4,1.4-1.4h2.4"/>
	
		<line id="XMLID_26_" fill="none" stroke="#585857" stroke-width="2" stroke-linecap="round" stroke-miterlimit="10" x1="-231.6" y1="393.9" x2="-212.8" y2="393.9"/>
	<polyline id="XMLID_27_" fill="none" stroke="#8ABB41" stroke-width="2" stroke-linecap="round" stroke-miterlimit="10" points="
		-226.2,404.6 -232.1,410.5 -234.7,407.9 	"/>
	
		<line id="XMLID_28_" fill="none" stroke="#585857" stroke-width="2" stroke-linecap="round" stroke-miterlimit="10" x1="-221.3" y1="407.6" x2="-215.6" y2="407.6"/>
	<polyline id="XMLID_31_" fill="none" stroke="#8ABB41" stroke-width="2" stroke-linecap="round" stroke-miterlimit="10" points="
		-226.2,414.6 -232.1,420.5 -234.7,417.9 	"/>
	
		<line id="XMLID_30_" fill="none" stroke="#585857" stroke-width="2" stroke-linecap="round" stroke-miterlimit="10" x1="-221.3" y1="417.6" x2="-205.5" y2="417.6"/>
	<polyline id="XMLID_91_" fill="none" stroke="#8ABB41" stroke-width="2" stroke-linecap="round" stroke-miterlimit="10" points="
		-226.2,424.6 -232.1,430.5 -234.7,427.9 	"/>
	
		<line id="XMLID_32_" fill="none" stroke="#585857" stroke-width="2" stroke-linecap="round" stroke-miterlimit="10" x1="-221.3" y1="427.6" x2="-205.5" y2="427.6"/>
	<polyline id="XMLID_93_" fill="none" stroke="#8ABB41" stroke-width="2" stroke-linecap="round" stroke-miterlimit="10" points="
		-226.2,434.6 -232.1,440.5 -234.7,437.9 	"/>
	
		<line id="XMLID_92_" fill="none" stroke="#585857" stroke-width="2" stroke-linecap="round" stroke-miterlimit="10" x1="-221.3" y1="437.6" x2="-205.5" y2="437.6"/>
	<g id="XMLID_96_">
		
			<circle id="XMLID_25_" fill="none" stroke="#1C97D5" stroke-width="2" stroke-linecap="round" stroke-miterlimit="10" cx="-203.2" cy="402.2" r="12.7"/>
		<path id="XMLID_29_" fill="none" stroke="#1C97D5" stroke-width="2" stroke-linecap="round" stroke-miterlimit="10" d="
			M-203.2,409.8c-4.2,0-7.6-3.4-7.6-7.6"/>
		
			<path id="XMLID_33_" fill="none" stroke="#1C97D5" stroke-width="2" stroke-linecap="round" stroke-linejoin="round" stroke-miterlimit="10" d="
			M-194.2,411.2l5.6,5.6L-194.2,411.2z"/>
		
			<circle id="XMLID_95_" fill="none" stroke="#1C97D5" stroke-width="2" stroke-linecap="round" stroke-miterlimit="10" cx="-210.6" cy="398.8" r="0.4"/>
	</g>
</g>
<g id="XMLID_64_">
</g>
<g id="XMLID_65_">
</g>
<g id="XMLID_66_">
</g>
<g id="XMLID_67_">
</g>
<g id="XMLID_68_">
</g>
<g id="XMLID_69_">
</g>
</svg>
