<?xml version="1.0" encoding="utf-8"?>
<!-- Generator: Adobe Illustrator 19.0.0, SVG Export Plug-In . SVG Version: 6.00 Build 0)  -->
<svg version="1.2" baseProfile="tiny" id="Layer_1" xmlns="http://www.w3.org/2000/svg" xmlns:xlink="http://www.w3.org/1999/xlink"
	 x="0px" y="0px" width="77px" height="81px" viewBox="-259 380.9 77 81" xml:space="preserve">
<line id="XMLID_143_" fill="none" stroke="#595857" stroke-width="2" stroke-linecap="round" stroke-miterlimit="10" x1="-243.5" y1="394.5" x2="-197.2" y2="394.5"/>
<path id="XMLID_162_" fill="none" stroke="#595857" stroke-width="2" stroke-linecap="round" stroke-miterlimit="10" d="M-237,389.8
	h44.3c0.8,0,1.4,0.6,1.4,1.4v6.7c0,0.8-0.6,1.4-1.4,1.4h-7.7"/>
<path id="XMLID_159_" fill="none" stroke="#595857" stroke-width="2" stroke-linecap="round" stroke-miterlimit="10" d="
	M-240.4,399.3h-7.7c-0.8,0-1.4-0.6-1.4-1.4v-6.7c0-0.8,0.6-1.4,1.4-1.4h4.3"/>
<g id="XMLID_153_">
	
		<line id="XMLID_144_" fill="none" stroke="#595857" stroke-width="2" stroke-linecap="round" stroke-miterlimit="10" x1="-240.4" y1="394.5" x2="-240.4" y2="447.8"/>
	
		<line id="XMLID_191_" fill="none" stroke="#595857" stroke-width="2" stroke-linecap="round" stroke-miterlimit="10" x1="-200.4" y1="394.5" x2="-200.4" y2="426.8"/>
	
		<line id="XMLID_145_" fill="none" stroke="#595857" stroke-width="2" stroke-linecap="round" stroke-miterlimit="10" x1="-240.4" y1="447.8" x2="-235.4" y2="442.8"/>
	
		<line id="XMLID_146_" fill="none" stroke="#595857" stroke-width="2" stroke-linecap="round" stroke-miterlimit="10" x1="-235.4" y1="442.8" x2="-230.3" y2="447.9"/>
	
		<line id="XMLID_147_" fill="none" stroke="#595857" stroke-width="2" stroke-linecap="round" stroke-miterlimit="10" x1="-230.3" y1="447.9" x2="-225.3" y2="442.8"/>
</g>
<path id="XMLID_156_" fill="none" stroke="#595857" stroke-width="2" stroke-linecap="round" stroke-miterlimit="10" d="
	M-194.6,442.8"/>
<path id="XMLID_148_" fill="none" stroke="#595857" stroke-width="2" stroke-linecap="round" stroke-miterlimit="10" d="
	M-199.7,447.9"/>
<line id="XMLID_161_" fill="none" stroke="#595857" stroke-width="2" stroke-linecap="round" stroke-miterlimit="10" x1="-224.2" y1="419.5" x2="-208.4" y2="419.5"/>
<line id="XMLID_160_" fill="none" stroke="#595857" stroke-width="2" stroke-linecap="round" stroke-miterlimit="10" x1="-232.4" y1="419.5" x2="-227.8" y2="419.5"/>
<line id="XMLID_164_" fill="none" stroke="#595857" stroke-width="2" stroke-linecap="round" stroke-miterlimit="10" x1="-224.2" y1="424.5" x2="-208.4" y2="424.5"/>
<line id="XMLID_163_" fill="none" stroke="#595857" stroke-width="2" stroke-linecap="round" stroke-miterlimit="10" x1="-232.4" y1="424.5" x2="-227.8" y2="424.5"/>
<line id="XMLID_166_" fill="none" stroke="#595857" stroke-width="2" stroke-linecap="round" stroke-miterlimit="10" x1="-224.2" y1="429.5" x2="-209.4" y2="429.5"/>
<line id="XMLID_165_" fill="none" stroke="#595857" stroke-width="2" stroke-linecap="round" stroke-miterlimit="10" x1="-232.4" y1="429.5" x2="-227.8" y2="429.5"/>
<g id="XMLID_151_">
	<path id="XMLID_150_" fill="none" stroke="#89BB41" stroke-width="2" stroke-linecap="round" stroke-miterlimit="10" d="
		M-224.4,399.2c1.2-0.7,2.6-1.1,4.1-1.1c4.5,0,8.2,3.7,8.2,8.2s-3.7,8.2-8.2,8.2s-8.2-3.7-8.2-8.2c0-1.6,0.4-3,1.2-4.2"/>
	<g id="XMLID_1190_">
		<path id="XMLID_1603_" fill="#89BB41" d="M-225.3,406h1.2l-0.8-3.3h1.4l0.7,3.3h1.2l0.9-3.3h1.2l0.8,3.3h1.1l0.7-3.3h1.4l-0.8,3.3
			h1.1v0.8h-1.3l-0.9,3.9h-1.2l-0.9-3.9h-1.1l-1,3.9h-1.2l-1-3.9h-1.4L-225.3,406L-225.3,406z M-222.4,408.5l0.5-1.7h-0.8
			L-222.4,408.5z M-220.6,406h0.7l-0.3-1.5L-220.6,406z M-218.3,408.6l0.3-1.8h-0.7L-218.3,408.6z"/>
	</g>
</g>
<g id="XMLID_175_">
	
		<ellipse id="XMLID_157_" fill="none" stroke="#1A96D4" stroke-width="2" stroke-linecap="round" stroke-miterlimit="10" cx="-200.3" cy="429.6" rx="9.6" ry="2.8"/>
	<path id="XMLID_176_" fill="none" stroke="#1A96D4" stroke-width="2" stroke-linecap="round" stroke-miterlimit="10" d="
		M-190.7,433.6c0,1.6-4.3,2.8-9.6,2.8s-9.6-1.3-9.6-2.8"/>
	<path id="XMLID_179_" fill="none" stroke="#1A96D4" stroke-width="2" stroke-linecap="round" stroke-miterlimit="10" d="
		M-190.7,437.6c0,1.6-4.3,2.8-9.6,2.8c-1.7,0-3.3-0.1-4.7-0.4"/>
	<path id="XMLID_167_" fill="none" stroke="#1A96D4" stroke-width="2" stroke-linecap="round" stroke-miterlimit="10" d="
		M-190.7,441.6c0,1.6-4.3,2.8-9.6,2.8c-1.7,0-3.3-0.1-4.7-0.4"/>
	<path id="XMLID_178_" fill="none" stroke="#1A96D4" stroke-width="2" stroke-linecap="round" stroke-miterlimit="10" d="
		M-190.7,445.6c0,1.6-4.3,2.8-9.6,2.8c-0.5,0-0.9,0-1.4,0"/>
	<path id="XMLID_177_" fill="none" stroke="#1A96D4" stroke-width="2" stroke-linecap="round" stroke-miterlimit="10" d="
		M-190.7,449.6c0,1.6-4.3,2.8-9.6,2.8c-1.1,0-2.2-0.1-3.2-0.2"/>
	<path id="XMLID_190_" fill="none" stroke="#1A96D4" stroke-width="2" stroke-linecap="round" stroke-miterlimit="10" d="
		M-209.8,450.2"/>
	
		<line id="XMLID_184_" fill="none" stroke="#1A96D4" stroke-width="2" stroke-linecap="round" stroke-miterlimit="10" x1="-209.8" y1="429.6" x2="-209.8" y2="438.2"/>
	
		<line id="XMLID_174_" fill="none" stroke="#1A96D4" stroke-width="2" stroke-linecap="round" stroke-miterlimit="10" x1="-190.7" y1="429.6" x2="-190.7" y2="450.2"/>
	<g id="XMLID_183_">
		
			<ellipse id="XMLID_180_" fill="none" stroke="#1A96D4" stroke-width="2" stroke-linecap="round" stroke-miterlimit="10" cx="-214.6" cy="440.6" rx="9.6" ry="2.8"/>
		<path id="XMLID_181_" fill="none" stroke="#1A96D4" stroke-width="2" stroke-linecap="round" stroke-miterlimit="10" d="
			M-205,444.6c0,1.6-4.3,2.8-9.6,2.8s-9.6-1.3-9.6-2.8"/>
		
			<line id="XMLID_173_" fill="none" stroke="#1A96D4" stroke-width="2" stroke-linecap="round" stroke-miterlimit="10" x1="-205" y1="440.6" x2="-205" y2="444.6"/>
		
			<line id="XMLID_182_" fill="none" stroke="#1A96D4" stroke-width="2" stroke-linecap="round" stroke-miterlimit="10" x1="-224.2" y1="440.6" x2="-224.2" y2="444.6"/>
	</g>
	<g id="XMLID_185_">
		<path id="XMLID_189_" fill="none" stroke="#1A96D4" stroke-width="2" stroke-linecap="round" stroke-miterlimit="10" d="
			M-205,444.5c2.1,0.5,3.4,1.3,3.4,2.2c0,1.6-4.3,2.8-9.6,2.8c-4.6,0-8.5-1-9.4-2.3"/>
		<path id="XMLID_188_" fill="none" stroke="#1A96D4" stroke-width="2" stroke-linecap="round" stroke-miterlimit="10" d="
			M-201.6,450.6c0,1.6-4.3,2.8-9.6,2.8s-9.6-1.3-9.6-2.8"/>
		
			<line id="XMLID_187_" fill="none" stroke="#1A96D4" stroke-width="2" stroke-linecap="round" stroke-miterlimit="10" x1="-201.6" y1="446.6" x2="-201.6" y2="450.6"/>
		
			<line id="XMLID_186_" fill="none" stroke="#1A96D4" stroke-width="2" stroke-linecap="round" stroke-miterlimit="10" x1="-220.8" y1="447.6" x2="-220.8" y2="450.6"/>
	</g>
</g>
</svg>
