<?xml version="1.0" encoding="utf-8"?>
<!-- Generator: Adobe Illustrator 19.0.0, SVG Export Plug-In . SVG Version: 6.00 Build 0)  -->
<svg version="1.2" baseProfile="tiny" id="Layer_1" xmlns="http://www.w3.org/2000/svg" xmlns:xlink="http://www.w3.org/1999/xlink"
	 x="0px" y="0px" width="77px" height="81px" viewBox="-259 380.9 77 81" xml:space="preserve">
<polyline id="XMLID_414_" fill="none" stroke="#595857" stroke-width="2" stroke-linecap="round" stroke-linejoin="round" stroke-miterlimit="10" points="
	-212.5,428.9 -220.7,420.7 -243.7,443.7 "/>
<path id="XMLID_286_" fill="none" stroke="#595857" stroke-width="2" stroke-linecap="round" stroke-miterlimit="10" d="M-210.2,397
	l-5.6-5.3c-3-2.8-7.6-2.8-10.6,0l-5.3,5"/>
<path id="XMLID_262_" fill="none" stroke="#595857" stroke-width="2" stroke-linecap="round" stroke-miterlimit="10" d="
	M-191.7,437.6v-19.7c0-2.1-0.9-4.2-2.4-5.7l-6.4-6.1"/>
<path id="XMLID_261_" fill="none" stroke="#595857" stroke-width="2" stroke-linecap="round" stroke-miterlimit="10" d="
	M-241.4,405.8l-7.2,6.8c-1.3,1.3-2.1,3-2.1,4.9v29.6c0,1.6,1.3,2.8,2.8,2.8h32.6"/>
<line id="XMLID_260_" fill="none" stroke="#595857" stroke-width="2" stroke-linecap="round" stroke-linejoin="round" stroke-miterlimit="10" x1="-246.2" y1="416" x2="-231.5" y2="430.6"/>
<line id="XMLID_293_" fill="none" stroke="#595857" stroke-width="2" stroke-linecap="round" stroke-linejoin="round" stroke-miterlimit="10" x1="-196.5" y1="416" x2="-205.8" y2="426.3"/>
<path id="XMLID_298_" fill="none" stroke="#595857" stroke-width="2" stroke-linecap="round" stroke-linejoin="round" stroke-miterlimit="10" d="
	M-237.2,397h-2.7c-0.8,0-1.4,0.6-1.4,1.4v22.1"/>
<path id="XMLID_257_" fill="none" stroke="#595857" stroke-width="2" stroke-linecap="round" stroke-linejoin="round" stroke-miterlimit="10" d="
	M-200.5,420.1v-21.8c0-0.8-0.6-1.4-1.4-1.4h-29.6"/>
<g id="XMLID_284_">
	<g id="XMLID_417_">
		<path fill="#1A96D4" d="M-202.8,427.8l0.3,3.1h-0.1c1,0.2,1.9,0.6,2.8,1.1l-0.1-0.1l2.4-2l3.1,3.1l-2,2.4l-0.1-0.1
			c0.5,0.8,0.9,1.8,1.1,2.8v-0.1l3.1,0.3v4.3l-3.1,0.3v-0.1c-0.2,1-0.6,1.9-1.1,2.8l0.1-0.1l2,2.4l-3.1,3.1l-2.4-2l0.1-0.1
			c-0.8,0.5-1.8,0.9-2.8,1.1h0.1l-0.3,3.1h-4.3l-0.3-3.1h0.1c-1-0.2-1.9-0.6-2.8-1.1l0.1,0.1l-2.4,2l-3.1-3.1l2-2.4l0.1,0.1
			c-0.5-0.8-0.9-1.8-1.1-2.8v0.1l-3.1-0.3v-4.3l3.1-0.3v0.1c0.2-1,0.6-1.9,1.1-2.8l-0.1,0.1l-2-2.4l3.1-3.1l2.4,2l-0.1,0.1
			c0.8-0.5,1.8-0.9,2.8-1.1h-0.1l0.3-3.1H-202.8 M-202.8,425.8h-4.3c-1,0-1.9,0.8-2,1.8l-0.2,1.8c-0.2,0.1-0.3,0.1-0.5,0.2l-1.4-1.2
			c-0.4-0.3-0.8-0.5-1.3-0.5c-0.5,0-1,0.2-1.4,0.6l-3.1,3.1c-0.7,0.7-0.8,1.9-0.1,2.7l1.2,1.4c-0.1,0.2-0.1,0.3-0.2,0.5l-1.8,0.2
			c-1,0.1-1.8,1-1.8,2v4.3c0,1,0.8,1.9,1.8,2l1.8,0.2c0.1,0.2,0.1,0.3,0.2,0.5l-1.2,1.4c-0.7,0.8-0.6,2,0.1,2.7l3.1,3.1
			c0.4,0.4,0.9,0.6,1.4,0.6c0.5,0,0.9-0.2,1.3-0.5l1.4-1.2c0.2,0.1,0.3,0.1,0.5,0.2l0.2,1.8c0.1,1,1,1.8,2,1.8h4.3
			c1,0,1.9-0.8,2-1.8l0.2-1.8c0.2-0.1,0.3-0.1,0.5-0.2l1.4,1.2c0.4,0.3,0.8,0.5,1.3,0.5c0.5,0,1-0.2,1.4-0.6l3.1-3.1
			c0.7-0.7,0.8-1.9,0.1-2.7l-1.2-1.4c0.1-0.2,0.1-0.3,0.2-0.5l1.8-0.2c1-0.1,1.8-1,1.8-2v-4.3c0-1-0.8-1.9-1.8-2l-1.8-0.2
			c-0.1-0.2-0.1-0.3-0.2-0.5l1.2-1.4c0.7-0.8,0.6-2-0.1-2.7l-3.1-3.1c-0.4-0.4-0.9-0.6-1.4-0.6c-0.5,0-0.9,0.2-1.3,0.5l-1.4,1.2
			c-0.2-0.1-0.3-0.1-0.5-0.2l-0.2-1.8C-200.9,426.6-201.8,425.8-202.8,425.8L-202.8,425.8z"/>
	</g>
	
		<circle id="XMLID_416_" fill="none" stroke="#1A96D4" stroke-width="2" stroke-linecap="round" stroke-linejoin="round" stroke-miterlimit="10" cx="-205" cy="440.5" r="2.8"/>
	
		<circle id="XMLID_413_" fill="none" stroke="#1A96D4" stroke-width="2" stroke-linecap="round" stroke-linejoin="round" stroke-dasharray="2.8093,2.8093" cx="-205" cy="440.5" r="6.3"/>
</g>
<g id="XMLID_285_">
	
		<path id="XMLID_287_" fill="none" stroke="#89BB41" stroke-width="2" stroke-linecap="round" stroke-linejoin="round" stroke-miterlimit="10" d="
		M-217,406.4c0-2.6-2.1-4.8-4.8-4.8s-4.8,2.1-4.8,4.8c0,0,0,1.9-0.8,4.3l-1.5,3.2h14.1l-1.5-3.2l0,0C-217,408.3-217,406.4-217,406.4
		z"/>
	
		<path id="XMLID_288_" fill="none" stroke="#89BB41" stroke-width="2" stroke-linecap="round" stroke-linejoin="round" stroke-miterlimit="10" d="
		M-219.2,414.1c0,1.4-1.2,2.6-2.6,2.6s-2.6-1.2-2.6-2.6"/>
	
		<path id="XMLID_291_" fill="none" stroke="#89BB41" stroke-width="2" stroke-linecap="round" stroke-linejoin="round" stroke-miterlimit="10" d="
		M-214.7,402c1.9,0.7,2.9,2.9,2.1,4.8"/>
	
		<path id="XMLID_289_" fill="none" stroke="#89BB41" stroke-width="2" stroke-linecap="round" stroke-linejoin="round" stroke-miterlimit="10" d="
		M-229,402c-1.9,0.7-2.9,2.9-2.1,4.8"/>
</g>
</svg>
