<?xml version="1.0" encoding="utf-8"?>
<!-- Generator: Adobe Illustrator 19.0.0, SVG Export Plug-In . SVG Version: 6.00 Build 0)  -->
<svg version="1.2" baseProfile="tiny" id="Layer_1" xmlns="http://www.w3.org/2000/svg" xmlns:xlink="http://www.w3.org/1999/xlink"
	 x="0px" y="0px" width="77px" height="81px" viewBox="-259 380.9 77 81" xml:space="preserve">
<line id="XMLID_1453_" fill="none" stroke="#595857" stroke-width="2" stroke-linecap="round" stroke-linejoin="round" stroke-miterlimit="10" x1="-212.1" y1="415.4" x2="-212.1" y2="404.3"/>
<path id="XMLID_1519_" fill="none" stroke="#595857" stroke-width="2" stroke-linecap="round" stroke-linejoin="round" stroke-miterlimit="10" d="
	M-239.7,398.5h-5.3c-3.1,0-5.7,3-5.7,6.7v46.2h31.7"/>
<line id="XMLID_1399_" fill="none" stroke="#595857" stroke-width="2" stroke-linecap="round" stroke-linejoin="round" stroke-miterlimit="10" x1="-208.1" y1="398.5" x2="-231.5" y2="398.5"/>
<path id="XMLID_1437_" fill="none" stroke="#595857" stroke-width="2" stroke-linecap="round" stroke-linejoin="round" stroke-miterlimit="10" d="
	M-212.1,403.5c0-2.8,2.2-5,5-5s5,2.2,5,5"/>
<path id="XMLID_1401_" fill="none" stroke="#595857" stroke-width="2" stroke-linecap="round" stroke-linejoin="round" stroke-miterlimit="10" d="
	M-192.1,403.5c0,2.8-2.2,5-5,5s-5-2.2-5-5"/>
<line id="XMLID_1434_" fill="none" stroke="#595857" stroke-width="2" stroke-linecap="round" stroke-linejoin="round" stroke-miterlimit="10" x1="-192.1" y1="403.1" x2="-192.1" y2="390.7"/>
<line id="XMLID_1522_" fill="none" stroke="#595857" stroke-width="2" stroke-linecap="round" stroke-linejoin="round" stroke-miterlimit="10" x1="-205.4" y1="390.7" x2="-245.5" y2="390.7"/>
<line id="XMLID_1448_" fill="none" stroke="#595857" stroke-width="2" stroke-linecap="round" stroke-linejoin="round" stroke-miterlimit="10" x1="-192.1" y1="390.7" x2="-197.1" y2="390.7"/>
<line id="XMLID_1440_" fill="none" stroke="#595857" stroke-width="2" stroke-linecap="round" stroke-linejoin="round" stroke-miterlimit="10" x1="-245.5" y1="390.7" x2="-245.5" y2="398"/>
<line id="XMLID_1445_" fill="none" stroke="#595857" stroke-width="2" stroke-linecap="round" stroke-linejoin="round" stroke-miterlimit="10" x1="-244.2" y1="437.9" x2="-239.7" y2="437.9"/>
<line id="XMLID_1446_" fill="none" stroke="#595857" stroke-width="2" stroke-linecap="round" stroke-linejoin="round" stroke-miterlimit="10" x1="-235.7" y1="437.9" x2="-223.5" y2="437.9"/>
<line id="XMLID_1450_" fill="none" stroke="#595857" stroke-width="2" stroke-linecap="round" stroke-linejoin="round" stroke-miterlimit="10" x1="-244.2" y1="441.9" x2="-239.7" y2="441.9"/>
<line id="XMLID_1449_" fill="none" stroke="#595857" stroke-width="2" stroke-linecap="round" stroke-linejoin="round" stroke-miterlimit="10" x1="-235.7" y1="441.9" x2="-224.5" y2="441.9"/>
<line id="XMLID_1452_" fill="none" stroke="#595857" stroke-width="2" stroke-linecap="round" stroke-linejoin="round" stroke-miterlimit="10" x1="-244.2" y1="445.9" x2="-239.7" y2="445.9"/>
<line id="XMLID_1451_" fill="none" stroke="#595857" stroke-width="2" stroke-linecap="round" stroke-linejoin="round" stroke-miterlimit="10" x1="-235.7" y1="445.9" x2="-223.5" y2="445.9"/>
<line id="XMLID_1441_" fill="none" stroke="#595857" stroke-width="2" stroke-linecap="round" stroke-linejoin="round" stroke-miterlimit="10" x1="-197.1" y1="408.5" x2="-211.6" y2="408.5"/>
<g id="XMLID_1442_">
	
		<path id="XMLID_1358_" fill="none" stroke="#595857" stroke-width="2" stroke-linecap="round" stroke-linejoin="round" stroke-miterlimit="10" d="
		M-220.3,429.4c-2.5,2.1-5.8,3.4-9.3,3.4c-8.1,0-14.6-6.5-14.6-14.6s6.5-14.6,14.6-14.6c7.3,0,13.4,5.4,14.4,12.4"/>
	<path id="XMLID_1447_" fill="#595857" d="M-225.7,422.5l-0.2,0.1c-1.6,0.6-3.4-0.2-4-1.8l-1.6-4.2c-0.4-1.2,0.2-2.5,1.3-3l0.9-0.3
		c0.5-0.2,0.7-0.7,0.5-1.2l-1-2.8c-0.2-0.5-0.7-0.7-1.2-0.5h0c-3.8,1.4-5.8,5.8-4.4,9.6l1.6,4.3c1.4,3.8,5.6,5.7,9.4,4.3l0.1-0.1
		c0.5-0.2,0.7-0.7,0.5-1.2l-1-2.8C-224.7,422.6-225.3,422.4-225.7,422.5z"/>
</g>
<g id="XMLID_1343_">
	<g id="XMLID_1380_">
		<path id="XMLID_1733_" fill="none" stroke="#89BB41" stroke-width="2" stroke-linecap="round" stroke-miterlimit="10" d="
			M-210.2,434.9h-6.4c-0.6,0-1.1-0.5-1.1-1.1v-1.2"/>
		<path id="XMLID_1497_" fill="none" stroke="#89BB41" stroke-width="2" stroke-linecap="round" stroke-miterlimit="10" d="
			M-193,418.3h1.3c0.6,0,1.1,0.5,1.1,1.1v9.1v5.4"/>
		<path id="XMLID_1455_" fill="none" stroke="#89BB41" stroke-width="2" stroke-linecap="round" stroke-miterlimit="10" d="
			M-210.2,432.6h-8.6c-0.8,0-1.4-0.6-1.4-1.4v-13.8c0-0.8,0.6-1.4,1.4-1.4h24.3c0.8,0,1.4,0.6,1.4,1.4v9.1"/>
		
			<line id="XMLID_1454_" fill="none" stroke="#89BB41" stroke-width="2" stroke-linecap="round" stroke-miterlimit="10" x1="-220.2" y1="419.4" x2="-193" y2="419.4"/>
		
			<line id="XMLID_1444_" fill="none" stroke="#89BB41" stroke-width="2" stroke-linecap="round" stroke-miterlimit="10" x1="-220.2" y1="423.2" x2="-193" y2="423.2"/>
		<path id="XMLID_1435_" fill="none" stroke="#89BB41" stroke-width="2" stroke-linecap="round" stroke-miterlimit="10" d="
			M-213.4,429.8h-2.8c-0.7,0-1.3-0.6-1.3-1.3l0,0c0-0.7,0.6-1.3,1.3-1.3h2.8c0.7,0,1.3,0.6,1.3,1.3l0,0
			C-212.1,429.2-212.7,429.8-213.4,429.8z"/>
	</g>
	<g id="XMLID_1344_">
		
			<ellipse id="XMLID_1379_" fill="none" stroke="#1A96D4" stroke-width="2" stroke-linecap="round" stroke-miterlimit="10" cx="-200.7" cy="428.4" rx="9.6" ry="2.8"/>
		<path id="XMLID_1378_" fill="none" stroke="#1A96D4" stroke-width="2" stroke-linecap="round" stroke-miterlimit="10" d="
			M-191.1,432.4c0,1.6-4.3,2.8-9.6,2.8s-9.6-1.3-9.6-2.8"/>
		<path id="XMLID_1377_" fill="none" stroke="#1A96D4" stroke-width="2" stroke-linecap="round" stroke-miterlimit="10" d="
			M-191.1,436.4c0,1.6-4.3,2.8-9.6,2.8c-1.7,0-3.3-0.1-4.7-0.4"/>
		<path id="XMLID_1376_" fill="none" stroke="#1A96D4" stroke-width="2" stroke-linecap="round" stroke-miterlimit="10" d="
			M-191.1,440.4c0,1.6-4.3,2.8-9.6,2.8c-1.7,0-3.3-0.1-4.7-0.4"/>
		<path id="XMLID_1375_" fill="none" stroke="#1A96D4" stroke-width="2" stroke-linecap="round" stroke-miterlimit="10" d="
			M-191.1,444.4c0,1.6-4.3,2.8-9.6,2.8c-0.5,0-0.9,0-1.4,0"/>
		<path id="XMLID_1374_" fill="none" stroke="#1A96D4" stroke-width="2" stroke-linecap="round" stroke-miterlimit="10" d="
			M-191.1,448.4c0,1.6-4.3,2.8-9.6,2.8c-1.1,0-2.2-0.1-3.2-0.2"/>
		<path id="XMLID_1373_" fill="none" stroke="#1A96D4" stroke-width="2" stroke-linecap="round" stroke-miterlimit="10" d="
			M-210.2,449"/>
		
			<line id="XMLID_1372_" fill="none" stroke="#1A96D4" stroke-width="2" stroke-linecap="round" stroke-miterlimit="10" x1="-210.2" y1="428.4" x2="-210.2" y2="437"/>
		
			<line id="XMLID_1371_" fill="none" stroke="#1A96D4" stroke-width="2" stroke-linecap="round" stroke-miterlimit="10" x1="-191.1" y1="428.4" x2="-191.1" y2="449"/>
		<g id="XMLID_1368_">
			<path id="XMLID_1370_" fill="none" stroke="#1A96D4" stroke-width="2" stroke-linecap="round" stroke-miterlimit="10" d="
				M-221.2,446.4v3c0,1.6,4.3,2.8,9.6,2.8s9.6-1.3,9.6-2.8v-4"/>
			<path id="XMLID_1369_" fill="none" stroke="#1A96D4" stroke-width="2" stroke-linecap="round" stroke-miterlimit="10" d="
				M-205.4,443.3c2.1,0.5,3.4,1.3,3.4,2.2c0,1.6-4.3,2.8-9.6,2.8c-4.6,0-8.5-1-9.4-2.3"/>
		</g>
		<g id="XMLID_1349_">
			
				<ellipse id="XMLID_1367_" fill="none" stroke="#1A96D4" stroke-width="2" stroke-linecap="round" stroke-miterlimit="10" cx="-215" cy="439.4" rx="9.6" ry="2.8"/>
			<path id="XMLID_1366_" fill="none" stroke="#1A96D4" stroke-width="2" stroke-linecap="round" stroke-miterlimit="10" d="
				M-205.4,443.4c0,1.6-4.3,2.8-9.6,2.8s-9.6-1.3-9.6-2.8"/>
			
				<line id="XMLID_1353_" fill="none" stroke="#1A96D4" stroke-width="2" stroke-linecap="round" stroke-miterlimit="10" x1="-205.4" y1="439.4" x2="-205.4" y2="443.4"/>
			
				<line id="XMLID_1352_" fill="none" stroke="#1A96D4" stroke-width="2" stroke-linecap="round" stroke-miterlimit="10" x1="-224.6" y1="439.4" x2="-224.6" y2="443.4"/>
		</g>
	</g>
</g>
</svg>
