<?xml version="1.0" encoding="utf-8"?>
<!-- Generator: Adobe Illustrator 19.0.0, SVG Export Plug-In . SVG Version: 6.00 Build 0)  -->
<svg version="1.2" baseProfile="tiny" id="Layer_1" xmlns="http://www.w3.org/2000/svg" xmlns:xlink="http://www.w3.org/1999/xlink"
	 x="0px" y="0px" width="77px" height="81px" viewBox="-259 380.9 77 81" xml:space="preserve">
<path id="XMLID_1665_" display="none" fill="#FFFFFF" stroke="#89BB41" stroke-width="2" stroke-linecap="round" stroke-miterlimit="10" d="
	M-212.5,409.9l-0.9,7.7c-0.1,1.2,1.1,2,2.1,1.4l0.4-0.2c0.7-0.4,1.5-0.2,1.9,0.5l1.9,3.4c0.4,0.7,1.3,0.9,1.9,0.5l2.3-1.4
	c0.7-0.4,0.9-1.3,0.5-1.9l-1.9-3.4c-0.4-0.7-0.2-1.5,0.5-1.9l0.4-0.2c1-0.6,0.9-2.1-0.2-2.5l-7.2-3
	C-211.4,408.4-212.4,409-212.5,409.9z"/>
<g id="XMLID_1666_">
	<g id="XMLID_1639_">
		<path id="XMLID_1745_" fill="#89BB41" d="M-236.3,402.9v1.2h-2.1v6.7h-1.3v-6.7h-2.2v-1.2H-236.3z"/>
		<path id="XMLID_1747_" fill="#89BB41" d="M-229.9,410.9h-1.4l-0.7-2.2h-2.5l-0.7,2.2h-1.3l2.7-7.9h1.2L-229.9,410.9z
			 M-234.1,407.5h1.7l-0.5-1.6c-0.1-0.3-0.2-0.5-0.2-0.7c-0.1-0.2-0.1-0.4-0.2-0.6c0,0.1-0.1,0.2-0.1,0.3c0,0.1,0,0.2-0.1,0.3
			c0,0.1-0.1,0.2-0.1,0.3c0,0.1-0.1,0.2-0.1,0.4L-234.1,407.5z"/>
		<path id="XMLID_1750_" fill="#89BB41" d="M-225.5,406.8l2.3,4.1h-1.5l-1.7-3.2l-1.6,3.2h-1.5l2.3-4.1l-2.1-3.8h1.6l1.5,2.9
			l1.5-2.9h1.5L-225.5,406.8z"/>
	</g>
	<g id="XMLID_1695_">
		
			<line id="XMLID_6_" fill="none" stroke="#595857" stroke-width="2" stroke-linecap="round" stroke-miterlimit="10" x1="-504.8" y1="-25.9" x2="-503.3" y2="-25.9"/>
		
			<line id="XMLID_5_" fill="none" stroke="#595857" stroke-width="2" stroke-linecap="round" stroke-miterlimit="10" stroke-dasharray="3.0754,3.0754" x1="-500.2" y1="-25.9" x2="-483.3" y2="-25.9"/>
		
			<line id="XMLID_4_" fill="none" stroke="#595857" stroke-width="2" stroke-linecap="round" stroke-miterlimit="10" x1="-481.8" y1="-25.9" x2="-480.3" y2="-25.9"/>
	</g>
	<g id="XMLID_1667_">
		
			<path id="XMLID_1677_" display="none" fill="none" stroke="#595857" stroke-width="2" stroke-linecap="round" stroke-miterlimit="10" d="
			M-248,444.2h10.1h10.6c3.8,0,7-4.1,7-9.1v-17.5"/>
		<path id="XMLID_1676_" fill="none" stroke="#595857" stroke-width="2" stroke-linecap="round" stroke-miterlimit="10" d="
			M-251.8,399.5c0-2.6,1.6-4.6,3.5-4.6s3.5,2.1,3.5,4.6"/>
		
			<line id="XMLID_1675_" fill="none" stroke="#595857" stroke-width="2" stroke-linecap="round" stroke-miterlimit="10" x1="-238.5" y1="394.9" x2="-220.3" y2="394.9"/>
		
			<line id="XMLID_1674_" fill="none" stroke="#595857" stroke-width="2" stroke-linecap="round" stroke-miterlimit="10" x1="-248.3" y1="394.9" x2="-242.4" y2="394.9"/>
		
			<line id="XMLID_1673_" fill="none" stroke="#595857" stroke-width="2" stroke-linecap="round" stroke-miterlimit="10" x1="-251.8" y1="399.5" x2="-244.8" y2="399.5"/>
		
			<path id="XMLID_1672_" display="none" fill="none" stroke="#595857" stroke-width="2" stroke-linecap="round" stroke-miterlimit="10" d="
			M-251.8,439.6c0,2.6,1.6,4.6,3.5,4.6s3.5-2.1,3.5-4.6"/>
		
			<line id="XMLID_1671_" display="none" fill="none" stroke="#595857" stroke-width="2" stroke-linecap="round" stroke-miterlimit="10" x1="-251.8" y1="439.6" x2="-244.8" y2="439.6"/>
		
			<line id="XMLID_1670_" fill="none" stroke="#595857" stroke-width="2" stroke-linecap="round" stroke-miterlimit="10" x1="-244.8" y1="399.3" x2="-244.8" y2="445.3"/>
		
			<line id="XMLID_1669_" fill="none" stroke="#595857" stroke-width="2" stroke-linecap="round" stroke-miterlimit="10" x1="-220.3" y1="395.8" x2="-220.3" y2="445.3"/>
		
			<polyline id="XMLID_1668_" fill="none" stroke="#595857" stroke-width="2" stroke-linecap="round" stroke-linejoin="round" stroke-miterlimit="10" points="
			-220.3,445.2 -223.2,440.6 -223.4,440.5 -226.4,445.2 -229.4,440.6 -229.5,440.5 -232.5,445.2 -235.5,440.6 -235.6,440.5 
			-238.7,445.2 -241.6,440.6 -241.8,440.5 -244.8,445.2 		"/>
	</g>
</g>
<g id="XMLID_1697_">
	<g id="XMLID_1584_">
		
			<line id="XMLID_3_" fill="none" stroke="#595857" stroke-width="2" stroke-linecap="round" stroke-miterlimit="10" x1="-477.3" y1="-25.9" x2="-475.8" y2="-25.9"/>
		
			<line id="XMLID_2_" fill="none" stroke="#595857" stroke-width="2" stroke-linecap="round" stroke-miterlimit="10" x1="-473.3" y1="-25.9" x2="-471.8" y2="-25.9"/>
	</g>
	
		<line id="XMLID_1693_" fill="none" stroke="#595857" stroke-width="2" stroke-linecap="round" stroke-miterlimit="10" x1="-212.7" y1="416.5" x2="-200.6" y2="416.5"/>
	
		<line id="XMLID_1691_" fill="none" stroke="#595857" stroke-width="2" stroke-linecap="round" stroke-miterlimit="10" x1="-212.7" y1="424.8" x2="-201.6" y2="424.8"/>
	
		<line id="XMLID_1690_" fill="none" stroke="#595857" stroke-width="2" stroke-linecap="round" stroke-miterlimit="10" x1="-212.7" y1="428.9" x2="-206.6" y2="428.9"/>
	
		<line id="XMLID_1689_" fill="none" stroke="#595857" stroke-width="2" stroke-linecap="round" stroke-miterlimit="10" x1="-212.7" y1="420.6" x2="-204.6" y2="420.6"/>
	<g id="XMLID_1698_">
		<path id="XMLID_1710_" fill="none" stroke="#595857" stroke-width="2" stroke-linecap="round" stroke-miterlimit="10" d="
			M-220.8,394.9c1.9,0,3.5,2.1,3.5,4.6"/>
		
			<line id="XMLID_1702_" fill="none" stroke="#595857" stroke-width="2" stroke-linecap="round" stroke-miterlimit="10" x1="-206.5" y1="394.9" x2="-192.8" y2="394.9"/>
		
			<line id="XMLID_1650_" fill="none" stroke="#595857" stroke-width="2" stroke-linecap="round" stroke-miterlimit="10" x1="-217.2" y1="394.9" x2="-213.3" y2="394.9"/>
		
			<line id="XMLID_1696_" fill="none" stroke="#595857" stroke-width="2" stroke-linecap="round" stroke-miterlimit="10" x1="-220.3" y1="399.5" x2="-217.3" y2="399.5"/>
		
			<line id="XMLID_1707_" fill="none" stroke="#595857" stroke-width="2" stroke-linecap="round" stroke-miterlimit="10" x1="-217.3" y1="399.3" x2="-217.3" y2="445.3"/>
		
			<line id="XMLID_1596_" fill="none" stroke="#595857" stroke-width="2" stroke-linecap="round" stroke-miterlimit="10" x1="-192.8" y1="432.7" x2="-192.8" y2="445.3"/>
		
			<line id="XMLID_1595_" fill="none" stroke="#595857" stroke-width="2" stroke-linecap="round" stroke-miterlimit="10" x1="-192.8" y1="394.9" x2="-192.8" y2="421.4"/>
		
			<polyline id="XMLID_1598_" fill="none" stroke="#595857" stroke-width="2" stroke-linecap="round" stroke-linejoin="round" stroke-miterlimit="10" points="
			-215.1,441.6 -215.3,441.5 -217.3,445.2 		"/>
		
			<path id="XMLID_1599_" fill="none" stroke="#595857" stroke-width="2" stroke-linecap="round" stroke-linejoin="round" stroke-miterlimit="10" d="
			M-208,440.6"/>
		
			<polyline id="XMLID_1597_" fill="none" stroke="#595857" stroke-width="2" stroke-linecap="round" stroke-linejoin="round" stroke-miterlimit="10" points="
			-192.8,445.2 -195.8,440.6 -195.9,440.5 -198.9,445.2 -200.9,441.6 -201,441.5 		"/>
	</g>
</g>
<line id="XMLID_1678_" fill="none" stroke="#595857" stroke-width="2" stroke-linecap="round" stroke-miterlimit="10" x1="-240.7" y1="416.5" x2="-228.6" y2="416.5"/>
<line id="XMLID_1701_" fill="none" stroke="#595857" stroke-width="2" stroke-linecap="round" stroke-miterlimit="10" x1="-240.7" y1="424.8" x2="-228.6" y2="424.8"/>
<line id="XMLID_1688_" fill="none" stroke="#595857" stroke-width="2" stroke-linecap="round" stroke-miterlimit="10" x1="-240.7" y1="428.9" x2="-228.6" y2="428.9"/>
<line id="XMLID_1694_" fill="none" stroke="#595857" stroke-width="2" stroke-linecap="round" stroke-miterlimit="10" x1="-240.7" y1="420.6" x2="-232.6" y2="420.6"/>
<g id="XMLID_1682_">
	<path id="XMLID_1684_" fill="none" stroke="#89BB41" stroke-width="2" stroke-linecap="round" stroke-miterlimit="10" d="
		M-207.7,401.2c0.8-0.5,1.8-0.8,2.9-0.8c3.2,0,5.8,2.6,5.8,5.8s-2.6,5.8-5.8,5.8c-3.2,0-5.8-2.6-5.8-5.8c0-1.1,0.3-2.1,0.8-3"/>
	<g id="XMLID_1705_">
		<path id="XMLID_1752_" fill="#89BB41" d="M-208.3,406h0.8l-0.6-2.3h1l0.5,2.3h0.8l0.6-2.3h0.9l0.5,2.3h0.7l0.5-2.3h1l-0.6,2.3h0.8
			v0.6h-0.9l-0.7,2.8h-0.9l-0.6-2.8h-0.7l-0.7,2.8h-0.8l-0.7-2.8h-1V406z M-206.2,407.8l0.3-1.2h-0.6L-206.2,407.8z M-205,406h0.5
			l-0.2-1L-205,406z M-203.3,407.9l0.2-1.3h-0.5L-203.3,407.9z"/>
	</g>
</g>
<g id="XMLID_1679_">
	
		<polyline id="XMLID_1681_" fill="none" stroke="#1A96D4" stroke-width="2" stroke-linecap="round" stroke-linejoin="round" stroke-miterlimit="10" points="
		-205.3,445.2 -216.5,448.1 -213.6,436.9 	"/>
	
		<path id="XMLID_1686_" fill="none" stroke="#1A96D4" stroke-width="2" stroke-linecap="round" stroke-linejoin="round" stroke-miterlimit="10" d="
		M-189.6,429.5l-10,10l-5.6,5.6l-8.3-8.3l15.7-15.7c1.4-1.4,3.7-1.4,5.1,0l3.2,3.2C-188.2,425.8-188.2,428.1-189.6,429.5z"/>
	
		<line id="XMLID_1680_" fill="none" stroke="#1A96D4" stroke-width="2" stroke-linecap="round" stroke-miterlimit="10" stroke-dasharray="2,3" x1="-199" y1="423.2" x2="-191.2" y2="431.1"/>
</g>
</svg>
