<?xml version="1.0" encoding="utf-8"?>
<!-- Generator: Adobe Illustrator 19.0.0, SVG Export Plug-In . SVG Version: 6.00 Build 0)  -->
<svg version="1.2" baseProfile="tiny" id="Layer_1" xmlns="http://www.w3.org/2000/svg" xmlns:xlink="http://www.w3.org/1999/xlink"
	 x="0px" y="0px" width="77px" height="81px" viewBox="-259 380.9 77 81" xml:space="preserve">
<polyline id="XMLID_1341_" fill="none" stroke="#595857" stroke-width="2" stroke-linecap="round" stroke-linejoin="round" stroke-miterlimit="10" points="
	-220.2,451.7 -240.7,451.7 -240.7,426.1 -220.2,426.1 "/>
<line id="XMLID_1342_" fill="none" stroke="#595857" stroke-width="2" stroke-linecap="round" stroke-linejoin="round" stroke-miterlimit="10" x1="-220.2" y1="429.4" x2="-230.7" y2="429.4"/>
<polyline id="XMLID_1315_" fill="none" stroke="#595857" stroke-width="2" stroke-linecap="round" stroke-linejoin="round" stroke-miterlimit="10" points="
	-236.7,429.4 -240.7,429.4 -240.7,425.6 -220.2,425.6 "/>
<path id="XMLID_1402_" fill="none" stroke="#595857" stroke-width="2" stroke-linecap="round" stroke-linejoin="round" stroke-miterlimit="10" d="
	M-218.2,437.6h-8.9c-4.1,0-7.4,3.3-7.4,7.4v6.1"/>
<line id="XMLID_1403_" fill="none" stroke="#595857" stroke-width="2" stroke-linecap="round" stroke-linejoin="round" stroke-miterlimit="10" x1="-223.6" y1="451.1" x2="-223.6" y2="446.4"/>
<g id="XMLID_1411_">
	
		<polyline id="XMLID_1516_" fill="none" stroke="#595857" stroke-width="2" stroke-linecap="round" stroke-linejoin="round" stroke-miterlimit="10" points="
		-240.7,400.3 -226.3,400.3 -226.3,408.8 -250.7,408.8 -250.7,400.3 -247.6,400.3 	"/>
	
		<line id="XMLID_1404_" fill="none" stroke="#595857" stroke-width="2" stroke-linecap="round" stroke-linejoin="round" stroke-miterlimit="10" x1="-247.8" y1="409.5" x2="-247.8" y2="451.2"/>
	
		<line id="XMLID_1405_" fill="none" stroke="#595857" stroke-width="2" stroke-linecap="round" stroke-linejoin="round" stroke-miterlimit="10" x1="-247.8" y1="451.7" x2="-240.7" y2="451.7"/>
	
		<line id="XMLID_1406_" fill="none" stroke="#595857" stroke-width="2" stroke-linecap="round" stroke-linejoin="round" stroke-miterlimit="10" x1="-228.5" y1="409.2" x2="-228.5" y2="426.1"/>
	<g id="XMLID_1408_">
		<rect id="XMLID_1407_" x="-245.5" y="412.2" fill="#595857" width="2.8" height="2.8"/>
		<rect id="XMLID_1409_" x="-239.5" y="412.2" fill="#595857" width="2.8" height="2.8"/>
		<rect id="XMLID_1410_" x="-233.5" y="412.2" fill="#595857" width="2.8" height="2.8"/>
		<rect id="XMLID_1432_" x="-245.5" y="430.2" fill="#595857" width="2.8" height="2.8"/>
		<rect id="XMLID_1415_" x="-245.5" y="418.2" fill="#595857" width="2.8" height="2.8"/>
		<rect id="XMLID_1414_" x="-239.5" y="418.2" fill="#595857" width="2.8" height="2.8"/>
		<rect id="XMLID_1413_" x="-233.5" y="418.2" fill="#595857" width="2.8" height="2.8"/>
		<rect id="XMLID_1419_" x="-245.5" y="424.2" fill="#595857" width="2.8" height="2.8"/>
		<rect id="XMLID_1416_" x="-245.5" y="442.2" fill="#595857" width="2.8" height="2.8"/>
		<rect id="XMLID_1412_" x="-245.5" y="436.2" fill="#595857" width="2.8" height="2.8"/>
	</g>
</g>
<g id="XMLID_1503_">
	
		<line id="XMLID_1502_" fill="none" stroke="#595857" stroke-width="2" stroke-linecap="round" stroke-linejoin="round" stroke-miterlimit="10" x1="-214.7" y1="409.5" x2="-214.7" y2="416.2"/>
	
		<line id="XMLID_1501_" fill="none" stroke="#595857" stroke-width="2" stroke-linecap="round" stroke-linejoin="round" stroke-miterlimit="10" x1="-195.5" y1="409.2" x2="-195.5" y2="416.1"/>
	<g id="XMLID_1400_">
		<rect id="XMLID_1500_" x="-212.5" y="412.2" fill="#595857" width="2.8" height="2.8"/>
		<rect id="XMLID_1499_" x="-206.5" y="412.2" fill="#595857" width="2.8" height="2.8"/>
		<rect id="XMLID_1498_" x="-200.5" y="412.2" fill="#595857" width="2.8" height="2.8"/>
	</g>
</g>
<g id="XMLID_1418_">
	
		<polyline id="XMLID_1398_" fill="none" stroke="#595857" stroke-width="2" stroke-linecap="round" stroke-linejoin="round" stroke-miterlimit="10" points="
		-203.7,408.8 -217.1,408.8 -217.1,400.3 -192.5,400.3 -192.5,408.8 -197.5,408.8 	"/>
</g>
<line id="XMLID_1417_" fill="none" stroke="#595857" stroke-width="2" stroke-linecap="round" stroke-linejoin="round" stroke-miterlimit="10" x1="-233.5" y1="399.8" x2="-233.5" y2="397.3"/>
<line id="XMLID_1420_" fill="none" stroke="#595857" stroke-width="2" stroke-linecap="round" stroke-linejoin="round" stroke-miterlimit="10" x1="-204.6" y1="396.6" x2="-204.6" y2="391.3"/>
<line id="XMLID_1423_" fill="none" stroke="#595857" stroke-width="2" stroke-linecap="round" stroke-linejoin="round" stroke-miterlimit="10" x1="-211.6" y1="400.3" x2="-211.6" y2="397.3"/>
<line id="XMLID_1426_" fill="none" stroke="#595857" stroke-width="2" stroke-linecap="round" stroke-linejoin="round" stroke-miterlimit="10" x1="-211.6" y1="397.3" x2="-197.5" y2="397.3"/>
<line id="XMLID_1433_" fill="none" stroke="#595857" stroke-width="2" stroke-linecap="round" stroke-linejoin="round" stroke-miterlimit="10" x1="-197.5" y1="397.3" x2="-197.5" y2="399.8"/>
<path id="XMLID_1438_" fill="none" stroke="#595857" stroke-width="2" stroke-linecap="round" stroke-linejoin="round" stroke-miterlimit="10" d="
	M-219,394.1c-0.7,0-1.4,0.4-1.8,0.9c-0.5-0.9-1.5-1.5-2.6-1.5c-1.7,0-3,1.4-3,3c0,1.7,1.4,3,3,3c1.1,0,2.1-0.6,2.6-1.5
	c0.4,0.5,1.1,0.9,1.8,0.9c1.3,0,2.4-1.1,2.4-2.4C-216.6,395.2-217.7,394.1-219,394.1z"/>
<circle id="XMLID_1436_" fill="none" stroke="#595857" stroke-width="2" stroke-linecap="round" stroke-linejoin="round" stroke-miterlimit="10" cx="-245.6" cy="392" r="2.1"/>
<g id="XMLID_1111_">
	<g id="XMLID_1715_">
		<path id="XMLID_1732_" fill="none" stroke="#89BB41" stroke-width="2" stroke-linecap="round" stroke-miterlimit="10" d="
			M-210.2,435.9h-6.4c-0.6,0-1.1-0.5-1.1-1.1v-1.2"/>
		<path id="XMLID_1731_" fill="none" stroke="#89BB41" stroke-width="2" stroke-linecap="round" stroke-miterlimit="10" d="
			M-193,419.3h1.3c0.6,0,1.1,0.5,1.1,1.1v9.1v5.4"/>
		<path id="XMLID_1730_" fill="none" stroke="#89BB41" stroke-width="2" stroke-linecap="round" stroke-miterlimit="10" d="
			M-210.2,433.6h-8.6c-0.8,0-1.4-0.6-1.4-1.4v-13.8c0-0.8,0.6-1.4,1.4-1.4h24.3c0.8,0,1.4,0.6,1.4,1.4v9.1"/>
		
			<line id="XMLID_1729_" fill="none" stroke="#89BB41" stroke-width="2" stroke-linecap="round" stroke-miterlimit="10" x1="-220.2" y1="420.4" x2="-193" y2="420.4"/>
		
			<line id="XMLID_1717_" fill="none" stroke="#89BB41" stroke-width="2" stroke-linecap="round" stroke-miterlimit="10" x1="-220.2" y1="424.2" x2="-193" y2="424.2"/>
		<path id="XMLID_1716_" fill="none" stroke="#89BB41" stroke-width="2" stroke-linecap="round" stroke-miterlimit="10" d="
			M-213.4,430.8h-2.8c-0.7,0-1.3-0.6-1.3-1.3l0,0c0-0.7,0.6-1.3,1.3-1.3h2.8c0.7,0,1.3,0.6,1.3,1.3l0,0
			C-212.1,430.2-212.7,430.8-213.4,430.8z"/>
	</g>
	<g id="XMLID_1160_">
		
			<ellipse id="XMLID_1708_" fill="none" stroke="#1A96D4" stroke-width="2" stroke-linecap="round" stroke-miterlimit="10" cx="-200.7" cy="429.4" rx="9.6" ry="2.8"/>
		<path id="XMLID_1706_" fill="none" stroke="#1A96D4" stroke-width="2" stroke-linecap="round" stroke-miterlimit="10" d="
			M-191.1,433.4c0,1.6-4.3,2.8-9.6,2.8s-9.6-1.3-9.6-2.8"/>
		<path id="XMLID_1704_" fill="none" stroke="#1A96D4" stroke-width="2" stroke-linecap="round" stroke-miterlimit="10" d="
			M-191.1,437.4c0,1.6-4.3,2.8-9.6,2.8c-1.7,0-3.3-0.1-4.7-0.4"/>
		<path id="XMLID_1703_" fill="none" stroke="#1A96D4" stroke-width="2" stroke-linecap="round" stroke-miterlimit="10" d="
			M-191.1,441.4c0,1.6-4.3,2.8-9.6,2.8c-1.7,0-3.3-0.1-4.7-0.4"/>
		<path id="XMLID_1431_" fill="none" stroke="#1A96D4" stroke-width="2" stroke-linecap="round" stroke-miterlimit="10" d="
			M-191.1,445.4c0,1.6-4.3,2.8-9.6,2.8c-0.5,0-0.9,0-1.4,0"/>
		<path id="XMLID_1430_" fill="none" stroke="#1A96D4" stroke-width="2" stroke-linecap="round" stroke-miterlimit="10" d="
			M-191.1,449.4c0,1.6-4.3,2.8-9.6,2.8c-1.1,0-2.2-0.1-3.2-0.2"/>
		<path id="XMLID_1429_" fill="none" stroke="#1A96D4" stroke-width="2" stroke-linecap="round" stroke-miterlimit="10" d="
			M-210.2,450"/>
		
			<line id="XMLID_1428_" fill="none" stroke="#1A96D4" stroke-width="2" stroke-linecap="round" stroke-miterlimit="10" x1="-210.2" y1="429.4" x2="-210.2" y2="438"/>
		
			<line id="XMLID_1427_" fill="none" stroke="#1A96D4" stroke-width="2" stroke-linecap="round" stroke-miterlimit="10" x1="-191.1" y1="429.4" x2="-191.1" y2="450"/>
		<g id="XMLID_1311_">
			<path id="XMLID_1340_" fill="none" stroke="#1A96D4" stroke-width="2" stroke-linecap="round" stroke-miterlimit="10" d="
				M-221.2,447.4v3c0,1.6,4.3,2.8,9.6,2.8s9.6-1.3,9.6-2.8v-4"/>
			<path id="XMLID_1314_" fill="none" stroke="#1A96D4" stroke-width="2" stroke-linecap="round" stroke-miterlimit="10" d="
				M-205.4,444.3c2.1,0.5,3.4,1.3,3.4,2.2c0,1.6-4.3,2.8-9.6,2.8c-4.6,0-8.5-1-9.4-2.3"/>
		</g>
		<g id="XMLID_1170_">
			
				<ellipse id="XMLID_1310_" fill="none" stroke="#1A96D4" stroke-width="2" stroke-linecap="round" stroke-miterlimit="10" cx="-215" cy="440.4" rx="9.6" ry="2.8"/>
			<path id="XMLID_1287_" fill="none" stroke="#1A96D4" stroke-width="2" stroke-linecap="round" stroke-miterlimit="10" d="
				M-205.4,444.4c0,1.6-4.3,2.8-9.6,2.8s-9.6-1.3-9.6-2.8"/>
			
				<line id="XMLID_1282_" fill="none" stroke="#1A96D4" stroke-width="2" stroke-linecap="round" stroke-miterlimit="10" x1="-205.4" y1="440.4" x2="-205.4" y2="444.4"/>
			
				<line id="XMLID_1268_" fill="none" stroke="#1A96D4" stroke-width="2" stroke-linecap="round" stroke-miterlimit="10" x1="-224.6" y1="440.4" x2="-224.6" y2="444.4"/>
		</g>
	</g>
</g>
</svg>
