<?xml version="1.0" encoding="utf-8"?>
<!-- Generator: Adobe Illustrator 19.0.0, SVG Export Plug-In . SVG Version: 6.00 Build 0)  -->
<svg version="1.2" baseProfile="tiny" id="Layer_1" xmlns="http://www.w3.org/2000/svg" xmlns:xlink="http://www.w3.org/1999/xlink"
	 x="0px" y="0px" width="77px" height="81px" viewBox="-259 380.9 77 81" xml:space="preserve">
<line id="XMLID_1648_" fill="none" stroke="#595857" stroke-width="2" stroke-linecap="round" stroke-miterlimit="10" x1="-202.1" y1="416.2" x2="-202.1" y2="433.3"/>
<path id="XMLID_1647_" fill="none" stroke="#595857" stroke-width="2" stroke-linecap="round" stroke-miterlimit="10" d="
	M-201.5,453.5h-10.8h-16.6c-6,0-10.8-4.9-10.8-10.8V400"/>
<g id="XMLID_1640_">
	<path id="XMLID_1642_" fill="none" stroke="#89BB41" stroke-width="2" stroke-linecap="round" stroke-miterlimit="10" d="
		M-233.1,402c0.8-0.5,1.7-0.7,2.7-0.7c3,0,5.4,2.4,5.4,5.4c0,3-2.4,5.4-5.4,5.4s-5.4-2.4-5.4-5.4c0-1,0.3-2,0.8-2.8"/>
	<g id="XMLID_1332_">
		<path id="XMLID_1728_" fill="#89BB41" d="M-233.7,406.5h0.8l-0.5-2.1h0.9l0.5,2.1h0.8l0.6-2.1h0.8l0.5,2.1h0.7l0.4-2.1h0.9
			l-0.5,2.1h0.7v0.5h-0.9l-0.6,2.6h-0.8l-0.6-2.6h-0.7l-0.6,2.6h-0.8l-0.6-2.6h-0.9V406.5z M-231.7,408.1l0.3-1.1h-0.5L-231.7,408.1
			z M-230.6,406.5h0.4l-0.2-1L-230.6,406.5z M-229,408.2l0.2-1.2h-0.5L-229,408.2z"/>
	</g>
</g>
<path id="XMLID_1646_" fill="none" stroke="#595857" stroke-width="2" stroke-linecap="round" stroke-miterlimit="10" d="
	M-227.4,433.3c5.5,3,6.3,7.9,6.3,9.6c0,5-3.5,10.9-9.3,10.6"/>
<path id="XMLID_1645_" fill="none" stroke="#595857" stroke-width="2" stroke-linecap="round" stroke-miterlimit="10" d="
	M-200.4,433.3c6.4,0.7,7.3,8,7.3,9.6c0,4.8-3.3,10.6-8.8,10.6c-0.2,0-5.4,0-5.5,0"/>
<polyline id="XMLID_1644_" fill="none" stroke="#595857" stroke-width="2" stroke-linecap="round" stroke-miterlimit="10" points="
	-228.4,433.3 -203.1,433.3 -200.3,433.3 "/>
<path id="XMLID_1631_" fill="none" stroke="#595857" stroke-width="2" stroke-linecap="round" stroke-miterlimit="10" d="
	M-250.7,400.5c0-3,2.5-5.5,5.5-5.5s5.5,2.5,5.5,5.5"/>
<line id="XMLID_1630_" fill="none" stroke="#595857" stroke-width="2" stroke-linecap="round" stroke-miterlimit="10" x1="-231.2" y1="395" x2="-215.9" y2="395"/>
<line id="XMLID_1629_" fill="none" stroke="#595857" stroke-width="2" stroke-linecap="round" stroke-miterlimit="10" x1="-245.3" y1="395" x2="-236.9" y2="395"/>
<line id="XMLID_1628_" fill="none" stroke="#595857" stroke-width="2" stroke-linecap="round" stroke-miterlimit="10" x1="-250.7" y1="400.5" x2="-239.8" y2="400.5"/>
<g id="XMLID_1623_">
	
		<circle id="XMLID_1627_" fill="none" stroke="#1A96D4" stroke-width="2" stroke-linecap="round" stroke-miterlimit="10" cx="-205.8" cy="402.9" r="12.7"/>
	<path id="XMLID_1626_" fill="none" stroke="#1A96D4" stroke-width="2" stroke-linecap="round" stroke-miterlimit="10" d="
		M-205.8,410.5c-4.2,0-7.6-3.4-7.6-7.6"/>
	
		<path id="XMLID_1625_" fill="none" stroke="#1A96D4" stroke-width="2" stroke-linecap="round" stroke-linejoin="round" stroke-miterlimit="10" d="
		M-196.8,411.8l5.6,5.6L-196.8,411.8z"/>
	
		<circle id="XMLID_1624_" fill="none" stroke="#1A96D4" stroke-width="2" stroke-linecap="round" stroke-miterlimit="10" cx="-213.1" cy="399.4" r="0.4"/>
</g>
<rect id="XMLID_1632_" x="-233.8" y="417.4" fill="none" stroke="#595857" stroke-width="2" stroke-linecap="round" stroke-miterlimit="10" width="7" height="7"/>
<line id="XMLID_1633_" fill="none" stroke="#595857" stroke-width="2" stroke-linecap="round" stroke-miterlimit="10" x1="-220.6" y1="418.4" x2="-207.4" y2="418.4"/>
<line id="XMLID_1635_" fill="none" stroke="#595857" stroke-width="2" stroke-linecap="round" stroke-miterlimit="10" x1="-220.6" y1="423.4" x2="-207.4" y2="423.4"/>
<rect id="XMLID_1638_" x="-233.8" y="429.4" fill="none" stroke="#595857" stroke-width="2" stroke-linecap="round" stroke-miterlimit="10" width="7" height="7"/>
<rect id="XMLID_1636_" x="-233.8" y="441.4" fill="none" stroke="#595857" stroke-width="2" stroke-linecap="round" stroke-miterlimit="10" width="7" height="7"/>
<line id="XMLID_1637_" fill="none" stroke="#595857" stroke-width="2" stroke-linecap="round" stroke-miterlimit="10" x1="-220.6" y1="430.4" x2="-207.4" y2="430.4"/>
</svg>
