<?xml version="1.0" encoding="utf-8"?>
<!-- Generator: Adobe Illustrator 19.0.0, SVG Export Plug-In . SVG Version: 6.00 Build 0)  -->
<svg version="1.2" baseProfile="tiny" id="Layer_1" xmlns="http://www.w3.org/2000/svg" xmlns:xlink="http://www.w3.org/1999/xlink"
	 x="0px" y="0px" width="77px" height="81px" viewBox="-259 380.9 77 81" xml:space="preserve">
<polyline id="XMLID_1460_" fill="none" stroke="#595857" stroke-width="2" stroke-linecap="round" stroke-miterlimit="10" points="
	-241.4,446.7 -241.4,413 -199.3,413 -199.3,414.4 "/>
<polyline id="XMLID_1525_" fill="none" stroke="#595857" stroke-width="2" stroke-linecap="round" stroke-linejoin="round" stroke-miterlimit="10" points="
	-230.5,400.8 -249,413 -191.7,413 -220.4,394.1 -224.7,397 "/>
<path id="XMLID_1507_" fill="none" stroke="#595857" stroke-width="2" stroke-linecap="round" stroke-linejoin="round" stroke-miterlimit="10" d="
	M-219.3,447"/>
<line id="XMLID_1466_" fill="none" stroke="#595857" stroke-width="2" stroke-linecap="round" stroke-linejoin="round" stroke-miterlimit="10" x1="-199.3" y1="450.2" x2="-193.9" y2="450.2"/>
<polyline id="XMLID_1461_" fill="none" stroke="#595857" stroke-width="2" stroke-linecap="round" stroke-linejoin="round" stroke-miterlimit="10" points="
	-221.8,447 -246.8,447 -246.8,450.2 -217.9,450.2 "/>
<polyline id="XMLID_1523_" fill="none" stroke="#595857" stroke-width="2" stroke-linecap="round" stroke-linejoin="round" stroke-miterlimit="10" points="
	-238,405.8 -238,397 -243,397 -243,409 "/>
<polyline id="XMLID_1524_" fill="none" stroke="#595857" stroke-width="2" stroke-linecap="round" stroke-miterlimit="10" points="
	-223.4,443.6 -223.4,447 -221.9,447 "/>
<rect id="XMLID_1521_" x="-236.4" y="417.1" fill="none" stroke="#89BB41" stroke-width="2" stroke-linecap="round" stroke-miterlimit="10" width="5.9" height="5.9"/>
<polyline id="XMLID_1459_" fill="none" stroke="#89BB41" stroke-width="2" stroke-linecap="round" stroke-miterlimit="10" points="
	-220.3,423 -223.4,423 -223.4,417.1 -220.2,417.1 "/>
<rect id="XMLID_1518_" x="-236.4" y="427.1" fill="none" stroke="#89BB41" stroke-width="2" stroke-linecap="round" stroke-miterlimit="10" width="5.9" height="5.9"/>
<polyline id="XMLID_1458_" fill="none" stroke="#89BB41" stroke-width="2" stroke-linecap="round" stroke-miterlimit="10" points="
	-217.5,431.2 -217.5,433 -223.4,433 -223.4,427.1 -220.3,427.1 "/>
<g id="XMLID_1510_">
	<path id="XMLID_1515_" fill="none" stroke="#585857" stroke-width="2" stroke-linecap="round" stroke-miterlimit="10" d="
		M-242.5,408.7c-0.6-0.4-1.2-0.6-1.8-0.6c-1,0-2,0.6-2.9,1.6c-0.2-0.1-0.4-0.1-0.7-0.1c-1.6,0-3,1.3-3,3c0,0.8,0.3,1.4,0.8,2
		c-1.1,0.4-1.9,1.5-1.9,2.8c0,1.2,0.7,2.3,1.8,2.7c-0.5,0.5-0.8,1.3-0.8,2c0,1.3,0.9,2.4,2.1,2.8"/>
	
		<line id="XMLID_1514_" fill="none" stroke="#585857" stroke-width="2" stroke-linecap="round" stroke-miterlimit="10" x1="-244.4" y1="446.8" x2="-244.4" y2="415.7"/>
	
		<line id="XMLID_1513_" fill="none" stroke="#585857" stroke-width="2" stroke-linecap="round" stroke-miterlimit="10" x1="-244.9" y1="423.6" x2="-247.2" y2="421.3"/>
	
		<line id="XMLID_1512_" fill="none" stroke="#585857" stroke-width="2" stroke-linecap="round" stroke-miterlimit="10" x1="-244" y1="421.9" x2="-241.8" y2="419.8"/>
	<path id="XMLID_1511_" fill="none" stroke="#585857" stroke-width="2" stroke-linecap="round" stroke-miterlimit="10" d="
		M-241.4,429.2c-0.8,0.5-1.8,0.9-2.9,0.9c-2.8,0-5-2.1-5-4.6"/>
</g>
<g id="XMLID_1495_">
	<path id="XMLID_1509_" fill="none" stroke="#585857" stroke-width="2" stroke-linecap="round" stroke-miterlimit="10" d="
		M-197.9,408.7c0.6-0.4,1.2-0.6,1.8-0.6c1,0,2,0.6,2.9,1.6c0.2-0.1,0.4-0.1,0.7-0.1c1.6,0,3,1.3,3,3c0,0.8-0.3,1.4-0.8,2
		c1.1,0.4,1.9,1.5,1.9,2.8c0,1.2-0.7,2.3-1.8,2.7c0.5,0.5,0.8,1.3,0.8,2c0,1.3-0.9,2.4-2.1,2.8"/>
	<path id="XMLID_1505_" fill="none" stroke="#585857" stroke-width="2" stroke-linecap="round" stroke-miterlimit="10" d="
		M-198.6,419.8"/>
	<path id="XMLID_1504_" fill="none" stroke="#585857" stroke-width="2" stroke-linecap="round" stroke-miterlimit="10" d="
		M-196.4,420.9"/>
	<path id="XMLID_1496_" fill="none" stroke="#585857" stroke-width="2" stroke-linecap="round" stroke-miterlimit="10" d="
		M-191,425.4"/>
</g>
<g id="XMLID_1465_">
	<g id="XMLID_1489_">
		<path id="XMLID_1735_" fill="none" stroke="#89BB41" stroke-width="2" stroke-linecap="round" stroke-miterlimit="10" d="
			M-210.3,433.2h-6.4c-0.6,0-1.1-0.5-1.1-1.1V431"/>
		<path id="XMLID_1494_" fill="none" stroke="#89BB41" stroke-width="2" stroke-linecap="round" stroke-miterlimit="10" d="
			M-193.1,416.6h1.3c0.6,0,1.1,0.5,1.1,1.1v9.1v5.4"/>
		<path id="XMLID_1493_" fill="none" stroke="#89BB41" stroke-width="2" stroke-linecap="round" stroke-miterlimit="10" d="
			M-210.3,431h-8.6c-0.8,0-1.4-0.6-1.4-1.4v-13.8c0-0.8,0.6-1.4,1.4-1.4h24.3c0.8,0,1.4,0.6,1.4,1.4v9.1"/>
		
			<line id="XMLID_1492_" fill="none" stroke="#89BB41" stroke-width="2" stroke-linecap="round" stroke-miterlimit="10" x1="-220.2" y1="417.8" x2="-193.1" y2="417.8"/>
		
			<line id="XMLID_1491_" fill="none" stroke="#89BB41" stroke-width="2" stroke-linecap="round" stroke-miterlimit="10" x1="-220.2" y1="421.6" x2="-193.1" y2="421.6"/>
		<path id="XMLID_1490_" fill="none" stroke="#89BB41" stroke-width="2" stroke-linecap="round" stroke-miterlimit="10" d="
			M-213.5,428.2h-2.8c-0.7,0-1.3-0.6-1.3-1.3l0,0c0-0.7,0.6-1.3,1.3-1.3h2.8c0.7,0,1.3,0.6,1.3,1.3l0,0
			C-212.2,427.6-212.8,428.2-213.5,428.2z"/>
	</g>
	<g id="XMLID_1471_">
		
			<ellipse id="XMLID_1488_" fill="none" stroke="#1A96D4" stroke-width="2" stroke-linecap="round" stroke-miterlimit="10" cx="-200.7" cy="426.8" rx="9.6" ry="2.8"/>
		<path id="XMLID_1487_" fill="none" stroke="#1A96D4" stroke-width="2" stroke-linecap="round" stroke-miterlimit="10" d="
			M-191.1,430.8c0,1.6-4.3,2.8-9.6,2.8s-9.6-1.3-9.6-2.8"/>
		<path id="XMLID_1486_" fill="none" stroke="#1A96D4" stroke-width="2" stroke-linecap="round" stroke-miterlimit="10" d="
			M-191.1,434.8c0,1.6-4.3,2.8-9.6,2.8c-1.7,0-3.3-0.1-4.7-0.4"/>
		<path id="XMLID_1485_" fill="none" stroke="#1A96D4" stroke-width="2" stroke-linecap="round" stroke-miterlimit="10" d="
			M-191.1,438.8c0,1.6-4.3,2.8-9.6,2.8c-1.7,0-3.3-0.1-4.7-0.4"/>
		<path id="XMLID_1484_" fill="none" stroke="#1A96D4" stroke-width="2" stroke-linecap="round" stroke-miterlimit="10" d="
			M-191.1,442.8c0,1.6-4.3,2.8-9.6,2.8c-0.5,0-0.9,0-1.4,0"/>
		<path id="XMLID_1483_" fill="none" stroke="#1A96D4" stroke-width="2" stroke-linecap="round" stroke-miterlimit="10" d="
			M-191.1,446.8c0,1.6-4.3,2.8-9.6,2.8c-1.1,0-2.2-0.1-3.2-0.2"/>
		<path id="XMLID_1482_" fill="none" stroke="#1A96D4" stroke-width="2" stroke-linecap="round" stroke-miterlimit="10" d="
			M-210.3,447.4"/>
		
			<line id="XMLID_1481_" fill="none" stroke="#1A96D4" stroke-width="2" stroke-linecap="round" stroke-miterlimit="10" x1="-210.3" y1="426.8" x2="-210.3" y2="435.3"/>
		
			<line id="XMLID_1480_" fill="none" stroke="#1A96D4" stroke-width="2" stroke-linecap="round" stroke-miterlimit="10" x1="-191.1" y1="426.8" x2="-191.1" y2="447.4"/>
		<g id="XMLID_1477_">
			<path id="XMLID_1479_" fill="none" stroke="#1A96D4" stroke-width="2" stroke-linecap="round" stroke-miterlimit="10" d="
				M-221.3,444.8v3c0,1.6,4.3,2.8,9.6,2.8s9.6-1.3,9.6-2.8v-4"/>
			<path id="XMLID_1478_" fill="none" stroke="#1A96D4" stroke-width="2" stroke-linecap="round" stroke-miterlimit="10" d="
				M-205.5,441.6c2.1,0.5,3.4,1.3,3.4,2.2c0,1.6-4.3,2.8-9.6,2.8c-4.6,0-8.5-1-9.4-2.3"/>
		</g>
		<g id="XMLID_1472_">
			
				<ellipse id="XMLID_1476_" fill="none" stroke="#1A96D4" stroke-width="2" stroke-linecap="round" stroke-miterlimit="10" cx="-215.1" cy="437.8" rx="9.6" ry="2.8"/>
			<path id="XMLID_1475_" fill="none" stroke="#1A96D4" stroke-width="2" stroke-linecap="round" stroke-miterlimit="10" d="
				M-205.5,441.8c0,1.6-4.3,2.8-9.6,2.8s-9.6-1.3-9.6-2.8"/>
			
				<line id="XMLID_1474_" fill="none" stroke="#1A96D4" stroke-width="2" stroke-linecap="round" stroke-miterlimit="10" x1="-205.5" y1="437.8" x2="-205.5" y2="441.8"/>
			
				<line id="XMLID_1473_" fill="none" stroke="#1A96D4" stroke-width="2" stroke-linecap="round" stroke-miterlimit="10" x1="-224.6" y1="437.8" x2="-224.6" y2="441.8"/>
		</g>
	</g>
</g>
</svg>
