<?xml version="1.0" encoding="utf-8"?>
<!-- Generator: Adobe Illustrator 19.0.0, SVG Export Plug-In . SVG Version: 6.00 Build 0)  -->
<svg version="1.2" baseProfile="tiny" id="Layer_1" xmlns="http://www.w3.org/2000/svg" xmlns:xlink="http://www.w3.org/1999/xlink"
	 x="0px" y="0px" width="77px" height="81px" viewBox="-259 380.9 77 81" xml:space="preserve">
<path id="XMLID_1347_" fill="none" stroke="#595857" stroke-width="2" stroke-linecap="round" stroke-miterlimit="10" d="
	M-195,442.6"/>
<path id="XMLID_1346_" fill="none" stroke="#595857" stroke-width="2" stroke-linecap="round" stroke-miterlimit="10" d="
	M-200.1,447.7"/>
<line id="XMLID_1334_" fill="none" stroke="#595857" stroke-width="2" stroke-linecap="round" stroke-miterlimit="10" x1="-234" y1="419.9" x2="-220.1" y2="419.9"/>
<line id="XMLID_1336_" fill="none" stroke="#595857" stroke-width="2" stroke-linecap="round" stroke-miterlimit="10" x1="-234" y1="424.9" x2="-220.1" y2="424.9"/>
<line id="XMLID_1337_" fill="none" stroke="#595857" stroke-width="2" stroke-linecap="round" stroke-miterlimit="10" x1="-234" y1="429.9" x2="-221.1" y2="429.9"/>
<g id="XMLID_1348_">
	
		<path id="XMLID_1425_" display="none" fill="none" stroke="#595857" stroke-width="2" stroke-linecap="round" stroke-miterlimit="10" d="
		M-244.2,449.9h15.8h16.6c6,0,10.8-4.9,10.8-10.8v-20.7"/>
	<path id="XMLID_1424_" fill="none" stroke="#595857" stroke-width="2" stroke-linecap="round" stroke-miterlimit="10" d="
		M-250.2,396.9c0-3,2.5-5.5,5.5-5.5c3,0,5.5,2.5,5.5,5.5"/>
	
		<line id="XMLID_1422_" fill="none" stroke="#595857" stroke-width="2" stroke-linecap="round" stroke-miterlimit="10" x1="-244.7" y1="391.4" x2="-235.5" y2="391.4"/>
	
		<line id="XMLID_1421_" fill="none" stroke="#595857" stroke-width="2" stroke-linecap="round" stroke-miterlimit="10" x1="-250.2" y1="396.9" x2="-239.2" y2="396.9"/>
	
		<line id="XMLID_1351_" fill="none" stroke="#595857" stroke-width="2" stroke-linecap="round" stroke-miterlimit="10" x1="-239.2" y1="396.6" x2="-239.2" y2="451.2"/>
	
		<path id="XMLID_1350_" fill="none" stroke="#595857" stroke-width="2" stroke-linecap="round" stroke-linejoin="round" stroke-miterlimit="10" d="
		M-200.9,409.2v7.6v-24c0-0.8-0.6-1.4-1.4-1.4h-27"/>
	
		<polyline id="XMLID_1108_" fill="none" stroke="#595857" stroke-width="2" stroke-linecap="round" stroke-linejoin="round" stroke-miterlimit="10" points="
		-221.2,449.7 -224.7,445.6 -224.9,445.5 -229.6,451.1 -234.2,445.6 -234.5,445.5 -239.2,451.1 	"/>
</g>
<g id="XMLID_1331_">
	<path id="XMLID_1333_" fill="none" stroke="#595857" stroke-width="2" stroke-linecap="round" stroke-miterlimit="10" d="
		M-231.3,398.3c1.2-0.7,2.6-1.1,4.1-1.1c4.5,0,8.2,3.7,8.2,8.2s-3.7,8.2-8.2,8.2s-8.2-3.7-8.2-8.2c0-1.6,0.4-3,1.2-4.2"/>
	<g id="XMLID_280_">
		<path id="XMLID_281_" fill="#595857" d="M-232.2,405.2h1.2l-0.8-3.3h1.4l0.7,3.3h1.2l0.9-3.3h1.2l0.8,3.3h1.1l0.7-3.3h1.4
			l-0.8,3.3h1.1v0.8h-1.3l-0.9,3.9h-1.2l-0.9-3.9h-1.1l-1,3.9h-1.2l-1-3.9h-1.4V405.2z M-229.2,407.7l0.5-1.7h-0.8L-229.2,407.7z
			 M-227.5,405.2h0.7l-0.3-1.5L-227.5,405.2z M-225.1,407.7l0.3-1.8h-0.7L-225.1,407.7z"/>
	</g>
</g>
<g id="XMLID_1110_">
	<g id="XMLID_1335_">
		<path id="XMLID_1356_" fill="none" stroke="#89BB41" stroke-width="2" stroke-linecap="round" stroke-miterlimit="10" d="
			M-210.3,435.9h-6.4c-0.6,0-1.1-0.5-1.1-1.1v-1.2"/>
		<path id="XMLID_1345_" fill="none" stroke="#89BB41" stroke-width="2" stroke-linecap="round" stroke-miterlimit="10" d="
			M-193,419.3h1.3c0.6,0,1.1,0.5,1.1,1.1v9.1v5.4"/>
		<path id="XMLID_1355_" fill="none" stroke="#89BB41" stroke-width="2" stroke-linecap="round" stroke-miterlimit="10" d="
			M-210.2,433.6h-8.6c-0.8,0-1.4-0.6-1.4-1.4v-13.8c0-0.8,0.6-1.4,1.4-1.4h24.3c0.8,0,1.4,0.6,1.4,1.4v9.1"/>
		
			<line id="XMLID_1354_" fill="none" stroke="#89BB41" stroke-width="2" stroke-linecap="round" stroke-miterlimit="10" x1="-220.2" y1="420.4" x2="-193" y2="420.4"/>
		
			<line id="XMLID_1339_" fill="none" stroke="#89BB41" stroke-width="2" stroke-linecap="round" stroke-miterlimit="10" x1="-220.2" y1="424.2" x2="-193" y2="424.2"/>
		<path id="XMLID_1338_" fill="none" stroke="#89BB41" stroke-width="2" stroke-linecap="round" stroke-miterlimit="10" d="
			M-213.4,430.8h-2.8c-0.7,0-1.3-0.6-1.3-1.3l0,0c0-0.7,0.6-1.3,1.3-1.3h2.8c0.7,0,1.3,0.6,1.3,1.3l0,0
			C-212.1,430.2-212.7,430.8-213.4,430.8z"/>
	</g>
	<g id="XMLID_1301_">
		
			<ellipse id="XMLID_1330_" fill="none" stroke="#1A96D4" stroke-width="2" stroke-linecap="round" stroke-miterlimit="10" cx="-200.7" cy="429.4" rx="9.6" ry="2.8"/>
		<path id="XMLID_1329_" fill="none" stroke="#1A96D4" stroke-width="2" stroke-linecap="round" stroke-miterlimit="10" d="
			M-191.1,433.4c0,1.6-4.3,2.8-9.6,2.8s-9.6-1.3-9.6-2.8"/>
		<path id="XMLID_1328_" fill="none" stroke="#1A96D4" stroke-width="2" stroke-linecap="round" stroke-miterlimit="10" d="
			M-191.1,437.4c0,1.6-4.3,2.8-9.6,2.8c-1.7,0-3.3-0.1-4.7-0.4"/>
		<path id="XMLID_1327_" fill="none" stroke="#1A96D4" stroke-width="2" stroke-linecap="round" stroke-miterlimit="10" d="
			M-191.1,441.4c0,1.6-4.3,2.8-9.6,2.8c-1.7,0-3.3-0.1-4.7-0.4"/>
		<path id="XMLID_1326_" fill="none" stroke="#1A96D4" stroke-width="2" stroke-linecap="round" stroke-miterlimit="10" d="
			M-191.1,445.4c0,1.6-4.3,2.8-9.6,2.8c-0.5,0-0.9,0-1.4,0"/>
		<path id="XMLID_1325_" fill="none" stroke="#1A96D4" stroke-width="2" stroke-linecap="round" stroke-miterlimit="10" d="
			M-191.1,449.4c0,1.6-4.3,2.8-9.6,2.8c-1.1,0-2.2-0.1-3.2-0.2"/>
		<path id="XMLID_1324_" fill="none" stroke="#1A96D4" stroke-width="2" stroke-linecap="round" stroke-miterlimit="10" d="
			M-210.3,450"/>
		
			<line id="XMLID_1323_" fill="none" stroke="#1A96D4" stroke-width="2" stroke-linecap="round" stroke-miterlimit="10" x1="-210.3" y1="429.4" x2="-210.3" y2="438"/>
		
			<line id="XMLID_1322_" fill="none" stroke="#1A96D4" stroke-width="2" stroke-linecap="round" stroke-miterlimit="10" x1="-191.1" y1="429.4" x2="-191.1" y2="450"/>
		<g id="XMLID_1304_">
			<path id="XMLID_1313_" fill="none" stroke="#1A96D4" stroke-width="2" stroke-linecap="round" stroke-miterlimit="10" d="
				M-221.2,447.4v3c0,1.6,4.3,2.8,9.6,2.8s9.6-1.3,9.6-2.8v-4"/>
			<path id="XMLID_1316_" fill="none" stroke="#1A96D4" stroke-width="2" stroke-linecap="round" stroke-miterlimit="10" d="
				M-205.4,444.3c2.1,0.5,3.4,1.3,3.4,2.2c0,1.6-4.3,2.8-9.6,2.8c-4.6,0-8.5-1-9.4-2.3"/>
		</g>
		<g id="XMLID_1317_">
			
				<ellipse id="XMLID_1321_" fill="none" stroke="#1A96D4" stroke-width="2" stroke-linecap="round" stroke-miterlimit="10" cx="-215" cy="440.4" rx="9.6" ry="2.8"/>
			<path id="XMLID_1320_" fill="none" stroke="#1A96D4" stroke-width="2" stroke-linecap="round" stroke-miterlimit="10" d="
				M-205.4,444.4c0,1.6-4.3,2.8-9.6,2.8s-9.6-1.3-9.6-2.8"/>
			
				<line id="XMLID_1319_" fill="none" stroke="#1A96D4" stroke-width="2" stroke-linecap="round" stroke-miterlimit="10" x1="-205.4" y1="440.4" x2="-205.4" y2="444.4"/>
			
				<line id="XMLID_1318_" fill="none" stroke="#1A96D4" stroke-width="2" stroke-linecap="round" stroke-miterlimit="10" x1="-224.6" y1="440.4" x2="-224.6" y2="444.4"/>
		</g>
	</g>
</g>
</svg>
