<?xml version="1.0" encoding="utf-8"?>
<!-- Generator: Adobe Illustrator 19.0.0, SVG Export Plug-In . SVG Version: 6.00 Build 0)  -->
<svg version="1.2" baseProfile="tiny" id="Layer_1" xmlns="http://www.w3.org/2000/svg" xmlns:xlink="http://www.w3.org/1999/xlink"
	 x="0px" y="0px" width="77px" height="81px" viewBox="-259 380.9 77 81" xml:space="preserve">
<circle id="XMLID_1548_" fill="#595857" cx="-241.4" cy="416.8" r="1.3"/>
<circle id="XMLID_1550_" fill="#595857" cx="-231.6" cy="416.8" r="1.3"/>
<rect id="XMLID_1549_" x="-224.6" y="413.9" fill="none" stroke="#595857" stroke-miterlimit="10" width="5.7" height="5.7"/>
<rect id="XMLID_1552_" x="-214.8" y="413.9" fill="none" stroke="#595857" stroke-miterlimit="10" width="5.7" height="5.7"/>
<rect id="XMLID_1553_" x="-205" y="413.9" fill="none" stroke="#595857" stroke-miterlimit="10" width="5.7" height="5.7"/>
<rect id="XMLID_1561_" x="-234.6" y="433.9" fill="none" stroke="#595857" stroke-miterlimit="10" width="5.7" height="5.7"/>
<polyline id="XMLID_1506_" fill="none" stroke="#595857" stroke-miterlimit="10" points="-214.8,428.6 -214.8,423.9 -209.1,423.9 
	"/>
<rect id="XMLID_1559_" x="-224.6" y="433.9" fill="none" stroke="#595857" stroke-miterlimit="10" width="5.7" height="5.7"/>
<line id="XMLID_1551_" fill="none" stroke="#89BB41" stroke-width="2" stroke-linecap="round" stroke-miterlimit="10" x1="-229.4" y1="424.2" x2="-234.2" y2="429.1"/>
<line id="XMLID_1563_" fill="none" stroke="#89BB41" stroke-width="2" stroke-linecap="round" stroke-miterlimit="10" x1="-234.2" y1="424.2" x2="-229.4" y2="429.1"/>
<line id="XMLID_1580_" fill="none" stroke="#89BB41" stroke-width="2" stroke-linecap="round" stroke-miterlimit="10" x1="-238.4" y1="424.2" x2="-243.2" y2="429.1"/>
<line id="XMLID_1560_" fill="none" stroke="#89BB41" stroke-width="2" stroke-linecap="round" stroke-miterlimit="10" x1="-243.2" y1="424.2" x2="-238.4" y2="429.1"/>
<line id="XMLID_1579_" fill="none" stroke="#89BB41" stroke-width="2" stroke-linecap="round" stroke-miterlimit="10" x1="-219.4" y1="424.2" x2="-224.2" y2="429.1"/>
<line id="XMLID_1578_" fill="none" stroke="#89BB41" stroke-width="2" stroke-linecap="round" stroke-miterlimit="10" x1="-224.2" y1="424.2" x2="-219.4" y2="429.1"/>
<line id="XMLID_1565_" fill="none" stroke="#89BB41" stroke-width="2" stroke-linecap="round" stroke-miterlimit="10" x1="-238.4" y1="434.2" x2="-243.2" y2="439.1"/>
<line id="XMLID_1564_" fill="none" stroke="#89BB41" stroke-width="2" stroke-linecap="round" stroke-miterlimit="10" x1="-243.2" y1="434.2" x2="-238.4" y2="439.1"/>
<polyline id="XMLID_1562_" fill="none" stroke="#595857" stroke-width="2" stroke-linecap="round" stroke-linejoin="round" stroke-miterlimit="10" points="
	-250,439.1 -243.4,445.7 -243.2,445.9 "/>
<g id="XMLID_1572_">
	
		<line id="XMLID_1517_" fill="none" stroke="#595857" stroke-width="2" stroke-linecap="round" stroke-linejoin="round" stroke-miterlimit="10" x1="-214.8" y1="445.9" x2="-243" y2="445.9"/>
	
		<path id="XMLID_1508_" fill="none" stroke="#595857" stroke-width="2" stroke-linecap="round" stroke-linejoin="round" stroke-miterlimit="10" d="
		M-202.1,397.1h3c3.1,0,5.7,2.5,5.7,5.7v25.9"/>
	
		<line id="XMLID_1568_" fill="none" stroke="#595857" stroke-width="2" stroke-linecap="round" stroke-linejoin="round" stroke-miterlimit="10" x1="-230.9" y1="397.1" x2="-213" y2="397.1"/>
	
		<path id="XMLID_1571_" fill="none" stroke="#595857" stroke-width="2" stroke-linecap="round" stroke-linejoin="round" stroke-miterlimit="10" d="
		M-250,439.1v-36.3c0-3.1,2.5-5.7,5.7-5.7h2.9"/>
	
		<line id="XMLID_1527_" fill="none" stroke="#595857" stroke-width="2" stroke-linecap="round" stroke-linejoin="round" stroke-miterlimit="10" x1="-250" y1="408.1" x2="-193.7" y2="408.1"/>
	
		<line id="XMLID_1566_" fill="none" stroke="#595857" stroke-width="2" stroke-linecap="round" stroke-linejoin="round" stroke-miterlimit="10" x1="-250" y1="439.1" x2="-243" y2="439.1"/>
	
		<line id="XMLID_1567_" fill="none" stroke="#595857" stroke-width="2" stroke-linecap="round" stroke-linejoin="round" stroke-miterlimit="10" x1="-243" y1="439.1" x2="-243" y2="445.9"/>
	<g id="XMLID_1569_">
		
			<path id="XMLID_1439_" fill="none" stroke="#595857" stroke-width="2" stroke-linecap="round" stroke-linejoin="round" stroke-miterlimit="10" d="
			M-236.3,402.4L-236.3,402.4c-0.9,0-1.6-0.7-1.6-1.6v-5.6c0-0.9,0.7-1.6,1.6-1.6l0,0c0.9,0,1.6,0.7,1.6,1.6v5.6
			C-234.7,401.7-235.4,402.4-236.3,402.4z"/>
		
			<path id="XMLID_1570_" fill="none" stroke="#595857" stroke-width="2" stroke-linecap="round" stroke-linejoin="round" stroke-miterlimit="10" d="
			M-207.2,402.4L-207.2,402.4c-0.9,0-1.6-0.7-1.6-1.6v-5.6c0-0.9,0.7-1.6,1.6-1.6l0,0c0.9,0,1.6,0.7,1.6,1.6v5.6
			C-205.7,401.7-206.4,402.4-207.2,402.4z"/>
	</g>
</g>
<g id="XMLID_1577_">
	
		<circle id="XMLID_1574_" fill="none" stroke="#1A96D4" stroke-width="2" stroke-linecap="round" stroke-miterlimit="10" cx="-204.7" cy="437" r="13.5"/>
	
		<line id="XMLID_1575_" fill="none" stroke="#1A96D4" stroke-width="2" stroke-linecap="round" stroke-miterlimit="10" x1="-204.7" y1="437" x2="-198.5" y2="437"/>
	
		<line id="XMLID_1576_" fill="none" stroke="#1A96D4" stroke-width="2" stroke-linecap="round" stroke-miterlimit="10" x1="-204.7" y1="437" x2="-204.7" y2="430.6"/>
	
		<line id="XMLID_1556_" fill="none" stroke="#1A96D4" stroke-linecap="round" stroke-miterlimit="10" x1="-204.7" y1="423.5" x2="-204.7" y2="426.7"/>
	
		<line id="XMLID_1581_" fill="none" stroke="#1A96D4" stroke-linecap="round" stroke-miterlimit="10" x1="-218.2" y1="437" x2="-215.8" y2="437"/>
	
		<line id="XMLID_1582_" fill="none" stroke="#1A96D4" stroke-linecap="round" stroke-miterlimit="10" x1="-191.2" y1="437" x2="-194" y2="437"/>
	
		<line id="XMLID_1583_" fill="none" stroke="#1A96D4" stroke-linecap="round" stroke-miterlimit="10" x1="-204.7" y1="450.5" x2="-204.7" y2="447.1"/>
	
		<line id="XMLID_1586_" fill="none" stroke="#1A96D4" stroke-linecap="round" stroke-miterlimit="10" x1="-214.2" y1="427.5" x2="-212" y2="429.7"/>
	
		<line id="XMLID_1585_" fill="none" stroke="#1A96D4" stroke-linecap="round" stroke-miterlimit="10" x1="-195.1" y1="446.5" x2="-197.6" y2="444.1"/>
	
		<line id="XMLID_1588_" fill="none" stroke="#1A96D4" stroke-linecap="round" stroke-miterlimit="10" x1="-195.1" y1="427.5" x2="-197.4" y2="429.7"/>
	
		<line id="XMLID_1587_" fill="none" stroke="#1A96D4" stroke-linecap="round" stroke-miterlimit="10" x1="-214.2" y1="446.5" x2="-211.8" y2="444.1"/>
</g>
</svg>
