<?xml version="1.0" encoding="utf-8"?>
<!-- Generator: Adobe Illustrator 19.0.0, SVG Export Plug-In . SVG Version: 6.00 Build 0)  -->
<svg version="1.2" baseProfile="tiny" id="Layer_1" xmlns="http://www.w3.org/2000/svg" xmlns:xlink="http://www.w3.org/1999/xlink"
	 x="0px" y="0px" width="77px" height="81px" viewBox="-259 380.9 77 81" xml:space="preserve">
<line id="XMLID_1468_" fill="none" stroke="#595857" stroke-width="2" stroke-linecap="round" stroke-miterlimit="10" x1="-236" y1="404.6" x2="-227.1" y2="404.6"/>
<path id="XMLID_1467_" fill="none" stroke="#595857" stroke-width="2" stroke-linecap="round" stroke-miterlimit="10" d="
	M-223.5,442.4h-26.2c-0.7,0-1.4-0.6-1.4-1.4v-35c0-0.8,0.6-1.4,1.4-1.4h5.6"/>
<path id="XMLID_1457_" fill="none" stroke="#595857" stroke-width="2" stroke-linecap="round" stroke-miterlimit="10" d="
	M-218.4,404.6h21.6c0.7,0,1.4,0.6,1.4,1.4v6.7"/>
<path id="XMLID_1464_" fill="none" stroke="#595857" stroke-width="2" stroke-linecap="round" stroke-miterlimit="10" d="
	M-223,411.2L-223,411.2c-2.2,0-4-1.8-4-4v-9.3c0-2.2,1.8-4,4-4l0,0c2.2,0,4,1.8,4,4v9.3C-219,409.4-220.8,411.2-223,411.2z"/>
<path id="XMLID_1463_" fill="#595857" d="M-223,400.2L-223,400.2c-1.2,0-2.1-0.9-2.1-2l0,0c0-1.1,0.9-2,2-2h0c1.1,0,2,0.9,2,2l0,0
	C-220.9,399.3-221.9,400.2-223,400.2z"/>
<path id="XMLID_1462_" fill="none" stroke="#89BB41" stroke-width="2" stroke-linecap="round" stroke-miterlimit="10" d="
	M-236.4,435.3h10.4l-1.3-3.5c0,0-0.6-1.5-2.1-1.3c0,0-2.5,0.1-3.6-0.8c0,0-0.7-1-0.4-1.7c0,0,1.1-1.7,1.5-2.2c0,0,1.6-2,0.1-2.6
	c0,0,0.7-4.4-2.5-5.3c0,0-1.3-0.3-2.7-0.9c0.1,0.6-0.6,0.9-0.6,0.9c-3.2,0.9-2.5,5.3-2.5,5.3c-1.5,0.7,0.1,2.6,0.1,2.6
	c0.4,0.6,1.5,2.2,1.5,2.2c0.2,0.7-0.4,1.7-0.4,1.7c-1.1,0.9-3.6,0.8-3.6,0.8c-1.5-0.1-2.1,1.3-2.1,1.3l-1.3,3.5h9.9"/>
<g id="XMLID_1357_">
	<g id="XMLID_1393_">
		<path id="XMLID_1734_" fill="none" stroke="#89BB41" stroke-width="2" stroke-linecap="round" stroke-miterlimit="10" d="
			M-210.3,432.2h-6.4c-0.6,0-1.1-0.5-1.1-1.1V430"/>
		<path id="XMLID_1456_" fill="none" stroke="#89BB41" stroke-width="2" stroke-linecap="round" stroke-miterlimit="10" d="
			M-193.1,415.6h1.3c0.6,0,1.1,0.5,1.1,1.1v9.1v5.4"/>
		<path id="XMLID_1443_" fill="none" stroke="#89BB41" stroke-width="2" stroke-linecap="round" stroke-miterlimit="10" d="
			M-210.3,430h-8.6c-0.8,0-1.4-0.6-1.4-1.4v-13.8c0-0.8,0.6-1.4,1.4-1.4h24.3c0.8,0,1.4,0.6,1.4,1.4v9.1"/>
		
			<line id="XMLID_1397_" fill="none" stroke="#89BB41" stroke-width="2" stroke-linecap="round" stroke-miterlimit="10" x1="-220.3" y1="416.8" x2="-193.1" y2="416.8"/>
		
			<line id="XMLID_1396_" fill="none" stroke="#89BB41" stroke-width="2" stroke-linecap="round" stroke-miterlimit="10" x1="-220.3" y1="420.6" x2="-193.1" y2="420.6"/>
		<path id="XMLID_1395_" fill="none" stroke="#89BB41" stroke-width="2" stroke-linecap="round" stroke-miterlimit="10" d="
			M-213.5,427.2h-2.8c-0.7,0-1.3-0.6-1.3-1.3l0,0c0-0.7,0.6-1.3,1.3-1.3h2.8c0.7,0,1.3,0.6,1.3,1.3l0,0
			C-212.2,426.6-212.8,427.2-213.5,427.2z"/>
	</g>
	<g id="XMLID_1359_">
		
			<ellipse id="XMLID_1391_" fill="none" stroke="#1A96D4" stroke-width="2" stroke-linecap="round" stroke-miterlimit="10" cx="-200.7" cy="425.8" rx="9.6" ry="2.8"/>
		<path id="XMLID_1390_" fill="none" stroke="#1A96D4" stroke-width="2" stroke-linecap="round" stroke-miterlimit="10" d="
			M-191.1,429.8c0,1.6-4.3,2.8-9.6,2.8s-9.6-1.3-9.6-2.8"/>
		<path id="XMLID_1389_" fill="none" stroke="#1A96D4" stroke-width="2" stroke-linecap="round" stroke-miterlimit="10" d="
			M-191.1,433.8c0,1.6-4.3,2.8-9.6,2.8c-1.7,0-3.3-0.1-4.7-0.4"/>
		<path id="XMLID_1388_" fill="none" stroke="#1A96D4" stroke-width="2" stroke-linecap="round" stroke-miterlimit="10" d="
			M-191.1,437.8c0,1.6-4.3,2.8-9.6,2.8c-1.7,0-3.3-0.1-4.7-0.4"/>
		<path id="XMLID_1387_" fill="none" stroke="#1A96D4" stroke-width="2" stroke-linecap="round" stroke-miterlimit="10" d="
			M-191.1,441.8c0,1.6-4.3,2.8-9.6,2.8c-0.5,0-0.9,0-1.4,0"/>
		<path id="XMLID_1386_" fill="none" stroke="#1A96D4" stroke-width="2" stroke-linecap="round" stroke-miterlimit="10" d="
			M-191.1,445.8c0,1.6-4.3,2.8-9.6,2.8c-1.1,0-2.2-0.1-3.2-0.2"/>
		<path id="XMLID_1385_" fill="none" stroke="#1A96D4" stroke-width="2" stroke-linecap="round" stroke-miterlimit="10" d="
			M-210.3,446.4"/>
		
			<line id="XMLID_1384_" fill="none" stroke="#1A96D4" stroke-width="2" stroke-linecap="round" stroke-miterlimit="10" x1="-210.3" y1="425.8" x2="-210.3" y2="434.3"/>
		
			<line id="XMLID_1383_" fill="none" stroke="#1A96D4" stroke-width="2" stroke-linecap="round" stroke-miterlimit="10" x1="-191.1" y1="425.8" x2="-191.1" y2="446.4"/>
		<g id="XMLID_1365_">
			<path id="XMLID_1382_" fill="none" stroke="#1A96D4" stroke-width="2" stroke-linecap="round" stroke-miterlimit="10" d="
				M-221.3,443.8v3c0,1.6,4.3,2.8,9.6,2.8s9.6-1.3,9.6-2.8v-4"/>
			<path id="XMLID_1381_" fill="none" stroke="#1A96D4" stroke-width="2" stroke-linecap="round" stroke-miterlimit="10" d="
				M-205.5,440.6c2.1,0.5,3.4,1.3,3.4,2.2c0,1.6-4.3,2.8-9.6,2.8c-4.6,0-8.5-1-9.4-2.3"/>
		</g>
		<g id="XMLID_1360_">
			
				<ellipse id="XMLID_1364_" fill="none" stroke="#1A96D4" stroke-width="2" stroke-linecap="round" stroke-miterlimit="10" cx="-215.1" cy="436.8" rx="9.6" ry="2.8"/>
			<path id="XMLID_1363_" fill="none" stroke="#1A96D4" stroke-width="2" stroke-linecap="round" stroke-miterlimit="10" d="
				M-205.5,440.8c0,1.6-4.3,2.8-9.6,2.8s-9.6-1.3-9.6-2.8"/>
			
				<line id="XMLID_1362_" fill="none" stroke="#1A96D4" stroke-width="2" stroke-linecap="round" stroke-miterlimit="10" x1="-205.5" y1="436.8" x2="-205.5" y2="440.8"/>
			
				<line id="XMLID_1361_" fill="none" stroke="#1A96D4" stroke-width="2" stroke-linecap="round" stroke-miterlimit="10" x1="-224.6" y1="436.8" x2="-224.6" y2="440.8"/>
		</g>
	</g>
</g>
</svg>
