<?xml version="1.0" encoding="utf-8"?>
<!-- Generator: Adobe Illustrator 19.0.0, SVG Export Plug-In . SVG Version: 6.00 Build 0)  -->
<svg version="1.2" baseProfile="tiny" id="Layer_1" xmlns="http://www.w3.org/2000/svg" xmlns:xlink="http://www.w3.org/1999/xlink"
	 x="0px" y="0px" width="77px" height="81px" viewBox="-259 380.9 77 81" xml:space="preserve">
<line id="XMLID_1312_" fill="none" stroke="#595857" stroke-width="2" stroke-linecap="round" stroke-miterlimit="10" x1="-200.3" y1="435.2" x2="-200.3" y2="447.7"/>
<line id="XMLID_1107_" fill="none" stroke="#595857" stroke-width="2" stroke-linecap="round" stroke-miterlimit="10" x1="-200.3" y1="417.5" x2="-200.3" y2="438.4"/>
<polyline id="XMLID_1106_" fill="none" stroke="#595857" stroke-width="2" stroke-linecap="round" stroke-miterlimit="10" points="
	-242.4,447.7 -242.4,414 -213.4,414 "/>
<polyline id="XMLID_194_" fill="none" stroke="#595857" stroke-width="2" stroke-linecap="round" stroke-linejoin="round" stroke-miterlimit="10" points="
	-214.9,399.4 -221.4,395.1 -225.7,398 "/>
<polyline id="XMLID_193_" fill="none" stroke="#595857" stroke-width="2" stroke-linecap="round" stroke-linejoin="round" stroke-miterlimit="10" points="
	-231.5,401.8 -250,414 -213.4,414 "/>
<polyline id="XMLID_1309_" fill="none" stroke="#595857" stroke-width="2" stroke-linecap="round" stroke-linejoin="round" stroke-miterlimit="10" points="
	-219.8,448 -247.8,448 -247.8,451.2 -194.9,451.2 -194.9,448 -220.3,448 "/>
<polyline id="XMLID_1308_" fill="none" stroke="#595857" stroke-width="2" stroke-linecap="round" stroke-linejoin="round" stroke-miterlimit="10" points="
	-239,406.8 -239,398 -244,398 -244,410 "/>
<polyline id="XMLID_1307_" fill="none" stroke="#595857" stroke-width="2" stroke-linecap="round" stroke-miterlimit="10" points="
	-218.5,447.5 -218.5,437.2 -224.4,437.2 -224.4,448 -219.9,448 "/>
<rect id="XMLID_1306_" x="-237.4" y="418.1" fill="none" stroke="#89BB41" stroke-width="2" stroke-linecap="round" stroke-miterlimit="10" width="5.9" height="5.9"/>
<rect id="XMLID_1305_" x="-224.4" y="418.1" fill="none" stroke="#89BB41" stroke-width="2" stroke-linecap="round" stroke-miterlimit="10" width="5.9" height="5.9"/>
<rect id="XMLID_1303_" x="-237.4" y="428.1" fill="none" stroke="#89BB41" stroke-width="2" stroke-linecap="round" stroke-miterlimit="10" width="5.9" height="5.9"/>
<rect id="XMLID_1302_" x="-224.4" y="428.1" fill="none" stroke="#89BB41" stroke-width="2" stroke-linecap="round" stroke-miterlimit="10" width="5.9" height="5.9"/>
<g id="XMLID_1295_">
	<path id="XMLID_1300_" fill="none" stroke="#585857" stroke-width="2" stroke-linecap="round" stroke-miterlimit="10" d="
		M-243.5,409.7c-0.6-0.4-1.2-0.6-1.8-0.6c-1,0-2,0.6-2.9,1.6c-0.2-0.1-0.4-0.1-0.7-0.1c-1.6,0-3,1.3-3,3c0,0.8,0.3,1.4,0.8,2
		c-1.1,0.4-1.9,1.5-1.9,2.8c0,1.2,0.7,2.3,1.8,2.7c-0.5,0.5-0.8,1.3-0.8,2c0,1.3,0.9,2.4,2.1,2.8"/>
	
		<line id="XMLID_1299_" fill="none" stroke="#585857" stroke-width="2" stroke-linecap="round" stroke-miterlimit="10" x1="-245.4" y1="447.8" x2="-245.4" y2="416.7"/>
	
		<line id="XMLID_1298_" fill="none" stroke="#585857" stroke-width="2" stroke-linecap="round" stroke-miterlimit="10" x1="-245.9" y1="424.6" x2="-248.2" y2="422.3"/>
	
		<line id="XMLID_1297_" fill="none" stroke="#585857" stroke-width="2" stroke-linecap="round" stroke-miterlimit="10" x1="-245" y1="422.9" x2="-242.8" y2="420.8"/>
	<path id="XMLID_1296_" fill="none" stroke="#585857" stroke-width="2" stroke-linecap="round" stroke-miterlimit="10" d="
		M-242.4,430.2c-0.8,0.5-1.8,0.9-2.9,0.9c-2.8,0-5-2.1-5-4.6"/>
</g>
<g id="XMLID_1278_">
	<path id="XMLID_1109_" fill="none" stroke="#585857" stroke-width="2" stroke-linecap="round" stroke-miterlimit="10" d="
		M-191.9,410.3c1.1,0.5,1.8,1.5,1.8,2.7c0,0.8-0.3,1.4-0.8,2c1.1,0.4,1.9,1.5,1.9,2.8c0,1.2-0.7,2.3-1.8,2.7c0.5,0.5,0.8,1.3,0.8,2
		c0,1.3-0.9,2.4-2.1,2.8"/>
	
		<line id="XMLID_1286_" fill="none" stroke="#585857" stroke-width="2" stroke-linecap="round" stroke-miterlimit="10" x1="-196.5" y1="447.3" x2="-196.5" y2="416.1"/>
	
		<line id="XMLID_1285_" fill="none" stroke="#585857" stroke-width="2" stroke-linecap="round" stroke-miterlimit="10" x1="-195.9" y1="424.1" x2="-193.7" y2="421.8"/>
	
		<line id="XMLID_1281_" fill="none" stroke="#585857" stroke-width="2" stroke-linecap="round" stroke-miterlimit="10" x1="-196.9" y1="422.4" x2="-199" y2="420.3"/>
	<path id="XMLID_1279_" fill="none" stroke="#585857" stroke-width="2" stroke-linecap="round" stroke-miterlimit="10" d="
		M-199.4,429.7c0.8,0.5,1.8,0.9,2.9,0.9c2.8,0,5-2.1,5-4.6"/>
</g>
<rect id="XMLID_1289_" x="-211.4" y="418" fill="none" stroke="#89BB41" stroke-width="2" stroke-linecap="round" stroke-miterlimit="10" width="5.9" height="5.9"/>
<rect id="XMLID_1288_" x="-211.4" y="428" fill="none" stroke="#89BB41" stroke-width="2" stroke-linecap="round" stroke-miterlimit="10" width="5.9" height="5.9"/>
<g id="XMLID_1290_">
	
		<circle id="XMLID_1294_" fill="none" stroke="#1A96D4" stroke-width="2" stroke-linecap="round" stroke-miterlimit="10" cx="-203.7" cy="405.2" r="12.7"/>
	<path id="XMLID_1293_" fill="none" stroke="#1A96D4" stroke-width="2" stroke-linecap="round" stroke-miterlimit="10" d="
		M-203.7,412.8c-4.2,0-7.6-3.4-7.6-7.6"/>
	
		<path id="XMLID_1292_" fill="none" stroke="#1A96D4" stroke-width="2" stroke-linecap="round" stroke-linejoin="round" stroke-miterlimit="10" d="
		M-194.7,414.2l5.6,5.6L-194.7,414.2z"/>
	
		<circle id="XMLID_1291_" fill="none" stroke="#1A96D4" stroke-width="2" stroke-linecap="round" stroke-miterlimit="10" cx="-211" cy="401.8" r="0.4"/>
</g>
</svg>
