<?xml version="1.0" encoding="utf-8"?>
<!-- Generator: Adobe Illustrator 19.0.0, SVG Export Plug-In . SVG Version: 6.00 Build 0)  -->
<svg version="1.2" baseProfile="tiny" id="Layer_1" xmlns="http://www.w3.org/2000/svg" xmlns:xlink="http://www.w3.org/1999/xlink"
	 x="0px" y="0px" width="77px" height="81px" viewBox="-259 380.9 77 81" xml:space="preserve">
<path id="XMLID_1284_" fill="none" stroke="#595857" stroke-width="2" stroke-linecap="round" stroke-linejoin="round" stroke-miterlimit="10" d="
	M-242.2,447.5c-5.5,0-8.8-6.4-8.8-11.2h33c0,0-0.1,0.2,0.1,1.4"/>
<line id="XMLID_1283_" fill="none" stroke="#595857" stroke-width="2" stroke-linecap="round" stroke-linejoin="round" stroke-miterlimit="10" x1="-210.1" y1="447.5" x2="-242.6" y2="447.5"/>
<line id="XMLID_172_" fill="none" stroke="#595857" stroke-width="2" stroke-linecap="round" stroke-miterlimit="10" x1="-201.3" y1="417.5" x2="-201.3" y2="436.7"/>
<line id="XMLID_22_" fill="none" stroke="#595857" stroke-width="2" stroke-linecap="round" stroke-miterlimit="10" x1="-230.5" y1="394.9" x2="-213.1" y2="394.9"/>
<path id="XMLID_1262_" fill="none" stroke="#595857" stroke-width="2" stroke-linecap="round" stroke-miterlimit="10" d="
	M-243,436.3v-40c0-0.8,0.6-1.4,1.4-1.4h4.1"/>
<path id="XMLID_171_" fill="none" stroke="#595857" stroke-width="2" stroke-linecap="round" stroke-miterlimit="10" d="
	M-195.3,414.2v29.3v1.4v5.6c0,0.8-0.6,1.4-1.4,1.4h-8.6h-18.2h-8.6c-0.8,0-1.4-0.6-1.4-1.4v-3"/>
<line id="XMLID_1277_" fill="none" stroke="#595857" stroke-width="2" stroke-linecap="round" stroke-miterlimit="10" x1="-221.7" y1="415.8" x2="-209.3" y2="415.8"/>
<line id="XMLID_1276_" fill="none" stroke="#595857" stroke-width="2" stroke-linecap="round" stroke-miterlimit="10" x1="-221.7" y1="418.8" x2="-206.3" y2="418.8"/>
<rect id="XMLID_1274_" x="-237.5" y="413.4" fill="none" stroke="#595857" stroke-width="2" stroke-linecap="round" stroke-miterlimit="10" width="8.4" height="8.4"/>
<polyline id="XMLID_1273_" fill="none" stroke="#89BB41" stroke-width="2" stroke-linecap="round" stroke-miterlimit="10" points="
	-226.1,414.2 -231.2,419.4 -234.5,416.1 "/>
<line id="XMLID_1272_" fill="none" stroke="#595857" stroke-width="2" stroke-linecap="round" stroke-miterlimit="10" x1="-221.7" y1="427.8" x2="-206.3" y2="427.8"/>
<line id="XMLID_1271_" fill="none" stroke="#595857" stroke-width="2" stroke-linecap="round" stroke-miterlimit="10" x1="-221.7" y1="430.8" x2="-206.3" y2="430.8"/>
<rect id="XMLID_1270_" x="-237.5" y="425.4" fill="none" stroke="#595857" stroke-width="2" stroke-linecap="round" stroke-miterlimit="10" width="8.4" height="8.4"/>
<polyline id="XMLID_1269_" fill="none" stroke="#89BB41" stroke-width="2" stroke-linecap="round" stroke-miterlimit="10" points="
	-226.1,426.2 -231.2,431.4 -234.5,428.1 "/>
<polyline id="XMLID_192_" fill="none" stroke="#595857" stroke-width="2" stroke-linecap="round" stroke-miterlimit="10" points="
	-216.3,400.7 -237.5,400.7 -237.5,407.6 -216,407.6 "/>
<path id="XMLID_1159_" fill="none" stroke="#595857" stroke-width="2" stroke-linecap="round" stroke-linejoin="round" stroke-miterlimit="10" d="
	M-209.2,447.5c-5.5,0-8.8-6.4-8.8-11.2"/>
<path id="XMLID_1158_" fill="none" stroke="#595857" stroke-width="2" stroke-linecap="round" stroke-linejoin="round" stroke-miterlimit="10" d="
	M-210,447.5c5.5,0,8.7-6,8.7-10.8"/>
<g id="XMLID_1263_">
	
		<circle id="XMLID_1267_" fill="none" stroke="#1A96D4" stroke-width="2" stroke-linecap="round" stroke-miterlimit="10" cx="-204" cy="404.2" r="12.7"/>
	<path id="XMLID_1266_" fill="none" stroke="#1A96D4" stroke-width="2" stroke-linecap="round" stroke-miterlimit="10" d="
		M-204,411.8c-4.2,0-7.6-3.4-7.6-7.6"/>
	
		<path id="XMLID_1265_" fill="none" stroke="#1A96D4" stroke-width="2" stroke-linecap="round" stroke-linejoin="round" stroke-miterlimit="10" d="
		M-195,413.2l5.6,5.6L-195,413.2z"/>
	
		<circle id="XMLID_1264_" fill="none" stroke="#1A96D4" stroke-width="2" stroke-linecap="round" stroke-miterlimit="10" cx="-211.4" cy="400.8" r="0.4"/>
</g>
</svg>
