<?xml version="1.0" encoding="utf-8"?>
<!-- Generator: Adobe Illustrator 19.0.0, SVG Export Plug-In . SVG Version: 6.00 Build 0)  -->
<svg version="1.2" baseProfile="tiny" xmlns="http://www.w3.org/2000/svg" xmlns:xlink="http://www.w3.org/1999/xlink" x="0px"
	 y="0px" width="77px" height="81px" viewBox="-259 380.9 77 81" xml:space="preserve">
<g id="Layer_1">
</g>
<g id="Layer_2">
	
		<line id="XMLID_1219_" fill="none" stroke="#595857" stroke-width="2" stroke-linecap="round" stroke-miterlimit="10" x1="-199.3" y1="414.4" x2="-199.3" y2="443.6"/>
	
		<line id="XMLID_1221_" fill="none" stroke="#595857" stroke-width="2" stroke-linecap="round" stroke-miterlimit="10" x1="-221.7" y1="398.1" x2="-217.2" y2="398.1"/>
	
		<line id="XMLID_1191_" fill="none" stroke="#595857" stroke-width="2" stroke-linecap="round" stroke-miterlimit="10" x1="-231.8" y1="398.1" x2="-227.8" y2="398.1"/>
	<path id="XMLID_1218_" fill="none" stroke="#595857" stroke-width="2" stroke-linecap="round" stroke-miterlimit="10" d="
		M-208.9,453.1h-39c-0.8,0-1.4-0.6-1.4-1.4v-52.2c0-0.8,0.6-1.4,1.4-1.4h10.1"/>
	<g id="XMLID_1194_">
		<path id="XMLID_1193_" fill="none" stroke="#595857" stroke-width="2" stroke-linecap="round" stroke-miterlimit="10" d="
			M-235.3,405.1L-235.3,405.1c-1.4,0-2.5-1.1-2.5-2.5v-9c0-1.4,1.1-2.5,2.5-2.5l0,0c1.4,0,2.5,1.1,2.5,2.5v9
			C-232.8,404-233.9,405.1-235.3,405.1z"/>
		<path id="XMLID_1195_" fill="none" stroke="#595857" stroke-width="2" stroke-linecap="round" stroke-miterlimit="10" d="
			M-225.3,405.1L-225.3,405.1c-1.4,0-2.5-1.1-2.5-2.5v-9c0-1.4,1.1-2.5,2.5-2.5h0c1.4,0,2.5,1.1,2.5,2.5v9
			C-222.8,404-223.9,405.1-225.3,405.1z"/>
		<path id="XMLID_1196_" fill="none" stroke="#595857" stroke-width="2" stroke-linecap="round" stroke-miterlimit="10" d="
			M-217.7,397.2v-3.5c0-1.4,1.1-2.5,2.5-2.5l0,0c1,0,1.8,0.5,2.2,1.3"/>
	</g>
	
		<line id="XMLID_1225_" fill="none" stroke="#595857" stroke-width="2" stroke-linecap="round" stroke-miterlimit="10" x1="-237.8" y1="409.2" x2="-217.3" y2="409.2"/>
	
		<line id="XMLID_1213_" fill="none" stroke="#595857" stroke-width="2" stroke-linecap="round" stroke-miterlimit="10" x1="-249.3" y1="409.2" x2="-243.3" y2="409.2"/>
	<g id="XMLID_1169_">
		
			<circle id="XMLID_1204_" fill="none" stroke="#1A96D4" stroke-width="2" stroke-linecap="round" stroke-miterlimit="10" cx="-205.8" cy="403.5" r="12.7"/>
		<path id="XMLID_1203_" fill="none" stroke="#1A96D4" stroke-width="2" stroke-linecap="round" stroke-miterlimit="10" d="
			M-205.8,411.1c-4.2,0-7.6-3.4-7.6-7.6"/>
		
			<path id="XMLID_1202_" fill="none" stroke="#1A96D4" stroke-width="2" stroke-linecap="round" stroke-linejoin="round" stroke-miterlimit="10" d="
			M-196.8,412.4l5.6,5.6L-196.8,412.4z"/>
		
			<circle id="XMLID_1201_" fill="none" stroke="#1A96D4" stroke-width="2" stroke-linecap="round" stroke-miterlimit="10" cx="-213.1" cy="400" r="0.4"/>
	</g>
	<g id="XMLID_1205_">
		<path id="XMLID_1224_" fill="none" stroke="#89BB41" stroke-width="2" stroke-linecap="round" stroke-miterlimit="10" d="
			M-215.3,433.3v-9.9c0-1.6-1.3-2.8-2.8-2.8h-5.6c-1.6,0-2.8,1.3-2.8,2.8v19.1h6.8"/>
		
			<rect id="XMLID_1212_" x="-233.3" y="428.8" fill="none" stroke="#89BB41" stroke-width="2" stroke-linecap="round" stroke-miterlimit="10" width="6.8" height="13.8"/>
		
			<line id="XMLID_1211_" fill="none" stroke="#89BB41" stroke-width="2" stroke-linecap="round" stroke-miterlimit="10" x1="-218.9" y1="425.3" x2="-218.9" y2="434.7"/>
		
			<line id="XMLID_1210_" fill="none" stroke="#89BB41" stroke-width="2" stroke-linecap="round" stroke-miterlimit="10" x1="-222.9" y1="425.3" x2="-222.9" y2="438.7"/>
		
			<line id="XMLID_1209_" fill="none" stroke="#89BB41" stroke-width="2" stroke-linecap="round" stroke-miterlimit="10" x1="-230.3" y1="432" x2="-229.4" y2="432"/>
		
			<line id="XMLID_1208_" fill="none" stroke="#89BB41" stroke-width="2" stroke-linecap="round" stroke-miterlimit="10" x1="-230.3" y1="434.6" x2="-229.4" y2="434.6"/>
		
			<line id="XMLID_1207_" fill="none" stroke="#89BB41" stroke-width="2" stroke-linecap="round" stroke-miterlimit="10" x1="-230.3" y1="437.2" x2="-229.4" y2="437.2"/>
		
			<line id="XMLID_1206_" fill="none" stroke="#89BB41" stroke-width="2" stroke-linecap="round" stroke-miterlimit="10" x1="-230.3" y1="439.9" x2="-229.4" y2="439.9"/>
	</g>
	<path id="XMLID_1226_" fill="none" stroke="#595857" stroke-width="2" stroke-linecap="round" stroke-miterlimit="10" d="
		M-239,440.5c-1.6-2.6-2.5-5.6-2.5-8.9c0-9.5,7.7-17.2,17.2-17.2c9.5,0,17.2,7.7,17.2,17.2c0,2.1-0.4,4.2-1.1,6"/>
	<path id="XMLID_1197_" fill="none" stroke="#595857" stroke-width="2" stroke-linecap="round" stroke-miterlimit="10" d="
		M-214.9,446c-2.7,1.7-5.9,2.8-9.3,2.8c-3.6,0-6.9-1.1-9.6-2.9"/>
	
		<line id="XMLID_1215_" fill="none" stroke="#595857" stroke-width="2" stroke-linecap="round" stroke-miterlimit="10" x1="-199.3" y1="443.4" x2="-208.4" y2="452.5"/>
	
		<line id="XMLID_1216_" fill="none" stroke="#595857" stroke-width="2" stroke-linecap="round" stroke-miterlimit="10" x1="-208.4" y1="452.5" x2="-208.4" y2="443.6"/>
	
		<line id="XMLID_1217_" fill="none" stroke="#595857" stroke-width="2" stroke-linecap="round" stroke-miterlimit="10" x1="-208.4" y1="443.6" x2="-200.3" y2="443.6"/>
	
		<circle id="XMLID_1220_" fill="none" stroke="#595857" stroke-width="2" stroke-linecap="round" stroke-miterlimit="10" cx="-214.3" cy="439.5" r="6.2"/>
	
		<line id="XMLID_1214_" fill="none" stroke="#595857" stroke-width="2" stroke-linecap="round" stroke-miterlimit="10" x1="-214.3" y1="436.4" x2="-214.3" y2="439.5"/>
	
		<line id="XMLID_1223_" fill="none" stroke="#595857" stroke-width="2" stroke-linecap="round" stroke-miterlimit="10" x1="-214.3" y1="439.5" x2="-211.8" y2="439.5"/>
</g>
</svg>
