<?xml version="1.0" encoding="utf-8"?>
<!-- Generator: Adobe Illustrator 19.0.0, SVG Export Plug-In . SVG Version: 6.00 Build 0)  -->
<svg version="1.2" baseProfile="tiny" id="Layer_1" xmlns="http://www.w3.org/2000/svg" xmlns:xlink="http://www.w3.org/1999/xlink"
	 x="0px" y="0px" width="77px" height="81px" viewBox="-259 380.9 77 81" xml:space="preserve">
<path id="XMLID_1199_" fill="none" stroke="#595857" stroke-width="2" stroke-linecap="round" stroke-miterlimit="10" d="
	M-234.2,392.1h40.8c0.8,0,1.4,0.6,1.4,1.4v38.5"/>
<path id="XMLID_1198_" fill="none" stroke="#595857" stroke-width="2" stroke-linecap="round" stroke-miterlimit="10" d="
	M-216.4,436.5h-31.5c-0.8,0-1.4-0.6-1.4-1.4v-41.5c0-0.8,0.6-1.4,1.4-1.4h5.2"/>
<line id="XMLID_1175_" fill="none" stroke="#595857" stroke-width="2" stroke-linecap="round" stroke-miterlimit="10" x1="-196.7" y1="427" x2="-192" y2="427"/>
<line id="XMLID_1174_" fill="none" stroke="#595857" stroke-width="2" stroke-linecap="round" stroke-miterlimit="10" x1="-249.3" y1="427" x2="-210.9" y2="427"/>
<g id="XMLID_1168_">
	<path id="XMLID_1166_" fill="none" stroke="#595857" stroke-width="2" stroke-linecap="round" stroke-miterlimit="10" d="
		M-224.2,437.1v4.3c0,2.7-2.2,4.9-4.9,4.9h0"/>
	<path id="XMLID_1176_" fill="none" stroke="#595857" stroke-width="2" stroke-linecap="round" stroke-miterlimit="10" d="
		M-212.2,446.4"/>
	<path id="XMLID_1165_" fill="none" stroke="#595857" stroke-width="2" stroke-linecap="round" stroke-miterlimit="10" d="
		M-217.1,437.1v4.3c0,2.4,1.8,4.5,4.1,4.9"/>
	<path id="XMLID_1200_" fill="none" stroke="#595857" stroke-width="2" stroke-linecap="round" stroke-miterlimit="10" d="
		M-218.7,450.9h-14.1c-0.8,0-1.4-0.6-1.4-1.4v-1.8c0-0.8,0.6-1.4,1.4-1.4h19.9"/>
	<path id="XMLID_1161_" fill="none" stroke="#595857" stroke-width="2" stroke-linecap="round" stroke-miterlimit="10" d="
		M-207.1,449.9c-0.2,0.6-0.7,1-1.3,1h-4.7"/>
</g>
<g id="XMLID_1162_">
	<path id="XMLID_1164_" fill="none" stroke="#1A96D4" stroke-width="2" stroke-linecap="round" stroke-miterlimit="10" d="
		M-199.6,449.4c-1.3,0.4-2.7,0.7-4.1,0.7c-7,0-12.7-5.7-12.7-12.7c0-0.3,0-0.7,0-1c0.5-6.5,6-11.7,12.6-11.7c5.6,0,10.4,3.6,12,8.7
		c0.4,1.3,0.6,2.6,0.6,4c0,2.8-0.9,5.3-2.4,7.4"/>
	<polyline id="XMLID_1163_" fill="none" stroke="#1A96D4" stroke-width="2" stroke-linecap="round" stroke-miterlimit="10" points="
		-197.3,433.6 -205.2,441.4 -210.2,436.4 	"/>
</g>
<g id="XMLID_1167_">
	<path id="XMLID_1239_" fill="none" stroke="#595857" stroke-width="2" stroke-linecap="round" stroke-miterlimit="10" d="
		M-208.7,420.6h-23.7c-0.8,0-1.4-0.6-1.4-1.4v-20.2c0-0.8,0.6-1.4,1.4-1.4h23.7c0.8,0,1.4,0.6,1.4,1.4v10.5"/>
	<path id="XMLID_1192_" fill="none" stroke="#595857" stroke-width="2" stroke-linecap="round" stroke-miterlimit="10" d="
		M-210.3,420.6v1.6c0,0.8-0.6,1.4-1.4,1.4h-23.7c-0.8,0-1.4-0.6-1.4-1.4v-20.2c0-0.8,0.6-1.4,1.4-1.4h1.6"/>
	
		<line id="XMLID_1189_" fill="none" stroke="#595857" stroke-width="2" stroke-linecap="round" stroke-miterlimit="10" x1="-233.9" y1="403.5" x2="-207.3" y2="403.5"/>
	
		<line id="XMLID_1188_" fill="none" stroke="#595857" stroke-width="2" stroke-linecap="round" stroke-miterlimit="10" x1="-228.7" y1="408.1" x2="-226.8" y2="408.1"/>
	
		<line id="XMLID_1187_" fill="none" stroke="#595857" stroke-width="2" stroke-linecap="round" stroke-miterlimit="10" x1="-223.7" y1="408.1" x2="-221.8" y2="408.1"/>
	
		<line id="XMLID_1186_" fill="none" stroke="#595857" stroke-width="2" stroke-linecap="round" stroke-miterlimit="10" x1="-218.7" y1="408.1" x2="-216.8" y2="408.1"/>
	
		<line id="XMLID_1185_" fill="none" stroke="#595857" stroke-width="2" stroke-linecap="round" stroke-miterlimit="10" x1="-213.7" y1="408.1" x2="-211.8" y2="408.1"/>
	
		<line id="XMLID_1184_" fill="none" stroke="#595857" stroke-width="2" stroke-linecap="round" stroke-miterlimit="10" x1="-228.7" y1="412.1" x2="-226.8" y2="412.1"/>
	
		<line id="XMLID_1183_" fill="none" stroke="#595857" stroke-width="2" stroke-linecap="round" stroke-miterlimit="10" x1="-223.7" y1="412.1" x2="-221.8" y2="412.1"/>
	
		<line id="XMLID_1182_" fill="none" stroke="#595857" stroke-width="2" stroke-linecap="round" stroke-miterlimit="10" x1="-218.7" y1="412.1" x2="-216.8" y2="412.1"/>
	
		<line id="XMLID_1181_" fill="none" stroke="#595857" stroke-width="2" stroke-linecap="round" stroke-miterlimit="10" x1="-213.7" y1="412.1" x2="-212.8" y2="412.1"/>
	
		<line id="XMLID_1180_" fill="none" stroke="#595857" stroke-width="2" stroke-linecap="round" stroke-miterlimit="10" x1="-228.7" y1="416.1" x2="-226.8" y2="416.1"/>
	
		<line id="XMLID_1179_" fill="none" stroke="#595857" stroke-width="2" stroke-linecap="round" stroke-miterlimit="10" x1="-223.7" y1="416.1" x2="-221.8" y2="416.1"/>
	
		<line id="XMLID_1178_" fill="none" stroke="#595857" stroke-width="2" stroke-linecap="round" stroke-miterlimit="10" x1="-218.7" y1="416.1" x2="-216.8" y2="416.1"/>
	
		<line id="XMLID_1177_" fill="none" stroke="#595857" stroke-width="2" stroke-linecap="round" stroke-miterlimit="10" x1="-213.7" y1="416.1" x2="-213.8" y2="416.1"/>
	
		<line id="XMLID_1172_" fill="none" stroke="#595857" stroke-width="2" stroke-linecap="round" stroke-miterlimit="10" x1="-227.8" y1="395.1" x2="-227.8" y2="400.8"/>
	
		<line id="XMLID_1171_" fill="none" stroke="#595857" stroke-width="2" stroke-linecap="round" stroke-miterlimit="10" x1="-213.8" y1="395.1" x2="-213.8" y2="400.8"/>
</g>
<path id="XMLID_1173_" fill="none" stroke="#89BB41" stroke-width="2" stroke-linecap="round" stroke-miterlimit="10" d="
	M-212.3,409.3l-0.9,7.7c-0.1,1.2,1.1,2,2.1,1.4l0.4-0.2c0.7-0.4,1.5-0.2,1.9,0.5l1.9,3.4c0.4,0.7,1.3,0.9,1.9,0.5l2.3-1.4
	c0.7-0.4,0.9-1.3,0.5-1.9l-1.9-3.4c-0.4-0.7-0.2-1.5,0.5-1.9l0.4-0.2c1-0.6,0.9-2.1-0.2-2.5l-7.2-3
	C-211.2,407.8-212.2,408.4-212.3,409.3z"/>
</svg>
