<?xml version="1.0" encoding="utf-8"?>
<!-- Generator: Adobe Illustrator 19.0.0, SVG Export Plug-In . SVG Version: 6.00 Build 0)  -->
<svg version="1.2" baseProfile="tiny" id="Layer_1" xmlns="http://www.w3.org/2000/svg" xmlns:xlink="http://www.w3.org/1999/xlink"
	 x="0px" y="0px" width="77px" height="81px" viewBox="-259 380.9 77 81" xml:space="preserve">
<path id="XMLID_1257_" fill="none" stroke="#595857" stroke-width="2" stroke-linecap="round" stroke-miterlimit="10" d="
	M-234.2,392.1h40.8c0.8,0,1.4,0.6,1.4,1.4v38.5"/>
<path id="XMLID_1256_" fill="none" stroke="#595857" stroke-width="2" stroke-linecap="round" stroke-miterlimit="10" d="
	M-216.4,436.5h-31.5c-0.8,0-1.4-0.6-1.4-1.4v-41.5c0-0.8,0.6-1.4,1.4-1.4h5.2"/>
<line id="XMLID_1255_" fill="none" stroke="#595857" stroke-width="2" stroke-linecap="round" stroke-miterlimit="10" x1="-196.6" y1="427" x2="-192" y2="427"/>
<line id="XMLID_1254_" fill="none" stroke="#595857" stroke-width="2" stroke-linecap="round" stroke-miterlimit="10" x1="-249.3" y1="427" x2="-210.8" y2="427"/>
<g id="XMLID_1248_">
	<path id="XMLID_1253_" fill="none" stroke="#595857" stroke-width="2" stroke-linecap="round" stroke-miterlimit="10" d="
		M-224.2,437.1v4.3c0,2.7-2.2,4.9-4.9,4.9h0"/>
	<path id="XMLID_1252_" fill="none" stroke="#595857" stroke-width="2" stroke-linecap="round" stroke-miterlimit="10" d="
		M-212.2,446.4"/>
	<path id="XMLID_1251_" fill="none" stroke="#595857" stroke-width="2" stroke-linecap="round" stroke-miterlimit="10" d="
		M-217.1,437.1v4.3c0,2.4,1.8,4.5,4.1,4.9"/>
	<path id="XMLID_1250_" fill="none" stroke="#595857" stroke-width="2" stroke-linecap="round" stroke-miterlimit="10" d="
		M-218.7,450.9h-14.1c-0.8,0-1.4-0.6-1.4-1.4v-1.8c0-0.8,0.6-1.4,1.4-1.4h19.9"/>
	<path id="XMLID_1249_" fill="none" stroke="#595857" stroke-width="2" stroke-linecap="round" stroke-miterlimit="10" d="
		M-207.1,449.9c-0.2,0.6-0.7,1-1.3,1h-4.7"/>
</g>
<g id="XMLID_1245_">
	<path id="XMLID_1247_" fill="none" stroke="#1A96D4" stroke-width="2" stroke-linecap="round" stroke-miterlimit="10" d="
		M-199.6,449.4c-1.3,0.4-2.7,0.7-4.1,0.7c-7,0-12.7-5.7-12.7-12.7c0-0.3,0-0.7,0-1c0.5-6.5,6-11.7,12.6-11.7c5.6,0,10.4,3.6,12,8.7
		c0.4,1.3,0.6,2.6,0.6,4c0,2.8-0.9,5.3-2.4,7.4"/>
	
		<path id="XMLID_1246_" fill="none" stroke="#1A96D4" stroke-width="2" stroke-linecap="round" stroke-linejoin="round" stroke-miterlimit="10" d="
		M-195.8,439l-6.3,1l-4,5l-1.5-13.9c0-0.3,0.3-0.5,0.5-0.3L-195.8,439z"/>
</g>
<g id="XMLID_1227_">
	<path id="XMLID_1235_" fill="none" stroke="#595857" stroke-width="2" stroke-linecap="round" stroke-miterlimit="10" d="
		M-225.9,399.2h-5.6c-1.6,0-2.8,1.3-2.8,2.8v19.1h11.3V402C-223.1,400.5-224.4,399.2-225.9,399.2z"/>
	
		<rect id="XMLID_1234_" x="-241.1" y="407.4" fill="none" stroke="#595857" stroke-width="2" stroke-linecap="round" stroke-miterlimit="10" width="6.8" height="13.8"/>
	
		<line id="XMLID_1233_" fill="none" stroke="#595857" stroke-width="2" stroke-linecap="round" stroke-miterlimit="10" x1="-226.7" y1="403.8" x2="-226.7" y2="417.3"/>
	
		<line id="XMLID_1232_" fill="none" stroke="#595857" stroke-width="2" stroke-linecap="round" stroke-miterlimit="10" x1="-230.7" y1="403.8" x2="-230.7" y2="417.3"/>
	
		<line id="XMLID_1231_" fill="none" stroke="#595857" stroke-width="2" stroke-linecap="round" stroke-miterlimit="10" x1="-238.1" y1="410.6" x2="-237.3" y2="410.6"/>
	
		<line id="XMLID_1230_" fill="none" stroke="#595857" stroke-width="2" stroke-linecap="round" stroke-miterlimit="10" x1="-238.1" y1="413.2" x2="-237.3" y2="413.2"/>
	
		<line id="XMLID_1229_" fill="none" stroke="#595857" stroke-width="2" stroke-linecap="round" stroke-miterlimit="10" x1="-238.1" y1="415.8" x2="-237.3" y2="415.8"/>
	
		<line id="XMLID_1228_" fill="none" stroke="#595857" stroke-width="2" stroke-linecap="round" stroke-miterlimit="10" x1="-238.1" y1="418.5" x2="-237.3" y2="418.5"/>
</g>
<line id="XMLID_1236_" fill="none" stroke="#595857" stroke-width="2" stroke-linecap="round" stroke-miterlimit="10" x1="-215.9" y1="402.5" x2="-202.5" y2="402.5"/>
<line id="XMLID_1237_" fill="none" stroke="#595857" stroke-width="2" stroke-linecap="round" stroke-miterlimit="10" x1="-215.9" y1="407.8" x2="-198.7" y2="407.8"/>
<line id="XMLID_1601_" fill="none" stroke="#595857" stroke-width="2" stroke-linecap="round" stroke-miterlimit="10" x1="-202.5" y1="413" x2="-198.7" y2="413"/>
<line id="XMLID_1600_" fill="none" stroke="#595857" stroke-width="2" stroke-linecap="round" stroke-miterlimit="10" x1="-215.9" y1="413" x2="-212.7" y2="413"/>
<line id="XMLID_1602_" fill="none" stroke="#595857" stroke-width="2" stroke-linecap="round" stroke-miterlimit="10" x1="-202.5" y1="418.3" x2="-198.7" y2="418.3"/>
<line id="XMLID_1238_" fill="none" stroke="#595857" stroke-width="2" stroke-linecap="round" stroke-miterlimit="10" x1="-215.9" y1="418.3" x2="-209.2" y2="418.3"/>
<path id="XMLID_1222_" fill="none" stroke="#89BB41" stroke-width="2" stroke-linecap="round" stroke-miterlimit="10" d="
	M-212.3,409.3l-0.9,7.7c-0.1,1.2,1.1,2,2.1,1.4l0.4-0.2c0.7-0.4,1.5-0.2,1.9,0.5l1.9,3.4c0.4,0.7,1.3,0.9,1.9,0.5l2.3-1.4
	c0.7-0.4,0.9-1.3,0.5-1.9l-1.9-3.4c-0.4-0.7-0.2-1.5,0.5-1.9l0.4-0.2c1-0.6,0.9-2.1-0.2-2.5l-7.2-3
	C-211.2,407.8-212.2,408.4-212.3,409.3z"/>
</svg>
