<?xml version="1.0" encoding="utf-8"?>
<!-- Generator: Adobe Illustrator 19.0.0, SVG Export Plug-In . SVG Version: 6.00 Build 0)  -->
<svg version="1.2" baseProfile="tiny" id="Layer_1" xmlns="http://www.w3.org/2000/svg" xmlns:xlink="http://www.w3.org/1999/xlink"
	 x="0px" y="0px" width="77px" height="81px" viewBox="-259 380.9 77 81" xml:space="preserve">
<g id="예약현황_조회">
	<path id="XMLID_1151_" fill="none" stroke="#595857" stroke-width="2" stroke-linecap="round" stroke-miterlimit="10" d="
		M-200.1,413.8v33.9c0,0.8-0.6,1.4-1.4,1.4h-42.8c-0.8,0-1.4-0.6-1.4-1.4v-52.2c0-0.8,0.6-1.4,1.4-1.4h3.4"/>
	<path id="XMLID_1150_" fill="none" stroke="#595857" stroke-width="2" stroke-linecap="round" stroke-miterlimit="10" d="
		M-204.1,449.8v1.9c0,0.8-0.6,1.4-1.4,1.4h-42.8c-0.8,0-1.4-0.6-1.4-1.4v-52.2c0-0.8,0.6-1.4,1.4-1.4h2.4"/>
	
		<line id="XMLID_1149_" fill="none" stroke="#595857" stroke-width="2" stroke-linecap="round" stroke-miterlimit="10" x1="-234.2" y1="394.1" x2="-215.3" y2="394.1"/>
	<path id="XMLID_1155_" fill="none" stroke="#89BB41" stroke-width="2" stroke-linecap="round" stroke-miterlimit="10" d="
		M-232.7,407.7c-0.6,1.4-1.9,2.3-3.5,2.3c-2.1,0-3.8-1.7-3.8-3.8"/>
	
		<circle id="XMLID_1157_" fill="none" stroke="#89BB41" stroke-width="2" stroke-linecap="round" stroke-miterlimit="10" cx="-224.2" cy="406.3" r="3.8"/>
	<polyline id="XMLID_1156_" fill="none" stroke="#89BB41" stroke-width="2" stroke-linecap="round" stroke-miterlimit="10" points="
		-229.9,400.7 -235.1,405.8 -238.4,402.5 	"/>
	<g id="XMLID_1139_">
		<path id="XMLID_1261_" fill="none" stroke="#595857" stroke-width="2" stroke-linecap="round" stroke-miterlimit="10" d="
			M-209.5,441.8h-23.7c-0.8,0-1.4-0.6-1.4-1.4v-20.2c0-0.8,0.6-1.4,1.4-1.4h23.7c0.8,0,1.4,0.6,1.4,1.4v20.2
			C-208.1,441.2-208.8,441.8-209.5,441.8z"/>
		<path id="XMLID_1260_" fill="none" stroke="#595857" stroke-width="2" stroke-linecap="round" stroke-miterlimit="10" d="
			M-211.1,441.8v1.6c0,0.8-0.6,1.4-1.4,1.4h-23.7c-0.8,0-1.4-0.6-1.4-1.4v-20.2c0-0.8,0.6-1.4,1.4-1.4h1.6"/>
		
			<line id="XMLID_1259_" fill="none" stroke="#595857" stroke-width="2" stroke-linecap="round" stroke-miterlimit="10" x1="-234.7" y1="424.8" x2="-208.1" y2="424.8"/>
		
			<line id="XMLID_1258_" fill="none" stroke="#595857" stroke-width="2" stroke-linecap="round" stroke-miterlimit="10" x1="-229.5" y1="429.4" x2="-227.6" y2="429.4"/>
		
			<line id="XMLID_1244_" fill="none" stroke="#595857" stroke-width="2" stroke-linecap="round" stroke-miterlimit="10" x1="-224.5" y1="429.4" x2="-222.6" y2="429.4"/>
		
			<line id="XMLID_1243_" fill="none" stroke="#595857" stroke-width="2" stroke-linecap="round" stroke-miterlimit="10" x1="-219.5" y1="429.4" x2="-217.6" y2="429.4"/>
		
			<line id="XMLID_1242_" fill="none" stroke="#595857" stroke-width="2" stroke-linecap="round" stroke-miterlimit="10" x1="-214.5" y1="429.4" x2="-212.6" y2="429.4"/>
		
			<line id="XMLID_1241_" fill="none" stroke="#595857" stroke-width="2" stroke-linecap="round" stroke-miterlimit="10" x1="-229.5" y1="433.4" x2="-227.6" y2="433.4"/>
		
			<line id="XMLID_1240_" fill="none" stroke="#595857" stroke-width="2" stroke-linecap="round" stroke-miterlimit="10" x1="-224.5" y1="433.4" x2="-222.6" y2="433.4"/>
		
			<line id="XMLID_1154_" fill="none" stroke="#595857" stroke-width="2" stroke-linecap="round" stroke-miterlimit="10" x1="-219.5" y1="433.4" x2="-217.6" y2="433.4"/>
		
			<line id="XMLID_1148_" fill="none" stroke="#595857" stroke-width="2" stroke-linecap="round" stroke-miterlimit="10" x1="-214.5" y1="433.4" x2="-212.6" y2="433.4"/>
		
			<line id="XMLID_1147_" fill="none" stroke="#595857" stroke-width="2" stroke-linecap="round" stroke-miterlimit="10" x1="-229.5" y1="437.4" x2="-227.6" y2="437.4"/>
		
			<line id="XMLID_1146_" fill="none" stroke="#595857" stroke-width="2" stroke-linecap="round" stroke-miterlimit="10" x1="-224.5" y1="437.4" x2="-222.6" y2="437.4"/>
		
			<line id="XMLID_1145_" fill="none" stroke="#595857" stroke-width="2" stroke-linecap="round" stroke-miterlimit="10" x1="-219.5" y1="437.4" x2="-217.6" y2="437.4"/>
		
			<line id="XMLID_1143_" fill="none" stroke="#595857" stroke-width="2" stroke-linecap="round" stroke-miterlimit="10" x1="-214.5" y1="437.4" x2="-212.6" y2="437.4"/>
		
			<line id="XMLID_1141_" fill="none" stroke="#595857" stroke-width="2" stroke-linecap="round" stroke-miterlimit="10" x1="-228.6" y1="416.4" x2="-228.6" y2="422"/>
		
			<line id="XMLID_1140_" fill="none" stroke="#595857" stroke-width="2" stroke-linecap="round" stroke-miterlimit="10" x1="-214.6" y1="416.4" x2="-214.6" y2="422"/>
	</g>
	<g id="XMLID_1131_">
		
			<circle id="XMLID_1138_" fill="none" stroke="#1A96D4" stroke-width="2" stroke-linecap="round" stroke-miterlimit="10" cx="-205.8" cy="402.5" r="12.7"/>
		<path id="XMLID_1137_" fill="none" stroke="#1A96D4" stroke-width="2" stroke-linecap="round" stroke-miterlimit="10" d="
			M-205.8,410.1c-4.2,0-7.6-3.4-7.6-7.6"/>
		
			<path id="XMLID_1136_" fill="none" stroke="#1A96D4" stroke-width="2" stroke-linecap="round" stroke-linejoin="round" stroke-miterlimit="10" d="
			M-196.8,411.4l5.6,5.6L-196.8,411.4z"/>
		
			<circle id="XMLID_1135_" fill="none" stroke="#1A96D4" stroke-width="2" stroke-linecap="round" stroke-miterlimit="10" cx="-213.1" cy="399" r="0.4"/>
	</g>
</g>
</svg>
