<svg width="152" height="121" viewBox="0 0 152 121" fill="none" xmlns="http://www.w3.org/2000/svg">
<g clip-path="url(#clip0_2_479)">
<path d="M76.6963 80.3846C76.4489 80.1465 76.2015 79.9084 75.7067 79.6703C75.7067 80.1465 75.7067 80.8608 75.4593 81.575C75.9541 81.337 76.2015 81.337 76.4489 81.0989C76.4489 80.8608 76.6963 80.6227 76.6963 80.3846Z" fill="#C5EF84"/>
<path d="M75.4593 84.1941L75.9541 84.9084C75.9541 84.1941 75.9541 83.4798 76.2015 82.7655C75.9541 82.7655 75.7067 83.0036 75.4593 83.2417C75.4593 83.4798 75.4593 83.956 75.4593 84.1941Z" fill="#C5EF84"/>
<path d="M75.2119 78.4798V78.956C75.4593 78.956 75.4593 78.7179 75.7067 78.7179L75.2119 78.4798Z" fill="#C5EF84"/>
<path d="M73.9748 82.5274C74.2222 81.5751 74.2222 80.8608 74.2222 80.3846C73.9748 80.6227 73.7274 80.6227 73.48 80.8608C73.48 81.337 73.48 81.8132 73.48 82.0513L73.9748 82.5274Z" fill="#C5EF84"/>
<path d="M73.2326 79.1941C73.48 78.956 73.9748 78.956 74.2222 78.7179C73.9748 78.4798 73.48 78.2417 73.2326 78.0036C73.48 78.4798 73.2326 78.7179 73.2326 79.1941Z" fill="#C5EF84"/>
<path d="M95.2518 110.623C95.0044 110.861 94.5096 111.099 94.2622 111.337C94.757 111.575 95.0044 112.051 95.4992 112.289C95.2518 111.813 95.2518 111.099 95.2518 110.623Z" fill="#C5EF84"/>
<path d="M94.2622 101.575C94.0148 101.575 93.7674 101.813 93.2726 101.813C93.0252 103.004 92.7778 104.194 92.7778 105.385C93.52 104.908 94.2622 104.67 95.0044 104.194C95.2518 103.48 95.2518 103.004 95.2518 102.766C95.2518 102.527 94.757 102.051 94.2622 101.575Z" fill="#C5EF84"/>
<path d="M69.0267 77.5274L69.7689 78.2417C69.7689 77.7655 69.7689 77.2893 69.7689 76.8131C69.5215 77.0512 69.2741 77.0512 69.0267 77.2893C69.0267 77.0512 69.0267 77.2893 69.0267 77.5274Z" fill="#C5EF84"/>
<path d="M69.0267 75.3846C69.2741 75.1465 69.5215 75.1465 69.7689 75.1465C69.5215 74.9084 69.2741 74.6703 69.0267 74.6703C69.0267 74.6703 69.0267 75.1465 69.0267 75.3846Z" fill="#C5EF84"/>
<path d="M59.8726 80.8608L56.1615 90.8608C58.883 91.0989 61.3571 91.0989 64.0785 91.0989C69.7689 91.0989 74.7171 90.6227 79.1704 89.9084L70.0163 80.6227C68.7793 80.3846 63.3363 80.8608 59.8726 80.8608Z" fill="#C5EF84"/>
<path d="M85.3555 90.6227C85.3555 90.3846 85.1081 90.3846 85.1081 90.1465C85.1081 90.3846 85.1081 90.6227 84.8607 90.6227C85.1081 90.6227 85.3555 90.6227 85.3555 90.6227Z" fill="#C5EF84"/>
<path d="M93.0251 107.051C93.0251 108.718 93.2726 109.67 93.52 110.385C94.0148 109.908 94.5096 109.67 95.0044 109.432C95.0044 108.242 95.0044 107.289 95.0044 106.099C94.2622 106.337 93.52 106.575 93.0251 107.051Z" fill="#C5EF84"/>
<path d="M68.2845 76.8131C68.0371 76.8131 68.0371 77.0512 67.7896 77.0512H67.5422L68.0371 77.5274C68.2845 77.2893 68.2845 77.0512 68.2845 76.8131Z" fill="#C5EF84"/>
<path d="M58.8829 79.4322H59.3777C59.8726 79.4322 60.6148 79.4322 61.357 79.4322C63.8311 79.4322 67.0474 79.1941 68.7792 79.1941L66.0577 76.575C63.8311 76.8131 59.8726 77.0512 55.6666 77.0512L48.4918 90.1465C49.7289 90.3846 51.7081 90.6227 54.677 90.8608L58.8829 79.4322Z" fill="#C5EF84"/>
<path d="M67.5422 76.0989C67.5422 75.6227 67.5422 75.3846 67.5422 74.9084C67.2948 74.9084 67.0474 75.1465 66.8 75.1465V75.3846L67.5422 76.0989Z" fill="#C5EF84"/>
<path d="M66.8 72.7655V73.956C67.0474 73.7179 67.2948 73.7179 67.5422 73.4798C67.5422 73.2417 67.0474 73.0036 66.8 72.7655Z" fill="#C5EF84"/>
<path d="M46.5126 95.6227C47.5022 95.8608 49.7289 96.337 53.6874 96.8131V95.6227C50.2237 95.3846 47.5022 94.9084 46.5126 94.9084V95.6227Z" fill="#C5EF84"/>
<path d="M65.8104 98.0036C67.0474 98.0036 68.5318 98.2417 69.7689 98.2417V96.0988C68.5318 96.0988 67.0474 96.0988 65.8104 96.0988V98.0036Z" fill="#C5EF84"/>
<path d="M71.2534 98.2417C72.4904 98.2417 73.9748 98.2417 75.2119 98.2417V95.6227C73.9748 95.6227 72.4904 95.8608 71.2534 95.8608V98.2417Z" fill="#C5EF84"/>
<path d="M60.12 95.8608V97.5274C61.6044 97.5274 62.8415 97.7655 64.3259 97.7655V95.8608H64.0785C62.8415 96.0989 61.6044 96.0989 60.12 95.8608Z" fill="#C5EF84"/>
<path d="M54.9244 97.0512C56.1615 97.2893 57.3985 97.2893 58.883 97.5274V96.0989C57.6459 96.0989 56.1615 95.8608 54.9244 95.8608V97.0512Z" fill="#C5EF84"/>
<path d="M82.6341 93.4798L80.16 91.0989C75.4593 92.0513 70.0163 92.5274 64.0785 92.5274C56.1615 92.5274 49.7289 91.8132 47.997 91.5751L46.76 93.7179C49.2341 94.1941 55.6667 94.9084 64.0785 94.9084C70.5111 94.6703 76.6963 94.1941 82.6341 93.4798Z" fill="#C5EF84"/>
<path d="M71.0059 77.2893C71.2533 77.0512 71.5007 77.0512 71.7481 76.8131C71.5007 76.575 71.2533 76.3369 71.0059 76.3369C71.0059 76.575 71.0059 76.8131 71.0059 77.2893Z" fill="#C5EF84"/>
<path d="M82.3867 85.8608L77.6859 81.3369C77.4385 83.4798 77.1911 85.3846 77.4385 86.3369L81.6445 90.6227C81.8919 88.956 82.3867 86.8131 82.3867 85.8608Z" fill="#C5EF84"/>
<path d="M76.6963 98.2417C78.4281 98.2417 80.4074 98.2417 82.1392 98.2417L82.8814 94.6703C80.9022 94.9084 78.6755 95.1465 76.4489 95.3846V98.2417H76.6963Z" fill="#C5EF84"/>
<path d="M71.0059 79.6703L71.7481 80.3846L71.9955 80.1465C71.9955 79.4322 71.9955 78.7179 71.9955 78.2417C71.7481 78.4798 71.2533 78.4798 71.0059 78.7179C71.0059 78.956 71.0059 79.4322 71.0059 79.6703Z" fill="#C5EF84"/>
<path d="M96.9837 113.48C97.4785 113.004 98.2207 112.527 98.963 112.051C98.963 111.099 98.963 109.908 98.963 108.718C97.9733 109.194 97.2311 109.432 96.4889 109.908C96.4889 111.099 96.7363 112.289 96.9837 113.48Z" fill="#C5EF84"/>
<path d="M99.2104 106.099C98.7156 105.623 98.2208 105.385 97.726 104.908C97.2311 105.146 96.9837 105.146 96.4889 105.385C96.2415 106.337 96.2415 107.527 96.2415 108.48C96.9837 108.004 97.9734 107.527 98.963 107.289C99.2104 106.813 99.2104 106.337 99.2104 106.099Z" fill="#C5EF84"/>
<path d="M99.2104 113.48C98.963 113.718 98.4682 113.956 98.2208 114.194C98.7156 114.432 98.963 114.67 99.4578 114.908C99.2104 114.432 99.2104 113.956 99.2104 113.48Z" fill="#C5EF84"/>
<path d="M87.0874 94.1941C87.3348 94.1941 87.5822 93.956 87.5822 93.956C87.5822 93.7179 87.3348 93.7179 87.3348 93.4798C87.3348 93.7179 87.3348 93.956 87.0874 94.1941Z" fill="#C5EF84"/>
<path d="M91.7881 109.194C91.7881 108.718 91.5407 108.242 91.5407 107.527C91.2933 107.766 91.0459 108.004 90.5511 108.004C91.0459 108.48 91.2933 108.956 91.7881 109.194Z" fill="#C5EF84"/>
<path d="M89.3141 103.718C89.3141 104.908 89.3141 106.099 89.5615 107.289C90.0563 106.813 90.7985 106.575 91.5408 106.099C91.5408 104.908 91.7882 103.718 92.0356 102.527C91.0459 102.766 90.3037 103.242 89.3141 103.718Z" fill="#C5EF84"/>
<path d="M88.8193 98.0036C89.0667 97.0512 89.3141 96.337 89.3141 95.8608C89.0667 95.6227 88.8193 95.1465 88.5719 94.9084C87.8296 95.1465 87.3348 95.3846 86.84 95.6227C86.5926 96.8131 86.3452 98.2417 86.0978 99.1941C86.84 98.956 87.8296 98.4798 88.8193 98.0036Z" fill="#C5EF84"/>
<path d="M92.5304 99.9084C92.0356 99.4322 91.7882 98.956 91.2934 98.4798C90.7985 98.7179 90.3037 98.7179 89.8089 98.956C89.5615 99.9084 89.3141 101.099 89.3141 102.051C90.3037 101.575 91.2934 101.337 92.0356 100.861C92.5304 100.623 92.5304 100.146 92.5304 99.9084Z" fill="#C5EF84"/>
<path d="M7.42224 84.4322L9.89632 83.4798L9.64891 83.0036L7.42224 84.4322Z" fill="#C5EF84"/>
<path d="M83.6237 87.5274C83.3763 88.956 83.1289 91.0989 83.3763 92.2893C83.6237 90.6227 84.1185 89.1941 84.1185 88.4798C83.8711 88.2417 83.6237 87.7655 83.6237 87.5274Z" fill="#C5EF84"/>
<path d="M2.47407 60.6227L0.98963 60.8608C0.247407 63.0036 0 64.9084 0 67.0512C0 73.0036 2.47407 78.4798 7.17482 83.7179L10.6385 81.3369C4.94815 75.3846 3.2163 69.9084 2.47407 66.575C2.22667 63.7179 2.47407 61.8131 2.47407 60.6227Z" fill="#C5EF84"/>
<path d="M30.1837 51.0988L23.5037 50.1465C23.2563 50.3846 20.7822 53.2417 20.2874 57.2893L27.957 56.3369C28.2045 54.4322 28.9467 52.7655 30.1837 51.0988Z" fill="#C5EF84"/>
<path d="M39.0904 43.7179C41.5645 42.2893 44.5334 41.0989 47.7497 40.1465L42.8015 31.8131C42.0593 32.0512 41.3171 32.0512 40.3274 32.2893L40.5748 36.8131L31.4208 39.6703L23.2563 38.2417C18.803 40.3846 14.8445 43.0036 11.6282 45.8608L31.9156 48.7179C33.8948 47.0512 36.1215 45.1465 39.0904 43.7179Z" fill="#C5EF84"/>
<path d="M18.803 59.1941C18.803 58.956 18.803 58.956 18.803 58.7179L3.95853 60.6227C3.71113 61.3369 3.46372 63.4798 3.95853 66.575C4.45335 69.9084 6.43261 75.1465 11.8756 80.8608L25.7304 71.575C21.2771 67.5274 19.0504 63.4798 18.803 59.1941Z" fill="#C5EF84"/>
<path d="M13.1126 58.0036L18.803 57.2893C19.0504 53.7179 21.0296 50.8608 21.7719 49.6703L17.5659 48.956C16.8237 50.1465 14.3496 53.2417 13.1126 58.0036Z" fill="#C5EF84"/>
<path d="M27.7096 57.7655L20.2874 58.7179C20.2874 58.956 20.2874 58.956 20.2874 59.1941C20.5348 63.2417 22.7615 67.0512 26.9674 70.8608L31.4207 68.0036C28.9467 65.1465 27.7096 62.0512 27.7096 58.956C27.7096 58.2417 27.7096 58.0036 27.7096 57.7655Z" fill="#C5EF84"/>
<path d="M29.6889 8.47981L29.4415 2.76552L23.5037 2.05124V3.24172L22.2667 3.47981V7.05124L29.6889 8.47981Z" fill="#C5EF84"/>
<path d="M31.9156 73.0036V68.956L13.6074 81.0989L31.9156 73.0036Z" fill="#C5EF84"/>
<path d="M30.1837 22.7655V21.8131L22.7615 20.3846L23.0089 21.3369L30.1837 22.7655Z" fill="#C5EF84"/>
<path d="M29.9363 15.6227V14.6703L22.5141 13.2417V14.1941L29.9363 15.6227Z" fill="#C5EF84"/>
<path d="M30.6785 38.2417V37.7655L23.5037 36.3369V37.0512L30.6785 38.2417Z" fill="#C5EF84"/>
<path d="M29.9363 18.0036V17.0512L22.7615 15.6227V16.575L29.9363 18.0036Z" fill="#C5EF84"/>
<path d="M22.5141 8.47981V9.43219L29.6889 10.8608V9.67029L22.5141 8.47981Z" fill="#C5EF84"/>
<path d="M29.6889 13.2417V12.0512L22.5141 10.8608V11.8131L29.6889 13.2417Z" fill="#C5EF84"/>
<path d="M29.9363 20.3846V19.4322L22.7615 18.0036V18.956L29.9363 20.3846Z" fill="#C5EF84"/>
<path d="M30.4311 32.2893V31.337L23.2563 29.9084V31.0989L30.4311 32.2893Z" fill="#C5EF84"/>
<path d="M30.6785 34.4322L30.4311 33.7179L23.2563 32.2893V33.2417L30.6785 34.4322Z" fill="#C5EF84"/>
<path d="M30.6785 36.337V35.8608L23.2563 34.4322L23.5037 35.1465L30.6785 36.337Z" fill="#C5EF84"/>
<path d="M30.4311 29.9084V28.956L23.0089 27.5274L23.2563 28.7179L30.4311 29.9084Z" fill="#C5EF84"/>
<path d="M30.1837 25.1465V23.956L23.0089 22.7655V23.7179L30.1837 25.1465Z" fill="#C5EF84"/>
<path d="M30.4311 27.5274L30.1837 26.5751L23.0089 25.1465V26.0989L30.4311 27.5274Z" fill="#C5EF84"/>
<path d="M16.0815 48.956L9.40147 48.0036C5.69036 51.575 2.96888 55.3846 1.48444 59.4322L11.8755 58.2417C12.6178 53.7179 14.8444 50.6227 16.0815 48.956Z" fill="#C5EF84"/>
<path d="M88.0771 105.623C88.0771 105.146 88.0771 104.67 88.0771 104.194C87.8297 104.432 87.5822 104.432 87.3348 104.67L87.5823 104.908C87.5823 105.146 87.8297 105.385 88.0771 105.623Z" fill="#C5EF84"/>
<path d="M88.5719 99.6703C87.5822 100.146 86.84 100.623 86.0978 101.099C86.0978 101.813 86.0978 102.527 86.0978 103.004C86.3452 103.242 86.3452 103.48 86.5926 103.718C86.84 103.48 87.5822 103.242 88.3244 102.766C88.077 101.813 88.3244 100.623 88.5719 99.6703Z" fill="#C5EF84"/>
<path d="M93.0252 112.051C90.5511 109.908 88.3244 108.004 87.3348 106.813L87.0874 108.004C88.077 109.432 94.5096 116.813 101.437 120.146L101.684 117.527C98.963 116.337 96.2415 114.67 93.2726 112.289C93.2726 112.289 93.2726 112.289 93.0252 112.051Z" fill="#C5EF84"/>
<path d="M86.0978 91.575C85.603 91.8131 85.1082 91.8131 84.6133 92.0512C84.6133 92.5274 84.6133 93.2417 84.6133 93.7179V94.1941L84.1185 95.6227C84.6133 95.3846 84.8607 95.1465 85.603 94.9084C85.8504 93.4798 86.3452 92.5274 86.3452 92.0512L86.0978 91.575Z" fill="#C5EF84"/>
<path d="M100.942 115.623C101.19 115.861 101.437 115.861 101.684 116.099L101.932 111.813C101.437 112.051 100.942 112.289 100.447 112.527C100.447 113.718 100.695 114.67 100.942 115.623Z" fill="#C5EF84"/>
<path d="M83.3763 98.956C83.6237 99.1941 83.8711 99.9084 84.3659 100.623C84.3659 100.623 84.6133 100.623 84.6133 100.385C84.6133 99.1941 84.8607 98.0036 85.1081 96.575C84.3659 97.0512 83.8711 97.2893 83.6237 97.2893L83.3763 98.956Z" fill="#C5EF84"/>
<path d="M100.447 108.242C100.447 109.194 100.447 110.385 100.447 111.337C101.19 110.861 101.684 110.623 102.179 110.385L102.427 108.242C102.179 108.004 101.932 108.004 101.684 107.766C101.19 108.004 100.695 108.004 100.447 108.242Z" fill="#C5EF84"/>
<path d="M75.2119 67.7655C75.4593 68.0036 75.7067 68.0036 75.9541 68.0036C75.7067 68.0036 75.7067 67.7655 75.2119 67.7655Z" fill="white"/>
<path d="M75.9541 78.2417C76.4489 78.2417 76.9437 78.0036 77.4385 78.0036C77.4385 77.7655 77.686 77.2893 77.686 77.0512C77.1911 77.0512 76.6963 77.0512 76.2015 77.0512C76.2015 77.5274 75.9541 77.7655 75.9541 78.2417Z" fill="white"/>
<path d="M71.2534 74.4322C71.7482 74.1941 72.4904 74.1941 72.9852 73.956C72.9852 73.7179 73.2326 73.4798 73.2326 73.2417C72.7378 73.2417 72.243 73.4798 71.7482 73.4798C71.5008 73.956 71.5008 74.1941 71.2534 74.4322Z" fill="white"/>
<path d="M74.717 71.8132C75.2119 71.8132 75.7067 71.8132 76.2015 71.8132C76.2015 71.5751 76.2015 71.337 76.4489 71.0989C75.9541 71.0989 75.4593 71.0989 74.9644 71.0989C74.9644 71.0989 74.9644 71.5751 74.717 71.8132Z" fill="white"/>
<path d="M72.243 69.6703C72.7378 69.6703 73.2326 69.6703 73.7274 69.6703C73.7274 69.4322 73.7274 69.4322 73.7274 69.1941C73.2326 69.1941 72.7378 69.1941 72.243 69.1941C72.243 69.1941 72.243 69.4322 72.243 69.6703Z" fill="white"/>
<path d="M71.9955 72.0513C72.4904 72.0513 72.9852 71.8132 73.48 71.8132C73.48 71.337 73.48 71.0989 73.7274 70.8608C73.2326 70.8608 72.7378 70.8608 72.243 70.8608C71.9955 71.337 71.9955 71.8132 71.9955 72.0513Z" fill="white"/>
<path d="M74.4697 73.7179C74.9645 73.7179 75.4593 73.7179 75.9541 73.4798C75.9541 73.2417 75.9541 73.0036 76.2015 72.7655C75.7067 72.7655 75.2119 72.7655 74.7171 72.7655C74.4697 73.2417 74.4697 73.4798 74.4697 73.7179Z" fill="white"/>
<path d="M73.7274 76.0989C74.2222 75.8608 74.717 75.8608 75.2119 75.8608C75.2119 75.6227 75.4593 75.3846 75.4593 75.1465C74.9645 75.1465 74.4696 75.1465 73.9748 75.3846C73.9748 75.6227 73.9748 75.8608 73.7274 76.0989Z" fill="white"/>
<path d="M78.4281 74.9084C77.9333 74.9084 77.4385 74.9084 76.9437 74.9084C76.9437 75.1465 76.6963 75.3846 76.6963 75.6227C77.1911 75.6227 77.6859 75.6227 78.1807 75.6227C78.1807 75.3846 78.4281 75.1465 78.4281 74.9084Z" fill="white"/>
<path d="M91.7881 83.2417C92.5304 83.2417 93.0252 83.0036 93.7674 83.0036C93.7674 82.5274 93.7674 82.2893 93.52 82.0512C92.7778 82.0512 92.283 82.0512 91.7881 82.2893C91.7881 82.5274 91.7881 82.7655 91.7881 83.2417Z" fill="white"/>
<path d="M74.9644 69.6703C75.4592 69.6703 75.954 69.6703 76.4489 69.6703V69.4322C75.954 69.4322 75.4592 69.4322 74.9644 69.1941C74.9644 69.1941 74.9644 69.4322 74.9644 69.6703Z" fill="white"/>
<path d="M91.7881 86.0989C92.5304 86.0989 93.2726 85.8608 94.0148 85.8608C94.0148 85.6227 94.0148 85.6227 94.0148 85.3846C94.0148 84.9084 94.0148 84.6703 94.0148 84.4322C93.2726 84.4322 92.5304 84.6703 91.7881 84.6703C91.7881 84.9084 91.7881 85.3846 91.7881 86.0989Z" fill="white"/>
<path d="M83.1289 84.6703C84.3659 83.4798 87.3348 80.6227 92.0356 79.1941L87.3348 76.337C82.3867 77.0512 79.4178 78.956 78.4282 79.9084L83.1289 84.6703Z" fill="white"/>
<path d="M91.7881 89.1941C92.5304 89.1941 93.52 88.956 94.2622 88.956C94.2622 88.2417 94.2622 87.7655 94.2622 87.0512C93.52 87.0512 92.5304 87.2893 91.7881 87.2893C91.7881 88.0036 91.7881 88.4798 91.7881 89.1941Z" fill="white"/>
<path d="M91.7881 80.8608C92.283 80.8608 92.7778 80.8608 93.52 80.6227C93.52 80.3846 93.52 80.3846 93.52 80.3846C92.7778 80.6227 92.283 80.6227 91.7881 80.8608Z" fill="white"/>
<path d="M71.0059 68.956C70.7585 68.956 70.5111 68.956 70.2637 68.956H70.0163C70.0163 69.1941 70.0163 69.4322 70.0163 69.9084C70.2637 69.9084 70.7585 69.9084 71.0059 69.9084C71.0059 69.4322 71.0059 69.1941 71.0059 68.956Z" fill="white"/>
<path d="M69.274 72.7655C69.7689 72.5274 70.0163 72.5274 70.5111 72.5274C70.5111 72.0512 70.7585 71.5751 70.7585 71.0989C70.5111 71.0989 70.0163 71.0989 69.7689 71.337C69.5215 71.8131 69.5215 72.2893 69.274 72.7655Z" fill="white"/>
<path d="M67.5422 71.5751C67.7896 71.8132 67.7896 71.8132 68.0371 72.0513C68.0371 71.8132 68.0371 71.5751 68.2845 71.5751C68.0371 71.337 67.7896 71.5751 67.5422 71.5751Z" fill="white"/>
<path d="M68.5318 69.6703C68.2844 69.9084 68.037 70.1465 67.7896 70.1465C68.037 70.1465 68.2844 70.1465 68.5318 70.1465C68.5318 69.9084 68.5318 69.6703 68.5318 69.6703Z" fill="white"/>
<path d="M70.0163 67.2893C71.7481 66.5751 73.2326 66.337 74.4696 66.337C75.7067 66.337 76.4489 66.8131 76.6963 66.8131C76.9437 66.5751 76.9437 66.337 76.9437 66.0989C76.2015 64.1941 73.9748 62.2893 70.7585 60.8608C67.2948 59.4322 62.8415 58.7179 58.3881 58.7179C53.9348 58.7179 49.4815 59.4322 46.0178 60.8608C42.8015 62.2893 40.5748 63.956 39.8326 66.0989C41.5644 70.3846 49.4815 73.4798 58.3881 73.4798C60.8622 73.4798 63.0889 73.2417 65.3155 72.7655V71.5751C65.563 71.337 65.5629 69.1941 70.0163 67.2893Z" fill="white"/>
<path d="M58.6355 57.5274C67.0474 57.5274 74.4696 60.1465 77.4385 63.956C76.6963 59.1941 68.5318 55.6227 58.6355 55.6227C48.7392 55.6227 40.5748 59.4322 39.8326 63.956C42.8015 60.1465 50.2237 57.5274 58.6355 57.5274Z" fill="white"/>
<path d="M78.6755 73.7179C78.6755 73.4798 78.6755 73.2417 78.9229 73.2417C78.4281 73.2417 77.9333 73.2417 77.4385 73.2417C77.4385 73.4798 77.4385 73.7179 77.1911 73.7179C77.6859 73.7179 78.1807 73.7179 78.6755 73.7179Z" fill="white"/>
<path d="M83.8711 73.956C83.3763 73.956 83.1289 73.7179 82.6341 73.7179C82.6341 73.956 82.6341 74.1941 82.6341 74.4322C83.1289 74.4322 83.3763 74.6703 83.8711 74.6703C83.8711 74.1941 83.8711 73.956 83.8711 73.956Z" fill="white"/>
<path d="M83.6237 76.0989C83.6237 75.8608 83.6237 75.8608 83.6237 76.0989C83.3763 75.8608 82.8815 75.6227 82.3867 75.6227C82.3867 75.8608 82.3867 75.8608 82.3867 76.0989C82.8815 76.0989 83.1289 76.337 83.3763 76.337C83.3763 76.0989 83.3763 76.0989 83.6237 76.0989Z" fill="white"/>
<path d="M80.4074 72.0512C80.9022 72.0512 81.1496 72.0512 81.6444 72.2893V72.0512L81.397 71.5751C81.1496 71.5751 80.9022 71.5751 80.6548 71.337C80.6548 71.5751 80.4074 71.8132 80.4074 72.0512Z" fill="white"/>
<path d="M85.1082 74.6703V74.9084C85.3556 74.9084 85.603 75.1465 85.603 75.1465C85.603 74.9084 85.3556 74.9084 85.1082 74.6703Z" fill="white"/>
<path d="M80.6548 77.0512C80.16 77.0512 79.6652 77.0512 79.1704 77.0512C79.1704 77.2893 78.923 77.5274 78.923 78.0036C79.1704 78.0036 79.4178 78.0036 79.4178 78.0036C79.9126 77.5274 80.16 77.2893 80.6548 77.0512Z" fill="white"/>
<path d="M77.6859 71.8132C78.1807 71.8132 78.6755 71.8132 79.1704 71.8132C79.1704 71.5751 79.1704 71.337 79.4178 71.0989C78.9229 71.0989 78.4281 70.8608 77.9333 70.8608C77.6859 71.337 77.6859 71.5751 77.6859 71.8132Z" fill="white"/>
<path d="M77.9333 69.6703C78.1808 69.6703 78.4282 69.6703 78.6756 69.6703C78.6756 69.6703 78.4282 69.6703 78.4282 69.4322C78.4282 69.6703 78.1808 69.6703 77.9333 69.6703Z" fill="white"/>
<path d="M78.4282 68.956C78.1808 68.7179 77.6859 68.4798 77.4385 68.2417V68.7179H77.6859C77.9334 68.7179 78.1808 68.956 78.4282 68.956Z" fill="white"/>
<path d="M81.1496 75.3846C80.6548 75.3846 80.16 75.1465 79.9126 75.1465C79.9126 75.3846 79.9126 75.6227 79.6652 75.6227C80.16 75.6227 80.6548 75.6227 80.9022 75.8608C80.9022 75.6227 81.1496 75.3846 81.1496 75.3846Z" fill="white"/>
<path d="M80.4074 70.6227C80.9022 70.6227 81.1496 70.8608 81.397 70.8608C80.9022 70.6227 80.6548 70.3846 80.4074 70.1465V70.6227Z" fill="white"/>
<path d="M81.397 73.4798C80.9022 73.4798 80.6548 73.4798 80.16 73.2417C80.16 73.4798 80.16 73.7179 79.9126 73.7179C80.4074 73.7179 80.6548 73.7179 81.1496 73.956C81.397 73.7179 81.397 73.4798 81.397 73.4798Z" fill="white"/>
<path d="M107.127 100.861C108.364 100.623 109.354 100.623 110.344 100.385C110.344 99.9084 110.591 99.4322 110.591 98.956C109.602 98.956 108.364 98.956 107.375 99.1941C107.375 99.6703 107.127 100.385 107.127 100.861Z" fill="white"/>
<path d="M103.169 94.6703C104.159 94.6703 105.396 94.4322 106.385 94.4322C106.385 93.7179 106.385 93.2417 106.385 92.5274C105.396 92.5274 104.406 92.5274 103.416 92.5274C103.416 93.2417 103.169 93.956 103.169 94.6703Z" fill="white"/>
<path d="M108.117 86.0989C107.622 85.8608 107.375 85.6227 106.88 85.6227C106.88 85.8608 106.88 85.8608 106.88 86.0989C107.375 85.8608 107.622 85.8608 108.117 86.0989Z" fill="white"/>
<path d="M107.375 88.7179C108.364 88.7179 109.107 88.7179 109.849 88.956C109.849 88.4798 109.602 88.0036 109.602 87.7655C108.859 87.7655 107.87 87.5274 107.127 87.5274C107.375 87.7655 107.375 88.2417 107.375 88.7179Z" fill="white"/>
<path d="M103.416 91.337C103.664 91.337 103.911 91.337 104.158 91.337C104.901 91.337 105.643 91.337 106.385 91.337C106.385 90.8608 106.385 90.3846 106.385 89.9084C105.396 89.9084 104.653 89.9084 103.664 89.9084C103.416 90.3846 103.416 90.8608 103.416 91.337Z" fill="white"/>
<path d="M110.591 93.0036C109.601 93.0036 108.612 92.7655 107.622 92.7655C107.622 93.2417 107.622 93.956 107.622 94.4322C108.612 94.4322 109.601 94.4322 110.591 94.6703C110.591 94.1941 110.591 93.4798 110.591 93.0036Z" fill="white"/>
<path d="M107.622 91.337C108.612 91.337 109.354 91.337 110.344 91.5751C110.344 91.0989 110.096 90.6227 110.096 90.1465C109.354 90.1465 108.364 90.1465 107.375 89.9084C107.622 90.3846 107.622 90.8608 107.622 91.337Z" fill="white"/>
<path d="M109.354 101.813C108.364 101.813 107.622 102.051 106.633 102.289C106.385 102.766 106.385 103.242 106.138 103.718C107.375 103.242 108.364 102.527 109.354 101.813Z" fill="white"/>
<path d="M105.643 101.099C105.89 100.385 105.89 99.9084 105.89 99.1941C104.653 99.1941 103.416 99.4322 102.179 99.6703C101.932 100.385 101.932 101.337 101.684 102.051C103.169 101.813 104.406 101.337 105.643 101.099Z" fill="white"/>
<path d="M106.385 95.8608C105.396 95.8608 104.158 95.8608 102.921 96.0989C102.921 96.8131 102.674 97.7655 102.427 98.4798C103.664 98.2417 104.901 98.2417 105.89 98.0036C106.385 97.2893 106.385 96.575 106.385 95.8608Z" fill="white"/>
<path d="M103.416 88.4798C104.406 88.4798 105.148 88.4798 106.138 88.4798C106.138 88.0036 105.89 87.5274 105.89 87.0512C104.901 87.0512 104.158 86.8131 103.416 86.8131C103.416 87.5274 103.416 88.0036 103.416 88.4798Z" fill="white"/>
<path d="M105.643 85.8608C105.643 85.3846 105.396 84.9084 105.396 84.6703L104.653 84.4322C104.406 84.4322 103.911 84.4322 102.922 84.1941C102.922 84.6703 103.169 85.1465 103.169 85.6227C103.911 85.6227 104.901 85.6227 105.643 85.8608Z" fill="white"/>
<path d="M116.034 95.1465C116.776 95.3846 117.766 95.3846 118.508 95.6227C118.508 95.1465 118.261 94.4322 118.261 93.956C117.518 93.7179 116.776 93.7179 116.034 93.4798C116.034 94.1941 116.034 94.6703 116.034 95.1465Z" fill="white"/>
<path d="M116.281 97.7655C117.024 97.7655 118.013 98.0036 118.756 98.0036C118.756 97.7655 118.756 97.2893 118.756 97.0512C118.013 96.8131 117.024 96.8131 116.281 96.575C116.281 97.0512 116.281 97.5274 116.281 97.7655Z" fill="white"/>
<path d="M120.735 97.5274C120.487 97.5274 120.24 97.2893 119.993 97.2893C119.993 97.5274 119.993 97.5274 119.993 97.7655C120.24 97.7655 120.487 97.7655 120.735 97.5274Z" fill="white"/>
<path d="M124.693 97.2893C124.941 97.5274 124.941 97.5274 124.693 97.2893C124.199 96.8132 123.704 96.0989 122.961 95.6227C122.961 96.0989 123.209 96.337 123.209 96.8132C124.199 97.0513 124.693 97.2893 124.693 97.2893Z" fill="white"/>
<path d="M117.766 92.5274C117.519 92.0512 117.519 91.5751 117.519 91.337C117.024 91.0989 116.529 90.6227 116.034 90.3846C115.787 90.3846 115.539 90.3846 115.044 90.3846C115.292 90.8608 115.292 91.5751 115.292 92.0512C116.281 92.2893 117.024 92.5274 117.766 92.5274Z" fill="white"/>
<path d="M124.199 98.0036C123.951 98.0036 123.456 97.7655 122.961 97.5274V98.0036C123.209 98.0036 123.704 98.0036 124.199 98.0036Z" fill="white"/>
<path d="M121.724 96.575C121.477 95.8608 121.477 95.1465 121.23 94.6703C120.735 94.4322 119.993 94.4322 119.498 94.1941C119.498 94.9084 119.745 95.3846 119.745 95.8608C120.487 96.0989 121.23 96.3369 121.724 96.575Z" fill="white"/>
<path d="M111.828 100.385C112.323 100.385 112.57 100.385 112.57 100.385C113.065 100.146 113.807 99.9084 114.55 99.6703H114.797V99.4322C113.807 99.4322 112.818 99.4322 111.828 99.4322C111.828 99.4322 111.828 99.9084 111.828 100.385Z" fill="white"/>
<path d="M113.56 88.956C112.818 88.4798 112.076 88.0036 111.333 87.5274C111.333 87.7655 111.581 88.2417 111.581 88.7179C112.323 88.956 112.818 88.956 113.56 88.956Z" fill="white"/>
<path d="M111.828 91.8132C112.57 91.8132 113.56 92.0512 114.302 92.0512C114.302 91.5751 114.055 90.8608 114.055 90.3846C113.313 90.3846 112.57 90.1465 111.828 90.1465C111.828 90.6227 111.828 91.337 111.828 91.8132Z" fill="white"/>
<path d="M111.086 87.0512C110.839 86.8131 110.591 86.8131 110.344 86.575V87.0512H111.086Z" fill="white"/>
<path d="M112.076 97.7655C113.065 97.7655 114.055 97.7655 114.797 97.7655C114.797 97.2893 114.797 96.8131 114.797 96.3369C113.807 96.0989 113.065 96.0988 112.076 96.0988C112.076 96.575 112.076 97.0512 112.076 97.7655Z" fill="white"/>
<path d="M112.076 94.6703C113.065 94.6703 113.807 94.9084 114.55 94.9084C114.55 94.4322 114.302 93.7179 114.302 93.2417C113.56 93.2417 112.818 93.0036 111.828 93.0036C112.076 93.7179 112.076 94.1941 112.076 94.6703Z" fill="white"/>
<path d="M110.838 95.8608C109.849 95.8608 108.859 95.8608 107.87 95.6227C107.87 96.337 107.87 97.0513 107.622 97.7655C108.612 97.7655 109.601 97.7655 110.838 97.5274C110.838 97.0513 110.838 96.5751 110.838 95.8608Z" fill="white"/>
<path d="M97.9733 81.0989C98.2207 81.0989 98.2207 81.0989 98.4681 81.0989C98.2207 80.8608 97.7259 80.8608 97.4785 80.8608V81.0989H97.9733Z" fill="white"/>
<path d="M87.5822 83.0036C87.3348 83.0036 87.3348 83.0036 87.5822 83.0036C87.0874 83.4798 86.5926 83.7179 86.0978 84.1941V84.4322C86.5926 84.1941 87.0874 84.1941 87.5822 83.956C87.5822 83.4798 87.5822 83.2417 87.5822 83.0036Z" fill="white"/>
<path d="M86.84 90.1465C87.0874 89.4322 87.3348 88.7179 87.3348 88.2417C86.5926 88.4798 86.0978 88.4798 85.8504 88.7179C86.0978 88.956 86.3452 89.6703 86.84 90.1465Z" fill="white"/>
<path d="M87.3348 86.8132C87.3348 86.337 87.3348 85.8608 87.3348 85.3846C86.84 85.6227 86.3452 85.6227 85.8504 85.8608C85.8504 86.337 85.8504 86.8132 85.8504 87.2893C86.3452 87.0512 86.84 86.8132 87.3348 86.8132Z" fill="white"/>
<path d="M90.3037 90.6227C89.5615 90.8608 88.8193 90.8608 88.0771 91.0989C88.0771 91.337 88.0771 91.5751 87.8297 91.8132C88.0771 92.2893 88.5719 92.7655 89.0667 93.4798C89.3141 93.4798 89.5615 93.2417 90.0563 93.2417C90.0563 92.5274 90.3037 91.5751 90.3037 90.6227Z" fill="white"/>
<path d="M94.0148 99.4322C94.2622 99.6703 94.5096 99.9084 94.7571 100.146C95.2519 99.9084 95.9941 99.6703 96.7363 99.6703C96.9837 98.7179 97.2311 97.7655 97.4785 96.8132C96.4889 97.0513 95.7467 97.2894 94.7571 97.5274C94.5096 98.0036 94.5096 98.7179 94.2622 99.1941L94.0148 99.4322Z" fill="white"/>
<path d="M88.3245 89.6703C89.0667 89.4322 89.5615 89.4322 90.3037 89.1941C90.3037 88.4798 90.3037 88.0036 90.3037 87.2893C89.8089 87.2893 89.0667 87.5274 88.5719 87.5274C88.5719 88.4798 88.5719 89.1941 88.3245 89.6703Z" fill="white"/>
<path d="M94.0148 93.4798C93.52 93.4798 93.2726 93.7179 92.7778 93.7179C92.2829 93.956 91.7881 93.956 91.2933 94.1941C91.2933 94.6703 91.0459 95.3846 91.0459 95.8608C91.2933 96.337 91.5407 96.5751 92.0355 97.0513C92.5303 96.8132 93.0252 96.5751 93.7674 96.5751C93.52 95.3846 93.7674 94.4322 94.0148 93.4798Z" fill="white"/>
<path d="M90.5511 83.4798C90.5511 83.0036 90.5511 82.7655 90.5511 82.5274C90.0563 82.5274 89.5615 82.7655 89.0667 82.7655C89.0667 83.0036 89.0667 83.4798 89.0667 83.7179C89.3141 83.4798 89.8089 83.4798 90.5511 83.4798Z" fill="white"/>
<path d="M90.5511 86.0989C90.5511 85.6227 90.5511 85.1465 90.5511 84.6703C90.0563 84.6703 89.5615 84.9084 89.0667 84.9084C89.0667 85.3846 89.0667 85.8608 89.0667 86.337C89.3141 86.337 89.8089 86.337 90.5511 86.0989Z" fill="white"/>
<path d="M103.911 105.623C103.911 105.623 104.159 105.385 104.406 105.385C104.653 104.432 105.148 103.48 105.396 102.527C104.159 102.766 102.674 103.242 101.437 103.48C101.19 104.194 100.942 104.908 100.695 105.385C100.942 105.623 101.437 105.861 101.684 106.099C102.921 106.099 103.664 105.861 103.911 105.623Z" fill="white"/>
<path d="M101.932 92.7655C100.942 92.7655 100.2 92.7655 99.2104 93.0036C99.2104 93.7179 98.963 94.4322 98.963 95.3846C99.9526 95.1465 100.942 95.1465 101.684 94.9084C101.932 93.956 101.932 93.2417 101.932 92.7655Z" fill="white"/>
<path d="M98.2208 99.1941C99.2104 98.956 100.2 98.7179 101.19 98.4798C101.437 97.5274 101.437 96.8131 101.684 95.8608C100.695 95.8608 99.7052 96.0989 98.7156 96.337C98.7156 97.2893 98.4682 98.2417 98.2208 99.1941Z" fill="white"/>
<path d="M97.9733 88.7179C97.9733 88.0036 97.9733 87.5274 97.9733 87.0512C97.2311 87.0512 96.2415 87.0512 95.4993 87.0512C95.4993 87.5274 95.4993 88.2417 95.4993 88.956C96.4889 88.7179 97.2311 88.7179 97.9733 88.7179Z" fill="white"/>
<path d="M97.9733 89.9084C96.9837 89.9084 96.2415 89.9084 95.4993 90.1465C95.4993 90.8608 95.4993 91.337 95.4993 92.0512C96.2415 91.8131 97.2311 91.8131 97.9733 91.8131C97.9733 91.0989 97.9733 90.3846 97.9733 89.9084Z" fill="white"/>
<path d="M100.942 99.9084C99.9526 100.146 98.7155 100.385 97.7259 100.623C97.4785 101.337 97.4785 101.813 97.2311 102.527C97.4785 102.766 97.7259 103.004 97.9733 103.242C98.7155 103.004 99.4577 102.766 100.2 102.527C100.447 101.575 100.695 100.861 100.942 99.9084Z" fill="white"/>
<path d="M95.2518 84.1941C95.2518 84.4322 95.2518 84.9084 95.2518 85.1465C95.2518 85.3846 95.2518 85.3846 95.2518 85.6227C95.9941 85.6227 96.7363 85.6227 97.7259 85.6227C97.7259 85.1465 97.4785 84.6703 97.4785 84.1941C96.7363 84.1941 95.9941 84.1941 95.2518 84.1941Z" fill="white"/>
<path d="M99.4578 91.5751C100.447 91.5751 101.19 91.337 102.179 91.337C102.179 90.8608 102.179 90.3846 102.179 89.9084C101.19 89.9084 100.447 89.9084 99.4578 89.9084C99.4578 90.3846 99.4578 90.8608 99.4578 91.5751Z" fill="white"/>
<path d="M94.2622 90.1465C93.2726 90.1465 92.5304 90.3846 91.7882 90.3846C91.7882 91.0989 91.5408 92.0513 91.5408 92.7655C91.7882 92.7655 92.0356 92.5274 92.5304 92.5274C93.0252 92.2893 93.52 92.2893 94.2622 92.2893C94.0148 91.5751 94.2622 90.8608 94.2622 90.1465Z" fill="white"/>
<path d="M98.7155 82.7655C99.4578 82.7655 100.2 82.7655 101.19 82.7655C100.447 82.5274 99.7052 82.0513 98.963 81.8132C98.963 81.8132 98.963 81.8132 98.7155 81.8132C98.4681 82.2893 98.7155 82.5274 98.7155 82.7655Z" fill="white"/>
<path d="M99.7052 103.956C99.4578 103.956 99.2104 104.194 98.963 104.194C99.2104 104.432 99.2104 104.432 99.4578 104.67C99.7052 104.432 99.7052 104.194 99.7052 103.956Z" fill="white"/>
<path d="M97.2311 82.7655C97.2311 82.5274 96.9837 82.0513 96.9837 81.8132C96.4889 81.8132 95.7467 81.8132 95.0045 81.8132C95.0045 82.0513 95.0045 82.5274 95.2519 82.7655C95.7467 82.7655 96.4889 82.7655 97.2311 82.7655Z" fill="white"/>
<path d="M97.9733 93.0036C96.9837 93.0036 96.2415 93.2417 95.4993 93.2417C95.4993 94.1941 95.2519 94.9084 95.0045 95.8608C95.9941 95.6227 96.7363 95.3846 97.7259 95.1465C97.7259 94.6703 97.7259 93.7179 97.9733 93.0036Z" fill="white"/>
<path d="M99.2104 85.6227H99.4578C100.2 85.6227 100.942 85.6227 101.684 85.6227C101.684 85.1465 101.684 84.6703 101.437 84.1941C100.447 84.1941 99.7052 84.1941 98.7156 84.1941C98.963 84.6703 99.2104 85.1465 99.2104 85.6227Z" fill="white"/>
<path d="M99.2104 86.8131C99.2104 87.2893 99.2104 88.0036 99.2104 88.4798C100.2 88.4798 100.942 88.4798 101.932 88.4798C101.932 88.0036 101.932 87.2893 101.932 86.8131C101.19 86.8131 100.2 86.8131 99.2104 86.8131Z" fill="white"/>
<path d="M44.2859 31.5751L49.2341 39.6703L44.2859 31.5751Z" fill="white"/>
<path d="M50.2237 40.8608L49.7289 41.0989H49.4815L49.9763 51.337C50.7185 51.0989 51.4608 51.0989 52.203 50.8608L51.9556 40.3846C51.2134 40.6227 50.7185 40.6227 50.2237 40.8608Z" fill="white"/>
<path d="M53.1926 40.1465L53.9348 50.6227C54.9245 50.3846 55.6667 50.3846 56.4089 50.3846L55.9141 39.6703C54.9245 39.9084 53.9348 40.1465 53.1926 40.1465Z" fill="white"/>
<path d="M46.0178 42.0512L46.5126 52.0512C47.2548 51.8131 47.997 51.5751 48.4918 51.5751L47.997 41.337C47.5022 41.5751 46.76 41.8132 46.0178 42.0512Z" fill="white"/>
<path d="M30.9259 8.24172L38.1007 6.33695L37.8533 0.860764L30.6785 2.76553L30.9259 8.24172Z" fill="white"/>
<path d="M30.4311 1.57506L34.8844 0.38458L31.6682 0.146484L26.4726 1.09887L30.4311 1.57506Z" fill="white"/>
<path d="M28.9467 58.7179C28.9467 59.1941 28.9467 59.6703 28.9467 59.9084C33.1526 56.8132 38.843 54.1941 45.2755 52.5274L44.7807 42.5274C34.8844 46.337 28.9467 52.2893 28.9467 58.7179Z" fill="white"/>
<path d="M99.7052 65.1465C99.9526 65.3846 99.9526 65.3846 100.2 65.6227L100.942 51.337C100.695 51.0989 100.695 50.8608 100.447 50.8608L99.7052 65.1465Z" fill="white"/>
<path d="M100.447 47.2893L99.2104 47.7655C99.2104 47.7655 99.2104 47.7655 99.4578 47.7655L100.447 47.2893C100.695 47.5274 100.447 47.5274 100.447 47.2893Z" fill="white"/>
<path d="M102.179 48.4798L100.447 48.956C100.695 49.1941 100.942 49.4322 101.19 49.4322L102.921 48.956C102.674 48.7179 102.427 48.7179 102.179 48.4798Z" fill="white"/>
<path d="M97.4785 63.2417C97.7259 63.4798 98.2207 63.7179 98.4681 63.956L99.2104 49.4322C98.963 49.1941 98.7156 48.956 98.2207 48.7179L97.4785 63.2417Z" fill="white"/>
<path d="M93.2726 59.9084C93.52 60.1465 94.0148 60.3846 94.2622 60.6227L94.757 46.337C94.5096 46.0989 94.2622 45.8608 93.7674 45.8608L93.2726 59.9084Z" fill="white"/>
<path d="M101.684 67.0512C101.932 67.2893 102.179 67.5274 102.179 67.7655L103.169 53.956C102.921 53.4798 102.674 53.2417 102.427 52.7655L101.684 67.0512Z" fill="white"/>
<path d="M95.4993 61.575C95.7467 61.8131 95.9941 61.8131 96.2415 62.0512L96.9837 47.7655C96.7363 47.5274 96.4889 47.2893 95.9941 47.0512L95.4993 61.575Z" fill="white"/>
<path d="M139.29 68.0036L139.043 78.0036L167 82.7655C167.495 79.6703 167.247 76.337 166.258 75.8608C164.773 74.9084 151.413 71.0989 139.29 68.0036Z" fill="white"/>
<path d="M106.138 51.8132C105.89 51.5751 105.89 51.5751 105.643 51.337L103.416 51.8132C103.416 51.8132 103.664 52.0512 103.664 52.2893L106.138 51.8132Z" fill="white"/>
<path d="M90.5511 58.4798C91.0459 58.7179 91.5407 58.956 91.7881 59.1941L92.5304 45.1465C92.0355 44.9084 91.7881 44.6703 91.2933 44.4322L90.5511 58.4798Z" fill="white"/>
<path d="M106.138 71.8131L137.806 77.7655L138.053 67.5274L106.633 61.0989L106.138 71.8131Z" fill="white"/>
<path d="M108.612 54.4322L105.396 55.1465L108.859 54.9084C108.859 54.6703 108.859 54.6703 108.612 54.4322Z" fill="white"/>
<path d="M103.416 68.956C103.911 69.4322 104.406 70.1465 104.653 70.3846L105.148 60.1465C105.148 58.7179 104.901 57.5274 104.158 56.0989L103.416 68.956Z" fill="white"/>
<path d="M82.8815 54.4322C83.3763 54.6703 83.8711 54.9084 84.3659 55.1465L84.6133 41.8132C84.1185 41.5751 83.6237 41.5751 83.1289 41.337L82.8815 54.4322Z" fill="white"/>
<path d="M71.5008 51.337C71.9956 51.337 72.4904 51.5751 72.9852 51.5751V39.4322C72.4904 39.4322 71.7482 39.4322 71.2534 39.1941L71.5008 51.337Z" fill="white"/>
<path d="M68.2844 38.956L68.5318 50.6227C69.0266 50.6227 69.7689 50.8608 70.2637 50.8608V38.956C69.5215 38.956 68.7792 38.956 68.2844 38.956Z" fill="white"/>
<path d="M74.4697 39.4322V51.8131C74.9645 52.0512 75.4593 52.0512 75.9541 52.2893V39.6703C75.4593 39.6703 74.9645 39.6703 74.4697 39.4322Z" fill="white"/>
<path d="M64.8208 32.7655L62.8415 37.5274C63.8311 37.5274 65.0682 37.5274 66.0578 37.5274C68.5319 37.5274 71.0059 37.7655 73.48 38.0036L77.6859 34.1941C73.7274 33.4798 69.2741 33.0036 64.8208 32.7655Z" fill="white"/>
<path d="M61.8519 39.1941H60.8622L61.3571 50.1465H62.0993C62.5941 50.1465 63.0889 50.1465 63.3363 50.1465L63.0889 38.956C62.8415 38.956 62.3467 38.956 61.8519 39.1941Z" fill="white"/>
<path d="M64.8207 38.956L65.0681 50.3846C65.8104 50.3846 66.5526 50.6227 67.2948 50.6227L66.8 38.956C66.0578 38.956 65.3156 38.956 64.8207 38.956Z" fill="white"/>
<path d="M77.1911 39.9084V52.5274C77.6859 52.7655 78.1807 52.7655 78.6755 53.0036V40.1465C78.1807 40.1465 77.6859 40.1465 77.1911 39.9084Z" fill="white"/>
<path d="M57.1511 39.4322L57.6459 50.1465C58.3882 50.1465 59.1304 50.1465 60.12 49.9084L59.6252 38.956C58.883 39.4322 57.8933 39.4322 57.1511 39.4322Z" fill="white"/>
<path d="M80.16 53.4798C80.6548 53.7179 80.9023 53.7179 81.3971 53.956L81.6445 40.8608C81.1497 40.6227 80.6548 40.6227 80.16 40.3846V53.4798Z" fill="white"/>
<path d="M85.603 55.8608C86.0978 56.0989 86.3452 56.337 86.84 56.337L87.0874 42.7655C86.5926 42.5274 86.3452 42.5274 85.8504 42.2893L85.603 55.8608Z" fill="white"/>
<path d="M75.4593 38.2417L76.6963 37.0512L75.4593 38.2417Z" fill="white"/>
<path d="M96.4889 45.8608L110.096 41.575C106.385 39.6703 102.674 38.0036 98.9629 36.5751L93.7674 39.1941L93.52 38.956C89.8089 37.2893 85.6029 35.8608 81.1496 34.6703L77.1911 38.2417C83.6237 39.4322 89.3141 41.337 94.2622 44.1941C95.0044 44.9084 95.7467 45.3846 96.4889 45.8608Z" fill="white"/>
<path d="M88.077 57.0513C88.5718 57.2893 88.8192 57.5274 89.3141 57.7655L90.0563 43.956C89.5615 43.7179 89.0667 43.4798 88.3244 43.2417L88.077 57.0513Z" fill="white"/>
<path d="M115.044 59.6703C114.797 59.4322 114.797 59.1941 114.55 58.956H113.313C113.313 59.1941 113.56 59.4322 113.56 59.6703H115.044Z" fill="white"/>
<path d="M116.034 61.8131C116.034 61.5751 115.787 61.337 115.787 61.337L114.302 61.0989C114.302 61.337 114.55 61.337 114.55 61.575L116.034 61.8131Z" fill="white"/>
<path d="M113.313 57.2893H112.323C112.323 57.2893 112.323 57.5274 112.57 57.5274H113.56C113.56 57.5274 113.56 57.5274 113.313 57.2893Z" fill="white"/>
<path d="M127.91 53.4798L113.807 55.3846C114.055 55.6227 114.055 55.6227 114.302 55.8608L130.136 54.9084C129.147 54.4322 128.652 53.956 127.91 53.4798Z" fill="white"/>
<path d="M111.828 58.956H107.375L112.076 59.4322C111.828 59.1941 111.828 59.1941 111.828 58.956Z" fill="white"/>
<path d="M112.818 60.8608L110.591 60.6227L113.065 61.0989C112.818 60.8608 112.818 60.8608 112.818 60.8608Z" fill="white"/>
<path d="M110.839 54.1941L110.096 54.4322C110.096 54.6703 110.344 54.6703 110.344 54.9084H111.086C111.086 54.4322 110.839 54.1941 110.839 54.1941Z" fill="white"/>
<path d="M112.076 55.6227H111.333L111.581 55.8608H112.57C112.323 55.8608 112.323 55.8608 112.076 55.6227Z" fill="white"/>
<path d="M150.671 69.6703C144.981 62.2893 134.59 54.4322 127.91 49.9084C133.353 54.1941 140.28 60.3846 145.476 68.2417C146.96 68.7179 148.939 69.1941 150.671 69.6703Z" fill="white"/>
<path d="M131.126 56.337L115.044 57.2893C115.044 57.5274 115.292 57.5274 115.292 57.7655H132.61C132.116 57.2893 131.621 56.8132 131.126 56.337Z" fill="white"/>
<path d="M143.249 67.5274C138.796 61.0989 132.858 55.6227 128.157 51.8131C134.342 57.0512 138.301 62.2893 139.043 66.575C140.033 66.8131 141.517 67.0512 143.249 67.5274Z" fill="white"/>
<path d="M112.818 54.1941L126.673 52.0512C126.178 51.5751 125.683 51.0989 124.941 50.6227L112.076 53.4798C112.323 53.956 112.57 54.1941 112.818 54.1941Z" fill="white"/>
<path d="M135.827 61.8131C135.332 60.8608 134.59 59.9084 133.6 58.956H116.034C116.281 59.1941 116.281 59.6703 116.529 59.9084L135.827 61.8131Z" fill="white"/>
<path d="M137.806 66.0989C137.559 65.1465 137.064 64.1941 136.569 63.2417L117.271 61.0989C117.519 61.337 117.519 61.5751 117.766 61.8131L137.806 66.0989Z" fill="white"/>
<path d="M119.003 99.4322H118.756C117.519 99.6703 116.282 100.146 115.044 100.623C106.633 103.956 103.911 107.527 103.664 108.004L102.922 119.67L126.178 109.908L126.673 99.1941C126.178 98.956 125.188 98.4798 123.456 98.4798C122.219 98.7179 120.735 98.956 119.003 99.4322Z" fill="white"/>
<path d="M108.612 52.5274C108.859 52.7655 108.859 53.0036 109.107 53.2417L109.602 53.0036C109.354 52.7655 109.107 52.5274 109.107 52.2893L108.612 52.5274Z" fill="white"/>
<path d="M152.898 70.1465C154.63 70.6227 156.362 71.0989 157.846 71.5751C146.465 58.956 131.373 49.9084 125.683 46.5751C132.116 51.0989 146.465 60.8608 152.898 70.1465Z" fill="white"/>
<path d="M110.096 56.337C109.849 56.0989 109.849 56.0989 110.096 56.337L107.375 56.5751L110.096 56.337Z" fill="white"/>
<path d="M31.1733 10.6227L38.1007 8.71791V7.76553L30.9259 9.6703L31.1733 10.6227Z" fill="white"/>
<path d="M160.073 72.2893C161.804 72.7655 163.289 73.2417 164.526 73.7179C155.124 62.2893 138.548 52.2893 130.384 48.0036C137.806 52.5274 150.424 61.0989 160.073 72.2893Z" fill="white"/>
<path d="M111.333 52.5274L123.704 49.9084C123.456 49.6703 123.209 49.4322 122.961 49.4322L110.839 52.0512C110.839 52.2893 111.086 52.5274 111.333 52.5274Z" fill="white"/>
<path d="M31.9156 32.0512L38.843 30.1465V29.1941L31.9156 31.0989V32.0512Z" fill="white"/>
<path d="M109.602 50.8608L121.477 48.2417C121.23 48.0036 120.982 47.7655 120.487 47.5274L109.107 50.3846C109.354 50.6227 109.354 50.8608 109.602 50.8608Z" fill="white"/>
<path d="M31.9156 34.4322L39.0904 32.2893V31.5751L31.9156 33.4798V34.4322Z" fill="white"/>
<path d="M31.6682 27.5274L38.843 25.3846L38.5956 24.4322L31.6682 26.337V27.5274Z" fill="white"/>
<path d="M31.9156 36.0989L39.0904 34.1941V33.7179L31.9156 35.6227V36.0989Z" fill="white"/>
<path d="M32.163 38.2417L39.0904 36.0989V35.6227L31.9156 37.5274L32.163 38.2417Z" fill="white"/>
<path d="M31.4207 20.3846L38.5955 18.2417L38.3481 17.2893L31.4207 19.1941V20.3846Z" fill="white"/>
<path d="M31.4207 17.7655L38.3482 15.8608V14.6703L31.1733 16.8131L31.4207 17.7655Z" fill="white"/>
<path d="M31.1733 15.3846L38.3482 13.4798V12.5274L31.1733 14.4322V15.3846Z" fill="white"/>
<path d="M31.1733 13.0036L38.3482 11.0989L38.1007 10.1465L31.1733 12.0512V13.0036Z" fill="white"/>
<path d="M31.6681 25.1465L38.5955 23.0036V22.0512L31.4207 23.956L31.6681 25.1465Z" fill="white"/>
<path d="M31.4207 22.7655L38.5955 20.6227V19.6703L31.4207 21.5751V22.7655Z" fill="white"/>
<path d="M61.6044 31.5751H62.3467L62.8415 29.9084C56.9037 29.9084 51.2133 30.3846 45.5229 31.337L46.0178 32.2893C47.997 32.0512 53.9348 31.337 61.6044 31.5751Z" fill="white"/>
<path d="M31.6682 29.9084L38.843 27.7655V26.8131L31.6682 28.7179V29.9084Z" fill="white"/>
<path d="M102.179 50.6227L102.427 50.8608L104.406 50.3846L104.159 50.1465L102.179 50.6227Z" fill="white"/>
<path d="M103.911 48.0036C104.159 48.2417 104.406 48.4798 104.653 48.4798C104.159 48.2417 103.911 48.0036 103.911 48.0036Z" fill="white"/>
<path d="M106.138 48.0036L116.281 44.9084C116.034 44.9084 116.034 44.6703 115.787 44.6703L105.643 47.5274C105.643 47.7655 105.89 47.7655 106.138 48.0036Z" fill="white"/>
<path d="M103.911 46.575L113.807 43.7179C113.56 43.7179 113.56 43.4798 113.313 43.4798L103.664 46.337C103.911 46.337 103.911 46.575 103.911 46.575Z" fill="white"/>
<path d="M47.0074 33.7179L50.4711 39.4322C53.44 38.7179 56.6563 38.2417 59.8726 38.0036L61.8518 32.7655H61.6044C54.677 32.7655 49.2341 33.2417 47.0074 33.7179Z" fill="white"/>
<path d="M104.406 53.4798C104.653 53.7179 104.653 53.956 104.901 54.1941L107.87 53.4798C107.622 53.2417 107.375 53.0036 107.375 52.7655L104.406 53.4798Z" fill="white"/>
<path d="M107.622 50.8608H107.375C107.622 51.0989 107.622 51.0989 107.87 51.337H108.364C107.87 51.0989 107.622 51.0989 107.622 50.8608Z" fill="white"/>
<path d="M64.5733 29.9084L63.8311 31.5751H64.0785L64.5733 29.9084Z" fill="white"/>
<path d="M80.9022 31.5751C76.9437 30.8608 72.7378 30.3846 68.7793 30.1465C67.7896 30.1465 66.8 30.1465 66.0578 30.1465L65.3156 31.8132C70.0163 32.0512 74.4696 32.5274 78.923 33.4798L80.9022 31.5751Z" fill="white"/>
<path d="M61.3571 37.7655L63.5837 32.7655H63.3363L61.3571 37.7655Z" fill="white"/>
<path d="M97.2311 36.0989C95.9941 35.6227 95.0045 35.3846 94.0148 34.9084C90.7985 33.956 87.3348 33.0036 84.1185 32.2893L82.1393 34.1941C86.3452 35.1465 90.0563 36.5751 93.7674 38.2417L97.2311 36.0989Z" fill="white"/>
<path d="M107.87 49.4322L119.003 46.8132C118.508 46.5751 118.261 46.337 117.766 46.0989L107.375 49.1941C107.622 49.1941 107.622 49.1941 107.87 49.4322Z" fill="white"/>
<path d="M111.828 42.5274L103.911 44.9084L111.828 42.5274Z" fill="white"/>
</g>
<defs>
<clipPath id="clip0_2_479">
<rect width="167" height="120" fill="white" transform="translate(0 0.146484)"/>
</clipPath>
</defs>
</svg>
