<svg width="31" height="32" viewBox="0 0 31 32" fill="none" xmlns="http://www.w3.org/2000/svg">
<g clip-path="url(#clip0_486_2668)">
<rect x="0.25" y="0.882812" width="30" height="30.2344" rx="15" fill="#00A1E9"/>
<rect width="22.9688" height="36.3281" transform="translate(30.5292 4.37061) rotate(44.4359)" fill="#8FC43E"/>
<path d="M17.0739 20.7595C17.0398 20.7253 17.0056 20.691 16.9373 20.6567C16.9373 20.7253 16.9373 20.8281 16.9032 20.9309C16.9715 20.8966 17.0056 20.8966 17.0398 20.8623C17.0739 20.8281 17.0739 20.7938 17.0739 20.7595Z" fill="white"/>
<path d="M16.9373 21.3077L17.0056 21.4105C17.0056 21.3077 17.0056 21.2049 17.0398 21.1021C17.0056 21.1021 16.9715 21.1363 16.9373 21.1706C16.9032 21.2049 16.9373 21.2734 16.9373 21.3077Z" fill="white"/>
<path d="M16.869 20.4854V20.5539C16.9032 20.5539 16.9032 20.5196 16.9373 20.5196L16.869 20.4854Z" fill="white"/>
<path d="M16.6983 21.0682C16.6983 21.0682 16.7325 21.0682 16.6983 21.0682C16.7325 20.9311 16.7325 20.8283 16.7325 20.7598C16.6983 20.794 16.6642 20.794 16.63 20.8283C16.63 20.8968 16.63 20.9654 16.63 20.9996L16.6983 21.0682Z" fill="white"/>
<path d="M16.63 20.5883C16.6642 20.5541 16.7325 20.5541 16.7666 20.5198C16.7325 20.4855 16.6642 20.4513 16.63 20.417C16.63 20.4855 16.63 20.5198 16.63 20.5883Z" fill="white"/>
<path d="M19.6349 25.1118C19.6008 25.1461 19.5325 25.1804 19.4983 25.2146C19.5666 25.2489 19.6008 25.3174 19.6691 25.3517C19.6691 25.2832 19.6349 25.1804 19.6349 25.1118Z" fill="white"/>
<path d="M19.5325 23.8096C19.4983 23.8096 19.4642 23.8438 19.3959 23.8438C19.3618 24.0152 19.3276 24.1865 19.3276 24.3579C19.43 24.2893 19.5325 24.2551 19.6349 24.1865C19.6691 24.0837 19.6691 24.0152 19.6691 23.9809C19.6349 23.9466 19.6008 23.8781 19.5325 23.8096Z" fill="white"/>
<path d="M16.0154 20.3484L16.1178 20.4512C16.1178 20.3827 16.1178 20.3141 16.1178 20.2456C16.0836 20.2799 16.0495 20.2799 16.0154 20.3141C16.0154 20.2799 16.0154 20.3141 16.0154 20.3484Z" fill="white"/>
<path d="M16.0154 20.0398C16.0495 20.0055 16.0836 20.0055 16.1178 20.0055C16.0836 19.9713 16.0495 19.937 16.0154 19.937C16.0154 19.937 16.0154 20.0055 16.0154 20.0398Z" fill="white"/>
<path d="M14.7519 20.828L14.2397 22.2673C14.6154 22.3016 14.9568 22.3016 15.3324 22.3016C16.1178 22.3016 16.8007 22.233 17.4154 22.1302L16.152 20.7938C15.9812 20.7595 15.2641 20.828 14.7519 20.828Z" fill="white"/>
<path d="M18.3032 22.2331C18.3032 22.1988 18.2691 22.1988 18.2691 22.1646C18.2691 22.1988 18.2691 22.2331 18.2349 22.2331C18.2349 22.2331 18.2691 22.2331 18.3032 22.2331Z" fill="white"/>
<path d="M19.3276 24.5975C19.3276 24.8374 19.3618 24.9745 19.3959 25.0773C19.4642 25.0087 19.5325 24.9745 19.6008 24.9402C19.6008 24.7689 19.6008 24.6318 19.6008 24.4604C19.5325 24.4947 19.43 24.529 19.3276 24.5975Z" fill="white"/>
<path d="M15.9129 20.2456C15.8788 20.2456 15.8788 20.2799 15.8446 20.2799H15.8105L15.8788 20.3484C15.9129 20.3141 15.9129 20.2799 15.9129 20.2456Z" fill="white"/>
<path d="M14.6154 20.6226H14.6837C14.752 20.6226 14.8544 20.6226 14.9568 20.6226C15.2983 20.6226 15.7422 20.5884 15.9812 20.5884L15.6056 20.2114C15.2983 20.2457 14.752 20.28 14.1715 20.28L13.1812 22.1647C13.3519 22.199 13.6251 22.2332 14.0349 22.2675L14.6154 20.6226Z" fill="white"/>
<path d="M15.8447 20.1425C15.8447 20.074 15.8447 20.0397 15.8447 19.9712C15.8105 19.9712 15.7764 20.0055 15.7422 20.0055V20.0397L15.8447 20.1425Z" fill="white"/>
<path d="M15.7422 19.6631V19.8344C15.7764 19.8002 15.8105 19.8002 15.8447 19.7659C15.8105 19.7316 15.7764 19.6974 15.7422 19.6631Z" fill="white"/>
<path d="M12.908 22.9529C13.0446 22.9872 13.3519 23.0557 13.8983 23.1242V22.9529C13.4202 22.9186 13.0446 22.8501 12.908 22.8501V22.9529Z" fill="white"/>
<path d="M15.5715 23.2956C15.7422 23.2956 15.9471 23.3299 16.1178 23.3299V23.0215C15.9471 23.0215 15.7422 23.0215 15.5715 23.0215V23.2956Z" fill="white"/>
<path d="M16.3227 23.3296C16.4934 23.3296 16.6983 23.3296 16.869 23.3296V22.9526C16.6983 22.9526 16.4934 22.9869 16.3227 22.9869V23.3296Z" fill="white"/>
<path d="M14.8203 22.9868V23.2267C15.0251 23.2267 15.1959 23.261 15.4007 23.261V22.9868H15.3666C15.1959 23.0211 14.991 23.0211 14.8203 22.9868Z" fill="white"/>
<path d="M14.069 23.1582C14.2398 23.1924 14.4105 23.1924 14.6154 23.2267V23.0211C14.4446 23.0211 14.2398 22.9868 14.069 22.9868V23.1582Z" fill="white"/>
<path d="M17.8934 22.6444L17.552 22.3018C16.9032 22.4388 16.152 22.5074 15.3324 22.5074C14.2397 22.5074 13.3519 22.4046 13.1129 22.3703L12.9422 22.6787C13.2836 22.7472 14.1714 22.85 15.3324 22.85C16.2203 22.8158 17.0739 22.7472 17.8934 22.6444Z" fill="white"/>
<path d="M16.3227 20.3139C16.3568 20.2797 16.391 20.2797 16.4251 20.2454C16.391 20.2111 16.3568 20.1768 16.3227 20.1426C16.3227 20.2111 16.3227 20.2454 16.3227 20.3139Z" fill="white"/>
<path d="M17.8934 21.5476L17.2447 20.8965C17.2105 21.2049 17.1764 21.479 17.2105 21.6161L17.791 22.2329C17.791 21.9931 17.8593 21.6847 17.8934 21.5476Z" fill="white"/>
<path d="M17.0739 23.3295C17.313 23.3295 17.5861 23.3295 17.8252 23.3295L17.9276 22.8154C17.6544 22.8497 17.3471 22.884 17.0398 22.9182V23.3295H17.0739Z" fill="white"/>
<path d="M16.3227 20.6568L16.4251 20.7596L16.4593 20.7253C16.4593 20.6225 16.4593 20.5197 16.4593 20.4512C16.4251 20.4854 16.3568 20.4854 16.3227 20.5197C16.3227 20.554 16.3227 20.6225 16.3227 20.6568Z" fill="white"/>
<path d="M19.9081 25.5228C19.9764 25.4542 20.0788 25.3857 20.1813 25.3172C20.1813 25.1801 20.1813 25.0087 20.1813 24.8374C20.0447 24.9059 19.9423 24.9402 19.8398 25.0087C19.8398 25.1801 19.8398 25.3514 19.9081 25.5228Z" fill="white"/>
<path d="M20.2154 24.4604C20.1471 24.3919 20.0788 24.3576 20.0105 24.2891C19.9423 24.3233 19.9081 24.3233 19.8398 24.3576C19.8057 24.4947 19.8057 24.666 19.8057 24.8031C19.9081 24.7345 20.0447 24.666 20.1813 24.6317C20.1813 24.5632 20.1813 24.4947 20.2154 24.4604Z" fill="white"/>
<path d="M20.1812 25.5229C20.1471 25.5572 20.0788 25.5915 20.0447 25.6258C20.113 25.66 20.1471 25.6943 20.2154 25.7286C20.2154 25.66 20.1812 25.5915 20.1812 25.5229Z" fill="white"/>
<path d="M18.5422 22.7473C18.5764 22.7473 18.6105 22.7131 18.6105 22.7131C18.6105 22.6788 18.5764 22.6788 18.5764 22.6445C18.5422 22.6788 18.5422 22.7131 18.5422 22.7473Z" fill="white"/>
<path d="M19.1569 24.9059C19.1569 24.8374 19.1227 24.7688 19.1227 24.666C19.0886 24.7003 19.0544 24.7346 18.9861 24.7346C19.0544 24.8031 19.1227 24.8716 19.1569 24.9059Z" fill="white"/>
<path d="M18.8496 24.1176C18.8496 24.289 18.8496 24.4603 18.8837 24.6317C18.952 24.5631 19.0544 24.5288 19.1569 24.4603C19.1569 24.289 19.191 24.1176 19.2252 23.9463C19.0886 23.9806 18.952 24.0491 18.8496 24.1176Z" fill="white"/>
<path d="M18.7471 23.2956C18.7813 23.1585 18.8154 23.0557 18.8154 22.9872C18.7813 22.9529 18.7471 22.8844 18.713 22.8501C18.6105 22.8844 18.5422 22.9186 18.4739 22.9529C18.4398 23.1242 18.4057 23.3299 18.3715 23.4669C18.5081 23.4327 18.6447 23.3641 18.7471 23.2956Z" fill="white"/>
<path d="M19.2935 23.5694C19.2252 23.5008 19.191 23.4323 19.1227 23.3638C19.0544 23.398 18.9862 23.398 18.9179 23.4323C18.8837 23.5694 18.8496 23.7407 18.8496 23.8778C18.9862 23.8093 19.1227 23.775 19.2252 23.7065C19.2593 23.6722 19.2593 23.6036 19.2935 23.5694Z" fill="white"/>
<path d="M7.54701 21.3423L7.85433 21.2053L7.82019 21.1367L7.54701 21.3423Z" fill="white"/>
<path d="M18.03 21.7876C17.9959 21.9932 17.9617 22.3016 17.9959 22.473C18.03 22.2331 18.0983 22.0275 18.0983 21.9247C18.0983 21.8904 18.0642 21.8219 18.03 21.7876Z" fill="white"/>
<path d="M6.86407 17.9155L6.65919 17.9498C6.55675 18.2582 6.5226 18.5324 6.5226 18.8408C6.5226 19.6975 6.86407 20.4856 7.51285 21.2395L7.99091 20.8969C7.20553 20.0402 6.96651 19.252 6.86407 18.7722C6.79577 18.361 6.82992 18.0869 6.86407 17.9155Z" fill="white"/>
<path d="M10.6543 16.5448L9.73238 16.4077C9.69823 16.442 9.35676 16.8532 9.28847 17.4358L10.347 17.2987C10.3812 17.0245 10.5177 16.7847 10.6543 16.5448Z" fill="white"/>
<path d="M11.8836 15.4825C12.2251 15.2768 12.6348 15.1055 13.0787 14.9684L12.3958 13.769C12.2934 13.8033 12.1909 13.8033 12.0543 13.8376L12.0885 14.4887L10.8251 14.8999L9.69822 14.6943C9.08358 15.0027 8.53723 15.3796 8.09332 15.7909L10.8934 16.2021C11.1665 15.9622 11.508 15.6881 11.8836 15.4825Z" fill="white"/>
<path d="M9.08361 17.7096C9.08361 17.6754 9.08361 17.6754 9.08361 17.6411L7.03481 17.9153C7.00066 18.0181 6.96651 18.3265 7.03481 18.772C7.1031 19.2517 7.37627 20.0056 8.1275 20.8281L10.0397 19.4916C9.45922 18.909 9.11775 18.3265 9.08361 17.7096Z" fill="white"/>
<path d="M8.33237 17.5385L9.11774 17.4357C9.15189 16.9217 9.42506 16.5105 9.5275 16.3391L8.94701 16.2363C8.81042 16.4077 8.46895 16.8532 8.33237 17.5385Z" fill="white"/>
<path d="M10.3129 17.5039L9.28847 17.641C9.28847 17.6752 9.28847 17.6752 9.28847 17.7095C9.32261 18.2921 9.62994 18.8404 10.2104 19.3887L10.8251 18.9774C10.4836 18.5662 10.3129 18.1207 10.3129 17.6752C10.3129 17.5724 10.3129 17.5382 10.3129 17.5039Z" fill="white"/>
<path d="M10.5861 10.4106L10.5519 9.58816L9.73239 9.48535V9.65669L9.56166 9.69096L9.59581 10.205L10.5861 10.4106Z" fill="white"/>
<path d="M10.8934 19.6973V19.1147L8.36652 20.8624L10.8934 19.6973Z" fill="white"/>
<path d="M10.6543 12.4667V12.3296L9.66409 12.124V12.2611L10.6543 12.4667Z" fill="white"/>
<path d="M10.6202 11.4389V11.3018L9.62996 11.0962V11.2333L10.6202 11.4389Z" fill="white"/>
<path d="M10.7568 14.6941L10.7226 14.6255L9.73238 14.4199V14.5227L10.7568 14.6941Z" fill="white"/>
<path d="M10.6544 11.7812L10.6202 11.6441L9.62996 11.4385V11.5755L10.6544 11.7812Z" fill="white"/>
<path d="M9.59581 10.4106V10.5477L10.6202 10.7533L10.5861 10.582L9.59581 10.4106Z" fill="white"/>
<path d="M10.6202 11.0961V10.9248L9.59581 10.7534L9.62996 10.8905L10.6202 11.0961Z" fill="white"/>
<path d="M10.6544 12.1239V11.9869L9.62996 11.7812L9.66411 11.9183L10.6544 12.1239Z" fill="white"/>
<path d="M10.7226 13.8373L10.6885 13.7002L9.69823 13.4946V13.666L10.7226 13.8373Z" fill="white"/>
<path d="M10.7226 14.1458V14.043L9.73238 13.8374V13.9745L10.7226 14.1458Z" fill="white"/>
<path d="M10.7226 14.4201V14.3516L9.73238 14.146V14.2488L10.7226 14.4201Z" fill="white"/>
<path d="M10.6885 13.4945V13.3575L9.69823 13.1519V13.3232L10.6885 13.4945Z" fill="white"/>
<path d="M10.6885 12.8095L10.6543 12.6381L9.66409 12.4668V12.6039L10.6885 12.8095Z" fill="white"/>
<path d="M10.6885 13.1523V13.0152L9.66409 12.8096L9.69824 12.9466L10.6885 13.1523Z" fill="white"/>
<path d="M8.70798 16.2362L7.78602 16.0991C7.27382 16.6131 6.89821 17.1614 6.69333 17.744L8.12749 17.5727C8.26408 16.9216 8.53725 16.4761 8.70798 16.2362Z" fill="white"/>
<path d="M18.6447 24.3921C18.6447 24.3236 18.6447 24.2551 18.6447 24.1865C18.6105 24.2208 18.5764 24.2208 18.5422 24.2551L18.5764 24.2893C18.6105 24.3236 18.6447 24.3579 18.6447 24.3921Z" fill="white"/>
<path d="M18.713 23.5352C18.5764 23.6037 18.4739 23.6722 18.3715 23.7408C18.3715 23.8436 18.3715 23.9464 18.3715 24.0149C18.4057 24.0492 18.4057 24.0834 18.4398 24.1177C18.4739 24.0834 18.5764 24.0492 18.6788 23.9806C18.6788 23.8436 18.6788 23.6722 18.713 23.5352Z" fill="white"/>
<path d="M19.3276 25.3174C18.9861 25.009 18.6788 24.7348 18.5422 24.5635L18.5081 24.7348C18.6447 24.9404 19.5325 26.0027 20.4886 26.4825L20.5227 26.1055C20.1471 25.9342 19.7715 25.6943 19.3618 25.3516C19.3959 25.3516 19.3618 25.3516 19.3276 25.3174Z" fill="white"/>
<path d="M18.4057 22.3701C18.3374 22.4044 18.2691 22.4044 18.2008 22.4387C18.2008 22.5072 18.2008 22.61 18.2008 22.6785V22.7471L18.1666 22.9527C18.2349 22.9184 18.2691 22.8841 18.3715 22.8499C18.4057 22.6443 18.4739 22.5072 18.4739 22.4387L18.4057 22.3701Z" fill="white"/>
<path d="M20.4203 25.8315C20.4544 25.8658 20.4886 25.8658 20.5227 25.9L20.5569 25.2832C20.4886 25.3175 20.4203 25.3517 20.352 25.386C20.3862 25.5573 20.3862 25.6944 20.4203 25.8315Z" fill="white"/>
<path d="M17.9959 23.4325C18.03 23.4668 18.0642 23.5696 18.1325 23.6724C18.1325 23.6724 18.1666 23.6724 18.1666 23.6381C18.1666 23.4668 18.2008 23.2955 18.2349 23.0898C18.1325 23.1584 18.0642 23.1926 18.03 23.1926L17.9959 23.4325Z" fill="white"/>
<path d="M20.352 24.7687C20.352 24.9058 20.352 25.0771 20.352 25.2142C20.4544 25.1457 20.5227 25.1114 20.591 25.0771L20.6252 24.7687C20.591 24.7345 20.5569 24.7345 20.5227 24.7002C20.4544 24.7345 20.4203 24.7345 20.352 24.7687Z" fill="white"/>
<path d="M16.869 18.9434C16.9032 18.9776 16.9373 18.9776 16.9715 18.9776C16.9715 18.9776 16.9373 18.9434 16.869 18.9434Z" fill="white"/>
<path d="M16.9715 20.4516C17.0398 20.4516 17.1081 20.4173 17.1764 20.4173C17.1764 20.3831 17.2105 20.3145 17.2105 20.2803C17.1422 20.2803 17.0739 20.2803 17.0056 20.2803C17.0056 20.3488 17.0056 20.3831 16.9715 20.4516Z" fill="white"/>
<path d="M16.3568 19.9033C16.4251 19.869 16.5276 19.869 16.5959 19.8347C16.5959 19.8005 16.63 19.7662 16.63 19.7319C16.5617 19.7319 16.4934 19.7662 16.4251 19.7662C16.3568 19.8347 16.3568 19.869 16.3568 19.9033Z" fill="white"/>
<path d="M16.8349 19.5261C16.9032 19.5261 16.9715 19.5261 17.0398 19.5261C17.0398 19.4919 17.0398 19.4576 17.0739 19.4233C17.0056 19.4233 16.9373 19.4233 16.869 19.4233C16.8349 19.4233 16.8349 19.4919 16.8349 19.5261Z" fill="white"/>
<path d="M16.4934 19.218C16.5617 19.218 16.63 19.218 16.6983 19.218C16.6983 19.1837 16.6983 19.1837 16.6983 19.1494C16.63 19.1494 16.5617 19.1494 16.4934 19.1494C16.4934 19.1494 16.4934 19.1837 16.4934 19.218Z" fill="white"/>
<path d="M16.4251 19.5605C16.4934 19.5605 16.5617 19.5262 16.63 19.5262C16.63 19.4577 16.63 19.4234 16.6642 19.3892C16.5959 19.3892 16.5276 19.3892 16.4593 19.3892C16.4593 19.4577 16.4251 19.5262 16.4251 19.5605Z" fill="white"/>
<path d="M16.7666 19.8002C16.8349 19.8002 16.9032 19.8002 16.9715 19.7659C16.9715 19.7316 16.9715 19.6974 17.0056 19.6631C16.9373 19.6631 16.869 19.6631 16.8007 19.6631C16.8007 19.7316 16.8007 19.7659 16.7666 19.8002Z" fill="white"/>
<path d="M16.6983 20.1429C16.7666 20.1087 16.8349 20.1087 16.9032 20.1087C16.9032 20.0744 16.9373 20.0401 16.9373 20.0059C16.8691 20.0059 16.8008 20.0059 16.7325 20.0401C16.7325 20.0744 16.6983 20.1087 16.6983 20.1429Z" fill="white"/>
<path d="M17.313 19.9717C17.2447 19.9717 17.1764 19.9717 17.1081 19.9717C17.1081 20.0059 17.0739 20.0402 17.0739 20.0745C17.1422 20.0745 17.2105 20.0745 17.2788 20.0745C17.313 20.0402 17.313 20.0059 17.313 19.9717Z" fill="white"/>
<path d="M19.1569 21.1709C19.2593 21.1709 19.3276 21.1366 19.4301 21.1366C19.4301 21.068 19.43 21.0338 19.3959 20.9995C19.2935 20.9995 19.2252 20.9995 19.1569 21.0338C19.1569 21.068 19.1569 21.1023 19.1569 21.1709Z" fill="white"/>
<path d="M16.869 19.218C16.9373 19.218 17.0056 19.218 17.0739 19.218V19.1837C17.0056 19.1837 16.9373 19.1837 16.869 19.1494C16.869 19.1494 16.869 19.1837 16.869 19.218Z" fill="white"/>
<path d="M19.191 21.5822C19.2935 21.5822 19.3959 21.5479 19.4984 21.5479C19.4984 21.5136 19.4984 21.5136 19.4984 21.4794C19.4984 21.4108 19.4984 21.3766 19.4984 21.3423C19.3959 21.3423 19.2935 21.3766 19.191 21.3766C19.191 21.4108 19.191 21.4794 19.191 21.5822Z" fill="white"/>
<path d="M17.9959 21.3766C18.1666 21.2053 18.5764 20.7941 19.2252 20.5885L18.5764 20.1772C17.8935 20.2801 17.4837 20.5542 17.3471 20.6913L17.9959 21.3766Z" fill="white"/>
<path d="M19.1569 22.0277C19.2593 22.0277 19.3959 21.9934 19.4983 21.9934C19.4983 21.8906 19.4983 21.822 19.4983 21.7192C19.3959 21.7192 19.2593 21.7535 19.1569 21.7535C19.191 21.8563 19.1569 21.9248 19.1569 22.0277Z" fill="white"/>
<path d="M19.1569 20.8283C19.2252 20.8283 19.2935 20.8283 19.3959 20.794C19.3959 20.7598 19.3959 20.7598 19.3959 20.7598C19.2935 20.794 19.2252 20.794 19.1569 20.8283Z" fill="white"/>
<path d="M16.2885 19.1147C16.2544 19.1147 16.2203 19.1147 16.1861 19.1147H16.152C16.152 19.149 16.152 19.1833 16.152 19.2518C16.1861 19.2518 16.2544 19.2518 16.2885 19.2518C16.2885 19.1833 16.2885 19.149 16.2885 19.1147Z" fill="white"/>
<path d="M16.0495 19.6632C16.1178 19.6289 16.152 19.6289 16.2202 19.6289C16.2202 19.5604 16.2544 19.4919 16.2544 19.4233C16.2202 19.4233 16.152 19.4233 16.1178 19.4576C16.1178 19.5261 16.0837 19.5947 16.0495 19.6632Z" fill="white"/>
<path d="M15.8446 19.4918C15.8788 19.5261 15.8788 19.5261 15.9129 19.5603C15.9129 19.5261 15.9129 19.4918 15.9471 19.4918C15.8788 19.4575 15.8446 19.4918 15.8446 19.4918Z" fill="white"/>
<path d="M15.9812 19.2178C15.9471 19.252 15.9129 19.2863 15.8788 19.2863C15.9129 19.2863 15.9471 19.2863 15.9812 19.2863C15.9812 19.252 15.9812 19.2178 15.9812 19.2178Z" fill="white"/>
<path d="M16.1861 18.8753C16.4252 18.7725 16.63 18.7382 16.8008 18.7382C16.9715 18.7382 17.0739 18.8067 17.1081 18.8067C17.1422 18.7725 17.1422 18.7382 17.1422 18.7039C17.0398 18.4298 16.7325 18.1556 16.2886 17.95C15.8105 17.7444 15.1959 17.6416 14.5812 17.6416C13.9666 17.6416 13.352 17.7444 12.8739 17.95C12.43 18.1556 12.1227 18.3955 12.0202 18.7039C12.2593 19.3207 13.352 19.7662 14.5812 19.7662C14.9227 19.7662 15.23 19.732 15.5373 19.6634V19.4921C15.5373 19.4578 15.5373 19.1494 16.1861 18.8753Z" fill="white"/>
<path d="M14.5812 17.4699C15.7422 17.4699 16.7666 17.8469 17.1764 18.3952C17.0739 17.7098 15.9471 17.1958 14.5812 17.1958C13.2154 17.1958 12.0885 17.7441 11.9861 18.3952C12.43 17.8469 13.4544 17.4699 14.5812 17.4699Z" fill="white"/>
<path d="M17.3813 19.8005C17.3813 19.7662 17.3813 19.7319 17.4154 19.7319C17.3471 19.7319 17.2788 19.7319 17.2105 19.7319C17.2105 19.7662 17.2105 19.8005 17.1764 19.8005C17.2447 19.8005 17.313 19.8005 17.3813 19.8005Z" fill="white"/>
<path d="M18.0983 19.8346C18.03 19.8346 17.9959 19.8003 17.9276 19.8003C17.9276 19.8346 17.9276 19.8688 17.9276 19.9031C17.9959 19.9031 18.03 19.9374 18.0983 19.9374C18.0983 19.8688 18.0983 19.8346 18.0983 19.8346Z" fill="white"/>
<path d="M18.03 20.1428C18.03 20.1085 18.03 20.1085 18.03 20.1428C17.9959 20.1085 17.9276 20.0742 17.8593 20.0742C17.8593 20.1085 17.8593 20.1085 17.8593 20.1428C17.9276 20.1428 17.9617 20.177 17.9959 20.177C17.9959 20.1428 18.03 20.1428 18.03 20.1428Z" fill="white"/>
<path d="M17.6203 19.5602C17.6886 19.5602 17.7227 19.5602 17.791 19.5945V19.5602L17.7569 19.526C17.7227 19.526 17.6886 19.526 17.6544 19.4917C17.6203 19.4917 17.6203 19.526 17.6203 19.5602Z" fill="white"/>
<path d="M18.2691 19.9375V19.9718C18.3032 19.9718 18.3374 20.006 18.3374 20.006C18.3032 19.9718 18.3032 19.9718 18.2691 19.9375Z" fill="white"/>
<path d="M17.6203 20.2803C17.552 20.2803 17.4837 20.2803 17.4154 20.2803C17.4154 20.3145 17.3812 20.3488 17.3812 20.4173C17.4154 20.4173 17.4495 20.4173 17.4495 20.4173C17.5178 20.3488 17.552 20.3145 17.6203 20.2803Z" fill="white"/>
<path d="M17.2105 19.5262C17.2788 19.5262 17.3471 19.5262 17.4154 19.5262C17.4154 19.492 17.4154 19.4577 17.4496 19.4234C17.3813 19.4234 17.313 19.3892 17.2447 19.3892C17.2447 19.4577 17.2447 19.492 17.2105 19.5262Z" fill="white"/>
<path d="M17.2788 19.2179C17.313 19.2179 17.3471 19.2179 17.3812 19.2179C17.3812 19.2179 17.3471 19.2179 17.3471 19.1836C17.313 19.2179 17.313 19.2179 17.2788 19.2179Z" fill="white"/>
<path d="M17.313 19.115C17.2788 19.0807 17.2105 19.0465 17.1764 19.0122V19.0807H17.2105C17.2788 19.0807 17.313 19.115 17.313 19.115Z" fill="white"/>
<path d="M17.6885 20.0401C17.6202 20.0401 17.552 20.0059 17.5178 20.0059C17.5178 20.0401 17.5178 20.0744 17.4837 20.0744C17.552 20.0744 17.6202 20.0744 17.6544 20.1087C17.6885 20.0744 17.6885 20.0401 17.6885 20.0401Z" fill="white"/>
<path d="M17.5862 19.3547C17.6544 19.3547 17.6886 19.3889 17.7227 19.3889C17.6544 19.3547 17.6203 19.3204 17.5862 19.2861V19.3547Z" fill="white"/>
<path d="M17.7569 19.7662C17.6886 19.7662 17.6544 19.7662 17.5861 19.7319C17.5861 19.7662 17.5861 19.8005 17.552 19.8005C17.6203 19.8005 17.6544 19.8005 17.7227 19.8347C17.7227 19.8005 17.7227 19.7662 17.7569 19.7662Z" fill="white"/>
<path d="M21.274 23.7068C21.4447 23.6725 21.5813 23.6725 21.7179 23.6382C21.7179 23.5697 21.752 23.5012 21.752 23.4326C21.6154 23.4326 21.4447 23.4326 21.3081 23.4669C21.3081 23.5354 21.3081 23.6382 21.274 23.7068Z" fill="white"/>
<path d="M20.7276 22.8157C20.8642 22.8157 21.035 22.7815 21.1715 22.7815C21.1715 22.6787 21.1715 22.6101 21.1715 22.5073C21.035 22.5073 20.8984 22.5073 20.7618 22.5073C20.7618 22.6101 20.7618 22.7129 20.7276 22.8157Z" fill="white"/>
<path d="M21.4106 21.5822C21.3423 21.5479 21.3081 21.5137 21.2398 21.5137C21.2398 21.5479 21.2398 21.5479 21.2398 21.5822C21.3081 21.5479 21.3764 21.5479 21.4106 21.5822Z" fill="white"/>
<path d="M21.3423 21.9589C21.4789 21.9589 21.5813 21.9589 21.6837 21.9932C21.6837 21.9247 21.6496 21.8561 21.6496 21.8219C21.5471 21.8219 21.4106 21.7876 21.3081 21.7876C21.3081 21.8219 21.3423 21.8904 21.3423 21.9589Z" fill="white"/>
<path d="M20.7618 22.336C20.7959 22.336 20.8301 22.336 20.8642 22.336C20.9667 22.336 21.0691 22.336 21.1715 22.336C21.1715 22.2674 21.1715 22.1989 21.1715 22.1304C21.035 22.1304 20.9325 22.1304 20.7959 22.1304C20.7618 22.1989 20.7618 22.2674 20.7618 22.336Z" fill="white"/>
<path d="M21.7862 22.5758C21.6496 22.5758 21.513 22.5415 21.3764 22.5415C21.3764 22.61 21.3764 22.7128 21.3764 22.7814C21.513 22.7814 21.6496 22.7814 21.7862 22.8156C21.7862 22.7471 21.7862 22.6443 21.7862 22.5758Z" fill="white"/>
<path d="M21.3764 22.336C21.513 22.336 21.6154 22.336 21.752 22.3702C21.752 22.3017 21.7179 22.2332 21.7179 22.1646C21.6154 22.1646 21.4788 22.1646 21.3423 22.1304C21.3764 22.1989 21.3764 22.2674 21.3764 22.336Z" fill="white"/>
<path d="M21.6155 23.8438C21.4789 23.8438 21.3764 23.878 21.2398 23.9123C21.2057 23.9808 21.2057 24.0494 21.1716 24.1179C21.3081 24.0494 21.4447 23.9466 21.6155 23.8438Z" fill="white"/>
<path d="M21.0691 23.7409C21.1032 23.6381 21.1032 23.5696 21.1032 23.4668C20.9325 23.4668 20.7618 23.5011 20.591 23.5353C20.5569 23.6381 20.5569 23.7752 20.5227 23.878C20.7276 23.8437 20.8983 23.7752 21.0691 23.7409Z" fill="white"/>
<path d="M21.1716 22.9873C21.035 22.9873 20.8642 22.9873 20.6935 23.0216C20.6935 23.1244 20.6594 23.2614 20.6252 23.3643C20.7959 23.33 20.9667 23.33 21.1033 23.2957C21.1716 23.1929 21.1716 23.0901 21.1716 22.9873Z" fill="white"/>
<path d="M20.7618 21.9249C20.8984 21.9249 21.0008 21.9249 21.1374 21.9249C21.1374 21.8564 21.1032 21.7879 21.1032 21.7193C20.9667 21.7193 20.8642 21.6851 20.7618 21.6851C20.7618 21.7879 20.7618 21.8564 20.7618 21.9249Z" fill="white"/>
<path d="M21.0691 21.548C21.0691 21.4794 21.035 21.4109 21.035 21.3766L20.9325 21.3424C20.8984 21.3424 20.8301 21.3424 20.6935 21.3081C20.6935 21.3766 20.7276 21.4452 20.7276 21.5137C20.8642 21.5137 20.9667 21.5137 21.0691 21.548Z" fill="white"/>
<path d="M22.5374 22.8844C22.6398 22.9187 22.7764 22.9187 22.8789 22.9529C22.8789 22.8844 22.8447 22.7816 22.8447 22.7131C22.7423 22.6788 22.6398 22.6788 22.5374 22.6445C22.5033 22.7473 22.5033 22.8159 22.5374 22.8844Z" fill="white"/>
<path d="M22.5374 23.2612C22.6398 23.2612 22.7764 23.2955 22.8789 23.2955C22.8789 23.2612 22.8789 23.1926 22.8789 23.1584C22.7764 23.1241 22.6398 23.1241 22.5374 23.0898C22.5374 23.1584 22.5374 23.2269 22.5374 23.2612Z" fill="white"/>
<path d="M23.1862 23.2271C23.152 23.2271 23.1179 23.1929 23.0837 23.1929C23.0837 23.2271 23.0837 23.2271 23.0837 23.2614C23.1179 23.2614 23.152 23.2614 23.1862 23.2271Z" fill="white"/>
<path d="M23.7325 23.193C23.7325 23.2273 23.7325 23.2273 23.7325 23.193C23.6642 23.1245 23.5959 23.0217 23.4935 22.9531C23.4935 23.0217 23.5276 23.0559 23.5276 23.1245C23.6301 23.1587 23.6984 23.193 23.7325 23.193Z" fill="white"/>
<path d="M22.7764 22.5076C22.7423 22.4391 22.7423 22.3706 22.7423 22.3363C22.674 22.302 22.6057 22.2335 22.5374 22.1992C22.5033 22.1992 22.4691 22.1992 22.4008 22.1992C22.435 22.2678 22.435 22.3706 22.435 22.4391C22.5716 22.4734 22.674 22.5076 22.7764 22.5076Z" fill="white"/>
<path d="M23.6301 23.2956C23.596 23.2956 23.5277 23.2613 23.4594 23.2271V23.2956C23.4935 23.2956 23.5618 23.2956 23.6301 23.2956Z" fill="white"/>
<path d="M23.3228 23.0902C23.2886 22.9874 23.2886 22.8846 23.2545 22.8161C23.1862 22.7818 23.0838 22.7818 23.0155 22.7476C23.0155 22.8504 23.0496 22.9189 23.0496 22.9874C23.152 23.0217 23.2203 23.056 23.3228 23.0902Z" fill="white"/>
<path d="M21.9228 23.6385C21.9911 23.6385 22.0252 23.6385 22.0252 23.6385C22.0935 23.6043 22.1959 23.57 22.2984 23.5357H22.3325V23.5015C22.1959 23.5015 22.0593 23.5015 21.9228 23.5015C21.9569 23.5015 21.9569 23.57 21.9228 23.6385Z" fill="white"/>
<path d="M22.1618 21.9932C22.0594 21.9247 21.9569 21.8561 21.8545 21.7876C21.8545 21.8219 21.8886 21.8904 21.8886 21.9589C21.9911 21.9932 22.0935 21.9932 22.1618 21.9932Z" fill="white"/>
<path d="M21.9569 22.4044C22.0593 22.4044 22.1959 22.4387 22.2984 22.4387C22.2984 22.3702 22.2642 22.2674 22.2642 22.1988C22.1618 22.1988 22.0593 22.1646 21.9569 22.1646C21.9228 22.2331 21.9228 22.3359 21.9569 22.4044Z" fill="white"/>
<path d="M21.8545 21.7194C21.8203 21.6851 21.7862 21.6851 21.752 21.6509V21.7194H21.8545Z" fill="white"/>
<path d="M21.9569 23.2614C22.0935 23.2614 22.2301 23.2614 22.3325 23.2614C22.3325 23.1928 22.3325 23.1243 22.3325 23.0558C22.1959 23.0215 22.0935 23.0215 21.9569 23.0215C21.991 23.09 21.9569 23.1586 21.9569 23.2614Z" fill="white"/>
<path d="M21.9569 22.816C22.0935 22.816 22.1959 22.8503 22.2984 22.8503C22.2984 22.7818 22.2642 22.679 22.2642 22.6104C22.1618 22.6104 22.0593 22.5762 21.9228 22.5762C21.9569 22.679 21.9569 22.7475 21.9569 22.816Z" fill="white"/>
<path d="M21.7862 22.9874C21.6496 22.9874 21.513 22.9874 21.3764 22.9531C21.3764 23.0559 21.3764 23.1587 21.3423 23.2615C21.4788 23.2615 21.6154 23.2615 21.7862 23.2273C21.7862 23.1587 21.7862 23.0902 21.7862 22.9874Z" fill="white"/>
<path d="M20.0106 20.8624C20.0447 20.8624 20.0447 20.8624 20.0788 20.8624C20.0447 20.8281 19.9764 20.8281 19.9423 20.8281V20.8624H20.0106Z" fill="white"/>
<path d="M18.5764 21.1367C18.5081 21.2053 18.4398 21.2395 18.3715 21.3081V21.3423C18.4398 21.3081 18.5081 21.3081 18.5764 21.2738C18.5764 21.2053 18.5764 21.171 18.5764 21.1367Z" fill="white"/>
<path d="M18.4739 22.1648C18.4739 22.1648 18.5081 22.1648 18.4739 22.1648C18.5081 22.062 18.5422 21.9592 18.5422 21.8906C18.4398 21.9249 18.3715 21.9249 18.3373 21.9592C18.3715 21.9934 18.4056 22.0962 18.4739 22.1648Z" fill="white"/>
<path d="M18.5764 21.6851C18.5764 21.6166 18.5764 21.548 18.5764 21.4795C18.5081 21.5138 18.4398 21.5138 18.3715 21.548C18.3715 21.6166 18.3715 21.6851 18.3715 21.7536C18.4056 21.7194 18.4739 21.6851 18.5764 21.6851Z" fill="white"/>
<path d="M18.952 22.2334C18.8496 22.2677 18.7471 22.2677 18.6447 22.3019C18.6447 22.3362 18.6447 22.3705 18.6105 22.4047C18.6447 22.4733 18.713 22.5418 18.7813 22.6446C18.8154 22.6446 18.8496 22.6103 18.9179 22.6103C18.952 22.5075 18.952 22.3705 18.952 22.2334Z" fill="white"/>
<path d="M19.4983 23.5015C19.5325 23.5357 19.5666 23.57 19.6008 23.6043C19.6691 23.57 19.7715 23.5357 19.8739 23.5357C19.9081 23.3987 19.9422 23.2616 19.9764 23.1245C19.8398 23.1588 19.7374 23.193 19.6008 23.2273C19.5666 23.2959 19.5666 23.3987 19.5325 23.4672L19.4983 23.5015Z" fill="white"/>
<path d="M18.713 22.0961C18.8154 22.0618 18.8837 22.0618 18.9861 22.0276C18.9861 21.9248 18.9861 21.8562 18.9861 21.7534C18.9178 21.7534 18.8154 21.7877 18.7471 21.7877C18.7471 21.9248 18.713 22.0276 18.713 22.0961Z" fill="white"/>
<path d="M19.4642 22.6445C19.3959 22.6445 19.3617 22.6788 19.2935 22.6788C19.2252 22.7131 19.1569 22.7131 19.0886 22.7473C19.0886 22.8159 19.0544 22.9187 19.0544 22.9872C19.0886 23.0557 19.1227 23.09 19.191 23.1586C19.2593 23.1243 19.3276 23.09 19.43 23.09C19.43 22.9187 19.4642 22.7816 19.4642 22.6445Z" fill="white"/>
<path d="M18.9861 21.2054C18.9861 21.1369 18.9861 21.1026 18.9861 21.0684C18.9178 21.0684 18.8495 21.1026 18.7812 21.1026C18.7812 21.1369 18.7812 21.2054 18.7812 21.2397C18.8495 21.2054 18.9178 21.2054 18.9861 21.2054Z" fill="white"/>
<path d="M18.9861 21.5821C18.9861 21.5135 18.9861 21.445 18.9861 21.3765C18.9178 21.3765 18.8495 21.4107 18.7812 21.4107C18.7812 21.4793 18.7812 21.5478 18.7812 21.6163C18.8154 21.6163 18.9178 21.6163 18.9861 21.5821Z" fill="white"/>
<path d="M20.8642 24.3923C20.8642 24.3923 20.8983 24.358 20.9325 24.358C20.9666 24.2209 21.0349 24.0838 21.0691 23.9468C20.8983 23.981 20.6935 24.0496 20.5227 24.0839C20.4886 24.1867 20.4544 24.2895 20.4203 24.358C20.4544 24.3923 20.5227 24.4265 20.5569 24.4608C20.6935 24.4608 20.7959 24.4265 20.8642 24.3923Z" fill="white"/>
<path d="M20.591 22.5415C20.4544 22.5415 20.352 22.5415 20.2154 22.5758C20.2154 22.6786 20.1812 22.7814 20.1812 22.9185C20.3178 22.8842 20.4544 22.8842 20.5569 22.8499C20.5569 22.7128 20.5569 22.61 20.591 22.5415Z" fill="white"/>
<path d="M20.0447 23.4671C20.1813 23.4328 20.3179 23.3985 20.4544 23.3643C20.4886 23.2272 20.4886 23.1244 20.5227 22.9873C20.3861 22.9873 20.2496 23.0216 20.113 23.0558C20.113 23.1929 20.0788 23.33 20.0447 23.4671Z" fill="white"/>
<path d="M20.0447 21.9591C20.0447 21.8563 20.0447 21.7878 20.0447 21.7192C19.9422 21.7192 19.8057 21.7192 19.7032 21.7192C19.7032 21.7878 19.7032 21.8906 19.7032 21.9934C19.8057 21.9591 19.9081 21.9591 20.0447 21.9591Z" fill="white"/>
<path d="M20.0447 22.1304C19.9081 22.1304 19.8057 22.1304 19.7032 22.1646C19.7032 22.2674 19.7032 22.336 19.7032 22.4388C19.8057 22.4045 19.9422 22.4045 20.0447 22.4045C20.0447 22.3017 20.0447 22.1989 20.0447 22.1304Z" fill="white"/>
<path d="M20.4203 23.5698C20.2837 23.6041 20.113 23.6384 19.9764 23.6726C19.9422 23.7754 19.9422 23.844 19.9081 23.9468C19.9422 23.981 19.9764 24.0153 20.0105 24.0496C20.113 24.0153 20.2154 23.981 20.3179 23.9468C20.3862 23.8097 20.4203 23.7069 20.4203 23.5698Z" fill="white"/>
<path d="M19.6691 21.3081C19.6691 21.3424 19.6691 21.4109 19.6691 21.4452C19.6691 21.4794 19.6691 21.4794 19.6691 21.5137C19.7715 21.5137 19.8739 21.5137 20.0105 21.5137C20.0105 21.4452 19.9764 21.3766 19.9764 21.3081C19.8739 21.3081 19.7715 21.3081 19.6691 21.3081Z" fill="white"/>
<path d="M20.2154 22.3702C20.352 22.3702 20.4545 22.336 20.5911 22.336C20.5911 22.2674 20.5911 22.1989 20.5911 22.1304C20.4545 22.1304 20.352 22.1304 20.2154 22.1304C20.2154 22.1989 20.2154 22.2674 20.2154 22.3702Z" fill="white"/>
<path d="M19.4983 22.1646C19.3617 22.1646 19.2593 22.1988 19.1569 22.1988C19.1569 22.3016 19.1227 22.4387 19.1227 22.5415C19.1569 22.5415 19.191 22.5072 19.2593 22.5072C19.3276 22.473 19.3959 22.473 19.4983 22.473C19.4983 22.3702 19.4983 22.2674 19.4983 22.1646Z" fill="white"/>
<path d="M20.113 21.1024C20.2154 21.1024 20.3179 21.1024 20.4544 21.1024C20.352 21.0681 20.2496 20.9996 20.1471 20.9653C20.1471 20.9653 20.1471 20.9653 20.113 20.9653C20.113 21.0339 20.113 21.0681 20.113 21.1024Z" fill="white"/>
<path d="M20.2837 24.1523C20.2495 24.1523 20.2154 24.1866 20.1812 24.1866C20.2154 24.2209 20.2154 24.2209 20.2495 24.2551C20.2495 24.2209 20.2837 24.1866 20.2837 24.1523Z" fill="white"/>
<path d="M19.9422 21.1024C19.9422 21.0681 19.9081 20.9996 19.9081 20.9653C19.8398 20.9653 19.7373 20.9653 19.6349 20.9653C19.6349 20.9996 19.6349 21.0681 19.669 21.1024C19.7373 21.1024 19.8398 21.1024 19.9422 21.1024Z" fill="white"/>
<path d="M20.0105 22.5762C19.8739 22.5762 19.7715 22.6104 19.6691 22.6104C19.6691 22.7475 19.6349 22.8503 19.6008 22.9874C19.7374 22.9531 19.8398 22.9189 19.9764 22.8846C19.9764 22.816 20.0105 22.679 20.0105 22.5762Z" fill="white"/>
<path d="M20.1813 21.5137H20.2154C20.3179 21.5137 20.4203 21.5137 20.5227 21.5137C20.5227 21.4452 20.5227 21.3766 20.4886 21.3081C20.352 21.3081 20.2496 21.3081 20.113 21.3081C20.1813 21.3766 20.1813 21.4452 20.1813 21.5137Z" fill="white"/>
<path d="M20.2154 21.6851C20.2154 21.7536 20.2154 21.8564 20.2154 21.9249C20.352 21.9249 20.4545 21.9249 20.5911 21.9249C20.5911 21.8564 20.5911 21.7536 20.5911 21.6851C20.4545 21.6851 20.352 21.6851 20.2154 21.6851Z" fill="white"/>
<path d="M12.6007 13.7349L13.2837 14.9L12.6007 13.7349Z" fill="white"/>
<path d="M13.4544 15.0715L13.3861 15.1057H13.3519L13.4202 16.5793C13.5227 16.545 13.6251 16.545 13.7275 16.5107L13.6592 15.0029C13.591 15.0372 13.5227 15.0372 13.4544 15.0715Z" fill="white"/>
<path d="M13.83 14.9684L13.9324 16.4762C14.069 16.442 14.1715 16.442 14.2739 16.442L14.2056 14.8999C14.069 14.9342 13.9666 14.9684 13.83 14.9684Z" fill="white"/>
<path d="M12.8739 15.2425L12.9422 16.6817C13.0446 16.6474 13.147 16.6132 13.2153 16.6132L13.147 15.1396C13.0446 15.1739 12.9763 15.2082 12.8739 15.2425Z" fill="white"/>
<path d="M10.7909 10.3768L11.747 10.1026V9.31445L10.7568 9.5886L10.7909 10.3768Z" fill="white"/>
<path d="M10.7226 9.41703L11.3031 9.24569L10.8592 9.21143L10.1763 9.3485L10.7226 9.41703Z" fill="white"/>
<path d="M10.5178 17.6413C10.5178 17.7098 10.5178 17.7783 10.5178 17.8126C11.0983 17.3671 11.8836 16.9902 12.7715 16.7503L12.7032 15.311C11.3032 15.8593 10.5178 16.716 10.5178 17.6413Z" fill="white"/>
<path d="M20.2837 18.5668C20.3179 18.6011 20.3179 18.6011 20.352 18.6354L20.4545 16.5793C20.4203 16.545 20.4203 16.5107 20.3862 16.5107L20.2837 18.5668Z" fill="white"/>
<path d="M20.3862 15.9966L20.2154 16.0651C20.2154 16.0651 20.2154 16.0651 20.2496 16.0651L20.3862 15.9966C20.3862 16.0309 20.3862 16.0309 20.3862 15.9966Z" fill="white"/>
<path d="M20.591 16.168L20.352 16.2365C20.3862 16.2708 20.4203 16.305 20.4545 16.305L20.6935 16.2365C20.6593 16.2022 20.6252 16.2022 20.591 16.168Z" fill="white"/>
<path d="M19.9764 18.2925C20.0105 18.3268 20.0788 18.361 20.113 18.3953L20.2154 16.305C20.1813 16.2707 20.1471 16.2364 20.0788 16.2021L19.9764 18.2925Z" fill="white"/>
<path d="M19.3618 17.8128C19.3959 17.8471 19.4642 17.8814 19.4984 17.9156L19.5667 15.8596C19.5325 15.8253 19.4984 15.791 19.4301 15.791L19.3618 17.8128Z" fill="white"/>
<path d="M20.5227 18.8408C20.5569 18.875 20.591 18.9093 20.591 18.9436L20.7276 16.956C20.6935 16.8875 20.6593 16.8532 20.6252 16.7847L20.5227 18.8408Z" fill="white"/>
<path d="M19.7032 18.0528C19.7374 18.087 19.7715 18.087 19.8057 18.1213L19.9081 16.0652C19.8739 16.0309 19.8398 15.9967 19.7715 15.9624L19.7032 18.0528Z" fill="white"/>
<path d="M25.7472 18.978L25.713 20.4173L29.5716 21.1027C29.6399 20.6572 29.6058 20.1774 29.4692 20.1089C29.2643 19.9718 27.4204 19.4235 25.7472 18.978Z" fill="white"/>
<path d="M21.1374 16.6476C21.1032 16.6134 21.1032 16.6134 21.0691 16.5791L20.7618 16.6476C20.7618 16.6476 20.7959 16.6819 20.7959 16.7162L21.1374 16.6476Z" fill="white"/>
<path d="M19.0203 17.6073C19.0886 17.6415 19.1569 17.6758 19.191 17.7101L19.2935 15.6883C19.2252 15.654 19.191 15.6197 19.1227 15.5854L19.0203 17.6073Z" fill="white"/>
<path d="M21.1374 19.526L25.5082 20.3827L25.5423 18.9091L21.2057 17.9839L21.1374 19.526Z" fill="white"/>
<path d="M21.513 17.0244L21.0691 17.1272L21.5471 17.0587C21.513 17.0587 21.513 17.0587 21.513 17.0244Z" fill="white"/>
<path d="M20.7959 19.1151C20.8642 19.1837 20.9325 19.2865 20.9667 19.3207L21.035 17.8472C21.035 17.6416 21.0008 17.4703 20.8984 17.2646L20.7959 19.1151Z" fill="white"/>
<path d="M17.9276 17.0244C17.9959 17.0587 18.0642 17.0929 18.1325 17.1272L18.1666 15.2082C18.0983 15.1739 18.03 15.1739 17.9617 15.1396L17.9276 17.0244Z" fill="white"/>
<path d="M16.391 16.5792C16.4593 16.5792 16.5276 16.6135 16.5959 16.6135V14.8658C16.5276 14.8658 16.4251 14.8658 16.3568 14.8315L16.391 16.5792Z" fill="white"/>
<path d="M15.9129 14.7974L15.9471 16.4765C16.0154 16.4765 16.1178 16.5108 16.1861 16.5108V14.7974C16.0837 14.7974 16.0154 14.7974 15.9129 14.7974Z" fill="white"/>
<path d="M16.8008 14.8657V16.6477C16.8691 16.6819 16.9374 16.6819 17.0056 16.7162V14.9C16.9032 14.9 16.8691 14.9 16.8008 14.8657Z" fill="white"/>
<path d="M15.469 13.9062L15.1959 14.5916C15.3324 14.5916 15.5032 14.5916 15.6398 14.5916C15.9812 14.5916 16.3227 14.6259 16.6642 14.6601L17.2447 14.1119C16.6642 14.0091 16.0837 13.9405 15.469 13.9062Z" fill="white"/>
<path d="M15.0593 14.8316H14.9227L14.991 16.408H15.0934C15.1617 16.408 15.23 16.408 15.2641 16.408L15.23 14.7974C15.1617 14.7974 15.1275 14.7974 15.0593 14.8316Z" fill="white"/>
<path d="M15.4349 14.7974L15.469 16.4422C15.5715 16.4422 15.6739 16.4765 15.7763 16.4765L15.7422 14.7974C15.6398 14.7974 15.5373 14.7974 15.4349 14.7974Z" fill="white"/>
<path d="M17.1764 14.9341V16.7503C17.2447 16.7846 17.313 16.7846 17.3813 16.8188V14.9683C17.313 14.9683 17.2447 14.9684 17.1764 14.9341Z" fill="white"/>
<path d="M14.3763 14.8659L14.4446 16.408C14.5471 16.408 14.6495 16.408 14.7861 16.3737L14.7178 14.7974C14.6154 14.8659 14.4788 14.8659 14.3763 14.8659Z" fill="white"/>
<path d="M17.5862 16.8877C17.6544 16.9219 17.6886 16.9219 17.7569 16.9562L17.791 15.0715C17.7227 15.0372 17.6544 15.0372 17.5862 15.0029V16.8877Z" fill="white"/>
<path d="M18.3373 17.2301C18.4056 17.2644 18.4398 17.2987 18.5081 17.2987L18.5422 15.3454C18.4739 15.3111 18.4398 15.3111 18.3715 15.2769L18.3373 17.2301Z" fill="white"/>
<path d="M16.9374 14.6943L17.1081 14.5229L16.9374 14.6943C16.9032 14.6943 16.9032 14.6943 16.9374 14.6943Z" fill="white"/>
<path d="M19.8398 15.7908L21.7179 15.174C21.2057 14.8998 20.6935 14.6599 20.1813 14.4543L19.4642 14.8313L19.4301 14.797C18.9179 14.5571 18.3374 14.3515 17.7227 14.1802L17.1764 14.6942C18.0642 14.8655 18.8496 15.1397 19.5325 15.5509C19.635 15.6537 19.7374 15.7222 19.8398 15.7908Z" fill="white"/>
<path d="M18.6788 17.4016C18.7471 17.4359 18.7813 17.4702 18.8496 17.5044L18.952 15.5169C18.8837 15.4826 18.8154 15.4483 18.713 15.4141L18.6788 17.4016Z" fill="white"/>
<path d="M22.3667 17.7786C22.3325 17.7443 22.3325 17.71 22.2984 17.6758H22.1276C22.1276 17.71 22.1618 17.7443 22.1618 17.7786H22.3667Z" fill="white"/>
<path d="M22.5374 18.0867C22.5374 18.0524 22.5032 18.0182 22.5032 18.0182L22.2984 17.9839C22.2984 18.0182 22.3325 18.0182 22.3325 18.0524L22.5374 18.0867Z" fill="white"/>
<path d="M22.1618 17.4355H22.0252C22.0252 17.4355 22.0252 17.4698 22.0593 17.4698H22.1959C22.1618 17.4698 22.1618 17.4698 22.1618 17.4355Z" fill="white"/>
<path d="M24.1764 16.8877L22.1959 17.1961C22.2301 17.2304 22.2301 17.2304 22.2642 17.2646L24.4496 17.1276C24.3472 17.0248 24.2447 16.9562 24.1764 16.8877Z" fill="white"/>
<path d="M21.9228 17.6758H21.3081L21.9569 17.7443C21.9569 17.71 21.9569 17.71 21.9228 17.6758Z" fill="white"/>
<path d="M22.0593 17.9498L21.752 17.9155L22.0935 17.9841C22.0935 17.9498 22.0593 17.9498 22.0593 17.9498Z" fill="white"/>
<path d="M21.7862 16.9902L21.6837 17.0245C21.6837 17.0588 21.7179 17.0588 21.7179 17.093H21.8203C21.8203 17.0245 21.8203 16.9902 21.7862 16.9902Z" fill="white"/>
<path d="M21.9911 17.1958H21.8886L21.9228 17.2301H22.0593C22.0252 17.2301 21.9911 17.2301 21.9911 17.1958Z" fill="white"/>
<path d="M27.3179 19.2178C26.5326 18.1555 25.0984 17.0246 24.1764 16.3735C24.9277 16.9904 25.8838 17.8813 26.6009 19.0122C26.8057 19.0807 27.0448 19.1493 27.3179 19.2178Z" fill="white"/>
<path d="M24.5862 17.2988L22.3667 17.4359C22.3667 17.4702 22.4008 17.4702 22.4008 17.5044H24.7911C24.7228 17.4359 24.6545 17.3674 24.5862 17.2988Z" fill="white"/>
<path d="M26.2935 18.9092C25.6789 17.9839 24.8594 17.1958 24.2106 16.6475C25.0643 17.4014 25.6106 18.1553 25.713 18.7721C25.8155 18.8064 26.0204 18.8406 26.2935 18.9092Z" fill="white"/>
<path d="M22.0593 16.9901L23.9715 16.6817C23.9033 16.6131 23.835 16.5446 23.7325 16.4761L21.9569 16.8873C22.0252 16.9558 22.0252 16.9901 22.0593 16.9901Z" fill="white"/>
<path d="M25.235 18.087C25.1667 17.9499 25.0643 17.8129 24.9277 17.6758H22.5033C22.5374 17.71 22.5374 17.7786 22.5715 17.8129L25.235 18.087Z" fill="white"/>
<path d="M25.5082 18.7035C25.474 18.5664 25.4057 18.4294 25.3374 18.2923L22.674 17.9839C22.7081 18.0182 22.7081 18.0524 22.7423 18.0867L25.5082 18.7035Z" fill="white"/>
<path d="M22.913 23.5013H22.8789C22.7082 23.5356 22.5374 23.6041 22.3667 23.6727C21.2057 24.1524 20.8301 24.6664 20.7959 24.735L20.6935 26.4141L23.9033 25.0091L23.9716 23.4671C23.9033 23.4328 23.7667 23.3643 23.5277 23.3643C23.3911 23.3985 23.1521 23.4328 22.913 23.5013Z" fill="white"/>
<path d="M21.513 16.7506C21.5471 16.7848 21.5471 16.8191 21.5813 16.8534L21.6496 16.8191C21.6154 16.7848 21.5813 16.7506 21.5813 16.7163L21.513 16.7506Z" fill="white"/>
<path d="M27.5911 19.2861C27.8301 19.3546 28.0691 19.4232 28.274 19.4917C26.7033 17.6755 24.6203 16.3733 23.835 15.8936C24.7569 16.5446 26.7033 17.9496 27.5911 19.2861Z" fill="white"/>
<path d="M21.6837 17.2987C21.6837 17.2644 21.6837 17.2644 21.6837 17.2987L21.3081 17.3329L21.6837 17.2987Z" fill="white"/>
<path d="M10.7909 10.7193L11.7812 10.4452V10.3081L10.7909 10.5823V10.7193Z" fill="white"/>
<path d="M28.6155 19.5945C28.8545 19.663 29.0594 19.7315 29.2301 19.8001C27.9326 18.1552 25.6447 16.7159 24.5179 16.0991C25.5423 16.7502 27.2838 17.9839 28.6155 19.5945Z" fill="white"/>
<path d="M21.8545 16.7507L23.5618 16.3737C23.5276 16.3394 23.4935 16.3052 23.4594 16.3052L21.7862 16.6821C21.8203 16.7164 21.8203 16.7507 21.8545 16.7507Z" fill="white"/>
<path d="M10.8934 13.8033L11.8837 13.5292V13.3921L10.8934 13.6662V13.8033Z" fill="white"/>
<path d="M21.6154 16.5105L23.2545 16.1336C23.2203 16.0993 23.1862 16.065 23.1179 16.0308L21.5471 16.442C21.5813 16.4762 21.6154 16.5105 21.6154 16.5105Z" fill="white"/>
<path d="M10.8934 14.1461L11.8837 13.8377V13.7349L10.8934 14.009V14.1461Z" fill="white"/>
<path d="M10.8593 13.152L11.8495 12.8436V12.7065L10.8593 12.9807V13.152Z" fill="white"/>
<path d="M10.9276 14.3861L11.8837 14.112V14.0435L10.9276 14.3176V14.3861Z" fill="white"/>
<path d="M10.9276 14.6943L11.9178 14.3859V14.3174L10.9276 14.5915V14.6943Z" fill="white"/>
<path d="M10.8251 12.1242L11.8153 11.8158V11.6787L10.8251 11.9529V12.1242Z" fill="white"/>
<path d="M10.8251 11.7472L11.8153 11.4731V11.3018L10.8251 11.6102V11.7472Z" fill="white"/>
<path d="M10.8251 11.4044L11.7812 11.1302V10.9932L10.8251 11.2673V11.4044Z" fill="white"/>
<path d="M10.7909 11.0621L11.7812 10.788V10.6509L10.7909 10.925V11.0621Z" fill="white"/>
<path d="M10.8593 12.8097L11.8495 12.5013V12.3643L10.8593 12.6384V12.8097Z" fill="white"/>
<path d="M10.8593 12.467L11.8154 12.1586V12.0215L10.8593 12.2956V12.467Z" fill="white"/>
<path d="M15.0251 13.735H15.1276L15.1959 13.4951C14.3763 13.4951 13.591 13.5637 12.8056 13.7007L12.8739 13.8378C13.1471 13.8035 13.9324 13.7007 15.0251 13.735Z" fill="white"/>
<path d="M10.8934 13.4948L11.8495 13.1864V13.0493L10.8934 13.3235V13.4948Z" fill="white"/>
<path d="M20.591 16.4763L20.6252 16.5105L20.8983 16.442L20.8642 16.4077L20.591 16.4763Z" fill="white"/>
<path d="M20.8301 16.0991C20.8642 16.1334 20.8984 16.1677 20.9325 16.1677C20.8984 16.1334 20.8642 16.0991 20.8301 16.0991Z" fill="white"/>
<path d="M21.1374 16.0994L22.5374 15.6539C22.5032 15.6539 22.5032 15.6196 22.4691 15.6196L21.0691 16.0308C21.0691 16.0651 21.1032 16.0651 21.1374 16.0994Z" fill="white"/>
<path d="M20.8642 15.8937L22.2301 15.4825C22.1959 15.4825 22.1959 15.4482 22.1618 15.4482L20.8301 15.8595C20.8301 15.8595 20.8642 15.8937 20.8642 15.8937Z" fill="white"/>
<path d="M13.0105 14.0433L13.4885 14.8658C13.8983 14.763 14.3422 14.6944 14.7861 14.6601L15.0593 13.9062H15.0251C14.0349 13.9062 13.2836 13.9748 13.0105 14.0433Z" fill="white"/>
<path d="M20.8984 16.8875C20.9325 16.9217 20.9325 16.956 20.9667 16.9903L21.3764 16.8875C21.3423 16.8532 21.3081 16.8189 21.3081 16.7847L20.8984 16.8875Z" fill="white"/>
<path d="M21.3423 16.5107H21.3081C21.3423 16.545 21.3423 16.545 21.3764 16.5793H21.4447C21.3764 16.545 21.3764 16.545 21.3423 16.5107Z" fill="white"/>
<path d="M15.4349 13.4951H15.4008L15.3325 13.735L15.4349 13.4951Z" fill="white"/>
<path d="M17.6886 13.7349C17.1422 13.6321 16.5617 13.5636 16.0154 13.5293C15.8788 13.5293 15.7422 13.5293 15.6398 13.5293L15.5373 13.7692C16.1861 13.8034 16.8008 13.872 17.4154 14.0091L17.6886 13.7349Z" fill="white"/>
<path d="M14.991 14.6259L15.2642 13.9062L14.991 14.6259Z" fill="white"/>
<path d="M19.9422 14.3857C19.7715 14.3172 19.6349 14.2829 19.4983 14.2144C19.0544 14.0773 18.5764 13.9402 18.1325 13.8374L17.8593 14.1115C18.4398 14.2486 18.952 14.4542 19.4642 14.6941L19.9422 14.3857Z" fill="white"/>
<path d="M21.4105 16.3049L22.9471 15.928C22.8789 15.8937 22.8447 15.8595 22.7764 15.8252L21.3423 16.2707C21.3423 16.2707 21.3764 16.2707 21.4105 16.3049Z" fill="white"/>
<path d="M21.9569 15.311H21.9228L20.8301 15.6537L21.9569 15.311Z" fill="white"/>
</g>
<defs>
<clipPath id="clip0_486_2668">
<rect x="0.25" y="0.882812" width="30" height="30.2344" rx="15" fill="white"/>
</clipPath>
</defs>
</svg>
