<svg width="17" height="17" viewBox="0 0 17 17" fill="none" xmlns="http://www.w3.org/2000/svg">
<path d="M1.27948 14.625H16.4353" stroke="#020203" stroke-width="0.5"/>
<path d="M5.94684 14.625V1H11.7168V14.625" stroke="#020203" stroke-width="0.5" stroke-linejoin="round"/>
<path d="M5.94678 5.20825H2.53607V14.625" stroke="#020203" stroke-width="0.5" stroke-linejoin="round"/>
<path d="M11.7166 5.20825H15.1017V8.27819V12.4519V14.625" stroke="#020203" stroke-width="0.5" stroke-linejoin="round"/>
<path d="M7.56244 14.625V9.7959H10.1782V14.625" stroke="#020203" stroke-width="0.5"/>
<path d="M7.61353 2.89716H6.79291V4.06994H7.61353V2.89716Z" fill="#2DABE3" stroke="#2DABE3" stroke-width="0.5" stroke-linejoin="round"/>
<path d="M9.25489 2.89716H8.43427V4.06994H9.25489V2.89716Z" fill="#2DABE3" stroke="#2DABE3" stroke-width="0.5" stroke-linejoin="round"/>
<path d="M10.9218 2.89716H10.1011V4.06994H10.9218V2.89716Z" fill="#2DABE3" stroke="#2DABE3" stroke-width="0.5" stroke-linejoin="round"/>
<path d="M7.61353 5.58765H6.79291V6.76043H7.61353V5.58765Z" fill="#2DABE3" stroke="#2DABE3" stroke-width="0.5" stroke-linejoin="round"/>
<path d="M9.25489 5.58765H8.43427V6.76043H9.25489V5.58765Z" fill="#2DABE3" stroke="#2DABE3" stroke-width="0.5" stroke-linejoin="round"/>
<path d="M10.9218 5.58765H10.1011V6.76043H10.9218V5.58765Z" fill="#2DABE3" stroke="#2DABE3" stroke-width="0.5" stroke-linejoin="round"/>
<path d="M16.2217 4.73859V9.88891" stroke="#020203" stroke-width="0.5" stroke-linejoin="round"/>
<path d="M13.6103 2.04578V4.73859" stroke="#020203" stroke-width="0.5" stroke-linejoin="round"/>
<path d="M3.53326 7.96729H5.10576" stroke="#2DABE3" stroke-linejoin="round"/>
<path d="M12.6424 7.96729H14.2149" stroke="#2DABE3" stroke-linejoin="round"/>
<path d="M3.53326 9.56207H5.10576" stroke="#2DABE3" stroke-linejoin="round"/>
<path d="M12.6424 9.56207H14.2149" stroke="#2DABE3" stroke-linejoin="round"/>
<path d="M3.53326 11.183H5.10576" stroke="#2DABE3" stroke-linejoin="round"/>
<path d="M12.6424 11.183H14.2149" stroke="#2DABE3" stroke-linejoin="round"/>
<path d="M3.73761 15.808H8.19352" stroke="#020203" stroke-width="0.5"/>
<path d="M9.51471 15.808H13.9421" stroke="#020203" stroke-width="0.5"/>
</svg>
