<svg width="24" height="25" viewBox="0 0 24 25" fill="none" xmlns="http://www.w3.org/2000/svg">
<path d="M23.8211 19.3805C23.8211 22.3224 21.445 24.6985 18.5192 24.6985H5.32923C2.40349 24.7147 0.0273438 22.3224 0.0273438 19.3805V6.09344C0.0273438 3.16771 2.40349 0.775391 5.32923 0.775391H18.5354C21.4611 0.775391 23.8373 3.16771 23.8373 6.09344V19.3805H23.8211Z" fill="#181818"/>
<path d="M14.4265 6.25488C14.4567 6.25488 14.4869 6.25488 14.5187 6.25488C14.5928 7.16921 14.2438 7.8524 13.8196 8.34714C13.4035 8.83846 12.8336 9.31498 11.9118 9.24268C11.8503 8.34144 12.1999 7.70893 12.6235 7.21533C13.0163 6.75532 13.7365 6.34597 14.4265 6.25488Z" fill="white"/>
<path d="M17.2175 15.7702C17.2175 15.7793 17.2175 15.7873 17.2175 15.7958C16.9584 16.5804 16.5889 17.2527 16.138 17.8767C15.7264 18.4432 15.222 19.2055 14.3213 19.2055C13.5431 19.2055 13.0261 18.7051 12.2285 18.6914C11.3848 18.6777 10.9208 19.1099 10.1493 19.2186C10.0611 19.2186 9.97286 19.2186 9.88632 19.2186C9.31985 19.1366 8.86269 18.688 8.52963 18.2838C7.54756 17.0893 6.78865 15.5465 6.64746 13.5721C6.64746 13.3785 6.64746 13.1855 6.64746 12.9919C6.70724 11.5789 7.39384 10.43 8.30646 9.8732C8.78811 9.57715 9.45022 9.32494 10.1875 9.43767C10.5035 9.48663 10.8263 9.5948 11.1092 9.70183C11.3774 9.80488 11.7127 9.98763 12.0304 9.97795C12.2456 9.97169 12.4597 9.85954 12.6766 9.7804C13.3119 9.55096 13.9348 9.28794 14.7557 9.41148C15.7424 9.56064 16.4426 9.99902 16.8753 10.6754C16.0407 11.2065 15.3808 12.007 15.4936 13.374C15.5938 14.6156 16.3157 15.3421 17.2175 15.7702Z" fill="white"/>
</svg>
