<svg width="46" height="46" viewBox="0 0 46 46" fill="none" xmlns="http://www.w3.org/2000/svg">
<path d="M16.0512 20.4668H14.4915C14.2836 20.4668 14.1172 20.2972 14.1172 20.0852C14.1172 19.8732 14.2836 19.7036 14.4915 19.7036H16.0512C16.2592 19.7036 16.4256 19.8732 16.4256 20.0852C16.4256 20.2972 16.2592 20.4668 16.0512 20.4668Z" fill="#DCDEDE"/>
<path d="M37.0752 20.4668H35.5154C35.3075 20.4668 35.1411 20.2972 35.1411 20.0852C35.1411 19.8732 35.3075 19.7036 35.5154 19.7036H37.0752C37.2831 19.7036 37.4495 19.8732 37.4495 20.0852C37.4495 20.2972 37.2831 20.4668 37.0752 20.4668Z" fill="#DCDEDE"/>
<path d="M30.2337 22.9897H21.6657C17.049 22.9897 13.3057 26.8055 13.3057 31.5117V37.9774H38.5937V31.5117C38.5937 26.8055 34.8504 22.9897 30.2337 22.9897Z" fill="#82B9F2"/>
<path d="M38.5936 38.3377H13.3055C13.0975 38.3377 12.9312 38.1682 12.9312 37.9562V31.4905C12.9312 26.5935 16.8408 22.6082 21.6447 22.6082H30.2127C35.0166 22.6082 38.9263 26.5935 38.9263 31.4905V37.9562C38.9471 38.1682 38.7807 38.3377 38.5936 38.3377ZM13.6798 37.5958H38.2192V31.4905C38.2192 26.9963 34.6423 23.3501 30.2335 23.3501H21.6655C17.2567 23.3501 13.6798 26.9963 13.6798 31.4905V37.5958Z" fill="#3D3736"/>
<path d="M28.3827 22.9897H23.5164H21.7695C21.8111 25.3216 23.662 33.5468 25.9496 33.5468C28.2371 33.5468 30.1088 25.3216 30.1296 22.9897H28.3827Z" fill="white"/>
<path d="M25.9494 33.9072C24.764 33.9072 23.6618 32.3385 22.6636 29.2434C21.8941 26.8479 21.4158 24.1981 21.395 22.9897C21.395 22.8837 21.4366 22.7989 21.499 22.7141C21.5614 22.6506 21.6654 22.6082 21.7486 22.6082H30.1294C30.2334 22.6082 30.3166 22.6506 30.3789 22.7141C30.4413 22.7777 30.4829 22.8837 30.4829 22.9897C30.4621 24.1981 29.9838 26.8691 29.2144 29.2434C28.2369 32.3385 27.1347 33.9072 25.9494 33.9072ZM22.1437 23.3501C22.3516 26.2544 24.2233 33.1652 25.9494 33.1652C27.6754 33.1652 29.5471 26.2544 29.7551 23.3501H22.1437Z" fill="#3D3736"/>
<path d="M28.3839 20.4458H23.5176V22.9897H28.3839V20.4458Z" fill="#F8BEAE"/>
<path d="M28.3837 23.35H23.5174C23.3094 23.35 23.1431 23.1804 23.1431 22.9684V20.4245C23.1431 20.2126 23.3094 20.043 23.5174 20.043H28.3837C28.5917 20.043 28.758 20.2126 28.758 20.4245V22.9684C28.7372 23.2016 28.5917 23.35 28.3837 23.35ZM23.8709 22.608H28.0094V20.8061H23.8709V22.608Z" fill="#3D3736"/>
<path d="M19.8635 13.6852C19.8635 12.6253 19.0109 11.7561 17.9711 11.7561C16.9313 11.7561 16.0786 12.6253 16.0786 13.6852C16.0786 14.7452 16.9313 15.6143 17.9711 15.6143C19.0317 15.6143 19.8635 14.7452 19.8635 13.6852Z" fill="#F8BEAE"/>
<path d="M17.9709 15.9959C16.7231 15.9959 15.7041 14.9571 15.7041 13.6852C15.7041 12.4133 16.7231 11.3745 17.9709 11.3745C19.2186 11.3745 20.2377 12.4133 20.2377 13.6852C20.2377 14.9571 19.2186 15.9959 17.9709 15.9959ZM17.9709 12.1165C17.1182 12.1165 16.432 12.816 16.432 13.6852C16.432 14.5543 17.1182 15.2539 17.9709 15.2539C18.8235 15.2539 19.5098 14.5543 19.5098 13.6852C19.5098 12.816 18.8235 12.1165 17.9709 12.1165Z" fill="#3D3736"/>
<path d="M17.4087 13.3459C17.4087 13.3459 17.7414 13.2399 18.1574 13.7275L17.4087 13.3459Z" fill="white"/>
<path d="M18.1362 14.1091C18.0322 14.1091 17.9282 14.0667 17.8658 13.9819C17.6578 13.7275 17.5123 13.7063 17.4915 13.7063C17.3043 13.7487 17.1171 13.6427 17.0548 13.4732C16.9924 13.2824 17.0964 13.0704 17.2835 13.0068C17.3459 12.9856 17.8658 12.8372 18.4273 13.5156C18.5521 13.6639 18.5313 13.8971 18.3857 14.0455C18.3025 14.0879 18.2193 14.1091 18.1362 14.1091Z" fill="#3D3736"/>
<path d="M32.0269 13.6852C32.0269 12.6253 32.8795 11.7561 33.9193 11.7561C34.9591 11.7561 35.8118 12.6253 35.8118 13.6852C35.8118 14.7452 34.9591 15.6143 33.9193 15.6143C32.8795 15.6143 32.0269 14.7452 32.0269 13.6852Z" fill="#F8BEAE"/>
<path d="M33.9206 15.9959C32.6728 15.9959 31.6538 14.9571 31.6538 13.6852C31.6538 12.4133 32.6728 11.3745 33.9206 11.3745C35.1684 11.3745 36.1874 12.4133 36.1874 13.6852C36.1874 14.9571 35.1684 15.9959 33.9206 15.9959ZM33.9206 12.1165C33.0679 12.1165 32.3817 12.816 32.3817 13.6852C32.3817 14.5543 33.0679 15.2539 33.9206 15.2539C34.7732 15.2539 35.4595 14.5543 35.4595 13.6852C35.4595 12.816 34.7732 12.1165 33.9206 12.1165Z" fill="#3D3736"/>
<path d="M34.5016 13.3457C34.5016 13.3457 34.1689 13.2397 33.7529 13.7273L34.5016 13.3457Z" fill="white"/>
<path d="M33.7742 14.1088C33.691 14.1088 33.6078 14.0876 33.5454 14.024C33.3998 13.8968 33.379 13.6637 33.5038 13.4941C34.0653 12.8157 34.5852 12.9641 34.6476 12.9853C34.8348 13.0489 34.9387 13.2609 34.8763 13.4517C34.814 13.6425 34.6268 13.7485 34.4396 13.6849C34.4188 13.6849 34.2733 13.7061 34.0653 13.9604C33.9821 14.0664 33.8781 14.1088 33.7742 14.1088Z" fill="#3D3736"/>
<path d="M33.8333 12.3066C33.8333 17.0764 31.0674 21.8249 25.9516 21.8249C20.8357 21.8249 18.0698 17.0976 18.0698 12.3066C18.0698 7.53687 21.6052 3.65747 25.9516 3.65747C30.2979 3.65747 33.8333 7.53687 33.8333 12.3066Z" fill="#FBD5CB"/>
<path d="M25.9528 22.1853C23.4573 22.1853 21.3153 21.1041 19.7972 19.069C18.4454 17.2671 17.6968 14.8504 17.6968 12.2854C17.6968 7.30363 21.3985 3.25464 25.932 3.25464C30.4864 3.25464 34.1673 7.30363 34.1673 12.2854C34.1673 14.8504 33.4186 17.2459 32.0669 19.069C30.5696 21.1253 28.4484 22.1853 25.9528 22.1853ZM25.9528 4.039C21.8144 4.039 18.4454 7.74881 18.4454 12.3278C18.4454 16.8643 21.0242 21.4645 25.9528 21.4645C30.8815 21.4645 33.4602 16.8643 33.4602 12.3278C33.4602 7.74881 30.0913 4.039 25.9528 4.039Z" fill="#3D3736"/>
<path d="M23.6434 13.2601C23.6434 13.7265 23.3522 14.0869 22.9987 14.0869C22.6451 14.0869 22.354 13.7265 22.354 13.2601C22.354 12.7937 22.6451 12.4333 22.9987 12.4333C23.3522 12.4333 23.6434 12.8149 23.6434 13.2601Z" fill="#3D3736"/>
<path d="M29.5496 13.2601C29.5496 13.7265 29.2585 14.0869 28.9049 14.0869C28.5514 14.0869 28.2603 13.7265 28.2603 13.2601C28.2603 12.7937 28.5514 12.4333 28.9049 12.4333C29.2585 12.4333 29.5496 12.8149 29.5496 13.2601Z" fill="#3D3736"/>
<path d="M26.512 15.1042C26.2 14.7862 25.6801 14.7862 25.3682 15.1042H26.512Z" fill="white"/>
<path d="M25.369 15.4645C25.2858 15.4645 25.1818 15.4221 25.1194 15.3585C24.9739 15.2101 24.9739 14.9769 25.1194 14.8285C25.5769 14.3622 26.3256 14.3622 26.7831 14.8285C26.9287 14.9769 26.9287 15.2101 26.7831 15.3585C26.6376 15.5069 26.4088 15.5069 26.2632 15.3585C26.0969 15.1889 25.8057 15.1889 25.6393 15.3585C25.5562 15.4221 25.473 15.4645 25.369 15.4645Z" fill="#3D3736"/>
<path d="M24.0571 27.0176C23.9531 27.0176 23.8491 26.9752 23.766 26.8692L21.6032 24.1134C21.4784 23.9438 21.4992 23.7106 21.6656 23.5834C21.8319 23.4562 22.0607 23.4774 22.1855 23.647L24.0155 25.9577L25.6376 22.8626C25.7416 22.693 25.9496 22.6082 26.1367 22.7142C26.3239 22.8202 26.3863 23.0322 26.2823 23.223L24.3898 26.8056C24.3275 26.9116 24.2235 26.9964 24.0987 26.9964C24.0779 27.0176 24.0571 27.0176 24.0571 27.0176Z" fill="#3D3736"/>
<path d="M27.8418 27.0174C27.8211 27.0174 27.8211 27.0174 27.8003 27.0174C27.6755 26.9962 27.5715 26.9326 27.5091 26.8266L25.6167 23.244C25.5127 23.0532 25.5959 22.8412 25.7622 22.7352C25.9494 22.6292 26.1574 22.714 26.2613 22.8836L27.8834 25.9787L29.7135 23.668C29.8383 23.4984 30.067 23.4772 30.2334 23.6044C30.3998 23.7316 30.4206 23.9648 30.2958 24.1344L28.133 26.8902C28.0498 26.975 27.9458 27.0174 27.8418 27.0174Z" fill="#3D3736"/>
<path d="M25.9505 32.5927C25.7425 32.5927 25.5762 32.4231 25.5762 32.2111V25.5334C25.5762 25.3214 25.7425 25.1519 25.9505 25.1519C26.1585 25.1519 26.3248 25.3214 26.3248 25.5334V32.2111C26.304 32.4231 26.1585 32.5927 25.9505 32.5927Z" fill="#DCDEDE"/>
<path d="M0.912598 44.8458V36.769H45.1044V44.8458" fill="#FFD182"/>
<path d="M45.1042 45.2062C44.8962 45.2062 44.7299 45.0366 44.7299 44.8247V37.1295H1.26595V44.8247C1.26595 45.0366 1.09958 45.2062 0.89162 45.2062C0.683659 45.2062 0.538086 45.0366 0.538086 44.8459V36.7903C0.538086 36.5783 0.704455 36.4087 0.912416 36.4087H45.125C45.3329 36.4087 45.4993 36.5783 45.4993 36.7903V44.8459C45.4785 45.0366 45.3121 45.2062 45.1042 45.2062Z" fill="#3D3736"/>
<path d="M29.342 38.6347C29.342 40.4578 27.8239 41.9417 25.9523 41.9417C24.0806 41.9417 22.5625 40.4578 22.5625 38.6347C22.5625 36.8116 24.0806 35.3276 25.9523 35.3276C27.8239 35.3276 29.342 36.8116 29.342 38.6347Z" fill="#FBD5CB"/>
<path d="M25.9521 42.3233C23.8725 42.3233 22.188 40.6698 22.188 38.6347C22.188 36.5996 23.8725 34.946 25.9521 34.946C28.0317 34.946 29.7162 36.5996 29.7162 38.6347C29.7162 40.6698 28.0317 42.3233 25.9521 42.3233ZM25.9521 35.7092C24.2884 35.7092 22.9159 37.0235 22.9159 38.6559C22.9159 40.267 24.2676 41.6025 25.9521 41.6025C27.6158 41.6025 28.9883 40.2882 28.9883 38.6559C28.9883 37.0235 27.6158 35.7092 25.9521 35.7092Z" fill="#3D3736"/>
<path d="M13.7249 29.0305L11.5829 35.3478C11.5829 35.3478 9.1705 42.0678 14.1408 42.0678H23.9357V35.2206H15.8669" fill="#82B9F2"/>
<path d="M23.9143 42.407H14.1193C12.8092 42.407 11.8525 41.9618 11.2702 41.1138C9.87691 39.0575 11.1663 35.3477 11.2287 35.1993L13.3707 28.882C13.433 28.6913 13.641 28.5853 13.8282 28.6489C14.0153 28.7125 14.1193 28.9244 14.0569 29.1152L11.9149 35.4325C11.8941 35.4749 10.6672 38.9515 11.8733 40.6686C12.3309 41.3258 13.0587 41.6438 14.1193 41.6438H23.54V35.5385H15.8454C15.6374 35.5385 15.4711 35.3689 15.4711 35.1569C15.4711 34.9449 15.6374 34.7753 15.8454 34.7753H23.8935C24.1015 34.7753 24.2678 34.9449 24.2678 35.1569V42.0042C24.2678 42.2586 24.1222 42.407 23.9143 42.407Z" fill="#3D3736"/>
<path d="M16.5316 35.4329C16.3236 35.4329 16.1572 35.2633 16.1572 35.0513V29.2004C16.1572 28.9884 16.3236 28.8188 16.5316 28.8188C16.7395 28.8188 16.9059 28.9884 16.9059 29.2004V35.0513C16.9059 35.2845 16.7395 35.4329 16.5316 35.4329Z" fill="#3D3736"/>
<path d="M38.1789 29.031L40.3209 35.3483C40.3209 35.3483 42.7332 42.0683 37.7629 42.0683H27.9888V35.2211H36.0369" fill="#82B9F2"/>
<path d="M37.7836 42.4075H27.9886C27.7806 42.4075 27.6143 42.2379 27.6143 42.0259V35.1787C27.6143 34.9667 27.7806 34.7971 27.9886 34.7971H36.0367C36.2446 34.7971 36.411 34.9667 36.411 35.1787C36.411 35.3906 36.2446 35.5602 36.0367 35.5602H28.3421V41.6655H37.7628C38.8234 41.6655 39.572 41.3475 40.0087 40.6904C41.1941 38.9521 39.9671 35.4966 39.9671 35.4542L37.8251 29.137C37.7628 28.9462 37.8667 28.7342 38.0539 28.6706C38.2411 28.607 38.449 28.713 38.5114 28.9038L40.6534 35.221C40.7158 35.3694 42.026 39.0793 40.6118 41.1355C40.0503 41.9835 39.0729 42.4075 37.7836 42.4075Z" fill="#3D3736"/>
<path d="M35.3719 35.4327C35.1639 35.4327 34.9976 35.2631 34.9976 35.0511V29.2002C34.9976 28.9882 35.1639 28.8186 35.3719 28.8186C35.5798 28.8186 35.7462 28.9882 35.7462 29.2002V35.0511C35.7254 35.2843 35.5591 35.4327 35.3719 35.4327Z" fill="#3D3736"/>
<path d="M24.2456 39.7579L23.7881 39.1856C23.8505 39.122 25.5142 37.7652 27.8225 37.4473L27.9265 38.1892C25.8261 38.4648 24.2664 39.7367 24.2456 39.7579Z" fill="#3D3736"/>
<path d="M9.97855 39.1433C9.97855 39.8217 8.83476 40.394 7.44142 40.394C6.04808 40.394 4.9043 39.8429 4.9043 39.1433C4.9043 38.4649 6.04808 37.8926 7.44142 37.8926C8.83476 37.9138 9.97855 38.4649 9.97855 39.1433Z" fill="#5A5758"/>
<path d="M7.44242 40.7542C5.79953 40.7542 4.55176 40.0546 4.55176 39.1431C4.55176 38.2315 5.79953 37.532 7.44242 37.532C9.08531 37.532 10.3331 38.2315 10.3331 39.1431C10.3331 40.0546 9.08531 40.7542 7.44242 40.7542ZM7.44242 38.2739C6.11147 38.2739 5.27962 38.7827 5.27962 39.1431C5.27962 39.5035 6.13226 40.0123 7.44242 40.0123C8.77337 40.0123 9.60522 39.5035 9.60522 39.1431C9.60522 38.8039 8.75257 38.2739 7.44242 38.2739Z" fill="#3D3736"/>
<path d="M7.33771 39.3129C7.12975 39.3129 6.96338 39.1433 6.96338 38.9313V25.0884C6.96338 24.9824 7.00497 24.8976 7.06736 24.834L9.60449 22.2478C9.75006 22.0994 9.97882 22.0994 10.1244 22.2478C10.27 22.3962 10.27 22.6293 10.1244 22.7777L7.69124 25.258V38.9525C7.69124 39.1433 7.54567 39.3129 7.33771 39.3129Z" fill="#3D3736"/>
<path d="M11.7899 21.7815C11.7899 21.1031 11.2492 20.5308 10.5629 20.5308C9.89743 20.5308 9.33594 21.0819 9.33594 21.7815C9.33594 22.4599 9.87664 23.0322 10.5629 23.0322C11.2492 23.0322 11.7899 22.4811 11.7899 21.7815Z" fill="#5A5758"/>
<path d="M10.5839 23.3926C9.71049 23.3926 9.00342 22.6719 9.00342 21.7815C9.00342 20.8912 9.71049 20.1704 10.5839 20.1704C11.4574 20.1704 12.1644 20.8912 12.1644 21.7815C12.1644 22.6719 11.4574 23.3926 10.5839 23.3926ZM10.5839 20.9124C10.1056 20.9124 9.73128 21.294 9.73128 21.7815C9.73128 22.2691 10.1056 22.6507 10.5839 22.6507C11.0622 22.6507 11.4366 22.2691 11.4366 21.7815C11.4366 21.3152 11.0622 20.9124 10.5839 20.9124Z" fill="#3D3736"/>
<path d="M23.3306 16.7991C23.8297 17.9438 24.8279 18.7282 25.9925 18.7282C27.1571 18.7282 28.1761 17.9438 28.6544 16.7991H23.3306Z" fill="#F08575"/>
<path d="M25.9924 19.0888C24.703 19.0888 23.5592 18.262 22.9977 16.9477C22.9561 16.8417 22.9561 16.6933 23.0185 16.5873C23.0809 16.4813 23.2057 16.4177 23.3305 16.4177H28.6751C28.7999 16.4177 28.9038 16.4813 28.987 16.5873C29.0494 16.6933 29.0702 16.8205 29.0078 16.9477C28.4255 18.262 27.2817 19.0888 25.9924 19.0888ZM23.9336 17.1597C24.4327 17.9016 25.1813 18.3468 25.9924 18.3468C26.8034 18.3468 27.5521 17.9016 28.0512 17.1597H23.9336Z" fill="#3D3736"/>
<path d="M22.0836 11.4998C22.0004 11.4998 21.8964 11.4574 21.834 11.3938C21.6884 11.2454 21.6676 11.0122 21.8132 10.8638C21.8548 10.8214 22.7074 9.88865 23.9136 10.1218C24.1008 10.1642 24.2464 10.355 24.2048 10.567C24.1632 10.7578 23.976 10.9062 23.768 10.8638C22.9778 10.6942 22.3539 11.3726 22.3539 11.3726C22.2707 11.4786 22.1667 11.4998 22.0836 11.4998Z" fill="#3D3736"/>
<path d="M29.7771 11.5208C29.6731 11.5208 29.59 11.4784 29.5068 11.3937C29.5068 11.3937 28.8829 10.7153 28.0926 10.8849C27.9055 10.9273 27.6975 10.8001 27.6559 10.5881C27.6143 10.3973 27.7391 10.1853 27.9471 10.1429C29.1532 9.88853 30.0059 10.8425 30.0475 10.8849C30.193 11.0333 30.1723 11.2665 30.0267 11.4149C29.9643 11.4784 29.8603 11.5208 29.7771 11.5208Z" fill="#3D3736"/>
<path d="M17.2776 11.9026C17.2776 11.9026 19.0453 12.0298 20.6674 9.9735C20.6674 9.9735 22.7678 10.3127 24.8682 9.14674C24.8682 9.14674 28.1748 10.0371 30.0672 6.73006C30.0672 6.73006 31.1486 10.1855 33.7897 12.9413C33.7897 12.9413 34.1225 12.3266 34.3928 11.9026L35.0791 12.1146C35.0791 12.1146 36.4308 5.28854 30.5455 3.02025C30.5455 3.02025 29.7345 0.815569 25.3465 1.21835C20.9169 1.62113 15.8427 5.28854 17.2776 11.9026Z" fill="#826B56"/>
<path d="M33.7696 13.3018C33.6656 13.3018 33.5824 13.2594 33.4992 13.1958C31.5236 11.1183 30.4006 8.72282 29.9431 7.55688C28.6122 9.35879 26.8445 9.63438 25.8463 9.63438C25.4095 9.63438 25.056 9.57078 24.8689 9.54958C23.5587 10.2491 22.2485 10.3975 21.3751 10.3975C21.1255 10.3975 20.9176 10.3763 20.772 10.3763C19.2955 12.1358 17.7566 12.2842 17.2991 12.2842C17.2367 12.2842 17.1951 12.2842 17.1951 12.2842C17.0287 12.263 16.9039 12.157 16.8623 11.9875C16.2801 9.2528 16.7168 6.77252 18.1517 4.77983C19.6906 2.63874 22.3941 1.13362 25.2224 0.85803C25.5967 0.815632 25.971 0.794434 26.3038 0.794434C29.4232 0.794434 30.463 2.21476 30.7126 2.72353C36.6603 5.14021 35.3501 12.1146 35.3293 12.1782C35.3085 12.2842 35.2461 12.369 35.1629 12.4326C35.0797 12.4962 34.9758 12.4962 34.8718 12.475L34.4559 12.3478C34.2271 12.7082 34.0191 13.111 33.9983 13.1322C33.936 13.2382 33.832 13.3018 33.728 13.323C33.7904 13.3018 33.7904 13.3018 33.7696 13.3018ZM30.0471 6.36975C30.0679 6.36975 30.0679 6.36975 30.0887 6.36975C30.2343 6.39094 30.359 6.47574 30.4006 6.62413C30.4006 6.66653 31.3988 9.71917 33.7072 12.3266C33.8112 12.1358 33.9568 11.9027 34.0815 11.7119C34.1647 11.5847 34.3311 11.5211 34.4975 11.5635L34.7678 11.6483C34.8302 11.0335 34.9134 9.82517 34.643 8.48964C34.1439 5.98816 32.709 4.27105 30.4006 3.3807C30.2966 3.3383 30.2343 3.25351 30.1927 3.16871C30.1719 3.10511 29.5272 1.55759 26.387 1.55759C26.0542 1.55759 25.7215 1.57879 25.368 1.59999C22.7476 1.85438 20.2313 3.23231 18.8172 5.20381C17.5694 6.94212 17.1327 9.1256 17.5902 11.5211C18.1101 11.4575 19.2747 11.1607 20.3977 9.74037C20.4809 9.63438 20.6056 9.59198 20.7304 9.61318C20.7304 9.61318 21.0008 9.65558 21.4375 9.65558C22.2485 9.65558 23.4755 9.50718 24.7025 8.82882C24.7857 8.78642 24.8896 8.76522 24.9728 8.78642C24.9728 8.78642 25.3472 8.89242 25.9087 8.89242C27.0732 8.89242 28.6745 8.48964 29.7767 6.56054C29.7975 6.43334 29.9223 6.36975 30.0471 6.36975Z" fill="#3D3736"/>
<path d="M24.4334 9.71878C24.3294 9.71878 24.2254 9.67638 24.1422 9.57039C24.0175 9.4008 24.0591 9.16761 24.2046 9.04042C26.5962 7.17491 26.8249 5.05502 26.8249 5.03382C26.8457 4.82183 27.0329 4.67344 27.2201 4.69464C27.428 4.71584 27.5736 4.88543 27.5528 5.09742C27.5528 5.20341 27.3033 7.55649 24.6413 9.63399C24.5998 9.69758 24.5166 9.71878 24.4334 9.71878Z" fill="#3D3736"/>
<path d="M20.1902 10.8849C20.107 10.8849 20.0238 10.8637 19.9614 10.8001C19.8158 10.6729 19.795 10.4398 19.9198 10.2702C21.9786 7.7899 22.1242 5.41562 22.1242 5.39442C22.145 5.18243 22.3114 5.03404 22.4985 5.05524C22.7065 5.07644 22.8521 5.24603 22.8313 5.43682C22.8313 5.54281 22.6649 8.06548 20.4397 10.7577C20.3773 10.8425 20.2734 10.8849 20.1902 10.8849Z" fill="#3D3736"/>
<path d="M14.8888 23.4558C14.7224 23.4558 14.5769 23.3498 14.5353 23.1802C14.4729 22.9894 14.5977 22.7775 14.7848 22.7351L16.2821 22.3323C16.4693 22.2899 16.6773 22.3959 16.7189 22.5867C16.7813 22.7775 16.6565 22.9894 16.4693 23.0318L14.972 23.4346C14.9512 23.4346 14.9096 23.4558 14.8888 23.4558Z" fill="#DCDEDE"/>
<path d="M35.1857 17.9019C35.0193 17.9019 34.8737 17.7959 34.8321 17.6263C34.7698 17.4355 34.8945 17.2235 35.0817 17.1811L36.579 16.7783C36.7662 16.7359 36.9741 16.8419 37.0157 17.0327C37.0781 17.2235 36.9534 17.4355 36.7662 17.4779L35.2689 17.8807C35.2689 17.9019 35.2273 17.9019 35.1857 17.9019Z" fill="#DCDEDE"/>
<path d="M36.7045 23.4558C36.6837 23.4558 36.6421 23.4558 36.6005 23.4346L35.1032 23.0318C34.916 22.9682 34.7912 22.7774 34.8536 22.5866C34.916 22.3958 35.1032 22.2686 35.2904 22.3322L36.7877 22.735C36.9748 22.7986 37.0996 22.9894 37.0372 23.1802C37.0164 23.3286 36.8501 23.4558 36.7045 23.4558Z" fill="#DCDEDE"/>
<path d="M16.3861 17.9018C16.3653 17.9018 16.3237 17.9018 16.2821 17.8806L14.7848 17.4778C14.5977 17.4142 14.4729 17.2234 14.5353 17.0326C14.5977 16.8419 14.7848 16.7147 14.972 16.7783L16.4693 17.181C16.6565 17.2446 16.7813 17.4354 16.7189 17.6262C16.6981 17.7958 16.5525 17.9018 16.3861 17.9018Z" fill="#DCDEDE"/>
</svg>
