<?xml version="1.0" encoding="utf-8"?>
<!-- Generator: Adobe Illustrator 27.0.0, SVG Export Plug-In . SVG Version: 6.00 Build 0)  -->
<svg version="1.1" id="Layer_1" xmlns="http://www.w3.org/2000/svg" xmlns:xlink="http://www.w3.org/1999/xlink" x="0px" y="0px"
	 viewBox="0 0 30 30" style="enable-background:new 0 0 30 30;" xml:space="preserve">
<style type="text/css">
	.st0{fill:#1C9DD9;}
	.st1{fill:none;}
	.st2{fill:#016E9E;}
	.st3{fill:#A2CD3A;}
</style>
<g>
	<circle class="st0" cx="15" cy="15" r="15"/>
	<circle class="st0" cx="15" cy="15" r="15"/>
	<path class="st1" d="M21.61,9.66l8.27,7.13C29.95,16.21,30,15.61,30,15c0-8.28-6.72-15-15-15C6.72,0,0,6.72,0,15
		c0,8.28,6.72,15,15,15c1.58,0,3.11-0.25,4.54-0.7l-7.87-6.48L21.61,9.66z"/>
	<path class="st2" d="M29.88,16.79l-8.27-7.13l-9.95,13.16l7.87,6.48C25.05,27.55,29.18,22.7,29.88,16.79z"/>
	<circle class="st1" cx="15" cy="15" r="8.5"/>
	<path class="st3" d="M8.49,9.7c0,0.04-0.12,1.36,0.31,3.17c1.51-0.84,3.66-1.79,6.19-2.2c-2.15-1.97-4.16-2.95-4.2-2.97
		c-0.02-0.01-0.03-0.03-0.04-0.05C9.87,8.16,9.08,8.82,8.44,9.6C8.47,9.62,8.49,9.66,8.49,9.7z"/>
	<path class="st3" d="M15.55,10.84c1.17,1.14,2.35,2.58,3.25,4.33c0.56-1.23,1-2.63,1.28-4.21C18.49,10.67,16.96,10.66,15.55,10.84z
		"/>
	<path class="st3" d="M8.23,9.88c-0.96,1.26-1.57,2.8-1.7,4.47c0.25-0.2,0.97-0.74,2.04-1.35C8.21,11.5,8.21,10.33,8.23,9.88z"/>
	<path class="st3" d="M22.7,11.42c-0.5-1.08-1.22-2.03-2.1-2.8c-0.04,0.74-0.12,1.45-0.23,2.13C21.14,10.9,21.91,11.12,22.7,11.42z"
		/>
	<path class="st3" d="M14.57,20.83c-3.76-2.16-5.31-5.22-5.93-7.59c-1.28,0.74-2.02,1.36-2.04,1.38c-0.02,0.02-0.05,0.03-0.08,0.03
		c0,0.12-0.02,0.23-0.02,0.35c0,3.53,2.16,6.56,5.22,7.84c0.01-0.03,0.03-0.05,0.06-0.07C11.81,22.76,13.05,22.16,14.57,20.83z"/>
	<path class="st3" d="M15.22,10.88c-2.61,0.39-4.82,1.38-6.36,2.24c0.61,2.34,2.14,5.39,5.9,7.53c1.31-1.18,2.78-2.89,3.9-5.22
		C17.73,13.56,16.46,12.06,15.22,10.88z"/>
	<path class="st3" d="M20.13,10.7c0.11-0.7,0.2-1.43,0.23-2.2c0-0.03,0.02-0.05,0.03-0.07C18.93,7.22,17.05,6.5,15,6.5
		c-1.45,0-2.82,0.37-4.02,1.01c0.36,0.18,2.29,1.2,4.32,3.1C16.8,10.4,18.43,10.39,20.13,10.7z"/>
	<path class="st3" d="M18.8,15.73c-1.1,2.23-2.52,3.89-3.8,5.05c1.15,0.63,2.48,1.17,4.06,1.59c0.03,0.01,0.06,0.03,0.08,0.06
		c0.37-0.21,0.72-0.44,1.05-0.7c-0.01-0.02-0.03-0.04-0.03-0.07C20.15,19.39,19.61,17.43,18.8,15.73z"/>
	<path class="st3" d="M12,22.95c0.93,0.35,1.94,0.55,3,0.55c1.39,0,2.7-0.34,3.86-0.93c-1.57-0.43-2.91-0.98-4.06-1.61
		C13.48,22.12,12.35,22.76,12,22.95z"/>
	<path class="st3" d="M23.5,15c0-1.17-0.24-2.29-0.67-3.3c-0.03,0.01-0.06,0.01-0.1,0c-0.82-0.32-1.62-0.53-2.42-0.69
		c-0.29,1.67-0.77,3.14-1.38,4.43c0.86,1.74,1.43,3.78,1.45,6.13C22.29,20.01,23.5,17.64,23.5,15z"/>
	<path class="st2" d="M18.8,15.17c0.05,0.09,0.1,0.18,0.14,0.27c0.6-1.29,1.09-2.76,1.38-4.43c-0.08-0.02-0.16-0.04-0.24-0.05
		C19.8,12.53,19.36,13.94,18.8,15.17z"/>
	<path class="st2" d="M14.77,20.65c0.08,0.04,0.15,0.08,0.23,0.13c1.28-1.16,2.7-2.82,3.8-5.05c-0.05-0.1-0.09-0.2-0.13-0.29
		C17.55,17.76,16.08,19.47,14.77,20.65z"/>
	<path class="st2" d="M14.57,20.83c-1.52,1.33-2.76,1.94-2.79,1.95c-0.03,0.01-0.05,0.04-0.06,0.07c0.09,0.04,0.19,0.07,0.28,0.1
		c0.35-0.18,1.47-0.82,2.8-1.99C14.73,20.91,14.65,20.87,14.57,20.83z"/>
	<path class="st2" d="M20.13,10.7c0.08,0.02,0.16,0.03,0.25,0.04c0.11-0.68,0.19-1.38,0.23-2.13c-0.07-0.06-0.13-0.13-0.21-0.18
		c-0.02,0.02-0.03,0.04-0.03,0.07C20.33,9.27,20.24,10,20.13,10.7z"/>
	<path class="st2" d="M20.28,21.79c0.07,0,0.12-0.06,0.12-0.12c0-0.03-0.01-0.06-0.01-0.1c-0.07,0.06-0.15,0.11-0.22,0.16
		C20.21,21.76,20.24,21.79,20.28,21.79z"/>
	<path class="st2" d="M15.55,10.84c-0.11,0.01-0.22,0.02-0.33,0.03c1.24,1.18,2.51,2.69,3.45,4.56c0.04-0.09,0.09-0.17,0.14-0.27
		C17.9,13.42,16.72,11.98,15.55,10.84z"/>
	<path class="st2" d="M18.8,15.73c0.81,1.7,1.35,3.67,1.36,5.93c0,0.03,0.01,0.05,0.03,0.07c0.07-0.06,0.15-0.1,0.22-0.16
		c-0.02-2.35-0.6-4.38-1.45-6.13C18.9,15.54,18.85,15.63,18.8,15.73z"/>
	<path class="st2" d="M14.99,10.66c0.1-0.02,0.21-0.03,0.31-0.05c-2.03-1.91-3.96-2.92-4.32-3.1c-0.08,0.04-0.15,0.09-0.23,0.14
		c0.01,0.02,0.02,0.04,0.04,0.05C10.84,7.72,12.85,8.69,14.99,10.66z"/>
	<path class="st2" d="M18.67,15.43c0.05,0.09,0.09,0.2,0.13,0.29c0.05-0.1,0.1-0.19,0.15-0.29c-0.05-0.09-0.1-0.18-0.14-0.27
		C18.76,15.26,18.71,15.34,18.67,15.43z"/>
	<path class="st2" d="M19,22.61c0.01,0,0.02,0,0.03,0c0.06,0,0.11-0.04,0.12-0.09c0.01-0.03,0-0.07-0.01-0.1
		c-0.09,0.05-0.18,0.1-0.28,0.14C18.91,22.58,18.95,22.59,19,22.61z"/>
	<path class="st2" d="M8.86,13.12c-0.07,0.04-0.16,0.08-0.23,0.12c0.63,2.37,2.17,5.42,5.93,7.59c0.06-0.06,0.13-0.12,0.2-0.18
		C11,18.51,9.47,15.46,8.86,13.12z"/>
	<path class="st2" d="M8.57,12.99c0.07-0.04,0.15-0.09,0.23-0.13C8.37,11.06,8.49,9.74,8.49,9.7c0-0.04-0.02-0.08-0.05-0.1
		C8.36,9.69,8.3,9.78,8.23,9.88C8.21,10.33,8.21,11.5,8.57,12.99z"/>
	<path class="st2" d="M15,20.78c-0.07,0.06-0.13,0.12-0.2,0.18c1.14,0.63,2.48,1.18,4.06,1.61c0.09-0.05,0.19-0.09,0.28-0.14
		c-0.02-0.03-0.04-0.05-0.08-0.06C17.48,21.95,16.14,21.4,15,20.78z"/>
	<path class="st2" d="M14.57,20.83c0.07,0.04,0.15,0.08,0.23,0.13c0.07-0.06,0.13-0.12,0.2-0.18c-0.08-0.04-0.16-0.08-0.23-0.13
		C14.7,20.71,14.64,20.77,14.57,20.83z"/>
	<path class="st2" d="M22.9,11.63c0.03-0.06-0.01-0.14-0.07-0.16c-0.04-0.02-0.09-0.03-0.13-0.05c0.04,0.09,0.09,0.18,0.13,0.28
		C22.86,11.68,22.89,11.66,22.9,11.63z"/>
	<path class="st2" d="M8.64,13.24c-0.02-0.08-0.05-0.17-0.07-0.25c-1.07,0.62-1.79,1.16-2.04,1.35c-0.01,0.1-0.01,0.2-0.02,0.3
		c0.03,0,0.05-0.01,0.08-0.03C6.62,14.6,7.36,13.98,8.64,13.24z"/>
	<path class="st2" d="M20.08,10.96c0.02-0.09,0.03-0.17,0.05-0.26c-1.7-0.31-3.32-0.3-4.82-0.08c0.08,0.08,0.16,0.15,0.24,0.23
		C16.96,10.66,18.49,10.67,20.08,10.96z"/>
	<path class="st2" d="M20.32,11.01c0.79,0.16,1.6,0.37,2.42,0.69c0.03,0.01,0.07,0.01,0.1,0c-0.04-0.09-0.09-0.18-0.13-0.28
		c-0.79-0.3-1.56-0.52-2.33-0.68C20.36,10.83,20.34,10.92,20.32,11.01z"/>
	<path class="st2" d="M15.22,10.88c-0.08-0.07-0.15-0.14-0.23-0.21c-2.53,0.41-4.68,1.36-6.19,2.2c0.02,0.08,0.04,0.17,0.06,0.25
		C10.4,12.25,12.61,11.27,15.22,10.88z"/>
	<path class="st2" d="M20.13,10.7c-0.01,0.09-0.03,0.17-0.05,0.26c0.08,0.01,0.16,0.03,0.24,0.05c0.02-0.09,0.04-0.17,0.05-0.27
		C20.29,10.73,20.21,10.71,20.13,10.7z"/>
	<path class="st2" d="M15.55,10.84c-0.08-0.08-0.16-0.15-0.24-0.23c-0.11,0.01-0.21,0.03-0.31,0.05c0.08,0.07,0.15,0.14,0.23,0.21
		C15.33,10.86,15.44,10.86,15.55,10.84z"/>
	<path class="st2" d="M8.8,12.87c-0.08,0.04-0.15,0.09-0.23,0.13c0.02,0.08,0.04,0.17,0.07,0.25c0.07-0.04,0.15-0.08,0.23-0.12
		C8.84,13.03,8.82,12.95,8.8,12.87z"/>
	<circle class="st2" cx="16.85" cy="12.42" r="0.74"/>
	<circle class="st2" cx="10.29" cy="12.16" r="0.79"/>
	<circle class="st2" cx="16.3" cy="21.61" r="0.78"/>
</g>
</svg>
