<svg width="38" height="29" viewBox="0 0 38 29" fill="none" xmlns="http://www.w3.org/2000/svg">
<circle cx="28.5" cy="19.5" r="9" fill="#D9D9D9"/>
<g clip-path="url(#clip0_534_12)">
<path d="M3.625 0.5H22.375C24.0986 0.5 25.5 1.90137 25.5 3.625V17.6875C25.5 19.4111 24.0986 20.8125 22.375 20.8125H17.6875V24.9141C17.6875 25.3926 17.1406 25.6709 16.7549 25.3877L10.6562 20.8125H3.625C1.90137 20.8125 0.5 19.4111 0.5 17.6875V3.625C0.5 1.90137 1.90137 0.5 3.625 0.5Z" fill="#8FC43E"/>
<path d="M6.51083 12.1307C6.1079 12.1307 5.76213 11.9864 5.47354 11.6978C5.18496 11.4092 5.04066 11.0634 5.04066 10.6605C5.04066 10.2576 5.18496 9.91181 5.47354 9.62322C5.76213 9.33464 6.1079 9.19034 6.51083 9.19034C6.91377 9.19034 7.25953 9.33464 7.54812 9.62322C7.83671 9.91181 7.981 10.2576 7.981 10.6605C7.981 10.9273 7.91294 11.1723 7.77681 11.3956C7.64613 11.6188 7.46916 11.7985 7.24592 11.9347C7.02811 12.0653 6.78308 12.1307 6.51083 12.1307ZM12.4136 12.1307C12.0106 12.1307 11.6649 11.9864 11.3763 11.6978C11.0877 11.4092 10.9434 11.0634 10.9434 10.6605C10.9434 10.2576 11.0877 9.91181 11.3763 9.62322C11.6649 9.33464 12.0106 9.19034 12.4136 9.19034C12.8165 9.19034 13.1623 9.33464 13.4509 9.62322C13.7394 9.91181 13.8837 10.2576 13.8837 10.6605C13.8837 10.9273 13.8157 11.1723 13.6795 11.3956C13.5489 11.6188 13.3719 11.7985 13.1487 11.9347C12.9308 12.0653 12.6858 12.1307 12.4136 12.1307ZM18.3163 12.1307C17.9134 12.1307 17.5676 11.9864 17.279 11.6978C16.9904 11.4092 16.8461 11.0634 16.8461 10.6605C16.8461 10.2576 16.9904 9.91181 17.279 9.62322C17.5676 9.33464 17.9134 9.19034 18.3163 9.19034C18.7192 9.19034 19.065 9.33464 19.3536 9.62322C19.6422 9.91181 19.7865 10.2576 19.7865 10.6605C19.7865 10.9273 19.7184 11.1723 19.5823 11.3956C19.4516 11.6188 19.2746 11.7985 19.0514 11.9347C18.8336 12.0653 18.5886 12.1307 18.3163 12.1307Z" fill="white"/>
</g>
<defs>
<clipPath id="clip0_534_12">
<rect width="25" height="25" fill="white" transform="matrix(-1 0 0 1 25.5 0.5)"/>
</clipPath>
</defs>
</svg>
