<?xml version="1.0" encoding="utf-8"?>
<!-- Generator: Adobe Illustrator 27.0.0, SVG Export Plug-In . SVG Version: 6.00 Build 0)  -->
<svg version="1.1" id="Layer_1" xmlns="http://www.w3.org/2000/svg" xmlns:xlink="http://www.w3.org/1999/xlink" x="0px" y="0px"
	 viewBox="0 0 60 60" style="enable-background:new 0 0 60 60;" xml:space="preserve">
<style type="text/css">
	.st0{fill:#FFFFFF;}
	.st1{fill:#069EDA;}
</style>
<g>
	<path class="st0" d="M-78.98,26.5l-2-0.5c-0.38-1.47-0.96-2.85-1.71-4.12l1.07-1.78c0.97-0.97,0.97-2.56,0-3.54l-1.41-1.41
		c-0.97-0.97-2.56-0.97-3.54,0l-1.78,1.07c-1.27-0.75-2.66-1.33-4.12-1.71l-0.5-2c0-1.38-1.12-2.5-2.5-2.5h-2
		c-1.38,0-2.5,1.12-2.5,2.5l-0.5,2c-1.47,0.38-2.85,0.96-4.12,1.71l-1.78-1.07c-0.97-0.97-2.56-0.97-3.54,0l-1.41,1.41
		c-0.97,0.97-0.97,2.56,0,3.54l1.07,1.78c-0.75,1.27-1.33,2.66-1.71,4.12l-2,0.5c-1.38,0-2.5,1.12-2.5,2.5v2
		c0,1.38,1.12,2.5,2.5,2.5l2,0.5c0.38,1.47,0.96,2.85,1.71,4.12l-1.07,1.78c-0.97,0.97-0.97,2.56,0,3.54l1.41,1.41
		c0.97,0.97,2.56,0.97,3.54,0l1.78-1.07c1.27,0.75,2.66,1.33,4.12,1.71l0.5,2c0,1.38,1.12,2.5,2.5,2.5h2c1.38,0,2.5-1.12,2.5-2.5
		l0.5-2c1.47-0.38,2.85-0.96,4.12-1.71l1.78,1.07c0.97,0.97,2.56,0.97,3.54,0l1.41-1.41c0.97-0.97,0.97-2.56,0-3.54l-1.07-1.78
		c0.75-1.27,1.33-2.66,1.71-4.12l2-0.5c1.38,0,2.5-1.12,2.5-2.5v-2C-76.48,27.62-77.61,26.5-78.98,26.5z"/>
	<circle class="st1" cx="-96.48" cy="30" r="12.85"/>
	<circle class="st0" cx="-96.48" cy="30" r="10.17"/>
	<g>
		<g>
			<path class="st1" d="M-97.1,35.02c-0.9-0.11-1.98-0.51-2.72-1.18l1.04-1.61c0.79,0.6,1.46,0.88,2.15,0.88
				c0.83,0,1.19-0.32,1.19-0.98c0-1.46-4-1.5-4-4.23c0-1.53,0.87-2.58,2.33-2.88v-1.58h1.57v1.55c0.98,0.15,1.69,0.62,2.27,1.26
				l-1.18,1.36c-0.55-0.5-1.03-0.75-1.65-0.75c-0.71,0-1.08,0.25-1.08,0.92c0,1.35,4.01,1.28,4.01,4.16c0,1.47-0.79,2.62-2.38,2.97
				v1.59h-1.57V35.02z"/>
		</g>
	</g>
</g>
<polygon class="st0" points="-24.48,86.92 -37.82,86.92 -37.82,73.58 -40.54,73.58 -40.54,86.92 -53.88,86.92 -53.88,89.64 
	-40.54,89.64 -40.54,102.98 -37.82,102.98 -37.82,89.64 -24.48,89.64 "/>
<g>
	<rect x="-55.55" y="35.99" class="st0" width="5.99" height="11.98"/>
	<rect x="-30.99" y="24.01" class="st0" width="5.99" height="23.96"/>
	<rect x="-39.18" y="18.02" class="st0" width="5.99" height="29.95"/>
	<rect x="-47.37" y="12.03" class="st0" width="5.99" height="35.94"/>
</g>
<g>
	<path class="st0" d="M27.92,45.77c-0.48,0-0.93-0.17-1.35-0.5c-0.47-0.38-0.78-0.85-0.9-1.39c-0.4,0.22-0.81,0.34-1.22,0.34
		c-0.53,0-1.04-0.19-1.5-0.57c-0.61-0.5-0.94-1.16-0.95-1.92c-0.21,0.06-0.43,0.09-0.65,0.09c-0.61,0-1.21-0.24-1.76-0.71
		c-0.56-0.48-0.87-1.13-0.89-1.91c-0.29,0.09-0.49,0.11-0.5,0.11c-0.03,0-0.07,0.01-0.13,0.01c-0.31,0-1.38-0.07-2.17-1
		c-0.9-1.06-0.5-2.6-0.45-2.77l0.05-0.13l1.52-2.15l-2.1-2.86l-0.06-0.46l0.91-1.94l0.75-0.12l2.68,3.49
		c0.2-0.04,0.4-0.06,0.59-0.06c0.8,0,1.37,0.38,1.82,0.75c0.76,0.62,0.77,1.85,0.71,2.52l0.07,0.04c0-0.04,0.09-0.05,0.19-0.05
		c0.47,0,1.16,0.13,1.79,0.76c0.64,0.64,0.81,1.32,0.84,1.79c0,0,0,0,0,0c0.07,0,0.17,0.08,0.27,0.2c0.13-0.02,0.26-0.03,0.38-0.03
		c0.89,0,1.42,0.51,1.47,0.57c0.74,0.74,0.91,1.42,0.92,1.87l0.75,0.49c0.71,0.04,1.28,0.47,1.47,1.15l0.91,0.64l0.07-0.02
		c0.29,0,0.42-0.06,0.46-0.09c0.05-0.05,0.08-0.12,0.09-0.2l-3.56-2.78l-0.12-0.15c-0.15-0.3-0.27-0.92,0.2-1.48
		c0.24-0.29,0.58-0.44,0.97-0.44c0.35,0,0.64,0.12,0.67,0.14l0.12,0.07l5.33,3.92c0.03,0.01,0.14,0.06,0.28,0.06
		c0.17,0,0.3-0.08,0.43-0.24c0.28-0.36-0.04-0.79-0.14-0.91l-5.84-4.43l-0.11-0.11c-0.24-0.38-0.49-1.14,0.07-1.7
		c0.35-0.35,0.75-0.42,1.02-0.42c0.2,0,0.34,0.04,0.4,0.05l0.13,0.06l7.05,5.2v0c0,0,0.07,0.02,0.15,0.02
		c0.15,0,0.29-0.09,0.43-0.27c0.27-0.35,0.07-0.72-0.03-0.86l-7.64-5.77l-0.16-0.23c-0.08-0.24-0.3-1.11,0.26-1.66
		c0.21-0.21,0.51-0.33,0.86-0.33c0.44,0,0.84,0.18,0.88,0.2l0.12,0.07l7.42,5.62c0.08,0.05,0.38,0.21,0.68,0.21
		c0.23,0,0.4-0.1,0.54-0.32c0.47-0.71-0.12-1.4-0.2-1.48l-10.89-9.86c-0.42-0.25-0.83-0.38-1.21-0.38c-0.14,0-0.28,0.02-0.41,0.06
		c-0.59,0.16-0.95,0.66-1.09,0.86c-0.05,0.98-0.76,2.18-0.84,2.31c-1.48,1.95-2.91,2.35-3.84,2.35c-0.95-0.01-1.59-0.41-1.76-0.53
		c-1.05-0.58-0.98-1.75-0.67-2.41l0.14-0.19c0.14-0.15,0.37-1.07,0.44-2.25c-0.11-1.08,0.28-2.09,0.66-2.79h-3.15l-0.44-0.61
		l1.02-2.3l0.4-0.27l6.19,0.02c0.38-0.3,2.02-1.35,4.44-1.35c2.37,0,3.39,0.5,3.72,0.71c1.83,0.63,3.18,0.72,3.82,0.72
		c0.2,0,0.31-0.01,0.33-0.01l0.15,0l0.4,0.22l5.66,12.07l0.02,0.35l-0.76,1.95c0.35,0.45,0.9,1.61,0.57,3.26
		c-0.34,1.71-1.9,2.33-2.85,2.54c-0.08,0.93-0.42,1.67-1.01,2.19c-0.7,0.62-1.58,0.79-2.22,0.83c-0.16,0.97-0.83,1.58-0.91,1.64
		c-0.64,0.57-1.38,0.86-2.19,0.86c-0.7,0-1.31-0.22-1.73-0.43c-0.24,0.39-0.71,0.9-1.56,1.22c-0.36,0.14-0.75,0.21-1.13,0.21
		c-0.59,0-1.08-0.16-1.41-0.31l-0.22,0.28c-0.08,0.1-0.76,0.94-1.77,1.05C28.08,45.77,28,45.77,27.92,45.77z M27.56,41.61l0.03,0.13
		l-0.53,0.9c-0.06,0.1-0.53,0.97,0.3,1.64c0.19,0.15,0.37,0.23,0.56,0.23c0.5-0.05,0.9-0.45,1-0.58l0.62-0.82L30.16,43l0.18,0.1
		c0.05,0.04,0.56,0.37,1.21,0.37c0.23,0,0.45-0.04,0.67-0.12c0.96-0.37,1.08-1.02,1.08-1.05l0.03-0.23l0.06-0.08l0.64-0.26l0.1,0.01
		l0.19,0.15c0.08,0.06,0.77,0.58,1.62,0.58c0.5,0,0.96-0.19,1.38-0.56c0.01-0.01,0.59-0.53,0.5-1.27l-0.02-0.17l0.48-0.52l0.25,0
		c0.02,0,0.13,0.01,0.29,0.01c0.39,0,1.12-0.07,1.62-0.51c0.42-0.37,0.62-0.97,0.61-1.77l0-0.13l0.39-0.47l0.19-0.04
		c0.08-0.01,1.99-0.22,2.27-1.63c0.32-1.58-0.47-2.52-0.5-2.56l-0.07-0.11l-0.07-0.41l0.79-2.05l-5.28-11.22
		c-0.83,0-2.32-0.12-4.33-0.83l-0.13-0.06c-0.15-0.09-0.95-0.55-3.09-0.55c-2.35,0-3.84,1.2-3.86,1.21l-0.32,0.14l-5.91-0.02
		l-0.31,0.68h3.42l0.09,0.06l0.3,0.66l-0.02,0.11l-0.19,0.22c-0.01,0.01-1.22,1.45-1.06,2.94c-0.03,0.78-0.17,2.5-0.75,3.15
		c-0.06,0.2-0.1,0.52,0.22,0.69c0.08,0.05,0.5,0.36,1.14,0.36c0.91,0,1.86-0.62,2.76-1.78c0.3-0.53,0.66-1.33,0.66-1.83l0.05-0.24
		c0.08-0.15,0.69-1.28,1.94-1.63c0.24-0.07,0.49-0.1,0.75-0.1c0.62,0,1.27,0.21,1.93,0.61l11.05,9.99c0.4,0.41,1.24,1.75,0.36,3.08
		c-0.38,0.57-0.93,0.87-1.59,0.87c-0.69,0-1.25-0.34-1.41-0.44l-7.4-5.6c-0.08-0.03-0.19-0.05-0.27-0.06
		c0.01,0.03,0.01,0.09,0.02,0.17l7.51,5.64l0.07,0.07c0.29,0.34,0.89,1.44,0.09,2.47c-0.48,0.62-1.04,0.75-1.42,0.75
		c-0.42,0-0.72-0.15-0.81-0.2l-6.99-5.16c0.01,0.02-0.02,0.03-0.06,0.06c0,0,0,0,0,0c0.01,0,0.02,0.04,0.04,0.08L37,38.95
		c0.65,0.69,0.98,1.76,0.31,2.63c-0.36,0.47-0.85,0.72-1.41,0.72c-0.47,0-0.84-0.18-0.94-0.24l-5.36-3.93c0,0-0.07-0.01-0.1-0.01
		l3.55,2.86l0.16,0.24c0.11,0.39,0.11,1.07-0.4,1.57c-0.38,0.38-0.95,0.46-1.35,0.46c-0.22,0-0.39-0.02-0.42-0.03l-0.23-0.08
		l-1.33-0.98l-0.19-0.34l-0.01-0.11c-0.01-0.08-0.07-0.26-0.5-0.26l-0.31-0.08l-1.3-0.94l-0.18-0.49l0.03-0.15
		c0-0.01,0.06-0.43-0.55-1.05c-0.02-0.02-0.23-0.2-0.58-0.2c-0.14,0-0.28,0.03-0.43,0.08l-0.12,0.04l-0.58-0.21l-0.1-0.17
		c-0.03-0.06-0.09-0.14-0.12-0.17l-0.04,0.05l-0.54-0.5l0.01-0.28c0-0.02,0.11-0.59-0.47-1.17c-0.32-0.32-0.67-0.39-0.91-0.39
		c-0.16,0-0.26,0.03-0.27,0.03l-0.13,0.03l-0.42-0.12l-0.6-0.66l-0.11-0.36l0.01-0.11c0.08-0.51,0.06-1.37-0.23-1.61
		c-0.41-0.34-0.69-0.46-1.02-0.46c-0.18,0-0.4,0.04-0.64,0.12L19,32.75l-0.44-0.14l-2.2-2.9l-0.16,0.34l2.16,2.94l0.02,0.52
		l-1.76,2.51c-0.09,0.44-0.09,1.12,0.23,1.51c0.44,0.53,1.09,0.55,1.22,0.55c0.06-0.01,0.74-0.14,1-0.55l0.59-0.18l0.31,0.14
		l0.21,0.57c-0.07,0.21-0.59,1.41,0.22,2.1c0.33,0.28,0.65,0.42,0.96,0.42c0.29,0,0.46-0.12,0.47-0.12l1.28-0.86l0.12,0.01
		l0.56,0.53l0.02,0.12l-0.3,0.51c-0.07,0.12-0.66,1.17,0.24,1.9c0.24,0.19,0.48,0.29,0.73,0.29c0.55,0,0.99-0.48,0.99-0.48
		l1.34-1.34l0.13-0.01L27.56,41.61z"/>
	<path class="st0" d="M27.92,45.68c-0.45,0-0.89-0.16-1.29-0.48c-0.5-0.4-0.8-0.9-0.89-1.47c-0.32,0.2-0.77,0.39-1.29,0.39
		c-0.51,0-0.99-0.18-1.44-0.55c-0.63-0.51-0.94-1.2-0.91-1.98c-0.19,0.07-0.45,0.13-0.76,0.13c-0.59,0-1.16-0.23-1.7-0.68
		c-0.58-0.49-0.87-1.17-0.85-1.97c-0.32,0.11-0.57,0.15-0.61,0.15c-0.03,0-0.06,0.01-0.12,0.01c-0.3,0-1.33-0.07-2.09-0.96
		c-0.87-1.02-0.48-2.52-0.43-2.68l0.02-0.06l0.02-0.04l0.03-0.06l1.52-2.14L15,30.37l-0.04-0.41l0.9-1.89l0.67-0.07l2.63,3.5
		c0.22-0.05,0.43-0.08,0.63-0.08c0.77,0,1.32,0.37,1.76,0.72c0.74,0.61,0.72,1.86,0.67,2.43l0.1,0.11c0.08-0.01,0.17-0.01,0.26-0.01
		c0.45,0,1.11,0.13,1.72,0.73c0.63,0.63,0.79,1.3,0.82,1.72c0.14,0.08,0.25,0.19,0.34,0.3c0.14-0.03,0.28-0.04,0.42-0.04
		c0.84,0,1.35,0.49,1.4,0.54c0.73,0.73,0.88,1.4,0.89,1.8l0.79,0.57c0.85,0.06,1.28,0.57,1.43,1.09l0.94,0.7c0.04,0,0.08,0,0.13,0
		c0.3,0,0.47-0.06,0.53-0.12c0.08-0.08,0.11-0.18,0.12-0.26l-3.6-2.87l-0.11-0.13c-0.13-0.26-0.23-0.83,0.2-1.35
		c0.22-0.26,0.53-0.4,0.9-0.4c0.32,0,0.58,0.11,0.63,0.13l0.04,0.02l0.06,0.04l5.33,3.92c0.06,0.03,0.19,0.08,0.34,0.08
		c0.2,0,0.36-0.09,0.51-0.27c0.33-0.43-0.04-0.91-0.14-1.04l-5.86-4.45l-0.09-0.1c-0.22-0.34-0.44-1.05,0.07-1.56
		c0.33-0.33,0.7-0.4,0.95-0.4c0.17,0,0.31,0.03,0.37,0.05l0.07,0.03l0.04,0.02l0.05,0.03l6.99,5.16c0.03,0.01,0.11,0.04,0.21,0.04
		c0.18,0,0.35-0.1,0.51-0.3c0.31-0.41,0.08-0.83-0.02-0.98l-7.66-5.79l-0.14-0.2l-0.01-0.04c-0.03-0.1-0.27-0.96,0.26-1.49
		c0.19-0.19,0.47-0.3,0.79-0.3c0.4,0,0.77,0.16,0.84,0.19l0.04,0.02l0.06,0.04l7.42,5.62c0,0,0.36,0.23,0.74,0.23
		c0.27,0,0.47-0.11,0.63-0.36c0.53-0.8-0.17-1.57-0.2-1.6l-10.89-9.87c-0.45-0.27-0.88-0.41-1.28-0.41c-0.15,0-0.29,0.02-0.43,0.06
		c-0.61,0.17-1,0.68-1.14,0.9c-0.07,1-0.76,2.18-0.85,2.31l-0.02,0.04c-1.43,1.87-2.82,2.26-3.73,2.26
		c-0.93-0.01-1.56-0.41-1.7-0.52c-1-0.55-0.93-1.66-0.64-2.28l0.13-0.18c0.17-0.18,0.4-1.2,0.46-2.31c-0.11-1.14,0.33-2.2,0.73-2.89
		h-3.32l-0.36-0.56l1.03-2.21l0.36-0.23l6.14,0.03c0.49-0.36,2.08-1.35,4.44-1.35c2.36,0,3.36,0.5,3.67,0.7
		c1.86,0.64,3.23,0.74,3.88,0.74c0.2,0,0.32-0.01,0.34-0.01l0.1-0.01l0.4,0.22l5.62,12.02l0.01,0.31l-0.75,1.91
		c0.33,0.5,0.89,1.65,0.57,3.28c-0.35,1.73-1.99,2.3-2.84,2.48c-0.07,0.94-0.4,1.68-0.98,2.2c-0.73,0.65-1.67,0.79-2.24,0.8
		c-0.13,1.01-0.86,1.63-0.89,1.66c-0.62,0.55-1.34,0.84-2.12,0.84c-0.71,0-1.33-0.23-1.76-0.46c-0.24,0.42-0.7,0.93-1.56,1.26
		c-0.35,0.13-0.72,0.2-1.09,0.2c-0.6,0-1.1-0.17-1.44-0.34l-0.27,0.35c-0.08,0.1-0.73,0.9-1.7,1.01
		C28.07,45.67,27.99,45.68,27.92,45.68z M27.5,41.69l-0.53,0.9c-0.06,0.11-0.58,1.05,0.33,1.77c0.21,0.17,0.41,0.25,0.62,0.25
		c0.03,0,0.06,0,0.1-0.01c0.45-0.05,0.86-0.46,0.99-0.61l0.62-0.82l0.55-0.08l0.11,0.08c0,0,0.55,0.39,1.27,0.39
		c0.24,0,0.48-0.04,0.71-0.13c1.03-0.39,1.14-1.1,1.15-1.13l0.03-0.23l0.64-0.26l0.19,0.15c0.01,0.01,0.76,0.61,1.68,0.61
		c0.52,0,1.01-0.2,1.45-0.59c0.01-0.01,0.63-0.56,0.54-1.35l-0.02-0.17l0.45-0.44l0.17,0.02c0.01,0,0.13,0.01,0.3,0.01
		c0.4,0,1.16-0.07,1.68-0.54c0.44-0.39,0.66-1.01,0.64-1.85l0-0.13l0.36-0.4l0.13-0.01c0.02,0,2.06-0.2,2.36-1.71
		c0.33-1.62-0.49-2.61-0.53-2.65l-0.05-0.06l-0.07-0.41l0.79-2l-5.31-11.35c-0.03,0-0.06,0-0.1,0c-0.71,0-2.22-0.11-4.27-0.82
		l-0.06-0.03l-0.04-0.02l-0.06-0.05c0,0,0,0,0,0c0,0-0.77-0.52-3.08-0.52c-2.39,0-3.91,1.22-3.92,1.23l-0.03,0.03l-0.26,0.09
		l-5.94-0.03l-0.41,0.88h3.58l0.3,0.66l-0.19,0.22c-0.01,0.01-1.25,1.48-1.08,3.02l0,0.06c-0.03,0.56-0.16,2.37-0.72,3.01
		c-0.08,0.22-0.15,0.63,0.25,0.85l0.05,0.03c0.05,0.03,0.48,0.34,1.14,0.34c0.94,0,1.92-0.63,2.84-1.82
		c0.32-0.55,0.68-1.37,0.68-1.89L27.55,24c0.04-0.07,0.63-1.21,1.86-1.55c0.23-0.07,0.47-0.1,0.72-0.1c0.6,0,1.24,0.2,1.88,0.6
		l0.06,0.04l10.97,9.94c0.39,0.4,1.19,1.68,0.34,2.95c-0.36,0.54-0.88,0.83-1.51,0.83c-0.67,0-1.2-0.32-1.35-0.42l-7.4-5.6
		c-0.1-0.04-0.25-0.08-0.36-0.08c-0.04,0-0.06,0.01-0.06,0.01c0,0.01-0.02,0.12,0,0.27l7.55,5.71l0.06,0.06
		c0.28,0.32,0.84,1.37,0.08,2.35c-0.45,0.59-0.98,0.71-1.34,0.71c-0.39,0-0.68-0.14-0.76-0.19l-0.05-0.03l-6.93-5.12
		c-0.08,0-0.14,0.03-0.2,0.09c-0.01,0.02,0,0.1,0.04,0.18l5.78,4.38l0.05,0.05c0.56,0.6,0.88,1.62,0.24,2.44
		c-0.34,0.45-0.81,0.69-1.33,0.69c-0.49,0-0.86-0.2-0.9-0.22l-0.04-0.03l-5.31-3.9c-0.05-0.01-0.11-0.03-0.16-0.03
		c-0.04,0-0.07,0.01-0.09,0.02c-0.04,0.05-0.06,0.1-0.06,0.13l3.64,2.89l0.14,0.22l0.01,0.04c0.08,0.3,0.08,0.93-0.4,1.41
		c-0.36,0.36-0.9,0.43-1.28,0.43c-0.21,0-0.37-0.02-0.4-0.03l-0.21-0.08l-1.31-0.96l-0.16-0.3l0-0.06c-0.01-0.1-0.09-0.36-0.6-0.36
		h-0.04L28.5,41.3l-1.27-0.92l-0.15-0.44l0.03-0.09c0,0,0.1-0.47-0.58-1.15c-0.01-0.01-0.25-0.23-0.65-0.23
		c-0.15,0-0.31,0.03-0.47,0.09l-0.12,0.04l-0.5-0.21l-0.05-0.11c-0.03-0.07-0.1-0.16-0.14-0.2l-0.13,0.02l-0.45-0.47l0.04-0.19
		c0-0.03,0.11-0.65-0.5-1.26c-0.35-0.35-0.72-0.42-0.98-0.42c-0.18,0-0.3,0.04-0.3,0.04l-0.08,0.03l-0.42-0.11l-0.55-0.63
		l-0.09-0.32l0.01-0.06c0.07-0.43,0.09-1.41-0.26-1.7c-0.43-0.36-0.73-0.49-1.08-0.49c-0.2,0-0.42,0.04-0.68,0.13l-0.09,0.03
		l-0.44-0.14l-2.25-2.99l-0.26,0.54l2.19,2.99l0,0.46l-1.74,2.45c-0.09,0.43-0.14,1.19,0.24,1.63c0.47,0.56,1.16,0.59,1.3,0.59
		c0.13-0.02,0.81-0.16,1.08-0.6l0.53-0.13l0.23,0.13l0.16,0.52c-0.03,0.06-0.65,1.39,0.25,2.14c0.35,0.29,0.69,0.44,1.02,0.44
		c0.32,0,0.52-0.14,0.52-0.14l1.28-0.85l0.56,0.53l-0.3,0.51c-0.07,0.12-0.7,1.24,0.27,2.03c0.26,0.21,0.52,0.31,0.79,0.31h0
		c0.6,0,1.06-0.51,1.07-0.51l1.34-1.34L27.5,41.69z"/>
	<path class="st0" d="M27.92,45.38c-0.38,0-0.75-0.14-1.1-0.42c-0.72-0.58-0.85-1.26-0.79-1.82c-0.21,0.19-0.8,0.68-1.57,0.68
		c-0.44,0-0.86-0.16-1.25-0.48c-0.9-0.73-0.88-1.67-0.72-2.29l-0.16,0.11c0,0-0.38,0.27-0.97,0.27c-0.52,0-1.02-0.21-1.51-0.61
		c-0.79-0.67-0.8-1.6-0.7-2.22c-0.44,0.25-0.89,0.33-0.99,0.34c-0.01,0-0.02,0-0.02,0c-0.37,0-1.27-0.08-1.93-0.86
		c-0.78-0.93-0.39-2.35-0.37-2.41l1.68-2.39l-2.27-3.09l-0.01-0.1l0.91-1.88l0.17-0.02l2.75,3.66c0.27-0.08,0.52-0.12,0.75-0.12
		c0.67,0,1.15,0.32,1.57,0.66c0.71,0.58,0.6,1.94,0.54,2.35l0.29,0.29c0.09-0.02,0.23-0.04,0.39-0.04c0.39,0,0.97,0.11,1.51,0.65
		c0.66,0.66,0.74,1.36,0.73,1.7c0.23,0.08,0.4,0.29,0.5,0.44c0.18-0.05,0.37-0.08,0.54-0.08c0.71,0,1.14,0.4,1.19,0.45
		c0.77,0.77,0.82,1.44,0.8,1.74l1.01,0.73c1.01,0,1.21,0.76,1.25,1l1.11,0.79c0-0.01,0.02-0.01,0.04-0.01c0.04,0,0.1,0,0.17,0
		c0.34,0,0.6-0.07,0.74-0.21c0.23-0.24,0.22-0.53,0.2-0.65l-3.71-2.92c-0.04-0.05-0.28-0.56,0.13-1.06c0.16-0.2,0.39-0.3,0.67-0.3
		c0.28,0,0.51,0.11,0.51,0.11l5.4,3.96c0,0,0.21,0.11,0.49,0.11c0.29,0,0.54-0.13,0.74-0.39c0.51-0.67-0.15-1.41-0.18-1.44
		l-5.88-4.46c-0.04-0.05-0.48-0.74,0.01-1.22c0.26-0.26,0.54-0.31,0.74-0.31c0.15,0,0.27,0.03,0.29,0.04l7.09,5.22
		c0.02,0.01,0.16,0.08,0.35,0.08c0.28,0,0.53-0.14,0.74-0.42c0.49-0.64,0.01-1.3-0.05-1.38l-7.69-5.81L32,31.26
		c-0.01-0.03-0.23-0.79,0.19-1.2c0.14-0.14,0.33-0.21,0.58-0.21c0.35,0,0.68,0.15,0.72,0.16l7.47,5.64c0,0,0.44,0.29,0.92,0.29
		c0.36,0,0.66-0.17,0.88-0.49c0.66-0.99-0.2-1.93-0.24-1.97l-10.94-9.91c-0.5-0.3-0.99-0.46-1.45-0.46c-0.18,0-0.35,0.02-0.51,0.07
		c-0.82,0.23-1.28,0.97-1.37,1.12c-0.01,0.91-0.76,2.18-0.79,2.23c-1.36,1.78-2.66,2.16-3.5,2.16c-0.88-0.01-1.45-0.4-1.55-0.47
		c-0.9-0.47-0.74-1.45-0.52-1.9l0.07-0.09c0.27-0.2,0.49-1.47,0.55-2.54c-0.15-1.34,0.56-2.58,0.97-3.18h-3.85l-0.09-0.14l1.03-2.21
		l0.09-0.06l6.27,0.03c0.23-0.21,1.81-1.36,4.31-1.36c2.49,0,3.39,0.57,3.54,0.68c1.9,0.66,3.32,0.76,4,0.76
		c0.23,0,0.36-0.01,0.37-0.01l0.2,0.05l5.62,12.02l-0.83,2.19c0.23,0.21,0.98,1.36,0.63,3.13c-0.34,1.72-2.16,2.18-2.84,2.29
		c-0.02,0.96-0.32,1.71-0.9,2.22c-0.72,0.64-1.67,0.73-2.18,0.73c-0.05,0-0.1,0-0.14,0c-0.01,1.06-0.77,1.71-0.81,1.73
		c-0.57,0.51-1.22,0.77-1.93,0.77c-0.81,0-1.5-0.33-1.89-0.57c-0.16,0.4-0.56,1.02-1.54,1.4c-0.32,0.12-0.65,0.18-0.99,0.18
		c-0.7,0-1.26-0.27-1.53-0.42l-0.42,0.55c-0.01,0.01-0.62,0.8-1.5,0.9C28.05,45.38,27.98,45.38,27.92,45.38z M27.24,41.54l-0.53,0.9
		c-0.03,0.05-0.71,1.26,0.4,2.15c0.26,0.21,0.53,0.31,0.81,0.31c0.04,0,0.09,0,0.13-0.01c0.66-0.08,1.18-0.71,1.18-0.72l0.63-0.83
		L30,43.34l0.11,0.08c0.02,0.02,0.63,0.45,1.45,0.45c0.28,0,0.55-0.05,0.81-0.15c1.17-0.44,1.32-1.27,1.34-1.36l0.03-0.23l0.16-0.07
		l0.18,0.15c0.03,0.03,0.85,0.67,1.86,0.67c0.6,0,1.15-0.22,1.64-0.66c0.08-0.07,0.74-0.69,0.63-1.61l-0.02-0.17l0.11-0.11
		l0.17,0.02c0.01,0,0.14,0.02,0.34,0.02c0.45,0,1.28-0.08,1.88-0.61c0.51-0.45,0.76-1.15,0.74-2.07l0-0.13l0.09-0.1l0.12-0.01
		c0.02,0,2.29-0.21,2.63-1.94c0.36-1.79-0.58-2.89-0.59-2.9l-0.07-0.17l0.85-2.15l-5.46-11.6c-0.07,0-0.17,0.01-0.28,0.01
		c-0.7,0-2.16-0.1-4.17-0.81c-0.1-0.06-0.89-0.63-3.35-0.63c-2.49,0-4.05,1.25-4.11,1.3l-0.1,0.05l-6.13-0.03l-0.69,1.47h4.04
		l0.08,0.17l-0.19,0.22c-0.01,0.02-1.33,1.56-1.15,3.24c-0.01,0.26-0.13,2.39-0.7,2.9c-0.04,0.11-0.31,0.88,0.39,1.25
		c0.1,0.07,0.59,0.41,1.33,0.41c1.04,0,2.11-0.68,3.09-1.95l0,0c0.12-0.21,0.73-1.31,0.73-2.05l0.03-0.11
		c0.02-0.04,0.56-1.07,1.67-1.38c0.21-0.06,0.42-0.09,0.64-0.09c0.55,0,1.13,0.19,1.73,0.55l10.99,9.95
		c0.02,0.02,1.17,1.25,0.3,2.56c-0.3,0.46-0.74,0.7-1.27,0.7c-0.58,0-1.06-0.29-1.19-0.38l-7.42-5.62c-0.08-0.03-0.3-0.11-0.49-0.11
		c-0.11,0-0.2,0.03-0.25,0.08c-0.15,0.15-0.14,0.46-0.08,0.7l7.63,5.75c0.05,0.06,0.82,1.03,0.09,1.99c-0.38,0.5-0.81,0.6-1.1,0.6
		c-0.34,0-0.59-0.13-0.62-0.15l-7.03-5.19c0.01,0,0,0.01-0.01,0.01c-0.02,0-0.05,0-0.08,0c-0.11,0-0.27,0.03-0.41,0.17
		c-0.19,0.19-0.01,0.53,0.02,0.6l5.83,4.41c0.36,0.38,0.85,1.28,0.24,2.07c-0.29,0.37-0.67,0.57-1.1,0.57
		c-0.42,0-0.75-0.19-0.75-0.19l-5.37-3.94c-0.01,0-0.14-0.05-0.29-0.05c-0.14,0-0.24,0.04-0.31,0.13c-0.19,0.23-0.13,0.44-0.1,0.51
		l3.72,2.93l0.04,0.1c0.01,0.03,0.16,0.65-0.32,1.12c-0.29,0.29-0.74,0.35-1.08,0.35c-0.2,0-0.34-0.02-0.35-0.02l-1.38-0.99
		l-0.04-0.14c0-0.03-0.04-0.65-0.9-0.65l-0.1-0.02l-1.27-0.92l-0.04-0.11c0.03-0.11,0.19-0.72-0.62-1.54
		c-0.01-0.01-0.33-0.31-0.86-0.31c-0.19,0-0.38,0.04-0.57,0.11l-0.12,0.04l-0.13-0.05l-0.05-0.11c-0.07-0.15-0.23-0.38-0.37-0.38
		l-0.21,0.03l-0.11-0.12l0.04-0.19c0.01-0.03,0.15-0.8-0.58-1.53c-0.42-0.42-0.88-0.51-1.19-0.51c-0.23,0-0.38,0.05-0.38,0.05
		l-0.19,0l-0.55-0.63l-0.01-0.14c0-0.01,0.23-1.49-0.37-1.98c-0.41-0.33-0.78-0.55-1.27-0.55c-0.23,0-0.48,0.05-0.77,0.14l-0.2,0
		l-2.54-3.38l-0.55,1.14l2.3,3.13l0,0.12l-1.79,2.51c-0.02,0.1-0.28,1.24,0.3,1.93c0.56,0.66,1.37,0.69,1.52,0.69
		c0.12-0.01,0.97-0.16,1.33-0.73l0.13-0.03l0.23,0.13l0.04,0.13c-0.03,0.06-0.75,1.59,0.33,2.5c0.4,0.34,0.81,0.51,1.21,0.51
		c0.42,0,0.69-0.19,0.7-0.2l1.27-0.85l0.14,0.13l-0.3,0.51c-0.04,0.06-0.85,1.45,0.33,2.41c0.31,0.25,0.64,0.38,0.97,0.38
		c0.73,0,1.27-0.59,1.29-0.61l1.33-1.33L27.24,41.54z"/>
	<path class="st0" d="M27.92,45.28c-0.36,0-0.71-0.13-1.04-0.39c-0.83-0.66-0.83-1.49-0.71-2.03L26.03,43
		c-0.01,0.01-1.32,1.43-2.76,0.27c-0.99-0.8-0.82-1.86-0.61-2.45l-0.39,0.26c-0.01,0-1.06,0.76-2.36-0.33
		c-0.84-0.71-0.77-1.73-0.62-2.36c-0.5,0.37-1.12,0.45-1.15,0.45c-0.05,0-1.12,0.06-1.86-0.82c-0.75-0.88-0.37-2.26-0.35-2.32
		l0.02-0.04l1.69-2.37l-2.31-3.15l0.91-1.89l2.79,3.72c1.01-0.31,1.63-0.04,2.29,0.51c0.69,0.56,0.55,1.94,0.51,2.26l0.36,0.41
		c0.27-0.06,1.11-0.17,1.86,0.57c0.68,0.68,0.72,1.4,0.7,1.71c0.28,0.05,0.47,0.33,0.56,0.48c1.04-0.33,1.68,0.3,1.71,0.33
		c0.8,0.8,0.8,1.47,0.76,1.71l1.06,0.76c0.99,0.02,1.18,0.71,1.21,0.93l1.15,0.85c0.15,0.02,0.78,0.07,1.08-0.22
		c0.27-0.27,0.25-0.62,0.23-0.74l-3.74-2.98c-0.01-0.02-0.23-0.47,0.15-0.92c0.38-0.46,1.03-0.18,1.06-0.17l0.02,0.01l5.36,3.94
		c0.02,0.01,0.8,0.44,1.36-0.3c0.57-0.74-0.15-1.54-0.19-1.57l-5.89-4.47c-0.02-0.03-0.41-0.64,0.02-1.07
		c0.41-0.41,0.91-0.25,0.93-0.25l0.04,0.02l7.02,5.18c0.02,0.01,0.67,0.37,1.24-0.36c0.54-0.7,0.02-1.41-0.05-1.5l-7.71-5.83
		l-0.01-0.04c-0.01-0.03-0.21-0.73,0.16-1.1c0.38-0.38,1.15-0.04,1.18-0.03l0.03,0.02l7.43,5.62c0.04,0.03,1.25,0.81,1.94-0.23
		c0.71-1.06-0.21-2.05-0.24-2.09l-10.95-9.92c-0.73-0.44-1.42-0.58-2.05-0.41c-0.86,0.24-1.34,1.01-1.43,1.17
		c-0.02,0.93-0.76,2.18-0.79,2.23c-1.34,1.76-2.6,2.11-3.42,2.11c-0.9-0.01-1.47-0.44-1.49-0.46c-0.84-0.44-0.69-1.36-0.49-1.78
		l0.01-0.03l0.03-0.02c0.34-0.25,0.54-1.74,0.59-2.61c-0.16-1.45,0.69-2.77,1.07-3.28h-4.05l1.03-2.21l6.27,0.03
		c0.27-0.21,1.84-1.36,4.31-1.36c2.46,0,3.34,0.55,3.49,0.66c2.7,0.94,4.42,0.76,4.44,0.76l0.1-0.01l0.04,0.09l5.58,11.93
		l-0.83,2.11c0.22,0.28,0.97,1.4,0.62,3.15c-0.35,1.75-2.32,2.15-2.84,2.22c0,0.98-0.29,1.73-0.86,2.24
		c-0.81,0.72-1.93,0.73-2.35,0.7c0.04,1.06-0.73,1.73-0.77,1.76c-1.56,1.39-3.28,0.47-3.81,0.12c-0.11,0.35-0.46,1.05-1.52,1.45
		c-1.18,0.45-2.18-0.07-2.5-0.28l-0.47,0.62c-0.03,0.03-0.61,0.76-1.43,0.86C28.04,45.28,27.98,45.28,27.92,45.28z M27.16,41.49
		l-0.53,0.9c-0.03,0.05-0.76,1.33,0.42,2.28c0.32,0.26,0.66,0.37,1.02,0.33c0.71-0.08,1.24-0.75,1.25-0.76l0.63-0.82l0.11,0.08
		c0.01,0.01,1.09,0.8,2.36,0.32c1.26-0.48,1.39-1.4,1.4-1.44l0.03-0.24l0.19,0.15c0.08,0.06,1.94,1.52,3.64,0
		c0.01-0.01,0.79-0.68,0.67-1.69l-0.02-0.17l0.17,0.02c0.01,0,1.41,0.18,2.3-0.62c0.53-0.47,0.79-1.2,0.77-2.15l0-0.13l0.13-0.01
		c0.02,0,2.36-0.21,2.72-2.02c0.37-1.84-0.6-2.97-0.61-2.98l-0.05-0.06l0.85-2.15l-5.49-11.74c-0.41,0.03-2.04,0.06-4.48-0.79
		l-0.04-0.02c-0.01-0.01-0.79-0.61-3.34-0.61c-2.56,0-4.16,1.31-4.18,1.32l-0.04,0.03l-6.19-0.03l-0.78,1.67h4.2l-0.19,0.22
		c-0.01,0.02-1.36,1.59-1.18,3.32c-0.01,0.26-0.14,2.34-0.67,2.81c-0.07,0.16-0.37,1,0.41,1.41c0.1,0.08,2.14,1.56,4.54-1.58
		c0,0,0.75-1.26,0.75-2.11v-0.03l0.01-0.03c0.02-0.04,0.54-1.03,1.61-1.33c0.7-0.2,1.47-0.04,2.29,0.45l10.97,9.94
		c0.02,0.02,1.1,1.2,0.28,2.43c-0.67,1.01-1.81,0.63-2.32,0.3l-7.42-5.61c-0.19-0.08-0.67-0.23-0.87-0.02
		c-0.22,0.22-0.14,0.66-0.11,0.8l7.67,5.8c0.01,0.01,0.77,0.93,0.07,1.85c-0.71,0.92-1.59,0.43-1.59,0.42L31.47,34
		c-0.08-0.02-0.38-0.07-0.64,0.19c-0.24,0.24-0.04,0.63,0.01,0.72l5.86,4.44c0.33,0.36,0.78,1.2,0.22,1.93
		c-0.71,0.92-1.71,0.36-1.72,0.36l-5.36-3.94c-0.08-0.03-0.5-0.18-0.74,0.1c-0.22,0.26-0.15,0.53-0.12,0.61l3.75,2.98l0.01,0.04
		c0.01,0.02,0.14,0.6-0.29,1.03c-0.43,0.43-1.3,0.3-1.34,0.3l-0.03,0l-1.31-0.96l0-0.06c0-0.03-0.05-0.74-1-0.74h-0.04l-1.27-0.92
		l0.03-0.09c0.01-0.03,0.18-0.69-0.68-1.55c-0.02-0.02-0.6-0.58-1.54-0.23l-0.12,0.04l-0.05-0.11c0,0-0.23-0.48-0.5-0.44l-0.19,0.03
		l0.04-0.19c0.01-0.03,0.16-0.85-0.61-1.62c-0.77-0.77-1.66-0.49-1.67-0.48l-0.08,0.03l-0.55-0.63l0.01-0.06
		c0-0.02,0.24-1.55-0.4-2.07c-0.64-0.53-1.17-0.75-2.13-0.43l-0.09,0.03l-2.64-3.52l-0.64,1.34l2.33,3.18l-1.79,2.51
		c-0.04,0.17-0.31,1.33,0.3,2.05c0.66,0.78,1.62,0.73,1.63,0.73c0,0,0.97-0.13,1.38-0.78l0.23,0.13c-0.03,0.07-0.78,1.66,0.35,2.62
		c1.13,0.95,1.99,0.34,2.03,0.32l1.27-0.85l-0.3,0.51c-0.04,0.06-0.89,1.53,0.36,2.54c1.24,1.01,2.35-0.19,2.4-0.24L27.16,41.49z"/>
	<path class="st0" d="M47.78,30.56c-1.16,0-2.21-0.68-2.69-1.72L40.3,18.42c-0.33-0.72-0.36-1.52-0.09-2.26s0.82-1.33,1.54-1.66
		c0.39-0.18,0.81-0.27,1.23-0.27c1.16,0,2.21,0.68,2.69,1.72l4.79,10.42c0.33,0.72,0.36,1.52,0.08,2.26
		c-0.27,0.74-0.82,1.33-1.54,1.66C48.62,30.47,48.21,30.56,47.78,30.56z M42.99,15.48c-0.24,0-0.48,0.05-0.71,0.16
		c-0.41,0.19-0.73,0.53-0.88,0.96c-0.16,0.42-0.14,0.89,0.05,1.3l4.79,10.42c0.19,0.41,0.53,0.73,0.96,0.88
		c0.19,0.07,0.39,0.11,0.59,0.11c0.24,0,0.48-0.05,0.71-0.16c0.41-0.19,0.73-0.53,0.89-0.96s0.14-0.89-0.05-1.3l-4.79-10.42
		c-0.19-0.41-0.53-0.73-0.96-0.89C43.39,15.52,43.19,15.48,42.99,15.48z"/>
	<path class="st0" d="M47.78,30.46c-1.12,0-2.14-0.65-2.6-1.67l-4.78-10.42c-0.32-0.69-0.35-1.47-0.08-2.19s0.79-1.29,1.49-1.61
		c0.38-0.17,0.78-0.26,1.19-0.26c1.12,0,2.14,0.65,2.6,1.67l4.79,10.42c0.32,0.69,0.35,1.47,0.08,2.19
		c-0.26,0.72-0.79,1.29-1.49,1.6C48.59,30.37,48.19,30.46,47.78,30.46z M42.99,15.38c-0.26,0-0.51,0.06-0.75,0.17
		c-0.44,0.2-0.77,0.56-0.94,1.01c-0.17,0.45-0.15,0.94,0.05,1.38l4.78,10.42c0.2,0.44,0.56,0.77,1.01,0.94
		c0.2,0.08,0.41,0.11,0.63,0.11c0.26,0,0.51-0.06,0.75-0.17c0.44-0.2,0.77-0.56,0.94-1.01c0.17-0.45,0.15-0.94-0.05-1.38
		l-4.79-10.42c-0.2-0.44-0.56-0.77-1.01-0.94C43.41,15.42,43.2,15.38,42.99,15.38z"/>
	<path class="st0" d="M47.78,30.16c-1,0-1.92-0.59-2.33-1.49l-4.79-10.42c-0.29-0.62-0.31-1.32-0.07-1.96
		c0.24-0.64,0.71-1.15,1.33-1.44c0.34-0.16,0.7-0.23,1.07-0.23c1,0,1.92,0.59,2.33,1.49l4.79,10.42c0.29,0.62,0.31,1.32,0.07,1.96
		c-0.24,0.64-0.71,1.15-1.33,1.44C48.51,30.09,48.15,30.16,47.78,30.16z M42.99,15.09c-0.3,0-0.6,0.07-0.87,0.19
		c-0.51,0.23-0.9,0.65-1.09,1.18c-0.2,0.53-0.17,1.09,0.06,1.6l4.79,10.42c0.23,0.51,0.65,0.9,1.18,1.09
		c0.24,0.09,0.48,0.13,0.73,0.13l0,0c0.3,0,0.6-0.06,0.87-0.19c0.51-0.23,0.9-0.65,1.09-1.18c0.19-0.53,0.17-1.09-0.06-1.6
		L44.9,16.31c-0.23-0.51-0.65-0.9-1.18-1.09C43.48,15.13,43.24,15.09,42.99,15.09z"/>
	<path class="st0" d="M47.78,30.07c-0.93,0-1.83-0.53-2.24-1.44l-4.78-10.42c-0.27-0.6-0.3-1.27-0.07-1.88
		c0.23-0.62,0.68-1.11,1.28-1.38c1.23-0.57,2.7-0.02,3.27,1.21l4.79,10.42c0.27,0.6,0.3,1.27,0.07,1.88
		c-0.23,0.62-0.68,1.11-1.28,1.38l0,0C48.47,29.99,48.12,30.07,47.78,30.07z M42.99,14.99c-0.31,0-0.62,0.07-0.92,0.2
		c-0.53,0.25-0.94,0.68-1.14,1.23S40.75,17.57,41,18.1l4.78,10.42c0.25,0.53,0.68,0.94,1.23,1.14c0.55,0.2,1.15,0.18,1.68-0.06l0,0
		c0.53-0.24,0.94-0.68,1.14-1.23s0.18-1.15-0.06-1.68l-4.79-10.42c-0.25-0.53-0.68-0.94-1.23-1.14
		C43.51,15.03,43.25,14.99,42.99,14.99z"/>
	<path class="st0" d="M12.22,30.56c-0.43,0-0.84-0.09-1.23-0.27c-0.72-0.33-1.27-0.92-1.54-1.66s-0.24-1.54,0.09-2.26l4.79-10.42
		c0.48-1.05,1.54-1.72,2.69-1.72c0.43,0,0.84,0.09,1.23,0.27c1.48,0.68,2.14,2.44,1.45,3.93l-4.79,10.42
		c-0.33,0.72-0.92,1.27-1.66,1.54C12.92,30.5,12.57,30.56,12.22,30.56z M17.01,15.48c-0.2,0-0.4,0.04-0.59,0.11
		c-0.43,0.16-0.77,0.47-0.95,0.89l-4.79,10.42c-0.19,0.41-0.21,0.87-0.05,1.3s0.47,0.76,0.88,0.95c0.23,0.1,0.46,0.16,0.71,0.16
		c0.2,0,0.4-0.04,0.59-0.11c0.43-0.16,0.76-0.47,0.95-0.88l4.79-10.42c0.19-0.41,0.21-0.87,0.05-1.3c-0.16-0.43-0.47-0.77-0.88-0.96
		C17.49,15.53,17.25,15.48,17.01,15.48z"/>
	<path class="st0" d="M12.22,30.46c-0.41,0-0.81-0.09-1.19-0.26c-0.69-0.32-1.22-0.89-1.49-1.6c-0.27-0.72-0.24-1.49,0.08-2.19
		l4.78-10.42c0.47-1.01,1.49-1.67,2.6-1.67c0.41,0,0.81,0.09,1.19,0.26c1.43,0.66,2.06,2.36,1.41,3.79L14.82,28.8
		c-0.32,0.69-0.89,1.22-1.61,1.49C12.9,30.4,12.56,30.46,12.22,30.46z M17.01,15.38c-0.21,0-0.42,0.04-0.63,0.11
		c-0.45,0.17-0.81,0.5-1.01,0.94l-4.78,10.42c-0.2,0.44-0.22,0.93-0.05,1.38c0.17,0.45,0.5,0.81,0.94,1.01
		c0.24,0.11,0.49,0.17,0.75,0.17c0.21,0,0.42-0.04,0.63-0.11c0.45-0.17,0.81-0.5,1.01-0.94l4.78-10.42c0.41-0.9,0.02-1.97-0.88-2.39
		C17.52,15.44,17.27,15.38,17.01,15.38z"/>
	<path class="st0" d="M12.22,30.17c-0.37,0-0.73-0.08-1.07-0.24c-0.62-0.29-1.1-0.8-1.33-1.44c-0.24-0.64-0.21-1.34,0.07-1.96
		l4.79-10.42c0.42-0.91,1.33-1.49,2.33-1.49c0.37,0,0.73,0.08,1.07,0.23c1.28,0.59,1.85,2.12,1.26,3.4l-4.79,10.42
		c-0.29,0.62-0.8,1.09-1.44,1.33C12.83,30.11,12.52,30.17,12.22,30.17z M17.01,15.09c-0.25,0-0.49,0.04-0.73,0.13
		c-0.52,0.2-0.94,0.58-1.18,1.09l-4.78,10.42c-0.23,0.51-0.26,1.08-0.06,1.6c0.19,0.53,0.58,0.94,1.09,1.18
		c0.28,0.13,0.57,0.19,0.87,0.19c0.25,0,0.49-0.04,0.73-0.13c0.52-0.19,0.94-0.58,1.18-1.09l4.79-10.42
		c0.48-1.05,0.02-2.3-1.03-2.78C17.61,15.15,17.31,15.09,17.01,15.09z"/>
	<path class="st0" d="M12.22,30.07c-0.35,0-0.7-0.08-1.03-0.23l0,0c-0.6-0.27-1.05-0.77-1.28-1.38c-0.23-0.62-0.2-1.29,0.07-1.88
		l4.78-10.42c0.57-1.23,2.03-1.78,3.27-1.21c1.23,0.57,1.78,2.03,1.21,3.27l-4.78,10.42c-0.27,0.6-0.77,1.05-1.38,1.28
		C12.8,30.02,12.51,30.07,12.22,30.07z M17.01,14.99c-0.26,0-0.52,0.05-0.76,0.14c-0.55,0.2-0.99,0.61-1.23,1.14l-4.78,10.42
		c-0.25,0.53-0.27,1.13-0.06,1.68c0.2,0.55,0.61,0.99,1.14,1.23h0c0.53,0.25,1.13,0.27,1.68,0.06c0.55-0.2,0.99-0.61,1.23-1.14
		L19,18.1c0.51-1.1,0.02-2.41-1.08-2.91C17.63,15.05,17.32,14.99,17.01,14.99z"/>
</g>
</svg>
