<svg width="25" height="25" viewBox="0 0 25 25" fill="none" xmlns="http://www.w3.org/2000/svg">
<path d="M11.4583 4.16669H4.16665C3.61411 4.16669 3.08421 4.38618 2.69351 4.77688C2.30281 5.16758 2.08331 5.69749 2.08331 6.25002V20.8334C2.08331 21.3859 2.30281 21.9158 2.69351 22.3065C3.08421 22.6972 3.61411 22.9167 4.16665 22.9167H18.75C19.3025 22.9167 19.8324 22.6972 20.2231 22.3065C20.6138 21.9158 20.8333 21.3859 20.8333 20.8334V13.5417" stroke="white" stroke-width="2" stroke-linecap="round" stroke-linejoin="round"/>
<path d="M19.2708 2.60418C19.6852 2.18978 20.2473 1.95697 20.8333 1.95697C21.4194 1.95697 21.9814 2.18978 22.3958 2.60418C22.8102 3.01858 23.043 3.58063 23.043 4.16668C23.043 4.75273 22.8102 5.31478 22.3958 5.72918L12.5 15.625L8.33331 16.6667L9.37498 12.5L19.2708 2.60418Z" stroke="white" stroke-width="2" stroke-linecap="round" stroke-linejoin="round"/>
</svg>
