<?xml version="1.0" encoding="utf-8"?>
<!-- Generator: Adobe Illustrator 27.0.0, SVG Export Plug-In . SVG Version: 6.00 Build 0)  -->
<svg version="1.1" id="Layer_1" xmlns="http://www.w3.org/2000/svg" xmlns:xlink="http://www.w3.org/1999/xlink" x="0px" y="0px"
	 viewBox="0 0 100 100" style="enable-background:new 0 0 100 100;" xml:space="preserve">
<style type="text/css">
	.st0{fill:#00A1E1;}
</style>
<g>
	<path class="st0" d="M84.26,7.1c-8.7,0-15.75,7.05-15.75,15.75s7.05,15.74,15.75,15.74c8.69,0,15.74-7.05,15.74-15.74
		S92.95,7.1,84.26,7.1z"/>
	<path class="st0" d="M81.33,45.43v34.8L65.22,60.98c-1.31-1.56-3.64-1.77-5.2-0.46c-1.56,1.31-1.77,3.63-0.46,5.2l16.58,19.8H12.57
		l16.58-19.8c1.31-1.56,1.1-3.89-0.46-5.2c-1.56-1.31-3.89-1.1-5.2,0.46L7.38,80.23V34.72L41.9,65.56c0.7,0.62,1.58,0.94,2.46,0.94
		c0.88,0,1.76-0.31,2.46-0.94l25.86-23.1c-6.7-3.97-11.19-11.26-11.19-19.61c0-0.02,0-0.04,0-0.06H3.69c-0.23,0-0.45,0.03-0.67,0.07
		c-0.07,0.01-0.14,0.03-0.21,0.05c-0.15,0.04-0.29,0.08-0.44,0.14c-0.07,0.03-0.14,0.05-0.2,0.08c-0.16,0.07-0.32,0.16-0.47,0.25
		c-0.03,0.02-0.07,0.04-0.1,0.06c-0.18,0.12-0.34,0.26-0.49,0.41C1.08,23.87,1.04,23.92,1,23.97c-0.1,0.11-0.2,0.23-0.29,0.36
		c-0.04,0.06-0.09,0.12-0.13,0.19c-0.08,0.12-0.15,0.26-0.21,0.39c-0.03,0.07-0.07,0.13-0.09,0.2c-0.01,0.02-0.02,0.04-0.03,0.06
		c-0.07,0.18-0.12,0.37-0.16,0.56c-0.01,0.03-0.01,0.06-0.01,0.09C0.03,26,0.01,26.2,0.01,26.39c0,0.03-0.01,0.06-0.01,0.08v62.74
		c0,2.04,1.65,3.69,3.69,3.69h81.33c2.04,0,3.69-1.65,3.69-3.69V45.19c-1.44,0.28-2.93,0.44-4.45,0.44
		C83.26,45.62,82.29,45.55,81.33,45.43z"/>
</g>
</svg>
