<svg width="16" height="16" viewBox="0 0 16 16" fill="none" xmlns="http://www.w3.org/2000/svg">
<rect width="16" height="16" rx="2" fill="#8FC43E"/>
<path d="M11.4866 8.00002H6.57366V5.98635C6.57366 5.21291 7.20165 4.57033 7.98613 4.56252C8.77854 4.55471 9.42634 5.18947 9.42634 5.96877V6.28127C9.42634 6.54104 9.63831 6.75002 9.90179 6.75002H10.5357C10.7992 6.75002 11.0112 6.54104 11.0112 6.28127V5.96877C11.0112 4.32814 9.65416 2.99416 7.9901 3.00002C6.32603 3.00588 4.98884 4.35744 4.98884 5.99807V8.00002H4.51339C3.98842 8.00002 3.5625 8.41994 3.5625 8.93752V12.0625C3.5625 12.5801 3.98842 13 4.51339 13H11.4866C12.0116 13 12.4375 12.5801 12.4375 12.0625V8.93752C12.4375 8.41994 12.0116 8.00002 11.4866 8.00002ZM8.79241 10.9688C8.79241 11.4004 8.43781 11.75 8 11.75C7.56219 11.75 7.20759 11.4004 7.20759 10.9688V10.0313C7.20759 9.59963 7.56219 9.25002 8 9.25002C8.43781 9.25002 8.79241 9.59963 8.79241 10.0313V10.9688Z" fill="white"/>
</svg>
