<svg width="82" height="83" viewBox="0 0 82 83" fill="none" xmlns="http://www.w3.org/2000/svg">
<rect y="0.940491" width="82" height="82" rx="20" fill="#00A1E9"/>
<g clip-path="url(#clip0_399_260)">
<path d="M55.4415 35.9273H19.6277V62.8428H55.4415V35.9273Z" fill="white" stroke="#3D3736" stroke-width="1.5" stroke-miterlimit="10" stroke-linecap="round" stroke-linejoin="round"/>
<path d="M37.5346 47.958L19.6277 62.8428H55.4415L37.5346 47.958Z" stroke="#3D3736" stroke-width="1.5" stroke-miterlimit="10" stroke-linecap="round" stroke-linejoin="round"/>
<path d="M37.5346 50.8121L55.4415 35.9273H19.6277L37.5346 50.8121Z" fill="#D6D6D6" stroke="#3D3736" stroke-width="1.5" stroke-miterlimit="10" stroke-linecap="round" stroke-linejoin="round"/>
<path d="M28.5586 25.0382V35.9273H55.4415V51.9537H64.3724V25.0382H28.5586Z" fill="white" stroke="#3D3736" stroke-width="1.5" stroke-miterlimit="10" stroke-linecap="round" stroke-linejoin="round"/>
</g>
<rect x="51.75" y="15.75" width="18.5" height="18.5" rx="9.25" fill="#D6D6D6"/>
<path d="M61.2244 29.418C60.179 29.418 59.3484 29.0867 58.7324 28.424C58.1257 27.752 57.8224 26.814 57.8224 25.61C57.8224 24.882 57.9577 24.2333 58.2284 23.664C58.5084 23.0853 58.8957 22.6327 59.3904 22.306C59.885 21.97 60.459 21.802 61.1124 21.802C61.8124 21.802 62.391 21.956 62.8484 22.264C63.315 22.5627 63.665 22.9687 63.8984 23.482C64.1317 23.9953 64.2484 24.56 64.2484 25.176C64.2484 25.5027 64.2344 25.82 64.2064 26.128H59.1104C59.1944 26.8093 59.4324 27.3413 59.8244 27.724C60.2164 28.1067 60.7344 28.298 61.3784 28.298C61.7984 28.298 62.1764 28.256 62.5124 28.172C62.8484 28.0787 63.1704 27.962 63.4784 27.822L63.7724 28.9C63.4364 29.0493 63.0584 29.1707 62.6384 29.264C62.2184 29.3667 61.747 29.418 61.2244 29.418ZM59.0964 25.106H63.0864C63.0864 24.3967 62.909 23.8507 62.5544 23.468C62.1997 23.0853 61.7097 22.894 61.0844 22.894C60.543 22.894 60.095 23.0853 59.7404 23.468C59.3857 23.8413 59.171 24.3873 59.0964 25.106Z" fill="#595857"/>
<rect x="51.75" y="15.75" width="18.5" height="18.5" rx="9.25" stroke="#00A1E9" stroke-width="1.5"/>
<defs>
<clipPath id="clip0_399_260">
<rect width="47" height="40" fill="white" transform="translate(18.5 23.9405)"/>
</clipPath>
</defs>
</svg>
