<svg width="82" height="82" viewBox="0 0 82 82" fill="none" xmlns="http://www.w3.org/2000/svg">
<rect width="82" height="82" rx="20" fill="#6EC7CD"/>
<path d="M49.0996 61.8625H32.9004C30.5863 61.8625 28.6929 59.9691 28.6929 57.655V24.2749C28.6929 21.9607 30.5863 20.0673 32.9004 20.0673H49.0996C51.4138 20.0673 53.3072 21.9607 53.3072 24.2749V57.655C53.3072 59.9691 51.4138 61.8625 49.0996 61.8625Z" fill="white" stroke="#727272" stroke-width="2" stroke-miterlimit="10" stroke-linecap="round" stroke-linejoin="round"/>
<path d="M38.791 23.9944H43.209" stroke="#727272" stroke-width="2" stroke-miterlimit="10" stroke-linecap="round" stroke-linejoin="round"/>
<path d="M28.3422 33.5316L18.4544 33.6017C17.122 33.6017 16 34.6536 16 36.0561V45.9439C16 47.2763 17.122 48.3983 18.4544 48.3983H28.3422C29.6746 48.3983 30.7966 47.2763 30.7966 45.9439V36.0561C30.8668 34.6536 29.7447 33.5316 28.3422 33.5316Z" fill="#2FADB5"/>
<path d="M23.4333 36.547V45.453" stroke="white" stroke-width="2" stroke-miterlimit="10" stroke-linecap="round" stroke-linejoin="round"/>
<path d="M19.5764 43.209L27.2903 38.791" stroke="white" stroke-width="2" stroke-miterlimit="10" stroke-linecap="round" stroke-linejoin="round"/>
<path d="M27.2903 43.209L19.5764 38.791" stroke="white" stroke-width="2" stroke-miterlimit="10" stroke-linecap="round" stroke-linejoin="round"/>
<path d="M45.9439 33.5316H36.0561C34.7237 33.5316 33.6017 34.6536 33.6017 35.986V45.8738C33.6017 47.2062 34.7237 48.3282 36.0561 48.3282H45.9439C47.2763 48.3282 48.3983 47.2062 48.3983 45.8738V35.986C48.3983 34.6536 47.2763 33.5316 45.9439 33.5316Z" fill="#2FADB5"/>
<path d="M40.965 36.547V45.453" stroke="white" stroke-width="2" stroke-miterlimit="10" stroke-linecap="round" stroke-linejoin="round"/>
<path d="M37.108 43.209L44.8219 38.791" stroke="white" stroke-width="2" stroke-miterlimit="10" stroke-linecap="round" stroke-linejoin="round"/>
<path d="M44.8219 43.209L37.108 38.791" stroke="white" stroke-width="2" stroke-miterlimit="10" stroke-linecap="round" stroke-linejoin="round"/>
<path d="M63.4755 33.5316H53.5877C52.2553 33.5316 51.1333 34.6536 51.1333 35.986V45.8738C51.1333 47.2062 52.2553 48.3282 53.5877 48.3282H63.4755C64.8079 48.3282 65.9299 47.2062 65.9299 45.8738V35.986C65.9299 34.6536 64.878 33.5316 63.4755 33.5316Z" fill="#2FADB5"/>
<path d="M58.5667 36.547V45.453" stroke="white" stroke-width="2" stroke-miterlimit="10" stroke-linecap="round" stroke-linejoin="round"/>
<path d="M54.7097 43.209L62.4236 38.791" stroke="white" stroke-width="2" stroke-miterlimit="10" stroke-linecap="round" stroke-linejoin="round"/>
<path d="M62.4236 43.209L54.7097 38.791" stroke="white" stroke-width="2" stroke-miterlimit="10" stroke-linecap="round" stroke-linejoin="round"/>
</svg>
