<svg width="15" height="14" viewBox="0 0 15 14" fill="none" xmlns="http://www.w3.org/2000/svg">
<g clip-path="url(#clip0_371_596)">
<path d="M11.9853 13.65H8.98971V11.7418C8.98971 10.9799 8.94238 10.2178 8.68333 9.64017C8.54978 9.34235 8.35454 9.08029 8.07101 8.89524C7.7874 8.71012 7.44275 8.6199 7.04044 8.6199C6.63814 8.6199 6.29349 8.71012 6.00987 8.89524C5.72635 9.08029 5.53111 9.34235 5.39756 9.64017C5.13851 10.2178 5.09118 10.9799 5.09118 11.7418V13.6299H2.09559C1.98656 13.6299 1.85736 13.5353 1.85736 13.3372V5.02155V4.36998L1.31411 4.72974L0.70884 5.13057C0.708676 5.13067 0.708512 5.13078 0.708348 5.13089C0.616057 5.19099 0.473312 5.16973 0.398706 5.03386C0.315307 4.88198 0.373126 4.68545 0.485809 4.61138C0.485879 4.61133 0.48595 4.61128 0.48602 4.61124L1.99283 3.62738L1.99354 3.62691L6.91984 0.393161C6.91987 0.393144 6.91989 0.393127 6.91992 0.39311C6.98716 0.349071 7.07527 0.349058 7.14253 0.39307C7.14257 0.393101 7.14262 0.393131 7.14266 0.393161L12.087 3.64678L12.0881 3.64746L13.5949 4.63132C13.5949 4.63137 13.595 4.63142 13.5951 4.63147C13.7078 4.70556 13.7656 4.90207 13.6822 5.05395C13.6221 5.16344 13.5452 5.19379 13.4927 5.19379C13.4649 5.19379 13.4205 5.18229 13.3726 5.15101C13.3724 5.15089 13.3722 5.15077 13.372 5.15065L12.7668 4.74982L12.2235 4.39006V5.04163V13.3573C12.2235 13.5554 12.0943 13.65 11.9853 13.65Z" stroke="black" stroke-width="0.7"/>
</g>
<defs>
<clipPath id="clip0_371_596">
<rect width="15" height="14" fill="white"/>
</clipPath>
</defs>
</svg>
