<svg width="16" height="17" viewBox="0 0 16 17" fill="none" xmlns="http://www.w3.org/2000/svg">
<path d="M15.1868 7.84408L8.67721 14.3537C7.87973 15.1511 6.79813 15.5991 5.67033 15.5991C4.54254 15.5991 3.46093 15.1511 2.66346 14.3537C1.86598 13.5562 1.41797 12.4746 1.41797 11.3468C1.41797 10.219 1.86598 9.13738 2.66346 8.33991L9.17304 1.83033C9.70469 1.29868 10.4258 1 11.1776 1C11.9295 1 12.6506 1.29868 13.1822 1.83033C13.7139 2.36197 14.0125 3.08304 14.0125 3.83491C14.0125 4.58677 13.7139 5.30784 13.1822 5.83949L6.66554 12.3491C6.39972 12.6149 6.03918 12.7642 5.66325 12.7642C5.28732 12.7642 4.92678 12.6149 4.66096 12.3491C4.39513 12.0833 4.24579 11.7227 4.24579 11.3468C4.24579 10.9709 4.39513 10.6103 4.66096 10.3445L10.6747 4.33783" stroke="#595857" stroke-linecap="round" stroke-linejoin="round"/>
</svg>
