<svg width="35" height="35" viewBox="0 0 35 35" fill="none" xmlns="http://www.w3.org/2000/svg">
<g opacity="0.91">
<path d="M23.3333 5.83331H26.25C27.0235 5.83331 27.7654 6.1406 28.3124 6.68758C28.8594 7.23457 29.1667 7.97643 29.1667 8.74998V29.1666C29.1667 29.9402 28.8594 30.6821 28.3124 31.229C27.7654 31.776 27.0235 32.0833 26.25 32.0833H8.74999C7.97645 32.0833 7.23458 31.776 6.6876 31.229C6.14062 30.6821 5.83333 29.9402 5.83333 29.1666V8.74998C5.83333 7.97643 6.14062 7.23457 6.6876 6.68758C7.23458 6.1406 7.97645 5.83331 8.74999 5.83331H11.6667" stroke="white" stroke-width="2" stroke-linecap="round" stroke-linejoin="round"/>
<path d="M21.875 2.91669H13.125C12.3196 2.91669 11.6667 3.5696 11.6667 4.37502V7.29169C11.6667 8.0971 12.3196 8.75002 13.125 8.75002H21.875C22.6804 8.75002 23.3333 8.0971 23.3333 7.29169V4.37502C23.3333 3.5696 22.6804 2.91669 21.875 2.91669Z" stroke="white" stroke-width="2" stroke-linecap="round" stroke-linejoin="round"/>
</g>
</svg>
