<svg width="22" height="16" viewBox="0 0 22 16" fill="none" xmlns="http://www.w3.org/2000/svg">
<g clip-path="url(#clip0_33_203)">
<path d="M10.1037 10.6983C10.0711 10.6665 10.0385 10.6348 9.97333 10.603C9.97333 10.6665 9.97333 10.7618 9.94073 10.857C10.0059 10.8252 10.0385 10.8252 10.0711 10.7935C10.0711 10.7618 10.1037 10.73 10.1037 10.6983Z" fill="#595857"/>
<path d="M9.94073 11.2063L10.0059 11.3016C10.0059 11.2063 10.0059 11.1111 10.0385 11.0159C10.0059 11.0159 9.97333 11.0476 9.94073 11.0794C9.94073 11.1111 9.94073 11.1746 9.94073 11.2063Z" fill="#595857"/>
<path d="M9.90814 10.4443V10.5078C9.94073 10.5078 9.94073 10.4761 9.97333 10.4761L9.90814 10.4443Z" fill="#595857"/>
<path d="M9.74518 10.984C9.77777 10.857 9.77777 10.7617 9.77777 10.6982C9.74518 10.73 9.71259 10.73 9.67999 10.7617C9.67999 10.8252 9.67999 10.8887 9.67999 10.9205L9.74518 10.984Z" fill="#595857"/>
<path d="M9.6474 10.5396C9.67999 10.5078 9.74518 10.5078 9.77777 10.4761C9.74518 10.4444 9.67999 10.4126 9.6474 10.3809C9.67999 10.4444 9.6474 10.4761 9.6474 10.5396Z" fill="#595857"/>
<path d="M12.5482 14.73C12.5156 14.7617 12.4504 14.7935 12.4178 14.8252C12.483 14.857 12.5156 14.9205 12.5807 14.9522C12.5482 14.8887 12.5482 14.7935 12.5482 14.73Z" fill="#595857"/>
<path d="M12.4178 13.5237C12.3852 13.5237 12.3526 13.5554 12.2874 13.5554C12.2548 13.7142 12.2222 13.8729 12.2222 14.0316C12.32 13.9681 12.4178 13.9364 12.5156 13.8729C12.5482 13.7777 12.5482 13.7142 12.5482 13.6824C12.5482 13.6507 12.483 13.5872 12.4178 13.5237Z" fill="#595857"/>
<path d="M9.09332 10.3174L9.1911 10.4126C9.1911 10.3492 9.1911 10.2857 9.1911 10.2222C9.15851 10.2539 9.12592 10.2539 9.09332 10.2857C9.09332 10.2539 9.09332 10.2857 9.09332 10.3174Z" fill="#595857"/>
<path d="M9.09332 10.0318C9.12592 10 9.15851 10 9.1911 10C9.15851 9.96827 9.12592 9.93652 9.09332 9.93652C9.09332 9.93652 9.09332 10 9.09332 10.0318Z" fill="#595857"/>
<path d="M7.88739 10.7618L7.3985 12.0952C7.75702 12.1269 8.08294 12.1269 8.44146 12.1269C9.19109 12.1269 9.84294 12.0634 10.4296 11.9682L9.22368 10.7301C9.06072 10.6983 8.34368 10.7618 7.88739 10.7618Z" fill="#595857"/>
<path d="M11.2444 12.0635C11.2444 12.0317 11.2119 12.0317 11.2119 12C11.2119 12.0317 11.2119 12.0635 11.1793 12.0635C11.2119 12.0635 11.2444 12.0635 11.2444 12.0635Z" fill="#595857"/>
<path d="M12.2548 14.2539C12.2548 14.4762 12.2874 14.6031 12.32 14.6984C12.3852 14.6349 12.4504 14.6031 12.5156 14.5714C12.5156 14.4127 12.5156 14.2857 12.5156 14.127C12.4178 14.1587 12.32 14.1904 12.2548 14.2539Z" fill="#595857"/>
<path d="M8.99554 10.2222C8.96295 10.2222 8.96295 10.2539 8.93036 10.2539H8.89777L8.96295 10.3174C8.99554 10.2857 8.99554 10.2539 8.99554 10.2222Z" fill="#595857"/>
<path d="M7.75701 10.5714H7.8222C7.88738 10.5714 7.98516 10.5714 8.08294 10.5714C8.40886 10.5714 8.83257 10.5396 9.06071 10.5396L8.7022 10.1904C8.40886 10.2222 7.88738 10.2539 7.33331 10.2539L6.38812 12C6.55109 12.0317 6.81183 12.0634 7.20294 12.0952L7.75701 10.5714Z" fill="#595857"/>
<path d="M8.89777 10.127C8.89777 10.0635 8.89777 10.0318 8.89777 9.96826C8.86517 9.96826 8.83258 10 8.79999 10V10.0318L8.89777 10.127Z" fill="#595857"/>
<path d="M8.79999 9.68237V9.8411C8.83258 9.80936 8.86517 9.80936 8.89777 9.77761C8.89777 9.74586 8.83258 9.71412 8.79999 9.68237Z" fill="#595857"/>
<path d="M6.12738 12.73C6.25775 12.7617 6.55108 12.8252 7.07257 12.8887V12.73C6.61627 12.6983 6.25775 12.6348 6.12738 12.6348V12.73Z" fill="#595857"/>
<path d="M8.66962 13.0477C8.83258 13.0477 9.02814 13.0794 9.1911 13.0794V12.7937C9.02814 12.7937 8.83258 12.7937 8.66962 12.7937V13.0477Z" fill="#595857"/>
<path d="M9.38666 13.0792C9.54962 13.0792 9.74518 13.0792 9.90814 13.0792V12.73C9.74518 12.73 9.54962 12.7617 9.38666 12.7617V13.0792Z" fill="#595857"/>
<path d="M7.91998 12.762V12.9842C8.11554 12.9842 8.2785 13.0159 8.47406 13.0159V12.762H8.44146C8.2785 12.7937 8.11554 12.7937 7.91998 12.762Z" fill="#595857"/>
<path d="M7.23553 12.9207C7.3985 12.9524 7.56146 12.9524 7.75702 12.9842V12.7937C7.59405 12.7937 7.3985 12.762 7.23553 12.762V12.9207Z" fill="#595857"/>
<path d="M10.8859 12.4444L10.56 12.127C9.94071 12.2539 9.22368 12.3174 8.44145 12.3174C7.39849 12.3174 6.55108 12.2222 6.32294 12.1904L6.15997 12.4762C6.4859 12.5397 7.33331 12.6349 8.44145 12.6349C9.28886 12.6031 10.1037 12.5397 10.8859 12.4444Z" fill="#595857"/>
<path d="M9.35406 10.2857C9.38666 10.2539 9.41925 10.2539 9.45184 10.2222C9.41925 10.1904 9.38666 10.1587 9.35406 10.1587C9.35406 10.1904 9.35406 10.2222 9.35406 10.2857Z" fill="#595857"/>
<path d="M10.8533 11.4286L10.2341 10.8254C10.2015 11.1112 10.1689 11.3651 10.2015 11.4921L10.7556 12.0635C10.7882 11.8413 10.8533 11.5556 10.8533 11.4286Z" fill="#595857"/>
<path d="M10.1037 13.0792C10.3318 13.0792 10.5926 13.0792 10.8207 13.0792L10.9185 12.603C10.6578 12.6348 10.3644 12.6665 10.0711 12.6983V13.0792H10.1037Z" fill="#595857"/>
<path d="M9.35406 10.6031L9.45184 10.6983L9.48444 10.6666C9.48444 10.5713 9.48444 10.4761 9.48444 10.4126C9.45184 10.4443 9.38666 10.4443 9.35406 10.4761C9.35406 10.5078 9.35406 10.5713 9.35406 10.6031Z" fill="#595857"/>
<path d="M12.7763 15.111C12.8415 15.0475 12.9393 14.984 13.037 14.9205C13.037 14.7935 13.037 14.6348 13.037 14.4761C12.9067 14.5396 12.8089 14.5713 12.7111 14.6348C12.7111 14.7935 12.7437 14.9523 12.7763 15.111Z" fill="#595857"/>
<path d="M13.0696 14.127C13.0045 14.0635 12.9393 14.0318 12.8741 13.9683C12.8089 14 12.7763 14 12.7111 14.0318C12.6785 14.1587 12.6785 14.3175 12.6785 14.4445C12.7763 14.381 12.9067 14.3175 13.037 14.2857C13.0696 14.2222 13.0696 14.1587 13.0696 14.127Z" fill="#595857"/>
<path d="M13.0696 15.1111C13.037 15.1428 12.9719 15.1746 12.9393 15.2063C13.0045 15.2381 13.037 15.2698 13.1022 15.3016C13.0696 15.2381 13.0696 15.1746 13.0696 15.1111Z" fill="#595857"/>
<path d="M11.4726 12.5396C11.5052 12.5396 11.5378 12.5078 11.5378 12.5078C11.5378 12.4761 11.5052 12.4761 11.5052 12.4443C11.5052 12.4761 11.5052 12.5078 11.4726 12.5396Z" fill="#595857"/>
<path d="M12.0919 14.5396C12.0919 14.4761 12.0593 14.4126 12.0593 14.3174C12.0267 14.3491 11.9941 14.3809 11.9289 14.3809C11.9941 14.4444 12.0267 14.5079 12.0919 14.5396Z" fill="#595857"/>
<path d="M11.7659 13.8094C11.7659 13.9681 11.7659 14.1268 11.7985 14.2856C11.8637 14.2221 11.9615 14.1903 12.0593 14.1268C12.0593 13.9681 12.0919 13.8094 12.1244 13.6506C11.9941 13.6824 11.8963 13.7459 11.7659 13.8094Z" fill="#595857"/>
<path d="M11.7007 13.0475C11.7333 12.9205 11.7659 12.8252 11.7659 12.7618C11.7333 12.73 11.7007 12.6665 11.6682 12.6348C11.5704 12.6665 11.5052 12.6983 11.44 12.73C11.4074 12.8887 11.3748 13.0792 11.3422 13.2062C11.44 13.1744 11.5704 13.111 11.7007 13.0475Z" fill="#595857"/>
<path d="M12.1896 13.3016C12.1244 13.2381 12.0919 13.1746 12.0267 13.1111C11.9615 13.1428 11.8963 13.1428 11.8311 13.1746C11.7985 13.3016 11.7659 13.4603 11.7659 13.5873C11.8963 13.5238 12.0267 13.492 12.1244 13.4285C12.1896 13.3968 12.1896 13.3333 12.1896 13.3016Z" fill="#595857"/>
<path d="M0.977783 11.2381L1.30371 11.1111L1.27112 11.0476L0.977783 11.2381Z" fill="#595857"/>
<path d="M11.0163 11.6506C10.9837 11.8411 10.9511 12.1268 10.9837 12.2856C11.0163 12.0633 11.0815 11.8729 11.0815 11.7776C11.0489 11.7459 11.0163 11.6824 11.0163 11.6506Z" fill="#595857"/>
<path d="M0.325926 8.06348L0.13037 8.09522C0.0325926 8.38094 0 8.63491 0 8.92062C0 9.71427 0.325926 10.4444 0.945185 11.1428L1.40148 10.8254C0.651852 10.0317 0.423704 9.30157 0.325926 8.85713C0.293333 8.47617 0.325926 8.22221 0.325926 8.06348Z" fill="#595857"/>
<path d="M3.97631 6.79349L3.09631 6.6665C3.06372 6.69825 2.73779 7.0792 2.67261 7.61888L3.68298 7.4919C3.71557 7.23793 3.81335 7.01571 3.97631 6.79349Z" fill="#595857"/>
<path d="M5.14964 5.80947C5.47556 5.61899 5.86668 5.46026 6.29038 5.33328L5.63853 4.22217C5.54075 4.25391 5.44297 4.25391 5.3126 4.28566L5.34519 4.88883L4.13927 5.26979L3.06371 5.07931C2.47705 5.36503 1.95556 5.71423 1.53186 6.09518L4.20445 6.47614C4.46519 6.25391 4.75853 5.99995 5.14964 5.80947Z" fill="#595857"/>
<path d="M2.47702 7.87306C2.47702 7.84132 2.47702 7.84132 2.47702 7.80957L0.52146 8.06354C0.488868 8.15878 0.456275 8.44449 0.52146 8.85719C0.586646 9.30163 0.847386 10 1.56442 10.762L3.38961 9.52386C2.80294 8.98417 2.50961 8.44449 2.47702 7.87306Z" fill="#595857"/>
<path d="M1.72742 7.71416L2.47705 7.61892C2.50964 7.14273 2.77038 6.76178 2.86816 6.60305L2.31408 6.50781C2.21631 6.66654 1.89038 7.07924 1.72742 7.71416Z" fill="#595857"/>
<path d="M3.65039 7.68237L2.67261 7.80936C2.67261 7.8411 2.67261 7.8411 2.67261 7.87285C2.7052 8.41253 2.99853 8.92047 3.55261 9.4284L4.13927 9.04745C3.81335 8.6665 3.65039 8.2538 3.65039 7.8411C3.65039 7.74587 3.65039 7.71412 3.65039 7.68237Z" fill="#595857"/>
<path d="M3.91113 1.11105L3.87853 0.349144L3.09631 0.253906V0.412636L2.93335 0.444382V0.920573L3.91113 1.11105Z" fill="#595857"/>
<path d="M4.20445 9.71424V9.17456L1.7926 10.7936L4.20445 9.71424Z" fill="#595857"/>
<path d="M3.97631 3.0157V2.88872L2.99854 2.69824L3.03113 2.82523L3.97631 3.0157Z" fill="#595857"/>
<path d="M3.94372 2.06331V1.93633L2.96594 1.74585V1.87283L3.94372 2.06331Z" fill="#595857"/>
<path d="M4.0415 5.07941V5.01592L3.09631 4.82544V4.92068L4.0415 5.07941Z" fill="#595857"/>
<path d="M3.94372 2.38094V2.25395L2.99854 2.06348V2.19046L3.94372 2.38094Z" fill="#595857"/>
<path d="M2.96594 1.11108V1.23807L3.91113 1.42854V1.26981L2.96594 1.11108Z" fill="#595857"/>
<path d="M3.91113 1.74593V1.5872L2.96594 1.42847V1.55545L3.91113 1.74593Z" fill="#595857"/>
<path d="M3.94372 2.69832V2.57134L2.99854 2.38086V2.50784L3.94372 2.69832Z" fill="#595857"/>
<path d="M4.00891 4.28572V4.15874L3.06372 3.96826V4.12699L4.00891 4.28572Z" fill="#595857"/>
<path d="M4.0415 4.57136L4.00891 4.47612L3.06372 4.28564V4.41263L4.0415 4.57136Z" fill="#595857"/>
<path d="M4.0415 4.82526V4.76177L3.06372 4.57129L3.09631 4.66653L4.0415 4.82526Z" fill="#595857"/>
<path d="M4.00891 3.9681V3.84111L3.03113 3.65063L3.06372 3.80936L4.00891 3.9681Z" fill="#595857"/>
<path d="M3.97631 3.33333V3.1746L3.03113 3.01587V3.14285L3.97631 3.33333Z" fill="#595857"/>
<path d="M4.00891 3.65071L3.97631 3.52373L3.03113 3.33325V3.46024L4.00891 3.65071Z" fill="#595857"/>
<path d="M2.11852 6.50784L1.23852 6.38086C0.749631 6.85705 0.391112 7.36499 0.195557 7.90467L1.56445 7.74594C1.66222 7.14276 1.95556 6.73007 2.11852 6.50784Z" fill="#595857"/>
<path d="M11.603 14.0635C11.603 14 11.603 13.9365 11.603 13.873C11.5704 13.9048 11.5378 13.9048 11.5052 13.9365L11.5378 13.9683C11.5378 14 11.5704 14.0318 11.603 14.0635Z" fill="#595857"/>
<path d="M11.6682 13.2698C11.5378 13.3333 11.44 13.3968 11.3422 13.4603C11.3422 13.5555 11.3422 13.6507 11.3422 13.7142C11.3748 13.746 11.3748 13.7777 11.4074 13.8095C11.44 13.7777 11.5378 13.746 11.6356 13.6825C11.603 13.5555 11.6356 13.3968 11.6682 13.2698Z" fill="#595857"/>
<path d="M12.2548 14.9206C11.9289 14.6349 11.6356 14.3809 11.5052 14.2222L11.4726 14.3809C11.603 14.5714 12.4504 15.5555 13.363 15.9999L13.3956 15.6507C13.037 15.492 12.6785 15.2698 12.2874 14.9523C12.2874 14.9523 12.2874 14.9523 12.2548 14.9206Z" fill="#595857"/>
<path d="M11.3422 12.1904C11.277 12.2222 11.2119 12.2222 11.1467 12.2539C11.1467 12.3174 11.1467 12.4127 11.1467 12.4761V12.5396L11.0815 12.7301C11.1467 12.6984 11.1793 12.6666 11.277 12.6349C11.3096 12.4444 11.3748 12.3174 11.3748 12.2539L11.3422 12.1904Z" fill="#595857"/>
<path d="M13.2978 15.3969C13.3304 15.4286 13.363 15.4286 13.3956 15.4603L13.4282 14.8889C13.363 14.9207 13.2978 14.9524 13.2326 14.9842C13.2326 15.1429 13.2652 15.2699 13.2978 15.3969Z" fill="#595857"/>
<path d="M10.9837 13.1746C11.0163 13.2064 11.0489 13.3016 11.1141 13.3969C11.1141 13.3969 11.1467 13.3969 11.1467 13.3651C11.1467 13.2064 11.1793 13.0477 11.2119 12.8572C11.1141 12.9207 11.0489 12.9524 11.0163 12.9524L10.9837 13.1746Z" fill="#595857"/>
<path d="M13.2326 14.4126C13.2326 14.5396 13.2326 14.6983 13.2326 14.8253C13.3304 14.7618 13.3956 14.7301 13.4608 14.6983L13.4933 14.4126C13.4608 14.3809 13.4282 14.3809 13.3956 14.3491C13.3304 14.3809 13.2652 14.3809 13.2326 14.4126Z" fill="#595857"/>
<path d="M9.90814 9.01587C9.94073 9.04762 9.97333 9.04762 10.0059 9.04762C9.97333 9.04762 9.97333 9.01587 9.90814 9.01587Z" fill="#595857"/>
<path d="M10.0059 10.4126C10.0711 10.4126 10.1363 10.3809 10.2015 10.3809C10.2015 10.3491 10.2341 10.2857 10.2341 10.2539C10.1689 10.2539 10.1037 10.2539 10.0385 10.2539C10.0385 10.3174 10.0059 10.3491 10.0059 10.4126Z" fill="#595857"/>
<path d="M9.38666 9.90482C9.45184 9.87308 9.54962 9.87308 9.61481 9.84133C9.61481 9.80959 9.6474 9.77784 9.6474 9.74609C9.58221 9.74609 9.51703 9.77784 9.45184 9.77784C9.41925 9.84133 9.41925 9.87308 9.38666 9.90482Z" fill="#595857"/>
<path d="M9.84296 9.55544C9.90814 9.55544 9.97333 9.55544 10.0385 9.55544C10.0385 9.5237 10.0385 9.49195 10.0711 9.46021C10.0059 9.46021 9.94073 9.46021 9.87555 9.46021C9.87555 9.46021 9.87555 9.5237 9.84296 9.55544Z" fill="#595857"/>
<path d="M9.51703 9.26979C9.58221 9.26979 9.6474 9.26979 9.71258 9.26979C9.71258 9.23805 9.71258 9.23804 9.71258 9.2063C9.6474 9.2063 9.58221 9.2063 9.51703 9.2063C9.51703 9.2063 9.51703 9.23805 9.51703 9.26979Z" fill="#595857"/>
<path d="M9.48444 9.5872C9.54962 9.5872 9.61481 9.55545 9.67999 9.55545C9.67999 9.49196 9.67999 9.46021 9.71258 9.42847C9.6474 9.42847 9.58221 9.42847 9.51703 9.42847C9.48444 9.49196 9.48444 9.55545 9.48444 9.5872Z" fill="#595857"/>
<path d="M9.81036 9.8096C9.87555 9.8096 9.94073 9.8096 10.0059 9.77786C10.0059 9.74611 10.0059 9.71436 10.0385 9.68262C9.97333 9.68262 9.90814 9.68262 9.84296 9.68262C9.81036 9.74611 9.81036 9.77786 9.81036 9.8096Z" fill="#595857"/>
<path d="M9.71259 10.127C9.77777 10.0952 9.84296 10.0952 9.90814 10.0952C9.90814 10.0635 9.94073 10.0317 9.94073 10C9.87555 10 9.81036 10 9.74518 10.0317C9.74518 10.0635 9.74518 10.0952 9.71259 10.127Z" fill="#595857"/>
<path d="M10.3318 9.96826C10.2667 9.96826 10.2015 9.96826 10.1363 9.96826C10.1363 10 10.1037 10.0318 10.1037 10.0635C10.1689 10.0635 10.2341 10.0635 10.2993 10.0635C10.2993 10.0318 10.3318 10 10.3318 9.96826Z" fill="#595857"/>
<path d="M12.0919 11.0794C12.1896 11.0794 12.2548 11.0476 12.3526 11.0476C12.3526 10.9841 12.3526 10.9524 12.32 10.9207C12.2222 10.9207 12.157 10.9207 12.0919 10.9524C12.0919 10.9841 12.0919 11.0159 12.0919 11.0794Z" fill="#595857"/>
<path d="M9.87555 9.26979C9.94073 9.26979 10.0059 9.26979 10.0711 9.26979V9.23804C10.0059 9.23804 9.94073 9.23804 9.87555 9.2063C9.87555 9.2063 9.87555 9.23805 9.87555 9.26979Z" fill="#595857"/>
<path d="M12.0919 11.4603C12.1896 11.4603 12.2874 11.4285 12.3852 11.4285C12.3852 11.3968 12.3852 11.3968 12.3852 11.365C12.3852 11.3015 12.3852 11.2698 12.3852 11.238C12.2874 11.238 12.1896 11.2698 12.0919 11.2698C12.0919 11.3015 12.0919 11.365 12.0919 11.4603Z" fill="#595857"/>
<path d="M10.9511 11.2698C11.1141 11.1111 11.5052 10.7301 12.1244 10.5396L11.5052 10.1587C10.8533 10.2539 10.4622 10.5079 10.3318 10.6349L10.9511 11.2698Z" fill="#595857"/>
<path d="M12.0919 11.8731C12.1896 11.8731 12.32 11.8414 12.4178 11.8414C12.4178 11.7461 12.4178 11.6826 12.4178 11.5874C12.32 11.5874 12.1896 11.6191 12.0919 11.6191C12.0919 11.7144 12.0919 11.7779 12.0919 11.8731Z" fill="#595857"/>
<path d="M12.0919 10.762C12.157 10.762 12.2222 10.762 12.32 10.7302C12.32 10.6985 12.32 10.6985 12.32 10.6985C12.2222 10.7302 12.157 10.7302 12.0919 10.762Z" fill="#595857"/>
<path d="M9.35406 9.17456C9.32147 9.17456 9.28888 9.17456 9.25629 9.17456H9.22369C9.22369 9.20631 9.22369 9.23805 9.22369 9.30154C9.25629 9.30154 9.32147 9.30154 9.35406 9.30154C9.35406 9.23805 9.35406 9.20631 9.35406 9.17456Z" fill="#595857"/>
<path d="M9.12592 9.68243C9.1911 9.65068 9.22369 9.65068 9.28888 9.65068C9.28888 9.58719 9.32147 9.5237 9.32147 9.46021C9.28888 9.46021 9.22369 9.46021 9.1911 9.49195C9.15851 9.55544 9.15851 9.61894 9.12592 9.68243Z" fill="#595857"/>
<path d="M8.89783 9.52387C8.93042 9.55562 8.93042 9.55562 8.96301 9.58737C8.96301 9.55562 8.96301 9.52387 8.99561 9.52387C8.96301 9.49213 8.93042 9.52387 8.89783 9.52387Z" fill="#595857"/>
<path d="M9.0282 9.26978C8.99561 9.30152 8.96301 9.33327 8.93042 9.33327C8.96301 9.33327 8.99561 9.33327 9.0282 9.33327C9.0282 9.30152 9.0282 9.26978 9.0282 9.26978Z" fill="#595857"/>
<path d="M9.22373 8.95243C9.45188 8.85719 9.64744 8.82544 9.8104 8.82544C9.97336 8.82544 10.0711 8.88894 10.1037 8.88894C10.1363 8.85719 10.1363 8.82544 10.1363 8.7937C10.0385 8.53973 9.74521 8.28576 9.32151 8.09528C8.86521 7.90481 8.27855 7.80957 7.69188 7.80957C7.10521 7.80957 6.51855 7.90481 6.06225 8.09528C5.63855 8.28576 5.34521 8.50798 5.24744 8.7937C5.47558 9.36513 6.51855 9.77782 7.69188 9.77782C8.01781 9.77782 8.31114 9.74608 8.60447 9.68259V9.52386C8.63707 9.49211 8.63707 9.2064 9.22373 8.95243Z" fill="#595857"/>
<path d="M7.72447 7.6507C8.83262 7.6507 9.8104 7.9999 10.2015 8.50784C10.1037 7.87292 9.02818 7.39673 7.72447 7.39673C6.42077 7.39673 5.34521 7.90467 5.24744 8.50784C5.63855 7.9999 6.61633 7.6507 7.72447 7.6507Z" fill="#595857"/>
<path d="M10.3644 9.80959C10.3644 9.77784 10.3644 9.74609 10.397 9.74609C10.3318 9.74609 10.2667 9.74609 10.2015 9.74609C10.2015 9.77784 10.2015 9.80959 10.1689 9.80959C10.2341 9.80959 10.2993 9.80959 10.3644 9.80959Z" fill="#595857"/>
<path d="M11.0489 9.84132C10.9837 9.84132 10.9511 9.80957 10.8859 9.80957C10.8859 9.84132 10.8859 9.87306 10.8859 9.90481C10.9511 9.90481 10.9837 9.93655 11.0489 9.93655C11.0489 9.87306 11.0489 9.84132 11.0489 9.84132Z" fill="#595857"/>
<path d="M11.0163 10.127C11.0163 10.0952 11.0163 10.0952 11.0163 10.127C10.9837 10.0952 10.9185 10.0635 10.8533 10.0635C10.8533 10.0952 10.8533 10.0952 10.8533 10.127C10.9185 10.127 10.9511 10.1587 10.9837 10.1587C10.9837 10.127 10.9837 10.127 11.0163 10.127Z" fill="#595857"/>
<path d="M10.5926 9.58718C10.6578 9.58718 10.6904 9.58718 10.7556 9.61893V9.58718L10.723 9.52369C10.6904 9.52369 10.6578 9.52369 10.6252 9.49194C10.6252 9.52369 10.5926 9.55544 10.5926 9.58718Z" fill="#595857"/>
<path d="M11.2119 9.93652V9.96827C11.2444 9.96827 11.277 10 11.277 10C11.277 9.96827 11.2444 9.96827 11.2119 9.93652Z" fill="#595857"/>
<path d="M10.6252 10.2539C10.56 10.2539 10.4948 10.2539 10.4296 10.2539C10.4296 10.2857 10.397 10.3174 10.397 10.3809C10.4296 10.3809 10.4622 10.3809 10.4622 10.3809C10.5274 10.3174 10.56 10.2857 10.6252 10.2539Z" fill="#595857"/>
<path d="M10.2341 9.55545C10.2993 9.55545 10.3644 9.55545 10.4296 9.55545C10.4296 9.5237 10.4296 9.49196 10.4622 9.46021C10.397 9.46021 10.3318 9.42847 10.2667 9.42847C10.2341 9.49196 10.2341 9.5237 10.2341 9.55545Z" fill="#595857"/>
<path d="M10.2667 9.26978C10.2993 9.26978 10.3318 9.26978 10.3644 9.26978C10.3644 9.26978 10.3318 9.26978 10.3318 9.23804C10.3318 9.26978 10.2993 9.26978 10.2667 9.26978Z" fill="#595857"/>
<path d="M10.3318 9.17458C10.2993 9.14284 10.2341 9.11109 10.2015 9.07935V9.14284H10.2341C10.2667 9.14284 10.2993 9.17458 10.3318 9.17458Z" fill="#595857"/>
<path d="M10.6904 10.0317C10.6252 10.0317 10.56 10 10.5274 10C10.5274 10.0317 10.5274 10.0635 10.4948 10.0635C10.56 10.0635 10.6252 10.0635 10.6578 10.0952C10.6578 10.0635 10.6904 10.0317 10.6904 10.0317Z" fill="#595857"/>
<path d="M10.5926 9.39674C10.6578 9.39674 10.6904 9.42849 10.723 9.42849C10.6578 9.39674 10.6252 9.365 10.5926 9.33325V9.39674Z" fill="#595857"/>
<path d="M10.723 9.77784C10.6578 9.77784 10.6252 9.77784 10.56 9.74609C10.56 9.77784 10.56 9.80959 10.5274 9.80959C10.5926 9.80959 10.6252 9.80959 10.6904 9.84133C10.723 9.80959 10.723 9.77784 10.723 9.77784Z" fill="#595857"/>
<path d="M14.1126 13.4285C14.2756 13.3968 14.4059 13.3968 14.5363 13.365C14.5363 13.3015 14.5689 13.2381 14.5689 13.1746C14.4385 13.1746 14.2756 13.1746 14.1452 13.2063C14.1452 13.2698 14.1126 13.365 14.1126 13.4285Z" fill="#595857"/>
<path d="M13.5911 12.6031C13.7215 12.6031 13.8845 12.5714 14.0148 12.5714C14.0148 12.4761 14.0148 12.4126 14.0148 12.3174C13.8845 12.3174 13.7541 12.3174 13.6237 12.3174C13.6237 12.4126 13.5911 12.5079 13.5911 12.6031Z" fill="#595857"/>
<path d="M14.243 11.4602C14.1778 11.4285 14.1452 11.3967 14.08 11.3967C14.08 11.4285 14.08 11.4285 14.08 11.4602C14.1452 11.4285 14.1778 11.4285 14.243 11.4602Z" fill="#595857"/>
<path d="M14.1452 11.8096C14.2756 11.8096 14.3734 11.8096 14.4711 11.8414C14.4711 11.7779 14.4385 11.7144 14.4385 11.6826C14.3408 11.6826 14.2104 11.6509 14.1126 11.6509C14.1452 11.6826 14.1452 11.7461 14.1452 11.8096Z" fill="#595857"/>
<path d="M13.6237 12.1587C13.6563 12.1587 13.6889 12.1587 13.7215 12.1587C13.8193 12.1587 13.9171 12.1587 14.0148 12.1587C14.0148 12.0952 14.0148 12.0318 14.0148 11.9683C13.8845 11.9683 13.7867 11.9683 13.6563 11.9683C13.6237 12.0318 13.6237 12.0952 13.6237 12.1587Z" fill="#595857"/>
<path d="M14.5689 12.3809C14.4385 12.3809 14.3082 12.3491 14.1778 12.3491C14.1778 12.4126 14.1778 12.5079 14.1778 12.5713C14.3082 12.5713 14.4385 12.5713 14.5689 12.6031C14.5689 12.5396 14.5689 12.4444 14.5689 12.3809Z" fill="#595857"/>
<path d="M14.1778 12.1587C14.3082 12.1587 14.4059 12.1587 14.5363 12.1905C14.5363 12.127 14.5037 12.0635 14.5037 12C14.4059 12 14.2756 12 14.1452 11.9683C14.1778 12.0318 14.1778 12.0952 14.1778 12.1587Z" fill="#595857"/>
<path d="M14.4059 13.5557C14.2756 13.5557 14.1778 13.5874 14.0474 13.6192C14.0148 13.6826 14.0148 13.7461 13.9822 13.8096C14.1452 13.7461 14.2756 13.6509 14.4059 13.5557Z" fill="#595857"/>
<path d="M13.9171 13.4603C13.9496 13.365 13.9496 13.3015 13.9496 13.2063C13.7867 13.2063 13.6237 13.238 13.4608 13.2698C13.4282 13.365 13.4282 13.492 13.3956 13.5873C13.5911 13.5555 13.7541 13.492 13.9171 13.4603Z" fill="#595857"/>
<path d="M14.0148 12.762C13.8845 12.762 13.7215 12.762 13.5585 12.7937C13.5585 12.8889 13.5259 13.0159 13.4933 13.1112C13.6563 13.0794 13.8193 13.0794 13.9496 13.0477C14.0148 12.9524 14.0148 12.8572 14.0148 12.762Z" fill="#595857"/>
<path d="M13.6237 11.7779C13.7541 11.7779 13.8519 11.7779 13.9822 11.7779C13.9822 11.7144 13.9496 11.6509 13.9496 11.5874C13.8193 11.5874 13.7215 11.5557 13.6237 11.5557C13.6237 11.6509 13.6237 11.7144 13.6237 11.7779Z" fill="#595857"/>
<path d="M13.9171 11.4285C13.9171 11.365 13.8845 11.3015 13.8845 11.2698L13.7867 11.238C13.7541 11.238 13.6889 11.238 13.5585 11.2063C13.5585 11.2698 13.5911 11.3333 13.5911 11.3968C13.6889 11.3968 13.8193 11.3968 13.9171 11.4285Z" fill="#595857"/>
<path d="M15.2859 12.6666C15.3837 12.6983 15.5141 12.6983 15.6119 12.73C15.6119 12.6666 15.5793 12.5713 15.5793 12.5078C15.4815 12.4761 15.3837 12.4761 15.2859 12.4443C15.2859 12.5396 15.2859 12.6031 15.2859 12.6666Z" fill="#595857"/>
<path d="M15.3185 13.0159C15.4163 13.0159 15.5467 13.0477 15.6445 13.0477C15.6445 13.0159 15.6445 12.9524 15.6445 12.9207C15.5467 12.8889 15.4163 12.8889 15.3185 12.8572C15.3185 12.9207 15.3185 12.9842 15.3185 13.0159Z" fill="#595857"/>
<path d="M15.9052 12.9841C15.8726 12.9841 15.84 12.9524 15.8074 12.9524C15.8074 12.9841 15.8074 12.9841 15.8074 13.0159C15.84 13.0159 15.8726 13.0159 15.9052 12.9841Z" fill="#595857"/>
<path d="M16.4267 12.9524C16.4593 12.9842 16.4593 12.9842 16.4267 12.9524C16.3615 12.889 16.2963 12.7937 16.1985 12.7302C16.1985 12.7937 16.2311 12.8255 16.2311 12.889C16.3615 12.9207 16.4267 12.9524 16.4267 12.9524Z" fill="#595857"/>
<path d="M15.5141 12.3175C15.4815 12.254 15.4815 12.1905 15.4815 12.1587C15.4163 12.127 15.3511 12.0635 15.2859 12.0317C15.2534 12.0317 15.2208 12.0317 15.1556 12.0317C15.1882 12.0952 15.1882 12.1905 15.1882 12.254C15.3185 12.2857 15.4163 12.3175 15.5141 12.3175Z" fill="#595857"/>
<path d="M16.3615 13.0476C16.3289 13.0476 16.2637 13.0159 16.1985 12.9841V13.0476C16.2311 13.0476 16.2963 13.0476 16.3615 13.0476Z" fill="#595857"/>
<path d="M16.0356 12.8573C16.003 12.762 16.003 12.6668 15.9704 12.6033C15.9052 12.5715 15.8074 12.5715 15.7422 12.5398C15.7422 12.635 15.7748 12.6985 15.7748 12.762C15.8726 12.7938 15.9704 12.8255 16.0356 12.8573Z" fill="#595857"/>
<path d="M14.7319 13.365C14.7971 13.365 14.8297 13.365 14.8297 13.365C14.8948 13.3333 14.9926 13.3015 15.0904 13.2698H15.123V13.238C14.9926 13.238 14.8622 13.238 14.7319 13.238C14.7319 13.238 14.7319 13.3015 14.7319 13.365Z" fill="#595857"/>
<path d="M14.96 11.8414C14.8622 11.7779 14.7645 11.7144 14.6667 11.6509C14.6667 11.6826 14.6993 11.7461 14.6993 11.8096C14.7971 11.8414 14.8622 11.8414 14.96 11.8414Z" fill="#595857"/>
<path d="M14.7319 12.2222C14.8297 12.2222 14.96 12.254 15.0578 12.254C15.0578 12.1905 15.0252 12.0952 15.0252 12.0317C14.9274 12.0317 14.8297 12 14.7319 12C14.7319 12.0635 14.7319 12.1587 14.7319 12.2222Z" fill="#595857"/>
<path d="M14.6341 11.5874C14.6015 11.5557 14.5689 11.5557 14.5363 11.5239V11.5874H14.6341Z" fill="#595857"/>
<path d="M14.7645 13.0159C14.8948 13.0159 15.0252 13.0159 15.123 13.0159C15.123 12.9524 15.123 12.8889 15.123 12.8254C14.9926 12.7937 14.8948 12.7937 14.7645 12.7937C14.7645 12.8572 14.7645 12.9207 14.7645 13.0159Z" fill="#595857"/>
<path d="M14.7645 12.6031C14.8948 12.6031 14.9926 12.6348 15.0904 12.6348C15.0904 12.5713 15.0578 12.4761 15.0578 12.4126C14.96 12.4126 14.8622 12.3809 14.7319 12.3809C14.7645 12.4761 14.7645 12.5396 14.7645 12.6031Z" fill="#595857"/>
<path d="M14.6015 12.762C14.4711 12.762 14.3408 12.762 14.2104 12.7302C14.2104 12.8255 14.2104 12.9207 14.1778 13.0159C14.3082 13.0159 14.4385 13.0159 14.6015 12.9842C14.6015 12.9207 14.6015 12.8572 14.6015 12.762Z" fill="#595857"/>
<path d="M12.9067 10.7937C12.9393 10.7937 12.9393 10.7937 12.9719 10.7937C12.9393 10.762 12.8741 10.762 12.8415 10.762V10.7937H12.9067Z" fill="#595857"/>
<path d="M11.5378 11.0476C11.5052 11.0476 11.5052 11.0476 11.5378 11.0476C11.4726 11.1111 11.4074 11.1428 11.3422 11.2063V11.2381C11.4074 11.2063 11.4726 11.2063 11.5378 11.1746C11.5378 11.1111 11.5378 11.0794 11.5378 11.0476Z" fill="#595857"/>
<path d="M11.44 12.0001C11.4726 11.9048 11.5052 11.8096 11.5052 11.7461C11.4074 11.7778 11.3422 11.7778 11.3096 11.8096C11.3422 11.8413 11.3748 11.9366 11.44 12.0001Z" fill="#595857"/>
<path d="M11.5052 11.5555C11.5052 11.492 11.5052 11.4285 11.5052 11.365C11.44 11.3967 11.3748 11.3967 11.3096 11.4285C11.3096 11.492 11.3096 11.5555 11.3096 11.619C11.3748 11.5872 11.44 11.5555 11.5052 11.5555Z" fill="#595857"/>
<path d="M11.8963 12.0635C11.7985 12.0952 11.7007 12.0952 11.603 12.127C11.603 12.1587 11.603 12.1905 11.5704 12.2222C11.603 12.2857 11.6682 12.3492 11.7333 12.4444C11.7659 12.4444 11.7985 12.4127 11.8637 12.4127C11.8637 12.3174 11.8963 12.1905 11.8963 12.0635Z" fill="#595857"/>
<path d="M12.3852 13.2381C12.4178 13.2699 12.4504 13.3016 12.483 13.3334C12.5482 13.3016 12.6459 13.2699 12.7437 13.2699C12.7763 13.1429 12.8089 13.0159 12.8415 12.8889C12.7111 12.9207 12.6133 12.9524 12.483 12.9842C12.4504 13.0476 12.4504 13.1429 12.4178 13.2064L12.3852 13.2381Z" fill="#595857"/>
<path d="M11.6356 11.9366C11.7333 11.9049 11.7985 11.9049 11.8963 11.8731C11.8963 11.7779 11.8963 11.7144 11.8963 11.6191C11.8311 11.6191 11.7333 11.6509 11.6682 11.6509C11.6682 11.7779 11.6682 11.8731 11.6356 11.9366Z" fill="#595857"/>
<path d="M12.3852 12.4443C12.32 12.4443 12.2874 12.4761 12.2222 12.4761C12.157 12.5078 12.0919 12.5078 12.0267 12.5396C12.0267 12.6031 11.9941 12.6983 11.9941 12.7618C12.0267 12.8253 12.0593 12.857 12.1245 12.9205C12.1896 12.8888 12.2548 12.857 12.3526 12.857C12.32 12.6983 12.3526 12.5713 12.3852 12.4443Z" fill="#595857"/>
<path d="M11.9289 11.1111C11.9289 11.0476 11.9289 11.0159 11.9289 10.9841C11.8637 10.9841 11.7985 11.0159 11.7333 11.0159C11.7333 11.0476 11.7333 11.1111 11.7333 11.1429C11.7659 11.1111 11.8311 11.1111 11.9289 11.1111Z" fill="#595857"/>
<path d="M11.9289 11.4603C11.9289 11.3968 11.9289 11.3333 11.9289 11.2698C11.8637 11.2698 11.7985 11.3015 11.7333 11.3015C11.7333 11.365 11.7333 11.4285 11.7333 11.492C11.7659 11.492 11.8311 11.492 11.9289 11.4603Z" fill="#595857"/>
<path d="M13.6889 14.0636C13.6889 14.0636 13.7215 14.0318 13.7541 14.0318C13.7867 13.9048 13.8519 13.7779 13.8845 13.6509C13.7215 13.6826 13.5259 13.7461 13.363 13.7779C13.3304 13.8731 13.2978 13.9683 13.2652 14.0318C13.2978 14.0636 13.363 14.0953 13.3956 14.1271C13.5585 14.1271 13.6563 14.0953 13.6889 14.0636Z" fill="#595857"/>
<path d="M13.4282 12.3491C13.2978 12.3491 13.2 12.3491 13.0696 12.3809C13.0696 12.4761 13.037 12.5713 13.037 12.6983C13.1674 12.6666 13.2978 12.6666 13.3956 12.6348C13.4282 12.5079 13.4282 12.4126 13.4282 12.3491Z" fill="#595857"/>
<path d="M12.9393 13.2064C13.0696 13.1747 13.2 13.1429 13.3304 13.1112C13.363 12.9842 13.363 12.8889 13.3956 12.762C13.2652 12.762 13.1348 12.7937 13.0045 12.8255C13.0045 12.9524 12.9719 13.0794 12.9393 13.2064Z" fill="#595857"/>
<path d="M12.9067 11.8096C12.9067 11.7144 12.9067 11.6509 12.9067 11.5874C12.8089 11.5874 12.6785 11.5874 12.5807 11.5874C12.5807 11.6509 12.5807 11.7461 12.5807 11.8414C12.7111 11.8096 12.8089 11.8096 12.9067 11.8096Z" fill="#595857"/>
<path d="M12.9067 11.9683C12.7763 11.9683 12.6785 11.9683 12.5807 12C12.5807 12.0952 12.5807 12.1587 12.5807 12.254C12.6785 12.2222 12.8089 12.2222 12.9067 12.2222C12.9067 12.127 12.9067 12.0318 12.9067 11.9683Z" fill="#595857"/>
<path d="M13.2978 13.3015C13.1674 13.3333 13.0045 13.365 12.8741 13.3968C12.8415 13.492 12.8415 13.5555 12.8089 13.6507C12.8415 13.6825 12.8741 13.7142 12.9067 13.746C13.0045 13.7142 13.1022 13.6825 13.2 13.6507C13.2326 13.5237 13.2652 13.4285 13.2978 13.3015Z" fill="#595857"/>
<path d="M12.5482 11.2063C12.5482 11.238 12.5482 11.3015 12.5482 11.3333C12.5482 11.365 12.5482 11.365 12.5482 11.3968C12.6459 11.3968 12.7437 11.3968 12.8741 11.3968C12.8741 11.3333 12.8415 11.2698 12.8415 11.2063C12.7437 11.2063 12.6459 11.2063 12.5482 11.2063Z" fill="#595857"/>
<path d="M13.1022 12.1905C13.2326 12.1905 13.3304 12.1587 13.4608 12.1587C13.4608 12.0952 13.4608 12.0318 13.4608 11.9683C13.3304 11.9683 13.2326 11.9683 13.1022 11.9683C13.1022 12.0318 13.1022 12.0952 13.1022 12.1905Z" fill="#595857"/>
<path d="M12.4178 12C12.2874 12 12.1896 12.0317 12.0919 12.0317C12.0919 12.127 12.0593 12.254 12.0593 12.3492C12.0919 12.3492 12.1245 12.3175 12.1896 12.3175C12.2548 12.2857 12.32 12.2857 12.4178 12.2857C12.3852 12.1905 12.4178 12.0952 12.4178 12Z" fill="#595857"/>
<path d="M13.0045 11.0159C13.1023 11.0159 13.2 11.0159 13.3304 11.0159C13.2326 10.9842 13.1348 10.9207 13.0371 10.8889C13.0371 10.8889 13.0371 10.8889 13.0045 10.8889C12.9719 10.9524 13.0045 10.9842 13.0045 11.0159Z" fill="#595857"/>
<path d="M13.1348 13.8413C13.1022 13.8413 13.0696 13.8731 13.037 13.8731C13.0696 13.9048 13.0696 13.9048 13.1022 13.9365C13.1348 13.9048 13.1348 13.8731 13.1348 13.8413Z" fill="#595857"/>
<path d="M12.8089 11.0159C12.8089 10.9842 12.7763 10.9207 12.7763 10.8889C12.7111 10.8889 12.6133 10.8889 12.5156 10.8889C12.5156 10.9207 12.5156 10.9842 12.5482 11.0159C12.6133 11.0159 12.7111 11.0159 12.8089 11.0159Z" fill="#595857"/>
<path d="M12.9067 12.3809C12.7763 12.3809 12.6785 12.4126 12.5807 12.4126C12.5807 12.5396 12.5482 12.6348 12.5156 12.7618C12.6459 12.7301 12.7437 12.6983 12.8741 12.6666C12.8741 12.6031 12.8741 12.4761 12.9067 12.3809Z" fill="#595857"/>
<path d="M13.0696 11.3968H13.1022C13.2 11.3968 13.2978 11.3968 13.3956 11.3968C13.3956 11.3333 13.3956 11.2698 13.363 11.2063C13.2326 11.2063 13.1348 11.2063 13.0045 11.2063C13.037 11.2698 13.0696 11.3333 13.0696 11.3968Z" fill="#595857"/>
<path d="M13.0696 11.5557C13.0696 11.6192 13.0696 11.7144 13.0696 11.7779C13.2 11.7779 13.2978 11.7779 13.4282 11.7779C13.4282 11.7144 13.4282 11.6192 13.4282 11.5557C13.3304 11.5557 13.2 11.5557 13.0696 11.5557Z" fill="#595857"/>
<path d="M5.83411 4.19043L6.48596 5.26979L5.83411 4.19043Z" fill="#595857"/>
<path d="M6.61633 5.42848L6.55115 5.46023H6.51855L6.58374 6.82531C6.68152 6.79356 6.7793 6.79356 6.87707 6.76182L6.84448 5.36499C6.7467 5.39674 6.68152 5.39674 6.61633 5.42848Z" fill="#595857"/>
<path d="M7.00745 5.33327L7.10522 6.73009C7.23559 6.69835 7.33337 6.69835 7.43115 6.69835L7.36596 5.26978C7.23559 5.30152 7.10522 5.33327 7.00745 5.33327Z" fill="#595857"/>
<path d="M6.06226 5.58718L6.12744 6.92051C6.22522 6.88877 6.323 6.85702 6.38818 6.85702L6.323 5.49194C6.25781 5.52369 6.16003 5.55544 6.06226 5.58718Z" fill="#595857"/>
<path d="M4.0741 1.07934L5.01928 0.825374L4.98669 0.0952148L4.0415 0.349183L4.0741 1.07934Z" fill="#595857"/>
<path d="M4.00891 0.190476L4.59557 0.031746L4.17187 0L3.48743 0.126984L4.00891 0.190476Z" fill="#595857"/>
<path d="M3.81335 7.80961C3.81335 7.8731 3.81335 7.93659 3.81335 7.96834C4.36743 7.55564 5.11706 7.20643 5.96447 6.98421L5.89928 5.65088C4.59558 6.15882 3.81335 6.95247 3.81335 7.80961Z" fill="#595857"/>
<path d="M13.1348 8.66672C13.1674 8.69847 13.1674 8.69847 13.2 8.73022L13.2978 6.82546C13.2652 6.79371 13.2652 6.76196 13.2326 6.76196L13.1348 8.66672Z" fill="#595857"/>
<path d="M13.2326 6.28564L13.0696 6.34914C13.0696 6.34914 13.0696 6.34914 13.1022 6.34914L13.2326 6.28564C13.2652 6.31739 13.2326 6.31739 13.2326 6.28564Z" fill="#595857"/>
<path d="M13.4608 6.44434L13.2326 6.50783C13.2652 6.53957 13.2978 6.57132 13.3304 6.57132L13.5585 6.50783C13.5259 6.47608 13.4933 6.47608 13.4608 6.44434Z" fill="#595857"/>
<path d="M12.8415 8.41258C12.8741 8.44433 12.9393 8.47607 12.9719 8.50782L13.0696 6.57131C13.037 6.53957 13.0045 6.50782 12.9393 6.47607L12.8415 8.41258Z" fill="#595857"/>
<path d="M12.2874 7.96823C12.32 7.99998 12.3852 8.03172 12.4178 8.06347L12.483 6.15871C12.4504 6.12696 12.4178 6.09521 12.3526 6.09521L12.2874 7.96823Z" fill="#595857"/>
<path d="M13.3956 8.92063C13.4282 8.95238 13.4608 8.98412 13.4608 9.01587L13.5911 7.1746C13.5585 7.11111 13.5259 7.07936 13.4933 7.01587L13.3956 8.92063Z" fill="#595857"/>
<path d="M12.5807 8.19041C12.6133 8.22216 12.6459 8.22216 12.6785 8.25391L12.7763 6.34914C12.7437 6.3174 12.7111 6.28565 12.6459 6.25391L12.5807 8.19041Z" fill="#595857"/>
<path d="M18.3497 9.04761L18.3171 10.3809L22 11.0159C22.0652 10.6032 22.0326 10.1587 21.9023 10.0952C21.7067 9.96824 19.9467 9.46031 18.3497 9.04761Z" fill="#595857"/>
<path d="M13.9822 6.88893C13.9496 6.85719 13.9496 6.85719 13.9171 6.82544L13.6237 6.88893C13.6237 6.88893 13.6563 6.92068 13.6563 6.95242L13.9822 6.88893Z" fill="#595857"/>
<path d="M11.9289 7.7778C11.9941 7.80955 12.0593 7.84129 12.0919 7.87304L12.1896 6.00002C12.1245 5.96828 12.0919 5.93653 12.0267 5.90479L11.9289 7.7778Z" fill="#595857"/>
<path d="M13.9822 9.55552L18.1541 10.3492L18.1867 8.9841L14.0474 8.12695L13.9822 9.55552Z" fill="#595857"/>
<path d="M14.3082 7.23804L13.8845 7.33328L14.3408 7.30153C14.3408 7.26978 14.3408 7.26978 14.3082 7.23804Z" fill="#595857"/>
<path d="M13.6237 9.17449C13.6889 9.23798 13.7541 9.33322 13.7867 9.36497L13.8519 7.99989C13.8519 7.80941 13.8193 7.65068 13.7215 7.46021L13.6237 9.17449Z" fill="#595857"/>
<path d="M10.9185 7.23798C10.9837 7.26972 11.0489 7.30147 11.1141 7.33321L11.1467 5.55544C11.0815 5.52369 11.0163 5.52369 10.9511 5.49194L10.9185 7.23798Z" fill="#595857"/>
<path d="M9.41925 6.82535C9.48444 6.82535 9.54962 6.85709 9.61481 6.85709V5.23804C9.54962 5.23804 9.45184 5.23804 9.38666 5.2063L9.41925 6.82535Z" fill="#595857"/>
<path d="M8.99561 5.17456L9.0282 6.73012C9.09338 6.73012 9.19116 6.76186 9.25635 6.76186V5.17456C9.15857 5.17456 9.06079 5.17456 8.99561 5.17456Z" fill="#595857"/>
<path d="M9.81036 5.23804V6.88883C9.87555 6.92058 9.94073 6.92058 10.0059 6.95232V5.26978C9.94073 5.26978 9.87555 5.26978 9.81036 5.23804Z" fill="#595857"/>
<path d="M8.53931 4.34912L8.27856 4.98404C8.40893 4.98404 8.5719 4.98404 8.70227 4.98404C9.02819 4.98404 9.35412 5.01579 9.68005 5.04753L10.2341 4.5396C9.71264 4.44436 9.12597 4.38087 8.53931 4.34912Z" fill="#595857"/>
<path d="M8.14819 5.20631H8.01782L8.08301 6.66662H8.18079C8.24597 6.66662 8.31116 6.66662 8.34375 6.66662L8.31116 5.17456C8.27856 5.17456 8.21338 5.17456 8.14819 5.20631Z" fill="#595857"/>
<path d="M8.53931 5.17456L8.5719 6.69837C8.66968 6.69837 8.76745 6.73012 8.86523 6.73012L8.80005 5.17456C8.70227 5.17456 8.60449 5.17456 8.53931 5.17456Z" fill="#595857"/>
<path d="M10.1689 5.30151V6.98405C10.2341 7.0158 10.2993 7.0158 10.3644 7.04755V5.33326C10.2993 5.33326 10.2341 5.33326 10.1689 5.30151Z" fill="#595857"/>
<path d="M7.52893 5.23805L7.59412 6.66662C7.69189 6.66662 7.78967 6.66662 7.92004 6.63488L7.85486 5.17456C7.75708 5.23805 7.62671 5.23805 7.52893 5.23805Z" fill="#595857"/>
<path d="M10.56 7.11102C10.6252 7.14277 10.6578 7.14277 10.723 7.17451L10.7556 5.42848C10.6904 5.39674 10.6252 5.39674 10.56 5.36499V7.11102Z" fill="#595857"/>
<path d="M11.277 7.42866C11.3422 7.46041 11.3748 7.49216 11.44 7.49216L11.4726 5.68263C11.4074 5.65089 11.3748 5.65089 11.3096 5.61914L11.277 7.42866Z" fill="#595857"/>
<path d="M9.94073 5.07938L10.1037 4.92065L9.94073 5.07938Z" fill="#595857"/>
<path d="M12.7111 6.09534L14.5037 5.52391C14.0148 5.26994 13.5259 5.04772 13.037 4.85724L12.3526 5.20645L12.32 5.1747C11.8311 4.95248 11.277 4.762 10.6904 4.60327L10.1689 5.07946C11.0163 5.23819 11.7659 5.49216 12.4178 5.87311C12.5155 5.96835 12.6133 6.03184 12.7111 6.09534Z" fill="#595857"/>
<path d="M11.603 7.58736C11.6682 7.61911 11.7007 7.65086 11.7659 7.6826L11.8637 5.84133C11.7985 5.80959 11.7333 5.77784 11.6356 5.74609L11.603 7.58736Z" fill="#595857"/>
<path d="M15.1556 7.93655C15.123 7.9048 15.123 7.87305 15.0904 7.84131H14.9274C14.9274 7.87305 14.96 7.9048 14.96 7.93655H15.1556Z" fill="#595857"/>
<path d="M15.2859 8.22219C15.2859 8.19044 15.2534 8.1587 15.2534 8.1587L15.0578 8.12695C15.0578 8.1587 15.0904 8.1587 15.0904 8.19044L15.2859 8.22219Z" fill="#595857"/>
<path d="M14.9274 7.61914H14.7971C14.7971 7.61914 14.7971 7.65089 14.8297 7.65089H14.96C14.96 7.65089 14.96 7.65089 14.9274 7.61914Z" fill="#595857"/>
<path d="M16.8504 7.11108L14.9926 7.36505C15.0252 7.3968 15.0252 7.3968 15.0578 7.42854L17.1437 7.30156C17.0134 7.23807 16.9482 7.17458 16.8504 7.11108Z" fill="#595857"/>
<path d="M14.7319 7.84131H14.1452L14.7645 7.9048C14.7319 7.87305 14.7319 7.87305 14.7319 7.84131Z" fill="#595857"/>
<path d="M14.8622 8.09522L14.5689 8.06348L14.8948 8.12697C14.8622 8.09522 14.8622 8.09522 14.8622 8.09522Z" fill="#595857"/>
<path d="M14.6015 7.2063L14.5037 7.23804C14.5037 7.26979 14.5363 7.26979 14.5363 7.30154H14.6341C14.6341 7.23804 14.6015 7.2063 14.6015 7.2063Z" fill="#595857"/>
<path d="M14.7645 7.39673H14.6667L14.6993 7.42847H14.8296C14.7971 7.42847 14.7971 7.42847 14.7645 7.39673Z" fill="#595857"/>
<path d="M19.8489 9.26993C19.0993 8.2858 17.7304 7.23818 16.8504 6.63501C17.5674 7.20644 18.48 8.03184 19.1645 9.07945C19.36 9.14295 19.6208 9.20644 19.8489 9.26993Z" fill="#595857"/>
<path d="M17.2741 7.49194L15.1556 7.61893C15.1556 7.65067 15.1882 7.65067 15.1882 7.68242H17.4697C17.4045 7.61893 17.3393 7.55544 17.2741 7.49194Z" fill="#595857"/>
<path d="M18.8711 8.98415C18.2845 8.12701 17.5023 7.39685 16.883 6.88892C17.6978 7.58733 18.2193 8.28574 18.3171 8.85717C18.4474 8.88892 18.643 8.92066 18.8711 8.98415Z" fill="#595857"/>
<path d="M14.8622 7.20642L16.6874 6.9207C16.6222 6.85721 16.5571 6.79372 16.4593 6.73022L14.7645 7.11118C14.7971 7.17467 14.8297 7.20642 14.8622 7.20642Z" fill="#595857"/>
<path d="M17.8934 8.22226C17.8282 8.09528 17.7304 7.96829 17.6 7.84131H15.2859C15.3185 7.87305 15.3185 7.93655 15.3511 7.96829L17.8934 8.22226Z" fill="#595857"/>
<path d="M18.1541 8.79362C18.1215 8.66664 18.0563 8.53965 17.9911 8.41267L15.4489 8.12695C15.4815 8.1587 15.4815 8.19044 15.5141 8.22219L18.1541 8.79362Z" fill="#595857"/>
<path d="M15.6771 13.2381H15.6445C15.4815 13.2698 15.3185 13.3333 15.1556 13.3968C14.0474 13.8412 13.6889 14.3174 13.6563 14.3809L13.5585 15.9365L16.6222 14.6349L16.6874 13.2063C16.6222 13.1746 16.4919 13.1111 16.2637 13.1111C16.1008 13.1428 15.9052 13.1746 15.6771 13.2381Z" fill="#595857"/>
<path d="M14.3082 6.98414C14.3408 7.01588 14.3408 7.04763 14.3734 7.07938L14.4385 7.04763C14.4059 7.01589 14.3734 6.98414 14.3734 6.95239L14.3082 6.98414Z" fill="#595857"/>
<path d="M20.1423 9.33329C20.3704 9.39678 20.5985 9.46027 20.7941 9.52376C19.2948 7.84122 17.3067 6.63487 16.5571 6.19043C17.4045 6.7936 19.2948 8.09519 20.1423 9.33329Z" fill="#595857"/>
<path d="M14.5037 7.49207C14.4711 7.46033 14.4711 7.46033 14.5037 7.49207L14.1452 7.52382L14.5037 7.49207Z" fill="#595857"/>
<path d="M4.10669 1.39682L5.01928 1.14285V1.01587L4.0741 1.26984L4.10669 1.39682Z" fill="#595857"/>
<path d="M21.0874 9.61895C21.3156 9.68245 21.5111 9.74594 21.6741 9.80943C20.4356 8.28562 18.2519 6.95229 17.1763 6.38086C18.1541 6.98403 19.8163 8.12689 21.0874 9.61895Z" fill="#595857"/>
<path d="M14.6667 6.98423L16.2963 6.63502C16.2637 6.60328 16.2311 6.57153 16.1985 6.57153L14.6015 6.92074C14.6015 6.95249 14.6341 6.98423 14.6667 6.98423Z" fill="#595857"/>
<path d="M4.20447 4.254L5.11706 4.00003V3.87305L4.20447 4.12702V4.254Z" fill="#595857"/>
<path d="M14.4385 6.76183L16.003 6.41262C15.9704 6.38088 15.9378 6.34913 15.8726 6.31738L14.3734 6.69834C14.4059 6.73008 14.4059 6.76183 14.4385 6.76183Z" fill="#595857"/>
<path d="M4.20447 4.57138L5.14965 4.28567V4.19043L4.20447 4.4444V4.57138Z" fill="#595857"/>
<path d="M4.17188 3.65074L5.11706 3.36502L5.08447 3.23804L4.17188 3.49201V3.65074Z" fill="#595857"/>
<path d="M4.20447 4.79353L5.14965 4.53957V4.47607L4.20447 4.73004V4.79353Z" fill="#595857"/>
<path d="M4.23706 5.07943L5.14965 4.79372V4.73022L4.20447 4.98419L4.23706 5.07943Z" fill="#595857"/>
<path d="M4.13928 2.69834L5.08447 2.41263L5.05187 2.28564L4.13928 2.53961V2.69834Z" fill="#595857"/>
<path d="M4.13928 2.34922L5.05187 2.09525V1.93652L4.10669 2.22224L4.13928 2.34922Z" fill="#595857"/>
<path d="M4.10669 2.03183L5.05187 1.77786V1.65088L4.10669 1.90485V2.03183Z" fill="#595857"/>
<path d="M4.10669 1.7142L5.05187 1.46024L5.01928 1.33325L4.10669 1.58722V1.7142Z" fill="#595857"/>
<path d="M4.17187 3.33335L5.08447 3.04764V2.92065L4.13928 3.17462L4.17187 3.33335Z" fill="#595857"/>
<path d="M4.13928 3.01597L5.08447 2.73026V2.60327L4.13928 2.85724V3.01597Z" fill="#595857"/>
<path d="M8.11559 4.19048H8.21337L8.27855 3.96826C7.49633 3.96826 6.7467 4.03175 5.99707 4.15874L6.06226 4.28572C6.323 4.25398 7.10522 4.15874 8.11559 4.19048Z" fill="#595857"/>
<path d="M4.17188 3.96836L5.11706 3.68265V3.55566L4.17188 3.80963V3.96836Z" fill="#595857"/>
<path d="M13.4608 6.73024L13.4933 6.76199L13.7541 6.69849L13.7215 6.66675L13.4608 6.73024Z" fill="#595857"/>
<path d="M13.6889 6.38086C13.7215 6.41261 13.7541 6.44435 13.7867 6.44435C13.7215 6.41261 13.6889 6.38086 13.6889 6.38086Z" fill="#595857"/>
<path d="M13.9822 6.38097L15.3185 5.96827C15.2859 5.96827 15.2859 5.93652 15.2533 5.93652L13.9171 6.31748C13.9171 6.34922 13.9496 6.34922 13.9822 6.38097Z" fill="#595857"/>
<path d="M13.6889 6.19053L14.9926 5.80958C14.96 5.80958 14.96 5.77783 14.9274 5.77783L13.6563 6.15878C13.6889 6.15878 13.6889 6.19053 13.6889 6.19053Z" fill="#595857"/>
<path d="M6.19263 4.47611L6.64892 5.23801C7.04003 5.14277 7.46374 5.07928 7.88744 5.04753L8.14818 4.34912H8.11559C7.203 4.34912 6.48596 4.41261 6.19263 4.47611Z" fill="#595857"/>
<path d="M13.7541 7.11111C13.7867 7.14285 13.7867 7.1746 13.8193 7.20635L14.2104 7.11111C14.1778 7.07936 14.1452 7.04762 14.1452 7.01587L13.7541 7.11111Z" fill="#595857"/>
<path d="M14.1778 6.76196H14.1452C14.1778 6.79371 14.1778 6.79371 14.2104 6.82546H14.2756C14.2104 6.79371 14.1778 6.79371 14.1778 6.76196Z" fill="#595857"/>
<path d="M8.50671 3.96826L8.40894 4.19048H8.44153L8.50671 3.96826Z" fill="#595857"/>
<path d="M10.6578 4.19048C10.1363 4.09524 9.58227 4.03175 9.06079 4C8.93042 4 8.80005 4 8.70227 4L8.60449 4.22222C9.22375 4.25397 9.81042 4.31746 10.3971 4.44444L10.6578 4.19048Z" fill="#595857"/>
<path d="M8.08301 5.01579L8.37634 4.34912H8.34375L8.08301 5.01579Z" fill="#595857"/>
<path d="M12.8089 4.79358C12.6459 4.73009 12.5156 4.69834 12.3852 4.63485C11.9615 4.50787 11.5052 4.38088 11.0815 4.28564L10.8207 4.53961C11.3748 4.6666 11.8637 4.85707 12.3526 5.0793L12.8089 4.79358Z" fill="#595857"/>
<path d="M14.2104 6.5714L15.6771 6.22219C15.6119 6.19045 15.5793 6.1587 15.5141 6.12695L14.1452 6.53965C14.1778 6.53965 14.1778 6.53965 14.2104 6.5714Z" fill="#595857"/>
</g>
<defs>
<clipPath id="clip0_33_203">
<rect width="22" height="16" fill="white"/>
</clipPath>
</defs>
</svg>
