<svg width="104" height="113" viewBox="0 0 104 113" fill="none" xmlns="http://www.w3.org/2000/svg">
<g clip-path="url(#clip0_555_27)">
<path d="M38.2656 95.7464H54.5459C54.2676 97.8699 53.4327 99.8607 52.1804 101.586C49.2583 105.833 44.3881 108.355 38.9613 108.355C30.3342 108.355 23.2376 101.586 23.2376 93.3575C23.2376 85.1288 30.3342 78.3601 38.9613 78.3601C44.3881 78.3601 49.3974 81.0145 52.1804 85.3943L52.5978 86.0579L56.6331 83.6689L56.2157 83.0053C52.4587 77.2984 45.9187 73.8477 38.8222 73.8477C27.5512 73.8477 18.3674 82.6072 18.3674 93.3575C18.3674 104.108 27.6903 113 38.9613 113C45.9187 113 52.3195 109.682 56.2157 104.108C58.3029 100.923 59.5552 97.2063 59.5552 93.4902V91.234H38.2656V95.7464Z" fill="#00A1E9"/>
<path d="M98.9343 101.586C96.0122 105.833 91.142 108.355 85.7152 108.355C77.0881 108.355 69.9915 101.586 69.9915 93.3575C69.9915 85.1288 77.0881 78.3601 85.7152 78.3601C91.142 78.3601 96.1513 81.0145 98.9343 85.3943L99.3517 86.0579L103.387 83.6689L102.97 83.0053C99.2126 77.2984 92.6726 73.8477 85.5761 73.8477C74.3051 73.8477 65.1213 82.6072 65.1213 93.3575C65.1213 104.108 74.3051 112.867 85.5761 112.867C92.5335 112.867 98.9343 109.549 102.83 103.975L103.248 103.311L99.2126 100.79L98.9343 101.586Z" fill="#00A1E9"/>
<path d="M0 78.4929H6.6791V111.54H11.5493V73.8477H0V78.4929Z" fill="#00A1E9"/>
<path d="M47.2584 51.5585C47.1054 51.4071 46.9525 51.2557 46.6466 51.1042C46.6466 51.4071 46.6466 51.8614 46.4937 52.3157C46.7995 52.1643 46.9525 52.1643 47.1054 52.0128C47.2584 51.8614 47.2584 51.71 47.2584 51.5585Z" fill="#008246"/>
<path d="M46.6466 53.9816L46.9525 54.4359C46.9525 53.9816 46.9525 53.5273 47.1054 53.073C46.9525 53.073 46.7995 53.2244 46.6466 53.3759C46.4936 53.5273 46.6466 53.8301 46.6466 53.9816Z" fill="#008246"/>
<path d="M46.3408 50.3472V50.65C46.4938 50.65 46.4938 50.4986 46.6467 50.4986L46.3408 50.3472Z" fill="#008246"/>
<path d="M45.5759 52.9215C45.5759 52.9215 45.7288 52.9215 45.5759 52.9215C45.7288 52.3157 45.7288 51.8615 45.7288 51.5586C45.5759 51.71 45.423 51.71 45.27 51.8615C45.27 52.1643 45.27 52.4672 45.27 52.6186L45.5759 52.9215Z" fill="#008246"/>
<path d="M45.27 50.8016C45.423 50.6502 45.7288 50.6502 45.8818 50.4987C45.7288 50.3473 45.423 50.1959 45.27 50.0444C45.27 50.3473 45.27 50.4987 45.27 50.8016Z" fill="#008246"/>
<path d="M58.7289 70.7903C58.576 70.9417 58.2701 71.0931 58.1172 71.2446C58.4231 71.396 58.576 71.6989 58.8819 71.8503C58.8819 71.5474 58.7289 71.0931 58.7289 70.7903Z" fill="#008246"/>
<path d="M58.2699 65.0361C58.117 65.0361 57.964 65.1876 57.6582 65.1876C57.5052 65.9447 57.3523 66.7019 57.3523 67.459C57.8111 67.1562 58.2699 67.0047 58.7288 66.7019C58.8817 66.2476 58.8817 65.9447 58.8817 65.7933C58.7288 65.6419 58.5758 65.339 58.2699 65.0361Z" fill="#008246"/>
<path d="M42.5173 49.7416L42.9761 50.1959C42.9761 49.8931 42.9761 49.5902 42.9761 49.2874C42.8232 49.4388 42.6703 49.4388 42.5173 49.5902C42.5173 49.4388 42.5173 49.5902 42.5173 49.7416Z" fill="#008246"/>
<path d="M42.5173 48.3789C42.6703 48.2274 42.8232 48.2274 42.9761 48.2274C42.8232 48.076 42.6703 47.9246 42.5173 47.9246C42.5173 47.9246 42.5173 48.2274 42.5173 48.3789Z" fill="#008246"/>
<path d="M36.8585 51.8618L34.5645 58.2219C36.2468 58.3733 37.7762 58.3733 39.4585 58.3733C42.9761 58.3733 46.0349 58.0704 48.7878 57.6161L43.1291 51.7104C42.3644 51.5589 39.1526 51.8618 36.8585 51.8618Z" fill="#008246"/>
<path d="M52.7641 58.0702C52.7641 57.9188 52.6112 57.9188 52.6112 57.7673C52.6112 57.9188 52.6112 58.0702 52.4583 58.0702C52.4583 58.0702 52.6112 58.0702 52.7641 58.0702Z" fill="#008246"/>
<path d="M57.3523 68.5191C57.3523 69.5791 57.5052 70.1848 57.6582 70.6391C57.964 70.3362 58.2699 70.1848 58.5758 70.0334C58.5758 69.2762 58.5758 68.6705 58.5758 67.9133C58.2699 68.0648 57.8111 68.2162 57.3523 68.5191Z" fill="#008246"/>
<path d="M42.0582 49.2874C41.9052 49.2874 41.9053 49.4388 41.7523 49.4388H41.5994L41.9053 49.7416C42.0582 49.5902 42.0582 49.4388 42.0582 49.2874Z" fill="#008246"/>
<path d="M36.2465 50.9531H36.5523C36.8582 50.9531 37.317 50.9531 37.7759 50.9531C39.3052 50.9531 41.2935 50.8017 42.364 50.8017L40.6817 49.136C39.3053 49.2874 36.8582 49.4388 34.2582 49.4388L29.823 57.7675C30.5877 57.9189 31.8112 58.0704 33.6465 58.2218L36.2465 50.9531Z" fill="#008246"/>
<path d="M41.7525 48.8331C41.7525 48.5302 41.7525 48.3788 41.7525 48.0759C41.5996 48.0759 41.4466 48.2274 41.2937 48.2274V48.3788L41.7525 48.8331Z" fill="#008246"/>
<path d="M41.2937 46.7131V47.4703C41.4466 47.3189 41.5996 47.3189 41.7525 47.1674C41.5996 47.016 41.4466 46.8646 41.2937 46.7131Z" fill="#008246"/>
<path d="M28.5996 61.2502C29.2114 61.4016 30.5878 61.7045 33.0349 62.0073V61.2502C30.8937 61.0988 29.2114 60.7959 28.5996 60.7959V61.2502Z" fill="#008246"/>
<path d="M40.5291 62.7647C41.2938 62.7647 42.2114 62.9161 42.9761 62.9161V61.5532C42.2114 61.5532 41.2938 61.5532 40.5291 61.5532V62.7647Z" fill="#008246"/>
<path d="M43.8936 62.916C44.6583 62.916 45.5759 62.916 46.3406 62.916V61.2502C45.5759 61.2502 44.6583 61.4017 43.8936 61.4017V62.916Z" fill="#008246"/>
<path d="M37.1643 61.4019V62.4619C38.0819 62.4619 38.8466 62.6133 39.7643 62.6133V61.4019H39.6113C38.8466 61.5533 37.929 61.5533 37.1643 61.4019Z" fill="#008246"/>
<path d="M33.7996 62.159C34.5643 62.3104 35.329 62.3104 36.2466 62.4619V61.5533C35.4819 61.5533 34.5643 61.4019 33.7996 61.4019V62.159Z" fill="#008246"/>
<path d="M50.9289 59.8873L49.3995 58.373C46.4937 58.9788 43.129 59.2816 39.4585 59.2816C34.5644 59.2816 30.588 58.8273 29.5174 58.6759L28.7527 60.0388C30.2821 60.3416 34.2585 60.7959 39.4585 60.7959C43.4349 60.6445 47.2584 60.3416 50.9289 59.8873Z" fill="#008246"/>
<path d="M43.8936 49.5902C44.0465 49.4387 44.1994 49.4387 44.3524 49.2873C44.1994 49.1359 44.0465 48.9844 43.8936 48.833C43.8936 49.1359 43.8936 49.2873 43.8936 49.5902Z" fill="#008246"/>
<path d="M50.929 55.0415L48.0232 52.1643C47.8702 53.5272 47.7173 54.7386 47.8702 55.3443L50.4702 58.0701C50.4702 57.0101 50.7761 55.6472 50.929 55.0415Z" fill="#008246"/>
<path d="M47.2584 62.916C48.329 62.916 49.5525 62.916 50.6231 62.916L51.0819 60.6445C49.8584 60.796 48.4819 60.9474 47.1055 61.0988V62.916H47.2584Z" fill="#008246"/>
<path d="M43.8936 51.1046L44.3524 51.5589L44.5053 51.4075C44.5053 50.9532 44.5053 50.4989 44.5053 50.196C44.3524 50.3475 44.0465 50.3475 43.8936 50.4989C43.8936 50.6503 43.8936 50.9532 43.8936 51.1046Z" fill="#008246"/>
<path d="M59.9524 72.6075C60.2582 72.3046 60.7171 72.0017 61.1759 71.6989C61.1759 71.0932 61.1759 70.336 61.1759 69.5789C60.5641 69.8817 60.1053 70.0331 59.6465 70.336C59.6465 71.0932 59.6465 71.8503 59.9524 72.6075Z" fill="#008246"/>
<path d="M61.3289 67.9134C61.023 67.6105 60.7172 67.4591 60.4113 67.1562C60.1054 67.3077 59.9525 67.3077 59.6466 67.4591C59.4937 68.0648 59.4937 68.822 59.4937 69.4277C59.9525 69.1248 60.5642 68.822 61.176 68.6706C61.176 68.3677 61.176 68.0648 61.3289 67.9134Z" fill="#008246"/>
<path d="M61.1757 72.6074C61.0228 72.7589 60.7169 72.9103 60.564 73.0617C60.8698 73.2131 61.0228 73.3646 61.3287 73.516C61.3287 73.2131 61.1757 72.9103 61.1757 72.6074Z" fill="#008246"/>
<path d="M53.8347 60.3417C53.9877 60.3417 54.1406 60.1903 54.1406 60.1903C54.1406 60.0389 53.9877 60.0389 53.9877 59.8875C53.8347 60.0389 53.8347 60.1903 53.8347 60.3417Z" fill="#008246"/>
<path d="M56.5877 69.882C56.5877 69.5792 56.4348 69.2763 56.4348 68.822C56.2818 68.9735 56.1289 69.1249 55.823 69.1249C56.1289 69.4277 56.4348 69.7306 56.5877 69.882Z" fill="#008246"/>
<path d="M55.2112 66.399C55.2112 67.1561 55.2112 67.9133 55.3641 68.6704C55.67 68.3676 56.1288 68.2162 56.5876 67.9133C56.5876 67.1561 56.7406 66.399 56.8935 65.6418C56.2818 65.7933 55.67 66.0961 55.2112 66.399Z" fill="#008246"/>
<path d="M54.7524 62.7645C54.9054 62.1588 55.0583 61.7045 55.0583 61.4016C54.9053 61.2502 54.7524 60.9473 54.5995 60.7959C54.1406 60.9473 53.8348 61.0988 53.5289 61.2502C53.376 62.0073 53.223 62.9159 53.0701 63.5216C53.6818 63.3702 54.2936 63.0673 54.7524 62.7645Z" fill="#008246"/>
<path d="M57.1994 63.976C56.8935 63.6731 56.7406 63.3702 56.4347 63.0674C56.1288 63.2188 55.8229 63.2188 55.5171 63.3702C55.3641 63.976 55.2112 64.7331 55.2112 65.3388C55.8229 65.036 56.4347 64.8845 56.8935 64.5817C57.0465 64.4303 57.0465 64.1274 57.1994 63.976Z" fill="#008246"/>
<path d="M4.58813 54.1329L5.96459 53.5272L5.81166 53.2244L4.58813 54.1329Z" fill="#008246"/>
<path d="M51.5405 56.1016C51.3876 57.0101 51.2346 58.373 51.3876 59.1302C51.5405 58.0702 51.8464 57.1616 51.8464 56.7073C51.8464 56.5558 51.6934 56.253 51.5405 56.1016Z" fill="#008246"/>
<path d="M1.5294 38.99L0.611761 39.1414C0.152942 40.5043 0 41.7157 0 43.0786C0 46.8644 1.5294 50.3472 4.43525 53.6787L6.57641 52.1644C3.0588 48.3787 1.98821 44.8958 1.5294 42.7757C1.22352 40.9586 1.37646 39.7471 1.5294 38.99Z" fill="#008246"/>
<path d="M18.5058 32.9326L14.3764 32.3269C14.2235 32.4783 12.6941 34.2955 12.3882 36.8698L17.1293 36.2641C17.2822 35.0526 17.894 33.9926 18.5058 32.9326Z" fill="#008246"/>
<path d="M24.0117 28.2385C25.5411 27.3299 27.3764 26.5728 29.3646 25.967L26.3058 20.667C25.847 20.8184 25.3882 20.8184 24.7764 20.9699L24.9293 23.847L19.2706 25.6642L14.2236 24.7556C11.4707 26.1185 9.02362 27.7842 7.0354 29.6014L19.5765 31.4185C20.8 30.3585 22.3294 29.1471 24.0117 28.2385Z" fill="#008246"/>
<path d="M11.4707 38.0814C11.4707 37.93 11.4707 37.93 11.4707 37.7786L2.29428 38.99C2.14134 39.4443 1.9884 40.8072 2.29428 42.7758C2.60015 44.8958 3.82367 48.2272 7.18834 51.8616L15.753 45.9558C13.153 43.3815 11.6236 40.8072 11.4707 38.0814Z" fill="#008246"/>
<path d="M8.10571 37.3242L11.6233 36.8699C11.7763 34.5984 12.9998 32.7813 13.4586 32.0241L10.8586 31.5698C10.2469 32.327 8.71747 34.2956 8.10571 37.3242Z" fill="#008246"/>
<path d="M16.9764 37.1729L12.3882 37.7786C12.3882 37.93 12.3882 37.93 12.3882 38.0814C12.5411 40.6557 13.9176 43.0786 16.5176 45.5015L19.2705 43.6843C17.7411 41.8672 16.9764 39.8986 16.9764 37.93C16.9764 37.4757 16.9764 37.3243 16.9764 37.1729Z" fill="#008246"/>
<path d="M18.1998 5.82689L18.0468 2.19257L14.3763 1.73828V2.49543L13.6116 2.64686L13.7645 4.91831L18.1998 5.82689Z" fill="#008246"/>
<path d="M19.5763 46.8644V44.29L8.25879 52.013L19.5763 46.8644Z" fill="#008246"/>
<path d="M18.5058 14.9125V14.3068L14.0706 13.3982V14.0039L18.5058 14.9125Z" fill="#008246"/>
<path d="M18.3527 10.3698V9.76405L13.9175 8.85547V9.46119L18.3527 10.3698Z" fill="#008246"/>
<path d="M18.9647 24.7556L18.8117 24.4528L14.3765 23.5442V23.9985L18.9647 24.7556Z" fill="#008246"/>
<path d="M18.5057 11.8842L18.3527 11.2785L13.9175 10.3699V10.9756L18.5057 11.8842Z" fill="#008246"/>
<path d="M13.7644 5.8269V6.43263L18.3526 7.34121L18.1997 6.58406L13.7644 5.8269Z" fill="#008246"/>
<path d="M18.3526 8.85561V8.09846L13.7644 7.34131L13.9173 7.94703L18.3526 8.85561Z" fill="#008246"/>
<path d="M18.5057 13.3983V12.7926L13.9175 11.884L14.0704 12.4898L18.5057 13.3983Z" fill="#008246"/>
<path d="M18.8116 20.9699L18.6586 20.3641L14.2234 19.4556V20.2127L18.8116 20.9699Z" fill="#008246"/>
<path d="M18.8117 22.3328V21.8786L14.3765 20.97V21.5757L18.8117 22.3328Z" fill="#008246"/>
<path d="M18.8117 23.5442V23.2413L14.3765 22.3328V22.7871L18.8117 23.5442Z" fill="#008246"/>
<path d="M18.6586 19.4555V18.8497L14.2234 17.9412V18.6983L18.6586 19.4555Z" fill="#008246"/>
<path d="M18.6587 16.4269L18.5058 15.6697L14.0706 14.9126V15.5183L18.6587 16.4269Z" fill="#008246"/>
<path d="M18.6587 17.9413V17.3356L14.0706 16.427L14.2235 17.0327L18.6587 17.9413Z" fill="#008246"/>
<path d="M9.78809 31.5698L5.65871 30.9641C3.36462 33.2356 1.68229 35.6584 0.764648 38.2328L7.18811 37.4756C7.79987 34.5984 9.02339 32.6298 9.78809 31.5698Z" fill="#008246"/>
<path d="M54.2935 67.6105C54.2935 67.3076 54.2935 67.0048 54.2935 66.7019C54.1406 66.8533 53.9877 66.8533 53.8347 67.0048L53.9877 67.1562C54.1406 67.3076 54.2935 67.4591 54.2935 67.6105Z" fill="#008246"/>
<path d="M54.5995 63.8247C53.9877 64.1276 53.5289 64.4304 53.0701 64.7333C53.0701 65.1876 53.0701 65.6419 53.0701 65.9447C53.223 66.0962 53.223 66.2476 53.376 66.399C53.5289 66.2476 53.9877 66.0962 54.4465 65.7933C54.4465 65.1876 54.4465 64.4304 54.5995 63.8247Z" fill="#008246"/>
<path d="M57.3522 71.6991C55.8228 70.3363 54.4463 69.1248 53.8346 68.3677L53.6816 69.1248C54.2934 70.0334 58.2698 74.7277 62.5521 76.8478L62.7051 75.182C61.0227 74.4249 59.3404 73.3649 57.5051 71.8506C57.6581 71.8506 57.5051 71.8506 57.3522 71.6991Z" fill="#008246"/>
<path d="M53.2229 58.676C52.917 58.8275 52.6112 58.8275 52.3053 58.9789C52.3053 59.2817 52.3053 59.736 52.3053 60.0389V60.3418L52.1523 61.2503C52.4582 61.0989 52.6112 60.9475 53.07 60.796C53.2229 59.8875 53.5288 59.2817 53.5288 58.9789L53.2229 58.676Z" fill="#008246"/>
<path d="M62.2463 73.9702C62.3992 74.1217 62.5522 74.1217 62.7051 74.2731L62.8581 71.5474C62.5522 71.6988 62.2463 71.8502 61.9404 72.0017C62.0934 72.7588 62.0934 73.3645 62.2463 73.9702Z" fill="#008246"/>
<path d="M51.3877 63.3703C51.5406 63.5217 51.6936 63.976 51.9995 64.4303C51.9995 64.4303 52.1524 64.4303 52.1524 64.2788C52.1524 63.5217 52.3053 62.7645 52.4583 61.856C51.9995 62.1588 51.6936 62.3102 51.5406 62.3102L51.3877 63.3703Z" fill="#008246"/>
<path d="M61.9404 69.2763C61.9404 69.882 61.9404 70.6391 61.9404 71.2448C62.3992 70.942 62.7051 70.7905 63.011 70.6391L63.164 69.2763C63.011 69.1248 62.8581 69.1248 62.7051 68.9734C62.3992 69.1248 62.2463 69.1248 61.9404 69.2763Z" fill="#008246"/>
<path d="M46.3408 43.5332C46.4938 43.6846 46.6467 43.6846 46.7996 43.6846C46.7996 43.6846 46.6467 43.5332 46.3408 43.5332Z" fill="#8FC43E"/>
<path d="M46.7996 50.1959C47.1054 50.1959 47.4113 50.0444 47.7172 50.0444C47.7172 49.893 47.8701 49.5902 47.8701 49.4387C47.5643 49.4387 47.2584 49.4387 46.9525 49.4387C46.9525 49.7416 46.9525 49.893 46.7996 50.1959Z" fill="#8FC43E"/>
<path d="M44.0466 47.7733C44.3525 47.6218 44.8113 47.6218 45.1172 47.4704C45.1172 47.319 45.2701 47.1675 45.2701 47.0161C44.9643 47.0161 44.6584 47.1675 44.3525 47.1675C44.0466 47.4704 44.0466 47.6218 44.0466 47.7733Z" fill="#8FC43E"/>
<path d="M46.1875 46.1074C46.4934 46.1074 46.7993 46.1074 47.1051 46.1074C47.1051 45.9559 47.1051 45.8045 47.2581 45.6531C46.9522 45.6531 46.6463 45.6531 46.3404 45.6531C46.1875 45.6531 46.1875 45.9559 46.1875 46.1074Z" fill="#8FC43E"/>
<path d="M44.6582 44.7445C44.9641 44.7445 45.27 44.7445 45.5759 44.7445C45.5759 44.5931 45.5759 44.5931 45.5759 44.4417C45.27 44.4417 44.9641 44.4417 44.6582 44.4417C44.6582 44.4417 44.6582 44.5931 44.6582 44.7445Z" fill="#8FC43E"/>
<path d="M44.3525 46.2589C44.6584 46.2589 44.9643 46.1074 45.2702 46.1074C45.2702 45.8046 45.2702 45.6531 45.4231 45.5017C45.1172 45.5017 44.8114 45.5017 44.5055 45.5017C44.5055 45.8046 44.3525 46.1074 44.3525 46.2589Z" fill="#8FC43E"/>
<path d="M45.8818 47.3189C46.1877 47.3189 46.4936 47.3189 46.7995 47.1674C46.7995 47.016 46.7995 46.8646 46.9524 46.7131C46.6465 46.7131 46.3407 46.7131 46.0348 46.7131C46.0348 47.016 46.0348 47.1674 45.8818 47.3189Z" fill="#8FC43E"/>
<path d="M45.5759 48.8333C45.8818 48.6818 46.1877 48.6818 46.4936 48.6818C46.4936 48.5304 46.6465 48.379 46.6465 48.2275C46.3406 48.2275 46.0347 48.2275 45.7289 48.379C45.7289 48.5304 45.5759 48.6818 45.5759 48.8333Z" fill="#8FC43E"/>
<path d="M48.3289 48.0762C48.023 48.0762 47.7171 48.0762 47.4112 48.0762C47.4112 48.2276 47.2583 48.379 47.2583 48.5305C47.5642 48.5305 47.8701 48.5305 48.1759 48.5305C48.3289 48.379 48.3289 48.2276 48.3289 48.0762Z" fill="#8FC43E"/>
<path d="M56.5876 53.3758C57.0465 53.3758 57.3523 53.2244 57.8112 53.2244C57.8112 52.9215 57.8112 52.7701 57.6582 52.6187C57.1994 52.6187 56.8935 52.6187 56.5876 52.7701C56.5876 52.9215 56.5876 53.0729 56.5876 53.3758Z" fill="#8FC43E"/>
<path d="M46.3408 44.7445C46.6467 44.7445 46.9526 44.7445 47.2585 44.7445V44.5931C46.9526 44.5931 46.6467 44.5931 46.3408 44.4417C46.3408 44.4417 46.3408 44.5931 46.3408 44.7445Z" fill="#8FC43E"/>
<path d="M56.7405 55.1931C57.1993 55.1931 57.6581 55.0416 58.1169 55.0416C58.1169 54.8902 58.1169 54.8902 58.1169 54.7388C58.1169 54.4359 58.1169 54.2845 58.1169 54.1331C57.6581 54.1331 57.1993 54.2845 56.7405 54.2845C56.7405 54.4359 56.7405 54.7388 56.7405 55.1931Z" fill="#8FC43E"/>
<path d="M51.3878 54.2847C52.1525 53.5275 53.9878 51.7104 56.8936 50.8018L53.9878 48.9846C50.929 49.4389 49.0937 50.6504 48.4819 51.2561L51.3878 54.2847Z" fill="#8FC43E"/>
<path d="M56.5876 57.1617C57.0465 57.1617 57.6582 57.0103 58.117 57.0103C58.117 56.556 58.117 56.2531 58.117 55.7988C57.6582 55.7988 57.0465 55.9503 56.5876 55.9503C56.7406 56.4045 56.5876 56.7074 56.5876 57.1617Z" fill="#8FC43E"/>
<path d="M56.5876 51.8617C56.8935 51.8617 57.1994 51.8617 57.6582 51.7103C57.6582 51.5588 57.6582 51.5588 57.6582 51.5588C57.1994 51.7103 56.8935 51.7103 56.5876 51.8617Z" fill="#8FC43E"/>
<path d="M43.7407 44.2903C43.5877 44.2903 43.4348 44.2903 43.2819 44.2903H43.1289C43.1289 44.4417 43.1289 44.5931 43.1289 44.896C43.2818 44.896 43.5877 44.896 43.7407 44.896C43.7407 44.5931 43.7407 44.4417 43.7407 44.2903Z" fill="#8FC43E"/>
<path d="M42.6702 46.7131C42.976 46.5617 43.129 46.5617 43.4349 46.5617C43.4349 46.2588 43.5878 45.9559 43.5878 45.6531C43.4349 45.6531 43.129 45.6531 42.976 45.8045C42.976 46.1074 42.8231 46.4102 42.6702 46.7131Z" fill="#8FC43E"/>
<path d="M41.7524 45.956C41.9054 46.1074 41.9054 46.1074 42.0583 46.2588C42.0583 46.1074 42.0583 45.956 42.2113 45.956C41.9054 45.8045 41.7524 45.956 41.7524 45.956Z" fill="#8FC43E"/>
<path d="M42.3641 44.7446C42.2111 44.8961 42.0582 45.0475 41.9053 45.0475C42.0582 45.0475 42.2111 45.0475 42.3641 45.0475C42.3641 44.8961 42.3641 44.7446 42.3641 44.7446Z" fill="#8FC43E"/>
<path d="M43.2819 43.23C44.3525 42.7758 45.2701 42.6243 46.0348 42.6243C46.7995 42.6243 47.2584 42.9272 47.4113 42.9272C47.5642 42.7758 47.5642 42.6243 47.5642 42.4729C47.1054 41.2615 45.729 40.05 43.7407 39.1414C41.5996 38.2329 38.8467 37.7786 36.0938 37.7786C33.3408 37.7786 30.5879 38.2329 28.4468 39.1414C26.4586 40.05 25.0821 41.11 24.6233 42.4729C25.6939 45.1986 30.5879 47.1672 36.0938 47.1672C37.6232 47.1672 38.9996 47.0158 40.3761 46.7129V45.9558C40.3761 45.8044 40.3761 44.4415 43.2819 43.23Z" fill="#8FC43E"/>
<path d="M36.0936 37.0215C41.2936 37.0215 45.8818 38.6872 47.717 41.1101C47.2582 38.0815 42.2112 35.8101 36.0936 35.8101C29.976 35.8101 24.929 38.2329 24.4702 41.1101C26.4584 38.6872 31.0466 37.0215 36.0936 37.0215Z" fill="#8FC43E"/>
<path d="M48.6349 47.319C48.6349 47.1675 48.6349 47.0161 48.7879 47.0161C48.482 47.0161 48.1761 47.0161 47.8702 47.0161C47.8702 47.1675 47.8702 47.319 47.7173 47.319C48.0232 47.319 48.3291 47.319 48.6349 47.319Z" fill="#8FC43E"/>
<path d="M51.8465 47.4703C51.5406 47.4703 51.3877 47.3188 51.0818 47.3188C51.0818 47.4703 51.0818 47.6217 51.0818 47.7731C51.3877 47.7731 51.5406 47.9246 51.8465 47.9246C51.8465 47.6217 51.8465 47.4703 51.8465 47.4703Z" fill="#8FC43E"/>
<path d="M51.5408 48.8331C51.5408 48.6817 51.5408 48.6817 51.5408 48.8331C51.3879 48.6817 51.082 48.5303 50.7761 48.5303C50.7761 48.6817 50.7761 48.6817 50.7761 48.8331C51.082 48.8331 51.2349 48.9846 51.3879 48.9846C51.3879 48.8331 51.5408 48.8331 51.5408 48.8331Z" fill="#8FC43E"/>
<path d="M49.7053 46.2589C50.0112 46.2589 50.1641 46.2589 50.47 46.4103V46.2589L50.3171 46.1075C50.1641 46.1075 50.0112 46.1075 49.8583 45.9561C49.7053 45.9561 49.7053 46.1075 49.7053 46.2589Z" fill="#8FC43E"/>
<path d="M52.6111 47.9246V48.076C52.764 48.076 52.917 48.2274 52.917 48.2274C52.764 48.076 52.764 48.076 52.6111 47.9246Z" fill="#8FC43E"/>
<path d="M49.7053 49.4387C49.3995 49.4387 49.0936 49.4387 48.7877 49.4387C48.7877 49.5902 48.6348 49.7416 48.6348 50.0444C48.7877 50.0444 48.9406 50.0444 48.9406 50.0444C49.2465 49.7416 49.3995 49.5902 49.7053 49.4387Z" fill="#8FC43E"/>
<path d="M47.8701 46.1074C48.176 46.1074 48.4819 46.1074 48.7878 46.1074C48.7878 45.956 48.7878 45.8046 48.9407 45.6531C48.6348 45.6531 48.3289 45.5017 48.0231 45.5017C48.0231 45.8046 48.0231 45.956 47.8701 46.1074Z" fill="#8FC43E"/>
<path d="M48.176 44.7444C48.329 44.7444 48.4819 44.7444 48.6348 44.7444C48.6348 44.7444 48.4819 44.7444 48.4819 44.593C48.329 44.7444 48.329 44.7444 48.176 44.7444Z" fill="#8FC43E"/>
<path d="M48.329 44.2902C48.1761 44.1388 47.8702 43.9874 47.7173 43.8359V44.1388H47.8702C48.1761 44.1388 48.329 44.2902 48.329 44.2902Z" fill="#8FC43E"/>
<path d="M50.0111 48.379C49.7053 48.379 49.3994 48.2275 49.2464 48.2275C49.2464 48.379 49.2464 48.5304 49.0935 48.5304C49.3994 48.5304 49.7053 48.5304 49.8582 48.6818C50.0111 48.5304 50.0111 48.379 50.0111 48.379Z" fill="#8FC43E"/>
<path d="M49.5522 45.3502C49.8581 45.3502 50.0111 45.5017 50.164 45.5017C49.8581 45.3502 49.7052 45.1988 49.5522 45.0474V45.3502Z" fill="#8FC43E"/>
<path d="M50.317 47.1675C50.0112 47.1675 49.8582 47.1675 49.5524 47.0161C49.5524 47.1675 49.5524 47.319 49.3994 47.319C49.7053 47.319 49.8582 47.319 50.1641 47.4704C50.1641 47.319 50.1641 47.1675 50.317 47.1675Z" fill="#8FC43E"/>
<path d="M66.0698 64.5818C66.8345 64.4304 67.4463 64.4304 68.058 64.2789C68.058 63.9761 68.211 63.6732 68.211 63.3704C67.5992 63.3704 66.8345 63.3704 66.2228 63.5218C66.2228 63.8246 66.2228 64.2789 66.0698 64.5818Z" fill="#8FC43E"/>
<path d="M63.6228 60.6446C64.2346 60.6446 64.9993 60.4932 65.611 60.4932C65.611 60.0389 65.611 59.736 65.611 59.2817C64.9993 59.2817 64.3875 59.2817 63.7757 59.2817C63.7757 59.736 63.7757 60.1903 63.6228 60.6446Z" fill="#8FC43E"/>
<path d="M66.6814 55.193C66.3756 55.0416 66.2226 54.8901 65.9167 54.8901C65.9167 55.0416 65.9167 55.0416 65.9167 55.193C66.2226 55.0416 66.5285 55.0416 66.6814 55.193Z" fill="#8FC43E"/>
<path d="M66.3758 56.859C66.9876 56.859 67.4464 56.859 67.9052 57.0104C67.9052 56.7075 67.7523 56.4047 67.7523 56.2532C67.2935 56.2532 66.6817 56.1018 66.2229 56.1018C66.2229 56.2532 66.3758 56.5561 66.3758 56.859Z" fill="#8FC43E"/>
<path d="M63.7759 58.5245C63.9288 58.5245 64.0818 58.5245 64.2347 58.5245C64.6935 58.5245 65.1523 58.5245 65.6112 58.5245C65.6112 58.2217 65.6112 57.9188 65.6112 57.616C64.9994 57.616 64.5406 57.616 63.9288 57.616C63.7759 57.9188 63.7759 58.2217 63.7759 58.5245Z" fill="#8FC43E"/>
<path d="M68.3641 59.5845C67.7523 59.5845 67.1406 59.4331 66.5288 59.4331C66.5288 59.736 66.5288 60.1903 66.5288 60.4931C67.1406 60.4931 67.7523 60.4931 68.3641 60.6445C68.3641 60.3417 68.3641 59.8874 68.3641 59.5845Z" fill="#8FC43E"/>
<path d="M66.5289 58.5245C67.1407 58.5245 67.5995 58.5245 68.2112 58.676C68.2112 58.3731 68.0583 58.0703 68.0583 57.7674C67.5995 57.7674 66.9877 57.7674 66.376 57.616C66.5289 57.9188 66.5289 58.2217 66.5289 58.5245Z" fill="#8FC43E"/>
<path d="M67.5993 65.1877C66.9875 65.1877 66.5287 65.3392 65.917 65.4906C65.764 65.7935 65.764 66.0963 65.6111 66.3992C66.2228 66.0963 66.8346 65.642 67.5993 65.1877Z" fill="#8FC43E"/>
<path d="M65.1524 64.7334C65.3053 64.2791 65.3053 63.9763 65.3053 63.522C64.5406 63.522 63.7759 63.6734 63.0112 63.8248C62.8583 64.2791 62.8583 64.8848 62.7053 65.3391C63.623 65.1877 64.3877 64.8848 65.1524 64.7334Z" fill="#8FC43E"/>
<path d="M65.6111 61.4019C64.9993 61.4019 64.2346 61.4019 63.4699 61.5533C63.4699 62.0076 63.317 62.6133 63.1641 63.0676C63.9288 62.9162 64.6934 62.9162 65.3052 62.7647C65.6111 62.3104 65.6111 61.8561 65.6111 61.4019Z" fill="#8FC43E"/>
<path d="M63.7759 56.7075C64.3876 56.7075 64.8465 56.7075 65.4582 56.7075C65.4582 56.4046 65.3053 56.1017 65.3053 55.7989C64.6935 55.7989 64.2347 55.6475 63.7759 55.6475C63.7759 56.1018 63.7759 56.4046 63.7759 56.7075Z" fill="#8FC43E"/>
<path d="M65.1523 55.0417C65.1523 54.7388 64.9994 54.436 64.9994 54.2846L64.5405 54.1331C64.3876 54.1331 64.0817 54.1331 63.47 53.9817C63.47 54.2845 63.6229 54.5874 63.6229 54.8903C64.2347 54.8903 64.6935 54.8903 65.1523 55.0417Z" fill="#8FC43E"/>
<path d="M71.7287 60.9475C72.1875 61.0989 72.7993 61.0989 73.2581 61.2503C73.2581 60.9475 73.1052 60.4932 73.1052 60.1903C72.6464 60.0389 72.1875 60.0389 71.7287 59.8875C71.5758 60.3417 71.5758 60.6446 71.7287 60.9475Z" fill="#8FC43E"/>
<path d="M71.7288 62.6134C72.1876 62.6134 72.7993 62.7648 73.2582 62.7648C73.2582 62.6133 73.2582 62.3105 73.2582 62.1591C72.7993 62.0076 72.1876 62.0076 71.7288 61.8562C71.7288 62.1591 71.7288 62.4619 71.7288 62.6134Z" fill="#8FC43E"/>
<path d="M74.6346 62.462C74.4817 62.462 74.3287 62.3105 74.1758 62.3105C74.1758 62.462 74.1758 62.462 74.1758 62.6134C74.3287 62.6134 74.4817 62.6134 74.6346 62.462Z" fill="#8FC43E"/>
<path d="M77.0816 62.3105C77.0816 62.4619 77.0816 62.4619 77.0816 62.3105C76.7757 62.0076 76.4698 61.5533 76.011 61.2505C76.011 61.5533 76.1639 61.7048 76.1639 62.0076C76.6228 62.1591 76.9286 62.3105 77.0816 62.3105Z" fill="#8FC43E"/>
<path d="M72.7993 59.2818C72.6463 58.979 72.6463 58.6761 72.6463 58.5247C72.3405 58.3732 72.0346 58.0704 71.7287 57.9189C71.5758 57.9189 71.4228 57.9189 71.1169 57.9189C71.2699 58.2218 71.2699 58.6761 71.2699 58.979C71.8816 59.1304 72.3405 59.2818 72.7993 59.2818Z" fill="#8FC43E"/>
<path d="M76.6229 62.7648C76.4699 62.7648 76.164 62.6133 75.8582 62.4619V62.7648C76.0111 62.7648 76.317 62.7648 76.6229 62.7648Z" fill="#8FC43E"/>
<path d="M75.2461 61.8561C75.0931 61.4018 75.0931 60.9475 74.9402 60.6447C74.6343 60.4932 74.1755 60.4932 73.8696 60.3418C73.8696 60.7961 74.0226 61.0989 74.0226 61.4018C74.4814 61.5532 74.7873 61.7047 75.2461 61.8561Z" fill="#8FC43E"/>
<path d="M68.9756 64.2791C69.2815 64.2791 69.4344 64.2791 69.4344 64.2791C69.7403 64.1276 70.1991 63.9762 70.6579 63.8248H70.8109V63.6733C70.1991 63.6733 69.5873 63.6733 68.9756 63.6733C69.1285 63.6733 69.1285 63.9762 68.9756 64.2791Z" fill="#8FC43E"/>
<path d="M70.0464 57.0104C69.5876 56.7075 69.1287 56.4047 68.6699 56.1018C68.6699 56.2532 68.8229 56.5561 68.8229 56.859C69.2817 57.0104 69.7405 57.0104 70.0464 57.0104Z" fill="#8FC43E"/>
<path d="M69.1286 58.8276C69.5874 58.8276 70.1992 58.979 70.658 58.979C70.658 58.6762 70.5051 58.2219 70.5051 57.919C70.0463 57.919 69.5874 57.7676 69.1286 57.7676C68.9757 58.0704 68.9757 58.5247 69.1286 58.8276Z" fill="#8FC43E"/>
<path d="M68.6698 55.799C68.5168 55.6475 68.3639 55.6475 68.2109 55.4961V55.799H68.6698Z" fill="#8FC43E"/>
<path d="M69.1287 62.6132C69.7404 62.6132 70.3522 62.6132 70.811 62.6132C70.811 62.3104 70.811 62.0075 70.811 61.7047C70.1992 61.5532 69.7404 61.5532 69.1287 61.5532C69.2816 61.8561 69.1287 62.1589 69.1287 62.6132Z" fill="#8FC43E"/>
<path d="M69.1285 60.6447C69.7403 60.6447 70.1991 60.7962 70.6579 60.7962C70.6579 60.4933 70.505 60.039 70.505 59.7361C70.0462 59.7361 69.5873 59.5847 68.9756 59.5847C69.1285 60.039 69.1285 60.3419 69.1285 60.6447Z" fill="#8FC43E"/>
<path d="M68.3642 61.4019C67.7524 61.4019 67.1407 61.4019 66.5289 61.2505C66.5289 61.7048 66.5289 62.1591 66.376 62.6134C66.9877 62.6134 67.5995 62.6134 68.3642 62.4619C68.3642 62.1591 68.3642 61.8562 68.3642 61.4019Z" fill="#8FC43E"/>
<path d="M60.4111 52.013C60.564 52.013 60.564 52.013 60.717 52.013C60.564 51.8616 60.2582 51.8616 60.1052 51.8616V52.013H60.4111Z" fill="#8FC43E"/>
<path d="M53.9877 53.2246C53.6818 53.5275 53.3759 53.6789 53.0701 53.9818V54.1332C53.3759 53.9818 53.6818 53.9818 53.9877 53.8303C53.9877 53.5275 53.9877 53.376 53.9877 53.2246Z" fill="#8FC43E"/>
<path d="M53.5288 57.7673C53.5288 57.7673 53.6817 57.7673 53.5288 57.7673C53.6817 57.3131 53.8346 56.8588 53.8346 56.5559C53.3758 56.7073 53.0699 56.7073 52.917 56.8588C53.0699 57.0102 53.2229 57.4645 53.5288 57.7673Z" fill="#8FC43E"/>
<path d="M53.9877 55.6474C53.9877 55.3445 53.9877 55.0416 53.9877 54.7388C53.6818 54.8902 53.3759 54.8902 53.0701 55.0416C53.0701 55.3445 53.0701 55.6473 53.0701 55.9502C53.223 55.7988 53.5289 55.6474 53.9877 55.6474Z" fill="#8FC43E"/>
<path d="M55.67 58.0703C55.2112 58.2217 54.7524 58.2217 54.2936 58.3732C54.2936 58.5246 54.2936 58.676 54.1406 58.8275C54.2936 59.1303 54.5994 59.4332 54.9053 59.8875C55.0583 59.8875 55.2112 59.736 55.5171 59.736C55.67 59.2818 55.67 58.676 55.67 58.0703Z" fill="#8FC43E"/>
<path d="M58.1169 63.6733C58.2699 63.8247 58.4228 63.9762 58.5758 64.1276C58.8816 63.9762 59.3405 63.8247 59.7993 63.8247C59.9522 63.219 60.1052 62.6133 60.2581 62.0076C59.6463 62.159 59.1875 62.3104 58.5758 62.4619C58.4228 62.7647 58.4228 63.219 58.2699 63.5219L58.1169 63.6733Z" fill="#8FC43E"/>
<path d="M54.5996 57.4645C55.0584 57.3131 55.3643 57.3131 55.8231 57.1616C55.8231 56.7074 55.8231 56.4045 55.8231 55.9502C55.5173 55.9502 55.0584 56.1016 54.7526 56.1016C54.7526 56.7073 54.5996 57.1616 54.5996 57.4645Z" fill="#8FC43E"/>
<path d="M57.9642 59.8875C57.6583 59.8875 57.5054 60.0389 57.1995 60.0389C56.8936 60.1903 56.5877 60.1903 56.2819 60.3417C56.2819 60.6446 56.1289 61.0989 56.1289 61.4018C56.2818 61.7046 56.4348 61.856 56.7407 62.1589C57.0465 62.0075 57.3524 61.856 57.8113 61.856C57.8113 61.0989 57.9642 60.4932 57.9642 59.8875Z" fill="#8FC43E"/>
<path d="M55.8229 53.5274C55.8229 53.2245 55.8229 53.0731 55.8229 52.9216C55.517 52.9216 55.2112 53.0731 54.9053 53.0731C54.9053 53.2245 54.9053 53.5274 54.9053 53.6788C55.2112 53.5274 55.517 53.5274 55.8229 53.5274Z" fill="#8FC43E"/>
<path d="M55.8229 55.193C55.8229 54.8901 55.8229 54.5873 55.8229 54.2844C55.517 54.2844 55.2112 54.4359 54.9053 54.4359C54.9053 54.7387 54.9053 55.0416 54.9053 55.3444C55.0582 55.3444 55.517 55.3444 55.8229 55.193Z" fill="#8FC43E"/>
<path d="M64.2346 67.6104C64.2346 67.6104 64.3875 67.459 64.5404 67.459C64.6934 66.8533 64.9993 66.2476 65.1522 65.6418C64.3875 65.7933 63.4699 66.0961 62.7052 66.2476C62.5522 66.7019 62.3993 67.1561 62.2463 67.459C62.3993 67.6104 62.7052 67.7619 62.8581 67.9133C63.4699 67.9133 63.9287 67.7619 64.2346 67.6104Z" fill="#8FC43E"/>
<path d="M63.0111 59.4331C62.3993 59.4331 61.9405 59.4331 61.3287 59.5845C61.3287 60.0388 61.1758 60.4931 61.1758 61.0988C61.7875 60.9474 62.3993 60.9474 62.8581 60.796C62.8581 60.1903 62.8581 59.736 63.0111 59.4331Z" fill="#8FC43E"/>
<path d="M60.564 63.5219C61.1757 63.3704 61.7875 63.219 62.3992 63.0676C62.5522 62.4619 62.5522 62.0076 62.7051 61.4019C62.0934 61.4019 61.4816 61.5533 60.8699 61.7047C60.8699 62.3104 60.7169 62.9162 60.564 63.5219Z" fill="#8FC43E"/>
<path d="M60.5641 56.8588C60.5641 56.4045 60.5641 56.1017 60.5641 55.7988C60.1052 55.7988 59.4935 55.7988 59.0347 55.7988C59.0347 56.1017 59.0347 56.556 59.0347 57.0103C59.4935 56.8588 59.9523 56.8588 60.5641 56.8588Z" fill="#8FC43E"/>
<path d="M60.5641 57.616C59.9523 57.616 59.4935 57.616 59.0347 57.7674C59.0347 58.2217 59.0347 58.5245 59.0347 58.9788C59.4935 58.8274 60.1052 58.8274 60.5641 58.8274C60.5641 58.3731 60.5641 57.9188 60.5641 57.616Z" fill="#8FC43E"/>
<path d="M62.2465 63.9761C61.6347 64.1275 60.87 64.2789 60.2583 64.4304C60.1053 64.8847 60.1053 65.1875 59.9524 65.6418C60.1053 65.7932 60.2583 65.9447 60.4112 66.0961C60.87 65.9447 61.3289 65.7932 61.7877 65.6418C62.0936 65.0361 62.2465 64.5818 62.2465 63.9761Z" fill="#8FC43E"/>
<path d="M58.8818 53.9817C58.8818 54.1331 58.8818 54.436 58.8818 54.5874C58.8818 54.7388 58.8818 54.7388 58.8818 54.8903C59.3407 54.8903 59.7995 54.8903 60.4112 54.8903C60.4112 54.5874 60.2583 54.2845 60.2583 53.9817C59.7995 53.9817 59.3407 53.9817 58.8818 53.9817Z" fill="#8FC43E"/>
<path d="M61.3286 58.676C61.9404 58.676 62.3992 58.5245 63.0109 58.5245C63.0109 58.2217 63.0109 57.9188 63.0109 57.616C62.3992 57.616 61.9404 57.616 61.3286 57.616C61.3286 57.9188 61.3286 58.2217 61.3286 58.676Z" fill="#8FC43E"/>
<path d="M58.1169 57.7676C57.5051 57.7676 57.0463 57.919 56.5875 57.919C56.5875 58.3733 56.4346 58.979 56.4346 59.4333C56.5875 59.4333 56.7405 59.2819 57.0463 59.2819C57.3522 59.1304 57.6581 59.1305 58.1169 59.1305C58.1169 58.6762 58.1169 58.2219 58.1169 57.7676Z" fill="#8FC43E"/>
<path d="M60.8699 53.073C61.3287 53.073 61.7875 53.073 62.3993 53.073C61.9405 52.9216 61.4816 52.6187 61.0228 52.4673C61.0228 52.4673 61.0228 52.4673 60.8699 52.4673C60.8699 52.7701 60.8699 52.9216 60.8699 53.073Z" fill="#8FC43E"/>
<path d="M61.6346 66.5505C61.4817 66.5505 61.3287 66.702 61.1758 66.702C61.3287 66.8534 61.3287 66.8534 61.4817 67.0048C61.4817 66.8534 61.6346 66.702 61.6346 66.5505Z" fill="#8FC43E"/>
<path d="M60.1055 53.073C60.1055 52.9216 59.9525 52.6187 59.9525 52.4673C59.6466 52.4673 59.1878 52.4673 58.729 52.4673C58.729 52.6187 58.729 52.9216 58.8819 53.073C59.1878 53.073 59.6466 53.073 60.1055 53.073Z" fill="#8FC43E"/>
<path d="M60.4112 59.5847C59.7994 59.5847 59.3406 59.7361 58.8818 59.7361C58.8818 60.3419 58.7289 60.7962 58.5759 61.4019C59.1877 61.2504 59.6465 61.099 60.2583 60.9476C60.2583 60.6447 60.4112 60.039 60.4112 59.5847Z" fill="#8FC43E"/>
<path d="M61.1757 54.8903H61.3287C61.7875 54.8903 62.2463 54.8903 62.7051 54.8903C62.7051 54.5874 62.7051 54.2845 62.5522 53.9817C61.9404 53.9817 61.4816 53.9817 60.8699 53.9817C61.1758 54.2845 61.1757 54.5874 61.1757 54.8903Z" fill="#8FC43E"/>
<path d="M61.3286 55.6475C61.3286 55.9503 61.3286 56.4046 61.3286 56.7075C61.9404 56.7075 62.3992 56.7075 63.0109 56.7075C63.0109 56.4046 63.0109 55.9503 63.0109 55.6475C62.3992 55.6475 61.9404 55.6475 61.3286 55.6475Z" fill="#8FC43E"/>
<path d="M27.2234 20.5156L30.2822 25.6643L27.2234 20.5156Z" fill="#8FC43E"/>
<path d="M31.047 26.4215L30.7411 26.5729H30.5881L30.894 33.0844C31.3528 32.933 31.8116 32.933 32.2705 32.7816L31.9646 26.1187C31.6587 26.2701 31.3528 26.2701 31.047 26.4215Z" fill="#8FC43E"/>
<path d="M32.729 25.9672L33.1878 32.6301C33.7996 32.4787 34.2584 32.4787 34.7172 32.4787L34.4113 25.6643C33.7996 25.8157 33.3408 25.9672 32.729 25.9672Z" fill="#8FC43E"/>
<path d="M28.4468 27.1787L28.7527 33.5387C29.2115 33.3873 29.6703 33.2359 29.9762 33.2359L29.6703 26.7244C29.2115 26.8758 28.9056 27.0272 28.4468 27.1787Z" fill="#8FC43E"/>
<path d="M19.1175 5.67553L23.3999 4.46409V0.981201L18.9646 2.19264L19.1175 5.67553Z" fill="#8FC43E"/>
<path d="M18.8115 1.43544L21.4115 0.678286L19.4233 0.526855L16.3645 1.13258L18.8115 1.43544Z" fill="#8FC43E"/>
<path d="M17.8938 37.7787C17.8938 38.0816 17.8938 38.3844 17.8938 38.5358C20.4938 36.5673 24.0114 34.9015 27.9878 33.8415L27.6819 27.4814C21.4114 29.9043 17.8938 33.6901 17.8938 37.7787Z" fill="#8FC43E"/>
<path d="M61.6345 41.8673C61.7875 42.0187 61.7875 42.0187 61.9404 42.1702L62.3992 33.0844C62.2463 32.9329 62.2463 32.7815 62.0933 32.7815L61.6345 41.8673Z" fill="#8FC43E"/>
<path d="M62.0933 30.51L61.3286 30.8129C61.3286 30.8129 61.3286 30.8129 61.4816 30.8129L62.0933 30.51C62.0933 30.6614 62.0933 30.6614 62.0933 30.51Z" fill="#8FC43E"/>
<path d="M63.011 31.2671L61.9404 31.57C62.0934 31.7214 62.2463 31.8728 62.3993 31.8728L63.4698 31.57C63.3169 31.4185 63.1639 31.4185 63.011 31.2671Z" fill="#8FC43E"/>
<path d="M60.2583 40.6557C60.4112 40.8071 60.7171 40.9586 60.8701 41.11L61.3289 31.8727C61.1759 31.7213 61.023 31.5699 60.7171 31.4185L60.2583 40.6557Z" fill="#8FC43E"/>
<path d="M57.5051 38.5357C57.6581 38.6871 57.9639 38.8386 58.1169 38.99L58.4228 29.9042C58.2698 29.7527 58.1169 29.6013 57.811 29.6013L57.5051 38.5357Z" fill="#8FC43E"/>
<path d="M62.7053 43.0787C62.8583 43.2302 63.0112 43.3816 63.0112 43.533L63.623 34.7501C63.47 34.4472 63.3171 34.2958 63.1641 33.9929L62.7053 43.0787Z" fill="#8FC43E"/>
<path d="M59.0347 39.5956C59.1876 39.7471 59.3406 39.7471 59.4935 39.8985L59.9523 30.8127C59.7994 30.6613 59.6464 30.5098 59.3406 30.3584L59.0347 39.5956Z" fill="#8FC43E"/>
<path d="M86.1049 43.6846L85.9519 50.0446L103.234 53.0732C103.54 51.1046 103.387 48.9846 102.775 48.6818C101.858 48.076 93.5989 45.6532 86.1049 43.6846Z" fill="#8FC43E"/>
<path d="M65.4582 33.3871C65.3053 33.2357 65.3053 33.2357 65.1523 33.0842L63.7759 33.3871C63.7759 33.3871 63.9288 33.5385 63.9288 33.6899L65.4582 33.3871Z" fill="#8FC43E"/>
<path d="M55.9758 37.6275C56.2817 37.7789 56.5876 37.9303 56.7405 38.0818L57.1994 29.1474C56.8935 28.996 56.7405 28.8445 56.4347 28.6931L55.9758 37.6275Z" fill="#8FC43E"/>
<path d="M65.458 46.1073L85.0343 49.8931L85.1872 43.3816L65.7639 39.293L65.458 46.1073Z" fill="#8FC43E"/>
<path d="M67.1403 35.053L65.1521 35.5073L67.2933 35.2044C67.1403 35.2044 67.1403 35.2044 67.1403 35.053Z" fill="#8FC43E"/>
<path d="M63.9287 44.2903C64.2346 44.5931 64.5405 45.0474 64.6934 45.1988L64.9993 38.6874C64.9993 37.7788 64.8463 37.0216 64.3875 36.113L63.9287 44.2903Z" fill="#8FC43E"/>
<path d="M51.0818 35.053C51.3877 35.2045 51.6935 35.3559 51.9994 35.5073L52.1524 27.0272C51.8465 26.8758 51.5406 26.8758 51.2347 26.7244L51.0818 35.053Z" fill="#8FC43E"/>
<path d="M44.1996 33.0845C44.5054 33.0845 44.8113 33.2359 45.1172 33.2359V25.513C44.8113 25.513 44.3525 25.513 44.0466 25.3616L44.1996 33.0845Z" fill="#8FC43E"/>
<path d="M42.0583 25.21L42.2113 32.63C42.5172 32.63 42.976 32.7815 43.2819 32.7815V25.21C42.8231 25.21 42.5172 25.21 42.0583 25.21Z" fill="#8FC43E"/>
<path d="M46.0347 25.5129V33.3873C46.3405 33.5387 46.6464 33.5387 46.9523 33.6902V25.6644C46.4935 25.6644 46.3405 25.6644 46.0347 25.5129Z" fill="#8FC43E"/>
<path d="M40.0702 21.2729L38.8467 24.3016C39.4584 24.3016 40.2231 24.3016 40.8349 24.3016C42.3643 24.3016 43.8937 24.453 45.4231 24.6044L48.0231 22.1815C45.4231 21.7272 42.8231 21.4244 40.0702 21.2729Z" fill="#8FC43E"/>
<path d="M38.2348 25.3614H37.623L37.9289 32.3272H38.3877C38.6936 32.3272 38.9995 32.3272 39.1524 32.3272L38.9995 25.21C38.6936 25.21 38.5407 25.21 38.2348 25.3614Z" fill="#8FC43E"/>
<path d="M39.9172 25.21L40.0702 32.4786C40.529 32.4786 40.9878 32.63 41.4466 32.63L41.2937 25.21C40.8349 25.21 40.3761 25.21 39.9172 25.21Z" fill="#8FC43E"/>
<path d="M47.7173 25.8159V33.8417C48.0232 33.9931 48.3291 33.9931 48.6349 34.1446V25.9673C48.3291 25.9673 48.0232 25.9673 47.7173 25.8159Z" fill="#8FC43E"/>
<path d="M35.1763 25.5128L35.4821 32.3272C35.941 32.3272 36.3998 32.3272 37.0115 32.1757L36.7057 25.21C36.2468 25.5128 35.6351 25.5128 35.1763 25.5128Z" fill="#8FC43E"/>
<path d="M49.5522 34.4473C49.8581 34.5987 50.0111 34.5987 50.3169 34.7502L50.4699 26.4215C50.164 26.2701 49.8581 26.2701 49.5522 26.1187V34.4473Z" fill="#8FC43E"/>
<path d="M52.917 35.9616C53.2229 36.113 53.3758 36.2645 53.6817 36.2645L53.8346 27.6329C53.5287 27.4815 53.3758 27.4815 53.0699 27.3301L52.917 35.9616Z" fill="#8FC43E"/>
<path d="M46.6467 24.7557L47.4114 23.9985L46.6467 24.7557C46.4937 24.7557 46.4937 24.7557 46.6467 24.7557Z" fill="#8FC43E"/>
<path d="M59.6466 29.6016L68.0583 26.8758C65.7642 25.6644 63.4701 24.6044 61.176 23.6958L57.9642 25.3615L57.8113 25.2101C55.5172 24.1501 52.9172 23.2415 50.1643 22.4844L47.7173 24.7558C51.6937 25.513 55.2113 26.7244 58.2701 28.5416C58.7289 28.9959 59.1878 29.2987 59.6466 29.6016Z" fill="#8FC43E"/>
<path d="M54.4465 36.7187C54.7524 36.8702 54.9054 37.0216 55.2112 37.173L55.6701 28.3901C55.3642 28.2387 55.0583 28.0872 54.5995 27.9358L54.4465 36.7187Z" fill="#8FC43E"/>
<path d="M70.9639 38.3845C70.811 38.233 70.8109 38.0816 70.658 37.9302H69.8933C69.8933 38.0816 70.0463 38.233 70.0463 38.3845H70.9639Z" fill="#8FC43E"/>
<path d="M71.7288 39.7473C71.7288 39.5958 71.5759 39.4444 71.5759 39.4444L70.6582 39.293C70.6582 39.4444 70.8112 39.4444 70.8112 39.5958L71.7288 39.7473Z" fill="#8FC43E"/>
<path d="M70.0463 36.8701H69.4346C69.4346 36.8701 69.4346 37.0215 69.5875 37.0215H70.1993C70.0463 37.0215 70.0463 37.0215 70.0463 36.8701Z" fill="#8FC43E"/>
<path d="M79.07 34.4473L70.1995 35.8101C70.3524 35.9616 70.3524 35.9616 70.5053 36.113L80.2935 35.5073C79.8347 35.053 79.3758 34.7501 79.07 34.4473Z" fill="#8FC43E"/>
<path d="M68.9758 37.9302H66.2229L69.1287 38.233C69.1287 38.0816 69.1287 38.0816 68.9758 37.9302Z" fill="#8FC43E"/>
<path d="M69.5874 39.1417L68.2109 38.9902L69.7403 39.2931C69.7403 39.1417 69.5874 39.1417 69.5874 39.1417Z" fill="#8FC43E"/>
<path d="M68.3641 34.9014L67.9053 35.0528C67.9053 35.2042 68.0582 35.2042 68.0582 35.3557H68.517C68.517 35.0528 68.517 34.9014 68.3641 34.9014Z" fill="#8FC43E"/>
<path d="M69.2816 35.8101H68.8228L68.9757 35.9615H69.5875C69.4345 35.9615 69.2816 35.9615 69.2816 35.8101Z" fill="#8FC43E"/>
<path d="M93.1403 44.7445C89.6227 40.0501 83.1992 35.053 79.0698 32.1758C82.4345 34.9015 86.7168 38.8387 89.9285 43.8359C90.8462 44.1388 91.9167 44.4416 93.1403 44.7445Z" fill="#8FC43E"/>
<path d="M80.9052 36.2644L70.9641 36.8701C70.9641 37.0216 71.117 37.0216 71.117 37.173H81.8228C81.5169 36.8701 81.2111 36.5673 80.9052 36.2644Z" fill="#8FC43E"/>
<path d="M88.552 43.3816C85.799 39.293 82.1285 35.8101 79.2227 33.3872C83.0461 36.7187 85.4932 40.0501 85.952 42.7759C86.4108 42.9273 87.3284 43.0787 88.552 43.3816Z" fill="#8FC43E"/>
<path d="M69.5875 34.9013L78.1521 33.5385C77.8462 33.2356 77.5403 32.9327 77.0815 32.6299L69.1287 34.447C69.4345 34.7499 69.4345 34.9013 69.5875 34.9013Z" fill="#8FC43E"/>
<path d="M83.8109 39.7473C83.505 39.1416 83.0462 38.5359 82.4344 37.9302H71.5757C71.7286 38.0816 71.7286 38.3845 71.8816 38.5359L83.8109 39.7473Z" fill="#8FC43E"/>
<path d="M85.0343 42.473C84.8814 41.8673 84.5755 41.2616 84.2696 40.6558L72.3403 39.293C72.4933 39.4444 72.4933 39.5958 72.6462 39.7473L85.0343 42.473Z" fill="#8FC43E"/>
<path d="M73.411 63.6733H73.2581C72.4934 63.8248 71.7287 64.1276 70.964 64.4305C65.7641 66.5505 64.0817 68.822 63.9288 69.1248L63.47 76.5449L77.8463 70.3363L78.1522 63.5219C77.8463 63.3705 77.2345 63.0676 76.164 63.0676C75.5522 63.2191 74.4816 63.3705 73.411 63.6733Z" fill="#8FC43E"/>
<path d="M67.1406 33.8414C67.2936 33.9928 67.2936 34.1442 67.4465 34.2957L67.7524 34.1442C67.5994 33.9928 67.4465 33.8414 67.4465 33.6899L67.1406 33.8414Z" fill="#8FC43E"/>
<path d="M94.3636 45.0472C95.4342 45.3501 96.5048 45.653 97.4224 45.9558C90.3872 37.93 81.0579 32.1757 77.5403 30.0557C81.6697 32.9328 90.3872 39.1415 94.3636 45.0472Z" fill="#8FC43E"/>
<path d="M67.9052 36.2642C67.9052 36.1128 67.9052 36.1128 67.9052 36.2642L66.2229 36.4156L67.9052 36.2642Z" fill="#8FC43E"/>
<path d="M19.1174 7.18996L23.5527 5.97852V5.3728L19.1174 6.58424V7.18996Z" fill="#8FC43E"/>
<path d="M98.9519 46.41C100.022 46.7128 100.94 47.0157 101.705 47.3186C95.8931 40.0499 85.6461 33.6899 80.5991 30.9641C85.1873 33.8413 92.9872 39.2928 98.9519 46.41Z" fill="#8FC43E"/>
<path d="M68.6699 33.8414L76.3169 32.1757C76.1639 32.0242 76.011 31.8728 75.8581 31.8728L68.364 33.5385C68.517 33.69 68.517 33.8414 68.6699 33.8414Z" fill="#8FC43E"/>
<path d="M19.5764 20.8186L24.0117 19.6072V19.0015L19.5764 20.2129V20.8186Z" fill="#8FC43E"/>
<path d="M67.5993 32.7814L74.9404 31.1157C74.7875 30.9642 74.6346 30.8128 74.3287 30.6614L67.2935 32.4785C67.4464 32.63 67.5993 32.7814 67.5993 32.7814Z" fill="#8FC43E"/>
<path d="M19.5764 22.3328L24.0117 20.9699V20.5156L19.5764 21.7271V22.3328Z" fill="#8FC43E"/>
<path d="M19.4233 17.9412L23.8586 16.5784V15.9727L19.4233 17.1841V17.9412Z" fill="#8FC43E"/>
<path d="M19.7292 23.393L24.0116 22.1815V21.8787L19.7292 23.0901V23.393Z" fill="#8FC43E"/>
<path d="M19.7292 24.7558L24.1645 23.3929V23.0901L19.7292 24.3015V24.7558Z" fill="#8FC43E"/>
<path d="M19.2705 13.3983L23.7058 12.0354V11.4297L19.2705 12.6411V13.3983Z" fill="#8FC43E"/>
<path d="M19.2705 11.7328L23.7058 10.5213V9.76416L19.2705 11.127V11.7328Z" fill="#8FC43E"/>
<path d="M19.2705 10.2185L23.5528 9.00709V8.40137L19.2705 9.61281V10.2185Z" fill="#8FC43E"/>
<path d="M19.1174 8.70412L23.5527 7.49268V6.88696L19.1174 8.0984V8.70412Z" fill="#8FC43E"/>
<path d="M19.4233 16.4271L23.8586 15.0642V14.4585L19.4233 15.6699V16.4271Z" fill="#8FC43E"/>
<path d="M19.4233 14.9127L23.7057 13.5498V12.9441L19.4233 14.1555V14.9127Z" fill="#8FC43E"/>
<path d="M38.0819 20.5156H38.5408L38.8466 19.4556C35.1761 19.4556 31.6585 19.7584 28.1409 20.3641L28.4467 20.9699C29.6703 20.8184 33.1879 20.3641 38.0819 20.5156Z" fill="#8FC43E"/>
<path d="M19.5764 19.4557L23.8587 18.0928V17.4871L19.5764 18.6985V19.4557Z" fill="#8FC43E"/>
<path d="M63.0112 32.63L63.1642 32.7814L64.3877 32.4786L64.2348 32.3271L63.0112 32.63Z" fill="#8FC43E"/>
<path d="M64.0818 30.9641C64.2347 31.1155 64.3877 31.267 64.5406 31.267C64.3877 31.1155 64.2347 30.9641 64.0818 30.9641Z" fill="#8FC43E"/>
<path d="M65.458 30.9645L71.7285 28.9959C71.5756 28.9959 71.5756 28.8445 71.4226 28.8445L65.1521 30.6616C65.1521 30.8131 65.305 30.8131 65.458 30.9645Z" fill="#8FC43E"/>
<path d="M64.2347 30.056L70.3523 28.2388C70.1994 28.2388 70.1994 28.0874 70.0464 28.0874L64.0818 29.9046C64.0818 29.9046 64.2347 30.056 64.2347 30.056Z" fill="#8FC43E"/>
<path d="M29.0583 21.8787L31.1995 25.513C33.0348 25.0587 35.023 24.7558 37.0112 24.6044L38.2347 21.2729H38.0818C33.6465 21.2729 30.2819 21.5758 29.0583 21.8787Z" fill="#8FC43E"/>
<path d="M64.3875 34.4472C64.5404 34.5986 64.5404 34.7501 64.6933 34.9015L66.5286 34.4472C66.3757 34.2958 66.2227 34.1444 66.2227 33.9929L64.3875 34.4472Z" fill="#8FC43E"/>
<path d="M66.3758 32.7815H66.2229C66.3758 32.9329 66.3758 32.9329 66.5288 33.0844H66.8346C66.5288 32.9329 66.5288 32.9329 66.3758 32.7815Z" fill="#8FC43E"/>
<path d="M39.9173 19.4556H39.7644L39.4585 20.5156L39.9173 19.4556Z" fill="#8FC43E"/>
<path d="M50.0112 20.5158C47.5641 20.0615 44.9642 19.7586 42.5171 19.6072C41.9054 19.6072 41.2936 19.6072 40.8348 19.6072L40.376 20.6672C43.2818 20.8186 46.0347 21.1215 48.7877 21.7272L50.0112 20.5158Z" fill="#8FC43E"/>
<path d="M37.929 24.453L39.1525 21.2729L37.929 24.453Z" fill="#8FC43E"/>
<path d="M60.1054 23.3929C59.3408 23.09 58.729 22.9386 58.1172 22.6357C56.129 22.03 53.9879 21.4243 51.9996 20.97L50.7761 22.1814C53.3761 22.7871 55.6702 23.6957 57.9643 24.7557L60.1054 23.3929Z" fill="#8FC43E"/>
<path d="M66.6819 31.8727L73.5641 30.207C73.2583 30.0555 73.1053 29.9041 72.7994 29.7527L66.376 31.7213C66.376 31.7213 66.5289 31.7213 66.6819 31.8727Z" fill="#8FC43E"/>
<path d="M69.1288 27.4814H68.9758L64.0818 28.9957L69.1288 27.4814Z" fill="#8FC43E"/>
</g>
<defs>
<clipPath id="clip0_555_27">
<rect width="104" height="113" fill="white"/>
</clipPath>
</defs>
</svg>
