<svg width="299" height="218" viewBox="0 0 299 218" fill="none" xmlns="http://www.w3.org/2000/svg">
<g clip-path="url(#clip0_119_618)">
<path d="M137.36 145.766C136.918 145.333 136.477 144.901 135.594 144.468C135.594 145.333 135.594 146.631 135.152 147.929C136.035 147.496 136.477 147.496 136.918 147.063C136.918 146.631 137.36 146.198 137.36 145.766Z" fill="#AFDBEF"/>
<path d="M135.152 152.687L136.035 153.984C136.035 152.687 136.035 151.389 136.477 150.091C136.035 150.091 135.594 150.524 135.152 150.956C135.152 151.389 135.152 152.254 135.152 152.687Z" fill="#AFDBEF"/>
<path d="M134.71 142.306V143.171C135.152 143.171 135.152 142.738 135.593 142.738L134.71 142.306Z" fill="#AFDBEF"/>
<path d="M132.503 149.659C132.944 147.929 132.944 146.631 132.944 145.766C132.503 146.199 132.061 146.199 131.62 146.631C131.62 147.496 131.62 148.361 131.62 148.794L132.503 149.659Z" fill="#AFDBEF"/>
<path d="M131.179 143.603C131.62 143.171 132.503 143.171 132.944 142.738C132.503 142.306 131.62 141.873 131.179 141.44C131.62 142.306 131.179 142.738 131.179 143.603Z" fill="#AFDBEF"/>
<path d="M170.471 200.699C170.029 201.131 169.146 201.564 168.705 201.996C169.588 202.429 170.029 203.294 170.912 203.726C170.471 202.861 170.471 201.564 170.471 200.699Z" fill="#AFDBEF"/>
<path d="M168.705 184.262C168.263 184.262 167.822 184.695 166.939 184.695C166.497 186.857 166.056 189.02 166.056 191.183C167.38 190.318 168.705 189.885 170.029 189.02C170.471 187.723 170.471 186.857 170.471 186.425C170.471 185.992 169.588 185.127 168.705 184.262Z" fill="#AFDBEF"/>
<path d="M123.673 140.575L124.998 141.873C124.998 141.008 124.998 140.143 124.998 139.278C124.556 139.71 124.115 139.71 123.673 140.143C123.673 139.71 123.673 140.143 123.673 140.575Z" fill="#AFDBEF"/>
<path d="M123.673 136.683C124.115 136.25 124.556 136.25 124.998 136.25C124.556 135.818 124.115 135.385 123.673 135.385C123.673 135.385 123.673 136.25 123.673 136.683Z" fill="#AFDBEF"/>
<path d="M107.338 146.631L100.716 164.798C105.572 165.23 109.987 165.23 114.843 165.23C124.998 165.23 133.827 164.365 141.774 163.068L125.439 146.199C123.232 145.766 113.519 146.631 107.338 146.631Z" fill="#AFDBEF"/>
<path d="M152.811 164.365C152.811 163.933 152.37 163.933 152.37 163.5C152.37 163.933 152.37 164.365 151.928 164.365C152.37 164.365 152.811 164.365 152.811 164.365Z" fill="#AFDBEF"/>
<path d="M166.497 194.211C166.497 197.238 166.938 198.969 167.38 200.266C168.263 199.401 169.146 198.969 170.029 198.536C170.029 196.373 170.029 194.643 170.029 192.48C168.704 192.913 167.38 193.346 166.497 194.211Z" fill="#AFDBEF"/>
<path d="M122.349 139.278C121.907 139.278 121.907 139.71 121.466 139.71H121.024L121.907 140.575C122.349 140.143 122.349 139.71 122.349 139.278Z" fill="#AFDBEF"/>
<path d="M105.572 144.036H106.455C107.338 144.036 108.663 144.036 109.987 144.036C114.402 144.036 120.141 143.603 123.232 143.603L118.375 138.845C114.402 139.278 107.338 139.71 99.8331 139.71L87.0302 163.5C89.2376 163.933 92.7694 164.365 98.0672 164.798L105.572 144.036Z" fill="#AFDBEF"/>
<path d="M121.024 137.98C121.024 137.115 121.024 136.682 121.024 135.817C120.583 135.817 120.141 136.25 119.7 136.25V136.682L121.024 137.98Z" fill="#AFDBEF"/>
<path d="M119.7 131.925V134.088C120.141 133.655 120.583 133.655 121.024 133.222C121.024 132.79 120.141 132.357 119.7 131.925Z" fill="#AFDBEF"/>
<path d="M83.4985 173.448C85.2645 173.881 89.2378 174.746 96.3015 175.611V173.448C90.1208 173.016 85.2645 172.151 83.4985 172.151V173.448Z" fill="#AFDBEF"/>
<path d="M117.934 177.774C120.141 177.774 122.79 178.206 124.997 178.206V174.313C122.79 174.313 120.141 174.313 117.934 174.313V177.774Z" fill="#AFDBEF"/>
<path d="M127.647 178.207C129.854 178.207 132.503 178.207 134.711 178.207V173.449C132.503 173.449 129.854 173.881 127.647 173.881V178.207Z" fill="#AFDBEF"/>
<path d="M107.78 173.881V176.909C110.429 176.909 112.637 177.341 115.285 177.341V173.881H114.844C112.637 174.313 110.429 174.313 107.78 173.881Z" fill="#AFDBEF"/>
<path d="M98.5089 176.044C100.716 176.476 102.924 176.476 105.573 176.909V174.313C103.365 174.313 100.716 173.881 98.5089 173.881V176.044Z" fill="#AFDBEF"/>
<path d="M147.955 169.556L143.54 165.23C135.152 166.961 125.439 167.826 114.844 167.826C100.716 167.826 89.2378 166.528 86.1474 166.096L83.94 169.988C88.3548 170.853 99.8333 172.151 114.844 172.151C126.322 171.719 137.359 170.853 147.955 169.556Z" fill="#AFDBEF"/>
<path d="M127.205 140.143C127.647 139.71 128.088 139.71 128.53 139.278C128.088 138.845 127.647 138.413 127.205 138.413C127.205 138.845 127.205 139.278 127.205 140.143Z" fill="#AFDBEF"/>
<path d="M147.514 155.714L139.125 147.496C138.684 151.389 138.242 154.849 138.684 156.579L146.189 164.365C146.631 161.337 147.514 157.445 147.514 155.714Z" fill="#AFDBEF"/>
<path d="M137.359 178.206C140.45 178.206 143.981 178.206 147.072 178.206L148.396 171.718C144.864 172.151 140.891 172.583 136.918 173.016V178.206H137.359Z" fill="#AFDBEF"/>
<path d="M127.205 144.468L128.53 145.766L128.971 145.333C128.971 144.036 128.971 142.738 128.971 141.873C128.53 142.306 127.647 142.306 127.205 142.738C127.205 143.171 127.205 144.036 127.205 144.468Z" fill="#AFDBEF"/>
<path d="M173.561 205.889C174.443 205.024 175.768 204.159 177.092 203.294C177.092 201.564 177.092 199.401 177.092 197.238C175.326 198.103 174.002 198.536 172.678 199.401C172.678 201.564 173.119 203.726 173.561 205.889Z" fill="#AFDBEF"/>
<path d="M177.534 192.48C176.651 191.615 175.768 191.182 174.885 190.317C174.002 190.75 173.561 190.75 172.678 191.182C172.237 192.913 172.237 195.075 172.237 196.805C173.561 195.94 175.327 195.075 177.093 194.643C177.534 193.778 177.534 192.913 177.534 192.48Z" fill="#AFDBEF"/>
<path d="M177.534 205.889C177.093 206.322 176.21 206.754 175.768 207.187C176.651 207.619 177.093 208.052 177.976 208.484C177.534 207.619 177.534 206.754 177.534 205.889Z" fill="#AFDBEF"/>
<path d="M155.901 170.853C156.343 170.853 156.784 170.421 156.784 170.421C156.784 169.988 156.343 169.988 156.343 169.556C156.343 169.988 156.343 170.421 155.901 170.853Z" fill="#AFDBEF"/>
<path d="M164.29 198.103C164.29 197.238 163.848 196.373 163.848 195.076C163.407 195.508 162.965 195.941 162.082 195.941C162.965 196.806 163.407 197.671 164.29 198.103Z" fill="#AFDBEF"/>
<path d="M159.875 188.155C159.875 190.318 159.875 192.48 160.317 194.643C161.2 193.778 162.524 193.345 163.848 192.48C163.848 190.318 164.29 188.155 164.731 185.992C162.965 186.425 161.641 187.29 159.875 188.155Z" fill="#AFDBEF"/>
<path d="M158.992 177.774C159.433 176.044 159.875 174.746 159.875 173.881C159.433 173.449 158.992 172.583 158.55 172.151C157.226 172.583 156.343 173.016 155.46 173.448C155.018 175.611 154.577 178.206 154.135 179.937C155.46 179.504 157.226 178.639 158.992 177.774Z" fill="#AFDBEF"/>
<path d="M165.614 181.234C164.731 180.369 164.29 179.504 163.407 178.639C162.524 179.071 161.641 179.071 160.758 179.504C160.317 181.234 159.875 183.397 159.875 185.127C161.641 184.262 163.407 183.829 164.731 182.964C165.614 182.532 165.614 181.666 165.614 181.234Z" fill="#AFDBEF"/>
<path d="M13.7442 153.119L18.159 151.389L17.7175 150.524L13.7442 153.119Z" fill="#AFDBEF"/>
<path d="M149.721 158.742C149.279 161.337 148.838 165.23 149.279 167.393C149.721 164.365 150.604 161.77 150.604 160.472C150.162 160.04 149.721 159.175 149.721 158.742Z" fill="#AFDBEF"/>
<path d="M4.91481 109.865L2.26593 110.298C0.941481 114.191 0.5 117.651 0.5 121.544C0.5 132.357 4.91482 142.306 13.303 151.822L19.4837 147.496C9.32963 136.683 6.23926 126.734 4.91481 120.679C4.47333 115.488 4.91481 112.028 4.91481 109.865Z" fill="#AFDBEF"/>
<path d="M54.3607 92.5637L42.4407 90.8335C41.9993 91.266 37.5844 96.4565 36.7015 103.81L50.3874 102.08C50.8289 98.6192 52.1533 95.5914 54.3607 92.5637Z" fill="#AFDBEF"/>
<path d="M70.2538 79.1548C74.6687 76.5596 79.9664 74.3969 85.7057 72.6667L76.8761 57.5278C75.5516 57.9604 74.2272 57.9604 72.4612 58.3929L72.9027 66.6112L56.5679 71.8016L41.999 69.2064C34.0524 73.0993 26.9886 77.8572 21.2494 83.0477L57.4509 88.2381C60.9827 85.2104 64.9561 81.75 70.2538 79.1548Z" fill="#AFDBEF"/>
<path d="M34.0526 107.27C34.0526 106.837 34.0526 106.837 34.0526 106.405L7.56367 109.865C7.12219 111.163 6.68071 115.056 7.56367 120.679C8.44664 126.734 11.9785 136.25 21.6911 146.631L46.414 129.762C38.4674 122.409 34.494 115.056 34.0526 107.27Z" fill="#AFDBEF"/>
<path d="M23.8985 105.107L34.0526 103.81C34.4941 97.3217 38.0259 92.1312 39.3504 89.9685L31.8452 88.6709C30.5207 90.8336 26.1059 96.4566 23.8985 105.107Z" fill="#AFDBEF"/>
<path d="M49.9459 104.675L36.7015 106.405C36.7015 106.838 36.7015 106.837 36.7015 107.27C37.143 114.623 41.1163 121.544 48.6215 128.464L56.5681 123.274C52.1533 118.084 49.9459 112.461 49.9459 106.838C49.9459 105.54 49.9459 105.107 49.9459 104.675Z" fill="#AFDBEF"/>
<path d="M53.4778 15.139L53.0363 4.75807L42.4407 3.46045V5.62315L40.2333 6.05569V12.5438L53.4778 15.139Z" fill="#AFDBEF"/>
<path d="M57.4508 132.357V125.004L24.7811 147.063L57.4508 132.357Z" fill="#AFDBEF"/>
<path d="M54.3605 41.0915V39.3614L41.1161 36.7661L41.5576 38.4963L54.3605 41.0915Z" fill="#AFDBEF"/>
<path d="M53.9195 28.1154V26.3853L40.675 23.79V25.5202L53.9195 28.1154Z" fill="#AFDBEF"/>
<path d="M55.2437 69.2064V68.3413L42.4407 65.7461V67.0437L55.2437 69.2064Z" fill="#AFDBEF"/>
<path d="M53.9191 32.4406V30.7105L41.1161 28.1152V29.8454L53.9191 32.4406Z" fill="#AFDBEF"/>
<path d="M40.675 15.1392V16.8693L53.478 19.4646V17.3019L40.675 15.1392Z" fill="#AFDBEF"/>
<path d="M53.478 23.7898V21.6271L40.675 19.4644V21.1945L53.478 23.7898Z" fill="#AFDBEF"/>
<path d="M53.9191 36.7658V35.0357L41.1161 32.4404V34.1706L53.9191 36.7658Z" fill="#AFDBEF"/>
<path d="M54.8025 58.3928V56.6626L41.9996 54.0674V56.2301L54.8025 58.3928Z" fill="#AFDBEF"/>
<path d="M55.244 62.2859L54.8025 60.9883L41.9996 58.3931V60.1232L55.244 62.2859Z" fill="#AFDBEF"/>
<path d="M55.244 65.746V64.8809L41.9996 62.2856L42.4411 63.5833L55.244 65.746Z" fill="#AFDBEF"/>
<path d="M54.8022 54.0676V52.3374L41.5578 49.7422L41.9993 51.9049L54.8022 54.0676Z" fill="#AFDBEF"/>
<path d="M54.3608 45.4167V43.254L41.5578 41.0913V42.8215L54.3608 45.4167Z" fill="#AFDBEF"/>
<path d="M54.8022 49.7424L54.3608 48.0122L41.5578 45.417V47.1471L54.8022 49.7424Z" fill="#AFDBEF"/>
<path d="M29.1963 88.6706L17.2763 86.9404C10.654 93.4285 5.79775 100.349 3.14886 107.702L21.6911 105.54C23.0155 97.3214 26.9889 91.6984 29.1963 88.6706Z" fill="#AFDBEF"/>
<path d="M157.667 191.615C157.667 190.75 157.667 189.885 157.667 189.02C157.226 189.453 156.784 189.453 156.343 189.885L156.784 190.318C156.784 190.75 157.226 191.183 157.667 191.615Z" fill="#AFDBEF"/>
<path d="M158.55 180.802C156.784 181.667 155.46 182.532 154.135 183.397C154.135 184.695 154.135 185.992 154.135 186.857C154.577 187.29 154.577 187.722 155.018 188.155C155.46 187.722 156.784 187.29 158.109 186.425C157.667 184.695 158.109 182.532 158.55 180.802Z" fill="#AFDBEF"/>
<path d="M166.497 203.294C162.082 199.401 158.109 195.941 156.343 193.778L155.901 195.941C157.667 198.536 169.146 211.945 181.507 218L181.949 213.242C177.093 211.079 172.236 208.052 166.939 203.726C166.939 203.726 166.939 203.726 166.497 203.294Z" fill="#AFDBEF"/>
<path d="M154.136 166.095C153.253 166.528 152.37 166.528 151.487 166.96C151.487 167.825 151.487 169.123 151.487 169.988V170.853L150.604 173.448C151.487 173.016 151.928 172.583 153.253 172.151C153.694 169.556 154.577 167.825 154.577 166.96L154.136 166.095Z" fill="#AFDBEF"/>
<path d="M180.625 209.782C181.066 210.214 181.508 210.214 181.949 210.647L182.391 202.861C181.508 203.294 180.625 203.726 179.742 204.159C179.742 206.322 180.183 208.052 180.625 209.782Z" fill="#AFDBEF"/>
<path d="M149.279 179.504C149.721 179.937 150.162 181.234 151.045 182.532C151.045 182.532 151.487 182.532 151.487 182.099C151.487 179.937 151.928 177.774 152.37 175.179C151.045 176.044 150.162 176.476 149.721 176.476L149.279 179.504Z" fill="#AFDBEF"/>
<path d="M179.742 196.373C179.742 198.104 179.742 200.266 179.742 201.996C181.066 201.131 181.949 200.699 182.832 200.266L183.274 196.373C182.832 195.941 182.391 195.941 181.949 195.508C181.066 195.941 180.183 195.941 179.742 196.373Z" fill="#AFDBEF"/>
<path d="M134.71 122.841C135.152 123.274 135.593 123.274 136.035 123.274C135.593 123.274 135.593 122.841 134.71 122.841Z" fill="#DEDEDE"/>
<path d="M136.035 141.873C136.918 141.873 137.801 141.441 138.684 141.441C138.684 141.008 139.125 140.143 139.125 139.71C138.242 139.71 137.359 139.71 136.476 139.71C136.476 140.576 136.035 141.008 136.035 141.873Z" fill="#DEDEDE"/>
<path d="M127.647 134.952C128.53 134.52 129.854 134.52 130.737 134.087C130.737 133.655 131.179 133.222 131.179 132.79C130.296 132.79 129.413 133.222 128.53 133.222C128.088 134.087 128.088 134.52 127.647 134.952Z" fill="#DEDEDE"/>
<path d="M133.828 130.195C134.711 130.195 135.594 130.195 136.477 130.195C136.477 129.762 136.477 129.33 136.918 128.897C136.035 128.897 135.152 128.897 134.269 128.897C134.269 128.897 134.269 129.762 133.828 130.195Z" fill="#DEDEDE"/>
<path d="M129.413 126.302C130.296 126.302 131.179 126.302 132.061 126.302C132.061 125.869 132.061 125.869 132.061 125.437C131.179 125.437 130.296 125.437 129.413 125.437C129.413 125.437 129.413 125.869 129.413 126.302Z" fill="#DEDEDE"/>
<path d="M128.971 130.627C129.854 130.627 130.737 130.195 131.62 130.195C131.62 129.329 131.62 128.897 132.062 128.464C131.179 128.464 130.296 128.464 129.413 128.464C128.971 129.329 128.971 130.195 128.971 130.627Z" fill="#DEDEDE"/>
<path d="M133.386 133.655C134.269 133.655 135.152 133.655 136.035 133.222C136.035 132.79 136.035 132.357 136.476 131.925C135.593 131.925 134.71 131.925 133.827 131.925C133.386 132.79 133.386 133.222 133.386 133.655Z" fill="#DEDEDE"/>
<path d="M132.061 137.98C132.944 137.548 133.827 137.548 134.71 137.548C134.71 137.115 135.152 136.683 135.152 136.25C134.269 136.25 133.386 136.25 132.503 136.683C132.503 137.115 132.503 137.548 132.061 137.98Z" fill="#DEDEDE"/>
<path d="M140.45 135.817C139.567 135.817 138.684 135.817 137.801 135.817C137.801 136.25 137.359 136.682 137.359 137.115C138.242 137.115 139.125 137.115 140.008 137.115C140.008 136.682 140.45 136.25 140.45 135.817Z" fill="#DEDEDE"/>
<path d="M164.29 150.956C165.614 150.956 166.497 150.524 167.821 150.524C167.821 149.659 167.821 149.226 167.38 148.793C166.056 148.793 165.173 148.793 164.29 149.226C164.29 149.659 164.29 150.091 164.29 150.956Z" fill="#DEDEDE"/>
<path d="M134.269 126.302C135.152 126.302 136.035 126.302 136.918 126.302V125.869C136.035 125.869 135.152 125.869 134.269 125.437C134.269 125.437 134.269 125.869 134.269 126.302Z" fill="#DEDEDE"/>
<path d="M164.29 156.147C165.614 156.147 166.939 155.714 168.263 155.714C168.263 155.282 168.263 155.282 168.263 154.849C168.263 153.984 168.263 153.552 168.263 153.119C166.939 153.119 165.614 153.552 164.29 153.552C164.29 153.984 164.29 154.849 164.29 156.147Z" fill="#DEDEDE"/>
<path d="M148.838 153.551C151.045 151.389 156.343 146.198 164.731 143.603L156.343 138.413C147.513 139.71 142.215 143.171 140.449 144.901L148.838 153.551Z" fill="#DEDEDE"/>
<path d="M164.29 161.77C165.614 161.77 167.38 161.337 168.704 161.337C168.704 160.04 168.704 159.175 168.704 157.877C167.38 157.877 165.614 158.309 164.29 158.309C164.29 159.607 164.29 160.472 164.29 161.77Z" fill="#DEDEDE"/>
<path d="M164.29 146.631C165.173 146.631 166.056 146.631 167.38 146.199C167.38 145.766 167.38 145.766 167.38 145.766C166.056 146.199 165.173 146.199 164.29 146.631Z" fill="#DEDEDE"/>
<path d="M127.205 125.004C126.763 125.004 126.322 125.004 125.88 125.004H125.439C125.439 125.436 125.439 125.869 125.439 126.734C125.88 126.734 126.763 126.734 127.205 126.734C127.205 125.869 127.205 125.436 127.205 125.004Z" fill="#DEDEDE"/>
<path d="M124.114 131.925C124.997 131.492 125.439 131.492 126.322 131.492C126.322 130.627 126.763 129.762 126.763 128.897C126.322 128.897 125.439 128.897 124.997 129.33C124.556 130.195 124.556 131.06 124.114 131.925Z" fill="#DEDEDE"/>
<path d="M121.024 129.762C121.466 130.195 121.466 130.195 121.907 130.627C121.907 130.195 121.907 129.762 122.349 129.762C121.907 129.33 121.466 129.762 121.024 129.762Z" fill="#DEDEDE"/>
<path d="M122.791 126.302C122.349 126.734 121.908 127.167 121.466 127.167C121.908 127.167 122.349 127.167 122.791 127.167C122.791 126.734 122.791 126.302 122.791 126.302Z" fill="#DEDEDE"/>
<path d="M125.439 121.976C128.53 120.679 131.179 120.246 133.386 120.246C135.593 120.246 136.918 121.111 137.359 121.111C137.801 120.679 137.801 120.246 137.801 119.814C136.476 116.353 132.503 112.893 126.764 110.298C120.583 107.702 112.636 106.405 104.69 106.405C96.743 106.405 88.7963 107.702 82.6156 110.298C76.8763 112.893 72.903 115.921 71.5786 119.814C74.6689 127.599 88.7963 133.222 104.69 133.222C109.104 133.222 113.078 132.79 117.051 131.925V129.762C117.493 129.329 117.493 125.437 125.439 121.976Z" fill="#DEDEDE"/>
<path d="M105.131 104.242C120.142 104.242 133.386 109 138.684 115.921C137.359 107.27 122.79 100.782 105.131 100.782C87.4719 100.782 72.903 107.702 71.5786 115.921C76.8763 109 90.1208 104.242 105.131 104.242Z" fill="#DEDEDE"/>
<path d="M140.891 133.655C140.891 133.222 140.891 132.79 141.333 132.79C140.45 132.79 139.567 132.79 138.684 132.79C138.684 133.222 138.684 133.655 138.242 133.655C139.125 133.655 140.008 133.655 140.891 133.655Z" fill="#DEDEDE"/>
<path d="M150.162 134.087C149.279 134.087 148.838 133.655 147.955 133.655C147.955 134.087 147.955 134.52 147.955 134.952C148.838 134.952 149.279 135.385 150.162 135.385C150.162 134.52 150.162 134.087 150.162 134.087Z" fill="#DEDEDE"/>
<path d="M149.721 137.98C149.721 137.548 149.721 137.548 149.721 137.98C149.28 137.548 148.397 137.115 147.514 137.115C147.514 137.548 147.514 137.548 147.514 137.98C148.397 137.98 148.838 138.413 149.28 138.413C149.28 137.98 149.28 137.98 149.721 137.98Z" fill="#DEDEDE"/>
<path d="M143.981 130.627C144.864 130.627 145.306 130.627 146.189 131.06V130.627L145.747 129.762C145.306 129.762 144.864 129.762 144.423 129.33C144.423 129.762 143.981 130.195 143.981 130.627Z" fill="#DEDEDE"/>
<path d="M152.37 135.385V135.817C152.811 135.817 153.253 136.25 153.253 136.25C153.253 135.817 152.811 135.817 152.37 135.385Z" fill="#DEDEDE"/>
<path d="M144.423 139.71C143.54 139.71 142.657 139.71 141.774 139.71C141.774 140.143 141.333 140.576 141.333 141.441C141.774 141.441 142.216 141.441 142.216 141.441C143.099 140.576 143.54 140.143 144.423 139.71Z" fill="#DEDEDE"/>
<path d="M139.125 130.195C140.008 130.195 140.891 130.195 141.774 130.195C141.774 129.762 141.774 129.329 142.215 128.897C141.332 128.897 140.449 128.464 139.566 128.464C139.125 129.329 139.125 129.762 139.125 130.195Z" fill="#DEDEDE"/>
<path d="M139.567 126.302C140.008 126.302 140.45 126.302 140.891 126.302C140.891 126.302 140.45 126.302 140.45 125.869C140.45 126.302 140.008 126.302 139.567 126.302Z" fill="#DEDEDE"/>
<path d="M140.45 125.004C140.008 124.572 139.125 124.139 138.684 123.707V124.572H139.125C139.567 124.572 140.008 125.004 140.45 125.004Z" fill="#DEDEDE"/>
<path d="M145.306 136.683C144.423 136.683 143.54 136.25 143.099 136.25C143.099 136.683 143.099 137.115 142.657 137.115C143.54 137.115 144.423 137.115 144.865 137.548C144.865 137.115 145.306 136.683 145.306 136.683Z" fill="#DEDEDE"/>
<path d="M143.981 128.032C144.864 128.032 145.306 128.464 145.747 128.464C144.864 128.032 144.423 127.599 143.981 127.167V128.032Z" fill="#DEDEDE"/>
<path d="M145.747 133.222C144.864 133.222 144.423 133.222 143.54 132.79C143.54 133.222 143.54 133.655 143.099 133.655C143.981 133.655 144.423 133.655 145.306 134.087C145.747 133.655 145.747 133.222 145.747 133.222Z" fill="#DEDEDE"/>
<path d="M191.661 182.964C193.869 182.532 195.635 182.532 197.401 182.099C197.401 181.234 197.842 180.369 197.842 179.504C196.076 179.504 193.869 179.504 192.103 179.936C192.103 180.802 191.661 182.099 191.661 182.964Z" fill="#DEDEDE"/>
<path d="M184.598 171.718C186.364 171.718 188.571 171.286 190.337 171.286C190.337 169.988 190.337 169.123 190.337 167.825C188.571 167.825 186.805 167.825 185.039 167.825C185.039 169.123 184.598 170.42 184.598 171.718Z" fill="#DEDEDE"/>
<path d="M193.427 156.147C192.544 155.714 192.103 155.282 191.22 155.282C191.22 155.714 191.22 155.714 191.22 156.147C192.103 155.714 192.544 155.714 193.427 156.147Z" fill="#DEDEDE"/>
<path d="M192.103 160.905C193.869 160.905 195.193 160.905 196.518 161.337C196.518 160.472 196.076 159.607 196.076 159.175C194.752 159.175 192.986 158.742 191.661 158.742C192.103 159.175 192.103 160.04 192.103 160.905Z" fill="#DEDEDE"/>
<path d="M185.039 165.663C185.48 165.663 185.922 165.663 186.363 165.663C187.688 165.663 189.012 165.663 190.337 165.663C190.337 164.798 190.337 163.932 190.337 163.067C188.571 163.067 187.246 163.067 185.48 163.067C185.039 163.932 185.039 164.798 185.039 165.663Z" fill="#DEDEDE"/>
<path d="M197.842 168.69C196.076 168.69 194.31 168.258 192.544 168.258C192.544 169.123 192.544 170.42 192.544 171.286C194.31 171.286 196.076 171.286 197.842 171.718C197.842 170.853 197.842 169.555 197.842 168.69Z" fill="#DEDEDE"/>
<path d="M192.545 165.663C194.311 165.663 195.635 165.663 197.401 166.095C197.401 165.23 196.959 164.365 196.959 163.5C195.635 163.5 193.869 163.5 192.103 163.067C192.545 163.932 192.545 164.798 192.545 165.663Z" fill="#DEDEDE"/>
<path d="M195.634 184.694C193.868 184.694 192.544 185.127 190.778 185.559C190.337 186.424 190.337 187.29 189.895 188.155C192.103 187.29 193.868 185.992 195.634 184.694Z" fill="#DEDEDE"/>
<path d="M189.013 183.397C189.454 182.099 189.454 181.234 189.454 179.937C187.247 179.937 185.039 180.369 182.832 180.802C182.39 182.099 182.39 183.829 181.949 185.127C184.598 184.694 186.805 183.829 189.013 183.397Z" fill="#DEDEDE"/>
<path d="M190.337 173.881C188.571 173.881 186.364 173.881 184.156 174.313C184.156 175.611 183.715 177.341 183.273 178.639C185.481 178.206 187.688 178.206 189.454 177.774C190.337 176.476 190.337 175.178 190.337 173.881Z" fill="#DEDEDE"/>
<path d="M185.039 160.472C186.805 160.472 188.129 160.472 189.895 160.472C189.895 159.607 189.454 158.742 189.454 157.877C187.688 157.877 186.363 157.444 185.039 157.444C185.039 158.742 185.039 159.607 185.039 160.472Z" fill="#DEDEDE"/>
<path d="M189.013 155.714C189.013 154.849 188.571 153.984 188.571 153.552L187.247 153.119C186.805 153.119 185.922 153.119 184.156 152.687C184.156 153.552 184.598 154.417 184.598 155.282C185.922 155.282 187.688 155.282 189.013 155.714Z" fill="#DEDEDE"/>
<path d="M207.555 172.583C208.879 173.016 210.645 173.016 211.969 173.449C211.969 172.583 211.528 171.286 211.528 170.421C210.203 169.988 208.879 169.988 207.555 169.556C207.555 170.853 207.555 171.718 207.555 172.583Z" fill="#DEDEDE"/>
<path d="M207.996 177.341C209.321 177.341 211.087 177.774 212.411 177.774C212.411 177.341 212.411 176.476 212.411 176.044C211.087 175.611 209.321 175.611 207.996 175.179C207.996 176.044 207.996 176.909 207.996 177.341Z" fill="#DEDEDE"/>
<path d="M215.943 176.909C215.502 176.909 215.06 176.476 214.619 176.476C214.619 176.909 214.619 176.909 214.619 177.341C215.06 177.341 215.502 177.341 215.943 176.909Z" fill="#DEDEDE"/>
<path d="M223.006 176.476C223.448 176.909 223.448 176.909 223.006 176.476C222.123 175.611 221.241 174.313 219.916 173.448C219.916 174.313 220.358 174.746 220.358 175.611C222.123 176.043 223.006 176.476 223.006 176.476Z" fill="#DEDEDE"/>
<path d="M210.645 167.825C210.204 166.96 210.204 166.095 210.204 165.663C209.321 165.23 208.438 164.365 207.555 163.933C207.114 163.933 206.672 163.933 205.789 163.933C206.231 164.798 206.231 166.095 206.231 166.96C207.997 167.393 209.321 167.825 210.645 167.825Z" fill="#DEDEDE"/>
<path d="M222.123 177.774C221.682 177.774 220.799 177.341 219.916 176.909V177.774C220.358 177.774 221.241 177.774 222.123 177.774Z" fill="#DEDEDE"/>
<path d="M217.709 175.178C217.267 173.881 217.267 172.583 216.826 171.718C215.943 171.286 214.618 171.286 213.735 170.853C213.735 172.151 214.177 173.016 214.177 173.881C215.501 174.313 216.826 174.746 217.709 175.178Z" fill="#DEDEDE"/>
<path d="M200.049 182.099C200.932 182.099 201.374 182.099 201.374 182.099C202.257 181.667 203.581 181.234 204.906 180.802H205.347V180.369C203.581 180.369 201.815 180.369 200.049 180.369C200.049 180.369 200.049 181.234 200.049 182.099Z" fill="#DEDEDE"/>
<path d="M203.14 161.337C201.816 160.472 200.491 159.607 199.167 158.742C199.167 159.175 199.608 160.04 199.608 160.905C200.933 161.337 201.816 161.337 203.14 161.337Z" fill="#DEDEDE"/>
<path d="M200.049 166.528C201.374 166.528 203.14 166.96 204.464 166.96C204.464 166.095 204.023 164.798 204.023 163.933C202.698 163.933 201.374 163.5 200.049 163.5C200.049 164.365 200.049 165.663 200.049 166.528Z" fill="#DEDEDE"/>
<path d="M198.725 157.877C198.283 157.444 197.842 157.444 197.4 157.012V157.877H198.725Z" fill="#DEDEDE"/>
<path d="M200.491 177.341C202.257 177.341 204.023 177.341 205.347 177.341C205.347 176.476 205.347 175.611 205.347 174.746C203.581 174.313 202.257 174.313 200.491 174.313C200.491 175.179 200.491 176.044 200.491 177.341Z" fill="#DEDEDE"/>
<path d="M200.491 171.718C202.257 171.718 203.581 172.151 204.906 172.151C204.906 171.286 204.464 169.988 204.464 169.123C203.14 169.123 201.815 168.69 200.049 168.69C200.491 169.988 200.491 170.853 200.491 171.718Z" fill="#DEDEDE"/>
<path d="M198.283 173.881C196.518 173.881 194.752 173.881 192.986 173.448C192.986 174.746 192.986 176.043 192.544 177.341C194.31 177.341 196.076 177.341 198.283 176.909C198.283 176.043 198.283 175.178 198.283 173.881Z" fill="#DEDEDE"/>
<path d="M175.327 147.063C175.768 147.063 175.768 147.063 176.21 147.063C175.768 146.631 174.885 146.631 174.444 146.631V147.063H175.327Z" fill="#DEDEDE"/>
<path d="M156.784 150.524C156.343 150.524 156.343 150.524 156.784 150.524C155.901 151.389 155.018 151.822 154.135 152.687V153.119C155.018 152.687 155.901 152.687 156.784 152.254C156.784 151.389 156.784 150.956 156.784 150.524Z" fill="#DEDEDE"/>
<path d="M155.46 163.5C155.902 162.202 156.343 160.905 156.343 160.04C155.019 160.472 154.136 160.472 153.694 160.905C154.136 161.337 154.577 162.635 155.46 163.5Z" fill="#DEDEDE"/>
<path d="M156.343 157.444C156.343 156.579 156.343 155.714 156.343 154.849C155.46 155.282 154.577 155.282 153.694 155.714C153.694 156.579 153.694 157.444 153.694 158.309C154.577 157.877 155.46 157.444 156.343 157.444Z" fill="#DEDEDE"/>
<path d="M161.641 164.365C160.316 164.798 158.992 164.798 157.667 165.23C157.667 165.663 157.667 166.095 157.226 166.528C157.667 167.393 158.55 168.258 159.433 169.556C159.875 169.556 160.316 169.123 161.199 169.123C161.199 167.826 161.641 166.095 161.641 164.365Z" fill="#DEDEDE"/>
<path d="M168.263 180.369C168.704 180.802 169.146 181.234 169.587 181.667C170.47 181.234 171.795 180.802 173.119 180.802C173.561 179.072 174.002 177.341 174.444 175.611C172.678 176.044 171.353 176.476 169.587 176.909C169.146 177.774 169.146 179.072 168.704 179.937L168.263 180.369Z" fill="#DEDEDE"/>
<path d="M158.109 162.635C159.433 162.202 160.316 162.202 161.641 161.77C161.641 160.472 161.641 159.607 161.641 158.31C160.758 158.31 159.433 158.742 158.55 158.742C158.55 160.472 158.55 161.77 158.109 162.635Z" fill="#DEDEDE"/>
<path d="M168.263 169.556C167.38 169.556 166.938 169.988 166.056 169.988C165.173 170.421 164.29 170.421 163.407 170.853C163.407 171.718 162.965 173.016 162.965 173.881C163.407 174.746 163.848 175.179 164.731 176.044C165.614 175.611 166.497 175.179 167.821 175.179C167.38 173.016 167.821 171.286 168.263 169.556Z" fill="#DEDEDE"/>
<path d="M162.082 151.389C162.082 150.524 162.082 150.091 162.082 149.659C161.199 149.659 160.316 150.091 159.433 150.091C159.433 150.524 159.433 151.389 159.433 151.821C159.875 151.389 160.758 151.389 162.082 151.389Z" fill="#DEDEDE"/>
<path d="M162.082 156.147C162.082 155.282 162.082 154.417 162.082 153.552C161.199 153.552 160.316 153.984 159.433 153.984C159.433 154.849 159.433 155.714 159.433 156.58C159.875 156.58 160.758 156.58 162.082 156.147Z" fill="#DEDEDE"/>
<path d="M185.922 191.615C185.922 191.615 186.363 191.183 186.805 191.183C187.246 189.453 188.129 187.722 188.571 185.992C186.363 186.425 183.715 187.29 181.507 187.722C181.066 189.02 180.624 190.318 180.183 191.183C180.624 191.615 181.507 192.048 181.949 192.48C184.156 192.48 185.481 192.048 185.922 191.615Z" fill="#DEDEDE"/>
<path d="M182.39 168.258C180.624 168.258 179.3 168.258 177.534 168.69C177.534 169.988 177.093 171.286 177.093 173.016C178.859 172.583 180.624 172.583 181.949 172.151C182.39 170.421 182.39 169.123 182.39 168.258Z" fill="#DEDEDE"/>
<path d="M175.768 179.936C177.534 179.504 179.3 179.071 181.066 178.639C181.507 176.909 181.507 175.611 181.949 173.881C180.183 173.881 178.417 174.313 176.651 174.746C176.651 176.476 176.21 178.206 175.768 179.936Z" fill="#DEDEDE"/>
<path d="M175.327 160.905C175.327 159.607 175.327 158.742 175.327 157.877C174.002 157.877 172.236 157.877 170.912 157.877C170.912 158.742 170.912 160.04 170.912 161.337C172.678 160.905 174.002 160.905 175.327 160.905Z" fill="#DEDEDE"/>
<path d="M175.327 163.067C173.561 163.067 172.236 163.067 170.912 163.5C170.912 164.798 170.912 165.663 170.912 166.96C172.236 166.528 174.002 166.528 175.327 166.528C175.327 165.23 175.327 163.932 175.327 163.067Z" fill="#DEDEDE"/>
<path d="M180.624 181.234C178.858 181.666 176.651 182.099 174.885 182.532C174.443 183.829 174.443 184.694 174.002 185.992C174.443 186.424 174.885 186.857 175.326 187.289C176.651 186.857 177.975 186.424 179.3 185.992C179.741 184.262 180.183 182.964 180.624 181.234Z" fill="#DEDEDE"/>
<path d="M170.47 152.687C170.47 153.119 170.47 153.984 170.47 154.417C170.47 154.849 170.47 154.849 170.47 155.282C171.795 155.282 173.119 155.282 174.885 155.282C174.885 154.417 174.444 153.552 174.444 152.687C173.119 152.687 171.795 152.687 170.47 152.687Z" fill="#DEDEDE"/>
<path d="M177.976 166.095C179.742 166.095 181.066 165.663 182.832 165.663C182.832 164.798 182.832 163.932 182.832 163.067C181.066 163.067 179.742 163.067 177.976 163.067C177.976 163.932 177.976 164.798 177.976 166.095Z" fill="#DEDEDE"/>
<path d="M168.704 163.5C166.938 163.5 165.614 163.933 164.289 163.933C164.289 165.23 163.848 166.96 163.848 168.258C164.289 168.258 164.731 167.825 165.614 167.825C166.497 167.393 167.38 167.393 168.704 167.393C168.263 166.095 168.704 164.798 168.704 163.5Z" fill="#DEDEDE"/>
<path d="M176.651 150.091C177.976 150.091 179.3 150.091 181.066 150.091C179.741 149.659 178.417 148.794 177.093 148.361C177.093 148.361 177.093 148.361 176.651 148.361C176.21 149.226 176.651 149.659 176.651 150.091Z" fill="#DEDEDE"/>
<path d="M178.417 188.587C177.976 188.587 177.534 189.02 177.093 189.02C177.534 189.452 177.534 189.452 177.976 189.885C178.417 189.452 178.417 189.02 178.417 188.587Z" fill="#DEDEDE"/>
<path d="M174.003 150.091C174.003 149.659 173.561 148.794 173.561 148.361C172.678 148.361 171.354 148.361 170.029 148.361C170.029 148.794 170.029 149.659 170.471 150.091C171.354 150.091 172.678 150.091 174.003 150.091Z" fill="#DEDEDE"/>
<path d="M175.327 168.69C173.561 168.69 172.237 169.123 170.912 169.123C170.912 170.853 170.471 172.151 170.029 173.881C171.795 173.448 173.12 173.016 174.886 172.583C174.886 171.718 174.886 169.988 175.327 168.69Z" fill="#DEDEDE"/>
<path d="M177.534 155.282H177.976C179.3 155.282 180.624 155.282 181.949 155.282C181.949 154.417 181.949 153.552 181.507 152.687C179.741 152.687 178.417 152.687 176.651 152.687C177.093 153.552 177.534 154.417 177.534 155.282Z" fill="#DEDEDE"/>
<path d="M177.534 157.444C177.534 158.309 177.534 159.607 177.534 160.472C179.3 160.472 180.624 160.472 182.39 160.472C182.39 159.607 182.39 158.309 182.39 157.444C181.066 157.444 179.3 157.444 177.534 157.444Z" fill="#DEDEDE"/>
<path d="M79.5249 57.0952L88.3545 71.8016L79.5249 57.0952Z" fill="#DEDEDE"/>
<path d="M90.1208 73.9642L89.2378 74.3967H88.7963L89.6793 92.9959C91.0037 92.5634 92.3282 92.5634 93.6526 92.1309L93.2111 73.0991C91.8867 73.5317 91.0037 73.5317 90.1208 73.9642Z" fill="#DEDEDE"/>
<path d="M95.4188 72.6668L96.7433 91.6986C98.5092 91.266 99.8336 91.266 101.158 91.266L100.275 71.8018C98.5092 72.2343 96.7433 72.6668 95.4188 72.6668Z" fill="#DEDEDE"/>
<path d="M82.6155 76.1272L83.4985 94.2939C84.8229 93.8613 86.1474 93.4288 87.0304 93.4288L86.1474 74.8296C85.2644 75.2621 83.94 75.6947 82.6155 76.1272Z" fill="#DEDEDE"/>
<path d="M55.6852 14.7066L68.4882 11.2463L68.0467 1.29785L55.2437 4.75817L55.6852 14.7066Z" fill="#DEDEDE"/>
<path d="M54.8022 2.59524L62.7489 0.43254L57.0096 0L47.7385 1.73016L54.8022 2.59524Z" fill="#DEDEDE"/>
<path d="M52.153 106.405C52.153 107.27 52.153 108.135 52.153 108.568C59.6582 102.945 69.8123 98.1866 81.2908 95.1589L80.4078 76.9922C62.7486 83.9128 52.153 94.7263 52.153 106.405Z" fill="#DEDEDE"/>
<path d="M178.417 118.083C178.859 118.516 178.859 118.516 179.3 118.948L180.625 92.9959C180.183 92.5634 180.183 92.1309 179.742 92.1309L178.417 118.083Z" fill="#DEDEDE"/>
<path d="M179.741 85.6431L177.534 86.5081C177.534 86.5081 177.534 86.5081 177.975 86.5081L179.741 85.6431C180.183 86.0756 179.741 86.0756 179.741 85.6431Z" fill="#DEDEDE"/>
<path d="M182.832 87.8057L179.742 88.6707C180.183 89.1033 180.625 89.5358 181.066 89.5358L184.157 88.6707C183.715 88.2382 183.274 88.2382 182.832 87.8057Z" fill="#DEDEDE"/>
<path d="M174.444 114.623C174.885 115.056 175.768 115.488 176.21 115.921L177.534 89.5359C177.093 89.1034 176.651 88.6708 175.768 88.2383L174.444 114.623Z" fill="#DEDEDE"/>
<path d="M166.939 108.568C167.38 109 168.263 109.433 168.704 109.865L169.587 83.9129C169.146 83.4804 168.704 83.0479 167.822 83.0479L166.939 108.568Z" fill="#DEDEDE"/>
<path d="M181.949 121.544C182.39 121.976 182.832 122.409 182.832 122.841L184.598 97.754C184.156 96.8889 183.715 96.4564 183.273 95.5913L181.949 121.544Z" fill="#DEDEDE"/>
<path d="M170.912 111.595C171.353 112.028 171.795 112.028 172.236 112.46L173.561 86.5081C173.119 86.0755 172.678 85.643 171.795 85.2104L170.912 111.595Z" fill="#DEDEDE"/>
<path d="M249.054 123.274L248.612 141.441L298.5 150.091C299.383 144.468 298.941 138.413 297.175 137.548C294.526 135.818 270.686 128.897 249.054 123.274Z" fill="#DEDEDE"/>
<path d="M189.895 93.8612C189.454 93.4286 189.454 93.4286 189.012 92.9961L185.039 93.8612C185.039 93.8612 185.48 94.2937 185.48 94.7263L189.895 93.8612Z" fill="#DEDEDE"/>
<path d="M162.082 105.972C162.965 106.405 163.848 106.837 164.29 107.27L165.614 81.7498C164.731 81.3172 164.29 80.8847 163.407 80.4521L162.082 105.972Z" fill="#DEDEDE"/>
<path d="M189.895 130.194L246.405 141.008L246.846 122.409L190.778 110.73L189.895 130.194Z" fill="#DEDEDE"/>
<path d="M194.311 98.6191L188.571 99.9168L194.752 99.4842C194.752 99.0517 194.752 99.0517 194.311 98.6191Z" fill="#DEDEDE"/>
<path d="M185.039 125.004C185.922 125.869 186.805 127.167 187.246 127.599L188.129 109C188.129 106.405 187.688 104.242 186.363 101.647L185.039 125.004Z" fill="#DEDEDE"/>
<path d="M148.396 98.6193C149.279 99.0518 150.162 99.4844 151.045 99.9169L151.487 75.6947C150.604 75.2621 149.721 75.2621 148.838 74.8296L148.396 98.6193Z" fill="#DEDEDE"/>
<path d="M128.088 92.996C128.971 92.996 129.854 93.4286 130.737 93.4286V71.3691C129.854 71.3691 128.53 71.3691 127.647 70.9365L128.088 92.996Z" fill="#DEDEDE"/>
<path d="M122.349 70.5039L122.79 91.6984C123.673 91.6984 124.998 92.1309 125.881 92.1309V70.5039C124.556 70.5039 123.232 70.5039 122.349 70.5039Z" fill="#DEDEDE"/>
<path d="M133.386 71.3691V93.8612C134.269 94.2937 135.152 94.2937 136.035 94.7263V71.8017C135.152 71.8017 134.269 71.8017 133.386 71.3691Z" fill="#DEDEDE"/>
<path d="M116.168 59.2578L112.636 67.9086C114.402 67.9086 116.61 67.9086 118.376 67.9086C122.791 67.9086 127.205 68.3411 131.62 68.7737L139.125 61.8531C132.062 60.5554 124.115 59.6904 116.168 59.2578Z" fill="#DEDEDE"/>
<path d="M110.871 70.9364H109.105L109.988 90.8333H111.312C112.195 90.8333 113.078 90.8333 113.52 90.8333L113.078 70.5039C112.637 70.5039 111.754 70.5039 110.871 70.9364Z" fill="#DEDEDE"/>
<path d="M116.168 70.5039L116.61 91.2658C117.934 91.2658 119.259 91.6984 120.583 91.6984L119.7 70.5039C118.376 70.5039 117.051 70.5039 116.168 70.5039Z" fill="#DEDEDE"/>
<path d="M138.242 72.2344V95.159C139.125 95.5915 140.008 95.5915 140.891 96.0241V72.6669C140.008 72.6669 139.125 72.6669 138.242 72.2344Z" fill="#DEDEDE"/>
<path d="M102.482 71.369L103.365 90.8333C104.69 90.8333 106.014 90.8333 107.78 90.4007L106.897 70.5039C105.573 71.369 103.807 71.369 102.482 71.369Z" fill="#DEDEDE"/>
<path d="M143.54 96.8888C144.423 97.3213 144.864 97.3213 145.747 97.7539L146.189 73.9642C145.306 73.5317 144.423 73.5317 143.54 73.0991V96.8888Z" fill="#DEDEDE"/>
<path d="M153.253 101.214C154.136 101.647 154.577 102.079 155.46 102.079L155.901 77.4246C155.018 76.9921 154.577 76.9921 153.694 76.5596L153.253 101.214Z" fill="#DEDEDE"/>
<path d="M135.152 69.2062L137.36 67.0435L135.152 69.2062Z" fill="#DEDEDE"/>
<path d="M172.678 83.0476L196.959 75.2619C190.337 71.8016 183.715 68.7738 177.093 66.1786L167.822 70.9365L167.38 70.504C160.758 67.4762 153.253 64.881 145.306 62.7183L138.242 69.2064C149.721 71.3691 159.875 74.8294 168.704 80.0199C170.029 81.3175 171.353 82.1826 172.678 83.0476Z" fill="#DEDEDE"/>
<path d="M157.667 103.377C158.55 103.809 158.991 104.242 159.874 104.674L161.199 79.5872C160.316 79.1546 159.433 78.7221 158.109 78.2896L157.667 103.377Z" fill="#DEDEDE"/>
<path d="M205.789 108.135C205.347 107.702 205.347 107.27 204.906 106.837H202.698C202.698 107.27 203.14 107.702 203.14 108.135H205.789Z" fill="#DEDEDE"/>
<path d="M207.555 112.028C207.555 111.595 207.113 111.163 207.113 111.163L204.464 110.73C204.464 111.163 204.906 111.163 204.906 111.595L207.555 112.028Z" fill="#DEDEDE"/>
<path d="M202.699 103.81H200.933C200.933 103.81 200.933 104.242 201.374 104.242H203.14C203.14 104.242 203.14 104.242 202.699 103.81Z" fill="#DEDEDE"/>
<path d="M228.746 96.8887L203.581 100.349C204.023 100.782 204.023 100.782 204.464 101.214L232.719 99.4839C230.953 98.6188 230.07 97.7538 228.746 96.8887Z" fill="#DEDEDE"/>
<path d="M200.05 106.837H192.103L200.491 107.702C200.05 107.27 200.05 107.27 200.05 106.837Z" fill="#DEDEDE"/>
<path d="M201.816 110.298L197.842 109.865L202.257 110.73C201.816 110.298 201.816 110.298 201.816 110.298Z" fill="#DEDEDE"/>
<path d="M198.284 98.1865L196.959 98.6191C196.959 99.0516 197.401 99.0516 197.401 99.4841H198.725C198.725 98.6191 198.284 98.1865 198.284 98.1865Z" fill="#DEDEDE"/>
<path d="M200.491 100.782H199.167L199.608 101.214H201.374C200.933 101.214 200.933 101.214 200.491 100.782Z" fill="#DEDEDE"/>
<path d="M269.362 126.302C259.208 112.893 240.666 98.6191 228.746 90.4009C238.459 98.1866 250.82 109.433 260.091 123.706C262.74 124.572 266.272 125.437 269.362 126.302Z" fill="#DEDEDE"/>
<path d="M234.485 102.08L205.789 103.81C205.789 104.242 206.231 104.242 206.231 104.675H237.134C236.251 103.81 235.368 102.945 234.485 102.08Z" fill="#DEDEDE"/>
<path d="M256.118 122.409C248.171 110.73 237.576 100.782 229.187 93.8613C240.224 103.377 247.288 112.893 248.613 120.679C250.379 121.111 253.027 121.544 256.118 122.409Z" fill="#DEDEDE"/>
<path d="M201.816 98.1863L226.539 94.2935C225.656 93.4284 224.773 92.5633 223.448 91.6982L200.491 96.8887C200.933 97.7538 201.374 98.1863 201.816 98.1863Z" fill="#DEDEDE"/>
<path d="M242.873 112.028C241.99 110.298 240.666 108.568 238.9 106.837H207.555C207.996 107.27 207.996 108.135 208.438 108.568L242.873 112.028Z" fill="#DEDEDE"/>
<path d="M246.406 119.813C245.964 118.083 245.081 116.353 244.198 114.623L209.763 110.73C210.204 111.163 210.204 111.595 210.646 112.028L246.406 119.813Z" fill="#DEDEDE"/>
<path d="M212.853 180.369H212.411C210.204 180.801 207.996 181.666 205.789 182.532C190.778 188.587 185.922 195.075 185.481 195.94L184.156 217.135L225.656 199.401L226.538 179.936C225.656 179.504 223.89 178.639 220.799 178.639C218.592 179.071 215.943 179.504 212.853 180.369Z" fill="#DEDEDE"/>
<path d="M194.31 95.1586C194.752 95.5912 194.752 96.0237 195.193 96.4562L196.076 96.0237C195.635 95.5912 195.193 95.1586 195.193 94.7261L194.31 95.1586Z" fill="#DEDEDE"/>
<path d="M273.335 127.167C276.426 128.032 279.516 128.897 282.165 129.762C261.857 106.837 234.926 90.4008 224.772 84.3452C236.251 92.5635 261.857 110.298 273.335 127.167Z" fill="#DEDEDE"/>
<path d="M196.959 102.079C196.518 101.647 196.518 101.647 196.959 102.079L192.103 102.512L196.959 102.079Z" fill="#DEDEDE"/>
<path d="M56.127 19.0318L68.4884 15.5715V13.8413L55.6855 17.3016L56.127 19.0318Z" fill="#DEDEDE"/>
<path d="M286.139 131.059C289.229 131.925 291.878 132.79 294.085 133.655C277.309 112.893 247.73 94.7261 233.161 86.9404C246.405 95.1587 268.921 110.73 286.139 131.059Z" fill="#DEDEDE"/>
<path d="M199.167 95.1587L221.241 90.4007C220.799 89.9682 220.358 89.5356 219.916 89.5356L198.284 94.2936C198.284 94.7261 198.725 95.1587 199.167 95.1587Z" fill="#DEDEDE"/>
<path d="M57.4511 57.9605L69.8126 54.5002V52.77L57.4511 56.2303V57.9605Z" fill="#DEDEDE"/>
<path d="M196.076 92.1307L217.267 87.3728C216.826 86.9403 216.384 86.5077 215.502 86.0752L195.193 91.2657C195.635 91.6982 195.635 92.1307 196.076 92.1307Z" fill="#DEDEDE"/>
<path d="M57.4511 62.2857L70.2541 58.3928V57.0952L57.4511 60.5555V62.2857Z" fill="#DEDEDE"/>
<path d="M57.01 49.7422L69.813 45.8493L69.3715 44.1191L57.01 47.5795V49.7422Z" fill="#DEDEDE"/>
<path d="M57.4511 65.3137L70.2541 61.8534V60.9883L57.4511 64.4486V65.3137Z" fill="#DEDEDE"/>
<path d="M57.8926 69.2062L70.2541 65.3133V64.4482L57.4511 67.9086L57.8926 69.2062Z" fill="#DEDEDE"/>
<path d="M56.5682 36.7661L69.3711 32.8732L68.9297 31.1431L56.5682 34.6034V36.7661Z" fill="#DEDEDE"/>
<path d="M56.5679 32.0078L68.9294 28.5475V26.3848L56.1265 30.2776L56.5679 32.0078Z" fill="#DEDEDE"/>
<path d="M56.1265 27.6827L68.9294 24.2223V22.4922L56.1265 25.9525V27.6827Z" fill="#DEDEDE"/>
<path d="M56.1265 23.357L68.9294 19.8967L68.4879 18.1665L56.1265 21.6268V23.357Z" fill="#DEDEDE"/>
<path d="M57.0097 45.4165L69.3711 41.5236V39.7935L56.5682 43.2538L57.0097 45.4165Z" fill="#DEDEDE"/>
<path d="M56.5682 41.0913L69.3711 37.1984V35.4683L56.5682 38.9286V41.0913Z" fill="#DEDEDE"/>
<path d="M110.429 57.0952H111.754L112.637 54.0674C102.041 54.0674 91.887 54.9325 81.7329 56.6626L82.6159 58.3928C86.1477 57.9602 96.7433 56.6626 110.429 57.0952Z" fill="#DEDEDE"/>
<path d="M57.01 54.0674L69.813 50.1745V48.4443L57.01 51.9047V54.0674Z" fill="#DEDEDE"/>
<path d="M182.832 91.6986L183.273 92.1311L186.805 91.266L186.364 90.8335L182.832 91.6986Z" fill="#DEDEDE"/>
<path d="M185.922 86.9404C186.364 87.373 186.805 87.8055 187.247 87.8055C186.364 87.373 185.922 86.9404 185.922 86.9404Z" fill="#DEDEDE"/>
<path d="M189.896 86.9403L207.996 81.3173C207.555 81.3173 207.555 80.8848 207.113 80.8848L189.013 86.0752C189.013 86.5078 189.454 86.5078 189.896 86.9403Z" fill="#DEDEDE"/>
<path d="M185.922 84.3452L203.581 79.1547C203.14 79.1547 203.14 78.7222 202.698 78.7222L185.481 83.9126C185.922 83.9126 185.922 84.3452 185.922 84.3452Z" fill="#DEDEDE"/>
<path d="M84.3811 60.988L90.5618 71.3689C95.8596 70.0713 101.599 69.2062 107.338 68.7737L110.87 59.2578H110.429C98.067 59.2578 88.3544 60.1229 84.3811 60.988Z" fill="#DEDEDE"/>
<path d="M186.805 96.8889C187.247 97.3215 187.247 97.754 187.688 98.1865L192.986 96.8889C192.544 96.4564 192.103 96.0238 192.103 95.5913L186.805 96.8889Z" fill="#DEDEDE"/>
<path d="M192.545 92.1309H192.103C192.545 92.5634 192.545 92.5634 192.986 92.9959H193.869C192.986 92.5634 192.545 92.5634 192.545 92.1309Z" fill="#DEDEDE"/>
<path d="M115.726 54.0674L114.402 57.0952H114.843L115.726 54.0674Z" fill="#DEDEDE"/>
<path d="M144.864 57.0952C137.801 55.7976 130.296 54.9325 123.232 54.5C121.466 54.5 119.7 54.5 118.376 54.5L117.051 57.5278C125.439 57.9603 133.386 58.8254 141.333 60.5556L144.864 57.0952Z" fill="#DEDEDE"/>
<path d="M109.987 68.3411L113.961 59.2578H113.519L109.987 68.3411Z" fill="#DEDEDE"/>
<path d="M174.002 65.3137C171.795 64.4486 170.029 64.0161 168.263 63.151C162.524 61.4208 156.343 59.6907 150.604 58.3931L147.072 61.8534C154.577 63.5835 161.199 66.1788 167.821 69.2066L174.002 65.3137Z" fill="#DEDEDE"/>
<path d="M192.986 89.5355L212.853 84.7776C211.97 84.3451 211.528 83.9125 210.645 83.48L192.103 89.103C192.545 89.103 192.545 89.103 192.986 89.5355Z" fill="#DEDEDE"/>
</g>
<defs>
<clipPath id="clip0_119_618">
<rect width="298" height="218" fill="white" transform="translate(0.5)"/>
</clipPath>
</defs>
</svg>
