<?xml version="1.0" encoding="utf-8"?>
<!-- Generator: Adobe Illustrator 27.0.0, SVG Export Plug-In . SVG Version: 6.00 Build 0)  -->
<svg version="1.1" id="Layer_1" xmlns="http://www.w3.org/2000/svg" xmlns:xlink="http://www.w3.org/1999/xlink" x="0px" y="0px"
	 viewBox="0 0 60 60" style="enable-background:new 0 0 60 60;" xml:space="preserve">
<style type="text/css">
	.st0{fill:#FFFFFF;}
	.st1{fill:#069EDA;}
</style>
<g>
	<path class="st0" d="M-78.98,26.5l-2-0.5c-0.38-1.47-0.96-2.85-1.71-4.12l1.07-1.78c0.97-0.97,0.97-2.56,0-3.54l-1.41-1.41
		c-0.97-0.97-2.56-0.97-3.54,0l-1.78,1.07c-1.27-0.75-2.66-1.33-4.12-1.71l-0.5-2c0-1.38-1.12-2.5-2.5-2.5h-2
		c-1.38,0-2.5,1.12-2.5,2.5l-0.5,2c-1.47,0.38-2.85,0.96-4.12,1.71l-1.78-1.07c-0.97-0.97-2.56-0.97-3.54,0l-1.41,1.41
		c-0.97,0.97-0.97,2.56,0,3.54l1.07,1.78c-0.75,1.27-1.33,2.66-1.71,4.12l-2,0.5c-1.38,0-2.5,1.12-2.5,2.5v2
		c0,1.38,1.12,2.5,2.5,2.5l2,0.5c0.38,1.47,0.96,2.85,1.71,4.12l-1.07,1.78c-0.97,0.97-0.97,2.56,0,3.54l1.41,1.41
		c0.97,0.97,2.56,0.97,3.54,0l1.78-1.07c1.27,0.75,2.66,1.33,4.12,1.71l0.5,2c0,1.38,1.12,2.5,2.5,2.5h2c1.38,0,2.5-1.12,2.5-2.5
		l0.5-2c1.47-0.38,2.85-0.96,4.12-1.71l1.78,1.07c0.97,0.97,2.56,0.97,3.54,0l1.41-1.41c0.97-0.97,0.97-2.56,0-3.54l-1.07-1.78
		c0.75-1.27,1.33-2.66,1.71-4.12l2-0.5c1.38,0,2.5-1.12,2.5-2.5v-2C-76.48,27.62-77.61,26.5-78.98,26.5z"/>
	<circle class="st1" cx="-96.48" cy="30" r="12.85"/>
	<circle class="st0" cx="-96.48" cy="30" r="10.17"/>
	<g>
		<g>
			<path class="st1" d="M-97.1,35.02c-0.9-0.11-1.98-0.51-2.72-1.18l1.04-1.61c0.79,0.6,1.46,0.88,2.15,0.88
				c0.83,0,1.19-0.32,1.19-0.98c0-1.46-4-1.5-4-4.23c0-1.53,0.87-2.58,2.33-2.88v-1.58h1.57v1.55c0.98,0.15,1.69,0.62,2.27,1.26
				l-1.18,1.36c-0.55-0.5-1.03-0.75-1.65-0.75c-0.71,0-1.08,0.25-1.08,0.92c0,1.35,4.01,1.28,4.01,4.16c0,1.47-0.79,2.62-2.38,2.97
				v1.59h-1.57V35.02z"/>
		</g>
	</g>
</g>
<polygon class="st0" points="50,-22.96 31.85,-22.96 31.85,-41.11 28.15,-41.11 28.15,-22.96 10,-22.96 10,-19.26 28.15,-19.26 
	28.15,-1.11 31.85,-1.11 31.85,-19.26 50,-19.26 "/>
<g>
	<path class="st0" d="M91.65,45.15c-0.4,0-0.78-0.14-1.14-0.43c-0.61-0.49-0.82-1.08-0.83-1.62c-0.58,0.47-1.65,0.9-2.71,0.04
		c-0.77-0.62-0.9-1.43-0.8-2.1c-0.42,0.27-1.43,0.52-2.49-0.37c-0.69-0.58-0.82-1.39-0.75-2.07c-0.42,0.2-0.8,0.25-0.83,0.25
		c-0.07,0-1.2,0.06-2-0.87c-0.8-0.94-0.4-2.39-0.38-2.45l0.05-0.1l1.57-2.21l-2.25-3.06l1.08-2.24l2.84,3.79
		c1-0.27,1.62,0.02,2.29,0.57c0.7,0.57,0.63,1.84,0.58,2.3l0.22,0.25c0.38-0.06,1.17-0.07,1.88,0.64c0.62,0.62,0.74,1.28,0.75,1.67
		c0.19,0.09,0.34,0.25,0.44,0.39c1.04-0.25,1.69,0.38,1.72,0.41c0.73,0.73,0.82,1.38,0.81,1.72l0.9,0.65c0.88,0.04,1.22,0.6,1.3,1
		l1.02,0.75c0.22,0.02,0.66,0.02,0.84-0.17c0.16-0.16,0.18-0.36,0.18-0.48l-3.65-2.93c-0.11-0.21-0.19-0.69,0.17-1.11
		c0.37-0.45,0.97-0.35,1.27-0.22l0.06,0.04l5.24,3.85c0.03,0.01,0.63,0.32,1.06-0.25c0.45-0.59-0.14-1.26-0.17-1.28l-5.78-4.4
		c-0.18-0.28-0.38-0.87,0.04-1.29c0.39-0.39,0.88-0.36,1.11-0.29l0.09,0.05l6.87,5.07c0.05,0.03,0.51,0.24,0.93-0.32
		c0.41-0.54,0.07-1.07-0.03-1.21l-7.57-5.73l-0.03-0.1c-0.03-0.08-0.23-0.83,0.21-1.27c0.46-0.46,1.29-0.11,1.38-0.07l0.06,0.04
		l7.27,5.5c0.09,0.06,1.06,0.66,1.61-0.17c0.6-0.9-0.19-1.77-0.22-1.81l-10.7-9.69c-0.63-0.38-1.26-0.51-1.82-0.36
		c-0.71,0.2-1.14,0.81-1.26,1.01c-0.05,0.95-0.77,2.17-0.8,2.23c-2.65,3.47-5.07,1.69-5.09,1.67c-0.92-0.49-0.76-1.51-0.54-1.98
		l0.03-0.07l0.07-0.05c0.2-0.15,0.44-1.28,0.5-2.41c-0.13-1.22,0.44-2.36,0.86-3h-3.89l1.19-2.55l6.19,0.03
		c0.4-0.3,1.94-1.33,4.28-1.33c2.35,0,3.27,0.51,3.5,0.67c2.57,0.89,4.22,0.73,4.23,0.73l0.23-0.02l0.1,0.21l5.49,11.75l-0.8,2.04
		c0.28,0.4,0.91,1.52,0.58,3.15c-0.34,1.71-2.07,2.18-2.78,2.31c-0.04,0.93-0.34,1.66-0.91,2.16c-0.73,0.65-1.71,0.76-2.24,0.74
		c-0.06,1.01-0.79,1.64-0.82,1.67c-1.34,1.19-2.88,0.79-3.77,0.27c-0.19,0.4-0.61,0.96-1.51,1.31c-1.08,0.41-2.02,0.05-2.47-0.2
		l-0.36,0.47c-0.03,0.04-0.65,0.81-1.53,0.92C91.78,45.14,91.72,45.15,91.65,45.15z M91.64,40.4l-1.08,1.83
		c-0.03,0.05-0.66,1.16,0.36,1.98c0.28,0.22,0.55,0.31,0.85,0.28c0.61-0.07,1.09-0.66,1.09-0.67l0.73-0.96l0.26,0.19
		c0.04,0.03,0.98,0.71,2.12,0.28c1.11-0.42,1.24-1.22,1.24-1.25l0.08-0.56l0.45,0.35c0.07,0.06,1.77,1.38,3.3,0.01
		c0.03-0.03,0.69-0.61,0.59-1.49l-0.05-0.42l0.42,0.06c0.01,0,1.29,0.16,2.1-0.56c0.47-0.42,0.7-1.08,0.69-1.95l-0.01-0.31
		l0.31-0.02c0.02,0,2.16-0.2,2.48-1.82c0.34-1.7-0.52-2.71-0.56-2.75l-0.13-0.15l0.84-2.14l-5.28-11.29
		c-0.57,0.02-2.12-0.02-4.33-0.79l-0.1-0.06c0,0-0.75-0.56-3.14-0.56c-2.43,0-3.94,1.24-3.96,1.25l-0.09,0.08l-6.01-0.03l-0.58,1.24
		h4.23l-0.47,0.54c-0.01,0.01-1.28,1.5-1.1,3.1c-0.03,0.59-0.17,2.34-0.68,2.88c-0.07,0.19-0.25,0.79,0.32,1.1
		c0.12,0.09,1.97,1.42,4.2-1.49c0.18-0.3,0.69-1.3,0.69-1.95v-0.08l0.04-0.07c0.02-0.04,0.57-1.08,1.69-1.4
		c0.74-0.21,1.55-0.05,2.39,0.47L106.33,33c0.43,0.46,1.02,1.56,0.3,2.64c-0.38,0.58-0.97,0.82-1.66,0.69
		c-0.49-0.09-0.86-0.34-0.88-0.35l-7.25-5.48c-0.21-0.09-0.52-0.14-0.61-0.05c-0.11,0.11-0.1,0.36-0.07,0.53l7.48,5.66
		c0.3,0.35,0.7,1.24,0.07,2.05c-0.64,0.83-1.47,0.67-1.81,0.46l-6.85-5.05c-0.08-0.01-0.25-0.01-0.4,0.14
		c-0.12,0.12-0.03,0.34,0.02,0.43l5.69,4.32c0.39,0.41,0.89,1.34,0.25,2.17c-0.64,0.83-1.55,0.62-1.94,0.4l-5.24-3.85
		c-0.08-0.03-0.35-0.1-0.47,0.05c-0.12,0.14-0.12,0.27-0.1,0.35l3.68,2.92l0.03,0.11c0.06,0.25,0.06,0.79-0.34,1.2
		c-0.48,0.48-1.38,0.36-1.48,0.35l-0.08-0.01l-1.39-1.03l-0.01-0.16c-0.01-0.09-0.07-0.54-0.78-0.54h-0.11L91.64,40.4z M87.82,39.16
		l-0.73,1.24c-0.03,0.06-0.78,1.35,0.3,2.23c1.05,0.85,1.98-0.11,2.08-0.22l2.08-2.08l-0.57-0.41l0.07-0.22
		c0-0.02,0.13-0.57-0.61-1.32c-0.02-0.02-0.51-0.47-1.3-0.18l-0.29,0.11l-0.13-0.28c-0.07-0.16-0.22-0.32-0.28-0.32l-0.48,0.08
		l0.1-0.47c0.01-0.03,0.13-0.73-0.54-1.41c-0.67-0.67-1.43-0.43-1.43-0.43l-0.21,0.07l-0.69-0.78l0.02-0.15
		c0.06-0.36,0.12-1.48-0.33-1.84c-0.59-0.48-1.04-0.67-1.9-0.38l-0.22,0.07l-2.47-3.29l-0.44,0.92l2.3,3.13l-1.81,2.54
		c-0.05,0.23-0.24,1.2,0.26,1.8c0.58,0.69,1.42,0.64,1.44,0.64l0,0c-0.01,0,0.85-0.12,1.2-0.67l0.57,0.32
		c-0.03,0.06-0.69,1.49,0.29,2.32c0.98,0.82,1.71,0.32,1.75,0.3L87.82,39.16z"/>
	<path class="st0" d="M111.09,30.26c-0.99,0-1.94-0.56-2.37-1.52l-4.68-10.19c-0.29-0.63-0.32-1.34-0.08-1.99
		c0.24-0.65,0.72-1.17,1.36-1.46c0.63-0.29,1.34-0.32,1.99-0.08c0.65,0.24,1.17,0.72,1.46,1.36l4.68,10.19
		c0.6,1.31,0.03,2.86-1.28,3.46l0,0C111.82,30.19,111.45,30.26,111.09,30.26z M106.4,15.51c-0.28,0-0.55,0.06-0.81,0.18
		c-0.47,0.22-0.84,0.61-1.02,1.1c-0.18,0.49-0.16,1.02,0.06,1.49l4.68,10.19c0.45,0.98,1.61,1.41,2.59,0.96l0,0
		c0.47-0.22,0.83-0.61,1.02-1.1c0.18-0.49,0.16-1.02-0.06-1.49l-4.68-10.19c-0.22-0.47-0.61-0.84-1.1-1.02
		C106.86,15.55,106.63,15.51,106.4,15.51z"/>
	<path class="st0" d="M76.29,30.26c-0.36,0-0.73-0.08-1.08-0.24h0c-1.31-0.6-1.88-2.15-1.28-3.46l4.68-10.19
		c0.29-0.63,0.81-1.11,1.46-1.36c0.65-0.24,1.36-0.21,1.99,0.08c0.63,0.29,1.11,0.81,1.36,1.46c0.24,0.65,0.22,1.36-0.08,1.99
		l-4.68,10.19C78.23,29.7,77.28,30.26,76.29,30.26z M75.48,29.43c0.98,0.45,2.14,0.02,2.59-0.96l4.68-10.19
		c0.22-0.47,0.24-1,0.06-1.49c-0.18-0.49-0.54-0.88-1.02-1.1c-0.47-0.22-1-0.24-1.49-0.06c-0.49,0.18-0.88,0.54-1.1,1.02
		l-4.68,10.19C74.08,27.82,74.51,28.98,75.48,29.43L75.48,29.43z"/>
</g>
<g>
	<rect x="14.72" y="35.99" class="st0" width="5.99" height="11.98"/>
	<rect x="39.29" y="24.01" class="st0" width="5.99" height="23.96"/>
	<rect x="31.1" y="18.02" class="st0" width="5.99" height="29.95"/>
	<rect x="22.91" y="12.03" class="st0" width="5.99" height="35.94"/>
</g>
</svg>
