<svg width="16" height="17" viewBox="0 0 16 17" fill="none" xmlns="http://www.w3.org/2000/svg">
<g clip-path="url(#clip0_120_1732)">
<path d="M14.1875 0.625H1.8125C1.36495 0.625 0.935725 0.80279 0.619257 1.11926C0.30279 1.43573 0.125 1.86495 0.125 2.3125L0.125 14.6875C0.125 15.1351 0.30279 15.5643 0.619257 15.8807C0.935725 16.1972 1.36495 16.375 1.8125 16.375H14.1875C14.6351 16.375 15.0643 16.1972 15.3807 15.8807C15.6972 15.5643 15.875 15.1351 15.875 14.6875V2.3125C15.875 1.86495 15.6972 1.43573 15.3807 1.11926C15.0643 0.80279 14.6351 0.625 14.1875 0.625ZM13.6113 11.431L13.0839 13.7161C13.0572 13.8323 12.9918 13.936 12.8985 14.0102C12.8052 14.0845 12.6895 14.1249 12.5703 14.125C6.94531 14.125 2.375 9.56488 2.375 3.92969C2.37918 3.81158 2.42117 3.69794 2.49477 3.60548C2.56837 3.51301 2.66971 3.44662 2.78387 3.41605L5.06902 2.88871C5.108 2.88047 5.14767 2.87588 5.1875 2.875C5.28948 2.88015 5.38822 2.9125 5.47347 2.96869C5.55872 3.02489 5.62737 3.10288 5.6723 3.19457L6.72699 5.65551C6.75282 5.72186 6.76721 5.79212 6.76953 5.86328C6.76095 6.01939 6.69153 6.16592 6.57617 6.27145L5.2441 7.36129C6.05122 9.07196 7.42804 10.4488 9.13871 11.2559L10.2286 9.92383C10.3341 9.80847 10.4806 9.73905 10.6367 9.73047C10.7079 9.73276 10.7781 9.74714 10.8445 9.77301L13.3054 10.8277C13.3972 10.8726 13.4752 10.9412 13.5314 11.0265C13.5876 11.1117 13.6199 11.2105 13.625 11.3125C13.6243 11.3523 13.6197 11.392 13.6113 11.431Z" fill="#8FC43E"/>
</g>
<defs>
<clipPath id="clip0_120_1732">
<rect width="16" height="17" fill="white"/>
</clipPath>
</defs>
</svg>
