<?xml version="1.0" encoding="utf-8"?>
<!-- Generator: Adobe Illustrator 27.0.0, SVG Export Plug-In . SVG Version: 6.00 Build 0)  -->
<svg version="1.1" id="Layer_1" xmlns="http://www.w3.org/2000/svg" xmlns:xlink="http://www.w3.org/1999/xlink" x="0px" y="0px"
	 viewBox="0 0 60 60" style="enable-background:new 0 0 60 60;" xml:space="preserve">
<style type="text/css">
	.st0{fill:#FFFFFF;}
	.st1{fill:#069EDA;}
</style>
<g>
	<path class="st0" d="M-78.98,26.5l-2-0.5c-0.38-1.47-0.96-2.85-1.71-4.12l1.07-1.78c0.97-0.97,0.97-2.56,0-3.54l-1.41-1.41
		c-0.97-0.97-2.56-0.97-3.54,0l-1.78,1.07c-1.27-0.75-2.66-1.33-4.12-1.71l-0.5-2c0-1.38-1.12-2.5-2.5-2.5h-2
		c-1.38,0-2.5,1.12-2.5,2.5l-0.5,2c-1.47,0.38-2.85,0.96-4.12,1.71l-1.78-1.07c-0.97-0.97-2.56-0.97-3.54,0l-1.41,1.41
		c-0.97,0.97-0.97,2.56,0,3.54l1.07,1.78c-0.75,1.27-1.33,2.66-1.71,4.12l-2,0.5c-1.38,0-2.5,1.12-2.5,2.5v2
		c0,1.38,1.12,2.5,2.5,2.5l2,0.5c0.38,1.47,0.96,2.85,1.71,4.12l-1.07,1.78c-0.97,0.97-0.97,2.56,0,3.54l1.41,1.41
		c0.97,0.97,2.56,0.97,3.54,0l1.78-1.07c1.27,0.75,2.66,1.33,4.12,1.71l0.5,2c0,1.38,1.12,2.5,2.5,2.5h2c1.38,0,2.5-1.12,2.5-2.5
		l0.5-2c1.47-0.38,2.85-0.96,4.12-1.71l1.78,1.07c0.97,0.97,2.56,0.97,3.54,0l1.41-1.41c0.97-0.97,0.97-2.56,0-3.54l-1.07-1.78
		c0.75-1.27,1.33-2.66,1.71-4.12l2-0.5c1.38,0,2.5-1.12,2.5-2.5v-2C-76.48,27.62-77.61,26.5-78.98,26.5z"/>
	<circle class="st1" cx="-96.48" cy="30" r="12.85"/>
	<circle class="st0" cx="-96.48" cy="30" r="10.17"/>
	<g>
		<g>
			<path class="st1" d="M-97.1,35.02c-0.9-0.11-1.98-0.51-2.72-1.18l1.04-1.61c0.79,0.6,1.46,0.88,2.15,0.88
				c0.83,0,1.19-0.32,1.19-0.98c0-1.46-4-1.5-4-4.23c0-1.53,0.87-2.58,2.33-2.88v-1.58h1.57v1.55c0.98,0.15,1.69,0.62,2.27,1.26
				l-1.18,1.36c-0.55-0.5-1.03-0.75-1.65-0.75c-0.71,0-1.08,0.25-1.08,0.92c0,1.35,4.01,1.28,4.01,4.16c0,1.47-0.79,2.62-2.38,2.97
				v1.59h-1.57V35.02z"/>
		</g>
	</g>
</g>
<polygon class="st0" points="44.7,28.64 31.36,28.64 31.36,15.3 28.64,15.3 28.64,28.64 15.3,28.64 15.3,31.36 28.64,31.36 
	28.64,44.7 31.36,44.7 31.36,31.36 44.7,31.36 "/>
<g>
	<path class="st0" d="M91.65,45.15c-0.4,0-0.78-0.14-1.14-0.43c-0.61-0.49-0.82-1.08-0.83-1.62c-0.58,0.47-1.65,0.9-2.71,0.04
		c-0.77-0.62-0.9-1.43-0.8-2.1c-0.42,0.27-1.43,0.52-2.49-0.37c-0.69-0.58-0.82-1.39-0.75-2.07c-0.42,0.2-0.8,0.25-0.83,0.25
		c-0.07,0-1.2,0.06-2-0.87c-0.8-0.94-0.4-2.39-0.38-2.45l0.05-0.1l1.57-2.21l-2.25-3.06l1.08-2.24l2.84,3.79
		c1-0.27,1.62,0.02,2.29,0.57c0.7,0.57,0.63,1.84,0.58,2.3l0.22,0.25c0.38-0.06,1.17-0.07,1.88,0.64c0.62,0.62,0.74,1.28,0.75,1.67
		c0.19,0.09,0.34,0.25,0.44,0.39c1.04-0.25,1.69,0.38,1.72,0.41c0.73,0.73,0.82,1.38,0.81,1.72l0.9,0.65c0.88,0.04,1.22,0.6,1.3,1
		l1.02,0.75c0.22,0.02,0.66,0.02,0.84-0.17c0.16-0.16,0.18-0.36,0.18-0.48l-3.65-2.93c-0.11-0.21-0.19-0.69,0.17-1.11
		c0.37-0.45,0.97-0.35,1.27-0.22l0.06,0.04l5.24,3.85c0.03,0.01,0.63,0.32,1.06-0.25c0.45-0.59-0.14-1.26-0.17-1.28l-5.78-4.4
		c-0.18-0.28-0.38-0.87,0.04-1.29c0.39-0.39,0.88-0.36,1.11-0.29l0.09,0.05l6.87,5.07c0.05,0.03,0.51,0.24,0.93-0.32
		c0.41-0.54,0.07-1.07-0.03-1.21l-7.57-5.73l-0.03-0.1c-0.03-0.08-0.23-0.83,0.21-1.27c0.46-0.46,1.29-0.11,1.38-0.07l0.06,0.04
		l7.27,5.5c0.09,0.06,1.06,0.66,1.61-0.17c0.6-0.9-0.19-1.77-0.22-1.81l-10.7-9.69c-0.63-0.38-1.26-0.51-1.82-0.36
		c-0.71,0.2-1.14,0.81-1.26,1.01c-0.05,0.95-0.77,2.17-0.8,2.23c-2.65,3.47-5.07,1.69-5.09,1.67c-0.92-0.49-0.76-1.51-0.54-1.98
		l0.03-0.07l0.07-0.05c0.2-0.15,0.44-1.28,0.5-2.41c-0.13-1.22,0.44-2.36,0.86-3h-3.89l1.19-2.55l6.19,0.03
		c0.4-0.3,1.94-1.33,4.28-1.33c2.35,0,3.27,0.51,3.5,0.67c2.57,0.89,4.22,0.73,4.23,0.73l0.23-0.02l0.1,0.21l5.49,11.75l-0.8,2.04
		c0.28,0.4,0.91,1.52,0.58,3.15c-0.34,1.71-2.07,2.18-2.78,2.31c-0.04,0.93-0.34,1.66-0.91,2.16c-0.73,0.65-1.71,0.76-2.24,0.74
		c-0.06,1.01-0.79,1.64-0.82,1.67c-1.34,1.19-2.88,0.79-3.77,0.27c-0.19,0.4-0.61,0.96-1.51,1.31c-1.08,0.41-2.02,0.05-2.47-0.2
		l-0.36,0.47c-0.03,0.04-0.65,0.81-1.53,0.92C91.78,45.14,91.72,45.15,91.65,45.15z M91.64,40.4l-1.08,1.83
		c-0.03,0.05-0.66,1.16,0.36,1.98c0.28,0.22,0.55,0.31,0.85,0.28c0.61-0.07,1.09-0.66,1.09-0.67l0.73-0.96l0.26,0.19
		c0.04,0.03,0.98,0.71,2.12,0.28c1.11-0.42,1.24-1.22,1.24-1.25l0.08-0.56l0.45,0.35c0.07,0.06,1.77,1.38,3.3,0.01
		c0.03-0.03,0.69-0.61,0.59-1.49l-0.05-0.42l0.42,0.06c0.01,0,1.29,0.16,2.1-0.56c0.47-0.42,0.7-1.08,0.69-1.95l-0.01-0.31
		l0.31-0.02c0.02,0,2.16-0.2,2.48-1.82c0.34-1.7-0.52-2.71-0.56-2.75l-0.13-0.15l0.84-2.14l-5.28-11.29
		c-0.57,0.02-2.12-0.02-4.33-0.79l-0.1-0.06c0,0-0.75-0.56-3.14-0.56c-2.43,0-3.94,1.24-3.96,1.25l-0.09,0.08l-6.01-0.03l-0.58,1.24
		h4.23l-0.47,0.54c-0.01,0.01-1.28,1.5-1.1,3.1c-0.03,0.59-0.17,2.34-0.68,2.88c-0.07,0.19-0.25,0.79,0.32,1.1
		c0.12,0.09,1.97,1.42,4.2-1.49c0.18-0.3,0.69-1.3,0.69-1.95v-0.08l0.04-0.07c0.02-0.04,0.57-1.08,1.69-1.4
		c0.74-0.21,1.55-0.05,2.39,0.47L106.33,33c0.43,0.46,1.02,1.56,0.3,2.64c-0.38,0.58-0.97,0.82-1.66,0.69
		c-0.49-0.09-0.86-0.34-0.88-0.35l-7.25-5.48c-0.21-0.09-0.52-0.14-0.61-0.05c-0.11,0.11-0.1,0.36-0.07,0.53l7.48,5.66
		c0.3,0.35,0.7,1.24,0.07,2.05c-0.64,0.83-1.47,0.67-1.81,0.46l-6.85-5.05c-0.08-0.01-0.25-0.01-0.4,0.14
		c-0.12,0.12-0.03,0.34,0.02,0.43l5.69,4.32c0.39,0.41,0.89,1.34,0.25,2.17c-0.64,0.83-1.55,0.62-1.94,0.4l-5.24-3.85
		c-0.08-0.03-0.35-0.1-0.47,0.05c-0.12,0.14-0.12,0.27-0.1,0.35l3.68,2.92l0.03,0.11c0.06,0.25,0.06,0.79-0.34,1.2
		c-0.48,0.48-1.38,0.36-1.48,0.35l-0.08-0.01l-1.39-1.03l-0.01-0.16c-0.01-0.09-0.07-0.54-0.78-0.54h-0.11L91.64,40.4z M87.82,39.16
		l-0.73,1.24c-0.03,0.06-0.78,1.35,0.3,2.23c1.05,0.85,1.98-0.11,2.08-0.22l2.08-2.08l-0.57-0.41l0.07-0.22
		c0-0.02,0.13-0.57-0.61-1.32c-0.02-0.02-0.51-0.47-1.3-0.18l-0.29,0.11l-0.13-0.28c-0.07-0.16-0.22-0.32-0.28-0.32l-0.48,0.08
		l0.1-0.47c0.01-0.03,0.13-0.73-0.54-1.41c-0.67-0.67-1.43-0.43-1.43-0.43l-0.21,0.07l-0.69-0.78l0.02-0.15
		c0.06-0.36,0.12-1.48-0.33-1.84c-0.59-0.48-1.04-0.67-1.9-0.38l-0.22,0.07l-2.47-3.29l-0.44,0.92l2.3,3.13l-1.81,2.54
		c-0.05,0.23-0.24,1.2,0.26,1.8c0.58,0.69,1.42,0.64,1.44,0.64l0,0c-0.01,0,0.85-0.12,1.2-0.67l0.57,0.32
		c-0.03,0.06-0.69,1.49,0.29,2.32c0.98,0.82,1.71,0.32,1.75,0.3L87.82,39.16z"/>
	<path class="st0" d="M111.09,30.26c-0.99,0-1.94-0.56-2.37-1.52l-4.68-10.19c-0.29-0.63-0.32-1.34-0.08-1.99
		c0.24-0.65,0.72-1.17,1.36-1.46c0.63-0.29,1.34-0.32,1.99-0.08c0.65,0.24,1.17,0.72,1.46,1.36l4.68,10.19
		c0.6,1.31,0.03,2.86-1.28,3.46l0,0C111.82,30.19,111.45,30.26,111.09,30.26z M106.4,15.51c-0.28,0-0.55,0.06-0.81,0.18
		c-0.47,0.22-0.84,0.61-1.02,1.1c-0.18,0.49-0.16,1.02,0.06,1.49l4.68,10.19c0.45,0.98,1.61,1.41,2.59,0.96l0,0
		c0.47-0.22,0.83-0.61,1.02-1.1c0.18-0.49,0.16-1.02-0.06-1.49l-4.68-10.19c-0.22-0.47-0.61-0.84-1.1-1.02
		C106.86,15.55,106.63,15.51,106.4,15.51z"/>
	<path class="st0" d="M76.29,30.26c-0.36,0-0.73-0.08-1.08-0.24h0c-1.31-0.6-1.88-2.15-1.28-3.46l4.68-10.19
		c0.29-0.63,0.81-1.11,1.46-1.36c0.65-0.24,1.36-0.21,1.99,0.08c0.63,0.29,1.11,0.81,1.36,1.46c0.24,0.65,0.22,1.36-0.08,1.99
		l-4.68,10.19C78.23,29.7,77.28,30.26,76.29,30.26z M75.48,29.43c0.98,0.45,2.14,0.02,2.59-0.96l4.68-10.19
		c0.22-0.47,0.24-1,0.06-1.49c-0.18-0.49-0.54-0.88-1.02-1.1c-0.47-0.22-1-0.24-1.49-0.06c-0.49,0.18-0.88,0.54-1.1,1.02
		l-4.68,10.19C74.08,27.82,74.51,28.98,75.48,29.43L75.48,29.43z"/>
</g>
<g>
	<rect x="-55.55" y="35.99" class="st0" width="5.99" height="11.98"/>
	<rect x="-30.99" y="24.01" class="st0" width="5.99" height="23.96"/>
	<rect x="-39.18" y="18.02" class="st0" width="5.99" height="29.95"/>
	<rect x="-47.37" y="12.03" class="st0" width="5.99" height="35.94"/>
</g>
<g>
	<path class="st0" d="M28.27,112.29c-0.38,0-0.74-0.13-1.07-0.4c-0.41-0.33-0.66-0.75-0.74-1.22c-0.27,0.17-0.64,0.33-1.07,0.33
		c-0.42,0-0.83-0.15-1.2-0.45c-0.52-0.42-0.78-1-0.76-1.64c-0.16,0.06-0.37,0.11-0.63,0.11c-0.49,0-0.96-0.19-1.41-0.57
		c-0.48-0.4-0.72-0.97-0.71-1.64c-0.26,0.09-0.47,0.12-0.51,0.13c-0.02,0-0.05,0-0.1,0c-0.25,0-1.11-0.06-1.74-0.8
		c-0.72-0.85-0.4-2.09-0.36-2.23l0.02-0.05l0.02-0.03l0.03-0.05l1.27-1.78l-1.78-2.43l-0.03-0.34l0.75-1.57l0.56-0.05l2.18,2.91
		c0.18-0.04,0.36-0.06,0.52-0.06c0.64,0,1.1,0.3,1.46,0.6c0.62,0.5,0.6,1.54,0.56,2.02l0.08,0.09c0.07-0.01,0.14-0.01,0.22-0.01
		c0.37,0,0.93,0.11,1.43,0.61c0.52,0.52,0.65,1.08,0.68,1.43c0.11,0.07,0.21,0.16,0.28,0.25c0.12-0.02,0.23-0.03,0.35-0.03
		c0.7,0,1.12,0.4,1.17,0.45c0.61,0.61,0.73,1.16,0.74,1.49l0.66,0.47c0.71,0.05,1.07,0.47,1.19,0.91l0.78,0.58c0.03,0,0.07,0,0.11,0
		c0.25,0,0.39-0.05,0.44-0.1c0.07-0.07,0.09-0.15,0.1-0.22l-2.99-2.39l-0.09-0.11c-0.11-0.22-0.19-0.69,0.16-1.12
		c0.18-0.22,0.44-0.34,0.74-0.34c0.26,0,0.48,0.09,0.52,0.11l0.03,0.02l0.05,0.03l4.43,3.26c0.05,0.02,0.15,0.06,0.28,0.06
		c0.16,0,0.3-0.07,0.42-0.23c0.27-0.35-0.03-0.76-0.12-0.86l-4.87-3.7l-0.08-0.08c-0.18-0.28-0.37-0.87,0.06-1.3
		c0.27-0.27,0.58-0.33,0.79-0.33c0.14,0,0.25,0.03,0.31,0.04l0.06,0.02l0.03,0.02l0.04,0.03l5.81,4.29
		c0.03,0.01,0.09,0.03,0.17,0.03c0.15,0,0.29-0.08,0.42-0.25c0.26-0.34,0.07-0.69-0.02-0.81l-6.37-4.82l-0.12-0.17l-0.01-0.04
		c-0.02-0.08-0.23-0.8,0.22-1.24c0.16-0.16,0.39-0.25,0.65-0.25c0.33,0,0.64,0.13,0.7,0.16l0.04,0.02l0.05,0.03l6.17,4.67
		c0,0,0.3,0.19,0.62,0.19c0.22,0,0.39-0.09,0.52-0.3c0.44-0.66-0.14-1.31-0.17-1.33l-9.06-8.2c-0.38-0.22-0.73-0.34-1.06-0.34
		c-0.12,0-0.24,0.02-0.36,0.05c-0.51,0.14-0.83,0.57-0.95,0.75c-0.06,0.83-0.63,1.81-0.7,1.92l-0.02,0.03
		c-1.19,1.55-2.34,1.88-3.1,1.88c-0.78-0.01-1.29-0.34-1.42-0.43c-0.83-0.46-0.77-1.38-0.53-1.9l0.11-0.15
		c0.15-0.15,0.33-0.99,0.38-1.92c-0.09-0.95,0.27-1.83,0.61-2.41h-2.76l-0.3-0.47l0.86-1.83l0.3-0.19l5.1,0.03
		c0.41-0.3,1.73-1.13,3.69-1.13c1.96,0,2.79,0.41,3.05,0.58c1.55,0.53,2.68,0.61,3.22,0.61c0.17,0,0.27-0.01,0.28-0.01l0.08-0.01
		l0.33,0.19l4.67,9.99l0.01,0.26l-0.63,1.59c0.27,0.41,0.74,1.37,0.47,2.73c-0.29,1.44-1.66,1.91-2.36,2.06
		c-0.05,0.78-0.33,1.39-0.82,1.83c-0.61,0.54-1.39,0.65-1.86,0.67c-0.11,0.84-0.71,1.36-0.74,1.38c-0.52,0.46-1.11,0.7-1.77,0.7
		c-0.59,0-1.1-0.19-1.47-0.38c-0.2,0.35-0.58,0.77-1.3,1.05c-0.29,0.11-0.6,0.17-0.91,0.17c-0.5,0-0.91-0.14-1.2-0.28l-0.22,0.29
		c-0.06,0.08-0.61,0.75-1.41,0.84C28.39,112.29,28.33,112.29,28.27,112.29z M27.92,108.98l-0.44,0.75
		c-0.05,0.09-0.48,0.87,0.27,1.47c0.17,0.14,0.34,0.21,0.52,0.21c0.03,0,0.05,0,0.08,0c0.37-0.04,0.72-0.38,0.82-0.51l0.52-0.68
		l0.46-0.06l0.09,0.07c0,0,0.46,0.33,1.06,0.33c0.2,0,0.4-0.04,0.59-0.11c0.85-0.32,0.95-0.91,0.96-0.94l0.03-0.19l0.53-0.21
		l0.15,0.12c0.01,0.01,0.63,0.5,1.4,0.5c0.44,0,0.84-0.16,1.2-0.49c0.01-0.01,0.52-0.47,0.45-1.12l-0.02-0.14l0.37-0.36l0.14,0.02
		c0.01,0,0.1,0.01,0.25,0.01c0.34,0,0.96-0.06,1.4-0.45c0.37-0.33,0.54-0.84,0.53-1.54l0-0.1l0.3-0.33l0.1-0.01
		c0.02,0,1.72-0.17,1.97-1.42c0.27-1.35-0.41-2.17-0.44-2.2l-0.04-0.05l-0.06-0.34l0.65-1.66l-4.41-9.44c-0.03,0-0.05,0-0.08,0
		c-0.59,0-1.84-0.09-3.55-0.68l-0.05-0.02l-0.03-0.02l-0.05-0.04c0,0,0,0,0,0c0,0-0.64-0.43-2.56-0.43c-1.99,0-3.25,1.02-3.26,1.03
		l-0.03,0.02l-0.21,0.08L22.58,90l-0.34,0.73h2.97l0.25,0.54l-0.16,0.18c-0.01,0.01-1.04,1.23-0.9,2.51l0,0.05
		c-0.02,0.46-0.13,1.97-0.6,2.5c-0.07,0.18-0.13,0.52,0.21,0.7l0.04,0.03c0.04,0.03,0.4,0.28,0.95,0.28c0.78,0,1.6-0.52,2.36-1.51
		c0.26-0.46,0.57-1.14,0.57-1.57l0.04-0.18c0.03-0.06,0.52-1,1.55-1.29c0.19-0.05,0.39-0.08,0.6-0.08c0.5,0,1.03,0.17,1.57,0.5
		l0.05,0.04l9.12,8.26c0.33,0.33,0.99,1.4,0.29,2.45c-0.3,0.45-0.74,0.69-1.26,0.69c-0.55,0-1-0.27-1.13-0.35l-6.15-4.65
		c-0.09-0.03-0.21-0.06-0.3-0.06c-0.04,0-0.05,0.01-0.05,0.01c0,0.01-0.02,0.1,0,0.23l6.27,4.75l0.05,0.05
		c0.23,0.27,0.7,1.14,0.07,1.95c-0.38,0.49-0.81,0.59-1.11,0.59c-0.32,0-0.57-0.12-0.63-0.15l-0.04-0.02l-5.76-4.26
		c-0.06,0-0.12,0.02-0.17,0.07c-0.01,0.02,0,0.08,0.03,0.15l4.81,3.65l0.04,0.04c0.47,0.5,0.73,1.35,0.2,2.03
		c-0.29,0.37-0.67,0.57-1.11,0.57c-0.4,0-0.71-0.17-0.75-0.19l-0.03-0.02l-4.41-3.24c-0.04-0.01-0.09-0.02-0.13-0.02
		c-0.04,0-0.06,0.01-0.07,0.02c-0.04,0.04-0.05,0.08-0.05,0.11l3.02,2.4l0.12,0.18l0.01,0.04c0.06,0.25,0.06,0.77-0.33,1.17
		c-0.3,0.3-0.74,0.36-1.07,0.36c-0.18,0-0.31-0.02-0.33-0.02l-0.17-0.06l-1.09-0.8l-0.13-0.25l0-0.05c-0.01-0.08-0.07-0.3-0.5-0.3
		h-0.04l-0.19-0.06l-1.06-0.77l-0.12-0.36l0.02-0.08c0,0,0.08-0.39-0.48-0.96c-0.01,0-0.2-0.19-0.54-0.19
		c-0.12,0-0.26,0.03-0.39,0.08l-0.1,0.04l-0.42-0.17l-0.04-0.1c-0.03-0.06-0.08-0.13-0.12-0.17l-0.11,0.02l-0.38-0.39l0.03-0.16
		c0-0.02,0.09-0.54-0.42-1.05c-0.29-0.29-0.6-0.35-0.81-0.35c-0.15,0-0.25,0.03-0.25,0.03l-0.06,0.02l-0.35-0.1l-0.46-0.52
		l-0.08-0.27l0.01-0.05c0.06-0.36,0.07-1.17-0.22-1.41c-0.36-0.3-0.6-0.41-0.9-0.41c-0.16,0-0.35,0.03-0.56,0.11l-0.08,0.03
		l-0.37-0.12l-1.87-2.49l-0.22,0.45l1.82,2.48l0,0.39l-1.45,2.04c-0.08,0.36-0.11,0.99,0.2,1.35c0.39,0.46,0.96,0.49,1.08,0.49
		c0.11-0.02,0.67-0.14,0.9-0.49l0.44-0.11l0.19,0.11l0.14,0.43c-0.02,0.05-0.54,1.15,0.21,1.78c0.29,0.24,0.57,0.36,0.85,0.36
		c0.26,0,0.43-0.11,0.44-0.12l1.07-0.71l0.47,0.44l-0.25,0.42c-0.06,0.1-0.58,1.03,0.22,1.69c0.21,0.17,0.43,0.26,0.66,0.26h0
		c0.5,0,0.88-0.42,0.89-0.43l1.11-1.11L27.92,108.98z"/>
	<path class="st0" d="M28.27,111.96c-0.3,0-0.59-0.11-0.86-0.33c-0.69-0.55-0.69-1.24-0.59-1.69l-0.12,0.12
		c-0.01,0.01-1.1,1.19-2.3,0.22c-0.82-0.67-0.68-1.55-0.51-2.04l-0.33,0.22c0,0-0.88,0.63-1.96-0.28c-0.7-0.59-0.64-1.44-0.51-1.96
		c-0.42,0.31-0.93,0.37-0.96,0.38c-0.04,0-0.93,0.05-1.55-0.68c-0.62-0.73-0.3-1.88-0.29-1.93l0.02-0.03l1.4-1.97l-1.92-2.62
		l0.75-1.57l2.32,3.09c0.84-0.26,1.36-0.03,1.91,0.42c0.57,0.47,0.46,1.61,0.42,1.88l0.3,0.34c0.23-0.05,0.92-0.15,1.54,0.48
		c0.56,0.56,0.6,1.16,0.58,1.42c0.23,0.04,0.39,0.27,0.47,0.4c0.86-0.27,1.4,0.25,1.42,0.27c0.66,0.66,0.66,1.22,0.63,1.43
		l0.88,0.64c0.82,0.02,0.98,0.59,1.01,0.77l0.96,0.71c0.12,0.01,0.65,0.06,0.9-0.19c0.23-0.23,0.21-0.51,0.19-0.61l-3.11-2.48
		c-0.01-0.02-0.19-0.39,0.12-0.77c0.32-0.38,0.86-0.15,0.88-0.14l0.02,0.01l4.46,3.27c0.02,0.01,0.67,0.36,1.13-0.25
		c0.47-0.61-0.13-1.28-0.15-1.31l-4.9-3.72c-0.01-0.02-0.34-0.54,0.01-0.89c0.34-0.34,0.75-0.21,0.77-0.2l0.03,0.02l5.84,4.31
		c0.01,0.01,0.56,0.31,1.03-0.3c0.45-0.58,0.02-1.17-0.04-1.25l-6.41-4.84l-0.01-0.03c-0.01-0.02-0.18-0.6,0.14-0.92
		c0.32-0.32,0.96-0.03,0.98-0.02l0.02,0.01l6.17,4.67c0.04,0.02,1.04,0.67,1.61-0.19c0.59-0.88-0.17-1.71-0.2-1.74l-9.1-8.24
		c-0.6-0.37-1.18-0.49-1.71-0.34c-0.72,0.2-1.11,0.84-1.19,0.97c-0.02,0.77-0.63,1.81-0.66,1.85c-1.12,1.46-2.16,1.75-2.84,1.75
		c-0.75-0.01-1.22-0.36-1.24-0.38c-0.7-0.37-0.57-1.13-0.41-1.48l0.01-0.02l0.02-0.02c0.28-0.21,0.45-1.44,0.49-2.17
		c-0.13-1.21,0.57-2.3,0.89-2.73h-3.37l0.86-1.83l5.21,0.03c0.22-0.18,1.53-1.13,3.58-1.13c2.05,0,2.78,0.46,2.9,0.55
		c2.24,0.78,3.68,0.63,3.69,0.63l0.08-0.01l0.03,0.07l4.64,9.92l-0.69,1.76c0.18,0.23,0.81,1.17,0.52,2.62
		c-0.29,1.46-1.93,1.79-2.36,1.85c0,0.81-0.24,1.44-0.72,1.86c-0.67,0.6-1.61,0.6-1.96,0.58c0.04,0.88-0.61,1.44-0.64,1.47
		c-1.3,1.16-2.73,0.39-3.17,0.1c-0.09,0.29-0.38,0.87-1.26,1.21c-0.98,0.37-1.81-0.06-2.08-0.23l-0.39,0.52
		c-0.02,0.03-0.5,0.64-1.19,0.72C28.37,111.96,28.32,111.96,28.27,111.96z M27.64,108.81l-0.44,0.75c-0.03,0.04-0.63,1.11,0.35,1.9
		c0.27,0.21,0.55,0.31,0.84,0.27c0.59-0.07,1.03-0.62,1.04-0.63l0.52-0.69l0.09,0.07c0.01,0.01,0.91,0.66,1.96,0.26
		c1.05-0.4,1.16-1.17,1.16-1.2l0.03-0.2l0.15,0.12c0.06,0.05,1.61,1.27,3.02,0c0.01-0.01,0.65-0.57,0.55-1.41l-0.02-0.14l0.14,0.02
		c0.01,0,1.17,0.15,1.92-0.52c0.44-0.39,0.66-0.99,0.64-1.79l0-0.1l0.1-0.01c0.02,0,1.96-0.17,2.26-1.68
		c0.31-1.53-0.5-2.47-0.51-2.48l-0.05-0.05l0.71-1.79l-4.56-9.76c-0.34,0.02-1.7,0.05-3.73-0.66l-0.03-0.02
		c-0.01,0-0.66-0.51-2.77-0.51c-2.13,0-3.46,1.09-3.47,1.1l-0.03,0.03l-5.15-0.03l-0.65,1.39h3.49l-0.16,0.18
		c-0.01,0.01-1.13,1.32-0.98,2.76c-0.01,0.22-0.12,1.95-0.56,2.34c-0.06,0.13-0.31,0.83,0.34,1.17c0.09,0.06,1.78,1.3,3.78-1.31
		c0,0,0.62-1.05,0.62-1.76v-0.03l0.01-0.02c0.02-0.03,0.45-0.85,1.33-1.1c0.59-0.16,1.23-0.04,1.9,0.38l9.12,8.26
		c0.02,0.02,0.92,1,0.23,2.02c-0.56,0.84-1.5,0.53-1.93,0.25l-6.17-4.67c-0.15-0.07-0.55-0.19-0.72-0.02
		c-0.18,0.18-0.11,0.55-0.09,0.66l6.38,4.82c0.01,0.01,0.64,0.78,0.06,1.54c-0.59,0.77-1.32,0.35-1.33,0.35l-5.83-4.3
		c-0.06-0.02-0.32-0.06-0.53,0.15c-0.2,0.2-0.04,0.52,0.01,0.6l4.87,3.69c0.28,0.3,0.65,0.99,0.18,1.61
		c-0.59,0.77-1.42,0.3-1.43,0.3l-4.46-3.27c-0.06-0.02-0.42-0.15-0.61,0.08c-0.18,0.22-0.13,0.44-0.1,0.5l3.12,2.48l0.01,0.04
		c0.01,0.02,0.12,0.49-0.24,0.86c-0.36,0.36-1.08,0.25-1.12,0.25l-0.03,0l-1.09-0.8l0-0.05c0-0.02-0.04-0.62-0.83-0.62h-0.04
		l-1.06-0.77l0.02-0.08c0.01-0.02,0.15-0.57-0.56-1.28c-0.02-0.02-0.5-0.48-1.28-0.19l-0.1,0.04l-0.04-0.1c0,0-0.19-0.4-0.42-0.37
		l-0.16,0.03l0.03-0.16c0.01-0.03,0.14-0.7-0.51-1.35c-0.64-0.64-1.38-0.4-1.39-0.4l-0.07,0.02l-0.46-0.52l0.01-0.05
		c0-0.01,0.2-1.28-0.34-1.72c-0.53-0.44-0.97-0.62-1.77-0.36l-0.08,0.03l-2.19-2.92l-0.54,1.12l1.94,2.64l-1.48,2.09
		c-0.04,0.14-0.26,1.11,0.25,1.71c0.55,0.64,1.35,0.6,1.36,0.61c0,0,0.8-0.11,1.15-0.65l0.19,0.11c-0.03,0.06-0.65,1.38,0.29,2.18
		c0.94,0.79,1.66,0.29,1.69,0.26l1.06-0.7l-0.25,0.42c-0.03,0.05-0.74,1.27,0.3,2.11c1.03,0.84,1.96-0.16,1.99-0.2L27.64,108.81z"/>
	<path class="st0" d="M44.78,99.64c-0.93,0-1.78-0.54-2.16-1.39l-3.98-8.66c-0.26-0.58-0.29-1.22-0.07-1.82
		c0.22-0.6,0.66-1.07,1.24-1.33c0.31-0.14,0.65-0.22,0.99-0.22c0.93,0,1.78,0.54,2.16,1.39l3.98,8.66c0.26,0.58,0.29,1.22,0.07,1.82
		c-0.22,0.59-0.66,1.07-1.24,1.33C45.46,99.57,45.12,99.64,44.78,99.64z M40.8,87.11c-0.21,0-0.42,0.05-0.62,0.14
		c-0.36,0.17-0.64,0.47-0.78,0.84c-0.14,0.37-0.12,0.78,0.04,1.14l3.98,8.66c0.17,0.36,0.47,0.64,0.84,0.78
		c0.17,0.06,0.34,0.09,0.52,0.09c0.22,0,0.42-0.05,0.62-0.14c0.36-0.17,0.64-0.47,0.78-0.84c0.14-0.38,0.12-0.78-0.04-1.14
		l-3.98-8.66c-0.17-0.36-0.47-0.64-0.84-0.78C41.15,87.14,40.98,87.11,40.8,87.11z"/>
	<path class="st0" d="M44.78,99.31c-0.78,0-1.52-0.44-1.86-1.19l-3.98-8.66c-0.23-0.5-0.25-1.05-0.06-1.57
		c0.19-0.51,0.57-0.92,1.07-1.15c1.03-0.47,2.25-0.02,2.72,1.01l3.98,8.66c0.23,0.5,0.25,1.05,0.06,1.57
		c-0.19,0.51-0.57,0.92-1.07,1.15l0,0C45.36,99.25,45.07,99.31,44.78,99.31z M40.8,86.78c-0.26,0-0.52,0.06-0.76,0.17
		c-0.44,0.2-0.78,0.57-0.95,1.03s-0.15,0.95,0.05,1.4l3.98,8.66c0.2,0.44,0.57,0.78,1.03,0.95c0.46,0.17,0.95,0.15,1.4-0.05l0,0
		c0.44-0.2,0.78-0.57,0.95-1.02s0.15-0.95-0.05-1.4l-3.98-8.66c-0.2-0.44-0.57-0.78-1.03-0.95C41.23,86.81,41.01,86.78,40.8,86.78z"
		/>
	<path class="st0" d="M15.22,99.64c-0.34,0-0.68-0.07-0.99-0.22c-0.58-0.27-1.02-0.74-1.24-1.33c-0.22-0.6-0.2-1.24,0.07-1.82
		l3.98-8.66c0.39-0.84,1.24-1.39,2.16-1.39c0.34,0,0.68,0.07,0.99,0.22c1.19,0.55,1.72,1.96,1.17,3.15l-3.98,8.66
		c-0.27,0.58-0.74,1.02-1.33,1.24C15.78,99.59,15.5,99.64,15.22,99.64z M19.2,87.11c-0.18,0-0.35,0.03-0.52,0.09
		c-0.37,0.14-0.67,0.42-0.84,0.78l-3.98,8.66c-0.17,0.36-0.18,0.77-0.04,1.14s0.42,0.67,0.78,0.84c0.2,0.09,0.41,0.14,0.62,0.14
		c0.18,0,0.35-0.03,0.52-0.09c0.37-0.14,0.67-0.42,0.84-0.78l3.98-8.66c0.34-0.75,0.01-1.64-0.74-1.99
		C19.63,87.15,19.42,87.11,19.2,87.11z"/>
	<path class="st0" d="M15.22,99.31c-0.29,0-0.58-0.06-0.85-0.19l0,0c-0.5-0.23-0.88-0.64-1.07-1.15c-0.19-0.51-0.17-1.07,0.06-1.57
		l3.98-8.66c0.47-1.03,1.69-1.48,2.72-1.01c1.03,0.47,1.48,1.69,1.01,2.72l-3.98,8.66c-0.23,0.5-0.64,0.88-1.15,1.07
		C15.7,99.27,15.46,99.31,15.22,99.31z M19.2,86.78c-0.21,0-0.43,0.04-0.64,0.11c-0.46,0.17-0.82,0.51-1.03,0.95l-3.98,8.66
		c-0.2,0.44-0.22,0.94-0.05,1.4s0.51,0.82,0.95,1.02h0c0.44,0.2,0.94,0.22,1.4,0.05c0.46-0.17,0.82-0.51,1.02-0.95l3.98-8.66
		c0.42-0.91,0.02-2-0.9-2.42C19.72,86.83,19.46,86.78,19.2,86.78z"/>
</g>
</svg>
