<svg width="24" height="25" viewBox="0 0 24 25" fill="none" xmlns="http://www.w3.org/2000/svg">
<path d="M23.7938 19.3937C23.7938 22.3356 21.4177 24.7117 18.4919 24.7117H5.30189C2.37615 24.7279 0 22.3356 0 19.3937V6.10662C0 3.18089 2.37615 0.788574 5.30189 0.788574H18.5081C21.4338 0.788574 23.81 3.18089 23.81 6.10662V19.3937H23.7938Z" fill="#F9E000"/>
<path d="M11.8323 5.29834C7.1123 5.29834 3.2652 8.32106 3.2652 12.0712C3.2652 14.4958 4.88163 16.6295 7.32243 17.8257C7.14463 18.4884 6.67586 20.2503 6.57888 20.6221C6.46573 21.0909 6.75668 21.0747 6.93449 20.9615C7.07997 20.8646 9.27831 19.3613 10.232 18.7309C10.7493 18.8117 11.2827 18.844 11.8161 18.844C16.5361 18.844 20.3832 15.8213 20.3832 12.0712C20.3832 8.32106 16.5522 5.29834 11.8323 5.29834Z" fill="#371C1D"/>
<path d="M5.85147 10.8103H6.74051C6.74051 10.8103 6.74051 13.2349 6.74051 13.8007C6.74051 14.2048 7.66188 14.2209 7.66188 13.8007V10.8426C7.66188 10.8426 7.95283 10.8426 8.53475 10.8426C9.08433 10.8426 9.08433 9.98589 8.53475 9.98589C7.9205 9.98589 5.85147 9.96973 5.85147 9.96973C5.33422 9.96973 5.33422 10.8103 5.85147 10.8103Z" fill="#F9E000"/>
<path d="M10.0703 10.9719L10.5553 12.5075H9.53692L10.0703 10.9719ZM9.52075 10.2606C9.31062 10.7456 8.51857 12.9924 8.25994 13.5905C8.06597 14.0269 8.89035 14.3825 9.06815 13.9461L9.24596 13.3319H10.8624C10.8624 13.3319 10.8139 13.3642 11.024 13.9299C11.2018 14.3825 12.0424 14.0754 11.8646 13.6066C11.6221 12.9601 10.7654 10.6001 10.6038 10.2606C10.5391 10.099 10.2805 10.002 10.0218 10.002C9.81171 9.98585 9.60158 10.0667 9.52075 10.2606Z" fill="#F9E000"/>
<path d="M12.1717 10.3899C12.1717 11.1497 12.1717 13.6228 12.1717 13.6228C12.1717 13.6228 12.1071 14.1077 12.5273 14.1077C12.9476 14.1077 13.8851 14.1077 14.2893 14.1077C14.7095 14.1077 14.6934 13.2349 14.2893 13.2349C13.869 13.2349 13.1254 13.2349 13.1254 13.2349C13.1254 13.2349 13.1254 10.9557 13.1254 10.3899C13.1254 10.1152 12.883 9.98584 12.6567 9.98584C12.398 9.98584 12.1717 10.1313 12.1717 10.3899Z" fill="#F9E000"/>
<path d="M14.8065 10.2768C14.8227 10.6163 14.7903 13.6551 14.7903 13.8814C14.7903 14.2371 15.6955 14.2371 15.6955 13.8814C15.6955 13.4612 15.6955 12.6853 15.6955 12.6853L15.9542 12.4752L17.1342 14.0431C17.3766 14.3502 18.104 13.8006 17.8777 13.4773L16.6492 11.8447C16.6492 11.8447 17.4898 10.9395 17.8131 10.6163C18.007 10.4223 17.409 9.82421 17.215 10.0182C17.021 10.196 15.7117 11.5215 15.7117 11.5215C15.7117 11.5215 15.7279 10.6971 15.7117 10.2445C15.7117 10.0667 15.5016 9.98585 15.2753 9.98585C15.049 9.98585 14.8065 10.0828 14.8065 10.2768Z" fill="#F9E000"/>
</svg>
