<svg width="23" height="19" viewBox="0 0 23 19" fill="none" xmlns="http://www.w3.org/2000/svg">
<path d="M8.90625 1.61457C9.14824 1.37114 9.44662 1.19128 9.77487 1.09096C10.1031 0.990647 10.4511 0.972988 10.7878 1.03956C11.1245 1.10612 11.4396 1.25485 11.705 1.47253C11.9703 1.6902 12.1778 1.97007 12.309 2.28727C12.4401 2.60446 12.4909 2.94914 12.4567 3.29067C12.4226 3.63221 12.3046 3.96001 12.1132 4.24494C11.9218 4.52987 11.663 4.7631 11.3597 4.9239C11.0565 5.0847 10.7182 5.16809 10.375 5.16665H1M12.0312 17.0521C12.2732 17.2955 12.5716 17.4754 12.8999 17.5757C13.2281 17.676 13.5761 17.6936 13.9128 17.6271C14.2495 17.5605 14.5646 17.4118 14.83 17.1941C15.0953 16.9764 15.3028 16.6966 15.434 16.3794C15.5651 16.0622 15.6159 15.7175 15.5817 15.376C15.5476 15.0344 15.4296 14.7066 15.2382 14.4217C15.0468 14.1368 14.788 13.9035 14.4847 13.7427C14.1815 13.5819 13.8432 13.4985 13.5 13.5H1M17.3854 4.8854C17.6884 4.5832 18.0612 4.36031 18.4708 4.23645C18.8804 4.1126 19.3142 4.09159 19.7338 4.17528C20.1535 4.25897 20.5461 4.44479 20.8768 4.7163C21.2076 4.98781 21.4663 5.33665 21.6302 5.73195C21.794 6.12726 21.858 6.55685 21.8163 6.98274C21.7746 7.40863 21.6287 7.81768 21.3913 8.17373C21.1539 8.52978 20.8324 8.82184 20.4553 9.02409C20.0782 9.22635 19.6571 9.33255 19.2292 9.33332H1" stroke="white" stroke-width="2" stroke-linecap="round" stroke-linejoin="round"/>
</svg>
