<svg width="350" height="355" viewBox="0 0 350 355" fill="none" xmlns="http://www.w3.org/2000/svg">
<g clip-path="url(#clip0_689_210)">
<path d="M175.1 303.5C246.732 303.5 304.8 245.431 304.8 173.8C304.8 102.168 246.732 44.0996 175.1 44.0996C103.469 44.0996 45.4004 102.168 45.4004 173.8C45.4004 245.431 103.469 303.5 175.1 303.5Z" fill="url(#paint0_radial_689_210)"/>
<path d="M68.3 146C68.3 146 68.5 145.3 67.5 144.8C66.5 144.3 66.5 143.8 65.9 143C65.4 142.2 65.4 142.4 64.7 142.4C64 142.3 64 142.1 64 141.4C64.1 140.7 64.4 139.4 64 139.6C63.6 139.7 63.3 140.3 63.2 139.9C63.1 139.5 63.7 136.8 64.2 135.7C64.7 134.7 65.6 132.9 65.7 132.3C65.8 131.7 67.7 130.2 67.9 129.8C68.2 129.3 68.3 128.7 67.8 128.6C67.3 128.5 67.4 128 66.7 128.1C66 128.2 65.9 127.3 66.4 127.2C67 127.1 67.6 126.7 67.9 127.2C68.2 127.7 69 127.9 69.3 127.6C69.6 127.3 69.3 126.7 69.7 126.5C70.1 126.3 70 127.3 70.6 126.8C71.2 126.3 71.3 125.5 71.8 124.9C72.3 124.3 72.1 124.3 71.8 124C71.5 123.7 70.6 122.5 71 122.3C71.5 122.1 71.7 122.8 72.1 123.1C72.4 123.4 72.8 123.1 73.1 122.7C73.4 122.3 73.4 123.4 73.1 123.8C72.8 124.3 71.7 126 71.8 126.6C71.9 127.3 72.2 127.1 72.5 127.3C72.8 127.5 72.8 126.8 73.3 126.5C73.8 126.2 73.5 125.3 74 125.3C74.5 125.3 74.4 125.8 74.9 125.8C75.4 125.8 76.3 125.5 76.3 125.1C76.2 124.8 75.6 125 75.6 124.5C75.6 124 75.3 123.3 74.8 123.1C74.3 122.8 73.9 122.9 74 122.2C74.1 121.5 73.9 121.2 74.1 120.7C74.3 120.2 74.8 120.2 75.3 120.2C75.8 120.2 77.9 118.2 78.1 117.7C78.3 117.2 77.5 115.2 78.1 115C78.7 114.7 79.4 114.7 79.6 114.3C79.8 113.9 79.3 113.5 79.6 113.2C79.9 112.9 80.1 112.4 79.6 112.2C79.2 112 78.8 112 78.4 112.2C78 112.4 77.6 113.4 77.5 113.8C77.4 114.3 76.3 115.5 76 116.2C75.7 116.9 75.2 117.7 75 118.1C74.7 118.5 74.2 119.3 74.2 118.4C74.2 117.4 74.5 117.2 74.9 116.3C75.2 115.5 75.1 115.2 75.1 114.6C75.1 114 74.8 113.9 74.6 114.3C74.5 114.8 74.3 115.5 73.9 115.6C73.5 115.7 73.2 114.9 73.6 114.3C73.9 113.6 73.5 113.8 73.4 113.5C73.3 113.2 73.3 112.3 73.9 112C74.4 111.7 74.5 111.3 74.5 111C74.5 110.7 74.6 110 74.8 109.5C75 109 75.1 108.1 74.9 107.9C74.7 107.6 74.3 107.3 74.2 107.9C74.1 108.5 74.5 109.1 74.1 109.3C73.7 109.6 73 109.6 72.8 110.3C72.6 111.1 72.4 112 72.1 112.3C71.8 112.6 71.5 113.3 71.8 113.4C72.1 113.5 72.7 113.3 72.7 113.6C72.7 113.9 72.8 114.4 72.4 114.5C72 114.6 72.3 114.2 72 114.6C71.7 115 72.3 115.2 72.1 115.5C72 115.8 71.4 116 71.2 115.8C71 115.7 70.7 115.3 70.7 114.8C70.8 114.2 70.6 113.8 70.6 113.8C70.6 113.8 70.3 114 70.1 114.4C69.9 114.8 69.1 115.6 69.2 115.9C69.3 116.2 69.5 116.8 69.9 116.6C70.4 116.4 70.9 116.2 71.1 116.3C71.3 116.4 71 116.9 70.8 117.2C70.6 117.5 70.3 118.1 70 117.8C69.7 117.5 69.3 117 69 117.3C68.7 117.6 68.4 118 68.6 118.3C68.8 118.6 68.8 119 68.5 119.1C68.2 119.2 67.3 119.1 67.1 119.5C66.9 119.9 66.1 120 66.1 120C66.1 120 64.9 119.1 65.1 118.6C65.2 118.1 65.1 117.3 65.1 117.3C65.1 117.3 64.7 117.2 64.5 117.6C64.3 118.1 63.9 118.3 63.7 118.5C63.5 118.7 63 119.1 63.3 119.3C63.6 119.6 63.4 120.4 63.2 120.7C63 121 63 121.5 62.9 121.7C62.8 122 62.2 122.6 62.2 122.6C62.2 122.6 61.9 121.8 62.2 121.3C62.5 120.8 62.3 119.5 61.7 120.2C61.1 120.9 60.8 121.4 60.3 121.3C59.8 121.2 59.2 120.8 59.7 120.1C60.2 119.4 61.3 118.8 61.5 118.4C61.7 118 63.1 117.7 63.5 117C64 116.3 64.7 115.8 65.1 116C65.5 116.2 66.1 116.2 66.5 115.9C66.9 115.6 67.9 115.7 67.9 115.3C67.9 114.9 66.5 115 67.1 114.4C67.8 113.8 68.5 114.2 68.6 113.6C68.7 112.9 68.1 111.7 68.5 110.7C68.9 109.7 70.1 107 70.2 106.3C70.3 105.6 69.8 104.9 69.7 105.4C69.6 105.9 68.7 108.4 68.3 108.6C67.9 108.8 68 107.6 68 107.6C68 107.6 67.2 108.4 67.1 108.1C67 107.7 67.5 107.3 67.3 107.1C67.1 106.8 66.8 106.5 67.1 105.7C67.4 104.9 67.2 104 67.2 104C67.2 104 66.8 104.7 66.3 105.2C65.8 105.7 64.2 107.5 64.3 107.9C64.4 108.3 64.3 109.1 64 109.4C63.7 109.7 62.5 110.7 62.7 111C62.9 111.3 62.8 110.8 62.9 111.3C63 111.8 61.6 112.7 61.9 113.1C62.2 113.4 63.3 112.4 63.5 112.6C63.7 112.9 64.6 112.3 64.2 113.3C63.8 114.3 62.6 114.1 62 114.7C61.5 115.3 61.4 115.4 61 115.6C60.6 115.9 59.9 115.9 59.9 115.9C59.9 115.9 60 115.8 59.3 116L58.4 116.5C58.4 116.5 50.6 131.2 46.9 153.3C46.9 153.3 44.4 165.8 45.3 181.3L46.3 179.3C46.3 179.3 45.7 182 46.7 183.2C47.7 184.4 47.9 185.5 48.7 186.7C49.5 187.9 50.9 191 51.2 192.2C51.6 193.4 51.8 194.9 52.6 195.7C53.4 196.5 54.6 200 54.8 201C55 202 55.2 203.5 55.8 204.1C55.8 204.1 57.6 206 58.6 207.2C59.6 208.4 60.8 209.2 60.9 208.6C61 208.1 61.7 207.9 62.5 208.8C63.3 209.7 63.9 211.5 64.7 211.5C65.5 211.5 65.6 211.5 66.5 212.3C67.4 213.1 68.7 215.7 69.6 216.2C70.5 216.7 70.5 217.2 71.2 218C71.9 218.8 72.8 218.7 73.3 219.2C73.8 219.7 73.6 217.6 73.6 217.6C73.6 217.6 73.6 217.5 71.6 216.8C69.6 216.1 70.3 214.2 70 212.6C69.7 211 69.3 209.2 67.4 208.9C65.4 208.6 65.3 208.6 65.2 206.6C65.1 204.5 65.2 202 65.2 202C65.2 202 65.5 201.5 64.5 201.6C64.5 201.6 63.6 201.2 63.5 202.1C63.4 203 63.4 204.8 63.4 204.8C63.4 204.8 63.2 205.8 62.5 205.3C61.8 204.8 61.2 205.6 60.5 204.9C59.8 204.2 58.3 200.7 57.9 197.7C57.5 194.7 57.4 193.5 57.9 192.2C58.4 190.9 59.6 190.1 60.2 190C60.9 189.9 61.2 190.8 61.8 190.4C62.3 190 61.3 189.2 62.5 189C63.7 188.7 64.3 188.9 65.2 189.1C66.1 189.3 66.2 189.6 67.4 191.6C68.6 193.6 68.4 195.4 69 196C69.5 196.7 69.4 195.1 69.3 193.8C69.2 192.5 67.5 187.5 68.4 185.8C69.3 184.1 71 182.9 71.4 182C71.8 181.1 72.2 180.8 72.2 179.8C72.2 178.8 72.1 178.2 71.8 177.5C71.5 176.7 71.7 176.1 72.3 176.1C73 176.1 72.3 175.2 72.8 174.8C73.3 174.4 73.5 173.5 73.8 172.6C74.2 171.7 75.8 172.1 76.3 171.2C76.8 170.3 77.2 170.4 77.2 169.8C77.2 169.2 76.2 168.1 77.2 166.8C78.2 165.5 80.7 163.8 81.2 163.1C81.7 162.4 82.5 161 83.2 161.4C83.9 161.9 83.9 162.1 83.2 162.8C82.5 163.5 81.8 163.5 81.9 164.1C82 164.8 82.3 165.5 82.3 165.5C82.3 165.5 82.6 164.1 83.7 163.4C84.8 162.7 86.5 161.4 86.5 161.4C86.5 161.4 84.8 161.6 84 160.7C83.2 159.8 82.8 158.9 83.3 158.1L82.3 158L81.9 157.2C81.9 157.2 82.2 157.2 82.9 156.8C83.7 156.4 83.8 155.2 82.6 155.5C81.4 155.8 80.8 156.5 80 157.2C79.2 157.9 77.5 159.5 77.5 159.5C77.5 159.5 78.8 156.5 79.3 156.1C79.8 155.7 81 154.9 81.5 153.9C82 152.9 82.2 153 82.9 152.9C83.7 152.8 85.4 152.5 86.3 152.2C87.2 151.9 89 151.8 89.4 150.9C89.8 150 89.8 149.2 90.4 148.9C91 148.6 91.8 148.5 91.8 148.5C91.8 148.5 90.6 150.2 90.5 151.1C90.4 152 90.1 153.8 89.5 154.6C88.8 155.4 88.7 156.1 89.9 156.1C91.1 156.1 91.1 156 91.9 156C92.7 156 93.4 156 93.4 156L94.2 155.1C94.2 155.1 94.3 156.5 94.9 156.8C95.4 157.1 95.4 154.4 95.4 154.4C95.4 154.4 94.4 155 94.4 153.6L94.5 151.7C94.5 151.7 93.8 151.9 93.1 151.9C92.3 151.9 91 151.6 91.5 150.7C92 149.8 92.4 148.3 92.7 147.3C93 146.3 93.1 144.4 91.9 143.6C90.7 142.8 89.8 143.5 89.6 142.7C89.4 141.9 87.6 141.3 88.2 140.1C88.2 140.1 88.3 138.4 88.1 137.9C87.8 137.4 88.9 137.2 88.8 136.6C88.7 135.9 87.4 133.1 87.2 130.9C87.2 130.9 86 132.2 85.9 133.1C85.8 134 84.9 136 84.2 136.5C83.5 137 83 136.8 82.9 135.7C82.8 134.7 81.9 134.1 82.2 133.5C82.6 132.8 82.6 131.9 82.1 131.4C81.6 130.9 81.3 130.6 81.1 130C80.8 129.3 80.2 128.4 80.2 128.4C80.2 128.4 79.3 129.4 78.8 129.2C78.3 128.9 77.6 129.1 77.6 129.1C77.6 129.1 77.2 130 76.8 130.5C76.4 131 75.8 131.5 76 131.9C76.3 132.3 76.3 133.9 75.7 134.8C75.2 135.7 74.9 136.5 74.9 137.1C74.9 137.8 74 138.3 74.6 138.8C74.6 138.8 74.5 140.8 74.1 142.1C73.7 143.4 73.8 144.3 73.3 144.6C72.8 144.9 71.3 145.3 71.6 145.8C71.9 146.3 72.1 147.4 72 148C71.9 148.7 71.9 153 71.5 153.2C71.1 153.5 70.8 153.5 70.3 152.5C70.3 152.5 69 152.4 69.3 150.2C69.6 148 69.3 146.2 69.3 146.2C69.3 146.2 68.3 146.5 68.3 146Z" fill="white"/>
<path d="M74.5996 104.3C74.5996 104.3 74.9996 104 75.2996 103.5C75.5996 103 75.8996 102.6 75.8996 102.6C75.8996 102.6 75.7996 102.7 75.2996 102.6C74.7996 102.5 74.1996 102.2 74.0996 102.6C73.9996 103 73.2996 103.4 73.4996 103.6C73.6996 103.8 73.4996 104.4 73.4996 104.6C73.3996 104.8 73.7996 105.5 73.4996 105.6C73.1996 105.6 72.5996 105.6 72.5996 105.1C72.5996 104.6 71.9996 105.6 71.9996 105.6C71.9996 105.6 71.4996 107 71.9996 107.3C72.4996 107.6 71.9996 109.1 71.9996 109.1C71.9996 109.1 72.3996 109.5 72.5996 109.1C72.7996 108.7 72.5996 107.7 72.7996 107.6C73.0996 107.6 73.1996 108.2 73.4996 107.6C73.7996 107 74.5996 106.7 74.6996 105.9C74.8996 105.2 75.0996 104.3 74.5996 104.3Z" fill="white"/>
<path d="M77.5003 102.1C77.5003 102.1 76.8003 102.1 76.7003 102.6C76.6003 103 75.9003 104.4 75.9003 104.4L75.2003 105.9C75.2003 105.9 74.6003 106.7 75.2003 106.4C75.8003 106.1 76.3003 104.2 76.8003 104.3C77.3003 104.4 77.9003 104.6 78.2003 103.9C78.5003 103.2 78.8003 102.4 79.4003 101.9C80.0003 101.4 79.9003 100.9 79.9003 100.9C79.9003 100.9 78.9003 100.7 78.4003 100.9C78.0003 101 77.7003 101.1 77.5003 102.1Z" fill="white"/>
<path d="M71.7 100.2C71.7 100.2 71.6 100.3 71.1 100.2C70.6 100.1 70 100.7 69.9 100.3C69.8 99.8004 69.9 98.9004 70.6 98.6004C71.3 98.3004 71.9 97.0004 72.1 96.8004C72.3 96.6004 73.1 96.5004 73.1 96.8004C73.1 97.1004 72.5 97.9004 72.7 98.2004C72.9 98.4004 73.5 98.4004 73.8 97.9004C74.1 97.4004 74.1 96.9004 74.2 96.6004C74.3 96.3004 75.3 95.4004 75.3 95.4004C75.3 95.4004 75.1 96.2004 74.9 96.7004C74.8 97.2004 74.8 97.3004 75.3 97.1004C75.7 96.9004 75.3 98.2004 75.3 98.2004C75.3 98.2004 73.9 99.1004 73.8 99.4004C73.8 99.7004 73.1 100.8 72.7 100.8C72.3 100.8 70.6 101.7 70.6 101.7C70.6 101.7 70.1 101.7 70.3 101.3C70.5 100.9 71.7 100.2 71.7 100.2Z" fill="white"/>
<path d="M72.0002 103.8C72.0002 103.8 71.9002 103.4 71.7002 103.4C71.5002 103.4 71.3002 103.7 71.2002 103.8C71.2002 104 71.2002 104.8 71.2002 104.8L71.6002 105L72.0002 103.8Z" fill="white"/>
<path d="M79.4001 95.9002C79.4001 95.9002 80.1001 95.1002 80.4001 94.7002C80.7001 94.3002 80.7001 93.7002 80.7001 93.7002C80.7001 93.7002 80.6001 94.1002 79.9001 94.2002C79.3001 94.3002 78.9001 94.8002 78.9001 95.0002C78.9001 95.2002 78.3001 95.8002 78.1001 95.9002C77.9001 96.0002 77.5001 95.6002 77.5001 95.9002C77.4001 96.2002 77.0001 96.8002 77.3001 96.9002C77.5001 97.0002 77.8001 97.3002 77.7001 97.5002C77.6001 97.7002 77.0001 98.5002 77.3001 98.5002C77.6001 98.5002 78.1001 98.5002 78.3001 98.2002C78.4001 97.9002 79.4001 95.9002 79.4001 95.9002Z" fill="white"/>
<path d="M80.2003 98.2C80.2003 98.2 80.3003 97.2 80.2003 97C80.1003 96.9 79.9003 97.6 79.6003 97.6C79.3003 97.6 78.6003 98.2 79.0003 98.4C79.3003 98.7 79.6003 99.7 80.2003 98.2Z" fill="white"/>
<path d="M83.1 93.6003C83.1 93.6003 82.1 94.4003 82.1 94.0003C82.1 93.6003 81.6 92.9003 82.1 92.5003C82.6 92.1003 82.8 92.4003 83.2 92.3003C83.5 92.2003 83.7 92.8003 83.7 92.8003V93.2003C83.7 93.2003 84.1 92.8003 84.3 93.2003C84.4 93.6003 84.2 94.1003 84.2 94.1003C84.2 94.1003 84.1 93.7003 83.8 94.1003C83.6 94.5003 83.2 95.3003 84.2 95.4003C85.2 95.5003 86.7 94.8003 87.4 94.4003C88.1 94.0003 88.4 93.6003 88.7 93.9003C89 94.2003 89.3 94.9003 89.2 95.2003C89.1 95.5003 88.4 95.9003 88.2 96.2003C88.1 96.5003 88.1 97.3003 87.4 97.5003C86.8 97.7003 86.1 97.8003 86.1 97.8003L86.2 97.2003C86.2 97.2003 86 97.3003 85.5 97.6003C85 97.9003 83.3 98.6003 83 98.7003C82.8 98.8003 81.9 98.8003 81.6 98.7003C81.4 98.6003 81.2 98.1003 81.3 97.8003C81.4 97.5003 82.2 96.8003 82.5 96.3003C82.8 95.8003 82.8 95.3003 82.8 95.1003C83 94.6003 83.1 93.6003 83.1 93.6003Z" fill="white"/>
<path d="M83.2 100.7C83.2 100.7 82.9 100.5 82.4 100.7C81.8 101 81 102.3 80 103.4C79 104.5 77.5 107.3 77.5 107.4C77.5 107.5 77.8 107.9 78.1 107.9C78.3 107.9 78.6 108 78.5 108.2C78.4 108.4 78.3 108.7 78 108.6C77.7 108.6 77 108.7 76.8 108.9C76.7 109.1 76.6 110 76.8 110.1C77 110.2 77.4 110.3 77.9 110.3C78.4 110.3 79.3 110 79.9 110.3C80.5 110.5 81.4 110 81.7 110C82 110 82.6 110 82.8 109.7C82.9 109.4 82.8 108.4 83.1 108.3C83.4 108.2 84.2 108.8 84.2 108.8C84.2 108.8 84 110.8 84.5 111.2C85 111.6 86 113 86.1 113.4C86.2 113.8 85.8 115.8 85.6 115.9C85.4 116 84.9 116.5 85.4 116.6C85.9 116.7 86.5 116.4 86.7 116.3C86.9 116.3 87.4 116.1 87.6 116.4C87.7 116.7 87.8 117.2 87.5 117.4C87.2 117.5 86.2 118.2 86.1 118.1C86 118.1 85.5 118.2 85.4 118C85.3 117.8 85.2 117 84.6 117.2C84.1 117.4 83.5 118.1 83.4 118.1C83.3 118.1 82.7 118.9 82.7 119.1C82.7 119.3 82.9 119.8 82.8 120C82.7 120.2 81.8 120.8 81.8 120.8C81.8 120.8 81.3 120.9 81.2 120.8C81.2 120.7 80.8 120.3 80.8 120.3C80.8 120.3 80.5 120.6 80.3 120.9C80.1 121.1 79.7 121.4 79.6 121.5C79.5 121.6 79.9 122.1 79.6 122.3C79.3 122.4 78.7 123.4 79 123.4C79.3 123.4 79.9 123.7 80 123.5C80.1 123.3 79.8 122.7 80.3 122.5C80.8 122.3 80.9 122.3 81.5 122.2C82 122.1 82.5 122.1 82.7 122.4C82.9 122.7 83 123 83.2 123.6C83.3 124.2 82.9 124.7 83.3 125.1C83.8 125.4 84.4 125.6 84.8 125.8C85.2 126 85.5 126.2 85.9 126.6C86.3 126.9 86.9 127.4 87.1 127.1C87.3 126.9 86.9 126 86.7 125.7C86.5 125.5 85.8 124.6 85.7 124.2C85.6 123.9 85.5 122.9 86 123C86.5 123 86.7 123.2 87 123.5C87.3 123.8 87.5 123.6 87.8 123.9C88.2 124.2 88.4 125 88.4 124.8C88.5 124.7 88.7 123.7 88.7 123.4C88.7 123.2 89.5 122.4 89.3 122C89.2 121.6 89.6 121.4 89.3 120.9C89 120.4 88.5 120.1 88.4 119.9C88.3 119.7 87.5 117.8 87.5 117.8C87.5 117.8 87.5 117 88.1 117.1C88.6 117.1 88.7 117.7 88.7 117.7C88.7 117.7 88.6 116.5 89 116.3C89.4 116.2 90.7 116.8 90.6 117.4C90.5 117.9 90.1 118.5 90.6 118.6C91.1 118.7 91.7 119.4 91.7 119.2C91.7 119 91.5 117.4 91.7 117.4C91.9 117.4 92.4 117.6 92.6 117.2C92.7 116.8 93 116 93.3 115.8C93.6 115.6 94.2 115.6 94.2 115.3C94.2 115 94.2 114.4 94.2 114.4C94.2 114.4 93.2 114.6 93.1 114.3C93 114 92.6 113.2 92.6 113.2C92.6 113.2 92.4 112.4 92 112.5C91.7 112.6 91.2 112.5 91.2 112.5C91.2 112.5 91 111.7 90.7 111.6C90.4 111.6 90.1 111.2 90.2 111C90.3 110.9 90.5 110.7 90.8 110.5C91 110.4 91.2 109.9 91.3 109.8C91.4 109.7 92.2 109 92.2 109H91.7L90.8 108.7C90.8 108.7 91.3 108.2 91.5 108.1C91.6 108 91.8 107.7 91.8 107.6C91.8 107.5 91.3 107.8 91.3 107.8L90.7 108.1C90.7 108.1 90.6 107.7 90.6 107.5C90.6 107.4 90.9 107.3 91.1 107.1C91.2 106.9 91.3 106.3 91.3 106.3L90.7 106H90.2C90.2 106 89.5 106.3 89.5 106.4C89.5 106.4 88.9 106.6 88.9 106.5C88.9 106.4 88.9 105.6 89.2 105.6C89.5 105.6 89.9 105.4 90 105.3C90.1 105.2 90.4 104.9 90.4 104.9L89.8 104.3C89.8 104.3 89.4 104.6 89.1 104.9C88.9 105.1 88.5 105.5 88.5 105.4C88.5 105.3 88.5 104.9 88.5 104.9C88.5 104.9 88.1 104.6 88.5 104.1C88.9 103.5 89 103.2 89 103.2H87L86.1 104.2L85.5 104.7L85.2 103.8L84.5 104.6C84.5 104.6 83.9 104.6 84 104.4C84.1 104.2 84.6 103.3 84.8 103C84.9 102.8 85.3 101.7 85.5 101C85.7 100.3 85.5 100 85.5 100C85.5 100 85.5 99.9004 85 100.2C84.5 100.6 84 101.4 83.8 101.4C83.6 101.4 83 102.1 83 102.1C83 102.1 82.3 102.3 82.2 102.4C82.2 102.5 81.9 102.8 81.9 102.9C81.9 103 82.3 103.1 82.4 103.3C82.5 103.6 82.4 103.5 82.3 103.9C82.2 104.4 82.1 104.5 81.9 104.7C81.7 104.9 81.5 104.7 81.5 104.7L81.1 105.3V106.7C81.1 106.7 80.6 107.4 80.6 107.5C80.6 107.6 79.9 107.8 79.9 107.7C79.9 107.7 80 107.4 79.9 107.2C79.8 107.1 80.3 106.3 80.3 106C80.3 105.7 80.2 105.4 80.3 105.1C80.4 104.8 80.8 104.6 80.8 104.3C80.8 104 81.1 103.8 81 103.5C81 103.2 81.7 102.3 81.7 102.3C81.7 102.3 82.5 101.2 82.7 101C82.7 101.1 83.7 100.7 83.2 100.7Z" fill="white"/>
<path d="M88.0001 100.1C88.0001 100.1 87.9001 99.8002 87.7001 99.8002C87.5001 99.8002 86.3001 99.7002 86.3001 100.1C86.3001 100.4 86.1001 101.3 86.1001 101.3C86.1001 101.3 85.8001 101.9 86.1001 101.9C86.3001 101.9 86.5001 101.6 86.8001 101.6C87.1001 101.6 87.5001 101.8 87.8001 101.6C88.1001 101.4 88.0001 101.2 88.1001 100.9C88.1001 100.6 88.0001 100.1 88.0001 100.1Z" fill="white"/>
<path d="M90.4997 92.2996C90.4997 92.2996 90.3997 91.5996 89.8997 91.6996C89.3997 91.7996 89.4997 92.1996 89.1997 92.2996C88.8997 92.3996 88.5997 91.7996 88.0997 92.2996C87.5997 92.7996 87.8997 93.0996 87.2997 93.0996C86.7997 93.0996 85.1997 93.1996 85.5997 92.5996C85.9997 92.0996 87.2997 91.2996 87.7997 90.7996C88.2997 90.2996 88.5997 90.2996 88.5997 89.7996C88.5997 89.2996 88.3997 88.5996 88.6997 88.5996C88.9997 88.5996 89.2997 89.0996 89.6997 89.2996C90.0997 89.4996 90.6997 89.4996 90.8997 89.2996C91.0997 89.0996 91.3997 88.9996 91.3997 88.9996C91.3997 88.9996 91.3997 89.5996 91.8997 89.5996C92.3997 89.5996 92.8997 89.9996 92.8997 90.2996C92.7997 90.5996 92.3997 91.0996 92.1997 91.1996C91.9997 91.2996 91.4997 91.3996 91.3997 91.7996C91.1997 92.2996 90.7997 92.6996 90.4997 92.2996Z" fill="white"/>
<path d="M84.3001 89.6C84.3001 89.6 85.3001 88.9 85.3001 88.7C85.3001 88.5 85.3001 87.6 85.3001 87.3C85.3001 87 85.3001 87 85.3001 87L84.8001 87.7C84.8001 87.7 84.1001 88.1 84.3001 88.3C84.4001 88.5 83.9001 89.8 84.3001 89.6Z" fill="white"/>
<path d="M84.9998 90.6L84.6998 90L84.0998 90.5C84.0998 90.5 83.4998 91.2 83.7998 90.8C84.0998 90.6 84.6998 91 84.9998 90.6Z" fill="white"/>
<path d="M82.1998 90.4998C82.1998 90.4998 82.8998 89.6998 82.9998 89.0998C83.0998 88.4998 83.1998 88.2998 83.5998 87.8998C83.9998 87.4998 84.0998 87.4998 84.1998 86.9998C84.2998 86.4998 84.6998 86.3998 84.5998 86.1998C84.4998 85.9998 83.7998 85.8998 83.5998 85.8998C83.3998 85.8998 82.9998 85.7998 82.8998 86.2998C82.7998 86.7998 83.0998 87.1998 82.7998 87.4998C82.4998 87.7998 82.2998 88.0998 82.0998 88.2998C81.8998 88.3998 81.1998 88.1998 81.2998 88.5998C81.3998 89.0998 81.5998 89.9998 81.9998 89.4998C82.3998 89.0998 82.1998 90.4998 82.1998 90.4998Z" fill="white"/>
<path d="M87.6002 88.2996C87.6002 88.2996 87.1002 87.2995 87.6002 86.6995C88.1002 86.0995 88.3002 85.5996 88.6002 85.5996C88.9002 85.5996 89.4002 85.4995 89.5002 85.1995C89.6002 84.8995 89.5002 84.6996 89.2002 84.7996C88.8002 84.8996 88.5002 84.8995 88.5002 84.6995C88.5002 84.4995 89.0002 83.2996 89.6002 83.0996C90.2002 82.8996 90.9002 83.1996 91.0002 82.7996C91.1002 82.4996 90.7002 81.9996 90.7002 81.9996C90.7002 81.9996 90.0002 81.8996 90.6002 81.4996C91.1002 81.0996 91.4002 81.0996 91.6002 80.8996C91.7002 80.6996 91.9002 80.1995 91.9002 80.1995C91.9002 80.1995 92.5002 79.4996 92.7002 79.3996C92.9002 79.2996 93.0002 78.9996 93.0002 78.9996L93.5002 78.4996C93.5002 78.4996 92.9002 79.5996 93.0002 79.8996C93.1002 80.1996 93.3002 80.6995 93.5002 80.6995C93.8002 80.6995 94.5002 81.0996 94.1002 81.3996C93.7002 81.6996 93.9002 82.3996 93.5002 82.3996C93.1002 82.3996 92.5002 82.3996 92.5002 82.5996C92.6002 82.7996 93.0002 83.3996 93.0002 83.3996C93.0002 83.3996 92.3002 84.2996 92.1002 84.3996C91.9002 84.4996 91.3002 85.0996 91.3002 85.0996L90.6002 85.6995C90.6002 85.6995 90.0002 86.3996 90.3002 86.3996C90.6002 86.3996 91.5002 86.0996 91.5002 86.0996C91.5002 86.0996 92.2002 85.0996 92.5002 85.0996C92.9002 84.9996 93.3002 85.3996 93.5002 85.3996C93.7002 85.3996 94.9002 85.1996 94.9002 84.9996C95.0002 84.7996 95.2002 83.9996 95.2002 83.9996L93.7002 84.6995C93.7002 84.6995 94.1002 83.4996 94.2002 82.9996C94.3002 82.4996 94.5002 82.1996 94.6002 81.8996C94.7002 81.5996 94.8002 80.8996 95.2002 80.8996C95.6002 80.7996 95.8002 80.7995 96.0002 81.1995C96.2002 81.5995 96.7002 81.8996 96.9002 81.8996C97.2002 81.7996 97.4002 81.5995 97.4002 81.1995C97.3002 80.8995 97.2002 80.3996 97.5002 80.3996C97.8002 80.4996 100.4 79.2996 100.4 79.2996C100.4 79.2996 100.9 78.9995 101.3 78.6995C101.7 78.3995 102.3 78.3996 102 78.0996C101.7 77.7996 101.5 77.7995 101.8 77.5995C102.1 77.2995 102.8 76.7996 102.8 76.7996C102.8 76.7996 103 76.1995 102.7 76.1995C102.4 76.1995 101.3 77.1995 101.3 77.1995C101.3 77.1995 100.6 77.8996 100.5 78.0996C100.4 78.3996 99.5002 78.9996 99.5002 78.9996H98.7002L98.4002 78.4996C98.4002 78.4996 98.1002 78.7996 97.9002 78.8996C97.7002 78.9996 97.3002 79.2996 97.1002 79.3996C96.9002 79.4996 96.6002 79.6995 96.2002 79.6995C95.8002 79.6995 95.0002 79.8996 94.9002 79.5996C94.9002 79.2996 94.9002 78.9996 95.2002 78.5996C95.5002 78.0996 95.8002 77.8995 96.0002 77.5995C96.2002 77.2995 95.9002 77.0995 96.5002 76.5995C97.1002 76.0995 97.5002 76.2996 98.0002 75.9996C98.5002 75.6996 98.2002 75.2996 98.7002 75.2996C99.2002 75.3996 99.7002 75.7996 99.9002 75.2996C100.2 74.7996 100 74.6996 100.2 74.3996C100.4 74.0996 100.9 73.8995 101 74.0995C101.1 74.2995 101.9 73.6996 102.4 73.0996C102.9 72.4995 103.4 72.2996 103.7 72.0996C104 71.8996 104.3 71.8996 104.8 71.5996C105.3 71.2995 106.2 71.1996 106.4 70.8996C106.6 70.5996 106.9 70.3995 107.4 70.0995C107.9 69.7995 108.9 70.1995 108.9 70.1995C108.9 70.1995 110.1 69.9995 111.4 69.6995C112.7 69.3995 112.1 70.1995 112.5 70.0995C112.9 69.9995 113.2 69.9995 113.5 70.1995C113.8 70.2995 113.2 71.2996 113.5 71.2996C113.8 71.2996 114 71.4996 113.6 71.7996C113.2 72.0996 109.3 74.0996 109.3 74.4996C109.3 74.8996 109.4 74.9996 108.6 75.4996C107.8 76.0996 105 78.5996 104.7 78.8996C104.4 79.1996 103.8 79.0996 103.3 79.4996C102.8 79.8996 100.7 81.4996 100 81.4996C99.3002 81.4996 98.4002 81.8996 98.2002 82.2996C98.0002 82.6996 97.6002 82.9995 97.6002 83.1995C97.6002 83.3995 98.1002 83.4995 98.3002 83.6995C98.5002 83.8995 98.4002 84.7996 97.8002 84.8996C97.3002 84.9996 97.5002 84.3996 97.3002 84.9996C97.0002 85.5996 97.0002 86.0996 96.6002 85.9996C96.2002 85.8996 96.9002 86.2996 96.1002 86.4996C95.4002 86.7996 94.7002 86.7996 94.3002 87.3996C94.0002 88.0996 93.8002 88.3996 93.5002 88.5996C93.2002 88.8996 92.8002 89.0995 92.5002 89.1995C92.2002 89.2995 91.8002 89.1996 91.9002 88.5996C92.0002 87.9996 92.3002 88.0996 92.0002 87.9996C91.7002 87.8996 91.4002 87.8995 91.2002 88.1995C90.9002 88.4995 90.0002 88.8996 90.2002 88.4996C90.3002 88.0996 90.9002 87.7996 91.1002 87.5996C91.3002 87.2996 91.4002 86.8996 91.4002 86.8996C91.4002 86.8996 90.9002 86.9995 90.7002 87.1995C90.6002 87.3995 90.4002 87.5996 90.2002 87.4996C90.0002 87.4996 89.8002 86.9996 89.6002 86.9996C89.4002 87.0996 89.1002 87.4996 88.9002 87.3996C88.7002 87.2996 88.8002 86.8996 88.5002 86.9996C88.2002 87.0996 88.1002 87.3996 88.1002 87.3996C88.1002 87.3996 88.2002 88.5996 87.6002 88.2996Z" fill="white"/>
<path d="M107.5 79.4996C107.5 79.4996 106.3 80.0996 106.1 80.7996C105.9 81.4996 104.8 82.0996 104.5 82.2996C104.2 82.4996 102.9 82.6996 102.7 82.8996C102.4 83.0996 101.2 83.3996 101.2 83.3996L99.4998 84.9996C99.4998 84.9996 98.5998 85.5996 99.0998 86.0996C99.5998 86.5996 100.7 86.5996 100.7 87.0996C100.7 87.6996 100.4 88.6996 99.9998 88.2996C99.5998 87.8996 99.0998 88.0996 98.4998 88.2996C97.8998 88.4996 97.2998 89.1996 97.9998 89.2996C98.6998 89.3996 97.8998 90.0996 98.3998 90.4996C98.8998 90.8996 100.1 90.4996 100.1 90.4996C100.1 90.4996 100.3 89.5996 100.7 89.9996C101.2 90.3996 101.5 90.6996 102.1 89.9996C102.7 89.2996 102.7 89.1996 103.4 89.1996C104.1 89.1996 105 88.7996 105.3 89.4996C105.6 90.1996 105.6 90.6996 105.4 91.2996C105.2 91.8996 104.8 92.0996 105.3 92.9996C105.8 93.8996 105.1 97.1996 104.9 97.8996C104.7 98.6996 104.1 99.1996 104 99.9996C103.9 100.8 103.7 102.1 104.2 101.8C104.7 101.6 104.9 100.1 105.4 99.9996C105.9 99.7996 106.1 100.4 106.3 100.8C106.5 101.2 106.4 101 106.6 102.2C106.8 103.4 107.4 103.5 106.8 104.1C106.2 104.7 105.8 103.8 105.4 103.7C105 103.6 104.8 103.3 104.4 103.5C104 103.7 103.1 104 103.4 104.3C103.7 104.7 104 105 104.5 104.9C105 104.9 105.4 105.3 105.7 105.7C106 106.1 106.3 107 106.1 107.3C105.9 107.6 105.9 108.2 105.3 108.5C104.7 108.8 104.2 109 103.9 109.2C103.6 109.4 101.6 111.2 101.8 112.6C102 114.1 102 115.1 102.1 115.6C102.2 116.1 102.5 117.6 102.6 117.7C102.8 117.8 103.3 117.5 103.6 117.7C103.9 117.9 103.4 118.6 103.4 118.6C103.4 118.6 102.6 119.2 102.6 119.5C102.6 119.8 102.6 120.9 102.6 120.9C102.6 120.9 103.6 123.9 103.7 124.7C103.8 125.5 104.5 126.7 105.2 126.4C105.9 126.1 105.7 125.3 106.4 125.4C107.1 125.5 107.3 126 107.6 126.4C107.9 126.8 108.5 126.3 108.9 126.4C109.3 126.5 109.9 126.1 109.9 125.5C109.9 124.9 110.3 123.4 110.6 123.1C110.9 122.7 110.8 120.8 111.1 120.6C111.4 120.3 111.8 120 112.1 119.7C112.4 119.4 112.1 119.5 112.7 118.8C113.3 118.1 114.6 118.2 114.1 117.6C113.6 117 112.7 117 112.7 117C112.7 117 113 116.3 113.2 116C113.4 115.7 113.4 114.8 113.4 114.8C113.4 114.8 114.3 114.8 115.2 114.2C116.1 113.6 117.5 113.4 117.6 112.8C117.7 112.2 117 111.7 117.6 111.5C118.2 111.3 118.4 111.8 118.8 111.9C119.2 112 119.6 111.6 120 111.3C120.4 111 121.8 110.3 122.3 110.3C122.8 110.3 123.6 109.3 123.9 108.6C124.2 107.9 124.4 106.6 124.4 106.6C124.4 106.6 124.7 107 125.7 106.6C126.7 106.2 128.5 105.1 129.3 104.8C130.1 104.5 131.7 103.7 132 103.2C132.3 102.7 133.4 102.2 134.1 101.6C134.8 101 135.3 99.9996 135.3 99.9996H133.9C133.9 99.9996 133.4 99.3996 132.1 99.9996C130.8 100.6 130.1 100.6 130.1 100.6L129.1 99.6996C129.1 99.6996 128.9 99.7996 129.4 98.7996C129.9 97.8996 130.1 97.3996 130.4 97.3996C130.7 97.3996 131.7 97.4996 132 97.2996C132.3 97.0996 132.6 96.3996 132.6 96.3996L130.3 96.2996L130.4 95.0996C130.4 95.0996 130.6 94.3996 131 94.4996C131.4 94.5996 132 94.8996 132.4 95.0996C132.8 95.2996 133.3 95.4996 133.6 95.7996C133.9 96.0996 134.1 95.4996 134.3 96.7996C134.5 97.9996 135 98.1996 135 98.1996V97.2996C135 97.2996 136.2 97.5996 136.3 97.6996C136.4 97.8996 135.7 97.9996 136.3 97.4996C136.9 96.9996 136.7 94.9996 136.7 94.9996C136.7 94.9996 136.2 94.2996 135.8 94.0996C135.4 93.8996 134.8 93.3996 134.3 93.2996C133.8 93.1996 133.7 93.4996 133.2 93.2996C132.7 93.0996 132.7 92.3996 132.7 92.3996L132.1 91.8996C132.1 91.8996 132.2 90.4996 132.6 90.5996C133 90.7996 133.4 91.0996 133.5 90.5996C133.6 90.0996 133 89.2996 133.4 89.1996C133.8 89.1996 134.4 88.8996 134.8 89.1996C135.2 89.4996 136.8 89.1996 137.5 88.8996C138.3 88.4996 138.7 87.3996 139.3 87.5996C139.9 87.7996 140.4 88.2996 140.4 87.5996C140.4 86.8996 139.3 86.7996 139 86.6996C138.7 86.5996 138.6 86.1996 139 85.8996C139.4 85.5996 140.7 85.3996 140.4 84.9996C140.1 84.5996 140.4 83.5996 140.4 83.5996C140.4 83.5996 139.8 82.9996 139.3 82.9996C138.8 82.9996 137.8 83.1996 138.1 82.5996C138.4 81.9996 139 81.1996 139.4 81.1996C139.8 81.1996 139.8 81.5996 140.4 81.5996C141 81.5996 141.6 81.0996 141.6 80.7996C141.6 80.4996 141.3 80.0996 140.9 79.9996C140.5 79.8996 141 80.6996 140.5 79.8996C140 79.0996 140.2 77.9996 140.2 77.9996C140.2 77.9996 140.7 78.7996 140.8 77.9996C140.9 77.1996 141 75.9996 141.1 75.6996C141.2 75.2996 142 74.7996 142.3 74.2996C142.6 73.7996 143.8 72.9996 143.8 72.6996C143.8 72.3996 143.8 72.3996 143.8 72.3996C143.8 72.3996 141.9 72.5996 141.6 72.6996C141.3 72.7996 141.2 72.7996 141.2 72.7996C141.2 72.7996 141.3 71.6996 141.6 71.6996C141.9 71.6996 143.4 71.2996 143.4 71.2996C143.4 71.2996 143.9 70.5996 144.2 70.4996C144.5 70.3996 145 70.6996 145 70.6996L145.9 70.4996C145.9 70.4996 146.6 69.4996 146.7 68.9996C146.8 68.4996 147.1 68.8996 147.6 68.2996C148.1 67.6996 148 67.3996 147.7 67.0996C147.4 66.7996 146.3 66.6996 145.9 66.7996C145.5 66.8996 143.7 67.9996 143.3 68.2996C142.8 68.5996 142.5 68.3996 142.1 68.4996C141.7 68.5996 140.6 69.8996 140.6 69.8996C140.6 69.8996 139.4 70.6996 138.9 70.9996C138.4 71.2996 137.1 72.0996 137.1 72.0996C137.1 72.0996 135.7 71.6996 136.4 71.8996C137.1 72.0996 138.3 69.9996 138.6 69.8996C138.9 69.7996 139.5 69.2996 140 68.9996C140.5 68.6996 141.1 68.3996 141.2 68.0996C141.3 67.7996 141.2 67.2996 141.2 67.2996L139.6 67.8996C139.6 67.8996 138.6 68.4996 138.3 68.4996C138 68.4996 136.9 68.4996 136.9 68.4996C136.9 68.4996 135.4 68.1996 135.1 68.2996C134.8 68.3996 133.4 68.8996 133.1 68.9996C132.8 69.0996 131.4 69.6996 131.4 69.6996L131.5 68.9996L133.9 67.5996L136.5 66.7996L139.2 66.2996L140.9 65.6996L142.1 65.0996C142.1 65.0996 142.7 64.3996 141.3 64.5996C139.9 64.7996 139.1 65.2996 138.6 65.1996C138 65.0996 138.5 64.1996 138.9 63.8996C139.3 63.5996 138.4 63.0996 137.4 63.8996C136.4 64.6996 135.1 64.7996 134.7 64.7996C134.3 64.7996 133 64.9996 132.7 65.1996C132.4 65.3996 131.8 65.9996 131.5 65.9996C131.2 65.9996 131.1 65.4996 131.1 65.4996C131.1 65.4996 131.7 64.6996 132.5 64.4996C133.3 64.2996 134.4 64.1996 135 63.9996C135.7 63.7996 136.2 63.4996 136.2 63.4996C136.2 63.4996 134.3 62.9996 133 63.4996C131.6 63.9996 130.5 64.6996 129.8 65.0996C129.1 65.4996 128.9 65.4996 128.2 65.5996C127.5 65.6996 126.5 65.5996 126.3 66.1996C126.1 66.7996 127.1 66.1996 127.3 66.6996C127.5 67.1996 127.9 67.6996 127.4 68.1996C126.9 68.6996 126.3 67.9996 126.5 67.5996C126.7 67.1996 126.2 67.1996 125.6 67.6996C125 68.1996 124.1 67.9996 123.9 68.3996C123.7 68.7996 123.5 69.7996 123.9 69.7996C124.3 69.7996 123.9 69.1996 124.3 69.7996C124.7 70.3996 124.5 70.8996 124.2 70.9996C123.9 71.0996 122.8 71.4996 122.5 71.2996C122.2 71.0996 122 70.4996 122 69.9996C122 69.4996 121.6 69.0996 121 69.4996C120.4 69.8996 120.5 70.8996 120.1 71.0996C119.7 71.2996 119.3 71.3996 118.9 71.3996C118.5 71.3996 118.4 70.9996 118 71.3996C117.6 71.7996 117.1 72.6996 116.9 72.3996C116.7 72.0996 117.2 71.2996 117.9 70.4996C118.6 69.6996 116.6 70.4996 115.5 70.8996C114.3 71.2996 113.6 71.7996 113.7 72.0996C113.8 72.3996 114.2 73.1996 113.7 73.1996C113.5 73.1996 113.4 73.0996 113.2 72.8996C112.9 72.5996 112.4 72.5996 112.2 72.9996C112.2 73.0996 112.1 73.0996 112.1 73.1996C111.9 73.7996 110.9 74.3996 110.4 74.6996C109.9 74.9996 109.6 75.4996 109.5 75.7996C109.4 76.0996 108.8 76.0996 108.8 76.0996L108.7 75.5996L106.4 77.8996L105.8 78.9996L107.4 77.9996C107.7 78.4996 108.5 78.7996 107.5 79.4996Z" fill="white"/>
<path d="M81.3 215.2C81.3 215.2 80.1 216.2 80.1 215.2C80.1 215.2 79.1 214.9 78.7 215.1C78.3 215.3 77.1 215.9 77 216.4C76.9 216.9 76.5 217.8 77 218.2C77.5 218.6 77.9 219.2 77.7 219.7C77.5 220.2 77 220.7 77.3 221.2C77.6 221.7 77.5 222.4 77.8 222.7C78.1 223 78.1 223.6 78 224C77.9 224.4 77.8 225 77.8 225C77.8 225 76.4 225.5 76.8 225.9C77.1 226.3 77 227.2 76.8 227.3C76.6 227.4 76.2 227.7 76.3 228.2C76.4 228.7 76.7 229.3 76.8 229.6C76.9 229.9 77.4 230.1 77.7 230.3C78 230.5 78.4 230.8 78.1 231.3C77.8 231.8 77.3 231.9 77.3 232.4C77.3 232.9 77.6 233.5 77.8 233.8C78 234.1 81 236.4 81.2 237.4C81.5 238.4 82.5 240 82.9 240.7C83.3 241.4 83.9 242.3 84.7 243C85.5 243.7 85.3 243.6 86 244.5C86.7 245.4 86.9 246.3 87.7 246.4C88.5 246.5 90.8 248.8 91.8 249.1C92.8 249.4 93.8 249.8 94 250.5C94.2 251.2 94.6 252.2 94.8 252.6C95 253 95.7 253.7 95.9 254.3C96.1 254.9 96.3 256 96.7 256.9C97.2 257.9 97.4 257.6 97.8 258.9C98.2 260.2 98 260.8 98.6 261.8C99.2 262.9 100.8 264.4 100.9 265C101.1 265.6 101 265.2 101.3 266.5C101.6 267.8 101.6 268.6 102.5 269.2C103.4 269.9 103.7 271.1 104.5 271.8C105.3 272.6 105.7 272.8 106 273C106.3 273.2 106.8 274.5 106.8 274.5C106.8 274.5 108.1 276.6 108.5 276.8C108.9 277.1 109.2 278.8 109.7 279.1C110.2 279.5 110.8 280.1 111.7 280.9C112.6 281.7 114.3 281.7 114.6 282C114.9 282.3 114 283 114.6 283.5C115.2 284 116.1 284.5 116.5 284.5C116.9 284.5 116.9 283.9 117.5 284.2C118.1 284.5 118.8 285.1 119.3 285.4C119.8 285.7 120.6 285.9 120.9 285.8C121.2 285.7 121.1 285.7 120.9 285.1C120.7 284.5 119.7 284.2 119.1 284C118.5 283.8 117.8 283.7 117.1 282.9C116.4 282.1 116 281.9 116.2 281.5C116.4 281.1 116.4 280.4 116.4 280.4C116.4 280.4 115.7 279.4 115.4 279.3C115.1 279.2 113.9 278.9 113.5 278.7C113.1 278.5 112.8 277.8 112.9 277.5C113 277.2 113.7 276.9 113.6 276.6C113.5 276.3 113.3 276.3 113.2 275.8C113.1 275.3 113 275.2 112.6 275C112.2 274.8 111.5 273.4 111.8 273.4C112.1 273.4 112.4 273.4 112.7 273.6C113 273.8 114.1 274.3 114.1 273.9C114.1 273.5 113.1 273 113.2 272.6C113.3 272.2 114.2 272.2 114.2 272.2L115.5 272.9L116.6 272.2C116.6 272.2 117.2 271 116.8 270.8C116.4 270.6 115.9 270.4 115.6 270C115.3 269.6 114.5 268.9 114.5 268.6C114.5 268.3 115.2 268.4 115.2 268.4L117.8 269C117.8 269 118.3 268.5 118.5 268.1C118.7 267.7 118.6 266.5 118.6 266.5C118.7 265.8 118.2 264.5 118.2 264.5C118.8 264.2 119.3 264.7 119.3 264.7L119.4 266L120 265.4L119.7 264.2L120.1 263.2C120.7 263.6 121 263.1 121 263.1L120.2 262.2L119.6 261.1C119.6 261.1 119.5 260 119.6 259.7C119.7 259.4 120.7 258.3 121 258C121.3 257.7 122 257.7 122.3 257.8C122.6 257.9 123.2 257.6 123.3 257.3C123.4 257 124 256.6 124.3 256.6C124.6 256.6 125.9 256.8 125.9 256.8L126.9 254.8C126.9 254.8 126.4 253.6 126.5 252.9C126.6 252.2 126.6 251.8 126.7 251.5C126.8 251.2 126 249.7 125.9 249.3C125.8 248.9 125.5 247.6 125.4 247.2C125.3 246.8 125.2 246.1 125.4 245.7C125.6 245.3 126.3 245 126.3 245C126.8 244.6 126.7 243.5 127 243.2C127.3 242.9 129.1 241.5 129.1 241.5C129.1 241.5 129.1 239.8 129.1 239.5C129.1 239.2 128.1 237.7 128.1 237.7C128.1 237.7 128 236.8 126.5 236C125 235.2 123.2 234.4 122.1 233.7C120.9 233 119.8 233.2 118.9 232.9C117.9 232.6 117.5 232 116.7 232.2C115.9 232.4 115.5 232.4 115.2 232.7C114.9 233 114.7 232.9 114.5 232.5C114.3 232.1 114.6 231.1 113.8 231C113 230.9 111.6 230.1 111.2 229.9C110.7 229.7 109.8 229.7 109.4 229.5C109 229.3 108.1 229 107.7 229.2C107.3 229.4 106.5 229.6 106.4 230.1C106.3 230.6 105.9 231.1 105.5 231.2C105.1 231.3 104.6 231.1 104.7 230.8C104.8 230.5 105.7 229.2 105.9 228.9C106.1 228.6 106.6 228.1 106.7 227.6C106.8 227.1 106.7 226.1 106.7 226.1L105.9 226.6L104.7 225.9C104.7 225.9 105 224.8 104.4 224.1C103.8 223.4 102.8 223.1 102.6 222.9C102.4 222.7 100.8 221.6 100.3 221.5C99.8 221.4 98.8 221.6 98.2 221.4C97.6 221.2 96.1 221.8 95.4 220C94.6 218.2 93.4 218 93.1 217.7C92.8 217.4 91.5 217.1 91.1 216.6C90.7 216.1 89.9 216 89.6 215.5C89.3 215 89.2 214.4 88.8 214.5C88.4 214.6 87.7 215.3 87.7 215.3C87.7 215.3 87.1 215.9 86.7 215.8C86.3 215.7 86.7 215.1 85.5 215.2C84.3 215.3 83.8 215.2 83.5 214.6C83.2 215.1 82.1 214.2 81.3 215.2Z" fill="white"/>
<path d="M138.9 109.5C138.9 109.5 138.2 110 138 109.5C137.9 109 137.4 108.9 137.2 109.2C137 109.5 137.1 110.1 137.1 110.4C137.1 110.8 136.6 111.3 136.4 111.2C136.2 111.1 135.9 109.7 135.9 109.7L135.1 109C135.1 109 134.8 108.8 134.5 108.9C134.2 109 133.7 109.1 133.6 109.7C133.5 110.3 133.1 110.8 133.1 110.8C133.1 110.8 132.9 111.6 133.1 111.5C133.3 111.4 134 110.5 134.2 110.5C134.4 110.4 134.7 110.5 134.9 110.7C135.1 110.9 135.2 111.5 135.2 111.7C135.1 111.9 134.5 112.1 134.5 112.1L133.7 111.8L133.9 112.2H135.2V113.3L134.5 114.1C134.5 114.1 134.4 115 134.8 114.9C135.2 114.8 135.9 114.2 135.9 114.2C135.9 114.2 136.5 114.1 136.8 114.2C137.1 114.3 137.2 114.7 137.8 114.7C138.5 114.7 139.9 114.4 140.2 114.2C140.5 114 142.2 112.8 142.3 112.6C142.4 112.3 143.9 111.9 144.3 111.5C144.7 111.1 145.3 110.6 145.2 110.3C145.1 109.9 144.5 109.3 144.4 109.2C144.2 109.1 143.7 108.9 143.7 108.4C143.6 107.9 143.4 107.3 143.4 107.3C143.4 107.3 143.1 108.1 142.8 108C142.5 107.9 142.3 107.5 142.3 107.5L141.5 107.7L139.6 109.1L138.9 109.5Z" fill="white"/>
<path d="M147.8 136.7C147.8 136.7 147.4 136.8 146.9 136.7C146.4 136.6 146.3 136.5 146.4 135.9C146.5 135.2 146 135 146.1 134.6C146.2 134.2 146.2 133.9 146.1 133.8C146 133.7 145.6 133.8 145.5 133.4C145.4 133 145.3 132.6 145.8 132.7C146.3 132.8 146.8 132.8 147.2 132C147.6 131.2 147.3 131.2 147.8 130.8C148.3 130.4 149.5 130.2 149.6 130.5C149.7 130.8 147.8 131.5 148.4 131.9C149 132.4 149.3 132.9 149.9 132.6C150.5 132.3 150.9 132.1 151 132.5C151.1 132.8 151.3 133.6 151.1 134.1C150.8 134.6 150.4 135.3 150.4 135.3C150.4 135.3 149.2 135.6 149.9 135.9C150.6 136.2 151 136 151.3 136.4C151.6 136.9 151.6 136.9 151.8 137.5C152 138.2 152 138.5 152.3 138.8C152.6 139.1 152.8 139.3 153.2 139.5C153.6 139.6 153.8 139.9 153.8 140.2C153.8 140.5 153.4 141.1 153.7 141.5C154 141.9 154.2 142.1 154.5 142.6C154.8 143.1 154.7 142.9 155.2 142.9C155.7 142.9 156 142.8 156.1 143.6C156.2 144.3 156.4 145.2 156 145.4C155.6 145.5 154.8 145.1 154.7 145.6C154.6 146.1 154.4 146.6 155 146.6C155.5 146.5 156 147 155.7 147.1C155.3 147.2 154.9 147.2 154.5 147.1C154.1 147 152.7 147.1 152.7 147.1C152.7 147.1 152.5 147.8 152.2 147.6C151.9 147.5 151 147 151 147.1C150.9 147.2 150.9 146.7 150.3 147.1C149.6 147.5 149.5 147.3 149.2 147.6C148.9 147.9 150 148.6 148.5 148.5C147 148.4 147.1 148.1 146.7 148.5C146.3 148.9 146.3 148.9 146.3 148.9L147 147.7C147 147.7 147.9 147 148.3 146.9C148.7 146.8 149.7 146.9 149.6 146.4C149.5 145.9 148.7 145.5 148.4 145.6C148.1 145.7 147.7 145.7 147.5 145.7C147.3 145.6 146.8 145 147.2 144.7C147.5 144.4 148 144.4 148.2 144.1C148.4 143.8 148.9 143.5 148.4 143.2C147.9 142.9 147.5 142.6 147.9 142.5C148.2 142.4 148.7 142.3 149 142.2C149.3 142.1 150 141.4 150 141C150.1 140.5 150.1 140.3 149.8 140.2C149.5 140.1 149.2 140.5 149.2 139.8C149.2 139.2 149.4 138.8 149.3 138.6C149.2 138.4 149.1 138.3 148.8 138.4C148.5 138.5 148.3 138.9 148.1 138.9C147.8 139 147.6 139 147.4 138.7C147.2 138.1 148.1 137.3 147.8 136.7Z" fill="white"/>
<path d="M146 138.8C146 138.8 145.9 138.2 145.4 138.1C144.9 138 145.6 138.2 144.9 138C144.2 137.8 144.2 137.7 143.8 137.7C143.4 137.6 143 138 142.8 138.2C142.6 138.5 142.6 139 142.6 139C142.6 139 142.3 139.5 141.9 139.4C141.4 139.2 140.9 139.6 140.6 139.4C140.3 139.2 140.2 139.7 140.1 140.1C140 140.5 139.8 141.3 140.2 141.5C140.5 141.6 141 142 140.9 142.3C140.8 142.7 140.6 143.1 140.3 143.3C140 143.5 139.6 144 139.5 144.3C139.4 144.6 139.1 145.1 139.5 145.3C139.9 145.6 140.2 145.9 140.9 145.8C141.6 145.7 141.9 146 142.5 145.3C143.1 144.6 142.3 144 143.1 143.9C143.9 143.8 143.9 144.6 144.5 144.1C145.2 143.6 145.7 143.6 145.5 143.1C145.2 142.6 145.1 142.4 145.2 141.6C145.3 140.8 145.4 140.4 145.6 140.1C145.8 139.8 146 139.7 146.2 139.5C146.2 139.3 146 138.8 146 138.8Z" fill="white"/>
<path d="M288.1 231.5C288.1 231.5 286.3 233.3 286.8 231.5C287.3 229.7 287.3 229 286.7 229.4C286.1 229.8 285.4 230.8 285.1 231.5C284.8 232.2 282.4 235.7 280.5 237.5C278.7 239.3 276.8 241 276.1 241.5C275.3 242 273.8 243.5 273.5 244.6C273.2 245.8 273.1 246.8 272.5 248.1C271.8 249.4 271.2 250.7 270.4 251.9C269.6 253.1 268.8 254.2 269.6 253.9C270.4 253.5 272.1 251.4 272.6 250.9C273.1 250.4 274.4 249.1 275.5 248.2C276.5 247.3 276.2 246.1 276.5 247.3C276.9 248.5 276.4 250.2 276.1 250.7C275.8 251.2 275.4 252.8 276.5 251.5C277.5 250.2 284.3 244.7 288.1 231.5Z" fill="white"/>
<path d="M279.6 223.8C279.6 223.8 280.6 222.1 280.6 221.7C280.6 221.3 279.6 220.3 279.6 219.7C279.6 219.2 278.5 218.5 278.7 218.1C278.9 217.7 277.8 216.5 277.4 216.4C277 216.3 276 215.4 276 215.4C276 215.4 276.1 217.2 276.5 217.6C276.9 218 277.3 218.5 277.5 219.7C277.8 220.9 277.8 222.8 277.8 222.8C277.8 222.8 278.3 224.2 278.7 224.4C279.1 224.6 279.6 223.8 279.6 223.8Z" fill="white"/>
<path d="M284.8 220C284.8 220 283.6 220.3 283.4 220C283.1 219.7 282.9 217.1 283.4 216.1C283.9 215.2 285.8 215.2 286.4 213.8C287 212.4 288.7 211.2 288.7 210.7C288.7 210.2 287.7 209.3 288.7 209.3C288.7 209.3 289.7 210.9 289.2 211.8C288.7 212.7 288.4 213.9 288.3 214.4C288.2 214.9 289 215.3 288.2 216.1C287.4 216.9 285.9 217.4 286.2 217.8C286.4 218.1 284.8 220 284.8 220Z" fill="white"/>
<path d="M292.5 200C292.5 200 291.4 199.9 291.6 199.4C291.7 198.9 292.8 197.1 292.8 197.1V195.3C292.8 195.3 293.9 195.1 293.7 196.3C293.4 197.5 292.6 198.8 292.6 198.8L292.5 200Z" fill="white"/>
<path d="M280.7 213C280.7 213 280.2 212.9 280.1 211.8C280 210.8 278.8 209.2 278.8 209.2V211.1C278.8 211.1 279.8 212.3 279.8 213C279.8 213.7 280.1 215 279.8 215.5C279.5 216 279.3 216.9 279.8 217.2C280.3 217.5 280.8 217.7 280.8 217.7C280.8 217.7 280.3 216.5 280.8 215.5C281.2 214.4 281.6 213 280.7 213Z" fill="white"/>
<path d="M279.6 207.2C279.9 206.8 280.8 204.9 280.8 204.9C280.8 204.9 281.9 205 282.3 205.9C282.7 206.8 282.7 206.4 283.1 207.1C283.5 207.8 283.1 209.2 283.1 209.2L285.1 205.8C285.1 205.8 286.1 204.1 286.1 203.7C286.1 203.3 286.6 201.1 286.1 200.6C285.6 200.1 285.7 197.7 285.1 197.6C284.4 197.5 284.8 195.2 285.4 194.5C285.9 193.8 288.9 192.8 289.2 192.3C289.5 191.8 289.9 190.6 290.1 190.2C290.4 189.8 291.1 188.1 291.5 187.6C291.8 187.1 293 186.6 292.5 185.8C292.1 185 292.2 184.4 292.5 183.7C292.8 183 292.7 182.3 292.5 181.5C292.3 180.7 292.7 179.8 292.7 178.5C292.7 177.2 292.8 175.8 292.7 175.4C292.6 175 293.1 174.6 292.5 174C291.9 173.3 290.9 172.4 291.5 171.9C292.1 171.4 292.5 169.9 292.8 169.8C293.1 169.7 291.8 168.5 291.5 169.3C291.5 169.3 290.1 169.7 290.5 168.3C290.9 166.9 290.7 166.1 291.5 165C292.2 164 292.1 162.9 292.5 163.4C293 163.9 292.5 166.7 292.5 166.7C292.5 166.7 292.9 165.1 293.5 165.4C294.1 165.7 292.6 168 293.5 168.3C294.4 168.6 295 169.1 295.1 169.9C295.2 170.7 295.1 172.4 295.1 172.4C295.8 172.4 296.3 171.6 296.3 170.8C296.3 170 295.6 168.6 295.4 167.7C295.1 166.8 294.1 166 294.6 164.3C295.1 162.6 295 162.5 295.1 161.7C295.2 160.9 295.5 160 295.5 160L296.3 161.3C296.3 161.3 297.9 154.4 295.3 143.7C295.3 143.7 294.1 139.7 293.5 139.9C292.9 140.2 294.2 141.5 293.5 141.3C292.8 141.2 293.4 139.5 292.5 139.2C291.5 138.9 291.3 132.4 290.8 130.2C290.3 128 291.6 129.7 292.5 129.2C293.5 128.7 293.9 131.2 294.1 130.5C294.4 129.8 291.7 126.1 292.5 124.8C293.2 123.5 294 124.4 294.1 124.8C294.2 125.2 294.2 126.9 294.8 127.3C295.3 127.7 295.6 130.6 295.7 131C295.8 131.4 295.6 130.6 295.6 130.6C295.6 130.6 295.9 128.2 294.7 124.2C293.5 120.2 292.5 118.6 292.5 117.4C292.6 116.2 291.1 113.9 290.4 113C289.6 112.1 288.6 109 287.3 108.2C286 107.4 285.1 107 284.2 106.4C283.3 105.7 282.5 102.9 281.5 103C280.5 103.1 280.5 102.6 279.5 102C278.6 101.3 278.2 100.4 278 99.9005C277.7 99.4005 276.9 98.9005 276.9 98.9005V100.9C276.9 100.9 276 99.3005 275.9 98.9005C275.8 98.5005 275.1 97.5005 274.5 97.7005C273.8 98.0005 273.9 98.5005 274.5 99.5005C275.2 100.5 275 101.2 274.6 100.9C274.2 100.6 272.5 100 273 100.8C273.5 101.6 273.1 102.5 272.9 102.4C272.7 102.3 270.5 99.7005 269.9 98.2005C269.2 96.8005 268.2 95.9005 267.3 95.6005C266.4 95.3005 265.5 94.3005 265.5 94.3005C265.5 94.3005 264.8 94.0005 265.1 94.7005C265.4 95.4005 266.5 95.5005 265.8 96.2005C265 96.9005 264.5 96.0005 263.6 95.2005C262.7 94.4005 262.5 94.4005 261.9 94.2005C261.3 94.0005 260.9 93.9005 260.6 94.2005C260.3 94.5005 260 94.1005 259.9 94.0005C259.8 93.9005 259.6 94.5005 259.1 94.0005C258.5 93.5005 258.4 93.3005 258.3 92.9005C258.1 92.5005 258.2 92.6005 258.3 92.1005C258.4 91.6005 258.2 90.9005 257.8 91.0005C257.4 91.1005 257.1 91.1005 256.9 90.7005C256.7 90.2005 256.3 90.2005 256.3 89.6005C256.3 88.9005 256.1 88.5005 255.7 88.4005C255.3 88.3005 255 88.3005 254.9 87.9005C254.8 87.6005 255.1 87.1005 254.6 86.9005C254.1 86.6005 253.4 86.1005 253 85.7005C252.7 85.3005 252.3 85.0005 251.9 84.9005C251.4 84.8005 250.9 84.9005 250.3 84.9005C249.7 84.9005 250.4 85.2005 250.3 85.6005C250.2 86.0005 250.1 86.3005 249.6 86.1005C249.1 85.9005 249 85.8005 248.9 84.8005C248.8 83.8005 248.6 83.6005 248 83.6005C247.4 83.6005 247.1 83.6005 247.1 83.6005C247.1 83.6005 246.5 83.4005 246.7 82.8005C246.9 82.2005 245.8 82.2005 245.4 82.1005C245 82.0005 244.8 82.7005 244.9 83.1005C245 83.4005 245.2 84.4005 245.4 84.4005C245.6 84.5005 246 84.8005 246.2 84.9005C246.5 85.0005 247.3 85.4005 247 85.6005C246.7 85.8005 245.9 85.7005 245.9 85.7005V86.4005C245.9 86.4005 245.7 86.7005 245.5 86.7005C245.3 86.7005 245.3 86.7005 244.8 86.6005C244.3 86.5005 243 86.0005 242.4 86.3005C241.8 86.6005 241.6 87.3005 241.4 87.5005C241.2 87.8005 240.9 88.0005 240.7 88.3005C240.5 88.7005 240.3 89.1005 240.4 89.6005C240.5 90.1005 240.3 90.6005 240.7 90.8005C241.1 90.9005 241.6 91.3005 242 91.3005C242.4 91.4005 242 91.4005 242.4 92.0005C242.8 92.6005 242.4 93.5005 242.4 93.5005L241.7 93.4005C241.7 93.4005 241.8 92.2005 241.2 92.6005C240.7 93.0005 240 93.3005 239.6 93.3005C239.2 93.3005 239 93.1005 238.6 93.2005C238.2 93.3005 237.8 93.5005 237.9 93.7005C238 93.9005 238.9 95.3005 239.3 95.5005C239.7 95.8005 240.4 96.2005 240.7 96.1005C241 96.0005 241.4 96.2005 241.6 96.4005C241.9 96.6005 242.9 97.6005 243 97.8005C243.1 98.0005 243.9 99.8005 243.9 99.8005C243.9 99.8005 244.6 101 245.1 101.2C245.6 101.4 246.1 102.5 246.3 102.8C246.5 103.1 247.2 103.7 247.5 103.6C247.8 103.5 248.3 103.3 248.4 103.6C248.5 103.9 248.2 104.2 247.7 104.2C247.2 104.2 246.3 103.9 245.8 103.5C245.3 103.1 244.7 102.7 244.6 102.3C244.5 101.8 245.2 101.6 244.5 101.8C243.8 102 243.4 101.7 243.3 101.4C243.2 101.1 243.1 100.6 243 100.3C242.9 100 242.7 99.4005 242.7 99.4005C242.7 99.4005 242.2 98.8005 242 98.8005C241.8 98.8005 241 98.2005 240.6 98.0005C240.2 97.8005 239.2 97.2005 239 97.1005C238.8 97.0005 237.7 96.3005 237.7 96.3005L236.9 96.0005V97.0005C236.9 97.0005 237.7 97.5005 237.6 97.7005C237.5 97.9005 236.9 97.8005 236.9 97.8005V98.6005C236.9 98.6005 237.6 99.1005 237.8 99.0005C238 98.9005 238.4 99.5005 238.4 99.5005L238.6 100.2C238.6 100.2 237.4 99.9005 237 99.5005C236.6 99.2005 236 98.3005 235.7 97.5005C235.3 96.7005 234.7 95.6005 234.7 95.6005C234.7 95.6005 234.2 95.1005 234.3 95.6005C234.4 96.1005 235.1 96.8005 235.1 97.0005C235 97.3005 234.6 98.4005 235.2 98.7005C235.8 99.0005 237 100.8 237.3 101.7C237.6 102.6 237.8 104.8 238.5 104.6C239.2 104.3 239.4 104.2 239.7 104.1C240 104 240.4 104.1 240.5 104.6C240.6 105.1 240.6 105.4 240.2 105.6C239.9 105.7 239.5 105.9 239.7 106.2C239.9 106.5 240.9 106.6 240.7 107.2C240.6 107.8 240.2 110.6 240.4 110.9C240.6 111.2 240.7 111.6 240.5 111.7C240.3 111.8 238.9 111.8 238.6 111.7C238.3 111.6 237.5 111.6 237.2 111.3C236.9 111 236.2 110.2 236.7 110C237.2 109.8 237.8 110.8 238.3 110.7C238.8 110.6 238.8 109.9 238.8 109.7C238.8 109.4 238.5 107.2 238.5 106.9C238.5 106.6 238.2 105.7 237.8 105.6C237.4 105.5 236.9 105.2 236.7 104.8C236.5 104.3 236 102.8 235.9 102.5C235.8 102.1 235.2 99.7005 234.3 99.4005C233.5 99.1005 233.2 98.9005 233.1 98.4005C233 97.8005 233.4 97.2005 233.1 96.8005C232.8 96.3005 232.8 96.0005 232.4 95.7005C231.9 95.4005 230.3 94.1005 229.7 94.5005C229.1 94.9005 229.1 95.7005 229.2 95.9005C229.3 96.1005 230.1 97.5005 229.9 98.0005C229.7 98.5005 228.8 99.4005 229.1 99.7005C229.4 100 229.8 100.5 230 100.5C230.2 100.5 231 101.7 231 102.3C231 102.8 231.1 103.6 231.5 103.5C231.9 103.4 232.3 103.7 232.5 103.8C232.8 103.9 233.2 104.8 233.5 104.8C233.8 104.8 234.1 105.6 234.1 105.6C234.1 105.6 234.5 106.5 234.2 106.9C233.9 107.3 232.5 105.8 231.9 105.5C231.3 105.2 229.4 103.9 229.1 104C228.8 104.1 227.4 103.7 227.4 103.7C227.4 103.7 226.1 103 225.7 103.1C225.3 103.2 224.9 103.4 225.2 103.9C225.5 104.4 227 105.1 226.8 105.7C226.6 106.2 226.5 106.5 226.3 106.4C226.1 106.3 225.7 106.1 225.7 106.3C225.7 106.6 225.6 107.2 225.6 107.2L224.8 107C224.8 107 225 106.3 224.8 106.1C224.6 105.9 224.3 105.4 224.3 105.4C224.3 105.4 223.1 105.7 222.5 105.9C221.9 106.1 220.3 106.5 219.8 106.7C219.2 106.9 218.5 106.6 218.8 106C219.1 105.4 218.6 105.1 218.2 105.6C218.2 105.6 217.8 105.9 217.5 105.9C217.2 105.8 217.1 106.2 216.7 106.4C216.2 106.6 215.9 106.3 215.6 106.7C215.3 107.1 214.6 107.7 214.7 107.9C214.8 108.2 214.5 108.6 214.2 108.6C213.9 108.6 213.6 108.5 213.7 108.9C213.8 109.3 214.3 110.3 213.7 110.3C213.1 110.4 211.8 110.2 211.4 109.8C210.9 109.5 210.4 108.4 210.6 108.2C210.7 107.9 211.7 107.5 211.6 107.2C211.5 106.8 210.5 106.3 210.5 106.3L209.7 106L208.9 105.9C208.9 105.9 208.5 106 208.9 106.7C208.9 106.7 208.7 108.3 209.2 108.8C209.7 109.3 209.9 109.9 210.2 109.8C210.6 109.7 210.7 110.5 210.6 110.8C210.5 111.1 210 112.1 210 112.1C210 112.1 209.5 111.1 208.7 111.1C207.9 111.1 207 111.4 206.6 112.1C206.2 112.9 205.5 113.7 205.5 113.7C205.5 113.7 205.3 114.2 206 114.1C206 114.1 206.7 114.8 206.7 115.1C206.6 115.5 206.2 115.8 205.8 115.8C205.3 115.7 203 114.8 203 114.8L202 114C202 114 201.5 114 201.7 114.4C201.9 114.8 201.7 115.6 201.7 115.6C201.7 115.6 202.3 116.2 202.6 116.2C202.9 116.2 203.7 116 203.7 116C203.7 116 204.4 116.5 204.2 116.8C204.1 117.1 203.6 117.9 203.3 117.8C203 117.7 202 117 201.7 116.8C201.4 116.6 200.6 115.6 200.1 115.4C199.6 115.2 199.3 114 199.3 114C199.3 114 198.9 113.9 199 113.2C199.1 112.5 199 111.9 198.5 111.6C198 111.3 195.2 110 195.4 109.4C195.6 108.8 197.2 110.2 198.1 110.6C199 110.9 201 111.3 201.4 111.3C201.8 111.3 203.2 111.2 203.6 111.2C204 111.2 204.6 111.4 205.1 110.9C205.6 110.4 206.1 109.9 206 109.5C205.9 109 205.7 108.3 205.1 108.1C204.5 107.9 203.6 107 203.2 106.9C202.8 106.8 199.7 104.7 199 104.6C198.3 104.5 196 104.1 195.6 104.1C195.2 104.2 194 103.6 194 103.6L193.5 102.7C193.5 102.7 193.2 102 193 102.2C192.7 102.3 193.1 102.9 192.7 102.9C192.3 103 191.3 102.4 190.7 102.4C190.1 102.4 189.4 101.9 189.4 101.9C189.4 101.9 189.5 101.5 190.2 101.5C190.9 101.5 192 101.6 192 101.3C192 101 191.5 100.5 191.3 100.5C191.1 100.5 190.2 100.6 189.9 100.4C189.6 100.3 189.3 100.1 189.3 100.1C189.3 100.1 189.8 100.8 189.4 100.9C188.9 101 188.7 100.5 188.7 100.5V99.4005C188.7 99.4005 188.2 98.6005 188 98.7005C187.7 98.8005 187.8 99.6005 187.6 99.6005C187.3 99.6005 187.3 100.3 186.9 100.7C186.4 101.2 186.4 100.2 186.1 100.4C185.7 100.6 186 101.4 185.5 101.6C185 101.7 184.3 101 184.8 100.6C185.3 100.1 185.5 99.0005 184.9 99.4005C184.4 99.9005 183.7 100.1 183.7 100.7C183.7 101.3 183.2 102.2 182.9 102.1C182.6 102 182.1 101.6 181.7 101.8C181.3 102 180.7 101.9 181 102.3C181.3 102.6 180.9 103 180.6 103C180.3 103 179.9 102.6 179.6 102.8C179.2 103 178.9 103.6 178.8 103.6C178.7 103.6 178.5 103.3 178.3 103.1C178.2 102.9 178 102.9 177.8 103C177.5 103.1 177.4 103.4 177.5 103.6C177.6 103.8 177.6 104 177.6 104.1C177.4 104.4 176.5 105.3 176.5 105.3C176.5 105.3 175.9 105 175.7 105C175.5 104.9 173.8 104.6 173.6 104.9C173.4 105.2 173.3 105.7 173.9 105.8C174.5 105.9 175.1 106 174.9 106.3C174.8 106.6 174.3 106.8 174.2 107.1C174.1 107.4 174.5 108.2 174.5 108.2L174 108.5L173.3 109L174.2 109.3C174.2 109.3 173.9 109.8 173.3 109.7C172.7 109.6 172.1 110.3 172.1 110.3C172.1 110.3 172.2 111.3 172.1 111.5C172.1 111.5 171.7 111.6 171.6 112.1C171.5 112.6 171.4 113.6 171.2 113.9C171 114.2 170.1 114.6 169.8 115.2C169.5 115.8 168.9 116.2 168.5 116.6C168.1 117 167.9 117.3 167.9 117.3C167.9 117.3 167.2 118.3 167.9 118.1C168.6 117.9 168.7 117.4 169.1 117.4C169.4 117.5 169.6 118.2 169.1 118.6C168.6 119 168.4 119.4 168 119.3C167.6 119.2 167.1 118.8 166.8 118.8C166.5 118.8 166.2 118.5 165.9 118.7C165.6 118.9 165.1 119.5 164.7 119.6C164.4 119.7 163.9 119.7 164.1 120C164.3 120.3 164.3 120.4 164.6 120.6C164.9 120.8 164.5 121.3 164.3 121.4C164.1 121.5 163.8 121.7 163.6 121.7C163.4 121.6 164 121.7 163.4 121.6C162.8 121.5 162.4 121.7 162.2 121.7C161.9 121.6 161.9 121.8 161.7 122C161.5 122.2 161.9 122.8 161.7 123C161.5 123.3 161.1 123.7 161.3 123.8C161.5 123.9 161.6 124.5 161.9 124.5C162.2 124.4 162.5 124 162.7 123.8C163 123.5 163.5 123.3 163.7 123.5C163.9 123.6 164.4 124 164.2 124.3C163.9 124.6 163.6 124.9 163.3 124.8C163 124.7 162.5 124.7 162.2 124.9C161.9 125 161.7 125.6 161.7 125.6C161.7 125.6 161.7 126.9 162.1 126.7C162.5 126.5 162.9 126.7 162.9 126.7C162.9 126.7 163.1 127.3 162.8 127.4C162.5 127.5 162.2 127.7 162.2 127.7C162.2 127.7 162.2 128.4 162.4 128.4C162.6 128.4 162.9 128.7 162.9 129C163 129.3 163 129.7 162.8 129.7C162.5 129.8 162.2 130 162.2 130C162.2 130 162.1 130.5 162.3 130.6C162.5 130.7 163.1 131.1 163.1 131.1C163.1 131.1 163.3 131.6 163.5 131.6C163.7 131.5 164 131.1 164.3 131.2C164.6 131.3 165.2 131.5 165.6 131.3C166 131 167.1 130.6 167.2 130.3C167.3 130 167.3 129.5 167.7 129.4C168.2 129.3 168.5 129.8 168.7 129.5C168.9 129.2 169 129 169.3 129.1C169.6 129.2 169.9 129.9 170.3 131.1C170.7 132.3 170.9 133.9 171.6 134.2C172.3 134.5 172.6 134.8 172.7 135.1C172.8 135.4 172.9 136.3 172.7 136.4C172.5 136.5 172.5 136.9 172.5 136.9C172.5 136.9 173.1 137.6 173.3 137.5C173.6 137.4 174.1 137 174.3 136.8C174.5 136.6 175 135.9 175.4 135.9C175.8 135.9 176.8 135.5 176.8 135.5C176.8 135.5 177.2 135 177.1 134.8C177 134.5 176.3 133 176.8 132.6C177.3 132.1 177.6 132.1 177.6 131.8C177.6 131.5 177.4 130.5 177.6 130.2C177.8 129.9 178.1 129.7 178.4 129.5C178.7 129.4 179.3 128.3 179.5 127.9C179.7 127.5 179.8 127.2 179.7 126.9C179.6 126.6 179.1 126.4 179 126.1C178.9 125.8 178.9 125.4 178.6 125.4C178.3 125.3 178.1 125.2 177.9 125.1C177.6 125 177.6 124.8 177.4 124.2C177.2 123.6 177.1 121.7 178.2 120.4C179.3 119.1 180.9 118.3 181.1 117.8C181.4 117.3 182 116.3 181.9 116C181.8 115.7 181.6 115.6 181.6 115.3C181.7 115 182.1 113.7 182.4 113.2C182.7 112.7 183 112.6 184.3 112.5C185.6 112.4 186.5 113.3 186.8 113.4C187.1 113.5 187.3 114.2 187.1 114.6C186.9 115.1 185.1 117 184.9 117.3C184.7 117.6 184.2 118.5 183.8 118.7C183.3 119 183.2 118.7 183 118.8C182.8 118.9 182.3 119.1 182.5 119.7C182.7 120.3 183.2 121.9 183.3 122.6C183.4 123.3 183.4 124.3 183.6 124.6C183.8 124.9 184 125.3 184.3 125.2C184.6 125.1 185 125 185.2 125.1C185.4 125.2 186 126.1 186 126.4C186 126.7 186.1 126.7 186.4 126.8C186.7 126.9 186.8 126.2 187 126.2C187.2 126.1 187.5 126.5 187.7 126.5C187.9 126.5 188.7 126 188.9 125.8C189.1 125.6 190.7 125.1 190.9 125.1C191.1 125.1 191.7 125 192.1 125C192.5 125 193.2 125.5 193.5 125.7C193.8 125.9 194.3 126.2 194.4 126.4C194.5 126.6 194.2 126.6 194 126.8C193.8 127 193.3 127.2 193.3 127.2C193.3 127.2 192.8 127.5 192.7 127.7C192.6 127.9 192.9 128.4 192.4 128.3C191.9 128.2 190.5 128.2 190.1 128.2C189.6 128.2 188.1 128.3 187.8 128.4C187.5 128.5 186.9 129 186.9 129C186.9 129 186.7 129.8 186.8 130C186.9 130.2 187.1 130.7 187.5 130.6C187.8 130.5 188.3 130.6 188.5 130.6C188.7 130.6 188.9 131.1 188.7 131.3C188.5 131.5 187.9 132.2 188 132.7C188.1 133.2 188.1 133.6 187.9 133.7C187.7 133.8 187.5 134 187.2 133.8C186.9 133.7 186.4 133.1 186.2 132.9C186 132.6 185.5 132.2 185.2 132.3C184.9 132.4 184.4 132.8 184.4 132.8C184.4 132.8 184.1 133.5 184.1 133.6C184.1 133.8 184.2 135.1 184.2 135.4C184.2 135.7 184.3 137 184.3 137.4C184.3 137.8 184.4 138.3 184.2 138.4C184 138.5 183.4 138.2 183 138.6C182.6 139 182.2 139.4 182 139.4C181.8 139.3 180.7 139.4 180.4 139.1C180.1 138.8 179.8 139 179.6 139C179.3 139 177.8 139.8 177.8 139.8C177.8 139.8 175.8 140.7 175.1 140.7C174.4 140.6 173.5 140.6 173.3 140.3C173.2 140 173.4 140.1 173 139.8C172.7 139.6 172.3 139.8 171.9 140.1C171.5 140.4 170.4 140.9 170 140.8C169.6 140.7 167.7 139.2 167.1 138.1C166.5 136.9 167.9 136.1 168.3 135.8C168.7 135.5 169.1 135.4 168.9 135C168.6 134.5 168.4 133.7 168.5 133.4C168.6 133.1 168.4 132.8 168.2 133.1C167.9 133.4 167.5 133.8 167.2 133.9C166.9 134.1 166.7 134 166.4 134.2C166.1 134.4 165.4 135 165.9 134.9C166.4 134.8 166.8 135 166.6 135.2C166.4 135.4 165.9 135.3 165.8 135.7C165.7 136.1 165.3 136.6 165.4 136.8C165.5 137 165.1 137.6 165.5 137.7C165.9 137.8 166.3 137.8 166.3 138.1C166.2 138.4 166.1 138.8 166.2 139.1C166.3 139.4 166.1 139.4 166.4 139.9C166.7 140.3 167.1 140.8 167.1 140.8C166.8 141.1 166.5 141.1 166.3 141.3C166 141.5 165.8 141.8 165.6 141.7C165.3 141.6 165 141.2 165 141.2C165 141.2 164.7 141.4 164.4 141.5C164.1 141.6 161.4 142.8 161.1 143.1C160.8 143.4 159.9 144.1 160 144.5C160.1 144.9 160.1 145.3 159.9 145.5C159.7 145.7 159.2 146 159.2 146C159.2 146 159.3 146.5 159 146.7C158.7 147 158.6 147.2 158.2 147.2C157.7 147.2 157.7 147 157.3 147.1C156.8 147.2 156.1 147 156.1 147.3C156.2 147.6 155.8 147.8 156.1 148.2C156.4 148.6 156.2 148.9 156.1 149.1C156 149.4 155.5 149.5 155.3 149.5C155.1 149.5 155 149.6 154.8 149.6C154.6 149.6 154.2 149.7 154.1 150.1C154 150.5 154.4 150.3 154 150.5C153.5 150.7 152.8 150.9 152.6 150.8C152.3 150.7 151.8 150.5 151.7 150.8C151.6 151.1 151.5 151.7 151.4 151.9C151.3 152.1 150.9 152.5 150.5 152.5C150.1 152.5 148.5 152.3 148.5 152.3C148.5 152.3 148.3 152 147.8 152.2C147.3 152.3 147.2 152.5 147.1 152.9C147 153.2 146.4 153.6 147.1 153.6C147.8 153.6 148.3 153.9 148.6 153.8C148.9 153.7 149.1 153.6 149.4 153.8C149.7 154 149.7 154.3 150 154.4C150.3 154.5 150.9 154.5 150.9 154.5C150.9 154.5 150.8 155.5 150.9 155.7C151 156 151 156.4 151.3 156.4C151.6 156.4 152 156.7 152.2 156.7C152.4 156.7 152.6 157 152.6 157.2C152.6 157.4 151.7 157.5 152 157.8C152.3 158.1 152.8 158.3 152.6 158.6C152.4 158.9 152.2 159.1 152.2 159.4C152.2 159.7 152.2 160.4 152.3 160.8C152.4 161.2 152.1 162 152 162.3C151.9 162.6 152.1 163.1 151.5 163C150.9 162.9 146.8 162.2 146 162.3C145.2 162.4 143.5 162.2 142.9 162.2C142.3 162.2 142.3 162.1 141.9 162.5C141.4 162.8 141.4 162.6 141.1 163C140.8 163.4 140.6 163.3 140.8 163.8C141 164.4 141.3 165.6 141.4 166C141.5 166.3 141.1 168.1 141.1 168.4C141.1 168.7 140.4 170.3 140.2 170.6C139.9 170.9 139.9 171.6 140.2 171.8C140.5 172.1 140.7 171.9 140.8 172.4C140.9 172.9 140.9 173.4 140.7 173.8C140.6 174.2 140.7 174.9 141.1 175C141.5 175.1 141.9 175.1 142.3 175C142.7 174.9 143.3 174.7 143.7 174.7C144 174.7 144.3 174.8 144.4 175.2C144.5 175.6 144.5 176.2 145.2 176.1C145.9 176 145.6 175.7 146.4 175.5C147.2 175.3 147 175.4 148.1 175.5C149.2 175.6 149.3 175.8 149.9 175.6C150.6 175.5 150.6 175.8 151.1 175.2C151.6 174.6 151.7 174.6 152.4 173.7C153.1 172.8 153.3 171.9 153.6 171.7C153.9 171.4 153.3 170.7 153.3 170.2C153.4 169.7 153.5 168.9 154.4 168.2C155.3 167.5 156.6 166.5 157.2 166.4C157.9 166.3 158.4 165.9 158.5 165.7C158.6 165.4 158.4 164.7 158.3 164.3C158.2 164 158.4 162.9 158.8 162.7C159.2 162.5 159.8 162 160.2 162.1C160.7 162.2 161.9 162.4 162.4 162.5C162.9 162.6 163.1 163.1 163.4 162.9C163.8 162.7 163.7 162.3 164.2 162.1C164.7 161.9 166.2 160.9 166.8 160.5C167.5 160.1 168.4 160.6 168.7 160.6C169 160.6 169.7 161.1 169.9 161.6C170.1 162.2 170.2 162.8 170.6 163.3C171.1 163.8 173.1 165.4 173.3 165.9C173.6 166.4 174.1 166.7 174.5 166.6C174.9 166.5 175.3 166.5 175.8 166.7C176.3 166.9 177.2 167.2 177.2 167.6C177.2 168 177.7 168.6 178.1 168.8C178.6 168.9 179.1 170.1 179.3 170.2C179.4 170.3 179.6 170.8 179.4 171C179.3 171.3 178.5 172.5 178.6 172.8C178.7 173.1 179.1 172.9 179.4 172.5C179.7 172.1 180.1 171.5 180.3 171.2C180.5 170.9 181 171.1 180.4 170.2C179.8 169.2 179.9 168.2 180.3 168.1C180.8 168 181.5 168.6 181.8 168.8C182.1 169.1 182.4 169.2 182.4 168.9C182.4 168.6 182.5 168.1 182.1 167.9C181.8 167.7 181.9 167.6 181.4 167.5C180.9 167.4 179.4 166.7 178.9 166.4C178.4 166.1 178.2 165.9 178.1 165.6C177.9 165.3 177.3 164.9 176.9 164.8C176.5 164.7 175.9 164 175.3 163.5C174.7 163 172.6 160.3 172.4 159.8C172.1 159.3 173 158.2 173.5 157.9C174 157.6 174.5 157.8 174.5 158.3C174.5 158.8 174.6 159.4 175 159.3C175.5 159.2 175.8 158.8 176.1 158.5C176.4 158.2 177.5 158.5 177.2 158.8C176.9 159.1 177 160.4 177.2 160.5C177.4 160.6 177.7 161.5 178.3 161.7C179 161.9 179.5 162 179.8 162C180.1 162 180.7 162.6 180.9 162.7C181.1 162.8 183.6 164.7 183.8 165.5C184 166.3 183.8 167.3 184.1 167.7C184.4 168.1 185.7 169.7 186.1 170C186.4 170.3 187.1 171.1 187.3 171.4C187.5 171.7 187.9 172.2 187.9 172.2C187.9 172.2 187.9 173.4 187.9 173.8C187.9 174.2 187.8 174.6 188.2 174.7C188.5 174.8 189.2 174.9 189.6 175.1C189.9 175.3 189.4 175.8 189.9 175.3C190.4 174.8 190.5 174.5 190.7 174.4C191 174.3 191 173.9 190.7 173.7C190.4 173.5 190.4 173 190.4 173C190.4 173 191.1 173.1 191.1 172.7C191.1 172.3 191.1 172.2 190.7 172C190.3 171.7 190.1 171.7 190 171.2C189.9 170.7 189.9 170.5 189.8 170C189.7 169.5 189.4 169 189.1 168.8C188.8 168.7 188.4 168.6 188.7 168.2C189 167.8 189.1 167.7 189.4 168.1C189.7 168.4 190.2 168.4 190.2 168.4C190.2 168.4 190.8 167.9 190.7 167.6C190.6 167.3 190.6 166.9 191 167C191.3 167.1 191.7 167.4 192 167.1C192.4 166.8 192.7 166.7 193.2 166.8C193.7 166.9 194.2 167.2 194.4 167.4C194.7 167.6 194.9 167.8 194.9 168.4C194.9 169 194.6 169.3 194.8 169.6C194.9 169.9 195.1 169.9 195.3 170C195.6 170.1 195.7 170.1 195.7 170.5C195.7 170.9 195.9 171.3 195.6 171.4C195.3 171.5 194.6 171.3 194.9 171.8C195.2 172.3 196.7 174.5 197.4 174.7C198.1 175 198.8 175.1 199 175.2C199.2 175.3 198.6 175.7 199.3 175.9C200 176.1 200.5 175.7 200.8 175.7C201.1 175.7 201.8 175.8 201.8 175.5C201.8 175.2 201 175.4 201.8 175.2C202.6 175 203.3 175.1 203.8 175.2C204.3 175.3 204.5 175.5 205 175.9C205.5 176.2 206.4 175.9 206.8 175.7C207.1 175.5 207.9 175 208.2 174.9C208.5 174.7 208.9 174.5 209.4 174.6C209.9 174.7 210.4 174.8 210.5 175.1C210.6 175.4 209.6 175.6 209.6 176C209.6 176.4 209.7 176.8 210 176.9C210.3 177 210.7 177.2 210.7 177.7C210.7 178.2 209.7 179.7 209.7 180.4C209.7 181.1 209 182.1 208.9 182.6C208.8 183.1 208.2 184 208 184.1C207.8 184.2 207.2 185.1 206.8 185C206.4 184.9 206.3 184.8 206 185.1C205.7 185.4 205.5 185.4 205.7 185.8C205.8 186.3 205.6 187.2 206 187.7C206.3 188.2 206.8 189.3 207.1 189.5C207.4 189.7 207.8 190.5 207.9 190.5C208.1 190.4 208.1 189.5 208.2 189.3C208.3 189.1 208.5 188.4 208.9 188.7C209.3 189 209.3 189.6 209.6 190C209.9 190.4 210.3 190.5 210.8 191.2C211.3 191.9 211.3 192.4 211.8 193.1C212.3 193.8 212.5 194.1 212.7 194.8C212.9 195.5 212.6 196.3 213 196.4C213.5 196.5 213.7 196.3 214 196.6C214.3 196.9 214.9 197.6 215.2 198.5C215.5 199.4 215.6 201.8 215.7 202C215.8 202.2 215.8 202.5 216.3 202.5C216.8 202.5 217.9 203.7 218.1 204.1C218.3 204.5 218.2 205 218.7 205.7C219.2 206.4 219.7 206.8 219.9 207.1C220.1 207.4 220.4 207.1 220.4 208.2C220.4 209.3 220.7 211.5 221 211.9C221.3 212.2 221.3 212.9 221.5 213.2C221.7 213.5 221.7 214.2 222.2 214.1C222.7 214 224.4 213.2 224.7 213C225.1 212.8 225.4 212.9 225.8 212.9C226.2 212.8 226.8 212.4 227.1 212.1C227.4 211.8 228.1 211.4 228.5 211.5C228.9 211.6 229.5 211.4 229.8 211.2C230.1 211 232.3 209.6 232.8 209.3C233.3 209 233.9 208.3 234.2 208.1C234.5 207.8 236.1 207.1 236.5 207.1C236.9 207 236.9 206.6 237.2 206.3C237.5 206 239 204.6 239.4 204.2C239.7 203.8 240.2 203.4 240.3 203C240.4 202.6 240.3 202.3 240.6 201.8C240.9 201.3 241.3 201 241.6 200.6C241.9 200.3 243.3 199.4 242.8 198.3C242.3 197.2 241.9 195.9 241.4 196.1C240.9 196.3 241.1 196.9 240.4 196.4C239.7 195.9 239.2 195.6 239.2 195.1C239.1 194.6 238.9 194.5 238.9 193.9C238.9 193.3 238.7 192.9 238.7 192.9C238.7 192.9 238.3 193.2 238.2 193.7C238.1 194.2 237 194.7 236.9 195.1C236.8 195.4 237.2 195.8 236.8 195.9C236.3 196 235 196 235 196C235 196 234.8 195.9 234.4 196.1C234 196.4 233.2 196.4 233.2 196.4C233.2 196.4 232.9 195.9 232.9 195.5C232.9 195.1 232.8 193.6 232.8 193.6C232.8 193.6 232.5 193.1 232.2 193.7C231.9 194.3 232.1 194.9 231.8 194.8C231.5 194.7 230.8 193.4 230.6 192.8C230.5 192.2 230.2 191.5 230.1 191.3C230 191.1 230 191.2 229.6 191.1C229.2 191 228.8 190.8 228.8 190.3C228.8 189.7 228.9 189.6 228.7 188.8C228.5 188 228.4 187.2 228.9 186.7C229.4 186.2 229.7 185.4 230.1 185.5C230.5 185.6 231.5 186.6 231.5 187.3C231.5 188 232 188.8 232.3 189.3C232.7 189.8 234.2 190 234.5 190.5C234.8 191 235.2 191.2 236.1 191.3C236.9 191.4 237.6 191.7 238 191.4C238.4 191.1 238.3 190.5 239 190.7C239.7 190.9 240.2 191.7 240.4 192.1C240.5 192.6 242.5 193 243.2 192.9C243.9 192.8 244.8 193.2 245.7 193.4C246.6 193.5 247.5 193.4 248.1 193.3C248.7 193.2 249.4 192.8 250 192.8C250.6 192.8 250.8 192.9 251.2 193.1C251.6 193.3 252 194.1 252 194.1C252 194.1 253 195.1 253.3 195.8C253.6 196.4 254 196.8 254.3 196.6C254.6 196.5 255.4 196 255.6 196.3C255.8 196.6 256.3 196.8 255.8 197C255.3 197.3 254.6 197.8 254.6 197.8C254.6 197.8 254.1 198.1 254.5 198.5C255 198.8 255.4 199.2 255.7 199.5C256 199.8 256.5 199.2 256.7 199C256.9 198.8 257.2 197.8 257.2 197.8C257.2 197.8 257.3 196.8 257.6 197C257.9 197.2 258.2 198.4 258.1 199.1C258 199.8 257.9 201.4 258.2 201.6C258.5 201.8 258.6 202.5 258.7 203.6C258.8 204.7 258.3 206.3 258.8 207.3C259.3 208.3 260.2 211.3 260.4 212C260.6 212.7 261.1 215 261.1 215.2C261.1 215.4 261.7 215.4 262 215.2C262.3 215 262.8 213.7 262.8 213.7C262.8 213.7 263.9 212.7 264 212.4C264.1 212.1 264.3 211.1 264.3 210.6C264.3 210.1 264.9 207.4 264.8 206.7C264.7 206 265.1 205.2 265.1 205.2C265.1 205.2 268.4 201.9 269.5 200.2C270.6 198.4 271.1 198.2 271.2 197.7C271.3 197.2 270.8 197.1 271.2 196.9C271.6 196.6 273.5 196.1 273.9 195.5C274.3 194.9 274.7 194.7 274.8 194.4C274.9 194.1 275.1 193.7 275.4 194C275.7 194.3 275.9 195.3 275.9 195.8C275.9 196.2 276.1 196.6 276.2 196.9C276.3 197.2 277.2 197.8 277.2 197.8C277.2 197.8 277.7 198.5 277.7 199.2C277.7 199.9 277.6 200.4 277.6 201.2C277.6 202 277.2 202.6 277.7 203C278.2 203.3 278.3 203.5 278.6 203.2C278.9 202.9 279.1 202.6 279 202.2C279 201.8 279.1 201 279.3 201.2C279.5 201.4 280 202.6 279.7 203C279.4 203.4 279.1 203.8 279.4 204.2C279.7 204.5 280 204.8 280 205.2C280 205.6 280 206.7 280 206.7C280 206.7 279 207.1 279.6 207.2Z" fill="white"/>
<path d="M264.9 215.9C264.9 215.9 264.7 214.3 264.6 213.9C264.5 213.5 264.5 212.9 264.1 213.1C263.6 213.2 263.4 213.4 263.4 213.8C263.5 214.1 263.7 214.6 263.7 215.1C263.7 215.6 263.8 216.3 263.7 216.5C263.6 216.8 263.2 217.7 264.1 217.3C265.1 216.8 264.9 215.9 264.9 215.9Z" fill="white"/>
<path d="M152.1 177.9C152.1 177.9 151.8 178.5 150.7 178.5C149.6 178.5 147.4 178.7 146.8 178.5C146.1 178.4 146.4 178 145.4 178C144.4 178 144.4 177.7 144 178.6C143.6 179.5 142.7 180.6 142.7 180.6C142.7 180.6 141.9 181.4 141.2 181.6C140.4 181.9 139.5 182 139.3 182.8C139.1 183.6 138.7 185.1 138.7 185.8C138.7 186.5 138.3 187.5 138 188C137.7 188.5 136.8 189.8 136 190C135.2 190.1 134.3 189.9 133.9 190.5C133.5 191.1 133 192.2 132.7 193C132.4 193.8 132.2 193.8 131.5 194.2C130.8 194.6 130.5 195 130.2 195.6C129.9 196.3 128.6 197.7 128.4 198.3C128.2 199 128.2 199.2 127.8 200.3C127.4 201.3 127.4 202.1 127.8 202.4C128.2 202.7 128.1 202.9 128.4 203.7C128.6 204.5 129 208.1 129 208.1L127.5 210.2C127.5 210.2 126.4 211.2 126.6 211.6C126.9 212 127.3 212.4 127.5 213.2C127.7 214 126.3 214.1 127.5 214.7C128.7 215.4 129.6 215.8 130.5 216.3C131.4 216.8 131 216.8 131.5 217.6C132 218.4 132.7 218.9 133.1 219.1C133.5 219.3 133.2 220.1 133.8 220.8C134.3 221.6 134.2 222.4 135.1 222.5C136 222.6 136.3 222.8 137.2 223.7C138.1 224.6 137.7 225.5 139.4 225.7C141.1 225.8 143.9 226.2 144.6 226C145.4 225.7 146.9 225 147.6 225.5C148.3 226 148.1 226.4 149.2 226.7C150.4 227 151.3 226.8 152.1 226.4C152.9 226 153.8 225.2 154.3 225.1C154.8 225 156.6 224.8 157.3 225C158 225.1 159 225.4 159.8 225.1C160.6 224.8 160.8 224.4 161.6 225C162.4 225.5 161.9 226.2 162.6 226.8C163.4 227.4 163.4 227.8 164.3 227.6C165.2 227.3 165.7 226.7 166.4 226.8C167.1 226.9 167.6 225.6 168.1 226.8C168.6 228 169 229.1 169 229.5C169 229.9 167.8 231.7 168.1 232.1C168.4 232.5 168.2 233.8 167.8 234.3C167.4 234.8 167.3 236 167.7 236.4C168.1 236.8 169 238.1 169.8 238.1C170.6 238.1 171.2 239.3 171.8 239.7C172.3 240.1 172.3 241.1 172.8 241.7C173.3 242.2 174 242.5 174 243.8C174 245.1 173.5 245.5 174 246.3C174.5 247.1 174.8 247.6 174.5 248.3C174.2 249 174.4 250.1 173.8 250.1C173.3 250.1 172.8 250.4 172.5 251C172.2 251.7 172.1 251.8 172 252.3C171.9 252.8 171 254.4 171.1 255.2C171.2 256 171.8 257.2 172.3 257.5C172.8 257.9 173.6 258.5 174 259.3C174.4 260.1 174.3 261.3 174.6 262.4C174.9 263.6 174.2 264.1 175.4 265.5C176.6 266.9 177.2 267.3 177.7 267.8C178.2 268.3 178.2 268.6 178.6 269.8C179 271 179.1 271.5 179.1 272.1C179.1 272.8 178.7 273.3 179.9 273.3C181.1 273.3 183.3 272.1 184.3 272.1C185.3 272.1 186.5 271.7 187.2 272.1C187.9 272.5 193.9 270 195.2 269.1C196.5 268.2 198.1 266 198.5 265.4C198.9 264.9 199.3 264.2 199.4 263.6C199.5 262.9 199.5 262.4 200.3 262.3C201.1 262.2 203.2 261 203.3 260.1C203.4 259.2 203.8 258.9 203.6 258.3C203.3 257.6 202.3 256.6 203.5 256.6C204.7 256.6 206.6 254.3 208.1 253.5C209.5 252.7 210.3 253 211.4 252.5C212.4 252 212.8 251.5 212.8 250.7C212.8 249.9 212 250 212.4 248.2C212.8 246.4 213.4 246.1 213.3 245.6C213.2 245.1 212.4 244.6 212.4 244.6C212.4 244.6 212.1 243.6 212.1 242.9C212.1 242.2 211.8 243.6 212.1 242.2C212.4 240.9 212.2 240.6 211.8 240.2C211.4 239.8 212.1 239.3 212.2 238.8C212.3 238.3 217.7 232.7 218 231.8C218.3 230.9 222.4 227.6 223.5 226.8C224.6 226 226.5 224.8 226.5 224.8C226.5 224.8 227.8 223 228.1 221.9C228.4 220.9 229 219.7 229.1 218.9C229.2 218.1 229.9 216.9 230.1 216.3C230.4 215.6 230.8 214.6 230.8 214.6L229.9 214.7C229.9 214.7 229.2 214.8 228.3 215.2C227.4 215.5 227 215.3 226.2 215.8C225.4 216.3 224.5 217.5 224.1 217.4C223.7 217.3 222.7 217.5 222.3 217.4C221.9 217.3 221.6 217.1 221.3 216.8C220.9 216.4 220.3 215.4 220.1 214.8C220 214.2 219.8 213.9 219.3 213.7C218.8 213.4 218.3 212.4 217.9 212.3C217.6 212.2 217.4 212.3 216.8 212.3C216.2 212.3 216 212.3 216 212.3C216 212.3 214.8 211.3 214.6 209.8C214.3 208.2 214.1 206.8 213.7 206.2C213.3 205.7 214.4 206.1 213.3 205.6C212.3 205.1 212 205 211.7 203.5C211.4 201.9 212 201.5 211.8 201C211.7 200.5 211.7 200.5 211.7 200.5C211.7 200.5 210.1 198.9 209.6 198.3C209.1 197.6 208.8 197 208.9 196.5C209 196 208.8 196 208.4 195.6C208 195.2 207.5 194.6 207.4 194C207.3 193.5 207.3 192.6 207.3 192.6L206.4 191.3L205.4 190.4C205.4 190.4 204.9 188.4 204.4 187.1C203.9 185.8 204.7 185.5 203.4 184.9C202.1 184.2 201.6 184.8 200.8 185C200 185.3 199.5 185.8 199 185.5C198.5 185.2 196 185 194.6 184.6C193.2 184.2 192.8 183.7 192 183.6C191.2 183.5 190.4 182.7 189.8 182.4C189.1 182.1 187.7 182.3 187.1 182.4C186.4 182.5 185.3 183.1 185.4 183.6C185.5 184.1 185.4 184.6 185.7 185.4C186 186.2 185.7 186.7 185.3 186.8C184.9 186.9 184.3 187.5 183.7 186.9C183.2 186.4 180.8 186.1 179.5 185.5C178.2 184.8 177.2 184.5 177 183.9C176.9 183.2 176.7 183.4 176 183.4C175.3 183.4 172.8 183.4 172.8 183.4C172.8 183.4 170 182.3 169.6 181.5C169.2 180.7 168.6 180.1 169.3 179.7C170.1 179.3 170.1 179.2 170.1 179.2C170.1 179.2 170 177.8 169.7 177C169.4 176.2 169.2 175.5 169.8 175.1C170.5 174.7 170.8 175.5 170.5 174.7C170.1 173.9 167.8 174.7 167.4 174.7C167 174.7 166.1 175.2 166.1 175.2C165.1 175.2 164.9 174.7 164.3 174.9C163.6 175.2 162.7 175.3 162.2 175.4C161.7 175.5 160.8 175.7 160.4 175.5C160 175.4 158.6 175.2 157.9 175.5C157.2 175.8 156.3 176.3 155.8 176.2C155.3 176.1 154 176.5 154 176.5C154 176.5 153.2 176.4 152.1 177.9Z" fill="white"/>
<path d="M177.4 174.2C177.4 174.2 177.5 172.9 177.1 172.9C176.6 172.8 175.9 172.7 175.2 172.9C174.5 173.1 173.6 172 173.7 172.8C173.8 173.6 174.1 174.4 174.5 174.3C174.9 174.1 175.5 173.8 175.9 174.3C176.2 174.8 176 175.1 176.7 175C177.3 174.8 177.4 175 177.4 174.2Z" fill="white"/>
<path d="M167.2 170.7C167.2 170.7 168.2 170.6 168.2 169.9C168.2 169.2 168.4 167.9 168.3 167.6C168.2 167.3 167.9 167 167.8 166.9C167.7 166.8 167 166.6 166.9 167C166.8 167.5 167 168.1 166.9 168.4C166.8 168.7 166.3 169.3 166.4 169.6C166.4 169.9 166.3 171.1 167.2 170.7Z" fill="white"/>
<path d="M167.8 165.2C167.8 165 169.1 163.8 168.3 163.6C167.5 163.4 167 163.9 167 164.1C167 164.3 166.9 165.5 167.1 165.3C167.3 165 167.8 165.2 167.8 165.2Z" fill="white"/>
<path d="M205.9 178.5C205.9 178.5 207.1 177.2 206.9 177.3C206.7 177.4 205.3 177.8 204.8 177.9C204.3 178 204.5 178.2 204.8 178.5C205.1 178.8 205.9 178.5 205.9 178.5Z" fill="white"/>
<path d="M216.5 94.2004C216.5 94.2004 216.8 92.4004 216.9 91.5004C217 90.6004 216.4 89.5004 216.9 89.3004C217.4 89.1004 218.1 89.2004 218.3 88.6004C218.4 87.9004 219.5 85.8004 220.2 85.7004C220.9 85.6004 221.8 85.4004 221.8 85.4004C221.8 85.4004 222.5 84.6004 222.4 84.4004C222.3 84.2004 222.6 83.7004 221.7 83.6004C220.8 83.5004 220.2 83.5004 220 84.1004C219.8 84.7004 220 85.1004 219.5 85.1004C219.1 85.2004 217.4 85.5004 217.2 85.6004C217 85.7004 215.7 86.4004 215.5 86.8004C215.3 87.2004 215 87.8004 214.9 88.0004C214.8 88.2004 214.6 87.9004 214.2 88.1004C213.9 88.2004 214 88.9004 214 88.9004C214 88.9004 214.6 89.1004 214.5 89.4004C214.4 89.8004 214.3 90.2004 214.5 90.4004C214.7 90.5004 215.2 90.8004 214.9 91.0004C214.6 91.2004 214.1 91.4004 214 91.3004C213.9 91.2004 213.6 90.8004 213.6 91.4004C213.6 92.0004 213.8 93.2004 214 93.4004C214.2 93.6004 214.5 94.1004 214.5 94.6004C214.5 95.1004 214.4 95.4004 214.4 95.9004C214.4 96.4004 214.5 96.7004 214.1 96.7004C213.7 96.6004 213.8 96.4004 213.5 96.7004C213.2 97.0004 213.2 97.6004 213.5 97.8004C213.8 98.0004 214 98.5004 214.4 98.3004C214.8 98.2004 214.9 97.8004 215.3 98.2004C215.7 98.5004 216.2 98.7004 216.1 99.0004C216 99.4004 215.4 99.3004 216.1 99.7004C216.8 100 217.1 100.4 217.8 100.5C218.4 100.6 219 101 219.7 100.8C220.4 100.7 221 100.4 221 100.4C221 100.4 217.1 100.2 216.5 94.2004Z" fill="white"/>
<path d="M241.1 79.9002C241.1 79.9002 241.5 79.3002 241.9 79.3002C242.3 79.3002 242.9 79.2002 242.8 78.8002C242.7 78.4002 242.1 78.1002 241.9 77.9002C241.7 77.7002 241.6 77.4002 241.1 77.2002C240.6 77.1002 240 77.1002 239.9 76.9002C239.8 76.6002 239.4 76.1002 239.3 76.6002C239.2 77.1002 239.7 77.6002 239.9 77.6002C240.1 77.7002 240.4 78.1002 240.3 78.3002C240.2 78.5002 240.5 79.4002 240.5 79.4002C240.5 79.4002 240.4 80.0002 241.1 79.9002Z" fill="white"/>
<path d="M238.5 77.6997C238.5 77.6997 237.5 77.6997 237 76.3997C236.5 75.0997 235.9 74.1997 235.8 74.2997C235.4 74.7997 235.2 75.3997 235.1 75.0997C235 74.7997 234.8 74.2997 234.5 74.1997C234.2 74.1997 233.7 73.8997 233.6 74.1997C233.5 74.4997 233.3 75.0997 233.6 75.3997C233.9 75.6997 234.6 76.3997 235.1 76.5997C235.6 76.6997 236.1 77.0997 236.5 77.2997C236.8 77.5997 237.9 77.9997 238.3 77.9997C238.6 78.1997 239.6 78.1997 238.5 77.6997Z" fill="white"/>
<path d="M231.2 74.1998H233.2C233.2 72.1998 232 72.8998 231.9 72.5998C231.8 72.2998 231.7 71.8998 231.3 71.5998C230.9 71.2998 231.1 70.1998 230.2 70.6998C229.4 71.1998 230.2 72.6998 230.2 72.8998C230.1 73.0998 230.5 74.1998 231.2 74.1998Z" fill="white"/>
<path d="M200.9 74.1997C200.9 74.1997 200 73.4997 199.9 72.9997C199.8 72.4997 200.4 72.2997 200.4 72.2997C200.5 72.1997 199.7 71.4997 199.4 71.8997C199.1 72.2997 198.9 72.4997 198.6 72.4997C198.3 72.5997 197.9 72.6997 198.1 72.8997C198.3 73.0997 198.1 73.1997 198.6 73.2997C199.1 73.3997 199.1 73.4997 199.4 73.6997C199.8 73.8997 200.9 74.1997 200.9 74.1997Z" fill="white"/>
<path d="M208.2 72.4003C208.2 72.4003 207.1 72.1003 207.4 71.8003C207.7 71.5003 208.2 71.8003 208.2 71.8003C208.7 72.2003 208.7 72.6003 208.2 72.4003Z" fill="white"/>
<path d="M204.3 70.8998C204.1 70.4998 204.1 70.4998 204.1 70.4998C204.1 70.4998 204.6 69.7998 204.1 69.7998C203.6 69.8998 203.1 70.3998 203.1 70.3998C203.1 70.3998 202.6 71.0998 203 70.9998C203.4 70.8998 204.5 71.2998 204.3 70.8998Z" fill="white"/>
<path d="M178.3 77.2004C178.3 77.2004 177.8 76.7004 177.5 76.5004C177.2 76.4004 176.8 76.5004 176.3 76.3004C175.8 76.1004 175.9 75.9004 175.9 75.9004C175.9 75.9004 177.3 76.1004 177.1 75.7004C176.7 74.9004 176.4 74.6004 176 74.8004C175.5 75.1004 175.5 75.4004 175.2 75.4004C174.8 75.4004 174.7 75.9004 174.2 75.3004C173.7 74.7004 173.2 74.1004 173.7 74.1004C174.2 74.1004 174.5 74.5004 174.5 74.1004C174.5 73.7004 174.4 72.9004 174.8 73.3004C175.2 73.7004 175.5 74.1004 175.8 74.1004C176.1 74.1004 176.8 73.9004 177 74.1004C177.2 74.3004 177.5 74.1004 177.5 73.8004C177.5 73.5004 177.9 73.1004 178.3 73.6004C178.7 74.1004 179.3 74.1004 179.7 74.1004C180 74.1004 180.7 74.0004 181 74.1004C181.3 74.2004 182 72.9004 181.8 74.1004C181.5 75.3004 181.1 74.9004 180.8 75.2004C180.5 75.5004 180.8 76.1004 180.3 76.3004C179.8 76.5004 178.9 77.2004 178.9 77.2004H178.3Z" fill="white"/>
<path d="M175.7 77.8004C175.7 77.8004 174.8 77.5004 174.5 77.3004C174.2 77.1004 173.7 76.5004 173.7 76.5004C173.2 76.7004 172.9 76.6004 172.8 76.5004C172.7 76.4004 172.7 75.8004 172.7 75.8004L172 75.2004L170.7 74.9004V75.8004L171.5 77.1004C171.5 77.1004 171.4 77.5004 171.2 77.5004C171 77.5004 170.5 76.9004 170.5 76.9004L170.3 75.9004C170.3 75.9004 169.9 75.9004 169.9 76.1004C169.9 76.3004 170 76.9004 169.8 76.9004C169.5 76.9004 169.4 76.8004 169.2 76.6004C169 76.4004 169 77.0004 168.6 76.4004C168.2 75.9004 168.1 75.8004 167.9 76.0004C167.7 76.3004 167.4 76.3004 167.4 76.6004C167.4 76.9004 167.7 77.1004 167.9 77.3004C168.1 77.5004 167.8 77.5004 167.9 77.9004C168 78.3004 168.3 78.9004 168.6 78.7004C168.9 78.6004 169.2 78.9004 169 79.1004C168.8 79.3004 168.3 79.6004 168.8 79.6004C169.3 79.6004 169.2 80.1004 169.6 79.8004C170.1 79.5004 170.4 79.4004 170.3 79.0004C170.2 78.5004 170.2 78.3004 170.6 78.3004C171 78.2004 171.2 78.3004 171.7 78.6004C172.2 78.9004 172.3 78.4004 172.3 78.4004C172.8 78.4004 172.8 79.4004 173.2 79.3004C173.7 79.2004 173.7 80.0004 173.1 80.0004C172.5 80.0004 172.2 80.1004 171.7 80.0004C171.2 79.9004 170.9 80.2004 170.8 80.4004C170.7 80.6004 170.3 81.1004 170.3 81.1004L171.8 80.8004L172.4 80.6004L173.1 81.1004L172.6 81.6004L171.8 81.7004C171.8 81.7004 172.4 81.9004 172.2 82.1004C172 82.3004 171.6 82.4004 171.4 82.4004C171.2 82.4004 170.7 82.3004 170.9 82.7004C171 83.1004 171.4 84.0004 171.8 83.7004C172.2 83.4004 172.6 83.4004 172.8 83.3004C173.1 83.2004 173.2 83.5004 173.2 83.7004C173.2 83.9004 172.5 84.9004 173 84.9004C173.5 84.9004 173.8 84.9004 173.9 84.7004C174 84.5004 174.1 83.5004 174 83.2004C173.9 82.9004 174.1 82.1004 174.3 81.7004C174.5 81.3004 174.9 80.1004 174.8 79.7004C174.7 79.2004 174.7 78.9004 174.9 78.8004C175.2 78.7004 175.9 78.9004 175.9 78.9004L176.6 78.4004L175.7 77.8004Z" fill="white"/>
<path d="M178.9 80.2004C178.9 80.2004 178.7 79.7004 178.6 79.6004C178.5 79.4004 177.6 80.1004 177.6 80.1004C177.6 80.1004 177.2 80.1004 177.3 80.5004C177.4 80.9004 177.3 81.5004 177.3 81.5004C177.3 81.5004 176.9 82.0004 177 82.1004C177.1 82.2004 177.4 82.5004 177.9 81.8004C178.4 81.2004 178.8 81.8004 178.8 81.8004C178.8 81.8004 179.1 82.7004 179.3 82.2004C179.5 81.7004 179.8 80.8004 179.8 80.8004L179.3 80.2004H178.9Z" fill="white"/>
<path d="M177.6 79.0996L177.3 78.7996C177.2 78.6996 177 78.6996 176.8 78.7996L176.6 78.9996L176.3 79.5996C176.3 79.5996 176.8 79.7996 176.9 79.6996C177.1 79.5996 177.6 79.0996 177.6 79.0996Z" fill="white"/>
<path d="M34.5002 57.7002L71.2002 127.7H3.7002L34.5002 57.7002Z" stroke="#A7C6C9" stroke-miterlimit="10"/>
<path d="M131.2 4.59961L34.5 57.6996L98.2 50.5996L131.2 4.59961Z" stroke="#A7C6C9" stroke-width="0.5" stroke-miterlimit="10"/>
<path d="M167.2 101.6L98.2002 50.5996L71.2002 127.7L167.2 101.6Z" stroke="#A7C6C9" stroke-width="0.5" stroke-miterlimit="10"/>
<path d="M25.2002 209.6L3.7002 127.7L3.2002 240.6L25.2002 209.6Z" stroke="#A7C6C9" stroke-width="0.5" stroke-miterlimit="10"/>
<path d="M118.2 214.6L25.2002 209.6L71.2002 127.7L118.2 214.6Z" stroke="#A7C6C9" stroke-width="0.5" stroke-miterlimit="10"/>
<path d="M167.2 101.6L118.2 214.6L202.2 256.6L167.2 101.6Z" stroke="#A7C6C9" stroke-width="0.5" stroke-miterlimit="10"/>
<path d="M3.2002 240.6L81.2002 319.6L25.2002 209.6L3.2002 240.6Z" stroke="#A7C6C9" stroke-width="0.5" stroke-miterlimit="10"/>
<path d="M140.2 351.6L81.2002 319.6L207.2 342.6L140.2 351.6Z" stroke="#A7C6C9" stroke-width="0.5" stroke-miterlimit="10"/>
<path d="M118.2 214.6L81.2002 319.6L207.2 342.6L118.2 214.6Z" stroke="#A7C6C9" stroke-width="0.5" stroke-miterlimit="10"/>
<path d="M292.2 306.6L202.2 256.6L207.2 342.6L292.2 306.6Z" stroke="#A7C6C9" stroke-width="0.5" stroke-miterlimit="10"/>
<path d="M345.2 223.6L292.2 306.6L202.2 256.6L345.2 223.6Z" stroke="#A7C6C9" stroke-width="0.5" stroke-miterlimit="10"/>
<path d="M345.2 143.6L287.2 135.6L345.2 223.6V143.6Z" stroke="#A7C6C9" stroke-miterlimit="10"/>
<path d="M202.2 256.6L287.2 135.6L167.2 101.6L202.2 256.6Z" stroke="#A7C6C9" stroke-width="0.5" stroke-miterlimit="10"/>
<path d="M301.2 41.5996L287.2 135.6L345.2 143.6L301.2 41.5996Z" stroke="#A7C6C9" stroke-width="0.5" stroke-miterlimit="10"/>
<path d="M218.2 26.5996L131.2 4.59961L223.2 8.59961L218.2 26.5996Z" stroke="#A7C6C9" stroke-width="0.5" stroke-miterlimit="10"/>
<path d="M301.2 41.5996L218.2 26.5996L167.2 101.6L301.2 41.5996Z" stroke="#A7C6C9" stroke-width="0.5" stroke-miterlimit="10"/>
<path d="M301.2 41.5996L223.2 8.59961L131.2 4.59961L167.2 101.6" stroke="#A7C6C9" stroke-width="0.5" stroke-miterlimit="10"/>
<path d="M37.4 57.6004C37.4 59.4004 36 60.8004 34.2 60.8004C32.4 60.8004 31 59.4004 31 57.6004C31 55.8004 32.4 54.4004 34.2 54.4004C36 54.4004 37.4 55.8004 37.4 57.6004Z" fill="#A7C6C9"/>
<path d="M135.8 4.6C135.8 7.1 133.7 9.2 131.2 9.2C128.7 9.2 126.6 7.1 126.6 4.6C126.6 2.1 128.7 0 131.2 0C133.7 0 135.8 2.1 135.8 4.6Z" fill="#A7C6C9"/>
<path d="M102.8 50.6C102.8 53.1 100.7 55.2 98.1996 55.2C95.6996 55.2 93.5996 53.1 93.5996 50.6C93.5996 48.1 95.6996 46 98.1996 46C100.7 46 102.8 48.1 102.8 50.6Z" fill="#A7C6C9"/>
<path d="M75.7996 127.6C75.7996 130.1 73.6996 132.2 71.1996 132.2C68.6996 132.2 66.5996 130.1 66.5996 127.6C66.5996 125.1 68.6996 123 71.1996 123C73.6996 123 75.7996 125.1 75.7996 127.6Z" fill="#A7C6C9"/>
<path d="M28.4 209.6C28.4 211.4 27 212.8 25.2 212.8C23.4 212.8 22 211.4 22 209.6C22 207.8 23.4 206.4 25.2 206.4C27 206.4 28.4 207.8 28.4 209.6Z" fill="#A7C6C9"/>
<path d="M122.8 214.6C122.8 217.1 120.7 219.2 118.2 219.2C115.7 219.2 113.6 217.1 113.6 214.6C113.6 212.1 115.7 210 118.2 210C120.7 210 122.8 212.1 122.8 214.6Z" fill="#A7C6C9"/>
<path d="M84.4 319.6C84.4 321.4 83 322.8 81.2 322.8C79.4 322.8 78 321.4 78 319.6C78 317.8 79.4 316.4 81.2 316.4C83 316.4 84.4 317.8 84.4 319.6Z" fill="#A7C6C9"/>
<path d="M210.4 342.6C210.4 344.4 209 345.8 207.2 345.8C205.4 345.8 204 344.4 204 342.6C204 340.8 205.4 339.4 207.2 339.4C209 339.4 210.4 340.8 210.4 342.6Z" fill="#A7C6C9"/>
<path d="M295.4 306.6C295.4 308.4 294 309.8 292.2 309.8C290.4 309.8 289 308.4 289 306.6C289 304.8 290.4 303.4 292.2 303.4C294 303.4 295.4 304.8 295.4 306.6Z" fill="#A7C6C9"/>
<path d="M206.8 256.6C206.8 259.1 204.7 261.2 202.2 261.2C199.7 261.2 197.6 259.1 197.6 256.6C197.6 254.1 199.7 252 202.2 252C204.7 252 206.8 254.1 206.8 256.6Z" fill="#A7C6C9"/>
<path d="M291.8 135.6C291.8 138.1 289.7 140.2 287.2 140.2C284.7 140.2 282.6 138.1 282.6 135.6C282.6 133.1 284.7 131 287.2 131C289.7 131 291.8 133.1 291.8 135.6Z" fill="#A7C6C9"/>
<path d="M305.8 41.6C305.8 44.1 303.7 46.2 301.2 46.2C298.7 46.2 296.6 44.1 296.6 41.6C296.6 39.1 298.7 37 301.2 37C303.7 37 305.8 39.1 305.8 41.6Z" fill="#A7C6C9"/>
<path d="M227.8 8.6C227.8 11.1 225.7 13.2 223.2 13.2C220.7 13.2 218.6 11.1 218.6 8.6C218.6 6.1 220.7 4 223.2 4C225.7 4 227.8 6.1 227.8 8.6Z" fill="#A7C6C9"/>
<path d="M171.8 101.6C171.8 104.1 169.7 106.2 167.2 106.2C164.7 106.2 162.6 104.1 162.6 101.6C162.6 99.1 164.7 97 167.2 97C169.7 97 171.8 99.1 171.8 101.6Z" fill="#A7C6C9"/>
<path d="M349.8 223.6C349.8 226.1 347.7 228.2 345.2 228.2C342.7 228.2 340.6 226.1 340.6 223.6C340.6 221.1 342.7 219 345.2 219C347.7 219 349.8 221.1 349.8 223.6Z" fill="#A7C6C9"/>
<path d="M349.8 143.6C349.8 146.1 347.7 148.2 345.2 148.2C342.7 148.2 340.6 146.1 340.6 143.6C340.6 141.1 342.7 139 345.2 139C347.7 139 349.8 141.1 349.8 143.6Z" fill="#A7C6C9"/>
<path d="M222.8 26.6C222.8 29.1 220.7 31.2 218.2 31.2C215.7 31.2 213.6 29.1 213.6 26.6C213.6 24.1 215.7 22 218.2 22C220.7 22 222.8 24.1 222.8 26.6Z" fill="#A7C6C9"/>
<path d="M143.4 351.6C143.4 353.4 142 354.8 140.2 354.8C138.4 354.8 137 353.4 137 351.6C137 349.8 138.4 348.4 140.2 348.4C142 348.4 143.4 349.8 143.4 351.6Z" fill="#A7C6C9"/>
<path d="M6.4 240.6C6.4 242.4 5 243.8 3.2 243.8C1.4 243.8 0 242.4 0 240.6C0 238.8 1.4 237.4 3.2 237.4C5 237.4 6.4 238.8 6.4 240.6Z" fill="#A7C6C9"/>
<path d="M6.4 127.6C6.4 129.4 5 130.8 3.2 130.8C1.4 130.8 0 129.4 0 127.6C0 125.8 1.4 124.4 3.2 124.4C5 124.4 6.4 125.8 6.4 127.6Z" fill="#A7C6C9"/>
</g>
<defs>
<radialGradient id="paint0_radial_689_210" cx="0" cy="0" r="1" gradientUnits="userSpaceOnUse" gradientTransform="translate(142.244 145.186) scale(172.355)">
<stop stop-color="#83F7E2"/>
<stop offset="1" stop-color="#5CBFD4"/>
</radialGradient>
<clipPath id="clip0_689_210">
<rect width="349.8" height="354.8" fill="white"/>
</clipPath>
</defs>
</svg>
